<svg xmlns="http://www.w3.org/2000/svg" viewBox="0 0 6.82 8.38"><defs><style>.cls-1{fill:#fff;}</style></defs><title>cancella indirizzo di consegna</title><g id="Livello_2" data-name="Livello 2"><g id="Livello_1-2" data-name="Livello 1"><path class="cls-1" d="M6.68.85h-2A1.13,1.13,0,0,0,4.43.18.6.6,0,0,0,4,0H2.56a.6.6,0,0,0-.45.18,1.13,1.13,0,0,0-.26.67H.14a.14.14,0,1,0,0,.28H.43L.7,7.68a.69.69,0,0,0,.7.71h4a.69.69,0,0,0,.7-.7l.27-6.54h.29a.14.14,0,0,0,0-.28ZM2.13,7.11a.14.14,0,0,1-.28,0V2.42a.14.14,0,0,1,.28,0Zm1.42,0a.14.14,0,0,1-.28,0V2.42a.14.14,0,0,1,.28,0ZM5,7.11a.14.14,0,1,1-.28,0V2.42a.14.14,0,0,1,.28,0ZM2.32.38a.32.32,0,0,1,.24-.1H4a.32.32,0,0,1,.24.1A.84.84,0,0,1,4.4.85H2.14A.84.84,0,0,1,2.32.38Zm0,0"/></g></g></svg>