<svg xmlns="http://www.w3.org/2000/svg" viewBox="0 0 9.69 9.96"><defs><style>.cls-1{fill:#e11f21;}</style></defs><title>icona PROFILO</title><g id="Livello_2" data-name="Livello 2"><g id="Livello_1-2" data-name="Livello 1"><path class="cls-1" d="M7.6,5.52a.24.24,0,0,0-.24.24V9.43a0,0,0,0,1,0,0H.53a0,0,0,0,1,0,0v-7H1.95a.53.53,0,0,0,.53-.53V.48H7.32a0,0,0,0,1,0,0v.76a.24.24,0,1,0,.48,0V.53A.53.53,0,0,0,7.32,0H2.23a.24.24,0,0,0-.17.07l-2,2A.24.24,0,0,0,0,2.23v7.2A.53.53,0,0,0,.53,10H7.32a.53.53,0,0,0,.53-.53V5.76A.24.24,0,0,0,7.6,5.52ZM2,1.95a0,0,0,0,1,0,0H.82L2,.82Z"/><path class="cls-1" d="M9.45,2l-.28-.28A.81.81,0,0,0,8,1.67L5.77,3.91H1.88a.24.24,0,1,0,0,.48H5.29L3.85,5.84h-2a.24.24,0,1,0,0,.48H3.36a.24.24,0,0,0-.06.11L2.93,7.77h-1a.24.24,0,0,0,0,.48H3.17l1.52-.42a.24.24,0,0,0,.11-.06L9.45,3.1A.81.81,0,0,0,9.45,2ZM4.62,7.25,3.87,6.5,7.72,2.65l.75.75ZM3.65,7l.51.51-.71.2Zm5.46-4.2-.3.3-.75-.75.3-.3a.33.33,0,0,1,.47,0l.28.28A.33.33,0,0,1,9.11,2.76Z"/></g></g></svg>