<svg xmlns="http://www.w3.org/2000/svg" viewBox="0 0 8.01 8.23"><defs><style>.cls-1{fill:#fff;}</style></defs><title>modifica indirizzo consegna</title><g id="Livello_2" data-name="Livello 2"><g id="Livello_1-2" data-name="Livello 1"><path class="cls-1" d="M6.28,4.57a.2.2,0,0,0-.2.2v3a0,0,0,0,1,0,0H.43a0,0,0,0,1,0,0V2H1.61A.43.43,0,0,0,2,1.61V.4H6a0,0,0,0,1,0,0v.63a.2.2,0,1,0,.4,0V.43A.43.43,0,0,0,6,0H1.85A.2.2,0,0,0,1.7.06L.06,1.7A.2.2,0,0,0,0,1.85v6a.44.44,0,0,0,.43.43H6a.43.43,0,0,0,.43-.43v-3A.2.2,0,0,0,6.28,4.57Zm-4.64-3a0,0,0,0,1,0,0H.68l1-1Z"/><path class="cls-1" d="M7.81,1.61l-.23-.23a.67.67,0,0,0-1,0L4.77,3.24H1.55a.2.2,0,0,0,0,.4H4.38l-1.2,1.2H1.55a.2.2,0,0,0,0,.4H2.78a.2.2,0,0,0-.05.09L2.42,6.42H1.55a.2.2,0,1,0,0,.4H2.62l1.25-.35A.2.2,0,0,0,4,6.42L7.81,2.57A.67.67,0,0,0,7.81,1.61ZM3.82,6,3.2,5.37,6.38,2.19,7,2.82ZM3,5.75l.42.42-.58.16ZM7.53,2.28l-.25.25-.62-.62.25-.25a.28.28,0,0,1,.39,0l.23.23A.28.28,0,0,1,7.53,2.28Z"/></g></g></svg>