<svg xmlns="http://www.w3.org/2000/svg" viewBox="0 0 13.24 11.43"><defs><style>.cls-1{fill:#e11f21;}</style></defs><title>icona storico ordini</title><g id="Livello_2" data-name="Livello 2"><g id="Livello_1-2" data-name="Livello 1"><path class="cls-1" d="M12.8,9.93h-.71a.81.81,0,0,0,0-.21l.2-2.84a.26.26,0,0,0-.06-.18l0,0,.53-1.37a.26.26,0,0,0,0-.18A.23.23,0,0,0,12.66,5L12,4.69a.19.19,0,0,0-.16,0,.26.26,0,0,0,0-.18.22.22,0,0,0-.14-.1L11,4.27a.19.19,0,0,0-.12,0l0-.29a.22.22,0,0,0-.23-.22L10,3.83a.21.21,0,0,0-.15.08.26.26,0,0,0-.05.17l0,.48,0-.08a.21.21,0,0,0-.27-.16l-.66.21a.22.22,0,0,0-.13.11.26.26,0,0,0,0,.18l.47,1.8h0A.21.21,0,0,0,9,6.7a.26.26,0,0,0-.06.18L9,8.66H8.68a.21.21,0,0,0-.17.09.26.26,0,0,0,0,.2l.18,1h-1a1.08,1.08,0,0,0,.13-.53V9.35a.78.78,0,0,0,0-1.42V7.29A.5.5,0,0,0,8,6.86V6.35c0-.32-.2-.77-1.15-1.13a7.43,7.43,0,0,0-2.49-.39,7.43,7.43,0,0,0-2.49.39C.89,5.58.69,6,.69,6.35v.51a.5.5,0,0,0,.23.43v.64a.78.78,0,0,0,0,1.42v.06A1.08,1.08,0,0,0,1,9.93H.44a.47.47,0,0,0-.44.49v.51a.47.47,0,0,0,.44.49H12.8a.47.47,0,0,0,.44-.49v-.51a.47.47,0,0,0-.44-.49ZM11.56,6.51v0l.48-1.26.24.11L11.8,6.62h-.26ZM11,5.8v0l.17-1,.25.05-.3,1.78h-.26Zm-.52-1.53.09,1.46-.15.89h-.06l-.15-2.33ZM11.88,7.1,11.7,9.68a.26.26,0,0,1-.24.25h-.69l.18-1a.26.26,0,0,0,0-.2.21.21,0,0,0-.17-.09H9.48L9.37,7.1ZM9.42,4.84l.46,1.78H9.62l-.44-1.7Zm1.06,4.29-.14.78H9.08l-.14-.78ZM1.12,6.35c0-.26.46-.53.86-.67a4.91,4.91,0,0,1,.6-.18h0l.69.76a.2.2,0,0,0,.3,0,.26.26,0,0,0,0-.34L3.1,5.4l.49-.06L4.64,6.52a.2.2,0,0,0,.3,0,.26.26,0,0,0,0-.34l-.78-.86h.54l.85.94a.2.2,0,0,0,.3,0,.26.26,0,0,0,0-.34l-.5-.55a5.88,5.88,0,0,1,1.33.3c.4.15.86.41.86.67v.53H1.13V6.35Zm6.21,1v.54H6.94l-.49-.54Zm-1,.54H5.57l-.49-.54h.77ZM5,7.89H4.19l-.49-.54h.77Zm-1.37,0H2.82l-.49-.54H3.1Zm-1.37,0H1.34V7.35h.38ZM.89,8.64a.26.26,0,0,1,.24-.27H7.54a.27.27,0,0,1,0,.54H1.13a.26.26,0,0,1-.24-.27Zm6.43.75v0a.5.5,0,0,1-.47.53h-5a.5.5,0,0,1-.47-.53v0Zm5.49,1.54v0H.44v-.54H12.8v.53Zm0,0"/><path class="cls-1" d="M3.89,2.79a1.21,1.21,0,0,0,.28.79.72.72,0,0,1,.18.49.22.22,0,1,0,.43,0,1.21,1.21,0,0,0-.28-.79.74.74,0,0,1,0-1,1.21,1.21,0,0,0,.28-.79A1.21,1.21,0,0,0,4.5.73.72.72,0,0,1,4.32.24a.22.22,0,1,0-.43,0A1.21,1.21,0,0,0,4.17,1a.72.72,0,0,1,.18.49A.72.72,0,0,1,4.17,2a1.21,1.21,0,0,0-.28.79Zm0,0"/><path class="cls-1" d="M5,3a.21.21,0,0,0,.17-.09,2.28,2.28,0,0,0,.48-1.42A2.33,2.33,0,0,0,5.53.65.21.21,0,0,0,5.25.53a.25.25,0,0,0-.11.31,1.81,1.81,0,0,1,.12.67,1.77,1.77,0,0,1-.38,1.12.25.25,0,0,0,0,.15A.23.23,0,0,0,5,3ZM5,3"/><path class="cls-1" d="M3.33,3.79l.09,0a.25.25,0,0,0,.11-.31,1.81,1.81,0,0,1-.12-.67,1.77,1.77,0,0,1,.38-1.12v0a.26.26,0,0,0,0-.27.2.2,0,0,0-.3-.07l-.06.07A2.27,2.27,0,0,0,3,2.79a2.33,2.33,0,0,0,.16.86.21.21,0,0,0,.2.14Zm0,0"/></g></g></svg>