<svg xmlns="http://www.w3.org/2000/svg" viewBox="0 0 10.23 10.83"><defs><style>.cls-1{fill:#e11f21;}</style></defs><title>icona indirizzo</title><g id="Livello_2" data-name="Livello 2"><g id="Livello_1-2" data-name="Livello 1"><path class="cls-1" d="M8.54,3.79l1.62-1.46a.22.22,0,0,0,0-.33L8.54.54H5.06V.18a.18.18,0,1,0-.36,0V.54H1.52a.61.61,0,0,0-.61.61v2a.61.61,0,0,0,.61.61H4.69v.36h-3L.07,5.62A.22.22,0,0,0,0,5.78a.22.22,0,0,0,.07.16L1.7,7.4h3v3.25a.18.18,0,1,0,.36,0V7.4H8.78a.61.61,0,0,0,.61-.61v-2a.61.61,0,0,0-.61-.61H5.06V3.79Zm.49,1v2A.25.25,0,0,1,8.78,7H1.84L.43,5.78l1.4-1.26H8.78A.25.25,0,0,1,9,4.77ZM1.26,3.18v-2A.25.25,0,0,1,1.52.9H8.4L9.8,2.17,8.4,3.43H1.52a.25.25,0,0,1-.25-.25Zm0,0"/></g></g></svg>