<svg xmlns="http://www.w3.org/2000/svg" viewBox="0 0 11.28 9.97"><defs><style>.cls-1{fill:#e11f21;}</style></defs><title>icona whishlist</title><g id="Livello_2" data-name="Livello 2"><g id="Livello_1-2" data-name="Livello 1"><path class="cls-1" d="M8.06,0A3.21,3.21,0,0,0,5.78.95l-.14.14L5.5.95A3.23,3.23,0,0,0,.94.94a3.23,3.23,0,0,0,0,4.56L5.26,9.81a.53.53,0,0,0,.76,0l4.32-4.31A3.23,3.23,0,0,0,8.06,0ZM9.57,4.75,5.64,8.67,1.71,4.74a2.15,2.15,0,1,1,3-3l.52.52a.54.54,0,0,0,.76,0l.52-.52a2.15,2.15,0,0,1,3,0,2.11,2.11,0,0,1,.63,1.52,2.14,2.14,0,0,1-.63,1.52Zm0,0"/></g></g></svg>