<svg xmlns="http://www.w3.org/2000/svg" viewBox="0 0 10.79 13.01"><defs><style>.cls-1{fill:#e11f21;}.cls-2{fill:#fff;}</style></defs><title>icona credito</title><g id="Livello_2" data-name="Livello 2"><g id="Livello_1-2" data-name="Livello 1"><path class="cls-1" d="M6.32,9.18h0Zm0,0"/><path class="cls-1" d="M6.08,2.83C7.07,2,7.73.13,7.32,0A9.83,9.83,0,0,0,5,.5c-.8.1-1.68-.87-2.17-.33s.29,2,1.36,2.73C1,4.48-3.49,12.39,4.37,13c10.88.79,5.43-8.59,1.7-10.13Z"/><path class="cls-2" d="M3.88,8.8H2.71a.07.07,0,0,1-.08-.09.13.13,0,0,1,.12-.1H3.92Zm.43-2H3.54a.13.13,0,0,0-.12.1.07.07,0,0,0,.08.1h.77Zm3.56.18-.17.82a.13.13,0,0,1-.09.09l-.2,0c-.08.18-.43.24-.61.34h0a4.66,4.66,0,0,1,.6-.38c.25-.1,0-.16-.32,0A2.3,2.3,0,0,0,6.89,8c.09-.16.25-.35.16-.36S7,7.77,6.5,8c-.1.05-.31.15-.39,0S5.8,7.94,5.8,8L5.65,8a.06.06,0,0,1,0-.07l.16-.73A.33.33,0,0,1,5.89,7l.41-.32a.46.46,0,0,0-.07-.21.45.45,0,0,0-.39-.16.71.71,0,0,0-.48.18,1.4,1.4,0,0,0-.27.71c-.1.46-.17.79-.05,1a.42.42,0,0,0,.38.17.69.69,0,0,0,.35-.09.39.39,0,0,1,.46,0l0,0a.25.25,0,0,1,.07.24.4.4,0,0,1-.16.24,1.52,1.52,0,0,1-.9.3.9.9,0,0,1-.57-.18l-.27,1.3a.49.49,0,0,1-.46.37.29.29,0,0,1-.3-.36l.38-1.79L4.17,8h.28a.31.31,0,0,0,.28-.24.18.18,0,0,0-.18-.23H4.26l.06-.26.29-1.38a.49.49,0,0,1,.46-.37.3.3,0,0,1,.29.17A1.65,1.65,0,0,1,6,5.56,1,1,0,0,1,6.91,6l0,0,.54-.16a.07.07,0,0,1,.08.09l-.08.38h0l-.26.37a.17.17,0,0,1-.09.06L6,7a.27.27,0,0,0-.18.19l-.13.6a0,0,0,0,0,.06.06L7,7.6a.14.14,0,0,0,.1-.1l.12-.55a.14.14,0,0,1,.17-.11l.4.12s-.36-.21-.36-.21a.08.08,0,0,1,0-.13l.08-.12c0-.06.13-.07.16,0l.27.45M6.67,6.51l.39-.11h0a.25.25,0,0,0,.15-.14c0-.07,0-.13-.07-.12l-.4.12a.21.21,0,0,0-.15.14c0,.07,0,.13.07.12M4.59,7.77a.07.07,0,0,0-.08-.09H2.68a.13.13,0,0,0-.12.11.07.07,0,0,0,.08.09H4.47a.13.13,0,0,0,.12-.11"/></g></g></svg>