<svg xmlns="http://www.w3.org/2000/svg" viewBox="0 0 170.16 173.12"><defs><style>.cls-1{opacity:0.4;}.cls-2{fill:#1d1d1b;}.cls-3{fill:none;stroke:#1d1d1b;stroke-width:0.5px;}.cls-3,.cls-4{stroke-miterlimit:10;}.cls-4,.cls-6{font-size:26.4px;fill:#e11f21;font-family:VarelaRound, Varela Round;}.cls-4{stroke:#fff;stroke-width:9px;}.cls-5{letter-spacing:-0.06em;}.cls-7{fill:#e30613;}</style></defs><title>Sito PrestoFood_Risorsa 44</title><g id="Livello_2" data-name="Livello 2"><g id="Livello_1-2" data-name="Livello 1"><g class="cls-1"><path class="cls-2" d="M56.32,68.52c-.93,0-1.52-.88-1.79-1.41l-.45-.87-.53.82c-.08.13-.15.25-.21.35L53,67.28a5,5,0,0,1,2.57-2.36,2,2,0,0,1,.73-.14c1.12,0,2,1.09,2.7,1.88.22.26.41.49.59.67l-.2.34-.48-.5-.41.37a3.43,3.43,0,0,1-2,1Zm-1.69-2.16c0,.07.57,1.77,1.7,1.77a3,3,0,0,0,1.91-.9l.4-.38-.36-.41c-.68-.77-1.28-1.28-2-1.28a1.61,1.61,0,0,0-.59.11,4,4,0,0,0-.84.45l-.14.09-.28-.17Z"/><path class="cls-2" d="M86.23,74.22l-.42,0c-5.66-.68-7.25-2.41-7.42-2.6l-.13-.16.16-.12s3.29-2.46,2.39-4.29a3.87,3.87,0,0,0-3.74-2.25,8.14,8.14,0,0,0-1.85.24l-.11-.37a8.6,8.6,0,0,1,2-.25,4.22,4.22,0,0,1,4.07,2.46c.76,1.53-.8,3.28-1.79,4.18l-.56.5.64.4a15.69,15.69,0,0,0,6.41,1.88l.35,0c2.46,0,4.18-3.08,4.8-6.14.82-4.07-.06-8.69-3.33-9.63a16.86,16.86,0,0,0-5.23-.86A16.23,16.23,0,0,0,71,62.12l-.29-.24a17.26,17.26,0,0,1,11.8-5,17,17,0,0,1,5.26.87c3.5,1,4.46,5.83,3.6,10.08C90.74,71,88.89,74.22,86.23,74.22Z"/><polygon class="cls-2" points="71.07 62.9 71.07 62.9 70.49 62.41 71.07 62.9"/><polygon class="cls-2" points="71.07 62.9 71.07 62.9 71.07 62.9 71.07 62.9"/><path class="cls-2" d="M85.47,69.87c.59-1.78,1.75-6.48-1.63-8A6.8,6.8,0,0,0,81,61.21a11.87,11.87,0,0,0-5.66,1.68l-.22-.32a12.36,12.36,0,0,1,5.86-1.75,7.21,7.21,0,0,1,3.06.65c3.75,1.74,2.36,6.94,1.83,8.54Z"/><path class="cls-2" d="M76.36,70.68a.54.54,0,0,1-.18,0l-.11,0v-.12c0-.25-.36-2.44-2.4-2.44l-.52,0,.28-.33a5,5,0,0,1,3.47-1.66,4.19,4.19,0,0,1,1.58.32c1.31.53,1.11,1.47,1,1.85A4.59,4.59,0,0,1,76.36,70.68Zm.54-4.21A4,4,0,0,0,75,67l-.88.49.88.5a3.14,3.14,0,0,1,1.33,1.76l.21.64.59-.31c.58-.31,1.91-1.3,2.06-2.23.07-.47-.2-.84-.82-1.09A3.76,3.76,0,0,0,76.9,66.47Z"/><path class="cls-2" d="M72.64,73.88a.66.66,0,0,1-.2-.11,1.22,1.22,0,0,1-.25-1.14Zm-.41-1.49A3,3,0,0,0,71,69.85a2.15,2.15,0,0,1-1.15-1.12c-.54-1.27,0-3.14.26-4l.36.15c-.29.9-.74,2.61-.27,3.7a1.54,1.54,0,0,0,.89.87l.07,0a3.47,3.47,0,0,1,1.44,2.91Z"/><path class="cls-2" d="M54.54,75.07a1.76,1.76,0,0,0-.69-.42,2,2,0,0,0-.62-.09,3.63,3.63,0,0,0-1.57.42l-.2-.33a4,4,0,0,1,1.77-.48,2.38,2.38,0,0,1,.74.11,2.15,2.15,0,0,1,.95.63Z"/><path class="cls-2" d="M140.28,126a38.65,38.65,0,0,1,9-1.34,12.21,12.21,0,0,1,3.91.53l.46.16.23-.43a5.83,5.83,0,0,0-.58-6.2l.29-.27a6.21,6.21,0,0,1,.27,7.25l-.09.14-.15-.07a10.4,10.4,0,0,0-4.29-.74,38.66,38.66,0,0,0-9,1.33Z"/><path class="cls-2" d="M154.48,96.26c-.86-7-3.17-20.53-6.13-24.11l.26-.29c3.62,4.29,5.87,21.28,6.25,24.35Z"/><path class="cls-2" d="M44.81,86.16l.15-.4.43,0c1.2.09,2.39.14,3.54.14a28.68,28.68,0,0,0,8.45-1.09l.52-.16-.14-.37A27.68,27.68,0,0,1,49,85.52c-5.89,0-11.92-1.2-13.86-2.32a6,6,0,0,1-1.7-1.32l-.61-.76c-.21.61.59,1.53,2.11,2.41l.26.13,3.52,1.2-3.46-.05-.24,0a14.59,14.59,0,0,1-4.81-1,3.48,3.48,0,0,0-1.66-.45,1.29,1.29,0,0,0-1.06.39l0,.07.95-.07h.14a3.07,3.07,0,0,1,1.48.4c1.15.66,4.7,1.18,8.09,1.18.49,0,1,0,1.4,0l0-.3.72.14c1.14.21,2.35.39,3.61.53l.83.09-.39.74A6.61,6.61,0,0,1,41.63,89l-.84.33v-.39C38.66,88.75,31,88,28.32,85a3.29,3.29,0,0,1-.37-.41l-.56-.76c-.16.38.07.86.67,1.45,2.26,2.51,7.8,3.45,10.9,3.78l2.09.22-2.5,1.12a11.13,11.13,0,0,0-3.11,1.74l-.23.22-.31-.09a3.85,3.85,0,0,0-1-.15,2.07,2.07,0,0,0-1.67.69L32,93l-.22,0a7.38,7.38,0,0,0-3.29,1l-.21.17-.27-.06a7.22,7.22,0,0,1-1-.29,2.31,2.31,0,0,0-.75-.18,1.43,1.43,0,0,0-.85.37l-.21.16L25,94.23A5.75,5.75,0,0,0,23.77,94a1.58,1.58,0,0,0-.67.14l-.23.11-.23-.11a3.3,3.3,0,0,0-1.37-.33,2.38,2.38,0,0,0-1.19.31l-.22.13-.24-.08a4.7,4.7,0,0,0-1.46-.27,2.6,2.6,0,0,0-.42,0l-.1,0-.19,0-.09,0a4,4,0,0,0-1.72-.62,1.12,1.12,0,0,0-.35.05L15,93.4l-.23-.17a16.9,16.9,0,0,1-1.89-1.55l-.06-.06-.22,0-.24-.05,0-.09a3.76,3.76,0,0,1-1.49-1.41,8.09,8.09,0,0,1-.64-3.39c-.1-1.66-.2-3.23-1-3.66A9,9,0,0,0,6,82.65a20.73,20.73,0,0,0-2.77.2c.05.11.12.22.17.34A20.45,20.45,0,0,1,6.05,83,7.81,7.81,0,0,1,9,83.39c.5.25.69,1,.84,3.34a8.22,8.22,0,0,0,.7,3.58,4.61,4.61,0,0,0,1.26,1.32l.48.31-.32.47a4.83,4.83,0,0,0-.31,3.93l.36-.15a4.43,4.43,0,0,1,.34-3.65l.36-.51.47.41c.31.27.83.7,1.54,1.2l.18.13,0,.22c.61,3,1.28,4.25,1.73,4.78l.07-.53a12.06,12.06,0,0,1-1.32-3.83l-.21-1,.93.3a5.71,5.71,0,0,1,.95.43l.25.14,0,.29a12.9,12.9,0,0,0,2,5.24l.3-.24A12.76,12.76,0,0,1,17.82,95l-.13-.73.74.07a4.79,4.79,0,0,1,.89.18l.36.11,0,.37c.2,1.76,2,4.46,2.76,5.55l.31-.23c-1-1.42-2.54-3.93-2.68-5.34l0-.41.38-.17a2,2,0,0,1,.8-.16,3.09,3.09,0,0,1,1.34.35l.65.37L23,94.36l.9,0a4.82,4.82,0,0,1,.71.12l.23,0,.13.19C26.83,97.62,30.78,101,32,102l.24-.3a43.41,43.41,0,0,1-6.55-6.51l-.34-.46.47-.33a1,1,0,0,1,.58-.2,1.65,1.65,0,0,1,.58.14,7.28,7.28,0,0,0,1.49.39l.5.08.14.17a26.94,26.94,0,0,0,6.56,5.52l.18-.34a27.11,27.11,0,0,1-6.32-5.27L29,94.2l.8-.26a14.22,14.22,0,0,1,2-.47l.31-.05.21.24a14.88,14.88,0,0,0,7.42,4.83l.05-.39a14.68,14.68,0,0,1-7-4.47l-.51-.57.7-.32a2,2,0,0,1,.84-.17,3.75,3.75,0,0,1,1.36.28l.11.05.38.17a75.69,75.69,0,0,0,8.58,3l.1-.37c-1.44-.42-5.18-1.55-7.91-2.7l-1-.42.9-.58a17,17,0,0,1,2.35-1.18l.95-.43.23.11a28.18,28.18,0,0,0,7.76,1.77l0-.38a33.92,33.92,0,0,1-6.34-1.23l-1.27-.42,1.19-.63.31-.15c.22-.12.42-.24.61-.36l.19-.12.23,0a14.47,14.47,0,0,0,3,.29,24.19,24.19,0,0,0,6.24-.91L51.69,88a24.37,24.37,0,0,1-6.16.89c-.52,0-1,0-1.51-.07l-1.17-.12.81-.84A5.07,5.07,0,0,0,44.81,86.16Z"/><path class="cls-2" d="M23,95.41a16.72,16.72,0,0,0,2.89,4.91l.24-.31a16.89,16.89,0,0,1-2.77-4.74Z"/><path class="cls-2" d="M51.88,143.82c1.82-.22,3.41-.34,4.23-.39l0-.38c-.82.05-2.41.17-4.26.39Z"/><path class="cls-2" d="M81.6,153.45v-.38c-10.83.33-31,2.66-35,3.13l-.63.07v-4.54h-.38v4.67L44,157.89l.51,8.84.38,0-.5-8.66,1.36-1.3.16-.08H46c2.38-.28,23.56-2.79,35.11-3.19Z"/><path class="cls-2" d="M163.31,152.38l-3.19-.26,0,.38h.1l3.05.25Q163.27,152.57,163.31,152.38Z"/><path class="cls-2" d="M46.6,145a3.32,3.32,0,0,0-2,2.22,4.45,4.45,0,0,0,1,3.3l.07.09.11,0c.16,0,16.43-3.38,41-4.39l1,0v-.38c-10.18.38-20.21,1.22-29.84,2.49l-1.45.2c-5.45.75-9,1.4-10.29,1.65l-.38.07-.21-.33a3.68,3.68,0,0,1-.61-2.56,3,3,0,0,1,1.76-1.95,13.65,13.65,0,0,0,4-2.61l.13-.16a5.86,5.86,0,0,0,1.27-4.12V138l.49-.08a62,62,0,0,1,9-.67h.26v-.38h-.34a60.89,60.89,0,0,0-9.65.78l-.17,0v.17C52,142,50,143.3,46.6,145Z"/><path class="cls-2" d="M163.51,145.22c-4.06-.25-7.91-.42-9.87-.42h-.48l.12.37h.66c2,0,5.48.18,9.63.44A3.83,3.83,0,0,1,163.51,145.22Z"/><path class="cls-2" d="M159.35,152.91l-.26-.37c-.69-1-1.36-1.83-2-2.65a45.1,45.1,0,0,0-3.5-3.73l-.69-.66-.81-.7a43.46,43.46,0,0,0-5-3.76l-.46-.3A46.43,46.43,0,0,0,125.8,134l-.27,0,.06-1.11h.27c17.12.21,29.64.74,41.14,1.79,0-.12.06-.24.09-.37-1.48-.14-3-.27-4.47-.39l-.59,0,.07-.58c.4-3.48-3.62-5.7-4.86-6.3l-.29-.14-1.68-21.58c.12-.54.75-3.41,1.21-7.23l.23-.9c2.11-8.15,5.65-21.79-.14-33-5.42-10.45-21.42-12.5-24.58-12.8l-.51,0V45.39h.62V38.78h-4.72V26l-2.28-.55-.81-22.19h-.38l.81,22.09L121,24.47l-.79-20.34-.38,0,.79,20.23-.72-.17v.05h-14.7V24.2l-1,.28.23-13.88H104l-.23,14L98.71,26l.23-22.71h-.38L98.33,26.1l-2.66.74V39.1H93v6.3h.5v6.21l-.61-.05c-1-.09-3-.23-5-.23a19,19,0,0,0-3.91.31c-1.22.28-3.69.63-6.58,1-4.22.6-9.46,1.34-13.76,2.26-5.11,1.09-6.08,2-7.78,4a28.85,28.85,0,0,1-2.48,2.62c-3.31,3.08-3.37,4.62-3.43,6a5.94,5.94,0,0,1-.11,1.09c-.14.61-.41,1.47-.7,2.4a16.71,16.71,0,0,0-1,4.43c.07,1-1.17,4.39-1.55,5.39l-.13.34-.36,0c-1.25.09-2.49.13-3.67.13A39.67,39.67,0,0,1,36,80.87a8.15,8.15,0,0,0-2-.3c-.94,0-1.16.32-1.24.47l1-.09h.25a8.09,8.09,0,0,1,1.92.31,40.69,40.69,0,0,0,6.43.48A61.43,61.43,0,0,0,56,80.12l.09,0A4.91,4.91,0,0,1,58,79.59a1.93,1.93,0,0,1,.86.18A1.65,1.65,0,0,1,59.71,81c.13.67-.15,1.64-.94,3.25l-.08.15h0l-.25.46-.27.55v0l-.14.25c-.31.57-.64,1.16-1,1.75-1.76,3.13-3.75,6.67-4.37,10.13l-.12.59L52,98a4,4,0,0,0-1-.15,1.9,1.9,0,0,0-1.33.46c-.75.7-9.69,5.63-24.36,5.78H24.9c-12.59,0-18.15-6.75-21.52-11.23-.08.11-.16.21-.24.31,3.22,4.27,9.06,11.3,21.77,11.3h.37c14-.15,23.26-4.63,24.62-5.89A1.53,1.53,0,0,1,51,98.2a3.87,3.87,0,0,1,1,.15l.53.15-.24,1c-.34,1.34-.57,2.22-.18,2.72a1.52,1.52,0,0,0,1.23.42h1.46c1.65,0,2.25-.38,2.41-1.49.22-1.51,1.12-2.54,3.6-4.09a3.75,3.75,0,0,1,1.93-.73c.54,0,.78-.11,1.44-1.34,1.16-2.16,3.89-3.2,8.58-3.28,1,0,2-.1,2.83-.18s1.5-.14,2.12-.14c1.93,0,3.28.62,4.05,3.7,1.28,5.11,1.86,8.48,1.32,11.67a83,83,0,0,0-.31,14.56,2.79,2.79,0,0,1-.75,2.64,6.79,6.79,0,0,0-1.47,2.66c-.71,2.3-1,3.29-.62,3.79a.81.81,0,0,0,.53.32l.09,0,.15-.15v.19h0v3.09l-.52,0c-9.71.8-15.77,1.61-16.43,1.7l-.14,0,0,.13c-.12.64-.21,1.18-.28,1.65-.4,2.62-.64,2.88-4.09,4.64l-.08.05a9.26,9.26,0,0,0-1.91,2l-.16.24a3.5,3.5,0,0,0-.54,1.85,2.61,2.61,0,0,0,.43,1.37l.16.26.24-.32a2.3,2.3,0,0,1-.45-1.33c0-1.15.81-2.42,2.5-3.8,3.61-1.84,3.87-2.29,4.28-5,0-.32.1-.66.17-1l.07-.41.41-.05a429,429,0,0,1,51.17-3.12h1.23l0,1.11-.27,0c-11.06.8-20.39,4.74-27.74,11.71l-.58.49h0l-1,1c-.85.89-1.66,1.81-2.41,2.75s-1.5,2-2.21,3l-.41.54h0l-.57.9a44.07,44.07,0,0,0-5.07,11.15l.38.09a44.53,44.53,0,0,1,4.35-9.91l.29-.5,2.32,1.4-.26.48a40.56,40.56,0,0,0-3.54,8.44l.38.09A42,42,0,0,1,84,157.28l.28-.52,1.33.8-.26.48a38,38,0,0,0-3.21,7.64l.38.09a39,39,0,0,1,3.15-7.48l.28-.52,2.21,1.33-.24.47a34.76,34.76,0,0,0-2.43,6.11l.38.09a35.6,35.6,0,0,1,2.35-5.92l.27-.55L92,161.42l-.21.46a27.72,27.72,0,0,0-1.36,3.6l.38.09a28.35,28.35,0,0,1,1.26-3.36l.26-.59,1.35.81-.2.46a24.2,24.2,0,0,0-1.06,2.79l.37.09a24.3,24.3,0,0,1,1-2.55l.26-.59,2.94,1.77-.16.44c-.12.33-.22.61-.29.84l.38.09a23.76,23.76,0,0,1,3.84-7.11l.4-.5.24.24.27-.27-.26-.26.36-.4a22.13,22.13,0,0,1,6.58-5l.55-.27.24.61.36-.14-.25-.62.52-.21a26.8,26.8,0,0,1,8.84-1.92l.57,0,0,.75.38,0,0-.74h.9a29.87,29.87,0,0,1,8.14,1.07l.52.15-.15.61.37.09.14-.59.59.21a23,23,0,0,1,8.31,5.11l.39.37-.47.55.29.25.45-.52.43.47.41.44a24.56,24.56,0,0,1,4.59,7.75l.37-.1c-.11-.31-.26-.72-.47-1.22l-.19-.45,2.33-1.4.27.57a24.59,24.59,0,0,1,1.08,2.61l.37-.1a24.9,24.9,0,0,0-1.15-2.82l-.22-.46,1.46-.88.27.56a29.22,29.22,0,0,1,1.42,3.5l.38-.1a28.51,28.51,0,0,0-1.5-3.7l-.23-.47L153,158.7l.28.52a37.39,37.39,0,0,1,2.87,6.57l.37-.1a36.49,36.49,0,0,0-2.92-6.71l-.26-.48,2-1.18.29.49a40.09,40.09,0,0,1,3.65,8l.37-.1a39.47,39.47,0,0,0-3.69-8.09l-.29-.48,1.43-.86.29.49a42.57,42.57,0,0,1,4,8.83l.37-.1a42.34,42.34,0,0,0-4.07-8.94l-.29-.48.57-.35-.2-.33-.58.35-.3-.46a45.19,45.19,0,0,0-3.06-4.22,41.31,41.31,0,0,0-4.65-4.8l-.42-.37.77-.89-.29-.25-.78.9-.43-.35a39.94,39.94,0,0,0-14.76-7.55l-.53-.15.17-.73-.37-.09-.17.71-.55-.13a48.85,48.85,0,0,0-11.28-1.28l-.68,0-1,0,0-.53-.38,0,0,.51-.57,0a44.71,44.71,0,0,0-13.33,2.64L104,139l-.11-.27-.36.14.11.27-.52.21A38.2,38.2,0,0,0,91.33,147l-.4.38-.41-.41-.27.27.41.41-.39.4c-1,1-1.85,2-2.64,3a42.93,42.93,0,0,0-3.23,4.69l-.29.49-2.31-1.39.31-.49a45.39,45.39,0,0,1,3-4.26c8.52-10.57,20.48-15.94,35.55-15.94,18.8,0,30,8.69,36,16a47.5,47.5,0,0,1,8.59,15.44l.37-.1a46,46,0,0,0-6-12.08Zm-71,5.85-2.2-1.33.29-.48a39.87,39.87,0,0,1,3.18-4.61c.68-.84,1.43-1.7,2.32-2.62l.4-.42,1.6,1.61-.36.4c-.59.66-1.1,1.25-1.54,1.81a38.15,38.15,0,0,0-3.4,5.12Zm53.58-6.46A29.29,29.29,0,0,0,131.22,146l-.49-.17,1-4,.57.17a33.57,33.57,0,0,1,12.66,6.85l.43.37-3,3.5Zm.18.69-1.16,1.35-.43-.39a27.39,27.39,0,0,0-9.79-5.76l-.49-.17.45-1.86.59.2a28.36,28.36,0,0,1,10.44,6.27Zm3.08-4.43a34.66,34.66,0,0,0-12.87-6.93l-.52-.15.38-1.6.57.16a36.89,36.89,0,0,1,13.69,7l.45.37-1.28,1.48Zm-13.75-7.2-.56-.14A42.22,42.22,0,0,0,120.62,140l-.64,0-1,0-.08-1.58.95,0h.58a47.19,47.19,0,0,1,10.78,1.2l.55.13ZM119,146.53l-.57,0a31.47,31.47,0,0,0-10,2l-.52.2L107.2,147l.53-.21a32.66,32.66,0,0,1,10.56-2.15l.56,0Zm-11.42,2.35-.5.22a26.15,26.15,0,0,0-8,5.59l-.4.41-1.17-1.17.38-.4a27.35,27.35,0,0,1,8.49-6.12l.54-.25Zm-1.31-1.82a28.09,28.09,0,0,0-8.66,6.17l-.4.42-2.74-2.76.39-.4a32.33,32.33,0,0,1,10-7l.54-.24,1.41,3.54Zm-1.54-3.85a33.21,33.21,0,0,0-10.12,7l-.4.41L92.57,149l.42-.4a35.21,35.21,0,0,1,11-7.14l.53-.22.69,1.72ZM92.15,161.07,88.65,159l.26-.48a37.47,37.47,0,0,1,3.42-5.17c.43-.55.9-1.1,1.43-1.69l.4-.45,2.75,2.77-.34.4c-.23.27-.45.53-.66.79a31.7,31.7,0,0,0-3.48,5.4Zm1.68,1-1.35-.81.24-.47a31.2,31.2,0,0,1,3.52-5.49l.35-.41.59-.69,1.17,1.18-.42.49-.42.49a28.65,28.65,0,0,0-3.4,5.18Zm6.69-3.79a24.56,24.56,0,0,0-3.17,5.17l-.26.58-2.92-1.76.24-.47a28.15,28.15,0,0,1,3.44-5.26l.78-.89,2.22,2.23Zm7.73-6.21a22.61,22.61,0,0,0-6.77,5.07l-.4.44-2.2-2.22.39-.4a25.43,25.43,0,0,1,7.86-5.53l.54-.24,1.06,2.65Zm10.29-2.58a27.11,27.11,0,0,0-8.94,2l-.53.22L108,149.06l.54-.2a31.22,31.22,0,0,1,9.85-1.93l.56,0,.13,2.57Zm.48-9.08,1,0h.61a42.53,42.53,0,0,1,10.15,1.18l.55.13-1,4-.57-.16a35.57,35.57,0,0,0-9.71-1.3l-.87,0Zm.22,4.2h.84a35.7,35.7,0,0,1,9.67,1.28l.52.15-.45,1.86-.57-.16a33.91,33.91,0,0,0-9.24-1.23h-.69Zm9.92,6.08-.57-.16a29.87,29.87,0,0,0-8.18-1.09l-.92,0-.1-2,.09-.54H120a33.43,33.43,0,0,1,9.2,1.23l.52.15Zm9.83,5.86-.43-.41A23.77,23.77,0,0,0,130,151l-.48-.17.58-2.44.59.2a26.93,26.93,0,0,1,9.53,5.7l.4.37Zm5,7.09-.27-.55a25.26,25.26,0,0,0-3.53-5.27l-.57-.63-.35-.37,1.65-1.91.43.45a29.39,29.39,0,0,1,4.7,6.42l.26.48Zm2.66-1.6-.28-.52a29.91,29.91,0,0,0-3.54-5.17c-.39-.45-.82-.92-1.27-1.38l-.36-.37,1.16-1.35.43.45c.57.59,1,1.1,1.45,1.61a32.52,32.52,0,0,1,3.62,5.38l.26.48Zm1.79-1.08-.28-.52a33,33,0,0,0-3.59-5.32c-.49-.59-1-1.19-1.6-1.78l-.36-.37,3-3.51.43.41a37,37,0,0,1,3.22,3.44,38.69,38.69,0,0,1,3.21,4.57l.29.49Zm4.66-2.81-.29-.49a39.74,39.74,0,0,0-3.21-4.56,36.09,36.09,0,0,0-3.34-3.56l-.4-.37,1.29-1.49.43.38a39.87,39.87,0,0,1,4.13,4.27,41.45,41.45,0,0,1,3,4.16l.31.49Zm-4.64-12,.43.38a40.85,40.85,0,0,1,4.59,4.74,44.29,44.29,0,0,1,3,4.15l.31.49-1.43.86-.3-.46a42.51,42.51,0,0,0-3-4.18,39,39,0,0,0-4.24-4.36l-.42-.37ZM132.61,138l.57.16a39.66,39.66,0,0,1,14.54,7.44l.45.37-1.08,1.25-.43-.35a38,38,0,0,0-13.91-7.13l-.53-.15Zm-12.76-1.49h.65a48.42,48.42,0,0,1,11.19,1.27l.55.13-.38,1.58-.55-.13a46.75,46.75,0,0,0-10.87-1.24h-.58l-1,0-.08-1.62Zm-1,7.8-.57,0a32.94,32.94,0,0,0-10.66,2.2l-.53.21-1.42-3.54.53-.21a38.16,38.16,0,0,1,11.88-2.47l.57,0Zm-.22-4.21-.56,0a38.37,38.37,0,0,0-12,2.54l-.52.21-.68-1.7.55-.2A42.68,42.68,0,0,1,118,138.51l.56,0Zm-14-1a44.54,44.54,0,0,1,13.2-2.57l.56,0,.08,1.62-.57,0a42.78,42.78,0,0,0-12.7,2.49l-.52.19-.61-1.53Zm-13.05,8.16a37.07,37.07,0,0,1,11.62-7.6l.53-.22.61,1.53-.52.21a36.29,36.29,0,0,0-11.15,7.21l-.4.38-1.11-1.11Zm-6.87,8.7A41.94,41.94,0,0,1,88,151.24c.76-1,1.59-1.9,2.55-2.9l.4-.42L92,149l-.39.4c-.87.9-1.68,1.81-2.4,2.71a40.71,40.71,0,0,0-3.17,4.6l-.29.49-1.33-.8ZM120.23,24.69,127,26.33V38.77l-.52,0c-2.85.22-3.8,1.65-4.11,2.48l-.14.37h-2Zm-2.88-.05h2.5v17h-2.5Zm-12.21,0h2.61V42.05h-2.61Zm-9.1,2.49,8.71-2.43V42.05h-2l-.16-.29A5.36,5.36,0,0,0,97.8,39.1H96.05ZM93.34,45V39.48H97.8a4.94,4.94,0,0,1,4.68,2.83l0,.12h5.91v-.19c0-.32.29-3.08,3.72-3.08s3.79,2.42,3.82,2.7l0,.18h.79l-.87-1.45a4,4,0,0,0-3.76-1.81,4.09,4.09,0,0,0-3,1.13l-1,1V24.64H117V42h5.61v-.2c0-.11.33-2.68,4.66-2.68h4.45V45H115.36l0-.52a3,3,0,0,0-2.76-2.83,4.25,4.25,0,0,0-.56,0,2.75,2.75,0,0,0-1.83.63,3.06,3.06,0,0,0-.69.86l-.08.14a5,5,0,0,0-.42,1.29l-.09.46Zm31.84,66.94c0,1.21-.09,1.74-1.62,2.09a7.18,7.18,0,0,1-1.62.21c-1.91,0-2.48-1-2.58-1.22l-.36-.88v1a5.83,5.83,0,0,1-5.6,5.6,5.66,5.66,0,0,1-5.72-5.41V113l-.25.08a11.64,11.64,0,0,1-3.22.67,2.25,2.25,0,0,1-1.12-.25c-.83-.47-1.15-1.61-1.63-3.58-.76-3.11-4.76-4-6.44-4.29l-.48-.07v-51h2.94v49.08h.19c.16,0,3.85.29,5.58,5.18a2.22,2.22,0,0,0,1.07,1.5,1.9,1.9,0,0,0,.81.16,6.43,6.43,0,0,0,2.4-.64l-.15-.32-.82.28a4.68,4.68,0,0,1-1.43.29,1.54,1.54,0,0,1-.64-.12,1.8,1.8,0,0,1-.87-1.29c-1.37-3.89-3.91-5-5.31-5.33l-.44-.1V53.77H115l-.56,1,1.65.87-.07.4a1,1,0,0,1-.61.77,1.21,1.21,0,0,0-.49.36l-.41.48-.44-.46a1.11,1.11,0,0,0-.84-.4,3.25,3.25,0,0,0-1.41.51l-.11.06a38.17,38.17,0,0,0-4,3.12l-.15.13.14.15a8.93,8.93,0,0,0,2.32,1.79l.24.1.08.25c.1.28.13.77-.29,2.35l-.1.41c-.09.41.38,1,1.3,1.69l0,0-1-1.52.16-.63,1.06.17v.43l-.09,1.65.07.05v.29c0,.22,0,.42,0,.59l.06,1.27-1-.8c-.36-.29-.65-.52-.85-.67a1.15,1.15,0,0,0-.55-.25.24.24,0,0,0-.17.07c-.26.23,0,.83.74,2.13l.21.38a5.27,5.27,0,0,0,.45.67l.13.18-.63.77-.2-.09a4.13,4.13,0,0,1-.76-.48,1,1,0,0,0-.47-.25.22.22,0,0,0-.12,0c-.12.07-.16.21-.14.52l1.48.59a2.73,2.73,0,0,0,.75.19l.29,0c.45,0,.58-.15.64-.25.15-.28-.05-.63-.58-1.31l-.36-.47.77-.73.19.16q1.12.91,2,1.62L114,72l-.33.45c-.41.55-.38.6-.31.7l.65,1-.85.15a19.57,19.57,0,0,0-2.09.5l-.26.07h0l-1.36.39a11.75,11.75,0,0,1-1.56.36c-1.5.21-1.6,1.09-1.7,1.95a4,4,0,0,1-.32,1.34,1.45,1.45,0,0,1-.2.32l-.19.23-.3,0a4.54,4.54,0,0,1-1.27-.53,17.57,17.57,0,0,0-2.07-.94,3.07,3.07,0,0,0-1-.21,1.32,1.32,0,0,0-.88.29,2.44,2.44,0,0,0-.58,2l.59,1.49h.13c.08,0,.82-.05.87-1.26l0-1a.65.65,0,0,0-.19.15l-.15.17-.87-.51.07-.22a1.09,1.09,0,0,1,.34-.54,1,1,0,0,1,.64-.2h.36l.12,1-.22.07.78.59a2.74,2.74,0,0,1,.74.92c.34.64,1.21,1,2.66,1,.67,0,1.34-.07,1.88-.12h.12c.26,0,.49,0,.64,0h0a1.12,1.12,0,0,0,.38-.08l.19-.07.12-.55a1.2,1.2,0,0,1-.7.31c-.18,0-.41,0-.79.06s-1.15.11-1.88.11c-1.3,0-2-.23-2.27-.74a3.4,3.4,0,0,0-.56-.78l-.17-.17.6-.84.21.1.72.36a3.93,3.93,0,0,0,1.53.57.87.87,0,0,0,.28,0,1.21,1.21,0,0,0,.66-.69,4.46,4.46,0,0,0,.35-1.47c.11-.95.22-1.45,1.37-1.61l.72-.14.54,1.15a5.05,5.05,0,0,1,1.6-.36.9.9,0,0,1,.52.12l.33.13,0,.21,0,.11a1.51,1.51,0,0,1,0,.18,3.25,3.25,0,0,1-1.11,2.44l-.77.64-.16-1a5,5,0,0,1-.05-.53l-.39,0a3.68,3.68,0,0,0,.14.92l.14.46-.44.21a1.85,1.85,0,0,0-.33.21l0,0,.23.45.62-.22-.33.78.19.37a3.19,3.19,0,0,0,.56.73,2.26,2.26,0,0,1,.79,1.73,6.34,6.34,0,0,1-.58,2.83l-.17.31,1.46-.11c.73-.06,1.21-1.44,1.3-3.72l0-.48,3-.37-.14,1.07a8.78,8.78,0,0,1-.73,2.66,3.24,3.24,0,0,1-.35.41c-.18.19-.23.28-.19.4s.13.2.91.36l.15,0a1.06,1.06,0,0,0,.63-.25l.58-.45.28.68a.35.35,0,0,0,.16.14l1,.6-1.12.43a12.08,12.08,0,0,1-4.09.69h-.27c-3.33,0-4.49-1-4.88-1.57a1.65,1.65,0,0,1-.28-1c0-.2.08-.41.12-.63l.3-1.69-.67,1.58a2.16,2.16,0,0,0-.16.75l0,.13-.09.32-1.39.47v3l0,0a2.84,2.84,0,0,0,1.29,1l.33.15v9.27l-1,.21,0,0a2.42,2.42,0,0,0-.79,1.2l-.21.74-.8-.52a4.13,4.13,0,0,0-.18,3.67,4.2,4.2,0,0,0,2.36,1.84l.64.24,1,.19a15.33,15.33,0,0,0,1.59.22l1.35.11-1,.88a2.79,2.79,0,0,0-.81,2.37c.08,2.19,1.45,3.29,4.08,3.29a3.44,3.44,0,0,0,2.61-1.36,2.43,2.43,0,0,0,.61-2,4.43,4.43,0,0,0-1.23-2.36l-1-.89,1.32-.1c.64,0,1.26-.12,1.94-.22l1-.16.71-.21a5.13,5.13,0,0,0,2-1l.17-.15.82.57-.2.51a1.8,1.8,0,0,1-.86,1.28,1.52,1.52,0,0,1-.63.12,4.46,4.46,0,0,1-1.3-.25l-1-.31-.14.3.51.21.42.14a4.87,4.87,0,0,0,1.46.29,1.9,1.9,0,0,0,.8-.16,2.23,2.23,0,0,0,1.08-1.53c1.73-4.87,5.42-5.14,5.58-5.15h.18V54.58h2.3v51l-.35.15a16.86,16.86,0,0,0-3.5,2.46A4,4,0,0,0,125.18,111.95ZM93.84,54.2V45.39h2.71V54.2Zm9-8.81h6.44V45.2a4.08,4.08,0,0,1,1.13-2.66A2.37,2.37,0,0,1,112,42a3.7,3.7,0,0,1,.51,0,2.67,2.67,0,0,1,2.42,3.14l0,.22H128v8H96.93v-8h5.35l.64.07Zm18.82,59.19-.1-.44a3.09,3.09,0,0,0-.69-1.4,2.48,2.48,0,0,0-1.62-.8l-.51-.05V92.17l.35-.14a6.81,6.81,0,0,0,1-.51l.09-.06V88.8l-.64-.08-.14-2,0-.15,0-.07a9.66,9.66,0,0,1,1.56-2.19c2-2.1,1.46-6.37,1.07-6.92a12.1,12.1,0,0,0-4-2.61l-1.21-.5.24-.11-2.16,0-.67,0-.24,0-.24-1,.22-.09c.18-.07.4-.16.67-.24l.25-.08,2.19,1.4.91-.42a.93.93,0,0,0,.64-.79c0-.19-.13-.83-1.63-.83a9.15,9.15,0,0,0-1.6.14l-1.32.24L115,71.4c.5-.74.71-1.25.63-1.57a.47.47,0,0,0-.08-.17l-.1-.14,0,0-.23-.11a5.82,5.82,0,0,0-.69-.28,1.91,1.91,0,0,0-.55-.1.73.73,0,0,0-.24,0l-.53.19-.52-1.46a12.15,12.15,0,0,1-.59-3.34l-1.25,0,.07-.61c.14-1.29-.35-1.47-.56-1.55a6.11,6.11,0,0,1-1.62-1.13l-.48-.43.5-.42A35.07,35.07,0,0,1,112,57.76l.11-.06a2.72,2.72,0,0,1,1.18-.47.92.92,0,0,1,.76.47c.11.15.31.42.56.43l1.14,0-.72.88a4.45,4.45,0,0,0-.74,1.28.85.85,0,0,0,0,.8l.52-1a6.3,6.3,0,0,1,1.35-1.68,9,9,0,0,0,.74-.79,2.43,2.43,0,0,0,.36-.62l.24-.6.56.31,1.4.78,1.17.67-1.3.36c-1,.27-1.5.65-1.62,1.17l-.06.28-.38.17a10.73,10.73,0,0,1-1.8.74l-1.12.32h0l.11.08.38.21L114.47,63l-.65-.33a1.58,1.58,0,0,0-.64-.22l-.14,0a.29.29,0,0,0-.18.2,4.31,4.31,0,0,0,1,2.21l.14.2-.12.5.3.39.09.24,0,.13v.14l0,.07c-.1.3.25,1,1.52,1.94l.2.15-.4.66.55-.56.2.14a18,18,0,0,0,1.65,1,.8.8,0,0,0,.34.1.16.16,0,0,0,.16-.09c0-.08.09-.15-.14-.38l-1.22-1.23.86.14,1,.14a.19.19,0,0,0,.17-.08c.1-.12.12-.2-.31-1l-.07-.13a11.05,11.05,0,0,0-.59-1l-.2-.28.16-.31c.08-.16.2-.74-.54-2.56l-.32-.8,1.5,0,0-.17a2.84,2.84,0,0,0-.4-2.1l-.45-.44.49-.4a4.45,4.45,0,0,1,1.83-.64c.81-.17.9-.26.91-.44s-.39-.57-3.36-2.18L117.6,56l0,0h0l-1.32-.73a1,1,0,0,0-.36-.23l-.6-.26.21-1h12.48v49.51l-.44.1a7,7,0,0,0-4.29,3.21l-.12.19-.94-.32,0-.22c0-.18,0-.35,0-.49v-1.17Zm-12,1.63a3.7,3.7,0,0,1-2.57-1.72,2.21,2.21,0,0,1-.18-1.24l.15-1.15.82.82a6.86,6.86,0,0,0,5.05,1.86c3.6,0,5.21-1.36,5.61-1.78l.44-.45.4.48a1.88,1.88,0,0,1,.11,2.21c-.54,1-2.44,1.59-5.1,1.59A18.8,18.8,0,0,1,109.69,106.21Zm3.48,3.75c1.6,0,2.63,1,3.06,2.85a2.08,2.08,0,0,1-.54,1.65,3.1,3.1,0,0,1-2.31,1.22c-2.38,0-3.62-1-3.7-2.93s.82-2.68,3.3-2.79h.2Zm-6.72-3.84-.17-.21.83-.73.19.19a4.89,4.89,0,0,0,2.29,1.21c.35.09.71.17,1.07.24l.27.05-.19,1.1-.27,0A6,6,0,0,1,106.45,106.12Zm1.44,1.53-.39,1-.25-.07a4.22,4.22,0,0,1-2.71-1.84,3,3,0,0,1-.24-2.05l0-.23h1l0,.23a3.92,3.92,0,0,0,2.25,2.86Zm-1-17.85c.54.69,1.7,1.5,4.18,1.5a17,17,0,0,0,3.74-.48A13.1,13.1,0,0,0,119,89.56l.86-.53v2.22l-.32.16a11.81,11.81,0,0,1-2.07.75,27.27,27.27,0,0,1-5.41.61h-.2c-.69,0-1.34-.06-1.92-.13a7,7,0,0,1-2.42-.68l-.3-.18v.36l-.9-.67-.18-.14-.19-.17V88.52l.7-.23h.29l.1,0,.34.14.67.87-1.24.31Zm5.47-6.66v.17a15.65,15.65,0,0,1-.16,2.05l0,.27-1.11-.12,0-.27q0-.29,0-.6a2.61,2.61,0,0,0-.89-2,1.72,1.72,0,0,1-.65-1.29c0-.07,0-.76,0-.76l.52-.07a1.12,1.12,0,0,0,.48-.18,3.54,3.54,0,0,0,1.5-2.92,1,1,0,0,0-.45-.93,1.27,1.27,0,0,0-.5-.16l-.23,0-.07-1,.22-.06a14.44,14.44,0,0,1,4-.71l.53,0c2.73.17,5.61,2.42,6.18,3l.05.09,0,.05a8.87,8.87,0,0,1,0,4l-.19.84,0,0,0,.11a4.24,4.24,0,0,1-.85,1.39l-.17.18-.1.09-.31.39c-.18.23-.34.45-.49.67l-.14.21-1-.5.16-.38a1.71,1.71,0,0,1,.76-.87l.09,0-.06,0,1.19-1.83.2.1-.54-.4a18.76,18.76,0,0,1-2,2.14l-.36.29-.24-.21-.09.26a14.44,14.44,0,0,1-1,2.15l-.12.22-1-.4.07-.24a13.18,13.18,0,0,0,.32-1.63l.2-1.56Zm6,9.24V102.7l-.19.17c-.51.46-2,1.53-5.2,1.53-3.43,0-4.92-1.8-5.34-2.42l0-.07V92.56l.7.17a14.12,14.12,0,0,0,2,.33l.74.05h.17l.6,0h.6a20.14,20.14,0,0,0,5.26-.65Zm.63,13.9a2.36,2.36,0,0,0,.88-.85,2.9,2.9,0,0,0,.29-.81l0-.24,1,.06,0,.24a3.48,3.48,0,0,1,0,.64,2.49,2.49,0,0,1-1.77,2l-.24.1-.5-1Zm-6.75-36.11,1.16-.27a.53.53,0,0,0,.33-.23l.29-.29.37.12.44.17.54.24-.26.53a6.61,6.61,0,0,1-.49.81l-.34.49Zm4.46-3.56.58-.68.43.54c.06.08.13.18.21.29l.87,1.35-1.53-.51-.68-.25-.37-.14Zm-.7.26-.45-.47a12.59,12.59,0,0,1-1-1.22l-.15-.21.31-1.35.69.5c.47.33.93.68,1.32,1l.55.43-.53.46-.17.17-.18.21Zm.46-2.45c-.42-.32-.89-.66-1.34-1l-.32-.22.2-.85,1.77,0,.15.33c.17.39.31.73.41,1l.68,1.82ZM128.39,54.2V45.39h2.71V54.2Zm-27.93,76.88v1.43L81,133.75v-3h1.69l2.81,0h.12l2.48,0c1.78,0,7.91.47,10.17.65l0-.38c-1.63-.13-8.33-.65-10.2-.65l-2.49,0-2.94,0c-.85,0-1.56,0-1.93,0l-.19,0-.47-.07v-.48a14.52,14.52,0,0,1,.76-3.1,6.3,6.3,0,0,1,1.39-2.53,3.16,3.16,0,0,0,.84-2.92,84,84,0,0,1,.31-14.46c.56-3.25,0-6.67-1.33-11.82-.83-3.32-2.33-4-4.48-4-.67,0-1.37.06-2.11.13s-1.78.16-2.8.18a15.07,15.07,0,0,0-6.54,1.25l-.17.06-.4.26a5.11,5.11,0,0,0-1.81,1.9c-.46.85-.63,1-.71,1l-.47.33L62.47,96l-.61.06v-.63a10.43,10.43,0,0,1,3.39-7.69c.4-.34.78-.65,1.15-.93l.21-.17.72.84-.2.19a7,7,0,0,0-2,3.42l.28.49c.26-1.54,1.22-5.22,8.14-6.23a41.53,41.53,0,0,1,5.89-.47c3.58,0,6.19.68,7.09,1.84l.39-.12c-.9-1.33-3.62-2.09-7.57-2.09a41.08,41.08,0,0,0-5.86.46,13.8,13.8,0,0,0-4.9,1.56l-.23.13-.61-.91.21-.16c2-1.53,3.19-2.68,2.68-6.89a9,9,0,0,0-4.17-7l-.15.36A8.67,8.67,0,0,1,70.3,78.7c.52,4.26-.7,5.18-3.15,7-.63.48-1.35,1-2.14,1.69a10.75,10.75,0,0,0-3.51,8.42l0,.38-.59.3L60,97l.06-1c.13-2.38,1-7.59,3.23-10.32,2.77-3.36,2.2-6.27,1.15-8.19l-.32.21c1,1.8,1.51,4.54-1.12,7.73A9.66,9.66,0,0,0,62,87l-.13.24-1-.48.38-.87c.92-2.1,1.64-3.76,1.3-6.58a3.87,3.87,0,0,0-1.7-3,4.57,4.57,0,0,0-2.45-.61,8.36,8.36,0,0,0-1.93.24l.13.36A8,8,0,0,1,58.41,76a4.15,4.15,0,0,1,2.24.56,3.47,3.47,0,0,1,1.51,2.73c.33,2.71-.31,4.17-1.27,6.38a30.83,30.83,0,0,0-2.37,7.48c-.49,2.61-.71,4-.81,4.66l.38,0,.11-.7c.11-.67.28-1.66.55-3.13l1-4.27.88.58-.75,3.86a12.59,12.59,0,0,0-.15,2.7v.36l-.27.19-.35.25-.72.54-.47.51a4.19,4.19,0,0,0-1.12,2.31c-.15,1.08-.88,1.16-2,1.16H53.29a1.89,1.89,0,0,1-.69-.1l-.26-.11-.07-.27a5.5,5.5,0,0,1,.35-2.19c.15-.58.32-1.25.48-2,.6-3.34,2.57-6.86,4.32-10,1.64-2.92,2.94-5.23,2.67-6.63a2,2,0,0,0-1-1.52,2.32,2.32,0,0,0-1-.22,5.44,5.44,0,0,0-2.15.54,61.27,61.27,0,0,1-8.16,1.33l-.9.09.31-.85a17.15,17.15,0,0,0,1.32-4.88,16.92,16.92,0,0,1,1-4.31c.29-.92.56-1.78.7-2.41a6.45,6.45,0,0,0,.12-1.15c.06-1.35.12-2.75,3.31-5.72.35-.33.66-.63.94-.92l.23-.23h0l1.31-1.51c1.62-1.9,2.37-2.77,7.57-3.88,4.27-.91,9.51-1.65,13.75-2.25,3-.42,5.35-.76,6.58-1a18.33,18.33,0,0,1,3.78-.3c2,0,4.08.15,5.15.24l.52,0v2.59h.69v5.1l-1,.22-.1-.21c-2.33-4.93-7.19-5.5-10.63-5.5-1.5,0-3,.12-4.26.23l-.49,0a11.71,11.71,0,0,0-8.08,3.86l.32.22a11.39,11.39,0,0,1,7.8-3.69l.49,0c1.29-.1,2.75-.22,4.2-.22,4.2,0,9.95.9,11.38,8.7a20.94,20.94,0,0,1,.36,3.9v.15a12,12,0,0,1-2.37,7.42A8.17,8.17,0,0,1,86,78l-.83,0c-3.82,0-8.73-1.32-10.56-3.53l-.33.2c1.9,2.33,6.93,3.72,10.87,3.72l.88,0A8.56,8.56,0,0,0,92.08,75a10.38,10.38,0,0,0,1-1.55l.1-.2,1,.24V106h.18a12,12,0,0,1,4.76,1.5v-.21l.78.79.4.32.53.5h-.23l.6,1h-.78v14l-.13.93-.81-.54-.36-.22v-15.2H98.7v15.06l-.72-.2a22.65,22.65,0,0,0-5.75-.59,64,64,0,0,0-7.85.55l.06.38a66.36,66.36,0,0,1,7.93-.56,17.9,17.9,0,0,1,6.36.86l0-.06.53.32a5.87,5.87,0,0,1,2.19,2.53l.25.43a4.56,4.56,0,0,1,.15,3l-.11.43Zm17.4,1.34h-2.36c-4.22,0-8.59.07-13,.21h-.4l-.27-.67.23-.63c.09-.25.85-2.43,0-3.93l-.24-.42a11.09,11.09,0,0,0-1-1.51l-.06-.08V112.6l1-.21.09.21a2.58,2.58,0,0,0,1,1.28,2.55,2.55,0,0,0,1.3.3,9.7,9.7,0,0,0,2.46-.42l.61-.17.1.62a6.15,6.15,0,0,0,6,4.9,6.27,6.27,0,0,0,5.81-4.55l.18-.71.64.35a3.91,3.91,0,0,0,1.91.44,7.57,7.57,0,0,0,1.72-.22c2-.47,2-1.4,1.91-2.48a3.65,3.65,0,0,1,1.47-3.47,14,14,0,0,1,3.51-2.44l.19-.07.27.1v-5.3l.52,0c.41,0,.83-.06,1.19-.06a5.34,5.34,0,0,1,.69,0l.44.06,0,.45c0,.37,0,1,0,1.5,0,2-.11,4.76,1.66,5.32l.07,0-.69-.9c-.73-1-.69-3-.65-4.43,0-1.54,0-2.14-.37-2.29a3.9,3.9,0,0,0-1.25-.15c-.37,0-.73,0-1,0l-.61.05V80.75l.79.35c2.11.92,9.11,5,11.36,19l.38-.06C141,84,132.39,80.84,131.41,80.53l-.4-.13V54.58h.46V51.72l.63.07c4.37.47,19,2.76,24.12,12.57,5.72,11,2.21,24.58.11,32.67l-.25,1c-.29,2.46-.67,4.58-.94,5.94l-.18.9-.72-.56a9.1,9.1,0,0,0-5.68-1.7,17.52,17.52,0,0,0-4.75.73l.11.37a17.19,17.19,0,0,1,4.65-.71c3.86,0,5.69,1.76,6.23,2.37l.06.07,1.72,21.71.11,0c.05,0,5.34,2.27,5,6l0,.58-.58-.07a219.26,219.26,0,0,0-24.54-1.31c-1.63,0-2.9,0-3.71,0H132l.25-.76c.84-2.55,2.77-3.35,4.32-4,1.07-.44,1.74-.75,1.79-1.4.14-1.77.23-16.44-.61-25.56A36.22,36.22,0,0,0,132.32,85l-.32.23.06.09a36.49,36.49,0,0,1,5.33,15.42c.18,1.92.32,4.2.44,6.76v.21l0,1h0v.12c.31,8.1.2,16.44.12,17.52l0,.13,0,.06c-.11.18-.3.3-.76.51l-.8.37v-19H137l.23-.17-.27-.19a3.8,3.8,0,0,0-.7-.35l-.26-.11v20l-.33.15a6.31,6.31,0,0,0-3.88,4.48l-.11.44h-.45C127.07,132.5,122.71,132.45,117.85,132.42Z"/><path class="cls-2" d="M61.56,65.09c0-1.18,0-3-2-3.93A5.82,5.82,0,0,0,57,60.5a4.3,4.3,0,0,0-.76.07l-1.13.2L56,61a3.76,3.76,0,0,1,1-.12,5.48,5.48,0,0,1,2.44.63c1.6.8,1.74,2.15,1.75,3.59a2.39,2.39,0,0,0,.17,1.18,8.29,8.29,0,0,1,.6,1.13l.36-.14a12.63,12.63,0,0,0-.7-1.35A4.07,4.07,0,0,1,61.56,65.09Z"/><path class="cls-2" d="M159.59,140.07c-5.35-.24-10.14-.39-12.13-.46V140c1.9.06,6.76.22,12.19.46C159.62,140.34,159.6,140.21,159.59,140.07Z"/><path class="cls-2" d="M61.35,142.95c3.1-.4,20.6-2.62,30.52-2.78v.38c-9.86.16-27.38,2.38-30.48,2.78Z"/><path class="cls-2" d="M140.74,165.59c-1-2.56-5.6-12.26-20.11-12.26s-18.81,9.68-19.7,12.25l-.36-.1c1-2.67,5.54-12.54,20.06-12.54s19.42,9.88,20.47,12.54Z"/><polyline class="cls-3" points="3.54 83.15 3.54 3.54 98.63 3.54"/><polyline class="cls-3" points="44.82 166.62 3.54 166.62 3.54 93.31"/><polyline class="cls-3" points="123.94 3.54 166.62 3.54 166.62 134.25"/></g><text class="cls-4" transform="translate(27.47 161.07)">C<tspan class="cls-5" x="18.43" y="0">AT</tspan><tspan x="49.69" y="0">ANIA</tspan></text><text class="cls-6" transform="translate(27.47 161.07)">C<tspan class="cls-5" x="18.43" y="0">AT</tspan><tspan x="49.69" y="0">ANIA</tspan></text><path class="cls-7" d="M169.16,1V169.16H1V1H169.16m1-1H0V170.16H170.16V0Z"/></g></g></svg>