<svg xmlns="http://www.w3.org/2000/svg" viewBox="0 0 13.31 16.14"><defs><style>.cls-1{fill:#706f6f;}.cls-2{fill:#b2b2b2;}</style></defs><title>Risorsa 48</title><g id="Livello_2" data-name="Livello 2"><g id="Livello_1-2" data-name="Livello 1"><path class="cls-1" d="M7.25,8.07a.74.74,0,0,0-.16-.46L1.32.28A.74.74,0,1,0,.16,1.2L5.57,8.07.16,14.94a.74.74,0,1,0,1.16.92L7.1,8.53A.74.74,0,0,0,7.25,8.07Z"/><path class="cls-2" d="M13.31,8.07a.74.74,0,0,0-.16-.46L7.38.28a.74.74,0,1,0-1.16.92l5.41,6.87L6.22,14.94a.74.74,0,1,0,1.16.92l5.77-7.33A.74.74,0,0,0,13.31,8.07Z"/></g></g></svg>