<svg xmlns="http://www.w3.org/2000/svg" viewBox="0 0 43.92 43.92"><defs><style>.cls-1{fill:#e11f21;}.cls-2{fill:#fff;}</style></defs><title>Sito PrestoFood_icona app prestofood</title><g id="Livello_2" data-name="Livello 2"><g id="Livello_1-2" data-name="Livello 1"><rect class="cls-1" width="43.92" height="43.92" rx="10.67" ry="10.67"/><path class="cls-2" d="M15.33,25.65H9.49a.36.36,0,0,1-.38-.47.66.66,0,0,1,.59-.51h5.84Zm2.13-10.18H13.63A.65.65,0,0,0,13,16a.37.37,0,0,0,.38.47h3.84Zm17.73.91-.86,4.08a.64.64,0,0,1-.47.47l-1,.24c-.39.91-2.12,1.18-3.05,1.71l-.11.06a23.23,23.23,0,0,1,3-1.88c1.24-.48-.1-.81-1.58-.09a11.43,11.43,0,0,0-.81.81c.43-.81,1.23-1.73.8-1.81s-.38.6-2.74,1.92c-.48.27-1.57.73-1.94.06s-1.55-.55-1.58-.1l-.74-.24a.3.3,0,0,1-.21-.36s.55-2.49.81-3.65a1.66,1.66,0,0,1,.6-.93l2-1.58a2.27,2.27,0,0,0-.33-1,2.23,2.23,0,0,0-1.94-.8,3.53,3.53,0,0,0-2.4.9c-.74.71-1,2-1.33,3.54-.48,2.29-.83,3.94-.25,4.86a2.12,2.12,0,0,0,1.92.85A3.43,3.43,0,0,0,24.75,23a2,2,0,0,1,2.31.08l.25.23a1.27,1.27,0,0,1,.35,1.18,2,2,0,0,1-.79,1.2,7.58,7.58,0,0,1-4.47,1.51,4.49,4.49,0,0,1-2.83-.91L18.2,32.74a2.43,2.43,0,0,1-2.27,1.84,1.45,1.45,0,0,1-1.51-1.81l1.87-8.91.45-2.15h1.38a1.53,1.53,0,0,0,1.4-1.18.9.9,0,0,0-.91-1.16H17.24l.28-1.31L19,11.18a2.43,2.43,0,0,1,2.27-1.84,1.47,1.47,0,0,1,1.43.86,8.2,8.2,0,0,1,3.22-.69,5.19,5.19,0,0,1,4.54,2.1l.11.19L33.19,11a.33.33,0,0,1,.4.43l-.39,1.87h0l-1.31,1.83a.83.83,0,0,1-.42.31L26,16.81a1.33,1.33,0,0,0-.88,1l-.65,3a.22.22,0,0,0,.28.27l5.86-1.34a.68.68,0,0,0,.5-.5l.57-2.75a.71.71,0,0,1,.83-.55l2,.62c.1,0-1.79-1.06-1.79-1.06a.41.41,0,0,1-.14-.65l.41-.58c.22-.3.63-.35.79-.09.66,1.06,1.36,2.24,1.36,2.24m-5.95-2.13,1.92-.54.11,0A1.26,1.26,0,0,0,32,13c.14-.36,0-.62-.35-.58l-2,.59a1.07,1.07,0,0,0-.77.69c-.14.36,0,.62.35.58M18.85,20.53a.36.36,0,0,0-.38-.46H9.33a.67.67,0,0,0-.59.53.36.36,0,0,0,.38.46h9.14a.67.67,0,0,0,.59-.53"/></g></g></svg>