<svg xmlns="http://www.w3.org/2000/svg" viewBox="0 0 170.16 172.22"><defs><style>.cls-1{fill:#e30613;}.cls-2{opacity:0.4;}.cls-3,.cls-6{fill:none;}.cls-4,.cls-5{fill:#1d1d1b;}.cls-4{opacity:0.5;}.cls-6{stroke:#1d1d1b;stroke-width:0.5px;}.cls-6,.cls-7{stroke-miterlimit:10;}.cls-7,.cls-8{font-size:26.4px;fill:#e11f21;font-family:VarelaRound, Varela Round;}.cls-7{stroke:#fff;stroke-width:6px;}</style></defs><title>Sito PrestoFood_Risorsa 47</title><g id="Livello_2" data-name="Livello 2"><g id="Livello_1-2" data-name="Livello 1"><path class="cls-1" d="M169.16,1V169.16H1V1H169.16m1-1H0V170.16H170.16V0Z"/><g class="cls-2"><rect class="cls-3" x="3.54" y="3.33" width="163.08" height="163.08" transform="translate(170.16 169.75) rotate(-180)"/><path class="cls-4" d="M130.3,93.31c-1.87,0-4.22-.34-4.86-2l-.13-.33-.29.2a7.15,7.15,0,0,1-4.15,1.35,8.63,8.63,0,0,1-2-.26.13.13,0,0,1-.11-.16c0-.07.06-.18.17-.18a8.76,8.76,0,0,0,2,.26,6.83,6.83,0,0,0,4.37-1.65.25.25,0,0,1,.15-.06c.08,0,.16,0,.17.19.12,1.42,1.78,2.16,4.78,2.16a21.75,21.75,0,0,0,4.56-.49c2.48-.64,5.28-2.09,5.71-4.23.28-1.41-.51-2.84-2.36-4.25a22.58,22.58,0,0,0-1.91-1.27c-1.76-1.08-3.28-2-3.78-4.36-.46-2.14.29-4.2,2.36-6.48.44-.49.94-.95,1.46-1.44a12.14,12.14,0,0,0,2.9-3.46c2.28-4.82-.56-9.17-2.89-12a.19.19,0,0,1,0-.21.21.21,0,0,1,.16-.13c3.06,3.7,5.85,9,2.21,13.77a23.85,23.85,0,0,1-2.14,2.31c-2,1.94-4,3.94-3.72,7.08s2.45,4.18,4.57,5.24a10.66,10.66,0,0,1,3.36,2.24,2.72,2.72,0,0,1,.71,2.6c-.57,2.12-3.56,4-5.5,4.65a20.32,20.32,0,0,1-5.79.89Z"/><path class="cls-5" d="M134.26,83.42c-4.43-1.39-4.9-6.69-4.79-9.73a15.13,15.13,0,0,1,1.27-6.4,23,23,0,0,1,2.1-3.21,17.53,17.53,0,0,0,2.67-4.52.17.17,0,0,1,.18-.12.21.21,0,0,1,.17.07s0,0,0,.11a17.55,17.55,0,0,1-2.62,4.47,27.38,27.38,0,0,0-2,3c-1.58,2.9-2.32,8.4-.77,12.23a6.07,6.07,0,0,0,3.83,3.79.16.16,0,0,1,.12.2c0,.05,0,.15-.13.15Z"/><path class="cls-4" d="M131,88.78a4.81,4.81,0,0,1-3.48-1.47.14.14,0,0,1,0-.17.22.22,0,0,1,.18-.14.14.14,0,0,1,.1.05A4.42,4.42,0,0,0,131,88.44h.19c.87,0,2.79-.46,3.2-1.59.23-.62,0-1.29-.81-2a7.11,7.11,0,0,0-2.64-1.22,12.4,12.4,0,0,1-1.34-.47,7.94,7.94,0,0,1-4.66-5.34.13.13,0,0,1,0-.12.22.22,0,0,1,.17-.08.15.15,0,0,1,.16.12c1.06,3.48,3.36,4.64,6.76,6l.19.08c1.24.5,2.78,1.12,2.7,2.51s-1.58,2.05-2.84,2.31A5.43,5.43,0,0,1,131,88.78Z"/><path class="cls-5" d="M126.09,85.84H126l-.38-.15c-4.17-1.65-7.47-3-7.86-7.71-.35-4.17,2.72-6.21,6-8.38a27.67,27.67,0,0,0,3.56-2.65.16.16,0,0,1,.11-.05.23.23,0,0,1,.19.14.12.12,0,0,1,0,.15,21.93,21.93,0,0,1-3.35,2.4,15,15,0,0,0-4.67,3.87c-1.92,2.83-1.85,6,.19,8.36,1.57,1.8,3.63,2.6,5.8,3.46l.53.21a.21.21,0,0,1,.12.25S126.09,85.84,126.09,85.84Z"/><path class="cls-5" d="M113.93,93.13a3,3,0,0,1-1.57-.42,3.89,3.89,0,0,1-1-1l-.08-.1a6.84,6.84,0,0,0-1.78-1.49c-.24-.16-.49-.32-.75-.51a3.51,3.51,0,0,1-1.54-3.31,6.75,6.75,0,0,1,1.88-3,12.9,12.9,0,0,0,1.3-1.64.15.15,0,0,1,.13-.08.23.23,0,0,1,.19.11.12.12,0,0,1,0,.14,15.59,15.59,0,0,1-1,1.43c-.25.32-.5.64-.74,1-.94,1.34-1.28,2.33-1.11,3.22s.82,1.6,2.18,2.47a6.17,6.17,0,0,1,1,.86l.46.44a5.56,5.56,0,0,0,2.38,1.6,1.88,1.88,0,0,0,.37,0,6.19,6.19,0,0,0,2.24-.65l.37-.16h0a.12.12,0,0,1,.13.11.22.22,0,0,1-.12.25A8.16,8.16,0,0,1,113.93,93.13Z"/><path class="cls-5" d="M85.64,57.68a.3.3,0,0,1-.24-.09,1.52,1.52,0,0,1-.17-1,3.63,3.63,0,0,1,1.88-2.75A15.08,15.08,0,0,1,88.5,53l.64-.35a1.38,1.38,0,0,0,1-.71.94.94,0,0,0,.42-1.08l0-.12a.68.68,0,0,1,.13-.28,1.65,1.65,0,0,1,1.4-.53,5.34,5.34,0,0,1,1.55.27.17.17,0,0,1,.12.21c0,.05,0,.15-.13.15a4.67,4.67,0,0,0-1.32-.26,1.41,1.41,0,0,0-1.39.9.68.68,0,0,0,0,.45.66.66,0,0,1,0,.12,1.6,1.6,0,0,1-.68.78c-.35.2-.72.37-1.09.53a11.71,11.71,0,0,0-1.28.64l-.2.12a6.72,6.72,0,0,0-1.14.79,6.25,6.25,0,0,0-.88,1.68,6.21,6.21,0,0,1-.25.57l.15-.09.14.55h0a.19.19,0,0,1,.2.17.13.13,0,0,1-.11.16Z"/><path class="cls-5" d="M92.54,56.39a2.05,2.05,0,0,1-1.6-.59,1.37,1.37,0,0,1-.36-1.18,1.1,1.1,0,0,1,.63-.82h.05a.22.22,0,0,1,.24.16s0,.08-.07.12a.88.88,0,0,0-.51.61,1,1,0,0,0,.25.84,1.74,1.74,0,0,0,1.3.52h.17a7.78,7.78,0,0,0,1.21-.12c.28,0,.56-.09.84-.11h0s.12,0,.13.14a.2.2,0,0,1-.18.22c-.28,0-.57.06-.87.1A9.46,9.46,0,0,1,92.54,56.39Z"/><path class="cls-5" d="M102.75,59s-.09,0-.11-.12l0-.16-.15-.07c-.66-.29-1.47-1.12-1.25-1.75l.19-.55-.55.19a4.15,4.15,0,0,0-2,1.28l-.09,0a.15.15,0,0,1-.14-.1.19.19,0,0,1,0-.22c1.17-1.45,3.36-1.75,5-1.75a17,17,0,0,1,3.47.38.11.11,0,0,1,.1.14c0,.07-.06.19-.18.19h0a18.28,18.28,0,0,0-2.46-.33l-.92-.06.73.57a.79.79,0,0,1,.18.17l0,.08.12.13a.13.13,0,0,1,.08.13,1.6,1.6,0,0,1-1.23,1.55,2.39,2.39,0,0,1-.82.27Z"/><path class="cls-4" d="M84.27,65.18a.13.13,0,0,1-.1-.05,1.54,1.54,0,0,1-.44-1.45,2.11,2.11,0,0,1,1.37-1.41A7.43,7.43,0,0,1,86.2,62l.15,0,.06-.14a4,4,0,0,1,1.9-1.44l.51-.26c1.21-.65,2.48-1.24,3.7-1.83l.1,0a.22.22,0,0,1,.17.11l.11.18.39-.11A7.11,7.11,0,0,1,95,58.3a8.2,8.2,0,0,1,3.64.9c.07,0,.09.07.07.13a.23.23,0,0,1-.2.17h0A8.08,8.08,0,0,0,95,58.64a6.74,6.74,0,0,0-1.35.14,7.37,7.37,0,0,0-3.19,1.45l-.4.41,1,.13a23,23,0,0,1,3.94.95.16.16,0,0,1,.12.2c0,.05,0,.16-.14.16-.9-.27-1.75-.53-2.62-.72l-.12,0A11.21,11.21,0,0,0,90.21,61c-.24,0-.56,0-.7.27a.13.13,0,0,1-.12.08.23.23,0,0,1-.19-.11.14.14,0,0,1,0-.16.68.68,0,0,1,.13-.17L89,60.42a8,8,0,0,0-1.79,1l-.59.5h.77c.61,0,.89.12,1,.21s0,.21-.06.27-.08.08-.1.08a.24.24,0,0,1-.19-.12l-.12-.22-.23.1a5.09,5.09,0,0,1-.84.06h-.12a6.13,6.13,0,0,0-1.13.16,2.14,2.14,0,0,0-1.53,1.22,1.16,1.16,0,0,0,.36,1.16.15.15,0,0,1,0,.18A.22.22,0,0,1,84.27,65.18Z"/><path class="cls-4" d="M118.23,89.57A3.6,3.6,0,0,1,115,88.13a.13.13,0,0,1,0-.14.23.23,0,0,1,.19-.11.14.14,0,0,1,.13.08l0,.08.08,0A9.75,9.75,0,0,0,119,89.18a1,1,0,0,0,1-.47c.31-.59-.06-1.63-1.16-3.27l0-.07-.07,0c-.93-.42-1.89-.82-2.85-1.2l-.35-.16a8.49,8.49,0,0,1-1.55-.85,6.24,6.24,0,0,1-2.3-3.29,5.87,5.87,0,0,1,.83-4.69l.16-.27.19-.28A22.55,22.55,0,0,1,117.43,70a43.93,43.93,0,0,1,6-3.75l1.19-.66-.64-.2a.22.22,0,0,1-.12-.17A.17.17,0,0,1,124,65c2.74-1.9,2.76-4,2.31-5.51-1-3.24-5.67-6.42-9.4-6.42h-.33c-.1,0-.14,0-.14-.14a.19.19,0,0,1,.17-.21h.38c3.44,0,7.64,2.37,9.17,5.18a5.57,5.57,0,0,1-1.46,7l.32.46c1.39-.79,2.43-1.42,3.36-2.05l.44-.3-.49-.2a.22.22,0,0,1-.13-.12.13.13,0,0,1,0-.12,6.19,6.19,0,0,0,.75-5.11c-1-3.06-4.42-5-6.39-5.94-.07,0-.08-.07-.07-.12a.24.24,0,0,1,.21-.18c3.4,1.54,5.75,3.75,6.53,6.06a6.35,6.35,0,0,1-.57,5.16l.42.36a18,18,0,0,0,2.65-2.32l.3-.32-.41-.14a.26.26,0,0,1-.15-.13.18.18,0,0,1,0-.15,5.06,5.06,0,0,0-.27-4.67,9.48,9.48,0,0,0-6.44-4.51c-.06,0-.09,0-.09-.1a.23.23,0,0,1,.21-.22,9.49,9.49,0,0,1,6.31,4.22,5.83,5.83,0,0,1,.77,4.9l.49.26c1.44-1.87,1.9-3.72,1.32-5.36-.7-2-3-3.62-6-4.35a19.78,19.78,0,0,0-4.64-.5,48.16,48.16,0,0,0-5.76.44h0s-.09,0-.1-.11a.22.22,0,0,1,.19-.25,50.15,50.15,0,0,1,6-.41c6.26,0,9.9,1.62,10.83,4.8,1.62,5.58-4.84,9.17-9.56,11.79-.89.49-1.71.95-2.39,1.37l-.16.1C118,69.71,111.18,74,112,79.7c.37,2.75,2.68,3.63,4.92,4.48,1.68.64,3.27,1.25,4.11,2.58a1.5,1.5,0,0,1,.19,1.58A3.4,3.4,0,0,1,118.23,89.57Zm-6-14.85a.23.23,0,0,1-.24-.19,15.15,15.15,0,0,0-1.43-4.69.17.17,0,0,1,0-.18.24.24,0,0,1,.18-.11s.06,0,.1.08a15.83,15.83,0,0,1,1.48,4.85l0,.24Z"/><path class="cls-5" d="M113.13,71.91a.16.16,0,0,1-.17-.12L112,69c0-.07,0-.11,0-.12a.22.22,0,0,1,.17-.07.16.16,0,0,1,.17.12l.92,2.81c0,.07,0,.11,0,.12A.22.22,0,0,1,113.13,71.91Z"/><path class="cls-5" d="M114,69.53a.16.16,0,0,1-.17-.12l-.43-1.35a.12.12,0,0,1,0-.12.22.22,0,0,1,.17-.07.16.16,0,0,1,.17.12l.43,1.35a.12.12,0,0,1,0,.12S114,69.53,114,69.53Z"/><path class="cls-5" d="M116.52,69.39a.16.16,0,0,1-.11,0v-.2a7.79,7.79,0,0,0-.21-3.88,5.3,5.3,0,0,0-2.73-2.54.12.12,0,0,1-.07-.15.21.21,0,0,1,.18-.17,5.9,5.9,0,0,1,2.86,2.49,7.83,7.83,0,0,1,.33,4.3C116.72,69.39,116.52,69.39,116.52,69.39Z"/><path class="cls-5" d="M119.31,67.89a.27.27,0,0,1-.19-.09.19.19,0,0,1,0-.16c.26-1.82.38-4.4-1.5-5.82a15.42,15.42,0,0,0-4.28-2.06.17.17,0,0,1-.12-.21s0-.15.13-.15c1.91.61,4.17,1.47,5.28,2.82.92,1.12,1.19,2.94.81,5.58A.11.11,0,0,1,119.31,67.89Z"/><path class="cls-5" d="M121.54,65.67a.16.16,0,0,1-.12,0c.15-2,.06-4.52-2.07-6.45a11.38,11.38,0,0,0-5.76-2.37c-.05,0-.11,0-.1-.12a.22.22,0,0,1,.2-.21,11.21,11.21,0,0,1,6.3,2.83c1.45,1.51,2,3.41,1.76,6.18A.2.2,0,0,1,121.54,65.67Z"/><path class="cls-5" d="M113.81,40.84l.08,0Z"/><path class="cls-5" d="M137.72,52.73a.21.21,0,0,1-.17-.13.16.16,0,0,1,0-.19,3.72,3.72,0,0,0,1.1-3.44,5.8,5.8,0,0,0-3.87-3.58,7.53,7.53,0,0,0-2.34-.57,1.53,1.53,0,0,0-1.12.39l.4.4-.18.07-.22-.1-.06-.2c0,.09-.19.47-.26.65l-.11.26-.35.41.36.19A11,11,0,0,1,137,51.57a.12.12,0,0,1,0,.14.23.23,0,0,1-.19.11.15.15,0,0,1-.14-.08A10.59,10.59,0,0,0,130.08,47a.19.19,0,0,1-.12-.15.13.13,0,0,1,0-.13,2.08,2.08,0,0,0,.94-1.92.19.19,0,0,1,.11-.16,6.13,6.13,0,0,1,1.28-.13c2.71,0,5.56,1.64,6.48,3.73a3.93,3.93,0,0,1-1,4.43A.14.14,0,0,1,137.72,52.73Z"/><path class="cls-5" d="M114.28,47.6c-.08,0-.1-.12-.1-.13a.2.2,0,0,1,.12-.24,21.73,21.73,0,0,1,6.31-1.38h.07l.06,0,.07,0h.25l.95,0q.77,0,1.55.06l.27,0,0-.27c0-.15.11-.15.15-.15a.14.14,0,0,1,.11,0,.21.21,0,0,1,0,.15v.27l1,.13.09-.19a.13.13,0,0,1,.13-.08s.13,0,.15.14l0,.2.2,0c.46.08.91.17,1.37.27a.13.13,0,0,1,.11.16c0,.07-.06.18-.17.18a22.15,22.15,0,0,0-5.09-.61,21.54,21.54,0,0,0-7.67,1.44Z"/><path class="cls-5" d="M121.87,44.41a.15.15,0,0,1-.16-.18.19.19,0,0,1,.16-.17.15.15,0,0,1,.16.18A.19.19,0,0,1,121.87,44.41Z"/><path class="cls-5" d="M120,45.06a.16.16,0,0,1-.12,0l.1-1.41.12-1.31a.21.21,0,0,1,.22-.18.16.16,0,0,1,.12,0l-.1,1.41-.12,1.31A.21.21,0,0,1,120,45.06Z"/><path class="cls-5" d="M123.27,45.08a.25.25,0,0,1-.18-.09.18.18,0,0,1,0-.15l.36-2c0-.07,0-.1.11-.1a.25.25,0,0,1,.18.09.18.18,0,0,1,0,.15l-.36,2C123.37,45.05,123.27,45.08,123.27,45.08Z"/><path class="cls-5" d="M118.62,45.2a.25.25,0,0,1-.18-.08.17.17,0,0,1,0-.15l.18-.92c0-.07,0-.1.11-.1a.25.25,0,0,1,.18.08.17.17,0,0,1,0,.15l-.18.92C118.72,45.17,118.62,45.2,118.62,45.2Z"/><path class="cls-4" d="M139.52,69.17a.23.23,0,0,1-.19-.14.13.13,0,0,1,0-.15c2.81-2.7,4.36-6,4.26-8.94a8.52,8.52,0,0,0-3.32-6.36c-.06-.05-.06-.09,0-.12a.24.24,0,0,1,.21-.15.18.18,0,0,1,.12,0,8.81,8.81,0,0,1,3.33,8.29c-.33,3.09-1.89,5.15-4.3,7.46A.29.29,0,0,1,139.52,69.17Z"/><path class="cls-5" d="M147.81,121.69a.12.12,0,0,1-.08-.05,12.42,12.42,0,0,1-2.34-4.25l-.06-.18-.19,0a.16.16,0,0,1-.15-.12,28,28,0,0,1-1.75-7.4,15.18,15.18,0,0,1,.6-4.35,19.31,19.31,0,0,0,.63-3.67.17.17,0,0,1,.19-.17.2.2,0,0,1,.12,0l.41-.36a9.05,9.05,0,0,0-1-1.5.19.19,0,0,1,0-.17.26.26,0,0,1,.13-.17l.4-.19-.34-.28c-.45-.37-.87-.75-1.26-1.13a.13.13,0,0,1,0-.15.23.23,0,0,1,.19-.14.16.16,0,0,1,.11.05l.23.23a8.47,8.47,0,0,0,3.79,2.54,5.1,5.1,0,0,0,1,.11,4.34,4.34,0,0,0,3.35-1.57,6.8,6.8,0,0,0,1.49-5.21,4.29,4.29,0,0,0-1-2,2.86,2.86,0,0,1-.81-1.8,4.63,4.63,0,0,1,1.17-2.22,7,7,0,0,0,1.27-2.17,11.28,11.28,0,0,0-1.11-8.93l-.32-.54-.19.6a13.15,13.15,0,0,1-.53,1.43,22.37,22.37,0,0,1-1.12,2.11c-1.12,1.94-2.09,3.62-1.19,6.63.08.26.16.51.24.75a6.17,6.17,0,0,1,.41,3.68c-.56,2.15-4.66,5.44-7.46,5.44-1.32,0-2.13-.75-2.39-2.24a.18.18,0,0,1,.1-.2l.19-.11,0,.16a2.2,2.2,0,0,0,2.29,2.1,8.41,8.41,0,0,0,5-2.47,6.51,6.51,0,0,0,1.59-6.2c-.12-.4-.27-.77-.41-1.13a5.33,5.33,0,0,1-.53-2.66A9.09,9.09,0,0,1,150,80.19l.19-.31c2.34-3.87,2.75-8,1.11-10.91a.15.15,0,0,1,0-.16.23.23,0,0,1,.19-.11.12.12,0,0,1,.12.08,9.33,9.33,0,0,1,.93,6.58l0,.12.07.1a11.2,11.2,0,0,1,1.61,9.91,6.67,6.67,0,0,1-1.1,2A6.39,6.39,0,0,0,152,89.47c-.23.87.3,1.83.85,2.84a6.36,6.36,0,0,1,.88,2.15,6.42,6.42,0,0,1-3.42,5.92,4,4,0,0,1-1.74.41,6,6,0,0,1-3.41-1.28l-.39.4a8.74,8.74,0,0,1,1.71,6.82c-.12.75-.26,1.48-.4,2.21l-.24,1.29.68-.34a23.59,23.59,0,0,0,4.14-2.4,5.31,5.31,0,0,0,1.23-7.13.13.13,0,0,1,0-.14.23.23,0,0,1,.19-.11.15.15,0,0,1,.13.08,5.73,5.73,0,0,1,.15,6c-1.1,1.87-3.48,3-5.57,4l-1,.49,0,.14c-.57,3.35-.87,6.92,2.17,10.57a.18.18,0,0,1,0,.21A.21.21,0,0,1,147.81,121.69Zm-3-20.08v.06a17.61,17.61,0,0,1-.59,3.31,20.21,20.21,0,0,0-.58,3,16,16,0,0,0,.64,5.66l.56-.07a15.6,15.6,0,0,1,.21-2.26l0-.22-.2-.09a.23.23,0,0,1-.13-.19s0-.07.08-.11l.36-.18,0-.13c.08-.41.17-.83.26-1.23.56-2.63,1.09-5.12-.14-7.72Zm-2.72-7.53a3.8,3.8,0,0,1-1.19-.22l-.32-.11-.3-.13c-.33-.14-.66-.3-1-.46s-.74-.36-1.08-.5a.22.22,0,0,1-.12-.25s0-.12.09-.12l.58.23a8.34,8.34,0,0,0,3,.86,3.47,3.47,0,0,0,2.9-1.85c2.62-3.84,2.2-7.24-1.3-10.39-1.53-1.38-2.45-2.33-2.15-4.54l0-.19-.16-.1a.24.24,0,0,1-.12-.19l.18-.12.12-.05.13-.17a12.56,12.56,0,0,1,2.89-4.52,21.09,21.09,0,0,0,2.08-2.71,10.4,10.4,0,0,0,1.49-8.15c-.8-3.11-3.18-5.89-6.89-8a.14.14,0,0,1-.07-.17.2.2,0,0,1,.17-.16c4.51,2.58,7,5.61,7.54,9l0,.23h.23a.14.14,0,0,1,.13.07A7.91,7.91,0,0,1,150,68c-.94,3.1-4,6.12-8.32,8.09l-.13.06,0,.15a4.83,4.83,0,0,0-.07,1.21c.1,1.44,1.36,2.63,2.58,3.78a8.44,8.44,0,0,1,2.46,3.14,7.7,7.7,0,0,1-.45,5.29c-.51,1.18-1.81,3.56-3.07,4.13A2.21,2.21,0,0,1,142.09,94.08Zm6.6-31.36v.06c0,.21,0,.41,0,.63a12.67,12.67,0,0,1-2,5.32,20.2,20.2,0,0,1-2,2.47,15.54,15.54,0,0,0-2.76,3.89l-.31.72.7-.36c2.44-1.25,10.16-5.86,6.9-12.84Z"/><path class="cls-4" d="M147.41,82.48l-.09,0c-1.19-.56-1.26-2.67-1-3.95s2-2,3.21-2.46l.35-.14h0A.13.13,0,0,1,150,76a.21.21,0,0,1-.12.25l-.33.13a6.29,6.29,0,0,0-2.66,1.51,4.15,4.15,0,0,0-.23,3,1.94,1.94,0,0,0,.85,1.3c.07,0,.08.07.07.12S147.41,82.48,147.41,82.48Z"/><path class="cls-5" d="M127.91,111.55c-.05,0-.11-.06-.14-.14a.17.17,0,0,1,.07-.21c1.4-.95,3.22-2.18,2.54-4.49,0-.11.07-.19.14-.22.66-.24,1.37-.46,2.11-.69,3.54-1.11,7.55-2.38,9-5.82a.2.2,0,0,1,.2-.13.21.21,0,0,1,.17.07c-1.34,3.33-4.37,4.42-7.58,5.56l-.53.19c-.21.08-.44.14-.68.21a3.74,3.74,0,0,0-2.22,1.21l-.13.19.07.07c0,.36-.18,1.38-.21,1.5a6.36,6.36,0,0,1-2.64,2.64Z"/><path class="cls-4" d="M118.28,112a.23.23,0,0,1-.19-.14.12.12,0,0,1,0-.15c1.32-1.25,2.61-2.64,2.58-4.69s-1.17-2.78-2.48-3.77l-.2-.15a2.43,2.43,0,0,1-1.16-1.67c-.32-2.37,2.34-3.32,4.63-3.69h0a.23.23,0,0,1,.24.21c0,.08,0,.1-.09.11l-.1,0c-1.1.18-3.68.6-4.19,2.09-.27.79.1,1.72,1.09,2.78a2.85,2.85,0,0,0,.82.54,2.82,2.82,0,0,1,.65.4,3.88,3.88,0,0,1,1.21,2.32c.4,2.49-1.36,4.48-2.72,5.76A.16.16,0,0,1,118.28,112Z"/><path class="cls-4" d="M89.17,102.8a1.14,1.14,0,0,1-.43-.11,2.09,2.09,0,0,1-1-2.13,11.58,11.58,0,0,1,.63-3.62,6.09,6.09,0,0,1,2.4-2.59h.06a.14.14,0,0,1,.14.11.2.2,0,0,1-.07.23,6.09,6.09,0,0,0-2.67,4.72c0,.09,0,.2-.06.3a2.77,2.77,0,0,0-.08.88,1.71,1.71,0,0,0,1.39,1.33h.15a1.7,1.7,0,0,0,.61-.39,2.77,2.77,0,0,1,.48-.34h0a.16.16,0,0,1,.16.13.19.19,0,0,1-.12.22,2.2,2.2,0,0,0-1,.77C89.61,102.62,89.45,102.8,89.17,102.8Z"/><path class="cls-5" d="M102.46,110.6h-.06a10.46,10.46,0,0,0-2-.42,7,7,0,0,1-2.58-.69,3.38,3.38,0,0,1-1.73-2.9l.14-.25,0,.07h0c.08,0,.11,0,.12,0-.2,1.9,1.7,3,3,3.24.38.08.76.13,1.14.19a9.58,9.58,0,0,1,1.89.39.19.19,0,0,1,.12.22S102.55,110.6,102.46,110.6ZM88,106.94H83.06c-3,0-6.12-.17-9.1-.33s-6.08-.33-9.12-.33c-1.31,0-2.52,0-3.7.09h0c-.1,0-.14,0-.14-.14a.18.18,0,0,1,.17-.21c1.07-.06,2.18-.08,3.38-.08,2.87,0,5.78.16,8.6.32,2,.12,4.17.24,6.26.29q1.59,0,3.17,0c1.79,0,3.7,0,6-.11h2.06a11.18,11.18,0,0,0,2.22-.17c2.93-.6,3.36-1.11,4-1.88a8.11,8.11,0,0,1,.78-.82l.44-.4-.59-.09L96.9,103c-3.56-.79-6.45-1.77-5.84-5.65.34-2.17,1.65-7.4,6.44-9l.11,0,.05-.1c.82-1.57,2.66-2.79,5.2-3.41h.07l.09,0h.25l.13-.27,0-.22a2,2,0,0,0-.16-.83,2.84,2.84,0,0,0-.78-1.1,6.77,6.77,0,0,0-2.26-1.16l-.1,0a.19.19,0,0,1-.12-.23s0-.14.11-.14c1.55.55,2.93,1.15,3.47,2.51a2.7,2.7,0,0,1,.19.9v.5l.42-.26c.57-.36,1.18-.68,1.76-1s1.4-.74,2.07-1.18a4.48,4.48,0,0,0,2.27-3.44c.15-2.25-1.61-5-5.23-8.13l-.28-.23-.44.34a2.05,2.05,0,0,1,.12.3,1.45,1.45,0,0,1-.18,1.23c-.63,1-2.39,1.53-3.7,1.73a10.59,10.59,0,0,1-1.56.1c-.45,0-.9,0-1.36,0s-.92,0-1.38,0-.74,0-1.11,0a20.34,20.34,0,0,0-4.63,1,19.92,19.92,0,0,0-3.24,1.39,7.16,7.16,0,0,1-2.1,1.31l-.54.22.5.29a.11.11,0,0,1,.05.13l-.05.28-.12,0c-.19,0-.31-.08-.3-.15v-.2l-.18-.08a.19.19,0,0,1-.13-.16,2.77,2.77,0,0,1,.34-1.76L85,76l-.33-.1c-1.07-.33-1.64-1.23-2.17-2.48-.77-1.83-.68-3,.34-4.38a.17.17,0,0,1,.1-.06l-.12-.55h0a.18.18,0,0,1-.2-.15v-.08l.05,0,.26-.18-.24-.31-.1,0,.09.05-.36-.15-.12.35v.21l0,0a.19.19,0,0,1-.13,0l-.26.51.11.14a.25.25,0,0,1-.1.18,2,2,0,0,1-1.06.26,4.34,4.34,0,0,1-2.56-.88c-1.3-1.14-1-3-.35-4.19,2.47-4.61,8.67-6.71,13.39-6.71h.46a.17.17,0,0,1,.17.19c0,.07,0,.16-.14.16h-.55A16.23,16.23,0,0,0,82.84,60a14.43,14.43,0,0,0-3.43,2.68c-1.45,1.58-1.48,1.72-.77,3.92l0,.11c.26.82.75,2.35,1.92,2.35a1.61,1.61,0,0,0,.72-.19l.07,0,0-.06.12-.1.29-.49a.13.13,0,0,1,0-.11c0-.4.1-.64.29-.76a.46.46,0,0,1,.25-.07.91.91,0,0,1,.49.2.8.8,0,0,1,.39.63.51.51,0,0,1-.13.33.27.27,0,0,1-.17.08L83,69a.24.24,0,0,1,.2.1s0,0,0,.1a3.69,3.69,0,0,0-.36,4.08c.45,1.07,1,2.14,2.32,2.4l.15,0,.11-.11a6.08,6.08,0,0,1,1-.87l.13-.08.26-.15A22.09,22.09,0,0,1,90,73l.6-.24a21.92,21.92,0,0,1,8.52-1.47c1.13,0,2.26,0,3.61.1l.4,0-.46-1.52L100.34,69a13.09,13.09,0,0,0-3.57-.48c-4.58,0-8.65,2.2-10.36,5.6l0,.1h-.07a.24.24,0,0,1-.18-.12.16.16,0,0,1,0-.16c1.73-3.47,4.41-5.09,9.23-5.61a14.64,14.64,0,0,1,1.5-.07,17.85,17.85,0,0,1,4.56.56l.23-.51c-1.91-1.25-3.45-2.52-3-5.44a3.06,3.06,0,0,1,1.56-2.55,4.16,4.16,0,0,1,1.56-.42l.57-.08a12.5,12.5,0,0,0,3.48-.58c1.36-.22,2.17-.69,2.46-1.42s0-1.75-1-3l-.17-.21-.22.16a.21.21,0,0,1-.12,0,9.92,9.92,0,0,0-4-.92l-.53,0A5.36,5.36,0,0,0,98.49,56c0,.05-.08.05-.09.05a.21.21,0,0,1-.17-.13.16.16,0,0,1,0-.19,5.66,5.66,0,0,1,3.46-2.17,7.15,7.15,0,0,1,1-.07,9.39,9.39,0,0,1,3.06.56l.73.25-.39-.66a.18.18,0,0,1,0-.13.2.2,0,0,1,.09-.13l.55-.32-1.29-.42a11.21,11.21,0,0,0-3.71-.72,9,9,0,0,0-3.23.63c-.18.07-.41.18-.66.31a4.59,4.59,0,0,1-1.19.48l-.49.07a2.41,2.41,0,0,1-.36,0c-.17,0-.34-.06-.81-.41a1.75,1.75,0,0,1-.81-1.31,2.5,2.5,0,0,1,.9-1.88c.58-.55,2.49-.87,4.08-1.09l0-.56c-1.27-1-1.83-2.13-1.69-3.21A4,4,0,0,1,100,42.19l-.14-.54h0a.18.18,0,0,1-.13,0,3.3,3.3,0,0,1,.48-1.85,2,2,0,0,1,1.4-.67l.14,0a.21.21,0,0,1,.19.2.11.11,0,0,1-.1.13l-.23,0a1.55,1.55,0,0,0-1.12.54,2.75,2.75,0,0,0-.41,1.44.22.22,0,0,1-.06.17l.31.47.11,0,.24-.1a3.18,3.18,0,0,1,1.15-.21,6.55,6.55,0,0,1,1.32.18,7.2,7.2,0,0,0,1.46.19,3.9,3.9,0,0,0,.72-.07,4.77,4.77,0,0,0,1.85-.88,5.81,5.81,0,0,1,1.38-.75,11.06,11.06,0,0,1,3.68-.64,12.32,12.32,0,0,1,2.58.28,1.65,1.65,0,0,1,.4.22,1.47,1.47,0,0,0,.73.32h0a3.21,3.21,0,0,0,1.86-.62,5.27,5.27,0,0,1,1-.53,7.67,7.67,0,0,1,2.53-.41c2.52,0,5.61,1.1,6.81,3.55a.17.17,0,0,1,0,.18.24.24,0,0,1-.18.11s-.06,0-.1-.08c-.88-1.8-3.35-3-5.22-3.13-.38,0-.76-.06-1.12-.06A7.6,7.6,0,0,0,116.95,41l.24.5,1-.32a7.71,7.71,0,0,1,2.56-.53,6,6,0,0,1,1,.09A10.17,10.17,0,0,1,127,43.49c.06.06.06.1,0,.14a.23.23,0,0,1-.2.14.17.17,0,0,1-.11-.05,10.6,10.6,0,0,0-6.54-2.78,5,5,0,0,0-4.23,2.17.22.22,0,0,1-.17.1.17.17,0,0,1-.15-.09l0-.07-3.7-1.86h-.05l-.39,0a4.05,4.05,0,0,0-2.36.76,5.17,5.17,0,0,0-3.12,3,.17.17,0,0,1-.15.08.18.18,0,0,1-.13,0,4.86,4.86,0,0,0-2.4-.82c-1.32,0-2.19,1-2.59,2.87l-.05.25.24.08a.17.17,0,0,1,.12.21s0,.15-.13.15c-.73-.23-1.07-.57-1.07-1,0-.95,1.39-2.3,2.48-2.66a5,5,0,0,1,1.66-.29h.38a3.13,3.13,0,0,1,.41.17,1.94,1.94,0,0,0,.7.24h0l.08,0a3.16,3.16,0,0,0,1.37-1.1l.61-.73h0a3.6,3.6,0,0,1,1.21-1,6.86,6.86,0,0,1,2.7-.5,7,7,0,0,1,2.28.35h0l.22.1a8.77,8.77,0,0,1,1.56.8l0-.22a.23.23,0,0,1,.16-.15l0,.57h0c.29,0,.48,0,.57-.2l.07-.17,0,0,.45-.19-.4-.3a8.83,8.83,0,0,0-4.81-1.24c-1.39,0-3.84.28-4.63,2.18l.26.16-.47.14h-.13l-.84-.15A16.24,16.24,0,0,0,102.7,42a5.56,5.56,0,0,0-2.7.63,3.31,3.31,0,0,0-1.84,2.54A3.19,3.19,0,0,0,99.42,48c.06,0,.05.08.05.09a.22.22,0,0,1-.12.15l.17.53,1.4-.17c3.2-.39,4.74-.61,4.72-1.41a.13.13,0,0,1,0-.11.19.19,0,0,1,.13,0,.17.17,0,0,1,.19.17c0,1-.37,1.32-1.58,1.67a4.79,4.79,0,0,1-1.34.16c-.4,0-.81,0-1.22-.06s-.82-.06-1.21-.06h-.19l-.7,0a10.47,10.47,0,0,0-2.64.34l-.12,0-.06.11c-1.29,2.43-1.26,3.09-1.07,3.42a.57.57,0,0,0,.51.27,2.26,2.26,0,0,0,1.06-.4,10.27,10.27,0,0,0,2.32-.6,7.66,7.66,0,0,1,2.62-.58,5.27,5.27,0,0,1,1,.09,9.43,9.43,0,0,1,2.41.91,12.25,12.25,0,0,0,2.06.84,7.69,7.69,0,0,0,2.07.27,16.42,16.42,0,0,0,4.81-.95h0a.16.16,0,0,1,.18.15.16.16,0,0,1-.12.2,14.1,14.1,0,0,1-4.22.74,11.46,11.46,0,0,1-2.66-.33l-.2.52a2.83,2.83,0,0,1,1.66,2.49A3.39,3.39,0,0,1,107,59.13a13.82,13.82,0,0,1-3.56.93l-.54.08c-1.39.19-3.12.42-3.85,2.09s.92,4.15,1.84,5.07a10,10,0,0,0,2,1.43,13.25,13.25,0,0,1,1.51,1,26.22,26.22,0,0,1,3.78,3.67c1.84,2.2,2.64,4.17,2.39,5.86a4.92,4.92,0,0,1-2.44,3.33c-.57.37-1.14.72-1.71,1.07-3.81,2.33-7.42,4.53-5.38,10.46.16.47.3.89.41,1.3l.06.21h.22a4.83,4.83,0,0,0,2.54-.88,4.55,4.55,0,0,0,.72-.63,3.43,3.43,0,0,1,.76-.63,1.6,1.6,0,0,1,.51-.13l.71-.1a9.16,9.16,0,0,0,2.48-.6h0a.24.24,0,0,1,.26.17s0,.07-.07.1a10,10,0,0,1-2.21.68,4.85,4.85,0,0,1-.48.05,3.06,3.06,0,0,0-1.15.24,2.72,2.72,0,0,0-.61.52,3.39,3.39,0,0,1-.36.34A5.73,5.73,0,0,1,102,96l-.31,0,0,.31a5.07,5.07,0,0,1-.08,2l-.16.68.59-.38a11.8,11.8,0,0,1,2.73-1.29h0a.16.16,0,0,1,.17.14.17.17,0,0,1-.12.21,11.14,11.14,0,0,0-3.63,2l-.12.1,0,.15a3.41,3.41,0,0,1-.53,2.65,2.42,2.42,0,0,1-1.88.69h-.18l-.07.16a10.2,10.2,0,0,0-1.53,1.55,6.55,6.55,0,0,1-.95,1l0,0-.33.17a3.66,3.66,0,0,1-1.39.47A43.31,43.31,0,0,1,88,106.94Zm8.88-18a9.76,9.76,0,0,0-4.81,5.71,6.3,6.3,0,0,0,.4,4.88,5.44,5.44,0,0,0,3.28,2.75l.52.16a3.93,3.93,0,0,0,1.06.24c.6,0,.88-.43,1.54-1.46l.32-.5c1.39-2.13,1.27-2.52.39-4.22l-.32-.63L98.8,95a18.38,18.38,0,0,1-1.35-3,5.36,5.36,0,0,1-.19-2.73l.12-.56Zm5.29-3.62c-3.72,1.18-5.31,3.58-4.36,6.59a18.9,18.9,0,0,0,1.52,3.28,20.09,20.09,0,0,1,1.41,3l.55,0a6,6,0,0,0-.05-2l0-.17-.35-.09a.17.17,0,0,1-.12-.18.18.18,0,0,1,.09-.17l.26-.08-.07-.26c-.1-.37-.21-.74-.33-1.11a8.43,8.43,0,0,1-.57-4.07,8.08,8.08,0,0,1,2.33-4.12ZM98.41,71.6a18.69,18.69,0,0,0-4.81.56c-2.09.54-7.1,2.07-8.45,4.48l.45.34c2.17-2.14,7.7-3,9.64-3.21.37,0,.75,0,1.12,0l1.24,0,1.26,0,.71,0c1,0,3.31-.25,3.8-1.15l.06-.1-.25-.82-.26.06c-.53,0-1,0-1.48-.05C100.41,71.65,99.42,71.6,98.41,71.6ZM89.67,106a16.79,16.79,0,0,0-.43-2,.13.13,0,0,1,0-.13.22.22,0,0,1,.17-.08.15.15,0,0,1,.15.12,12.88,12.88,0,0,1,.39,1.86.25.25,0,0,1,0,.2l-.12.13ZM89.1,82.27A2.94,2.94,0,0,1,88,82a5.23,5.23,0,0,1-2.66-3v-.28l.18,0s.06,0,.08.06c.88,2,2.07,3,3.55,3a3.79,3.79,0,0,0,1.17-.2,3,3,0,0,0,1-.62,2.71,2.71,0,0,1,.77-.52,2.1,2.1,0,0,1,.73-.14,3.42,3.42,0,0,1,.75.11c.2,0,.42.09.68.13l.16,0a14,14,0,0,0,2,.2,4.06,4.06,0,0,0,2.95-1.14,8.12,8.12,0,0,0,.58-.77c.25-.35.67-.93.76-1a2.16,2.16,0,0,0,.31-.17c.13-.08.16-.1.22-.1a1,1,0,0,1,.29.07.16.16,0,0,1,.13.15.21.21,0,0,1-.15.2l-.36.14,0,.15A16.32,16.32,0,0,1,98,81.15a4,4,0,0,1-1.25.19,10.61,10.61,0,0,1-1.77-.2,10.89,10.89,0,0,0-1.83-.21,4.27,4.27,0,0,0-1.45.24,7.1,7.1,0,0,0-1.29.63A2.42,2.42,0,0,1,89.1,82.27Z"/><path class="cls-5" d="M135.13,128.63c-1.11-.22-2.23-.53-2.6-1.65a4.64,4.64,0,0,1,.49-2.85l.09-.22c.09-.24.22-.52.36-.83.59-1.28,1.31-2.87.7-3.83a1.92,1.92,0,0,0-1.74-.71h-.28a5.28,5.28,0,0,0-2,.64,6.44,6.44,0,0,1-1.48.56,6.19,6.19,0,0,1-1.23.13,6,6,0,0,1-1.2-.12,6.33,6.33,0,0,1-4.37-3.59.17.17,0,0,1,0-.18.24.24,0,0,1,.18-.11s.06,0,.1.08a5.59,5.59,0,0,0,5.12,3.42,8.08,8.08,0,0,0,3.69-1,3.1,3.1,0,0,1,1.45-.4,2.81,2.81,0,0,1,1.68.62,1.88,1.88,0,0,1,.83,1.65l.56.07a2.55,2.55,0,0,0,.08-.91c-.35-3.4-4-5.27-6.75-6.64l-.51-.26a.11.11,0,0,1-.07-.14.22.22,0,0,1,.19-.17l.55.26c2.45,1.24,5.49,2.79,6.55,5.27a4.05,4.05,0,0,1,0,3.29,3.67,3.67,0,0,1-.33.57,5.13,5.13,0,0,0-.31.51,4.16,4.16,0,0,0,.18,3.92,3.06,3.06,0,0,0,2.68,1.51h.17c.1,0,.14.05.14.15a.18.18,0,0,1-.17.2h-.26c-1.39,0-3.26-.54-3.93-2.06l-.53.2a3.4,3.4,0,0,0,2.11,2.31.11.11,0,0,1,.1.13.21.21,0,0,1-.19.2Z"/><path class="cls-5" d="M132.09,128.62l-.08,0c-.79-.5-1.19-.94-1.07-1.83l0-.31c.18-1.22.45-3.06-1.29-3.46a5.55,5.55,0,0,0-1.25-.12l-.73,0-.71,0a5.66,5.66,0,0,1-.9-.06,7.23,7.23,0,0,1-6.15-5,.13.13,0,0,1,0-.12.22.22,0,0,1,.17-.08.15.15,0,0,1,.16.12,6.71,6.71,0,0,0,5.09,4.6,7.47,7.47,0,0,0,1.77.18h1.5a5.78,5.78,0,0,1,2,.28c1.43.53,1.3,1.37,1,2.71-.25,1-.53,2.1.54,2.78a.16.16,0,0,1,.07.2C132.22,128.56,132.09,128.62,132.09,128.62Z"/><path class="cls-5" d="M129.51,128.57a.16.16,0,0,1-.11-.05l-.11-.11a3.31,3.31,0,0,1-.78-.93h0a1.79,1.79,0,0,0,0-.21,8.91,8.91,0,0,1-.23-1l.36-.24-.51-.2a15.8,15.8,0,0,0-3.35-.35,18.56,18.56,0,0,1-2-.16,7.71,7.71,0,0,1-3.76-1.71,5.36,5.36,0,0,1-1-1.69c-.38-.9-.77-1.83-1.82-1.83a3.55,3.55,0,0,0-1.66.55h-.06a.19.19,0,0,1-.2-.14.13.13,0,0,1,.07-.16l.09-.05a6.11,6.11,0,0,1,2.54-1,1.13,1.13,0,0,1,.68.19.55.55,0,0,1,.15.26,1.48,1.48,0,0,0,.16.32,8.06,8.06,0,0,0,1.22,3.21,6.19,6.19,0,0,0,2.45,1.34,11.33,11.33,0,0,0,3.77.69,9,9,0,0,0,1.15-.07,3.68,3.68,0,0,0,.55-.14,2.69,2.69,0,0,1,.74-.16.67.67,0,0,1,.31.07c.58.3.65.76.74,1.39a2.89,2.89,0,0,0,.8,1.88.13.13,0,0,1,0,.15C129.67,128.51,129.51,128.57,129.51,128.57Z"/><path class="cls-5" d="M128.25,127.59l0-.06C128.25,127.6,128.25,127.61,128.25,127.59Z"/><path class="cls-5" d="M110.62,117.39c-.1,0-.14-.11-.15-.17a.15.15,0,0,1,.11-.18,22.74,22.74,0,0,0,7-3.35h.06a.15.15,0,0,1,.15.11.18.18,0,0,1-.07.22,23.17,23.17,0,0,1-7.09,3.36Z"/><path class="cls-5" d="M106.94,116.73a.22.22,0,0,1-.17-.07s0,0,0-.11a4.69,4.69,0,0,0-.26-3.6,2.93,2.93,0,0,0-1.88-1.5.13.13,0,0,1-.11-.16c0-.07.06-.18.16-.18a3.27,3.27,0,0,1,2.13,1.68,5,5,0,0,1,.31,3.82C107.09,116.69,106.94,116.73,106.94,116.73Z"/><path class="cls-5" d="M106.73,108.21a.21.21,0,0,1-.16-.13.17.17,0,0,1,0-.2,44.14,44.14,0,0,1,3.28-3.4.16.16,0,0,1,.11-.05.23.23,0,0,1,.19.14.12.12,0,0,1,0,.15,44.66,44.66,0,0,0-3.32,3.45C106.77,108.21,106.74,108.21,106.73,108.21Z"/><path class="cls-5" d="M100.63,119.47a21.35,21.35,0,0,1-6.89-1.52.19.19,0,0,1-.12-.22s0-.14.12-.14a21.54,21.54,0,0,0,6.87,1.55,8.55,8.55,0,0,0,4.1-1h.06a.2.2,0,0,1,.21.15.12.12,0,0,1-.07.15,8.91,8.91,0,0,1-4.28,1Z"/><path class="cls-5" d="M88.79,116.62l-.12,0c-5.13-1.17-10.44-2.39-15.7-3.38-2.1-.4-4.26-.68-6.35-1a84.32,84.32,0,0,1-8.71-1.47.13.13,0,0,1-.11-.16c0-.07.06-.18.17-.18a86.76,86.76,0,0,0,8.81,1.48c2.09.28,4.24.56,6.32,1,5.27,1,10.6,2.22,15.74,3.4.09,0,.18,0,.16.17s-.06.18-.17.18Z"/><path class="cls-5" d="M57.2,109.66a.22.22,0,0,1-.12-.11,6.34,6.34,0,0,1,1-1.77.26.26,0,0,1,.18-.11c.11,0,.15.1.17.16a9.44,9.44,0,0,0-1,1.68s-.08.16-.18.16Z"/><path class="cls-5" d="M114.9,132c-.06,0-.15,0-.17-.1l-.16-.78a.19.19,0,0,1,.16-.23l.27-.07-.06-.27a5.93,5.93,0,0,0-.6-1.49,5.47,5.47,0,0,0-1-1.17c-.18-.17-.36-.34-.52-.53a3.54,3.54,0,0,1-.89-2.15l.05-.14-.09-.19-.11-.17v0l-.06-.12-.06-.1,0-.16a.24.24,0,0,1,.19-.1c.17.13.2.19.22.24.37.76,1.26,1.16,2.73,1.26l1.08.08-.91-.6a3.51,3.51,0,0,1-.93-.82c-.51-.68-.43-1.39.26-2.44a.16.16,0,0,1,.14-.08.23.23,0,0,1,.19.11s0,.05,0,.13l-.06.09a2,2,0,0,0-.5,1.54,2.18,2.18,0,0,0,.88,1,8.07,8.07,0,0,0,1.81,1,.23.23,0,0,1,.14.25s0,.11-.16.11h-.76a7.62,7.62,0,0,1-3.14-.51l-.61-.28.22.63a5.53,5.53,0,0,0,1.3,1.88,6,6,0,0,1,1.14,1.52c.49,1.07.81,1.95.15,2.63A.16.16,0,0,1,114.9,132Z"/><path class="cls-5" d="M113.88,136.63a.25.25,0,0,1-.18-.08.18.18,0,0,1,0-.15,6.21,6.21,0,0,0-1.46-5.81l-.5-.49a12.45,12.45,0,0,1-1.73-1.92c-1-1.54-.74-2.83.11-4.52,0-.07.07-.08.1-.08a.24.24,0,0,1,.18.11.17.17,0,0,1,0,.17c-1.38,2.77.26,4.45,1.85,6.08a13.43,13.43,0,0,1,1.63,1.89c.84,1.28.56,2.67.27,4.16l-.11.55C114,136.6,113.88,136.63,113.88,136.63Z"/><path class="cls-5" d="M109,140.57a.23.23,0,0,1-.18-.08.11.11,0,0,1,0-.11,9,9,0,0,0-.76-7.5l-.44-.81-.09.92a8,8,0,0,1-.77,2.7c0,.07-.07.08-.1.08a.24.24,0,0,1-.22-.2,4.83,4.83,0,0,0-1.82-2.79,5.17,5.17,0,0,1-1.79-2.58,2.78,2.78,0,0,1,1-2.72.17.17,0,0,1,.11,0,.23.23,0,0,1,.19.14.11.11,0,0,1,0,.14c-1,.91.66,4.77,1.07,5.39a4.18,4.18,0,0,0,.64.71,3.94,3.94,0,0,1,.56.61l.36.52.15-.61c.22-.89.52-2.49,0-3.23a.12.12,0,0,1,0-.13.25.25,0,0,1,.19-.13l.09.07.16.23h0a10.19,10.19,0,0,1,2.22,7.62l-.15,1.07.66-.86a5.64,5.64,0,0,0,1-5.72,8.49,8.49,0,0,0-2.17-3,12.08,12.08,0,0,1-1.55-1.82c-.89-1.38-.67-2.48,0-3.91,0-.07.07-.07.09-.07a.24.24,0,0,1,.18.11.18.18,0,0,1,0,.18c-1,2.21.56,4.24,2.11,6.2,1.09,1.38,2.22,2.81,2.33,4.24.17,2.21-1.28,3.81-2.91,5.4A.15.15,0,0,1,109,140.57Z"/><path class="cls-5" d="M100.91,129.77l-.09,0c-1.69-1-2.28-1.87-1.84-2.66.68-1.23,2.39-1.85,3.7-2.16h0a.2.2,0,0,1,.21.18.12.12,0,0,1-.11.15,6.66,6.66,0,0,0-2.77,1.24,1.6,1.6,0,0,0-.7,1.08,1.22,1.22,0,0,0,.39.92,5.56,5.56,0,0,0,1.21.89c.11.07.19.11.15.23S100.91,129.77,100.91,129.77Z"/><path class="cls-5" d="M96.67,127.46l-.09,0A96.74,96.74,0,0,0,73,117.84a.13.13,0,0,1-.11-.17c0-.07.06-.17.16-.17a96.85,96.85,0,0,1,23.67,9.64.13.13,0,0,1,.07.17C96.82,127.38,96.67,127.46,96.67,127.46Z"/><path class="cls-5" d="M67.62,124.68c-1.78,0-3.08-3.43-3.15-4.88a.13.13,0,0,1,0-.1.18.18,0,0,1,.13,0,.18.18,0,0,1,.2.17,5.74,5.74,0,0,0,.82,2.8c.42.68.65,1,1.33,1a5.17,5.17,0,0,0,.69-.06l.27,0c.78-.1,1-.17,1.13-1.14.18-1.75-1.78-3.84-2.83-5a.15.15,0,0,1,0-.18.22.22,0,0,1,.17-.13.13.13,0,0,1,.1.05,13.1,13.1,0,0,1,2.82,4.14,3.08,3.08,0,0,1,.12,1.42l0,.4-.13.34a1.75,1.75,0,0,1-.57.83A1.8,1.8,0,0,1,67.62,124.68Zm2.23-1.22a.21.21,0,0,1-.14-.08l-.1-.12.29-.31a2.14,2.14,0,0,0,.41-3,13.76,13.76,0,0,0-1.87-2.17.13.13,0,0,1,0-.15.22.22,0,0,1,.19-.14.16.16,0,0,1,.11.05,12.26,12.26,0,0,1,2.07,2.38l.36.61.16-.68a1.3,1.3,0,0,0,0-.72,3,3,0,0,0-1.07-1.31l-.1-.08c-.06-.05-.06-.09,0-.12a.24.24,0,0,1,.21-.14.18.18,0,0,1,.12,0,3.26,3.26,0,0,1,1.27,1.72,2.26,2.26,0,0,1-.38,1.51l-.11.23v.08A3.08,3.08,0,0,1,70,123.41.14.14,0,0,1,69.85,123.46Z"/><path class="cls-5" d="M64,123.29l-.08,0a14.9,14.9,0,0,1-4.43-2.59,9.17,9.17,0,0,1-2.35-4.31l-.05-.32-.3.06-.24.07h0a.26.26,0,0,1-.25-.18s0-.08.08-.13l.22-.12h.18l.07,0a3.94,3.94,0,0,0,.42-.24,2.69,2.69,0,0,1,.48-.25,2,2,0,0,1,.73-.11h.32a18.69,18.69,0,0,1,3.46.56.13.13,0,0,1,.11.16c0,.07-.06.18-.17.18l-.26-.06a13.51,13.51,0,0,0-3.05-.49,3,3,0,0,0-1.31.33l-.31.14.19.28a9,9,0,0,0,2.63,4.51,15.74,15.74,0,0,0,3.93,2.2l.15.06c.08,0,.08.07.07.11A.24.24,0,0,1,64,123.29Z"/><path class="cls-5" d="M56.65,119q-1.54-.48-3.06-1c-.18-.06-.4-.12-.63-.18a3.79,3.79,0,0,1-1.5-.61.14.14,0,0,1,0-.12.2.2,0,0,1,.09-.15h.1a.18.18,0,0,1,.14.06,2.79,2.79,0,0,0,1,.39l.35.09,1.08.37,2.53.82a.16.16,0,0,1,.12.2c0,.05,0,.15-.13.15Z"/><path class="cls-5" d="M39.07,108.2a.22.22,0,0,1-.12-.1c-.11-.18-.07-.32,0-.61,0-.1.08-.21.11-.33a2,2,0,0,1,.61-1.15,2.23,2.23,0,0,1,.32-.22l.34-.2-.3-.26a1.38,1.38,0,0,1-.6-1.4c.26-1.13,2.09-2.32,3.63-2.73a15,15,0,0,1,3.81-.47c4.87,0,9.85,2.08,14.23,3.92l.3.13a.22.22,0,0,1,.12.26s0,.12-.09.12l-.16-.05a60.09,60.09,0,0,0-9-3.21,22.94,22.94,0,0,0-5.4-.72h-.26a16.32,16.32,0,0,0-3.46.37c-1.88.19-2.88,1.39-2.86,3.46v.15l.12.08a.16.16,0,0,1,.06.09l.09.22.23,0a8.29,8.29,0,0,1,1.52-.12c.36,0,.71,0,1,0h0c.05,0,.11,0,.11.12s0,.21-.18.23-.42,0-.64,0H42.2a4.11,4.11,0,0,0-1.77.29,1.63,1.63,0,0,0-1,1.15s0,.09,0,.16a2.2,2.2,0,0,1-.08.34l-.05.11,0,.11a.25.25,0,0,1,0,.21.19.19,0,0,1-.15.1Z"/><path class="cls-5" d="M39.23,118.19a.15.15,0,0,1-.11-.05,2.93,2.93,0,0,1-.62-1.39l-.1-.36a1.92,1.92,0,0,1,.07-1.71,3.31,3.31,0,0,1,1.24-1l.38-.2h0l.36-.14a11,11,0,0,1,2-.51h0a.23.23,0,0,1,.24.21c0,.08,0,.1-.09.12a8.29,8.29,0,0,0-3.18,1.17,1.61,1.61,0,0,0-.66,2,3.48,3.48,0,0,0,.63,1.62.13.13,0,0,1,0,.15C39.38,118.13,39.23,118.19,39.23,118.19Zm.51-5-.08-.06a3.82,3.82,0,0,1-.44-1.45l-.06-.35a1,1,0,0,1,.16-1,2.37,2.37,0,0,1,1-.55l.19-.07c.62-.23,1.27-.44,2-.66h0a.17.17,0,0,1,.18.16.15.15,0,0,1-.12.19c-.86.25-1.61.5-2.3.76a1,1,0,0,0-.77,1.26,4.75,4.75,0,0,0,.35,1.37l0,.06.05,0a.25.25,0,0,1,.09.18l0,.31Z"/><path class="cls-5" d="M47.93,125.31a.15.15,0,0,1-.15-.17.16.16,0,0,1,.16-.18,7.44,7.44,0,0,0,2.56-.47c.33-.13.68-.3.76-.64a.81.81,0,0,0-.27-.74,3.54,3.54,0,0,0-.45-.39l-.08-.06h-.1l-2,0h-.41l.52,1.31c0,.13-.08.16-.16.16a.2.2,0,0,1-.2-.13l-.59-1.5c.06-.15.13-.19.18-.19l1.41,0,.74,0,.05-.21c0-.08.09-.15.14-.15a4.31,4.31,0,0,1,.47.29l.08.05H51c.07,0,.1,0,.11,0a.23.23,0,0,1,0,.19l0,.16.12.12c.77.74.6,1.17.4,1.43a2.73,2.73,0,0,1-1.35.71,8,8,0,0,1-2.28.35Z"/><path class="cls-5" d="M48.6,129s-.07,0-.11-.08l-.76-1.39a.15.15,0,0,1,0-.16.23.23,0,0,1,.19-.11s.07,0,.11.08l.81,1.49.27-.3a.14.14,0,0,1,.12,0,.18.18,0,0,1,0,.35l-.22-.12-.22.18A.24.24,0,0,1,48.6,129Z"/><path class="cls-5" d="M40.38,138.24a5,5,0,0,1-3.44-2,4.85,4.85,0,0,1-1.12-3.7,3,3,0,0,1,1.08-1.88l.1-.08v-.13a5.41,5.41,0,0,1,.73-3.29l0,0,.37-.37a3.85,3.85,0,0,1,.48-.41,6.28,6.28,0,0,1,3.73-1.18,7.6,7.6,0,0,1,1,.07.17.17,0,0,1,0,.26l.31.46a3.3,3.3,0,0,1,1.37-.24l.66,0c.19,0,.18.22.18.23s-.08.13-.11.13h-.13c-.23,0-.48,0-.72,0a2.19,2.19,0,0,0-1.34.38,1.09,1.09,0,0,0-.46,1,1.13,1.13,0,0,0,.63.9c.07,0,.07.07.08.09a.23.23,0,0,1-.09.18l-.12.09-.28-.21a1.43,1.43,0,0,1-.39-1.85,1.56,1.56,0,0,1,.52-.53l-.21-.52c-.35,0-.64-.05-.92-.05a6,6,0,0,0-3.28,1,3.76,3.76,0,0,0-1.64,3.37l0,.49.43-.23A13,13,0,0,1,43.13,129l.48,0,0,0,.07.24H44a4.64,4.64,0,0,1,.73-.06h.44l-.18-.4c0-.13.11-.18.19-.18a.18.18,0,0,1,.15.08l.21.32c.55.87,1.09,1.65,1.65,1.65h.12a.26.26,0,0,1,.21.14.13.13,0,0,1,0,.11l-.08.11,0,.13a.7.7,0,0,1-.05.66,2.4,2.4,0,0,1-1.86.56,4.38,4.38,0,0,1-2-.39c-.67-.4-1.23-1.21-.94-1.91a1.05,1.05,0,0,1,.16-.26l.39-.49-.63,0c-1.69.08-3.81.31-5.15,1.43l-.1.08v.26c0,.13-.1.16-.18.16l-.16,0-.13.13a1.3,1.3,0,0,0-.15.18,3.59,3.59,0,0,0,0,3.61,4.76,4.76,0,0,0,3.63,2.72.2.2,0,0,1,.18.22A.13.13,0,0,1,40.38,138.24Zm4.19-8.73a1.75,1.75,0,0,0-.91.2,1.08,1.08,0,0,0-.64.93,1.44,1.44,0,0,0,.9,1.1,5.7,5.7,0,0,0,1.78.25c.72,0,1.15-.12,1.33-.38a.53.53,0,0,0,.06-.5l0-.14-.14,0a2.86,2.86,0,0,1-1.34-1.26l-.09-.14h-.32C45,129.52,44.78,129.5,44.58,129.5Zm-7.2-2.74a.43.43,0,0,1-.18.07c-.1,0-.16-.11-.18-.21-.18-1.32.47-2.53,2-3.81l.29-.24-.31-.21c-.89-.74.16-2.65.77-3.41a2.92,2.92,0,0,1,2.5-1c.47,0,1,.05,1.46.1s.84.09,1.24.1a.15.15,0,0,1,.14.09l.08.16h.18a3.27,3.27,0,0,1,2,.73l.3.23.19.2a4.6,4.6,0,0,1,.35.39.2.2,0,0,1,0,.22.21.21,0,0,1-.15.13A3.55,3.55,0,0,0,46,118.8a3.36,3.36,0,0,0-.69-.09,1.79,1.79,0,0,0-.91.24c-.22.13-.86.66-.82,1.17a.61.61,0,0,0,.44.53.2.2,0,0,1,.12.24s0,.13-.1.13a1,1,0,0,1-.75-.76,1.66,1.66,0,0,1,.67-1.43l.52-.41-.65-.09a10.93,10.93,0,0,0-1.51-.14,3.73,3.73,0,0,0-1.07.14A3,3,0,0,0,39.54,120c-.24.46-.71,1.37-.41,1.93l0,.08.08,0a.19.19,0,0,1,.09.1l.13.31.28-.18a4.91,4.91,0,0,1,2.7-.72,12.16,12.16,0,0,1,1.7.14c.07,0,.08,0,.08.07l0,.3.3-.06a2.73,2.73,0,0,1,.52,0,5.78,5.78,0,0,1,1.54.25.14.14,0,0,1,.11.18c0,.06,0,.17-.15.17l-.17,0a5,5,0,0,0-1.3-.24,1.94,1.94,0,0,0-.72.13,1.38,1.38,0,0,0-.83,1.13.71.71,0,0,0,.53.66.18.18,0,0,1,.12.22s0,.14-.12.14a1.17,1.17,0,0,1-.8-.78,1.28,1.28,0,0,1,.21-1.14,1.2,1.2,0,0,1,.14-.15l.45-.42-.57-.11a9.21,9.21,0,0,0-1-.06,4.82,4.82,0,0,0-3.31,1.21,4.33,4.33,0,0,0-1.86,3v.17l.15.09a.22.22,0,0,1,.11.17l0,.46Zm10.46-7.92c0-.09,0-.11.09-.12l3.5-.58a.23.23,0,0,1,.24.21c0,.08,0,.1-.09.12l-3.49.58-.22,0Z"/><path class="cls-5" d="M58.64,135.53a.16.16,0,0,1-.08,0c-.56-.38-1.16-.75-1.77-1.13a23.1,23.1,0,0,1-3.48-2.45c-.31-.28-.31-.3-.3-.69a12.8,12.8,0,0,1,.12-1.43,11,11,0,0,0,.11-1.87.12.12,0,0,1,0-.1.18.18,0,0,1,.13,0,.18.18,0,0,1,.2.17,13.13,13.13,0,0,1,0,2.15,2.12,2.12,0,0,0,1.12,2.31l4,2.75a.18.18,0,0,1,.07.21C58.75,135.47,58.64,135.53,58.64,135.53Z"/><path class="cls-5" d="M39.48,166.11H39l6.25-27.21h.06l0-.34.07-.13a.18.18,0,0,1,.12,0l.08,0h.18a15.67,15.67,0,0,1,2.57-.43h.17c.24,0,.49,0,.74,0a2,2,0,0,1,1.2.3.17.17,0,0,1,.06.09l0,.12.12,0a.18.18,0,0,1,.09.21.16.16,0,0,1-.3,0l0-.11-.1-.05a2.07,2.07,0,0,0-1.18-.3,7.64,7.64,0,0,0-.91.07l-.31,0a14.42,14.42,0,0,0-2.08.38l-.17,0Z"/><path class="cls-5" d="M56.79,139.4c-1.56-.28-3.13-.65-4.67-1.08a.15.15,0,0,1-.11-.18c0-.06,0-.17.15-.17,1.6.44,3.19.81,4.78,1.1.05,0,.11,0,.1.12a.22.22,0,0,1-.2.21Z"/><path class="cls-5" d="M57.57,138.49c-.06,0-.09-.08-.1-.12a.21.21,0,0,1,.12-.25l.2-.08a10.24,10.24,0,0,1,3.52-.94,2.68,2.68,0,0,1,1.28.29.12.12,0,0,1,.07.15.21.21,0,0,1-.18.17,2.64,2.64,0,0,0-1.2-.27,9.69,9.69,0,0,0-3.32.91l-.34.14Z"/><path class="cls-5" d="M67.64,142.09l-.07,0-.67-.48A21.91,21.91,0,0,1,64,139.28a2.54,2.54,0,0,1-.59-2.65l0-.09a.12.12,0,0,1,.08-.09,5.66,5.66,0,0,1,2.6-.88,2.62,2.62,0,0,1,1.22.29.11.11,0,0,1,.07.14.22.22,0,0,1-.19.17,3.63,3.63,0,0,0-.58-.21l-.32-.08.13-.12-1,.21a6.39,6.39,0,0,0-1.62.68l-.12.06,0,.13c-.29,1.41.39,2.11,1.31,2.88s1.69,1.32,2.53,1.94l.08.06a.2.2,0,0,1,.07.23C67.74,142,67.69,142.09,67.64,142.09Zm1.19-1.43a.14.14,0,0,1-.11-.05l-.94-.91c-.65-.63-1.33-1.28-1.93-2a2,2,0,0,1-.35-.51l.45,0a1.2,1.2,0,0,0,.13.2c.21.25.44.47.68.7l.27.27L69,140.36a.14.14,0,0,1,0,.16A.22.22,0,0,1,68.84,140.66Zm-3.33-3.46c-.11-.28,0-.47.29-.75l.45-.45.11.32s0,.07,0,.12l-.1.07a2.21,2.21,0,0,0-.32.26Z"/><path class="cls-5" d="M63.47,147.86a.23.23,0,0,1-.17-.09.15.15,0,0,1,0-.14,2.79,2.79,0,0,0-.32-2.84c-.59-.85-.72-.92-1.43-1.11l-.34-.09a5.54,5.54,0,0,1-1.93-.91c-.62-.47-2-1.72-1.26-3.19,0-.08.08-.08.1-.08a.24.24,0,0,1,.18.11.17.17,0,0,1,0,.18,1.56,1.56,0,0,0,0,1.36,4.91,4.91,0,0,0,2.82,2.13c.21.06.42.11.64.16a3.27,3.27,0,0,1,1.4.56,2,2,0,0,1,.56.72l.24.52.26-.51a.22.22,0,0,1,.2-.11.16.16,0,0,1,.11,0,7.89,7.89,0,0,1-.89,3.2A.11.11,0,0,1,63.47,147.86Z"/><path class="cls-5" d="M63.41,142.43a.15.15,0,0,1-.16-.18.19.19,0,0,1,.16-.17.15.15,0,0,1,.16.18A.19.19,0,0,1,63.41,142.43Z"/><path class="cls-5" d="M50.64,127.62c-.1,0-.16-.11-.16-.18a.13.13,0,0,1,.11-.16c.14,0,3.35-.85,3.85-2.51a1.7,1.7,0,0,0-.51-1.69,6,6,0,0,0-4.38-1.87,6.23,6.23,0,0,0-.9.07h0a.24.24,0,0,1-.25-.22c0-.08,0-.09.09-.1a6.85,6.85,0,0,1,1-.07c1.79,0,4.24.69,5.27,2.65a1.61,1.61,0,0,1,0,1.69l-.05.09,0,.1c0,.42.06.57,30.92.78l3.88,0a.16.16,0,0,1,.16.18.15.15,0,0,1-.15.17h0c-6.66-.08-12.82-.19-18.82-.32L62,126h-.34c-.53,0-1.14,0-1.78.06s-1.48.07-2.23.07a8.55,8.55,0,0,1-3.09-.4l-.17-.07-.13.13a8.59,8.59,0,0,1-3.53,1.8Z"/><path class="cls-5" d="M70.51,149.34a.28.28,0,0,1-.23-.12c.83-1.14,1.1-2,.85-2.6-.38-1-1.84-1.25-3.26-1.51-.39-.07-.77-.14-1.13-.23a3,3,0,0,1-1.93-1.23c0-.06,0-.09,0-.11a.24.24,0,0,1,.2-.11.18.18,0,0,1,.15.08c.72,1,2,1.15,3.23,1.3A4.51,4.51,0,0,1,71.49,146a1.56,1.56,0,0,1,.12,1.7l-.39,1L72,148a4.26,4.26,0,0,0,1.62-2,2.83,2.83,0,0,0-.38-1.64c-.09-.21-.18-.43-.25-.63-.6-1.71-.94-2.82-.56-4.08l.09-.32-1.42-.21a.23.23,0,0,1-.19-.25c0-.1.06-.1.08-.1l.88.13.79.12.09-.18.32-.56-.33-.11c-1.07-.34-2-.68-2.91-1a.22.22,0,0,1-.12-.25s0-.12.09-.12c1.22.49,2.37.9,3.58,1.27a.21.21,0,0,1,.13.13.12.12,0,0,1,0,.12c-.1.15-.19.31-.27.46l-.19.35.4.06c4.57.69,9.23,1.63,13.84,2.79a25.07,25.07,0,0,1,8.94,3.83l.4-.39a22.8,22.8,0,0,1-3.39-8.77c-.55-2.7-1.3-6.4.19-9.06a.18.18,0,0,1,.13-.08l.47,0a.19.19,0,0,1,.17.21c0,.14-.1.14-.12.14h0a.84.84,0,0,0-.71.33c-1.25,1.58.46,9.56.48,9.63,1,4.17,2.43,7.07,4.72,9.39a.14.14,0,0,1,.05.11.21.21,0,0,1-.07.14l-.14.13.07.18a.17.17,0,0,1,0,.15.2.2,0,0,1-.15.09.13.13,0,0,1-.1-.05c-3.15-3.29-7.18-4.76-12.25-6-4.75-1.12-8.93-1.95-12.76-2.52l-.25,0-.07.24c-.5,1.77.18,3.49.83,5.17.16.41.32.83.47,1.25,0,.1-.11.19-.16.21a3.21,3.21,0,0,0-1,1.13,5,5,0,0,1-.42.55,7.55,7.55,0,0,1-2,1.38Z"/><path class="cls-5" d="M155,134.36c-.07,0-.1,0-.11-.1a11.85,11.85,0,0,0-2.13-4.47,18,18,0,0,1-1.54-2.61,25,25,0,0,1-1-2.76,26.42,26.42,0,0,0-1-2.8l-.06-.12c-1.43-3.21-2.78-6.24-2.09-9.84,0-.07,0-.1.11-.1a.25.25,0,0,1,.18.08.18.18,0,0,1,0,.15c-.68,3.51.72,6.63,2.07,9.65.49,1.1,1,2.24,1.4,3.37a23.05,23.05,0,0,0,2,4,16.59,16.59,0,0,1,2.32,5.27.17.17,0,0,1,0,.15A.25.25,0,0,1,155,134.36Z"/><path class="cls-5" d="M151.26,132.09l-.09,0c-4.11-2.45-7.65-4.83-9.42-9.05-2-4.87-2.4-10-1-14.12a.17.17,0,0,1,.17-.12.22.22,0,0,1,.17.07s0,0,0,.11c-1.38,4.08-1,9,1,13.91,1.74,4.17,5.21,6.5,9.24,8.9a.14.14,0,0,1,.07.18C151.4,132,151.26,132.09,151.26,132.09Z"/><path class="cls-5" d="M164.37,156a.23.23,0,0,1-.19-.11.13.13,0,0,1,0-.14c.48-.78-1.51-2.22-8.57-6.77-2.82-1.81-5.73-3.69-7.51-5.06l-.65-.5.2.8a12.88,12.88,0,0,1,.36,2c0,.11-.08.13-.13.13a.21.21,0,0,1-.22-.18,12.83,12.83,0,0,0-.76-3.2l0-.06,0,0a1.52,1.52,0,0,1-.39-.53.2.2,0,0,1,0-.13l.07-.12-.06-.13a25.94,25.94,0,0,0-12-12c-.07,0-.08-.06-.07-.11a.24.24,0,0,1,.21-.18,25.55,25.55,0,0,1,12.17,12.08l.05.12.12,0,.35.3a.17.17,0,0,1,0,.15l-.15.44.1.29.12.13c2,1.18,6.58,4.35,6.62,4.38l.29.2a45.56,45.56,0,0,0,8.49,5.08c1.09.47,1.88.84,2.08,1.47a2.06,2.06,0,0,1-.41,1.63A.25.25,0,0,1,164.37,156Z"/><path class="cls-5" d="M141.26,147.44c-.06,0-.09,0-.1-.1a3.51,3.51,0,0,0-3.61-3.08h-.11a.2.2,0,0,1-.13-.06,9.76,9.76,0,0,0-1.79-2.92,5.56,5.56,0,0,0-.75-.64,3.38,3.38,0,0,1-.88-.83,2.83,2.83,0,0,1-.31-1,2.71,2.71,0,0,0-.66-1.5,9.29,9.29,0,0,0-2.18-1.46c-.36-.2-.7-.39-1-.58a.16.16,0,0,1-.07-.2c0-.08.09-.15.15-.15.45.26.88.49,1.33.73a8.11,8.11,0,0,1,2.86,2.08,2.32,2.32,0,0,1,.26,1,2.87,2.87,0,0,0,.36,1.23,5,5,0,0,0,.89.92,5.56,5.56,0,0,1,.71.69,5.92,5.92,0,0,1,.48.78,4,4,0,0,0,.94,1.29,2.52,2.52,0,0,0,1,.41,3,3,0,0,1,.67.2,3.89,3.89,0,0,1,2.13,2.94.18.18,0,0,1,0,.16A.26.26,0,0,1,141.26,147.44Z"/><path class="cls-4" d="M113.28,153.54a5.23,5.23,0,0,1-1.12-.12.12.12,0,0,1-.1-.15c0-.07.06-.19.18-.19a5.15,5.15,0,0,0,1,.11c2,0,4.26-1,6.1-1.81l.83-.36a53,53,0,0,0,6.08-3.07h.06a.18.18,0,0,1,.19.13.14.14,0,0,1-.07.17,52.94,52.94,0,0,1-7.53,3.66l-.83.33a13.48,13.48,0,0,1-4.83,1.29Z"/><path class="cls-5" d="M109.56,146.63a17.87,17.87,0,0,1-3.26-.3c-.06,0-.11,0-.1-.13a.21.21,0,0,1,.19-.2,17.73,17.73,0,0,0,3.2.29c5.26,0,10-2.29,15.11-5.05h.06a.2.2,0,0,1,.21.15.12.12,0,0,1-.07.15C119.89,144.22,114.95,146.63,109.56,146.63Z"/><path class="cls-4" d="M157.52,163.2l-.09,0-13.3-7.31-.79-.44c-1.77-1-3.59-2-5.79-2h-.26c-2.56.09-5.57,1.09-9.21,3.06H128a.19.19,0,0,1-.21-.14.12.12,0,0,1,.07-.15c2.52-1.36,6.27-3.17,9.68-3.17a8,8,0,0,1,2.75.46,32,32,0,0,1,5.32,2.76c.78.47,1.55.93,2.31,1.35l9.67,5.32a.13.13,0,0,1,.07.16C157.68,163.12,157.52,163.2,157.52,163.2Z"/><path class="cls-5" d="M118.9,158.18a30.72,30.72,0,0,1-4.44-.33c-.06,0-.09,0-.09-.1a.23.23,0,0,1,.21-.22,30.14,30.14,0,0,0,4.32.32,29.61,29.61,0,0,0,4.49-.35h0a.24.24,0,0,1,.24.22c0,.08,0,.1-.09.11a30.64,30.64,0,0,1-4.64.36Z"/><path class="cls-5" d="M120.45,166.19c-4.74-1.91-9.09-5.12-13.09-8.31l-.13-.11c-2.21-1.76-8.08-6.43-7.86-9.61a.2.2,0,0,1,.12-.19l.17,0a.19.19,0,0,1,.2.17.13.13,0,0,1-.11.16l.14.55h-.15a30.07,30.07,0,0,1,2.37,3.33c.3.45.51.78.57.84a30.94,30.94,0,0,0,3.22,3.23,75.87,75.87,0,0,0,8.83,6.48A33.57,33.57,0,0,0,121,166Z"/><path class="cls-5" d="M166.17,146.57c-1.22-1-2.33-2-3.38-3l-1.14-1a38.66,38.66,0,0,1-3.67-3.68,7.47,7.47,0,0,1-.56-.83,6.25,6.25,0,0,0-.73-1,2.15,2.15,0,0,0-1.63-.82,5.05,5.05,0,0,0-1,.15c-.25.05-.52.11-.83.16h0a.3.3,0,0,1-.26-.13l.19-.33.1-.14c.06-.08.12-.11.13-.11l.46.05a.17.17,0,0,1,.1.05l.11.1.14,0a12.78,12.78,0,0,0,2-.66.23.23,0,0,1,.15.06c1.33,3.14,3.92,5.48,6.43,7.74l1.21,1.1q1.11,1,2.24,2Z"/><path class="cls-5" d="M157.34,166.72a24.1,24.1,0,0,1,4.88-6.74.14.14,0,0,1,.11-.05.22.22,0,0,1,.18.14.13.13,0,0,1,0,.16,25.19,25.19,0,0,0-4.83,6.46Z"/><path class="cls-5" d="M137.74,54.31a.24.24,0,0,1-.2-.14s0-.07,0-.13c2-1.72,3-3.41,3-5A4.62,4.62,0,0,0,139,45.54a11.83,11.83,0,0,0-2.92-2,6.27,6.27,0,0,0-2.94-.77,7.55,7.55,0,0,0-3.13.76h0a.23.23,0,0,1-.25-.17s0-.08.07-.11a8.54,8.54,0,0,1,3.48-1,4.79,4.79,0,0,1,.89.08l.19-.53A34.32,34.32,0,0,0,118,37.91a41.39,41.39,0,0,0-14.28,2.56h0a.15.15,0,0,1-.15-.12.2.2,0,0,1,.12-.23A41.48,41.48,0,0,1,118,37.56c9.54,0,17.89,3.31,23.5,9.33l.28.3.18-.37a3.45,3.45,0,0,0,.07-2.91c-1.2-2.92-6-5.3-8.6-6.25a43.5,43.5,0,0,0-10.7-2.2c-1.18-.11-2.35-.16-3.49-.16a34.68,34.68,0,0,0-7.2.75l-.79.16c-3.1.64-7,1.44-8.79,4.05a.17.17,0,0,1-.15.08h0a.24.24,0,0,1-.2-.11s0,0,0-.11c1.92-2.76,5.68-3.55,9-4.24l.79-.17c.9-.19,1.86-.35,3-.48l.06-.55s-.06-.09,0-.15a.21.21,0,0,1,.18-.2,46.16,46.16,0,0,1,5.46-.33,41.56,41.56,0,0,1,11.27,1.53c4.9,1.38,9.13,2.89,11.25,7.37a.18.18,0,0,1,0,.18.24.24,0,0,1-.18.11s-.05,0-.09-.07l-.5.26a3.79,3.79,0,0,1-.21,3.86l-.09.16.11.15a.19.19,0,0,1-.06.27l-.39.28.43.2a5.52,5.52,0,0,1,1.91,1.44,3.59,3.59,0,0,1,.13,3.33.19.19,0,0,1-.19.13.21.21,0,0,1-.17-.07s0,0,0-.1c.55-1.49.41-2.67-.42-3.42a5.85,5.85,0,0,0-2-1.24l-.41-.14,0,.43a4.26,4.26,0,0,1-.09,1.18l0,.22.21.09A2.8,2.8,0,0,1,143,52a.17.17,0,0,1,0,.15.25.25,0,0,1-.18.09c-.07,0-.1,0-.11-.1A2.38,2.38,0,0,0,141,50.5l-.27-.12-.11.27a9.92,9.92,0,0,1-2.8,3.6A.18.18,0,0,1,137.74,54.31Zm2.91-7c.06.14.12.29.16.43l0,.15.37.09.17-.18.05-.1.14-.19-.16-.18-.33-.34ZM119.2,35a46.11,46.11,0,0,1,8.44.83c3.85.72,12.51,3.5,14.67,7.47l.5-.26c-2.43-5-8.21-6.62-13.44-7.75a40.84,40.84,0,0,0-8.66-.91c-.84,0-1.7,0-2.56.07l0,.57Z"/><path class="cls-5" d="M143.41,47.8a.23.23,0,0,1-.19-.11.15.15,0,0,1,0-.16,3.57,3.57,0,0,0,.38-2.72.25.25,0,0,1,0-.18,3.23,3.23,0,0,1,.62-.1,3,3,0,0,0,2.18-.8,1.42,1.42,0,0,0,.36-1.35c-.1-.25-.36-.56-1.06-.64h-.14a1.91,1.91,0,0,0-1.1.37l0,0-.13.22-.17.31c0,.07-.07.08-.11.08a.24.24,0,0,1-.18-.11.16.16,0,0,1,0-.17l0-.08v-.13a.43.43,0,0,1,.12-.17l0,0,.09-.1a20.13,20.13,0,0,1,6.7-7.13h.07a.16.16,0,0,1,.16.12.16.16,0,0,1-.07.2A19.77,19.77,0,0,0,145.19,41l-.33.51.6-.07.27,0a1.35,1.35,0,0,1,1.37.86,2,2,0,0,1-.22,1.9,3.5,3.5,0,0,1-2.31.7l-.59.05,0,.29a4,4,0,0,1-.49,2.52A.17.17,0,0,1,143.41,47.8Z"/><path class="cls-4" d="M142.57,39.29a.21.21,0,0,1-.17-.07s0,0,0-.1a8.47,8.47,0,0,1,8-5.64c.28,0,.55,0,.84,0a.17.17,0,0,1,.13.06.25.25,0,0,1,0,.18v.1h-.07l-.87,0a8.11,8.11,0,0,0-7.75,5.33A.19.19,0,0,1,142.57,39.29Zm11.72-3.08a3.1,3.1,0,0,1-2.25-.76,1.52,1.52,0,0,1-.37-1.21l0-.14.12,0h.06c.07,0,.1,0,.12,0a1.46,1.46,0,0,0,.36,1.1,2.48,2.48,0,0,0,1.84.66,3,3,0,0,0,2.43-1.08,2.16,2.16,0,0,0,.15-2.08,3.6,3.6,0,0,0-3.28-1.94,2.2,2.2,0,0,0-2.24,1.44.17.17,0,0,1-.18.12.21.21,0,0,1-.17-.07s0,0,0-.11a2.59,2.59,0,0,1,2.63-1.71c1.69,0,3.6,1.11,3.75,2.91a2.57,2.57,0,0,1-2.38,2.84A4.7,4.7,0,0,1,154.29,36.21Z"/><path class="cls-4" d="M141,38.44a.23.23,0,0,1-.19-.11s0-.06,0-.13c2.25-3.47,3.13-6.18,2.67-8.29A4.58,4.58,0,0,0,141.39,27a2.62,2.62,0,0,0-1.44-.37,9.8,9.8,0,0,0-2.62.52l-.42.12a6.57,6.57,0,0,0-4.67,7,.19.19,0,0,1,0,.16.27.27,0,0,1-.19.09c-.05,0-.08,0-.09-.09a6.74,6.74,0,0,1,2.58-6.27,6.45,6.45,0,0,1,3-1.36c.28-.07.59-.16.93-.27a8,8,0,0,1,2.13-.47,1.8,1.8,0,0,1,.34,0c1.52.28,2.93,3.22,3.09,4.64.33,2.91-1.38,5.55-2.76,7.67A.16.16,0,0,1,141,38.44Z"/><path class="cls-5" d="M138.5,34.79a2.6,2.6,0,0,1-.73-.11,3.59,3.59,0,0,1-2.23-2.15,1.22,1.22,0,0,1,.35-1.23.14.14,0,0,1,.1-.05.22.22,0,0,1,.19.16l0,.06-.08.09,0,0a1,1,0,0,0,0,1.5l.6.74-.1-.95a3.9,3.9,0,0,1,0-1.12l0-.15.06-.2a2.29,2.29,0,0,1,2-1.57,3.91,3.91,0,0,1,.64-.06,2.16,2.16,0,0,1,1.71.67,2,2,0,0,1,.32,1.73C141.1,33.67,138.5,34.79,138.5,34.79Zm.76-4.65a2.92,2.92,0,0,0-1,.17c-2,.7-1.36,2.81-1.16,3.5l0,.12.11.06a3.64,3.64,0,0,0,1.38.43,2.75,2.75,0,0,0,2.43-2.65A1.64,1.64,0,0,0,139.26,30.14Z"/><path class="cls-5" d="M102.53,33.22a.16.16,0,0,1-.08,0,7.2,7.2,0,0,0-4.05-1.26,7.45,7.45,0,0,0-1.48.15h0a.21.21,0,0,1-.22-.19.11.11,0,0,1,.1-.14,8.09,8.09,0,0,1,1.62-.17,7.44,7.44,0,0,1,4.2,1.28.17.17,0,0,1,.07.21C102.64,33.16,102.58,33.22,102.53,33.22Z"/><path class="cls-5" d="M101,38.17a.13.13,0,0,1-.14-.11,7.22,7.22,0,0,0-2-3.89,6.08,6.08,0,0,0-3.84-1h-.1l-.16.07a2.55,2.55,0,0,1-1.66.58,2.83,2.83,0,0,1-2.65-1.7,2.74,2.74,0,0,1,.24-2.6A1.49,1.49,0,0,1,92,28.83a5.91,5.91,0,0,1,1.75.39l.21.07a.17.17,0,0,1,.11.21l0,.21.19.1a1.91,1.91,0,0,1,.26.16l.31.25.22.32a2.1,2.1,0,0,1,.37,1.86l-.14.37.39,0a6,6,0,0,1,3.47,1.07,7.46,7.46,0,0,1,2.11,4.1.15.15,0,0,1,0,.14A.23.23,0,0,1,101,38.17Zm-9.65-8.77a1.74,1.74,0,0,0-.75,1.36,2.46,2.46,0,0,0,1.75,2.6,2.36,2.36,0,0,0,.59.07A2.63,2.63,0,0,0,94.27,33l.09-.05,0-.1a.15.15,0,0,1,.13-.11l.1,0,.07-.08a1.36,1.36,0,0,0,.26-1.33v0h0l-.09-.15-.18-.57-.07.16,0,0a2,2,0,0,0-1.3-.83,6.13,6.13,0,0,0-.64-.11l-.25,0-.32,1.39,0,.08a1.12,1.12,0,0,0,1,.49.86.86,0,0,0,.88-.45.19.19,0,0,1,.19-.13l.21,0-.05.13a1.1,1.1,0,0,1-1.07.76A2.15,2.15,0,0,1,91.57,31a1,1,0,0,1,.13-1.15Zm12.2,1.71a.12.12,0,0,1-.09,0,6.77,6.77,0,0,0-4.84-2.37,4.72,4.72,0,0,0-2.84.93l-.13.09v.16a.22.22,0,0,1,0,.16.15.15,0,0,1-.12,0l-.62,0,.1-.23a5.13,5.13,0,0,1,3.63-1.52,6.65,6.65,0,0,1,4,1.44l.58.44-.13-.72a11.68,11.68,0,0,1,.06-4.51c0-.07,0-.1.12-.1a.24.24,0,0,1,.18.08.17.17,0,0,1,0,.15,11.28,11.28,0,0,0,.32,5.76.13.13,0,0,1,0,.12A.23.23,0,0,1,103.53,31.1Z"/><path class="cls-5" d="M115.3,26.28a.19.19,0,0,1-.13,0,.13.13,0,0,1,0-.11l0-.42h-.05l.19-.73c.76-2.84,3.88-4.68,6.46-5.19h0a.21.21,0,0,1,.23.2.11.11,0,0,1-.1.13c-2.53.5-6.33,2.5-6.41,6A.17.17,0,0,1,115.3,26.28Zm-.52-.6h0c-.13,0-.15-.05-.17-.1-.53-2-1.91-2.63-3.53-3.13a18.56,18.56,0,0,0-4.27-.78l-.26,0,0,.25a2.2,2.2,0,0,1-2.21,1.55l-.3,0h-.11l-.09.06a3.42,3.42,0,0,1-1.87.69h0A2.07,2.07,0,0,1,101,24a2.14,2.14,0,0,1-1-2.47,2.74,2.74,0,0,1,3-2.17,4.07,4.07,0,0,1,2.85,1.07,2.26,2.26,0,0,1,.48.71l.07.16h.18a18,18,0,0,1,6.05,1.37A3.36,3.36,0,0,1,114.76,25l.23.7Zm-11.65-6a3,3,0,0,0-2.23.87,2.21,2.21,0,0,0-.55,1.74,1.41,1.41,0,0,0,1.44,1.47,3,3,0,0,0,1.12-.25l.47-.19L103,23l-.1-.07a2.12,2.12,0,0,1-.74-1.41,1,1,0,0,1,.28-.8.9.9,0,0,1,.67-.26,3.37,3.37,0,0,1,2,1,.13.13,0,0,1,0,.16.23.23,0,0,1-.19.14.15.15,0,0,1-.11-.05,2.81,2.81,0,0,0-1.49-.8c-.21,0-.71.09-.78.89,0,.58.37,1,1.16,1.19l.13,0,.1-.08c.09-.07.13-.08.17-.08a.26.26,0,0,1,.19.1l.09.11h.15A2,2,0,0,0,105,23a1.26,1.26,0,0,0,1-1.08,2,2,0,0,0-1.06-1.75A6.94,6.94,0,0,0,103.12,19.69Z"/><path class="cls-5" d="M144.63,34a.24.24,0,0,1-.2-.11s0,0,0-.11a3.14,3.14,0,0,0,.47-1v0l0-.15a9.41,9.41,0,0,0,.08-2.67c-.14-2.11-.81-3.51-2.06-4.39a.2.2,0,0,1,0-.27l.1-.18.59.53a5.52,5.52,0,0,1,1.71,3.58,14,14,0,0,1,.14,2.41l0,.48.43-.22a3.78,3.78,0,0,1,1.71-.35,10.9,10.9,0,0,1,2.32.32A.12.12,0,0,1,150,32c0,.07-.06.19-.18.19a10.69,10.69,0,0,0-2.22-.32,3,3,0,0,0-2.27.85l-.05.05,0,.07a3.34,3.34,0,0,1-.5,1.1A.18.18,0,0,1,144.63,34Zm-12.73-5.91s-.06,0-.1-.08c-.15-.31-.13-.34.05-.68l.06-.11.17-.27-.06-.14a11,11,0,0,1-.52-1.5,13.77,13.77,0,0,0-.46-1.4A5.37,5.37,0,0,0,128,21.3l-.8-.4-.13-.2-.28,0a3.13,3.13,0,0,1-1.27.3,1.57,1.57,0,0,1-.86-.22.16.16,0,0,1-.07-.2c0-.08.09-.15.15-.15a1.29,1.29,0,0,0,.65.17,3.82,3.82,0,0,0,1-.18,2.11,2.11,0,0,0,1.72-1.81c.09-.88-.22-2-2.14-2.49a5.74,5.74,0,0,0-1.35-.18,3,3,0,0,0-1.59.41,1.47,1.47,0,0,0-.78,1.18,1.24,1.24,0,0,0,.63,1.05,8.49,8.49,0,0,0,1.46.75.22.22,0,0,1,.12.25s0,.12-.09.12h0c-.88-.35-2.25-.91-2.55-1.75a1.21,1.21,0,0,1,.14-1,2.88,2.88,0,0,1,2.67-1.31,6.51,6.51,0,0,1,1.82.28,2.87,2.87,0,0,1,1.78,1.39,2.47,2.47,0,0,1,.1,2,2.23,2.23,0,0,1-.74.94l-.34.28.39.2.64.31a6.26,6.26,0,0,1,2.68,1.9,7.09,7.09,0,0,1,.87,2.14c.11.38.22.75.35,1.12l.16.45.31-.36A16,16,0,0,1,135,24.16a7.81,7.81,0,0,1,4.76-1.22c.52,0,1,0,1.55,0l.17,0v.15a.21.21,0,0,1,0,.15l-.1,0h-.22c-.49,0-1,0-1.48,0a8.34,8.34,0,0,0-3.42.6A7.06,7.06,0,0,0,134,25.52l-.17.16c-.27.27-.78.77-1.18,1.18l-.15.16.12.19.13.21c0,.07,0,.09,0,.11a.23.23,0,0,1-.2.1l-.44-.2,0,.46a.18.18,0,0,1-.05.13A.23.23,0,0,1,131.91,28.11Zm12.78-2.93a6,6,0,0,1-.83-.06l-.77-.11,0,0-.31-.12a4.17,4.17,0,0,1-.4-.17c-.07,0-.09-.07-.07-.13a.23.23,0,0,1,.2-.18,5.71,5.71,0,0,0,2.31.47,3.44,3.44,0,0,0,2.74-1,2,2,0,0,0,.3-1.79,1.81,1.81,0,0,0-2-1.47,7.21,7.21,0,0,0-1,.08c-.85.12-3.12.44-2.95,2.06,0,.11-.08.12-.13.12l-.23-.05v-.16l0-.06c-.09-1,.85-1.81,2.82-2.19a7.83,7.83,0,0,1,1.5-.17A2,2,0,0,1,148,21.46a2.46,2.46,0,0,1-.09,2.39A3.93,3.93,0,0,1,144.69,25.18Z"/><path class="cls-5" d="M126,18.74a.11.11,0,0,1-.08-.05c-.44-.54-1.08-1.31-1.87-1.31a1.26,1.26,0,0,0-.64.18h-.06a.18.18,0,0,1-.19-.13.14.14,0,0,1,.07-.17A1.52,1.52,0,0,1,124,17a3,3,0,0,1,2.11,1.37.19.19,0,0,1,0,.21A.21.21,0,0,1,126,18.74Z"/><path class="cls-4" d="M129,33.1a.23.23,0,0,1-.17-.08.14.14,0,0,1,0-.13c.57-2.09,1-4.14-.44-6.17-.83-1.19-2.68-3.09-4.42-3.48a.11.11,0,0,1-.1-.12v-.36l-.35.09A8.44,8.44,0,0,0,119.42,25c-1.79,1.8-1.79,4.12-1.65,6.14,0,.12-.09.14-.14.14a.19.19,0,0,1-.21-.18c-.17-2.42,0-4.37,1.43-6a9.35,9.35,0,0,1,5.7-2.81h0a.21.21,0,0,1,.23.18c0,.1,0,.12-.07.13l-.76.23.73.3a10.43,10.43,0,0,1,4,3.46c1.31,1.91,1.13,3.94.46,6.41C129.14,33,129,33.1,129,33.1Z"/><path class="cls-5" d="M123.49,22.86l.35-.09v.13l.19-.06-.06,0,.76-.23s.08,0,.07-.13a.21.21,0,0,0-.23-.18h0a9.35,9.35,0,0,0-5.7,2.81c-1.42,1.64-1.6,3.58-1.43,6a.19.19,0,0,0,.21.18c.05,0,.1,0,.14-.14-.14-2-.15-4.34,1.65-6.14A8.44,8.44,0,0,1,123.49,22.86Z"/><path class="cls-5" d="M107,36.05a.2.2,0,0,1-.2-.13c-.18-.43-.36-.87-.55-1.31-1.24-2.92-2.52-5.95-1.47-9a.16.16,0,0,1,.13-.11l0-.55a.25.25,0,0,1-.17-.24s0-.06.09-.07a8.52,8.52,0,0,1,1.15-.08c5,0,7.36,4.66,7.88,8.65,0,.1-.07.12-.12.12a.23.23,0,0,1-.24-.19c-.53-4.11-3-8.25-7.46-8.25a7.69,7.69,0,0,0-1,.07l0,.55a.17.17,0,0,1,.1.07c-1,3.15.28,6.23,1.45,9,.2.46.4.92.58,1.37C107.12,36,107.06,36.05,107,36.05Z"/><path class="cls-5" d="M109.45,34.22a3.06,3.06,0,0,1-2-.68c-1-1-1.89-3.77-1-5a2.33,2.33,0,0,1,1.92-.93A2.23,2.23,0,0,1,110.57,29a5.7,5.7,0,0,1,.67,4C111,34.11,109.45,34.22,109.45,34.22Zm-1.05-6.3a1.74,1.74,0,0,0-1.31.54,2.48,2.48,0,0,0-.49,2c.16,1.56.65,2.57,1.51,3.06a2.82,2.82,0,0,0,1.33.35,1.65,1.65,0,0,0,.75-.16c.79-.4.77-1.44.75-1.93,0-1.23-.25-2.93-1.82-3.55a.19.19,0,0,1-.11-.11l-.06-.14-.15,0A2.23,2.23,0,0,0,108.39,27.93Z"/><path class="cls-4" d="M124,31.87a8,8,0,0,1-2.64-.48,3,3,0,0,1-2-1.91,2.12,2.12,0,0,1,.67-2,6.08,6.08,0,0,1,3.34-1.36l.76-.15h0l.12,0a4.06,4.06,0,0,1,.69-.07,1.34,1.34,0,0,1,1.15.52.18.18,0,0,1,0,.15l0,.17.14.1a2.51,2.51,0,0,1,.83,3.37C126.54,31.58,124,31.87,124,31.87Zm.11-5.56a9.67,9.67,0,0,0-3.12.93,2.36,2.36,0,0,0-1.24,1.7,1.9,1.9,0,0,0,.72,1.64,4.07,4.07,0,0,0,1.88.74,8.05,8.05,0,0,0,1.66.19,2.72,2.72,0,0,0,2.9-1.73,2.26,2.26,0,0,0-.08-1.86,3.87,3.87,0,0,0-2.62-1.6h-.1Z"/><path class="cls-5" d="M49.41,100.24a.13.13,0,0,1-.12,0,.23.23,0,0,1,0-.18l.06-.27h0L75.16,3.23h.45L49.69,99.85h0l-.12.27A.13.13,0,0,1,49.41,100.24Z"/><path class="cls-5" d="M53,100.66,79.59,2.86l.45,0-26.6,97.92Z"/><path class="cls-5" d="M41.67,137.65l.42.09-6.44,28.64-.46.08Z"/><path class="cls-4" d="M93.8,107.31a11.44,11.44,0,0,1-2.15.16H89.59c-2.31.07-4.22.11-6,.11q-1.59,0-3.17,0c-2.09-.06-4.21-.18-6.26-.29-2.82-.16-5.73-.32-8.6-.32-1.2,0-2.3,0-3.38.08a.18.18,0,0,0-.17.21c0,.1,0,.14.14.14h0c1.17-.06,2.38-.09,3.7-.09,3,0,6.14.17,9.12.33s6.07.33,9.1.33H89c1.52,0,3.25,0,4.94-.2A3.3,3.3,0,0,1,93.8,107.31Z"/><path class="cls-4" d="M110.56,93.63h0a9.16,9.16,0,0,1-2.48.6l-.71.1a1.6,1.6,0,0,0-.51.13,3.44,3.44,0,0,0-.76.63,4.55,4.55,0,0,1-.72.63,5.05,5.05,0,0,1-2.28.85l.06.35a5.82,5.82,0,0,0,2.83-1.2,3.44,3.44,0,0,0,.36-.34,2.71,2.71,0,0,1,.61-.52,3.06,3.06,0,0,1,1.15-.24,4.87,4.87,0,0,0,.48-.05,10,10,0,0,0,2.21-.68c.07,0,.07-.06.07-.1A.24.24,0,0,0,110.56,93.63Z"/><path class="cls-4" d="M109.24,74.38q-.42-.5-.87-1l-.18.3c2.18,2.31,3.24,4.36,3.12,6.12A4.47,4.47,0,0,1,109,83.25c-.67.44-1.38.82-2.07,1.18s-1.19.63-1.76,1l-.42.26v-.1l-.16.18a3.21,3.21,0,0,1-.86.57,9.57,9.57,0,0,0-.69,1.6,19.1,19.1,0,0,1,4.41-3.28c.57-.35,1.14-.7,1.71-1.07a4.92,4.92,0,0,0,2.44-3.33C111.89,78.55,111.08,76.58,109.24,74.38Z"/><path class="cls-4" d="M109.59,55.6a5.45,5.45,0,0,1-.37.4,3.14,3.14,0,0,1-.54.4,2.66,2.66,0,0,1,.59,2.39c-.28.74-1.1,1.2-2.46,1.42a12.5,12.5,0,0,1-3.48.58l-.57.08a4.16,4.16,0,0,0-1.56.42,3.06,3.06,0,0,0-1.56,2.55,6.28,6.28,0,0,0-.07.88l.38,0a2.61,2.61,0,0,1,.13-1.46c.72-1.67,2.45-1.9,3.85-2.09l.54-.08a13.82,13.82,0,0,0,3.56-.93,3.39,3.39,0,0,0,2.32-2.72A2.46,2.46,0,0,0,109.59,55.6Z"/><path class="cls-4" d="M120.31,41.86c-.37.09-.73.21-1.12.34l-1,.32-.06-.13a3.59,3.59,0,0,1-.55.17l.08.06-.45.19,0,0-.07.17c-.09.2-.28.2-.57.2h0l0-.57a.23.23,0,0,0-.16.15l0,.22a7,7,0,0,0-1.25-.66,4.59,4.59,0,0,1-.54-.25,7.05,7.05,0,0,0-2.26-.34,6.85,6.85,0,0,0-2.7.5,2.2,2.2,0,0,0-.3.17l-.21.25a4,4,0,0,1-.7.61l-.61.72a3.16,3.16,0,0,1-1.37,1.1l-.08,0h0a1.94,1.94,0,0,1-.7-.24,3.13,3.13,0,0,0-.41-.17h-.38a5,5,0,0,0-1.66.29,4.56,4.56,0,0,0-1.82,1.32l.7.3a2.3,2.3,0,0,1,2.13-1.48,4.86,4.86,0,0,1,2.4.82.18.18,0,0,0,.13,0,.17.17,0,0,0,.15-.08,5.17,5.17,0,0,1,3.12-3,4.05,4.05,0,0,1,2.36-.76l.39,0h.05l3.7,1.86,0,.07a.17.17,0,0,0,.15.09.22.22,0,0,0,.17-.1A4.89,4.89,0,0,1,120.38,42Z"/><path class="cls-4" d="M115.7,53.64h0a16.42,16.42,0,0,1-4.81.95c-.21,0-.4,0-.6,0l0,.07a10.1,10.1,0,0,0,1.31.09,14.1,14.1,0,0,0,4.22-.74.16.16,0,0,0,.12-.2A.16.16,0,0,0,115.7,53.64Z"/><path class="cls-5" d="M157.5,162.2l-.1,0L142.46,154l-.89-.5c-2-1.12-4-2.28-6.5-2.28h-.3c-2.87.11-6.26,1.23-10.34,3.43h-.07a.22.22,0,0,1-.23-.16.14.14,0,0,1,.08-.17c2.83-1.53,7-3.56,10.87-3.56a9,9,0,0,1,3.09.51,36,36,0,0,1,6,3.1c.88.52,1.74,1,2.6,1.52l10.87,6a.14.14,0,0,1,.08.18C157.67,162.11,157.5,162.2,157.5,162.2Z"/><path class="cls-5" d="M143.94,30.69c-.16-1.42-1.58-4.36-3.09-4.64h-.05a4.37,4.37,0,0,1,.38.83,2.2,2.2,0,0,1,.23.1,4.58,4.58,0,0,1,2.14,2.94c.46,2.11-.41,4.82-2.67,8.29,0,.06,0,.1,0,.13a.23.23,0,0,0,.19.11.16.16,0,0,0,.14-.08C142.55,36.24,144.26,33.6,143.94,30.69Z"/><path class="cls-5" d="M123.61,31.48a8.62,8.62,0,0,1-1.24-.17,4.07,4.07,0,0,1-1.88-.74,1.9,1.9,0,0,1-.72-1.64,2.36,2.36,0,0,1,1.24-1.7,9.66,9.66,0,0,1,3.12-.93h.1a7.84,7.84,0,0,1,.9.29,3.81,3.81,0,0,1,.75-.43,1.41,1.41,0,0,0-.88-.26,4.06,4.06,0,0,0-.69.07l-.12,0h0l-.76.15a6.09,6.09,0,0,0-3.34,1.36,2.12,2.12,0,0,0-.67,2,3,3,0,0,0,2,1.91,8.09,8.09,0,0,0,2.38.47A3.74,3.74,0,0,1,123.61,31.48Z"/><polyline class="cls-6" points="80.04 2.84 166.62 2.84 166.62 146.57"/><polyline class="cls-6" points="75.16 3.23 3.54 3.23 3.54 166.46 35.65 166.46"/><line class="cls-6" x1="39.48" y1="166.11" x2="120.44" y2="166.11"/></g><text class="cls-7" transform="translate(24.75 161.67)">MESSINA</text><text class="cls-8" transform="translate(24.75 161.67)">MESSINA</text></g></g></svg>