<svg xmlns="http://www.w3.org/2000/svg" viewBox="0 0 170.16 172.18"><defs><style>.cls-1{opacity:0.4;}.cls-2{fill:#fff;}.cls-3,.cls-5{fill:none;}.cls-4{fill:#1d1d1b;}.cls-5{stroke:#1d1d1b;stroke-width:0.5px;}.cls-5,.cls-7{stroke-miterlimit:10;}.cls-6{fill:#e30613;}.cls-7,.cls-9{font-size:26.4px;fill:#e11f21;font-family:VarelaRound, Varela Round;}.cls-7{stroke:#fff;stroke-width:8px;}.cls-8{letter-spacing:-0.04em;}</style></defs><title>Sito PrestoFood_Risorsa 45</title><g id="Livello_2" data-name="Livello 2"><g id="Livello_1-2" data-name="Livello 1"><g class="cls-1"><rect class="cls-2" x="4.5" y="3.1" width="163.08" height="163.08"/><rect class="cls-3" x="4.5" y="3.33" width="163.08" height="163.08"/><path class="cls-4" d="M146.58,29.44a2.66,2.66,0,0,1-2.14-1.59,12.51,12.51,0,0,1-1-3.55A12,12,0,0,0,142,19.93a10.58,10.58,0,0,0-3.5-3.54,8.15,8.15,0,0,0-3.74-1.2l-.49,0a3.51,3.51,0,0,0-2.77,1,4.37,4.37,0,0,0-.7,3.53l.55,0a1.27,1.27,0,0,1,1.31-.93,3.53,3.53,0,0,1,2.08.84,5.8,5.8,0,0,1,1.7,3,18,18,0,0,0,3.2,5.4.21.21,0,0,1,0,.24.22.22,0,0,1-.16.14l-.14-.12a20.85,20.85,0,0,1-2.74-4.1,11.72,11.72,0,0,1-.46-1.26,12.54,12.54,0,0,0-.47-1.28,4.23,4.23,0,0,0-1.13-1.6,3,3,0,0,0-1.24-.73l-.14,0-1.57,1.17v.14a.15.15,0,0,1,0,.12.21.21,0,0,1-.14.05l-.23-.09-.22.2a.22.22,0,0,1-.16.12,3.2,3.2,0,0,1-.72-3.59,5.29,5.29,0,0,1,4.69-2.55,5.45,5.45,0,0,1,1,.09,9.86,9.86,0,0,1,6,4,13.49,13.49,0,0,1,1.86,3.67,18.1,18.1,0,0,1,.6,2.45,4.43,4.43,0,0,0,.49,1.56l.44.73.08-.85c.08-.87.51-1.3,1.31-1.3h.25a1.72,1.72,0,0,1,1.45,1.29,2.41,2.41,0,0,1-.52,2.46A1.77,1.77,0,0,1,146.58,29.44Z"/><path class="cls-4" d="M155,34.88c-.07,0-.09,0-.1-.1-.11-.7-.19-1.41-.28-2.12a38.59,38.59,0,0,0-.78-4.66A7.51,7.51,0,0,0,151.44,24a7.83,7.83,0,0,0-2.5-1.54,3,3,0,0,0-1.2-.28c-1,0-1.79.64-2.38,1.89l0,.1,0,.1a.14.14,0,0,1,0,.13.24.24,0,0,1-.18.08.17.17,0,0,1-.17-.13,1.77,1.77,0,0,1,.12-1.61,2.72,2.72,0,0,1,2.23-.78,6.31,6.31,0,0,1,2.79.63c3.88,2.15,4.38,6,4.91,10.09.08.63.16,1.26.26,1.88a.2.2,0,0,1,0,.17A.28.28,0,0,1,155,34.88Z"/><path class="cls-4" d="M140,32.54a.17.17,0,0,1-.15-.09A24.53,24.53,0,0,0,133,25.5a.19.19,0,0,1-.08-.23c0-.08.09-.15.15-.15a24.89,24.89,0,0,1,7.14,7.16.12.12,0,0,1,0,.14C140.2,32.49,140,32.54,140,32.54Z"/><path class="cls-4" d="M142.16,40.66a.24.24,0,0,1-.25-.2c-.31-2.4-2.11-4.69-4.16-6.8.68.65,1.31,1.26,1.77,1.78a9.21,9.21,0,0,1,2.77,5.09A.17.17,0,0,1,142.16,40.66Zm-6.82-9.38c-.9-.87-1.75-1.7-2.41-2.46-1.49-1.71-2.23-3.15-1.58-5.47a.18.18,0,0,1,.18-.13.18.18,0,0,1,.18.13l.26,1a.15.15,0,0,1,0,.13.23.23,0,0,1-.15.09l-.24,0v.25C131.71,27,133.43,29.28,135.35,31.28Z"/><path class="cls-4" d="M128.49,65.07a.17.17,0,0,1-.15-.09c-1.66-2.53-1.34-5.42.95-8.6a51.09,51.09,0,0,1,4.88-5.54l.76-.78c1.35-1.37,2.74-2.79,3-4.85.24-1.63-.32-5.36-1.93-6.54a.21.21,0,0,1-.07-.25c0-.08.09-.14.13-.14,2.38,1.72,3,6.64,1.71,9.09a21.47,21.47,0,0,1-4.35,5c-3.75,3.55-8,7.58-4.76,12.5,0,.07,0,.11,0,.14A.25.25,0,0,1,128.49,65.07Z"/><path class="cls-4" d="M137.76,63.62c-.07,0-.1,0-.12-.11-.47-2.56.49-4.29,2.08-6.11l.85-1A22,22,0,0,0,143.92,52c1.45-2.73,1.57-6.53-1.41-8.85-.07-.05-.06-.09,0-.11a.27.27,0,0,1,.24-.16.21.21,0,0,1,.13,0c2.72,2.11,3.43,4.14,2.46,7a18.37,18.37,0,0,1-3.41,5.14c-2.17,2.64-4.42,5.37-3.88,8.26a.19.19,0,0,1,0,.17A.5.5,0,0,1,137.76,63.62Z"/><path class="cls-4" d="M147.79,63.84a.15.15,0,0,1-.08,0,5.55,5.55,0,0,1-2.56-5.05,8.09,8.09,0,0,1,1.39-3.34c.18-.3.36-.6.53-.9.7-1.25,2.87-5.56,1.57-8.47a4.42,4.42,0,0,0-3.3-2.44.13.13,0,0,1-.12-.16c0-.08.07-.2.19-.2a5.08,5.08,0,0,1,4.1,5c.08,1.85-.93,3.86-1.92,5.81-1.67,3.3-3.39,6.71.27,9.39a.21.21,0,0,1,.07.25A.33.33,0,0,1,147.79,63.84Z"/><path class="cls-4" d="M151.82,63.25l-.09,0c-3.14-1.93-2.17-4.15-.94-7a25,25,0,0,0,1.06-2.7c1-3.2,1.77-9-4.06-11.5l-.34-.15a6.18,6.18,0,0,1-3.28-2.38.13.13,0,0,1,0-.15.25.25,0,0,1,.2-.12.16.16,0,0,1,.14.09A6.46,6.46,0,0,0,148,41.75a8.81,8.81,0,0,1,2.46,1.31,7.65,7.65,0,0,1,2.36,4.32,12.08,12.08,0,0,1-.37,5.67,19,19,0,0,1-.93,2.4c-1.16,2.66-2.47,5.67.42,7.45a.16.16,0,0,1,.08.2C152,63.17,151.9,63.25,151.82,63.25Z"/><path class="cls-4" d="M153.28,64.24a.25.25,0,0,1-.19-.12.19.19,0,0,1,0-.2,5.67,5.67,0,0,0,.18-3.25,7.77,7.77,0,0,1-.1-2.12,23,23,0,0,1,.49-2.3,15.87,15.87,0,0,0,.6-3.57c0-1.76.25-3.55.45-5.29a32.71,32.71,0,0,0,.15-9.65.19.19,0,0,1,0-.17.27.27,0,0,1,.2-.09c.07,0,.1,0,.12.11a32.72,32.72,0,0,1-.11,9.48,52.3,52.3,0,0,0-.43,6.15,17,17,0,0,1-.48,3.71,16.82,16.82,0,0,0-.49,4.2c0,.23,0,.44,0,.64a4.08,4.08,0,0,1-.35,2.39A.12.12,0,0,1,153.28,64.24Z"/><path class="cls-4" d="M147.2,35.74s-.09,0-.1-.12a.24.24,0,0,1,.2-.27l.49,0a3.28,3.28,0,0,0,1.45-.24l-.18-.06.43-.35h0s0-.05,0-.18a.93.93,0,0,1,0-.29,1.36,1.36,0,0,1,.52-.76,2.32,2.32,0,0,1,.3-.17c.42-.23.93-.51,1-.93a.64.64,0,0,0-.08-.51.14.14,0,0,1,0-.15.25.25,0,0,1,.2-.12.16.16,0,0,1,.14.09,1,1,0,0,1-.08,1.18,2.08,2.08,0,0,1-.61.5l-.18.11a1.25,1.25,0,0,0-.82,1.23v.1c0,.45,0,.55-.33.66a6.9,6.9,0,0,1-1.58.23l-.78.07Z"/><path class="cls-4" d="M103.86,81.63a.19.19,0,0,1-.13-.05,3.36,3.36,0,0,1-1.19-2.82c0-.09,0-.19.22-.21a4.89,4.89,0,0,1,.59,0,5,5,0,0,1,2.53.71.16.16,0,0,1,.08.19.21.21,0,0,1-.17.16,4.89,4.89,0,0,0-2.47-.68h-.41l0,.3A3.05,3.05,0,0,0,104,81.34c.07.06.06.1,0,.13S103.86,81.63,103.86,81.63Z"/><path class="cls-4" d="M113.11,69.13a5.28,5.28,0,0,0,.72,2.55l.09.13c.12.17.48.7.56.78l-.18-.07-.22.11,0,.23.54-.16a2.07,2.07,0,0,1-.3,1.88,2.56,2.56,0,0,1-2,1A2.32,2.32,0,0,1,110,73.71a3.22,3.22,0,0,1,0-1.2,2.86,2.86,0,0,0,0-1.2,3.81,3.81,0,0,0-3.62-2.62,3.66,3.66,0,0,0-.55,0c-1.23.19-2,.65-2.19,1.39-.63,2.1,2.74,6,4.46,7.56a.18.18,0,0,0,.12.05.25.25,0,0,0,.21-.15s0-.09,0-.15l-.33-.29a11.15,11.15,0,0,1-2.68-3c-.63-.78-.43-1.32-.65-1.67-.37-.58-.79-2.43-.37-2.58,5.43-2.08,5.34,2.33,5.17,3.29l.24.09-.34,1.2a4.49,4.49,0,0,1,.15.62,1,1,0,0,0,.49.79,2.5,2.5,0,0,0,1.5.48c1.62,0,3.55-1.39,4.53-2.69a.22.22,0,0,0,0-.18A11.16,11.16,0,0,1,113.11,69.13Z"/><path class="cls-4" d="M167.78,74.86c0-.42-.07-.83-.09-1.25s0-.68,0-1a7.66,7.66,0,0,0-4.44-3.93,5,5,0,0,0-1.11-.14,1.49,1.49,0,0,0-1.34.56c-.51.76-.32,2.37.54,4.53l.22.56-.57-.18c-1.58-.5-3.55-1.13-3.68-2.57a2.21,2.21,0,0,1,.31-1,2.55,2.55,0,0,0,.34-1.1,3.3,3.3,0,0,0-2.54-2.77,5,5,0,0,0-1.2-.13c-1,0-2.32.24-2.73.91-.59,1,.2,2.05,1.14,3.19l.42.6-.78-.16-.12,0a11.7,11.7,0,0,0-1.44-.11h-.13l-2.63-3.24v-.07a1.1,1.1,0,0,1,.2-.71,1.16,1.16,0,0,0,.21-.73c-.27-1.21-2-1.66-3.1-1.66-1.35,0-3.78.9-4.38,2.23s.92,2.73,2.18,3.75l.57.5h-.8c-4.64.68-3.95-2.83-3.95-2.83s-.22-.67-.27-.93A1.75,1.75,0,0,0,138,66a3.12,3.12,0,0,0-2.25-.84,5.23,5.23,0,0,0-1.56.25,4,4,0,0,0-1.5.76l-.23.21-.19-.24c-2.11-2.68,1.85-8.48,4.4-11.7.47-.59,1-1.15,1.46-1.69,1.43-1.58,2.78-3.07,3.14-5.29.85-5.2-3-10.24-6.11-14.29l-1-1.27a.2.2,0,0,0-.17-.09.26.26,0,0,0-.22.11s0,0,0,.11l.92,1.21c2.14,2.81,4.36,5.72,5.51,9s.86,6.13-.93,8.55a22.1,22.1,0,0,1-1.63,1.89c-.47.5-1,1-1.38,1.57-2.2,2.79-7,9.58-4.13,12.37l.12.12,0,.16a1.94,1.94,0,0,0-.07.58,3.39,3.39,0,0,0,.29.79c.3.68.62,1.39.33,1.84a.77.77,0,0,1-.7.32,3.16,3.16,0,0,1-.92-.17c-.86-.27-1.1-1.19-1.33-2.09s-.41-1.6-1-1.95a2.84,2.84,0,0,0-1.36-.29,5.87,5.87,0,0,0-2.18.44c-1,.43-1.53,1-1.58,1.58-.07,1,1.14,2.38,3.26,3.69l.77.48-.91,0c-.74,0-1.59.07-2.43.07-2.06,0-3.26-.21-3.76-.65a2.43,2.43,0,0,1-.6-2.63,5,5,0,0,0,.12-1.35,3.21,3.21,0,0,0-2.59-3,4.26,4.26,0,0,0-.91-.1,3.22,3.22,0,0,0-2.88,1.77,4.73,4.73,0,0,0-.31.68,2,2,0,0,1,.61-.42l1.28-1.23s4.88-1.06,4.34,3.55a13,13,0,0,1-.29,1.85c-.16.42.23,1.18,1.18,1.36a32,32,0,0,0,6.68.38l1.21,0a.24.24,0,0,0,.19-.19.12.12,0,0,0-.08-.15,15.15,15.15,0,0,1-1.84-1L125,69.8c-2.61-2.83,1.91-3.41,1.91-3.41l.1,0a1,1,0,0,1,.31-.05c.92,0,1.45,1.34,1.76,2.14a3.16,3.16,0,0,0,.16.39,1.72,1.72,0,0,1,.18.48,1.35,1.35,0,0,0,.14.38c.61.93,1.92,1,3.22,1.08.07,0,.15-.06.21-.23l.3-.54.13-.34.06-.22a2.13,2.13,0,0,0-.22-.53,9,9,0,0,0-.67-1.52c-.47-1.06,1.92-1.67,1.92-1.67,1.8-.65,2.78,0,3.34.88a6.4,6.4,0,0,1,.41,1.41s-.05.52-.12.9,0,.64.09,1a2.75,2.75,0,0,1,.19.25c.49.76,1.74,1.16,3.62,1.16a19.07,19.07,0,0,0,1.91-.11.26.26,0,0,0,.21-.17.13.13,0,0,0,0-.15c-.12-.12-.35-.3-.61-.52a7.52,7.52,0,0,1-2-2,2.21,2.21,0,0,1,.31-2.07,3.72,3.72,0,0,1,2.71-1.39c4.21-.35,2.7,2.28,2.7,2.28a1.1,1.1,0,0,0,0,1,11.83,11.83,0,0,0,1.08,1.22s1.52,2.78,3,1.89c.66-.39,1.49.14,2.11.31a.23.23,0,0,0,.19-.13.12.12,0,0,0,0-.14l-.36-.5c-.6-.81-1.56-1.44-1.26-2.76.2-.89.08-.78,1.53-1,3.84-.51,3.14,3.27,3.16,3.48a2.35,2.35,0,0,1-.08,1.11c-.16.24,0,.83.07,1.06.25,1.06,2.26,1.19,3.78,1.58.52.13,1,.25,1.33.37a.12.12,0,0,0,.09-.06.29.29,0,0,0,0-.26c-.14-.3-.36-.72-.36-.72a26.82,26.82,0,0,1-.4-4.16c.15-.64,2.1,0,2.67,0a4.48,4.48,0,0,1,1.2.82c1.82,1.17,2.47,3.07,1.93,5.64V76l0,0a.15.15,0,0,0,0,.14.22.22,0,0,0,.14.13l.4.13A9.72,9.72,0,0,1,167.78,74.86Z"/><path class="cls-4" d="M108.44,90.65a.18.18,0,0,1-.12-.05,13.82,13.82,0,0,1-2.1-2.38c-.05-.07,0-.11,0-.13a.25.25,0,0,1,.21-.11.19.19,0,0,1,.16.09,13.39,13.39,0,0,0,2,2.29c.07.06.06.11,0,.15A.25.25,0,0,1,108.44,90.65Z"/><path class="cls-4" d="M130.7,99l5,2.28c.14.06.64-.15.44-.24l-5-2.28C131,98.66,130.5,98.87,130.7,99Z"/><path class="cls-4" d="M132.53,97.16c.31,0,.42-.4,0-.4S132.15,97.16,132.53,97.16Z"/><path class="cls-4" d="M129,94.31c.16,0,.59-.24.23-.24C129.1,94.07,128.67,94.31,129,94.31Z"/><path class="cls-4" d="M136.33,99,133,94.6c-.16-.21-.68,0-.5.25l3.31,4.37C136,99.43,136.51,99.21,136.33,99Z"/><path class="cls-4" d="M149.2,94.13a4.38,4.38,0,0,0,.29-.56l.06-.16A2.13,2.13,0,0,1,149.2,94.13Z"/><path class="cls-4" d="M148.5,100q2-1.78,4.06-3.44a.47.47,0,0,0,.36-.13l.22-.36c.15-.25-.39-.12-.48-.06q-2.36,1.88-4.61,3.89C147.82,100.14,148.36,100.15,148.5,100Z"/><path class="cls-4" d="M113.47,107.23a.23.23,0,0,1-.19-.14.15.15,0,0,1,0-.18l3.27-3.31a.16.16,0,0,1,.12,0,.33.33,0,0,1,.13,0,21.44,21.44,0,0,0,8.68,1.82c4.27,0,7.93-1.29,10.31-3.63a5.91,5.91,0,0,1,3.28-1.53l.38-.07h0l.18,0c.56-.07,1.19-.11,2-.13H142l-.18-.5.17.44.25-.07h0l0,.06.21.07,1.39,0,.07-.06.1,0,1,0c.15,0,.18.09.18.17a.2.2,0,0,1-.19.21l-1.67.11c-1.12.07-2.27.14-3.39.3a8.81,8.81,0,0,0-5.1,2.46,11.48,11.48,0,0,1-5.44,2.22,23.36,23.36,0,0,1-3.82.3,30.29,30.29,0,0,1-4.09-.28,9.75,9.75,0,0,1-1.6-.45,8,8,0,0,0-2.22-.54h-.13a4.85,4.85,0,0,0-3.42,2.05c-.21.23-.43.48-.67.72A.18.18,0,0,1,113.47,107.23Z"/><path class="cls-4" d="M115.44,108.29a.22.22,0,0,1-.18-.17.15.15,0,0,1,.08-.18q1.32-.76,2.67-1.47h.05c.15,0,.24.06.25.13v.05l-.21.48c-.07.16-.16.18-.23.18a.26.26,0,0,1-.16-.05l-.15-.12-.39.21c-.55.3-1.1.6-1.65.91Zm9.57-.06a19.33,19.33,0,0,1-6.29-1,.17.17,0,0,1-.11-.09l-.11-.21.18-.07a19.94,19.94,0,0,0,6.31,1,23.31,23.31,0,0,0,4.92-.55,32.26,32.26,0,0,0,8.19-2.72l.88-.47-1.27-.08L137,104a.2.2,0,0,1-.2-.21c0-.06,0-.16.19-.17.91-.06,1.83-.1,2.74-.13h.08l.46-.31h.06a.21.21,0,0,1,.19.12l.08.15H141l.1-.16a.11.11,0,0,1,.11-.07l2.54.15h0l.09,0h.32c.14,0,.2.05.2.16a.2.2,0,0,1-.19.22l-.92.18-.1-.09h-.3a24.14,24.14,0,0,1-3.12.24h-.09l-.07,0c-2.75,1.87-6.53,2.86-9.52,3.52A23.62,23.62,0,0,1,125,108.23Z"/><path class="cls-4" d="M166.19,108.92a.21.21,0,0,1-.17-.16.16.16,0,0,1,.08-.19l-.29-.49s-.25-.09-.93-1.27l-.13-.22-.23.1a20.12,20.12,0,0,1-19.22-1.6.18.18,0,0,1-.08-.22c0-.09.09-.16.16-.16a20.28,20.28,0,0,0,11,3.32,19.88,19.88,0,0,0,8.32-1.84l.05,0h0l.52-.23h.06a.24.24,0,0,1,.26.17c0,.05,0,.1-.08.14l-.23.11.09.24a3.45,3.45,0,0,0,1.46,1.77h0s0,0,0,.08a.23.23,0,0,1-.1.17l-.46.27Z"/><path class="cls-4" d="M117.17,130.76a.22.22,0,0,1-.23-.2,40.38,40.38,0,0,1,0-5.8c.29-5.45.58-11.08-4.11-14.49a.21.21,0,0,1-.07-.25c0-.08.09-.14.14-.14,4.86,3.51,4.61,9.18,4.38,14.66a45.23,45.23,0,0,0,0,6.07.13.13,0,0,1,0,.1A.33.33,0,0,1,117.17,130.76Z"/><path class="cls-4" d="M143.4,160.58a.2.2,0,0,1-.16-.1.26.26,0,0,1,0-.22l.07-.16-.11-.13c-.29-.35-.52-.7-.75-1A5.19,5.19,0,0,0,138,156.2c-.76-.09-1.54-.11-2.29-.13a21.61,21.61,0,0,1-2.49-.16,23.34,23.34,0,0,1-10-3.73,16.57,16.57,0,0,1-5-6.9,22.15,22.15,0,0,1-1.27-7.21c-.09-1.34-.18-2.73-.4-4.05a.2.2,0,0,1,0-.17.28.28,0,0,1,.2-.09c.07,0,.1,0,.11.1.21,1.29.32,2.63.42,3.92.24,3.11.48,6.33,2.3,9.13,2.64,4.07,5.37,6.28,9.43,7.64a22.9,22.9,0,0,0,6,.91,29,29,0,0,1,4.49.5,4.24,4.24,0,0,1,3,2.4,12.1,12.1,0,0,0,1.09,1.53l.37.42.12-.55c.37-1.64.77-2.83,2.45-3.29a22.65,22.65,0,0,1,4.54-.59,18.56,18.56,0,0,0,6-1.07c3.54-1.44,6.65-4.45,9.5-9.18a16.29,16.29,0,0,0,2.23-6.34c0-.05.48-5.85-.28-6.72a.47.47,0,0,0-.36-.17h-.12a.24.24,0,0,1-.22-.22c0-.1,0-.12.1-.13l.29,0a.88.88,0,0,1,.65.25c.53.53.52,1.82.51,2.77,0,.21,0,.4,0,.57a19.08,19.08,0,0,1-3.5,11.77c-1.89,2.75-4.57,6.11-8.59,7.79a19.69,19.69,0,0,1-4.49.9c-3.65.48-7.79,1-8.47,4.07,0,.08-.05.11-.12.12h-.21l0,.21s0,.14-.12.14Z"/><path class="cls-4" d="M163.38,145.08a.19.19,0,0,1,0-.38.2.2,0,0,1,.17.19A.17.17,0,0,1,163.38,145.08Z"/><path class="cls-4" d="M132.87,150.88c-.34,0-.37,0-.5-.3v-.09l-.08-.13-1.1-1.16a40.13,40.13,0,0,0-7.55-6.74.17.17,0,0,1-.08-.21.2.2,0,0,1,.16-.16,40,40,0,0,1,7.74,6.85l1.53,1.6a.22.22,0,0,1,0,.23C133,150.85,132.87,150.88,132.87,150.88Z"/><path class="cls-4" d="M136.75,148.91a.25.25,0,0,1-.16-.06l-.08-.07a.2.2,0,0,1,0-.22l.23-.39a.75.75,0,0,1,.28.44c0,.09-.06.2-.21.3Zm-.51-.81c-.71,0-2.33-1.48-3-2.12l-.38-.34c-1.31-1.12-2.59-2.32-3.83-3.47a.13.13,0,0,1,0-.16.24.24,0,0,1,.21-.15.18.18,0,0,1,.12.05l.15.14a75.12,75.12,0,0,0,6,5.17l.38.25a7.11,7.11,0,0,1,.87.61Z"/><path class="cls-4" d="M140.9,146.84a.2.2,0,0,1-.13-.05L136,142.93c-.07-.06-.06-.1,0-.12a.26.26,0,0,1,.23-.16.2.2,0,0,1,.13.05l4.73,3.86c.07.06.06.1,0,.12S140.9,146.84,140.9,146.84Z"/><path class="cls-4" d="M152.5,154.24a.12.12,0,0,1-.11-.07.24.24,0,0,1,0-.22l.14-.27-.27-.12a38.81,38.81,0,0,1-4.84-2.5c-.16-.1-.57-.44-1-.8-1.67-1.38-2.48-2-2.89-2h-.1c-.15,0-.2.08-.83,1.12-.19.31-.37.6-.44.7a11.54,11.54,0,0,1-2,2,12.07,12.07,0,0,1-3.54,1.82h0a.17.17,0,0,1-.17-.14.2.2,0,0,1,.13-.24,11.22,11.22,0,0,0,6.78-6.2.17.17,0,0,1,.15-.07.16.16,0,0,1,.12,0c2.65,3,6,4.67,9.81,6.38a.1.1,0,0,1,.06.12.25.25,0,0,1-.14.21l-.74.23Z"/><path class="cls-4" d="M144.33,155a7.19,7.19,0,0,1-2.85-.54.24.24,0,0,1-.13-.28s0-.13.1-.13a7.49,7.49,0,0,0,2.91.57l.54,0,.6-.11a16.19,16.19,0,0,1,2.32-.35.64.64,0,0,1,.2,0l.33.2a5.47,5.47,0,0,1-2.16.49l-.52.05A10.84,10.84,0,0,1,144.33,155Zm4.08-1.21a.18.18,0,0,1,0-.13s0,0,.08-.08a.3.3,0,0,1,.14,0,.22.22,0,0,1,.18.11.23.23,0,0,1,0,.26,1,1,0,0,1-.2.27Z"/><path class="cls-4" d="M143.46,145.46a.17.17,0,0,1-.17-.19.2.2,0,0,1,.17-.19.17.17,0,0,1,.17.19A.2.2,0,0,1,143.46,145.46Z"/><path class="cls-4" d="M144.92,144.37c-2.21,0-4.79-1.63-6.27-3.15a.16.16,0,0,1,0-.18.23.23,0,0,1,.19-.14.15.15,0,0,1,.11.06,9.13,9.13,0,0,0,4.09,2.6,6.57,6.57,0,0,0,2.07.33h.16l.05,0a4.39,4.39,0,0,0,2.68-2.49,4.22,4.22,0,0,0-.71-3.45l0,0,0,0a.09.09,0,0,1,0-.11.29.29,0,0,1,.22-.19,57.4,57.4,0,0,0,7.16-1h0a.2.2,0,0,1,.23.17.16.16,0,0,1-.13.2l-.65.2-.08,0h-.19c-1.82.35-3.6.61-5.43.79l-.46,0,.25.39a4.22,4.22,0,0,1,.41,3.12,3.84,3.84,0,0,1-1.56,2.44A3.69,3.69,0,0,1,144.92,144.37Z"/><path class="cls-4" d="M149.87,150.49c-.1,0-.15-.11-.15-.17a.17.17,0,0,1,.13-.2,3.34,3.34,0,0,0,2.69-2.9c0-.05.11-.1.18-.1a5.13,5.13,0,0,0,2.67.79,4.44,4.44,0,0,0,3.4-1.55,4.53,4.53,0,0,0,1-3.73.25.25,0,0,1,0-.21.17.17,0,0,1,.14-.06c.43,0,.74.05,1,.05a3.53,3.53,0,0,0,2.88-1,2.83,2.83,0,0,0,.36-2.47l-.05-.23h-.24a.13.13,0,0,1-.15-.1l-.07-.22-5.45.61c-.35,0-.72.05-1.1.07a10.24,10.24,0,0,0-1.84.18,3.91,3.91,0,0,0-2.62,2.09l-.33.49a.19.19,0,0,1-.16.09.25.25,0,0,1-.21-.11s0-.05,0-.13c.29-.42.52-.79.73-1.13.74-1.2,1.08-1.74,2.54-1.74H156a48.08,48.08,0,0,0,6.67-.64c1-.14,2-.29,3-.4h0c.12,0,.14.16.14.17s0,.18-.1.2l-.45.08-.64-.1.29.53a2,2,0,0,1-.12,1.75,3.38,3.38,0,0,1-3.4,2.43,6.69,6.69,0,0,1-.9-.07l-.34,0,0,.34a4.74,4.74,0,0,1-3.67,5.2l-.26,0a9,9,0,0,1-1.56-.23,8.08,8.08,0,0,0-1.38-.21.9.9,0,0,0-.46.1,2.63,2.63,0,0,0-.74.93,3.45,3.45,0,0,1-.68.91,4,4,0,0,1-1.43.63Z"/><path class="cls-4" d="M136.48,140.08a.17.17,0,0,1-.17-.19.2.2,0,0,1,.17-.19.17.17,0,0,1,.17.19A.2.2,0,0,1,136.48,140.08Z"/><path class="cls-4" d="M134.22,140.55a.17.17,0,0,1-.17-.19.2.2,0,0,1,.17-.19.17.17,0,0,1,.17.19A.2.2,0,0,1,134.22,140.55Z"/><path class="cls-4" d="M124.74,141.5s-.12,0-.13-.14,0-.22.19-.24L126,141c.05,0,.13,0,.14.14s0,.22-.19.24Z"/><path class="cls-4" d="M121.05,134.65s-.12,0-.13-.14,0-.22.19-.24c5.82-.45,11.73-.68,17.57-.68q2.06,0,4.12,0c.11,0,.17.06.18.16a.21.21,0,0,1-.2.22l-1.15.1-.08-.09-.22,0-2.74,0c-5.89,0-11.78.23-17.52.67Z"/><path class="cls-4" d="M141.52,130l-.69,0c-2.69-.12-5.66-.42-6.84-2.55a3.34,3.34,0,0,1-.36-.89c-.13-.49-.24-.68-1.1-1a2,2,0,0,0-.75-.12,12.87,12.87,0,0,0-2.67.46c-.37.09-.69.17-.91.2-1.52.25-3,.57-4.28.85h0a.22.22,0,0,1-.23-.2.13.13,0,0,1,.11-.16A80.7,80.7,0,0,1,133.89,125a.27.27,0,0,1,.15.27,2.92,2.92,0,0,0,.63,2.46c1.35,1.58,4.4,1.91,6.72,1.91H142a10.48,10.48,0,0,0,7.44-2.8,31.62,31.62,0,0,0,4.7-6.9c.41-.72.81-1.44,1.21-2.12l0-.07v-.08c0-.13,0-.26.32-.42h.08a.21.21,0,0,1,.2.09.14.14,0,0,1,0,.16l-.23.39.13.16c.35.41,3.35,6.67,3.64,7.61a.13.13,0,0,1,0,.13.23.23,0,0,1-.18.08.17.17,0,0,1-.18-.13,16,16,0,0,0-1.75-3.42,14.5,14.5,0,0,1-1.72-3.41l-.18-.63-.73,1.23C151.44,125.1,148.54,130,141.52,130Z"/><path class="cls-4" d="M164.89,134.85a71.14,71.14,0,0,0-20.68-.13h0a.26.26,0,0,1-.26-.24c0-.08,0-.1.1-.11a75,75,0,0,1,10.31-.74,65.82,65.82,0,0,1,7.83.46,8.43,8.43,0,0,1,.84.15,2.32,2.32,0,0,0,.46.07c.37,0,.58-.21,1-.65l-.41-.39.19-.08.25.17a13.72,13.72,0,0,1,.19-2.54l-.25.16-.24-.14.49-.28c-.54-1-2.08-1.41-4.85-1.41-1.07,0-2.17.07-3.05.12-.65,0-1.2.07-1.6.07-.19,0-.21-.13-.21-.19a.17.17,0,0,1,.17-.19c3.36,0,6.77.16,10.13.44a.27.27,0,0,1,.19.11.13.13,0,0,1,0,.12,7.62,7.62,0,0,0-.35,5,.19.19,0,0,1-.21.23Z"/><path class="cls-4" d="M135.08,119.22a.09.09,0,0,1-.08,0,.26.26,0,0,1,0-.21l0-.11-.05-.1a5,5,0,0,0-.94-1l-.25-.23-3.51-3.67a.16.16,0,0,1,0-.19.23.23,0,0,1,.19-.14.14.14,0,0,1,.11.06l3.09,3.23.52.53c.35.34.7.7,1,1.07s.28.34.27.54a.21.21,0,0,1-.15.2Z"/><path class="cls-4" d="M122.17,114.09c-.11,0-.15-.11-.16-.17a.16.16,0,0,1,.12-.2,5.88,5.88,0,0,0,1.42-.62l.66-.4-.76-.12a5.66,5.66,0,0,0-.94-.08h-.3c-.1,0-.15-.05-.15-.15a.2.2,0,0,1,.19-.22h.33a5.74,5.74,0,0,1,2,.34.27.27,0,0,1,.16.19.11.11,0,0,1,0,.12,6.33,6.33,0,0,1-2.42,1.32Z"/><path class="cls-4" d="M122.74,117a.17.17,0,0,1-.17-.19.2.2,0,0,1,.17-.19.17.17,0,0,1,.17.19A.2.2,0,0,1,122.74,117Z"/><path class="cls-4" d="M125,119.78s-.06,0-.1-.08a3.89,3.89,0,0,0-1.5-1.68.16.16,0,0,1-.08-.2c0-.08.09-.16.17-.16a4.12,4.12,0,0,1,1.71,1.81.19.19,0,0,1,0,.19A.25.25,0,0,1,125,119.78Z"/><path class="cls-4" d="M126.51,122.31a.19.19,0,0,1,0-.38.2.2,0,0,1,.17.19A.17.17,0,0,1,126.51,122.31Z"/><path class="cls-4" d="M125.78,124.65A14.42,14.42,0,0,1,122,124a.16.16,0,0,1-.12-.2c0-.06.05-.18.16-.18l.21.05a12.71,12.71,0,0,0,3.43.64,5.18,5.18,0,0,0,1.39-.18,2.67,2.67,0,0,0,1.74-1.26,1.37,1.37,0,0,0-.18-1.27,3.25,3.25,0,0,0-1.66-1.22h-.18a6.28,6.28,0,0,0-2.17.7,8.79,8.79,0,0,1-1.14.45,18.81,18.81,0,0,1-3.26.52h0c-.05,0-.13,0-.13-.14s0-.22.19-.24a17.66,17.66,0,0,0,6.66-1.88l.11,0a.23.23,0,0,1,.15.06l.66.54c.84.67,1.71,1.37,1.73,2.1a1.59,1.59,0,0,1-.68,1.17A4.45,4.45,0,0,1,125.78,124.65Z"/><path class="cls-4" d="M143,119.16c-.33,0-.79-1-.94-1.31l-.12-.24a15.2,15.2,0,0,0-3.55-4.41c-.07-.06-.06-.1,0-.14a.25.25,0,0,1,.22-.15.19.19,0,0,1,.13.05,15.66,15.66,0,0,1,2.37,2.54,14.77,14.77,0,0,1,1,1.57c0,.05.08.17.14.31a7.77,7.77,0,0,0,.45,1l.11.18.2-.05a.56.56,0,0,1,.34.36s0,.08-.08.17A1.27,1.27,0,0,1,143,119.16Z"/><path class="cls-4" d="M144.63,109.48a.17.17,0,0,1-.17-.19.2.2,0,0,1,.17-.19.17.17,0,0,1,.17.19A.2.2,0,0,1,144.63,109.48Z"/><path class="cls-4" d="M146.47,127a.16.16,0,0,1-.12,0,.17.17,0,0,1,0-.12c.15-5.42.09-10.9-.18-16.31a.14.14,0,0,1,0-.11.19.19,0,0,1,.13,0,.2.2,0,0,1,.21.18c.23,4.61.3,9.38.22,14.18v.41l.39-.14h.08c.12,0,.17,0,.19.06s0,0,0,.1l-.67,1.69A.25.25,0,0,1,146.47,127Z"/><path class="cls-4" d="M149.16,112.5a.17.17,0,0,1-.17-.19.2.2,0,0,1,.17-.19.17.17,0,0,1,.17.19A.2.2,0,0,1,149.16,112.5Z"/><path class="cls-4" d="M149.66,111a.2.2,0,0,1-.17-.19.17.17,0,0,1,.17-.19.2.2,0,0,1,.17.19A.17.17,0,0,1,149.66,111Z"/><path class="cls-4" d="M163.22,127.79c-.08,0-.15-.08-.17-.17a.16.16,0,0,1,.08-.19c.72-.43,1-.77,1-1.15s-.63-.77-1.4-1.12l-.26-.12a.17.17,0,0,1-.06-.12.17.17,0,0,1,0-.14c.21-.17.51-.38.84-.61,1.42-1,2.41-1.74,2.24-2.47-.14-.57-.91-.75-1.48-.83l-.29,0a6.8,6.8,0,0,1-2.68-.76.24.24,0,0,1-.09-.21c0-.08,0-.1.06-.1a27.54,27.54,0,0,0,3.61-1.89l.61-.37-.7-.14c-.48-.1-1-.16-1.47-.22-1.52-.18-3-.35-3.81-1.81a.17.17,0,0,1,0-.17.23.23,0,0,1,.19-.11,4.07,4.07,0,0,0,.9.1,2.3,2.3,0,0,0,1.57-.63c3.86-3.25.54-1.45.26-2.72l-.06-.26-2,.29a17.26,17.26,0,0,0-2.65.93l-.18.08h0a.14.14,0,0,1-.14-.12.24.24,0,0,1,.13-.27,12.29,12.29,0,0,1,4.6-1.18,5.8,5.8,0,0,1,2.78.7c.08,0,.08.17.07.23-.34,1.9-1.64,2.84-4.35,3.15l-.65.07.5.42a6.17,6.17,0,0,0,3.34,1,8.76,8.76,0,0,1,2.13.42.23.23,0,0,1,.16.18.19.19,0,0,1-.1.18,27.14,27.14,0,0,1-3.35,1.92l-.79.38.86.15.9.14c1.45.21,3.25.47,3.52,1.47.19.7-.74,1.46-1,1.7a2,2,0,0,1-.44.24,3.55,3.55,0,0,0-.37.18l-.39.23c-.65.38-.92.54-.92.84s.25.44.75.75l.66.41a.23.23,0,0,1,.1.17.15.15,0,0,1,0,.13,10.11,10.11,0,0,1-1.84,1.4Z"/><path class="cls-4" d="M111.66,132.84a.36.36,0,0,1-.37-.4.43.43,0,0,1,.37-.4.36.36,0,0,1,.37.4A.43.43,0,0,1,111.66,132.84Z"/><path class="cls-4" d="M122.53,91.84a10.42,10.42,0,0,0-6.87-2.25,12.65,12.65,0,0,0-6.47,1.69A7.33,7.33,0,0,0,105.52,96a4.24,4.24,0,0,0,1.2,3.52,7.57,7.57,0,0,0,5.19,2.44,3.49,3.49,0,0,0,2.4-.85l.07-.06h0l.13-.14a3.57,3.57,0,0,0,.46-.59.14.14,0,0,0,0-.15.25.25,0,0,0-.2-.12.16.16,0,0,0-.14.09,3,3,0,0,1-2.54,1.33,9.85,9.85,0,0,1-2.44-.43l-.11,0-.22-.09a5.34,5.34,0,0,1-2.44-2,4.34,4.34,0,0,1-.5-1.89,7.05,7.05,0,0,1,.46-2.83,8,8,0,0,1,5.46-3.8,15.36,15.36,0,0,1,3.44-.39,12.39,12.39,0,0,1,1.87.14,10.57,10.57,0,0,1,1.22.47,10,10,0,0,1,1.4.8l.21-.36c3.26,1.77,4.61,5.21,3.2,8.19l-.28-.12a10.84,10.84,0,0,1-1.33,2.25l-.11.1-.25.22c-.06,0-.05.08-.05.1h0l0,0a.27.27,0,0,0,.22.13.2.2,0,0,0,.13,0,7.37,7.37,0,0,0,2.27-3.1l.09-.24,0-.15A6.1,6.1,0,0,0,122.53,91.84Z"/><path class="cls-4" d="M168.33,105.93s0-.1,0-.15a11.41,11.41,0,0,0-2.66-1.63l-.26-.5a.14.14,0,0,0,.09-.17.22.22,0,0,0-.2-.17h-.08a18,18,0,0,1-8.69,2.16,16.33,16.33,0,0,1-3.8-.43l0-.56h.2a1.29,1.29,0,0,1-.34-.86,5.34,5.34,0,0,0-.11-.61l0-.09a2.67,2.67,0,0,1-.54-.06,2.29,2.29,0,0,1-.61.07,1.89,1.89,0,0,0-.48,0,2.9,2.9,0,0,0-1.32.61l-.16.13-.17-.11a8.83,8.83,0,0,1-2.55-2.37.19.19,0,0,0-.16-.09.25.25,0,0,0-.21.11s0,.05,0,.12c2,2.85,5.74,4.49,10.22,4.49a18.58,18.58,0,0,0,8.19-1.87l.22-.11.14.2a10.65,10.65,0,0,0,3.23,2.41C168.32,106.33,168.32,106.13,168.33,105.93Z"/><path class="cls-4" d="M148,89.45l.17-.08,3.49,3.22h0l2.77,2.91.18,0,.68,3.45v.16a1,1,0,0,1,.6.78c0,.47-.41.93-1.36,1.45a2.41,2.41,0,0,1-1.1,1.4,1.56,1.56,0,0,0,.38-.12,4.06,4.06,0,0,1,1-.26c.63-.1,1.18-.19,1.5-.79a1.2,1.2,0,0,0-.13-1.38,2.05,2.05,0,0,1-.37-1.36,2.13,2.13,0,0,1,.52-1c.34-.44.55-.7.08-1.37a1.5,1.5,0,0,0-.74-.44,1.43,1.43,0,0,1-.81-.52,2.14,2.14,0,0,1-.26-1.13,1.12,1.12,0,0,0-.69-1.17,2.61,2.61,0,0,0-.66-.15,1.56,1.56,0,0,1-.87-.28c-.37-.39-.61-.7-.28-1,.05-.06.13-.13,0-.56-.46-1.39-.87-1.5-2.25-1.86l-.18,0a1.39,1.39,0,0,0-.36.1,1.61,1.61,0,0,1-.51.12.55.55,0,0,1-.23,0,2.42,2.42,0,0,1-.79-.83,2.48,2.48,0,0,0-.44-.54,1.81,1.81,0,0,0-.9-.26,3.24,3.24,0,0,0-.78.13,5.23,5.23,0,0,1-1,.17h-.32a9.39,9.39,0,0,1-1.94-.25,8.77,8.77,0,0,0-1.81-.24,4.89,4.89,0,0,0-1.54.25l-.26.08a3.26,3.26,0,0,1-.86.23.68.68,0,0,1-.38-.13,3.25,3.25,0,0,0-1-.38,4,4,0,0,0-1-.17,1.75,1.75,0,0,0-1.18.45,2.82,2.82,0,0,0-.68.67l-.11.24-.25-.09a.91.91,0,0,0-.26,0h-.29a2.71,2.71,0,0,1-.75-.12,1.83,1.83,0,0,0-.5-.09,1.44,1.44,0,0,0-.44.08,2.16,2.16,0,0,0-1.39,1.32,2.61,2.61,0,0,1,2-.63,9.75,9.75,0,0,1,1.69.17l.14,0,0,.05h0s0,0,0,.05l.1-.21,3.93-.76.06.11.1-.05.08-.09,5.47-.16v.07l0,0,.1-.06,4.5,1Z"/><path class="cls-4" d="M117.16,101.89c-.1,0-.12-.14-.13-.15a.2.2,0,0,1,.13-.24A3,3,0,0,0,119,98.2l-.16-1-.12.28s0-.2,0-.2l0,0a4,4,0,0,0-2.21-1.78,4.68,4.68,0,0,0-1.38-.21,2.27,2.27,0,0,0-1.74.61,1.51,1.51,0,0,0-.28,1.28.19.19,0,0,1,0,.16.27.27,0,0,1-.2.09l0,.46h-.1l.1-.46s-.06,0-.08-.09a2,2,0,0,1,.32-1.64,2.52,2.52,0,0,1,2-.7l0-.42a4.74,4.74,0,0,1,2.08.85,4.05,4.05,0,0,1,1.13.7,3.62,3.62,0,0,1,1.06,3.36,3.24,3.24,0,0,1-2.13,2.44Zm-5.58-4.33a1.55,1.55,0,0,1-.89-.79.74.74,0,0,1,0-.61,1.63,1.63,0,0,1,.57-.6,1.49,1.49,0,0,0-.25,1.37A1.31,1.31,0,0,0,111.58,97.56Z"/><path class="cls-4" d="M126.83,79.88c3.45-.65,7-1.26,10.57-1.84a113.63,113.63,0,0,0-22,4.63A95,95,0,0,1,126.83,79.88Z"/><path class="cls-4" d="M160.16,80.59a31.41,31.41,0,0,1,6.21,2.85c.08,0,.87.63,1.86,1.44,0-.11,0-.23,0-.34A23.8,23.8,0,0,0,160.16,80.59Z"/><path class="cls-4" d="M167.24,80.35c.48.31.94.63,1.41.95l.06-.32a47.64,47.64,0,0,0-26.88-7.86q-1.16,0-2.33,0l-2.1.08c-11.69.42-26.23.94-31.49,12.54a.2.2,0,0,0,0,.2.25.25,0,0,0,.19.12s.06,0,.09-.08c5.37-11.83,20.94-12.2,32.31-12.47l2.34-.06,1.76,0a46,46,0,0,1,16,2.66A44.52,44.52,0,0,1,167.24,80.35Z"/><path class="cls-4" d="M163.67,89.75a6.1,6.1,0,0,1,2.73-.63,7.58,7.58,0,0,1,1.74.23c0-.14,0-.29,0-.43a8.67,8.67,0,0,0-1.72-.2,6.2,6.2,0,0,0-1.22.12l-.09,0h0c-.3,0-.6,0-.9,0a8.41,8.41,0,0,0-1.48.13,5.33,5.33,0,0,0-4.41,3.51,8.46,8.46,0,0,1,3.17-2.25l.31.47a19.94,19.94,0,0,0-3.61,5l-.44-.12c0,.12,0,.24,0,.37l.37.26a.25.25,0,0,0,.14,0,.13.13,0,0,0,.12-.08l.09-.16C159.69,93.63,161.16,91,163.67,89.75Z"/><path class="cls-4" d="M168.89,99.37a16.56,16.56,0,0,1-3.28.67c-.28,0-1,.1-1.82.1h-.28v-.28a6.57,6.57,0,0,1,.72-2.69,1.63,1.63,0,0,0-1.14.76,1.89,1.89,0,0,0,.17,1.75l.26.48-.54-.06c-.77-.08-1.23-.3-1.39-.66l0-.09,0-.1a5.85,5.85,0,0,1,1.72-2.92c1.38-1.29,1.83-1.46,2.09-1.46a.42.42,0,0,1,.36.19c.14.22.09.57-.19,1.2l-.07.16h-.18a.19.19,0,0,0-.18.21.15.15,0,0,0,.16.17h0c.81,0,2.2-.61,2.39-1.27.09-.3-.11-.63-.58-1a1.09,1.09,0,0,0-.64-.17,5.92,5.92,0,0,0-2.78,1.14,6.33,6.33,0,0,0-2.58,4.43.29.29,0,0,0,.09.26,20.78,20.78,0,0,0,2.52.18H164a17.37,17.37,0,0,0,4.87-.68C168.91,99.63,168.9,99.5,168.89,99.37Z"/><path class="cls-4" d="M83.38,132a1.65,1.65,0,0,1-1.53-.74c-1-1.67,1.75-4.21,3.51-5.58l-.26-.5a26.26,26.26,0,0,1-7.57,1.12A26.88,26.88,0,0,1,69.24,125a.27.27,0,0,1-.15-.23.09.09,0,0,1,.06-.11L79.48,120l-1.8.36a44.8,44.8,0,0,1-7.34.61h0a44.66,44.66,0,0,1-14.92-2.58.2.2,0,0,1-.15-.19.19.19,0,0,1,.14-.19,82.26,82.26,0,0,1,10.21-2.82l1.58-.34c-6.6.5-11.16-1.68-15.68-3.68l-.06-.08a.25.25,0,0,1,0-.2c1.78-1.85,4.11-2.29,6.58-2.76.83-.16,3.28-.74,4.11-.88l-1.64-.12a40.32,40.32,0,0,1-14.17-4,.11.11,0,0,1-.06-.08.27.27,0,0,1,.06-.22c1.3-1.53,3.21-1.64,5.23-1.75l1.15-.08,3.18-.44-2-.23a24,24,0,0,1-9-2.72.17.17,0,0,1-.08-.17.19.19,0,0,1,.13-.17c1.17-.32,3.59-1,5.12-1.34L49,95.76a17.11,17.11,0,0,1-2.57-.69c-2.77-1-6.09-2.76-7.1-4.79a1.41,1.41,0,0,1-.14-1.35c.32-.52,1.3-.8,2.84-.82h.75l-.57-.49a27.27,27.27,0,0,1-4.68-6c-.53-.82-1-1.63-1.57-2.39A.16.16,0,0,1,36,79a.18.18,0,0,1,.14-.11l9.59.7V79.3a1.1,1.1,0,0,1,1.1-1.19l1-.13-1.09-.47C37,73.28,27,68.92,18,63c-.48-.31-1-.69-1.45-1.07a15.23,15.23,0,0,0-2.71-1.81,1.7,1.7,0,0,0-1.38-.85,1.86,1.86,0,0,0-1,.33l-.17.11,0,.2A10.8,10.8,0,0,0,12.62,63c1.7,2.87,4.54,5.19,7,7.24,3.49,2.85,7.27,4.59,11.28,6.44l1.42.66c.08,0,.09.08.08.13a.25.25,0,0,1-.22.19l-.43-.18c-8.2-3.81-19.43-9-21-18.6,0-.1,0-.24.1-.26a2.9,2.9,0,0,1,.53,0c1.86,0,3.9,1.66,5.7,3.13a25.57,25.57,0,0,0,2.07,1.58c3.1,2,6.32,3.89,9.55,5.57,4.18,2.18,8.39,4.07,12,5.64l2.29.71C37.25,72,30.16,67.65,25.48,64.48c-1.06-.71-2.22-1.45-3.42-2.21C16.34,58.65,9.22,54.15,7.57,47.72a.2.2,0,0,1,0-.17.18.18,0,0,1,.15-.07,14.29,14.29,0,0,1,6.68,1.92l.32-.46a32.59,32.59,0,0,1-5.26-5.53c-1-1.35-3.53-4.91-1.94-6.49a3.8,3.8,0,0,1,2.4-.64,5.31,5.31,0,0,1,.62,0l.67.08-.41-.53c-2.24-2.92-3.15-5.46-2.65-7.35a2,2,0,0,1,2.07-1.74c2.9,0,7.88,4,10.28,6,.61.49,1.09.88,1.38,1.09L34,42.26l.35-.44a115.65,115.65,0,0,1-21-25.38.16.16,0,0,1,0-.17.22.22,0,0,1,.18-.11c7.8,4.68,17.41,10.48,24.44,18.55l.39.44.11-.58a8,8,0,0,1,.23-.94.22.22,0,0,1,.2-.15.14.14,0,0,1,.11,0c5.28,5.64,10.93,11.21,16.78,16.56l.12.11.15,0H56a.25.25,0,0,1,.17,0c1.39,1.13,4.34,3.24,6.06,4.49l-1.06-1.36a39,39,0,0,1-6.7-10,.23.23,0,0,1,0-.21.22.22,0,0,1,.18-.1q.4,0,.78,0c4,0,6.57,2.66,9.29,5.47C67,50.75,69.32,53.15,72.52,54a.15.15,0,0,1,.12.18c0,.07-.06.19-.17.19a8.44,8.44,0,0,1-.82-.25l-.26.5,4,2.34.36-.43a23.18,23.18,0,0,1-4-6.58c0-.15.14-.19.22-.19,2.61,1.4,5.24,2.93,8.37,4.86l.16.1.15-.12a.2.2,0,0,1,.12,0c8.52,2.6,16.5,5.52,20.9,12.69a.19.19,0,0,1,0,.17,6.61,6.61,0,0,1-1.5,1.53A10.37,10.37,0,0,0,99,70a5.57,5.57,0,0,0-1.55,5.93,28.52,28.52,0,0,0,.84,2.91,32.31,32.31,0,0,0,8.42,12.82.13.13,0,0,1,0,.16.24.24,0,0,1-.2.15.17.17,0,0,1-.12-.05,32.72,32.72,0,0,1-7.66-10.8l-.18-.41c-1.15-2.64-3.06-7.07-1.38-9.55a6,6,0,0,1,1.52-1.34c1.08-.77,2.3-1.64,2.05-3.19-.34-2.11-4.24-4.68-5.9-5.77l-.11-.07a37.19,37.19,0,0,0-7.28-3.57c-.93-.36-1.93-.71-3.14-1.11l-1.29-.42-.24.51.72.45a.17.17,0,0,1,.08.21c0,.09-.1.16-.16.16l-1.15-.69-.78-.48-.7-.44.29.78a12,12,0,0,0,2.1,2.9c.17.13.15.25.14.29a.16.16,0,0,1-.15.12c-.83-.22-1.63-.39-2.43-.53a6.35,6.35,0,0,0-1.87-.51l-.8,0,.61.52a.1.1,0,0,1,0,.11.26.26,0,0,1-.16.18l-.34.12.19.3a5.68,5.68,0,0,0,.53.69A9.21,9.21,0,0,0,81.21,63c.3.29.58.56.8.8a61.73,61.73,0,0,0,7.37,6.64.23.23,0,0,1,0,.18l-.09.13,1.36,3.36.16,0a.13.13,0,0,1,.09.08.21.21,0,0,1,0,.18,16,16,0,0,0-2.41,5.69V80a6.39,6.39,0,0,1,.63-3.14,4.68,4.68,0,0,1,.4-.66c.37-.56.76-1.14.66-1.62,0-.23-.27-.32-.51-.42a1.3,1.3,0,0,1-.32-.16c-.11-.27-.23-.51-.35-.74a5.37,5.37,0,0,1-.57-1.51.87.87,0,0,1,.09-.3.92.92,0,0,0,.11-.59A3.75,3.75,0,0,0,87.05,69c-.19-.14-.38-.28-.55-.43a60.23,60.23,0,0,1-9.37-10.14l-.06-.1-6.54-3.82.55.93a56.32,56.32,0,0,0,17,18.26.19.19,0,0,1,.08.23c0,.08-.09.15-.15.15a23.17,23.17,0,0,0-5.69-2.93,21.14,21.14,0,0,0-2.5-.67,4.94,4.94,0,0,0-1.12-.17c-.41,0-.68.12-.79.36s.12.87.39,1.22c.86,1.52,1.74,2.48,2.58,4l0,0,.36.1a.14.14,0,0,1,.12.14v.14l.11.08A17.75,17.75,0,0,0,87,79.07a.18.18,0,0,1,.12.21.16.16,0,0,1-.16.16c-.22,0-.69-.06-1.32-.12-1.43-.15-3.59-.37-5.16-.37s-2,.24-2.14.5c-.59,1.11,3.68,3.68,3.72,3.7a10,10,0,0,0,3.29,1.13,23.12,23.12,0,0,1,2.58.15.22.22,0,0,1,.2.23c0,.1-.06.15-.18.15h-.47a12.13,12.13,0,0,1-2.65-.29c-.38,0-.71,0-1,0-1.3,0-1.88.16-2,.55-.37,1,.92,1.86,1.86,2.5l.39.27a15.44,15.44,0,0,0,9.19,2.89q.53,0,1.06,0h0a.11.11,0,0,1,.11.06l.07.13-.1.12a.19.19,0,0,1-.14.07c-.54,0-1.13.05-1.73.06a15,15,0,0,0-3.68.35,2.66,2.66,0,0,0-.8-.15.91.91,0,0,0-.72.28,1.12,1.12,0,0,0-.22.87,2,2,0,0,0,1.27,2.38c1.88,1.87,4.63,2.8,8.35,2.8.9,0,1.88-.05,3-.16h0c.11,0,.15.14.15.19s0,.16-.09.17c-2.42.34-8.13,1.26-8.91,2.47a.64.64,0,0,0-.09.55c.08.28.34,1.11,4.48,1.89a14.09,14.09,0,0,0,2.58.24,16.93,16.93,0,0,0,3-.27c.39-.09.77-.17,1.17-.23h0a.25.25,0,0,1,.26.21c0,.08,0,.12-.12.15-.54.13-1.11.23-1.68.31l-.18,0-.25.07c-1.11.13-1.8.49-2.06,1.09s0,1.49.84,2.57l.06.07.09,0a.16.16,0,0,1,.12.2c0,.06-.05.18-.16.18a4,4,0,0,1-2.74-2.07.2.2,0,0,1,0-.21A12.33,12.33,0,0,1,98,103.84l.89-.51h-1A16.35,16.35,0,0,1,89.74,101a.16.16,0,0,1-.09-.14.24.24,0,0,1,.11-.2,15.87,15.87,0,0,1,5-2.24l0-.56c-4.59-.54-7.56-2.66-8.83-6.31a.12.12,0,0,1,0-.11.27.27,0,0,1,.19-.11L89,91.1l0-.56a16.2,16.2,0,0,1-8.4-5.44.28.28,0,0,1,0-.25.12.12,0,0,1,.1-.08c.66-.14,1.35-.25,2.13-.34l1.05-.12-1-.42A11.41,11.41,0,0,1,77.51,79a.2.2,0,0,1,0-.2.16.16,0,0,1,.14-.09l6.49.23.13-.54a13.55,13.55,0,0,1-3-2l-.06,0-.07,0c-.62-.14-1.21-.29-1.8-.45L72.55,74.2c-.43-.11-.88-.25-1.35-.39a16.71,16.71,0,0,0-3-.72l-1.47-.38-.08,0c-1.65-.14-3.07-.07-2.52,1.6l-.1.27.27.1a44.91,44.91,0,0,0,4.43,1.42.15.15,0,0,1,.12.18c0,.07-.06.19-.18.19-1.21-.29-2.36-.6-3.51-.91l-.62-.17.29.57c.71,1.38,2.68,2.51,4.6,3.56a76.25,76.25,0,0,0,7.64,2.76c.74.27,1.29.48,1.58.56a.16.16,0,0,1,.13.2.19.19,0,0,1-.17.17,49.89,49.89,0,0,1-6.71-2l-1.77-.53L69,80.34c-.84-.26-1.71-.54-2.57-.75a10.12,10.12,0,0,0-2.34-.41H64l-.08.06c-1.52.37-3,.35-1.92,2.6a1.73,1.73,0,0,0,1,1c3.3,1.53,5.53,2.68,8.07,3.27l.72.17c.37.09.73.16,1.1.22l.28.05c2.52.15,5,.37,7.31.63a.22.22,0,0,1,.2.23.15.15,0,0,1-.17.14h-.34A38.16,38.16,0,0,1,73.14,87c-1.54-.09-3.09-.16-4.78-.21l-1,0,.8.54a31.39,31.39,0,0,0,12.55,5.07,42.5,42.5,0,0,1,4.48.44l.14,0s.11,0,.1.16,0,.21-.17.21a33.51,33.51,0,0,1-4.63-.46c-.62,0-1.21,0-1.8,0-1.15,0-2.34.05-3.52.15l-.66.06.49.44c1.23,1.1,2.25,1.94,3.19,2.65l0,0,.2.13a17.48,17.48,0,0,0,7,3.3c.48,0,.88-.06,1.28-.06a13.13,13.13,0,0,1,2.44.24c.1,0,.11.05.11.11a.27.27,0,0,1-.21.25,12.18,12.18,0,0,1-1.29.07,12.62,12.62,0,0,1-2.59-.27c-1,.11-1.45.38-1.54.81s.47,1.17,1.88,2a10.71,10.71,0,0,0,4.4,1.37,26.94,26.94,0,0,1,4.17-.37h.28a.2.2,0,0,1,.18.19.15.15,0,0,1-.12.18,13,13,0,0,1-3.16.39q-.47,0-.92,0a10.12,10.12,0,0,0-1,.24c-.55.17-2.35.79-2.69,2a1.68,1.68,0,0,0,.49,1.61,3.7,3.7,0,0,0,2.8.82,21.51,21.51,0,0,0,5.21-.82h0a.24.24,0,0,1,.22.16.1.1,0,0,1,0,.13l-6.69,5.3h1a22.5,22.5,0,0,0,7.83-1.4h0a.16.16,0,0,1,.17.13.21.21,0,0,1-.13.25,22.11,22.11,0,0,1-7.81,1.4q-.74,0-1.51,0a.27.27,0,0,1-.21-.18.09.09,0,0,1,0-.12l.18-.14-.3-.49a4.48,4.48,0,0,1-.78.22,5.89,5.89,0,0,0-1.05.3l-.3,0c-.48,0-.69.27-1,.44-1,.59-2.32,1-2.15,1.94a2.49,2.49,0,0,0,1.83,1.9,11.28,11.28,0,0,0,1.79.25,2.46,2.46,0,0,0,.91-.21A4.43,4.43,0,0,0,88,118c1.88,0,4.33-1,6.12-1.74l.59-.24.47-.19h0a.15.15,0,0,1,.16.12.22.22,0,0,1-.13.26l-.5.2A18.88,18.88,0,0,0,90,120.2c-.81,1-1.26,2,1.17,1.77a1.11,1.11,0,0,0,.59.13,14.51,14.51,0,0,0,3.59-.93l.74-.25h0a.19.19,0,0,1,.2.17.16.16,0,0,1-.12.2l-.81.26a17.83,17.83,0,0,1-5,1.13c-1.09,0-1.74-.32-2-1-.4-1.11.88-2.37,2-3.24l1.36-.85a32.28,32.28,0,0,1-5.66,1c-2,0-3.23-.65-3.79-1.92s-.12-2,.3-2.32l.64-.53-.83,0h-.84a26.61,26.61,0,0,1-11.72-2.73c-.08,0-.07-.16-.07-.17s0-.14.11-.16c1.76-.36,3.62-.69,5.7-1v-.56a16.54,16.54,0,0,1-6.83-2.15l-.08,0h-.09c-3.83.37-7.22.83-10.36,1.43l-.61.11a20,20,0,0,0-2.7.62c-1.15.38-1.69.78-1.72,1.27,0,.67.78,1.14,2.05,1.78a25.2,25.2,0,0,0,11.31,2.21c1.34,0,2.74-.06,4.17-.19s2.62-.35,3.75-.46h0c.11,0,.14.13.15.19s0,.16-.1.18l-.31,0c-1,.15-1.89.26-2.75.33a82,82,0,0,0-14.63,3.37l-.83.27.83.27a44.13,44.13,0,0,0,25.61.44h0a.23.23,0,0,1,.23.19c0,.1,0,.13-.06.14L69.8,124.75l.78.21a26.57,26.57,0,0,0,7,1,26,26,0,0,0,10.92-2.43l.1,0a.22.22,0,0,1,.2.16s0,.11-.09.18a20.46,20.46,0,0,0-3.84,2.86,18.07,18.07,0,0,0-2.3,2.74l-.14.2s-1,2.05,1.74,1.67.08,0,.08,0a1.69,1.69,0,0,0,.37,0c1.75,0,4.81-2.26,6.63-3.61l.73-.53h.07a.15.15,0,0,1,.15.12.2.2,0,0,1-.08.24l-.32.23C90.37,128.81,86,132,83.38,132Zm.38-23.3c.05,0,.11,0,.12.12a.23.23,0,0,1-.2.26c-4,.42-8.08,1-12.17,1.82l-.92.18.86.36a26,26,0,0,0,10.18,2.1,26.9,26.9,0,0,0,6.26-.75H88a.14.14,0,0,1,.14.09.22.22,0,0,1,0,.23l.38.42,6.08-4.82-1,.15a25.1,25.1,0,0,1-3.51.27h0c-2.19,0-3.72-.37-4.42-1.08a1.49,1.49,0,0,1-.44-1.11c0-1,1-1.88,2.94-2.49l.9-.29-.91-.26a12.54,12.54,0,0,1-5.57-3.38.16.16,0,0,1-.05-.16.25.25,0,0,1,.16-.17c.35-.13.7-.24,1-.35l.85-.25-.84-.29a20.12,20.12,0,0,1-5.24-2.88l-.08-.06h-.1c-1.85.06-3.27.08-4.6.08H71.92l-.51,0c-.2,0-.52,0-.88,0-1.64,0-2.94.07-3.34.52a1.75,1.75,0,0,0-.49,1.46,3.8,3.8,0,0,0,1.86,2.31,12.87,12.87,0,0,0,5,1.74c1.67-.05,3.3-.07,4.92-.09,1.24,0,2.48,0,3.71-.06h0a.14.14,0,0,1,.16.14.22.22,0,0,1-.2.24,53.81,53.81,0,0,1-5.46.36,22.3,22.3,0,0,1-2.71-.15h-.71c-3.76.09-5.81.64-6.09,1.62-.17.61.29,1.27,1.43,2l.09.06.43,0c.12.05.13.11.13.17l0,.19.17.09a18.12,18.12,0,0,0,9,2,46.8,46.8,0,0,0,5.38-.36Zm-33.31-7a8.12,8.12,0,0,0-2.83.77l-.46.48.62.48a30.49,30.49,0,0,0,2.9,1.2A38.21,38.21,0,0,0,64,106.91c1.14,0,2.31,0,3.47-.14l.74-.06-.59-.45a13.21,13.21,0,0,1-1.58-1.4.21.21,0,0,1,0-.29c1.13-1.37,2.59-1.75,4.42-1.89l.08-.55-.13,0c-1.88-.73-4.87-2.46-4.86-4,0-.6.39-1.08,1.17-1.46l.89-.43-1-.11c-6.05-.67-10.64-2.4-14.44-5.43,0,0,0-.08,0-.13l0-.32L51.81,90a44.82,44.82,0,0,0-8.34-1.51l-.06,0h-.07l-.56,0a2.48,2.48,0,0,0-2,.69,2,2,0,0,0-.28,1.75c.11.54,1,1.15,2.34,2l.27.17a17,17,0,0,0,9.11,2.6h.47c1.57-.24,2.85-.41,4.07-.54h0a.15.15,0,0,1,.14.15s0,.19-.11.22a19.29,19.29,0,0,1-4.22.57c-2.08.33-4.15.76-6.19,1.28l-.76.19.71.34a28,28,0,0,0,12.29,2.35c2.22,0,4.45-.14,6.55-.28h0c.05,0,.13,0,.14.14a.22.22,0,0,1-.19.24l-9.62.83c-.44,0-.89.06-1.35.08a18.84,18.84,0,0,0-2.8.28S50.57,101.65,50.46,101.65ZM59.93,90q-1.07,0-2.14.06c-.38,0-.8,0-1.22,0-1.41,0-3.38.43-3.44.7-.13.43,1,.82,2,1.54a17.74,17.74,0,0,0,4.52,2A36.78,36.78,0,0,0,69.12,96,28.85,28.85,0,0,1,73,95.75c1.46,0,2.85.07,3.89.13l.88.05-.69-.56c-.88-.71-1.79-1.49-3-2.55a.12.12,0,0,1,0-.14.28.28,0,0,1,.22-.18c.7-.08,1.47-.14,2.41-.19l.07-.55a32,32,0,0,1-10-5.08.26.26,0,0,1-.09-.28s0-.09.15-.09l1.31,0,.55,0,1.33,0c-.65-.21-2.52-1-3.15-1.21L66,84.81a21.88,21.88,0,0,1-3.25-1.41l-.45-.26,0,.52a.24.24,0,0,1-.07.16.22.22,0,0,1-.15.07c-2.46-1.08-4.57-2-6.52-2.69-.41-.15-.88-.37-1.38-.59a12.05,12.05,0,0,0-4-1.3,2.55,2.55,0,0,0-1.28-.44c-.33,0-.41-.39-1-.47-.81,0-1.67.15-1.62,1.44l1.27,2.05.9.84a13.87,13.87,0,0,0,4.13,2.9l.37.2a45.45,45.45,0,0,0,12.69,4.22,45,45,0,0,1,4.58.85c.07,0,.13,0,.12.15a.22.22,0,0,1-.21.2c-1.88-.32-3.38-.6-4.74-.88A41.07,41.07,0,0,0,59.93,90ZM37.09,79.7c-.09.17,0,.3.1.43a9.07,9.07,0,0,1,.63,1,11.7,11.7,0,0,0,1,1.51c.17.23.35.46.51.69a17.16,17.16,0,0,0,4.29,4.77l.06,0h.07a49.89,49.89,0,0,1,8.65,1.68.19.19,0,0,1,.13.17l0,.3.3,0A44.23,44.23,0,0,1,60,89.7h.18l1.79,0c-1.69-.48-4.88-1.52-6.24-2.09-4.89-2-8-4.17-9.47-6.53a4.42,4.42,0,0,1-.42-.88L45.83,80l-.18,0c-.48,0-1.14,0-1.84-.06a27.65,27.65,0,0,0-4.12-.33c-.65,0-1.2-.26-1.57-.12a1.46,1.46,0,0,1-.5.1h-.43Zm2.68-13.14c-.08.28-.42.27-.54.71-.64,2.24.92,4,2.24,5l.51.41c.86.71,1.82,1.43,2.92,2.21a52,52,0,0,0,11,5.83.19.19,0,0,1,.12.13l0,.13.13,0c1.81.7,3.59,1.44,5.28,2.18l.29-.48A2.37,2.37,0,0,1,60.69,81c0-1.42,1.05-2.11,3.21-2.11a16.84,16.84,0,0,1,3,.33l1.21.45a13.91,13.91,0,0,1-4.59-4.44l-.06-.1-.11,0a124.8,124.8,0,0,1-16.76-6.16q-1.55-.7-3.08-1.45c-.36-.17-.64-.35-.86-.47C40.79,66,39.77,66.56,39.77,66.56Zm19.91-4.48c5,5.25,10.75,10.5,17.9,12.91l2.12.62.91.26L80,75.15A14.1,14.1,0,0,1,77.17,70a.22.22,0,0,1,.09-.2l0,0,.51.06a23.12,23.12,0,0,1,5.36,1.3l.28-.48A56.8,56.8,0,0,1,69.84,54.11a.2.2,0,0,1,.09-.27l.45-.25-.46-.25a19,19,0,0,1-4.62-3.8c-.33-.34-.65-.7-1-1.06a18.67,18.67,0,0,0-4.19-3.76c-.56-.33-2.87-1.55-4-1.55a.85.85,0,0,0-.52.14c-.73.53-.15,1.43.2,2,.08.12.15.22.19.31A37.14,37.14,0,0,0,66.79,57.83c2.47,1.59,4.56,2.85,6.6,4,.08,0,.1.09.09.16a.23.23,0,0,1-.21.17h0l-.1,0A39.41,39.41,0,0,1,66.41,58c-3.24-2.1-6.38-4.35-9.35-6.7l-.17-.14-.18.14-.06,0-.23.09.05.24c1.29,6.05,6.48,9.71,10.27,11.93A73.33,73.33,0,0,1,77.6,69.11a.16.16,0,0,1,.09.11.22.22,0,0,1-.06.16l-.1.11-.31-.16c-1.11-.57-2.27-1.14-3.47-1.72-2.27-1.11-4.62-2.25-6.87-3.55A72.12,72.12,0,0,0,60,61.64l-.83-.25Zm-17.93-1.4.5.27,1.17.62c.1,0,.09.1.09.12a.25.25,0,0,1-.18.19L42.7,62l.53.36,1,.63c.33.21.62.39.83.54,5.12,3.67,11.14,7.81,17.78,10.56l.37.15,0-.4a1.65,1.65,0,0,1,0-.27c.2-.94,1-1.39,2.32-1.39l.6,0a32,32,0,0,1,4.83.86l2.13.53c-5-2.79-11.2-7.7-14.56-12.49a.11.11,0,0,1,0-.13.24.24,0,0,1,.19-.13c1.37.37,2.74.8,4.24,1.32l1.69.6c-5.79-3.6-8-7.74-8.68-11.85l0-.1-.07-.07c-3.51-3.19-6.61-6.13-9.5-9-1.44-1.43-2.92-2.93-4.38-4.45l-.47-.53c-1.66-1.9-1.89-2.07-2.12-2.07a.93.93,0,0,0-.76.66l-.05.15.29.35c.23.27.45.54.67.82a.22.22,0,0,1,0,.24.22.22,0,0,1-.16.13l-.2-.21-.76-1,.15,1c.06.43.15.81.2,1a20.37,20.37,0,0,0,5,8.89l12.37,9.6a.09.09,0,0,1,0,.12.26.26,0,0,1-.22.17A53.27,53.27,0,0,1,44.12,47.6l-.54-.43-4.82-3.74.22.81q.19.7.41,1.38l0,.08.07.05c1.71,1.39,3.48,2.74,5.27,4l3.59,2.51a.2.2,0,0,1,.08.24c0,.08-.09.14-.14.14-1.19-.77-2.34-1.57-3.71-2.56l-4.8-3.35.36.89A29.69,29.69,0,0,0,50.81,61c3.27,1.61,6.57,3.09,9.84,4.42a.22.22,0,0,1,.14.25.15.15,0,0,1-.15.13,29.76,29.76,0,0,1-9.92-4.4l-.51-.25-.95-.46c-.67-.34-1.37-.77-2.12-1.22a18.17,18.17,0,0,0-4-2l-1.58-.91ZM9.5,48.08a1,1,0,0,0-.91.42c-.24.42-.11,1.05.43,2a16.74,16.74,0,0,0,3.84,4.4c9.43,8.15,20.48,14.57,29,19.26l1.76.7c-2.61-2-5.44-4.93-5.55-6.42a2.57,2.57,0,0,1,.8-2l.24-.25L38,65.41c-4.06-2.56-8.25-5.2-12.25-8L23.2,55.77,20.51,54c-2.24-1.49-4.56-3-6.93-4.39A10.92,10.92,0,0,0,9.5,48.08ZM40.85,65.66a7,7,0,0,1,2.46,1.17c.41.25.79.49,1.09.64,2,1,4.08,1.89,6.13,2.74,2.45,1,5,2,7.92,2.93l2.36.63a126.23,126.23,0,0,1-13.24-7.94c-.39-.27-.86-.58-1.37-.91a23.68,23.68,0,0,1-5-4l0,0-.05,0a68.35,68.35,0,0,1-15-10.32c-1.73-1.41-3.47-2.92-5.19-4.48l-.44-.4a102.16,102.16,0,0,1-8-7.84,4.26,4.26,0,0,0-2.36-1c-1.2,0-1.9.42-2.16,1.13-.94,2.54,4.71,8.47,5.86,9.53a108.69,108.69,0,0,0,9.6,7.82c.53.39,1.07.76,1.61,1.13l.72.5q6.81,4.43,13.62,8.83l.13.08.14-.06a2.25,2.25,0,0,1,1-.18ZM11.47,28c-.68,0-2.32.1-2.93,1s.86,3.9,1,4.23a19.14,19.14,0,0,0,2.95,4.12c.44.4.85.84,1.23,1.24s.69.73,1,1c1.46,1.32,2.89,2.66,4.33,4l1,1c2.17,2,4.51,4.19,6.89,6.22a98.4,98.4,0,0,0,12.68,8.71l.66.38-.25-.71a3.37,3.37,0,0,1,.74-3.39.15.15,0,0,1,.1,0,.22.22,0,0,1,.1,0c1.7,1,3.57,2,5.73,3.17l.33-.46a30.22,30.22,0,0,1-7.82-12l0-.09L18.14,31.66c-.45-.32-.93-.71-1.45-1.12a13.29,13.29,0,0,0-3.42-2.27A5.69,5.69,0,0,0,11.47,28Zm61.2,23.14a22.38,22.38,0,0,0,5.2,7l.07.06H78a34.17,34.17,0,0,1,3.5.49l.79.15-.52-.61a5.17,5.17,0,0,1-1.2-2.9l0-.14-.12-.07c-2.58-1.6-5-3-7.42-4.36l-.77-.43Zm-58-33.22A115.47,115.47,0,0,0,38.17,44.71l.69.58-.3-1.1c-.1-.38-.21-.76-.29-1.15a.19.19,0,0,1,0-.17.19.19,0,0,1,.15-.06.26.26,0,0,1,.16.06l2.54,2,.4-.39c-2.29-3.21-3.38-6-3.3-8.62v-.11l-.07-.08C31.73,28,23.22,22.51,15,17.54Zm84,76.48c-1.87-.67-3.79-1.52-3.81-3.25v-.22l.05-.29a2.11,2.11,0,0,1,.32-.8l.26-.38-.46-.06a4.24,4.24,0,0,1-3.61-2.17,3.11,3.11,0,0,1,.29-3.4l.31-.38-.48-.07a3.73,3.73,0,0,1-1-.28,5.14,5.14,0,0,0,.74.05,8.52,8.52,0,0,0,1.28-.11h0a.24.24,0,0,1,.25.15c0,.07,0,.13-.09.19-1.21.76-1.32,1.58-1.2,2.14.38,1.77,3.61,3.31,5.18,3.53l.38,0h.17a.11.11,0,0,1,.1.13.25.25,0,0,1-.2.24h-.16l-.21.15c-.69,1.38-.83,2.43-.41,3.2A2.78,2.78,0,0,0,98.75,94c.09,0,.07.19.07.23S98.79,94.42,98.7,94.42Z"/><path class="cls-4" d="M99.19,167.48c-.13,0-.16-.09-.16-.17a.18.18,0,0,1,.18-.2,14.42,14.42,0,0,0,4-.64s3.8-1.27,4.16-2.62a.85.85,0,0,0-.22-.82.17.17,0,0,1,0-.2.23.23,0,0,1,.18-.14.13.13,0,0,1,.1.06,1.31,1.31,0,0,1,.41,1.45c-.85,2-7.09,3.26-8.65,3.3Z"/><path class="cls-4" d="M112.21,153.33a.23.23,0,0,1-.19-.15.15.15,0,0,1,0-.18c1.19-1.2,1.64-2.39,1.34-3.51-.65-2.42-4.48-3.65-5.63-4a.15.15,0,0,1-.12-.12.26.26,0,0,1,.1-.25,9.78,9.78,0,0,0,3.93-6.76c0-.08,0-.1.1-.1a.28.28,0,0,1,.2.09.21.21,0,0,1,0,.17,10,10,0,0,1-3.42,6.35l-.37.33.48.15c2.66.85,4.46,2.05,5.2,3.47.88,1.68-.35,3.15-1.58,4.4A.17.17,0,0,1,112.21,153.33Z"/><path class="cls-4" d="M155.13,164.63l.41.08.41,0a10.88,10.88,0,0,0,1.24.07h0a14.16,14.16,0,0,0,5.2-1c2.6-1.07,6.64-3.66,4.52-8.89a.21.21,0,0,0-.21-.14.23.23,0,0,0-.18.07s0,0,0,.1a5.77,5.77,0,0,1,0,4.73,8.32,8.32,0,0,1-5.06,4.06,13.91,13.91,0,0,1-3.57.7h-.47a11.47,11.47,0,0,1-5.09-1.49l-.84-.39A6.05,6.05,0,0,0,155.13,164.63Z"/><path class="cls-4" d="M151.25,162.21l-.2-.32a.2.2,0,0,1,0-.23l.13-.13a.15.15,0,0,1,.12,0,.36.36,0,0,1,.14,0l.14.06c.08,0,.08.07.07.12a.26.26,0,0,1-.23.2Z"/><path class="cls-4" d="M129.63,167a4.08,4.08,0,0,1-1.41-.18c-1.65-.68-1.85-1.76-2.1-3.12a9.57,9.57,0,0,0-.56-2.07c-.77-1.82-2.37-2.43-3.94-2.91-.22-.07-.51-.18-.83-.31a7,7,0,0,0-2.15-.64h-.12a7.4,7.4,0,0,0-3.08,1.55,11.87,11.87,0,0,1-1.57,1h-.06a.24.24,0,0,1-.26-.17c0-.05,0-.09.08-.13a9,9,0,0,0,1.82-1.32,5.36,5.36,0,0,1,2.49-1.5h.13c1.3,0,3.87,1.08,5.11,1.6a4.71,4.71,0,0,1,2.38,1.86,3.79,3.79,0,0,1,.44,1.45,7,7,0,0,0,.21,1c.14,1.84,1.45,3.09,3.89,3.66l.44,0a3.53,3.53,0,0,0,3-1.75l.15-.23-.22-.16a.21.21,0,0,1-.07-.25c0-.08.09-.14.14-.14.52.35,1,.82.87,1.24C134.14,166.37,131.66,167,129.63,167Z"/><path class="cls-4" d="M143.63,167a2,2,0,0,1-.53-.07c-1-.29-1.36-1.37-1-3.19,0-.08,0-.11.12-.11a.27.27,0,0,1,.19.09.19.19,0,0,1,0,.16,2.8,2.8,0,0,0,.23,2.27,1.16,1.16,0,0,0,.95.41,2.26,2.26,0,0,0,.49-.06,2.21,2.21,0,0,0,2-1.83,2,2,0,0,0-.44-1.63,2.29,2.29,0,0,0-1.74-.73,2.73,2.73,0,0,0-1.61.52h-.07a.15.15,0,0,1-.15-.12.21.21,0,0,1,.07-.25,2.84,2.84,0,0,1,4,.64,2.28,2.28,0,0,1,.16,2.24A3.09,3.09,0,0,1,143.63,167Z"/><path class="cls-4" d="M96,155a9.29,9.29,0,0,0,.55,2.3,5.48,5.48,0,0,1,.08,4.34,7.48,7.48,0,0,1-3.21,3.63h.09l-.91.47a18.79,18.79,0,0,1-2.4,1l.94,0a14.36,14.36,0,0,1,2.87.42,27.91,27.91,0,0,0,7.52-2.41c.07,0,.09-.07.08-.14a.23.23,0,0,0-.25-.17h-.06A27.8,27.8,0,0,1,97.6,166l-.15-.56a7.64,7.64,0,0,0,.74-.46c1.89-1.39,2.82-3.6,3.73-5.73.28-.66.55-1.31.86-1.94a.19.19,0,0,0,0-.19.26.26,0,0,0-.19-.12s-.06,0-.1.08c-.29.6-.56,1.24-.82,1.87a21.92,21.92,0,0,1-1.78,3.62l-.1.09-.1,0-3,1.51a.12.12,0,0,0-.08.15.22.22,0,0,0,.24.16h.06l.87-.44.3.48a11.66,11.66,0,0,1-4.85,2L93,166a8.49,8.49,0,0,0,4.29-4,6,6,0,0,0,.18-3.71c-.12-.55-.24-1-.33-1.28-.35-1.18-.39-1.5.56-3.57a7,7,0,0,1,2.65-3.46l.15-.12c.07-.06.06-.1,0-.12a.26.26,0,0,0-.23-.16.2.2,0,0,0-.13,0c-.39.32-.81.62-1.22.91C97.3,151.78,95.86,152.81,96,155Z"/><path class="cls-4" d="M92.52,165.22h.23l-.1-.12a8.91,8.91,0,0,0,1.9-7.22c-.07-.7-.21-1.4-.34-2.09a17.84,17.84,0,0,1-.4-3.16c0-4,2.57-5.85,5.71-7.72a.16.16,0,0,0,.08-.19.19.19,0,0,0-.2-.14h-.07c-2.73,1.62-5.23,3.32-5.8,6.28a15,15,0,0,0,.25,5.39c.48,2.81,1,5.71-1.4,8.59a.2.2,0,0,0,0,.22A.23.23,0,0,0,92.52,165.22Z"/><path class="cls-4" d="M100.46,141a2.83,2.83,0,0,0,.41,2.73,12.86,12.86,0,0,0,3.41,1.54l-.22.12,0,.26.53-.21c.08.21,0,.51-.35,1.36a3.67,3.67,0,0,1,1.23-1.34.18.18,0,0,0,0-.17c0-.05-.05-.11-.08-.12a9.47,9.47,0,0,1-1.48-.25,3.21,3.21,0,0,1-2.4-1.47c-.53-1-.45-2.34.25-4.12A3,3,0,0,0,100.46,141Z"/><path class="cls-4" d="M105.29,153.09a13.16,13.16,0,0,0,2.54,2.51l.05,0-.19-.33a5.8,5.8,0,0,0-1.36-1.62,3.17,3.17,0,0,1-1.49-1.84l-.16-.64.58.33a2.88,2.88,0,0,0,1.43.4,2.55,2.55,0,0,0,2.49-2.56.2.2,0,0,0-.13-.16,8.91,8.91,0,0,0-2-.24,4.47,4.47,0,0,0-2,.41l-.21.11-.15-.18c-.7.33-.73-1.29-.65-1.91a1.92,1.92,0,0,1,.07-.29,5.23,5.23,0,0,0-.5,1.92,3.92,3.92,0,0,0,.55,1.43l0,.08v.09A4,4,0,0,0,105.29,153.09Z"/><path class="cls-4" d="M111.76,160.66a.51.51,0,0,0,.39-.14,1.43,1.43,0,0,0,.22-1c0-.08-.07-.18-.11-.19a3.45,3.45,0,0,0-.55,0,2.78,2.78,0,0,0-1.5.42l-.25.16-.2.22a2.59,2.59,0,0,0-.24,3,6.61,6.61,0,0,0,2.81,2.19l.21.1-.05.22a3.22,3.22,0,0,0,0,1.41l.08.36-.61,0,.21.35a.15.15,0,0,0-.08.19.19.19,0,0,0,.2.14h.06l.39-.22.14.25c.06.1.12.19.18.28l.44-.11a3.87,3.87,0,0,1-.44-2.27l0-.35.34.1a4.78,4.78,0,0,0,1.36.23,1.62,1.62,0,0,0,1.45-.65.85.85,0,0,0,.16-.88,1.89,1.89,0,0,0-1.6-.64,2.14,2.14,0,0,0-.67.09,2.64,2.64,0,0,0-.92.53l-.24.21-.18-.26a3,3,0,0,1-3.2-2.71L110,160l.86.42A2.12,2.12,0,0,0,111.76,160.66Z"/><path class="cls-4" d="M104.88,140.65a4.28,4.28,0,0,0,2-.53.15.15,0,0,0,.08-.14.2.2,0,0,0-.09-.18,6.66,6.66,0,0,0-3.24-.94,4,4,0,0,0-1.21.18l-.2.06.09.13A3.13,3.13,0,0,0,104.88,140.65Z"/><path class="cls-4" d="M109.74,159.65l.22.18-.14-.24c-.59-1.05-1.07-1.94-1.51-2.85,0-.07,0-.14-.07-.21l-.06-.16-.19-.57,0,.12a2.6,2.6,0,0,0-.08,1.59A6.57,6.57,0,0,0,109.74,159.65Z"/><path class="cls-4" d="M100.88,129.8l.32.17-.24.27a2.69,2.69,0,0,0-.45,2.57,2.46,2.46,0,0,0,1.93,1.68l.53.11-.39.38a3.28,3.28,0,0,0-.58,3.79l0-.1c-.23-3.73,2.43-4.21,2.43-4.21l.13-.12.1,0,.18-.13-.2-.16a.15.15,0,0,0-.11,0h0l-.25.06s-3.53-.12-3.4-2.56c.33-1.5,2.06-1.18,2.06-1.18l.35,0,.21,0c.08,0,.1-.06.11-.11a.27.27,0,0,0-.15-.26l-.22-.07s1,.07-.22-.07c-3.27.46-3.9-4.66.28-2.48a.52.52,0,0,1,.42.49.11.11,0,0,0,.09,0,.22.22,0,0,0,.22-.19c0-.42,0-.83,0-1.25s0-.72,0-1.08V125c0-.35,0-.7,0-1,0,0,0-.65,0-1.32v-.25l.25,0a3.71,3.71,0,0,0,1.9-.83.18.18,0,0,0,0-.15.17.17,0,0,0-.08-.13,2.26,2.26,0,0,0-1-.32.94.94,0,0,0-.75.36l-.3.32-.18-.41a.18.18,0,0,0,.14.06l.09,0-.45-.34c0-.06,0-.09,0-.11a.26.26,0,0,0-.22-.11.2.2,0,0,0-.17.09c-.42.56-.59,1-.47,1.27s.5.33.73.35l.3,0-.05.3a19.18,19.18,0,0,0-.11,3.82l0,.55-.46-.3a3.17,3.17,0,0,0-1.67-.55,1.62,1.62,0,0,0-1.58,1.13A1.85,1.85,0,0,0,100.88,129.8Z"/><path class="cls-4" d="M102.8,119.44a.2.2,0,0,0,.13-.05,11.66,11.66,0,0,1,1.34-1l.25-.15.15.25c.19.31.38.61.58.89a.19.19,0,0,0,.16.09.25.25,0,0,0,.21-.11s0-.05,0-.12a9.26,9.26,0,0,1-.55-.89l-.16-.29.31-.11a2.73,2.73,0,0,1,.94-.18c1,0,1.86.63,2.79,2,1,1.59,1.94,4.81.91,6.71a3.79,3.79,0,0,1-1.12,1.08,6.27,6.27,0,0,0-.55.43,8.52,8.52,0,0,0-3,5.76V134l0,.47v.17c0,.07,0,.14,0,.22.25,2.14,1.31,3.31,3,3.31a6.06,6.06,0,0,0,4.15-2.09.17.17,0,0,0,0-.2.23.23,0,0,0-.18-.14h-.07a1.86,1.86,0,0,1-1.59,1.07c-.65,0-2.7,1-3.58.42s-.92-1.93-1.34-2.6a2.75,2.75,0,0,1,.24-2.65,11.48,11.48,0,0,1,2.59-3.73c.25-.25.52-.49.79-.73a5.22,5.22,0,0,0,1.89-2.5c.61-2.3-1.21-4.76-2.67-6.73-.35-.47-.68-.92-1-1.34a.22.22,0,0,0-.21-.1h0a10.4,10.4,0,0,0-2.22.73l-.28.13-.1-.29a2.48,2.48,0,0,1,0-2,2.27,2.27,0,0,1,1.55-1,9.22,9.22,0,0,1,1-.17l.7-.11a9.74,9.74,0,0,0,1-.27l.25-.08a1.17,1.17,0,0,1,.58-.18c.27,0,.63.13.84.75l.06.18-.14.12c-.07.06-.06.1,0,.14a.25.25,0,0,0,.21.15.18.18,0,0,0,.13-.05.8.8,0,0,0,.26-.76,1.11,1.11,0,0,0-.69-.82,1.16,1.16,0,0,0-.42-.07,3.24,3.24,0,0,0-.81.14,23.26,23.26,0,0,1-2.4.55,3.06,3.06,0,0,0-2.6,1.52,2.85,2.85,0,0,0,.16,2.3l.1.23-.21.13a11.39,11.39,0,0,0-1.54,1.07c-.07.06-.06.09,0,.13A.26.26,0,0,0,102.8,119.44Z"/><rect class="cls-2" x="166.45" y="67.77" width="3.16" height="101.92"/><rect class="cls-2" x="116.9" y="116.36" width="3.16" height="101.92" transform="translate(285.81 48.84) rotate(90)"/><polyline class="cls-5" points="94.14 165.75 3.99 165.75 3.99 3.57 166.17 3.57 166.17 71.39"/><path class="cls-2" d="M113.09,165.58a1.93,1.93,0,0,1,1.47-1.45c1.21-.22,1.25.43,1.29,1s-.75,1.42-.75,1.42Z"/><path class="cls-2" d="M104.1,148.91a2.91,2.91,0,0,0,1.12,1.83c.88.47,1.17.88,2,.43s1.39-1,1.42-1.54-2.62-.29-3.12,0-.42.51-.42.51l-.5-1.23Z"/><path class="cls-2" d="M101.94,139.89a5.22,5.22,0,0,1,1.64-.58c.61,0,2.49.43,2.36.58a3.4,3.4,0,0,1-2,.28,4.12,4.12,0,0,0-1.75.19Z"/></g><path class="cls-6" d="M169.16,1V169.16H1V1H169.16m1-1H0V170.16H170.16V0Z"/><text class="cls-7" transform="translate(18.74 160.63)"><tspan class="cls-8">P</tspan><tspan x="16.5" y="0">ALERMO</tspan></text><text class="cls-9" transform="translate(18.74 160.63)"><tspan class="cls-8">P</tspan><tspan x="16.5" y="0">ALERMO</tspan></text></g></g></svg>