<svg xmlns="http://www.w3.org/2000/svg" viewBox="0 0 170.16 171.72"><defs><style>.cls-1{opacity:0.4;}.cls-2{fill:#010101;}.cls-3{opacity:0.5;}.cls-4,.cls-6{fill:none;stroke-width:0.5px;}.cls-4{stroke:#1d1d1b;}.cls-4,.cls-6,.cls-7{stroke-miterlimit:10;}.cls-5{fill:#e30613;}.cls-6{stroke:#878787;}.cls-11,.cls-7{font-size:20px;fill:#e11f21;font-family:VarelaRound, Varela Round;}.cls-7{stroke:#fff;stroke-width:5px;}.cls-8{letter-spacing:-0.01em;}.cls-9{letter-spacing:0em;}.cls-10{font-size:26.4px;}</style></defs><title>Sito PrestoFood_Risorsa 46</title><g id="Livello_2" data-name="Livello 2"><g id="Livello_1-2" data-name="Livello 1"><g class="cls-1"><path class="cls-2" d="M94.43,71.53,94,71.4c0-.1,3-10.2,0-14.89l.4-.25C97.53,61.12,94.56,71.11,94.43,71.53Z"/><path class="cls-2" d="M84,60a.34.34,0,0,1-.26-.12.91.91,0,0,1-.15-.56,3.18,3.18,0,0,0-.16-.89c-.41-1.15.7-1.83,2.91-3.18l.07,0c2.32-1.41,6.58-1.64,7.92.05.37.47.46.85.28,1.14-.47.75-2.69.3-3.13.2h0a12.79,12.79,0,0,0-3.24,0,3.94,3.94,0,0,0-3,2.23,3.25,3.25,0,0,1-.8,1A1,1,0,0,1,84,60ZM91,54.53a8.64,8.64,0,0,0-4.24,1.08l-.07,0c-2.23,1.36-3,1.87-2.72,2.62a3.63,3.63,0,0,1,.19,1c0,.07,0,.15,0,.21l.15-.09a3.14,3.14,0,0,0,.66-.83,4.38,4.38,0,0,1,3.32-2.44,12.88,12.88,0,0,1,3.38,0c1.27.28,2.45.28,2.63,0,.06-.1,0-.33-.25-.6A4,4,0,0,0,91,54.53Z"/><path class="cls-2" d="M89.31,85.42l-.47-.07c.15-1-1.71-5.63-3.09-8s-.5-7.83-.23-9.66l.05-.37c.38-2.86-.08-3.44-.39-3.53-1.09-.31-1.71-3-1.78-3.26l.46-.1c.23,1,.83,2.73,1.45,2.91,1.1.31.94,2.46.73,4l-.05.37c-.71,4.81-.65,8,.17,9.35C87.48,79.38,89.5,84.18,89.31,85.42Z"/><g class="cls-3"><path class="cls-2" d="M88.87,66.38A9.14,9.14,0,0,1,86.29,66l.13-.45a8.28,8.28,0,0,0,8.08-1.89l-.14-.09c-1.33-.86-5.39-3.5-8.16.18l-.38-.28c2-2.67,4.79-3.63,8.79-.29a1.77,1.77,0,0,0,.31.19h.48l-.34.39A8.84,8.84,0,0,1,88.87,66.38Z"/></g><path class="cls-2" d="M89.39,66.39A2.42,2.42,0,1,1,91.82,64,2.43,2.43,0,0,1,89.39,66.39Zm0-4.37a1.95,1.95,0,1,0,2,1.95A2,2,0,0,0,89.39,62Z"/><path class="cls-2" d="M110.15,62a2.42,2.42,0,1,1,2.43-2.42A2.43,2.43,0,0,1,110.15,62Zm0-4.37a1.95,1.95,0,1,0,2,1.95A2,2,0,0,0,110.15,57.62Z"/><path class="cls-2" d="M101.84,55a1.46,1.46,0,0,1-1.12-.36.89.89,0,0,1-.05-1h0c1-2.09,4.62-2.58,6.8-2.87s7.78-.12,11.28,2.14l1.22.79-1.41-.36c-7-1.81-10.12-.5-12.59.56-.57.24-1.1.47-1.64.64A9,9,0,0,1,101.84,55Zm-.74-1.19c-.08.16-.14.39,0,.53s1.19.35,3.11-.27c.52-.17,1-.39,1.6-.63,2.31-1,5.13-2.19,11-1a21.49,21.49,0,0,0-9.29-1.21c-1.95.26-5.57.74-6.44,2.6Z"/><g class="cls-3"><path class="cls-2" d="M111.46,62.34a54.31,54.31,0,0,1-8.66-1.1l-.28-.06.11-.26c.07-.17,1.8-4.58,8.08-4.67s8,4,8.12,4.16l.15.31-.35,0A15,15,0,0,0,113.8,62,5.67,5.67,0,0,1,111.46,62.34Zm-8.26-1.5c1.56.31,8.64,1.62,10.38.73a14.55,14.55,0,0,1,4.64-1.25c-.59-.84-2.65-3.12-7.55-3.06S103.7,60,103.21,60.84Z"/></g><path class="cls-2" d="M96.82,79.46a3,3,0,0,1-1.94-.7,2.1,2.1,0,0,1-2.83-.15c-1.4-1.39.19-3.51.26-3.6l.38.28s-1.41,1.88-.3,3a1.7,1.7,0,0,0,2.35,0l.18-.16.16.18a2.61,2.61,0,0,0,2.84.5,7.88,7.88,0,0,0,1.42-.73,4.61,4.61,0,0,1,4.8-.46c.57.22,1,.21,1.26,0,.43-.39.5-1.44.17-2.62s-.77-1.72-1.06-1.78l.09-.46c.65.13,1.18,1.22,1.43,2.11.3,1.09.38,2.47-.3,3.09A1.61,1.61,0,0,1,104,78a4.13,4.13,0,0,0-4.38.43,8.23,8.23,0,0,1-1.51.77A3.72,3.72,0,0,1,96.82,79.46Z"/><path class="cls-2" d="M113.83,99.52l-.41-.24c2.18-3.72,2.1-5,1.32-7.59a3.61,3.61,0,0,1,.29-3.43,4.61,4.61,0,0,0,.48-1,5.61,5.61,0,0,0-2-6.69,18.23,18.23,0,0,0-7.22-3.38l.09-.46a18.36,18.36,0,0,1,7.43,3.48A6.09,6.09,0,0,1,116,87.34a5,5,0,0,1-.52,1.15,3.19,3.19,0,0,0-.25,3.06C116,94.26,116.09,95.65,113.83,99.52Z"/><g class="cls-3"><path class="cls-2" d="M112.8,92.39c-.82-1.2-.55-2.87.31-5.94.79-2.83-.81-4.08-.83-4.09l.29-.37c.08.06,1.88,1.46,1,4.59-.82,2.93-1.09,4.51-.37,5.55Z"/></g><path class="cls-2" d="M92,98.78l-.47,0A4.66,4.66,0,0,0,91,96.27c-.2-.51-.48-1.22-.83-2.27-1.34-4-2.14-9.93,0-13.5,1.32-1.63,4.95-1.94,5.1-2l0,.47s-3.58.31-4.75,1.75c-2.06,3.41-1.27,9.19,0,13.09.35,1,.62,1.73.82,2.24A5.11,5.11,0,0,1,92,98.78Z"/><path class="cls-2" d="M92,87.37c-.93-1-.15-4.38-.06-4.77l.46.11c-.23,1-.7,3.67-.06,4.34Z"/><g class="cls-3"><path class="cls-2" d="M93.6,85.53l-.37-.29c.59-.74.47-3,.37-3.82l.47-.05C94.09,81.5,94.43,84.49,93.6,85.53Z"/></g><g class="cls-3"><path class="cls-2" d="M93.3,98.82l-.46-.1c.75-3.59-1.86-8.9-1.88-9l.42-.21C91.49,89.78,94.08,95.07,93.3,98.82Z"/></g><path class="cls-2" d="M93.44,92.6H93c0-1.37-.28-3.78-.28-3.8l.47-.05C93.17,88.85,93.44,91.21,93.44,92.6Z"/><path class="cls-2" d="M94.77,96.64l-.46-.1c.51-2.46,0-5.38-.36-7.52-.12-.72-.23-1.34-.27-1.8a1.28,1.28,0,0,1,.26-1,2.26,2.26,0,0,1,1.63-.48,2.74,2.74,0,0,0,1.16-.21,3.55,3.55,0,0,0,1.17-2.59,2.56,2.56,0,0,0-1.18-2.27l.27-.39A3,3,0,0,1,98.39,83a4,4,0,0,1-1.4,3,3,3,0,0,1-1.39.28c-.52,0-1.07.05-1.3.32a.84.84,0,0,0-.15.65c0,.44.14,1.05.27,1.76C94.79,91.12,95.31,94.1,94.77,96.64Z"/><path class="cls-2" d="M110.76,97.18l-.47,0c.2-1.93-.59-4.58-2-8.51s-1.63-4.46-6.17-4.19a3,3,0,0,1-2.8-1c-1.13-1.52-.16-4.18-.11-4.29l.44.16s-.93,2.53.05,3.85a2.59,2.59,0,0,0,2.39.81c4.72-.29,5.2.54,6.64,4.5S111,95.15,110.76,97.18Z"/><path class="cls-2" d="M112,94.37c-.07-.08-1.82-2.09-1.65-7.17.17-4.82-1.2-6-1.21-6l.3-.36c.06.05,1.56,1.32,1.39,6.42-.17,4.89,1.51,6.82,1.53,6.84Z"/><path class="cls-2" d="M103,82.33c-.78-.78-.13-2.93-.06-3.18l.45.14c-.26.81-.5,2.27-.06,2.7Z"/><g class="cls-3"><path class="cls-2" d="M106.23,82.85a3.3,3.3,0,0,1-1.05-4.17l.42.22a2.79,2.79,0,0,0,.92,3.57Z"/></g><g class="cls-3"><path class="cls-2" d="M97.06,87.11a2.12,2.12,0,0,1-1-.24,1.32,1.32,0,0,1-.67-.84l.46-.09a.86.86,0,0,0,.45.53c.38.2,1.15.33,2.64-.25l1-.38c2.53-1,4.05-1.59,5.33-.64l-.28.38c-1.06-.79-2.42-.26-4.87.7l-1,.38A5.76,5.76,0,0,1,97.06,87.11Z"/></g><g class="cls-3"><path class="cls-2" d="M97.56,91.69A4,4,0,0,1,94,89.16l.44-.16a3.43,3.43,0,0,0,3.7,2.18,6,6,0,0,0,2.75-1.1,2.88,2.88,0,0,1,2.37-.65c1.83.33,4.55-2.36,4.57-2.39l.33.33c-.12.12-2.92,2.89-5,2.52a2.44,2.44,0,0,0-2,.58,6.46,6.46,0,0,1-2.95,1.18A4.45,4.45,0,0,1,97.56,91.69Z"/></g><path class="cls-2" d="M86.78,86.15a.72.72,0,0,1-.54-.23c-.43-.46-.32-1.49-.2-2.68a11.37,11.37,0,0,0,.09-1.83A2.29,2.29,0,0,0,85.35,80a5.12,5.12,0,0,1-1.47-3,16.18,16.18,0,0,1,0-3.61c.13-1.65.24-3.08-.44-3.83a5.21,5.21,0,0,1-1.39-4.78l.45.15a4.8,4.8,0,0,0,1.29,4.32c.82.91.7,2.43.57,4.19a15.85,15.85,0,0,0,0,3.5,4.66,4.66,0,0,0,1.35,2.79,2.73,2.73,0,0,1,.89,1.71,11.65,11.65,0,0,1-.09,1.92c-.1.94-.2,2,.08,2.31a.25.25,0,0,0,.21.08c.86,0,1.63-1.3,1.85-1.79l.43.19c0,.08-.94,2-2.27,2.07Z"/><path class="cls-2" d="M85.87,67a6.29,6.29,0,0,1-5.14-4.16c-1.33-3.57.12-5.27.44-5.58l.74-2.5c0-.46.09-4.47,3.15-6.21a13.11,13.11,0,0,0,3.82-2.8l.38.27s-.87,1.18-4,2.94c-2.94,1.66-2.92,5.79-2.92,5.83v0l-.8,2.7-.05,0c-.07.06-1.68,1.55-.36,5.12a5.79,5.79,0,0,0,4.73,3.86Z"/><path class="cls-2" d="M88,49.62c-.22,0-.33-.05-.4-.17s0-.43.27-.78a6.26,6.26,0,0,0,1.28-3.29l.47,0a6.69,6.69,0,0,1-1.36,3.53l-.14.2c.28,0,.81-.12,1.23-.2,3.2-.59,3.2-4.91,3.2-5H93s0,4.76-3.59,5.42A10,10,0,0,1,88,49.62Z"/><path class="cls-2" d="M84.06,57.5l-.42-.22s.86-1.71.87-5.58c0-1.37,3.57-2.45,4.28-2.65l.13.45C87.29,50,85,50.95,85,51.7,85,55.7,84.1,57.42,84.06,57.5Z"/><path class="cls-2" d="M100.85,46.36a3.82,3.82,0,0,1-2-.56c-2-1.23-2.51-4-2.53-4.15l0-.27h2.83v.47H96.81a6,6,0,0,0,2.25,3.55,3.84,3.84,0,0,0,3.23.26c2.95-.89,3.79-1.82,4-2.29a.74.74,0,0,0,.1-.49l.45-.15a1.13,1.13,0,0,1-.13.85c-.34.66-1.36,1.63-4.32,2.53A5.46,5.46,0,0,1,100.85,46.36Z"/><path class="cls-2" d="M110.22,46.58a6.14,6.14,0,0,1-2.36-.48c-3-1.26-3-1.33-2.94-1.58s.37-.16.49-.13l0,.11c.17.1.75.39,2.65,1.17,3.7,1.53,6.58-1.39,6.61-1.42l.34.33A7.29,7.29,0,0,1,110.22,46.58Zm-4.88-1.91h0a.23.23,0,0,0,0-.13Z"/><path class="cls-2" d="M127.67,61.51a10.37,10.37,0,0,1-3.6-1.54c-2.5-1.41-1.74-3.61-1.08-5.55a8.07,8.07,0,0,0,.61-2.64c-.07-2.46-1.69-3.55-5.26-3.55-3.8,0-5.4-1.87-5.46-1.95l.36-.3s1.54,1.78,5.1,1.78c3.83,0,5.65,1.27,5.73,4a8.51,8.51,0,0,1-.63,2.8c-.66,1.94-1.29,3.78.87,5,2.86,1.62,3.39,1.49,3.41,1.48a.16.16,0,0,0-.08.09l.43.18a.31.31,0,0,1-.2.17A.62.62,0,0,1,127.67,61.51Z"/><g class="cls-3"><path class="cls-2" d="M126.37,58.9l-.24-.4c.54-.32.82-.61.87-.86s-.2-.63-.53-1a3.62,3.62,0,0,1-.81-3.82c1.19-3.38-.94-4.74-1-4.79l.25-.4s2.54,1.6,1.23,5.35a3.18,3.18,0,0,0,.74,3.38c.38.49.71.92.62,1.42S127,58.5,126.37,58.9Z"/></g><path class="cls-2" d="M130.82,68.89a3.91,3.91,0,0,1-2.65-1.18c-1.33-1.29-2.12-3.47-1.12-4.87,1.53-2.16,2.69-4.28,1.35-8.46a4.9,4.9,0,0,1,.06-3.86A3.09,3.09,0,0,1,130.18,49l.13.45a2.66,2.66,0,0,0-1.44,1.25,4.47,4.47,0,0,0,0,3.49c1.4,4.39.19,6.62-1.42,8.88-.84,1.18-.1,3.13,1.06,4.26a2.93,2.93,0,0,0,4,.46c1.39-1,2-2,1.83-2.87a2,2,0,0,0-1.73-1.26,2.47,2.47,0,0,0-2.37.61.78.78,0,0,0,.13.91c.59.81,1,.84,1.14.75l.29.37a.75.75,0,0,1-.55.13,2.06,2.06,0,0,1-1.27-1,1.24,1.24,0,0,1-.15-1.43,2.88,2.88,0,0,1,2.84-.83,2.43,2.43,0,0,1,2.11,1.61c.18.72,0,1.89-2,3.36A3.25,3.25,0,0,1,130.82,68.89Z"/><path class="cls-2" d="M131.6,60.42l-.31-.36c1.43-1.2,1.05-2.68.48-4.91-.14-.56-.29-1.14-.43-1.77-.26-1.21-.14-2.05.36-2.49a1.8,1.8,0,0,1,1.64-.21l-.16.44a1.35,1.35,0,0,0-1.17.12c-.36.31-.43,1-.21,2,.14.63.28,1.2.42,1.76C132.83,57.35,133.26,59,131.6,60.42Z"/><path class="cls-2" d="M133.37,63.84l-.21-.42c2.81-1.41,1.35-6.42.72-8.57a2.09,2.09,0,0,1,.22-2,2.65,2.65,0,0,1,2.07-.69l0,.47a2.22,2.22,0,0,0-1.67.52,1.67,1.67,0,0,0-.13,1.57C135,57,136.54,62.26,133.37,63.84Z"/><g class="cls-3"><path class="cls-2" d="M134.46,63.34l-.21-.42c2.81-1.41,1.35-6.42.72-8.57a2.09,2.09,0,0,1,.22-2,2.65,2.65,0,0,1,2.07-.69l0,.47a2.22,2.22,0,0,0-1.67.52,1.67,1.67,0,0,0-.13,1.57C136.08,56.48,137.62,61.75,134.46,63.34Z"/></g><g class="cls-3"><path class="cls-2" d="M136.7,74.68a4.75,4.75,0,0,1-2.51-2.4,3.83,3.83,0,0,1,.31-3.18c1.9-3.78,2.45-5.37,1.92-7.29-.57-2.1.38-5.36.42-5.5l.45.13s-1,3.27-.42,5.25c.6,2.19-.14,4-2,7.62a3.39,3.39,0,0,0-.29,2.8,4.33,4.33,0,0,0,2.24,2.13Z"/></g><path class="cls-2" d="M129.6,73a6.22,6.22,0,0,1,.58-4.49l.41.23a11.59,11.59,0,0,0,.32,4.53Z"/><path class="cls-2" d="M136.35,81.63h-.2c-2.31-.08-3.86-.68-4.58-1.78-.63-1-.63-2.25,0-3.84.37-.95.89-1.46,1.52-1.52,1.35-.14,2.69,1.93,2.75,2l-.4.25c-.34-.53-1.41-1.89-2.31-1.8-.44,0-.82.45-1.13,1.22-.57,1.45-.59,2.6-.05,3.41.64,1,2.05,1.5,4.2,1.57a3.51,3.51,0,0,0,3.36-1.61,4.5,4.5,0,0,0,.09-4.35,14.84,14.84,0,0,0-1-1.53c-1.23-1.69-2.62-3.6-.79-6.27,1.51-2.21,1.19-3.84.81-5.72a15.2,15.2,0,0,1-.36-2.7,4.59,4.59,0,0,1,2.61-4.4L141,55a4,4,0,0,0-2.32,4,14.86,14.86,0,0,0,.35,2.62c.38,1.91.74,3.71-.89,6.08s-.46,4,.79,5.74A15.18,15.18,0,0,1,140,75a5,5,0,0,1-.1,4.82A4,4,0,0,1,136.35,81.63Z"/><path class="cls-2" d="M135.87,78.37a4.37,4.37,0,0,1-.59,0l.07-.46a3.3,3.3,0,0,0,2.27-.48,1.57,1.57,0,0,0,.48-1.29h.47a2,2,0,0,1-.64,1.66A3.18,3.18,0,0,1,135.87,78.37Z"/><path class="cls-2" d="M95.76,124.9a1.4,1.4,0,0,1-.55-.09,3,3,0,0,1-1.06-.87,9.22,9.22,0,0,0-1.23-1.19c-1.16-.94-2.34-2.08-2.42-3.47-2.23-1.07-2.31-5.26-2.29-6.28l-.12-.05c-.48-.25-.91-1-1.28-2.28a4.75,4.75,0,0,1,.94-4.3,7.94,7.94,0,0,1-.87-2.77,5.16,5.16,0,0,0-1.38-2.47c-.63-.74-1.23-1.44-.78-2.45s.27-1.2.05-1.44a1.26,1.26,0,0,1-.33-.58,2,2,0,0,1,.18-1.1,1.47,1.47,0,0,0,.1-1.22l0,0c-.47-.85-.57-1.14,0-2.9.33-1,.26-1.16.05-1.53a4.41,4.41,0,0,1-.48-1.26,9.73,9.73,0,0,1-.22-1.48,6.46,6.46,0,0,0-.64-2.41,1.59,1.59,0,0,1,0-1.42c.63-1.22,2.78-1.7,2.87-1.72l.1.46s-2,.45-2.56,1.48a1.13,1.13,0,0,0,0,1,6.93,6.93,0,0,1,.67,2.55,9.25,9.25,0,0,0,.21,1.41,4,4,0,0,0,.43,1.14c.26.48.36.74,0,1.9-.54,1.63-.44,1.81,0,2.53l0,0a1.86,1.86,0,0,1-.07,1.6,1.69,1.69,0,0,0-.17.84.81.81,0,0,0,.23.38c.33.38.55.76,0,1.94-.32.71,0,1.16.71,2a5.62,5.62,0,0,1,1.48,2.69c.43,2.27.84,2.66.86,2.68l.23.15-.21.19a4.4,4.4,0,0,0-1,4c.58,2,1.12,2,1.14,2h0l.33-.11,0,.35c0,.05-.2,5.17,2.13,6.11L91,119v.16c0,1,.67,2,2.25,3.26a9.63,9.63,0,0,1,1.29,1.25,2.56,2.56,0,0,0,.91.76,5.88,5.88,0,0,0,3.88-1.24,3.81,3.81,0,0,0,1.57-3.91l.47-.08a4.31,4.31,0,0,1-1.75,4.36A7.05,7.05,0,0,1,95.76,124.9Z"/><path class="cls-2" d="M99,124.21l0-.47,2.58-.24.06,0a2.38,2.38,0,0,0,3-.88,1.31,1.31,0,0,0,.33-1.14c-.24-1.16-2-2.1-2-2.11l.22-.42c.08,0,2,1,2.28,2.43A1.77,1.77,0,0,1,105,123a2.89,2.89,0,0,1-3.5,1Z"/><path class="cls-2" d="M92.42,119.61a4.91,4.91,0,0,1-1.32-.18l.14-.45a4.05,4.05,0,0,0,3.05-.36,3.57,3.57,0,0,0,1.43-2.44c-2.17,1.56-4.65,0-4.67,0l.25-.4c.1.07,2.58,1.59,4.58-.36l.47-.46-.07.65A4.34,4.34,0,0,1,94.54,119,3.84,3.84,0,0,1,92.42,119.61Z"/><g class="cls-3"><path class="cls-2" d="M90.55,114l-.28-.38a2.63,2.63,0,0,0,.68-4,4.71,4.71,0,0,1-.77-3.65l.46.12a4.27,4.27,0,0,0,.73,3.31,3.77,3.77,0,0,1,.68,2A3.82,3.82,0,0,1,90.55,114Z"/></g><path class="cls-2" d="M94,115.07a3.76,3.76,0,0,1-.92-2.51,3,3,0,0,1,.92-2.21c1.29-1.23,1.66-2.25,0-4.14s-1.28-2.59.13-6.55L94.75,98l.45.15-.59,1.67c-1.4,3.92-1.61,4.52-.22,6.08,1.65,1.86,1.65,3.2,0,4.79a2.55,2.55,0,0,0-.78,1.87,3.3,3.3,0,0,0,.78,2.17Z"/><path class="cls-2" d="M88.23,106.52l-.36-.3a5.31,5.31,0,0,0,1.06-3.13,15.08,15.08,0,0,1,.46-2.49c.66-2.26-.08-2.8-.67-3.24L89,97l-.14.19L89,97c.63.47,1.59,1.18.84,3.75a14.7,14.7,0,0,0-.45,2.42A5.74,5.74,0,0,1,88.23,106.52Z"/><path class="cls-2" d="M87.86,100.17a7.41,7.41,0,0,0-.68-.76c-.95-1-1.34-1.55.11-4.49a8.82,8.82,0,0,0,.54-6.64l.44-.17a9.13,9.13,0,0,1-.56,7c-1.36,2.77-1,3.14-.2,4a7.74,7.74,0,0,1,.72.81Z"/><path class="cls-2" d="M98.76,104.78a10.88,10.88,0,0,1,0-4.82c.65-1.84.77-2.46-1-3.14a1.39,1.39,0,0,1-.91-.94c-.32-1.21,1-2.88,1.08-3l.37.29c-.35.43-1.21,1.73-1,2.54a.93.93,0,0,0,.63.63c2.14.84,1.9,1.86,1.24,3.73a10.62,10.62,0,0,0,0,4.57Z"/><path class="cls-2" d="M100.34,109.82a5.93,5.93,0,0,1-2.29-.42c-.91-.4-1.05-1-1-1.4.12-1.09,1.64-2.26,2.83-2.49.29-.06.58-.08.73.12s0,.48-.21.81-.41.65-.33.86.15.18.33.25a.21.21,0,0,0,.22,0c.7-.52.77-4.05.65-6.15l.47,0c0,.58.29,5.71-.83,6.56a.68.68,0,0,1-.66.1.92.92,0,0,1-.62-.53c-.15-.43.14-.89.37-1.27l.15-.25-.17,0c-1,.2-2.36,1.24-2.45,2.08,0,.38.2.69.73.92a5.74,5.74,0,0,0,5-.42,2.05,2.05,0,0,0,.85-2,7.22,7.22,0,0,1,4.49-7.34l.15.45a6.72,6.72,0,0,0-4.17,6.84,2.52,2.52,0,0,1-1,2.47A5.45,5.45,0,0,1,100.34,109.82Z"/><path class="cls-2" d="M101.31,113.12l-.43-.19a3.57,3.57,0,0,0,.09-3.21l.4-.24A4,4,0,0,1,101.31,113.12Z"/><path class="cls-2" d="M101.09,117.74a2.7,2.7,0,0,1-2.43-1.12,2.25,2.25,0,0,1,.12-2.39,2.72,2.72,0,0,1,2.11-1.46,1.63,1.63,0,0,1,1.39.92.9.9,0,0,1,.09,1c-.37.57-1.54.49-1.77.47l0-.47c.45,0,1.17,0,1.32-.25s0-.34-.1-.49a1.2,1.2,0,0,0-1-.69,2.34,2.34,0,0,0-1.7,1.25,1.77,1.77,0,0,0-.12,1.9,2.46,2.46,0,0,0,2.44.87c1.41-.13,1.82-1.35,2.23-2.54.29-.87.57-1.68,1.25-1.91a1.75,1.75,0,0,1,1.66.35c.16.11.34.22.41.2s.13-.06.29-.42a9.88,9.88,0,0,1,.91-1.62,1.39,1.39,0,0,1-.42,0c-.63,0-1.19-.47-1.66-1.32l-1.49-2.7.41-.23,1.49,2.7c.39.7.81,1.06,1.26,1.08a1.65,1.65,0,0,0,1.14-.58c.25-.32.43-.52.45-.54l.38.28a3.87,3.87,0,0,1-.46.56,12.08,12.08,0,0,0-1.57,2.49c-.17.41-.35.62-.59.69a1,1,0,0,1-.81-.26,1.3,1.3,0,0,0-1.24-.3c-.46.16-.7.87-1,1.62-.41,1.2-.91,2.7-2.63,2.86Z"/><g class="cls-3"><path class="cls-2" d="M93.85,122.7a3.06,3.06,0,0,1-1.65-.57l.25-.4c1.24.78,1.81.53,3.07,0l.85-.36a2.09,2.09,0,0,0,1.12-2.57l.45-.13a2.51,2.51,0,0,1-1.4,3.14l-.84.35A4.81,4.81,0,0,1,93.85,122.7Z"/></g><g class="cls-3"><path class="cls-2" d="M108.21,121.92a3.81,3.81,0,0,1-2.55-.85,5,5,0,0,1-1.48-3.56h.47a4.62,4.62,0,0,0,1.32,3.2,3.85,3.85,0,0,0,3.26.65c2.44-.41,4-1.38,4.26-2.61.16-.83-.38-1.68-1.46-2.32a2.62,2.62,0,0,0-2.12-.38,3.21,3.21,0,0,0-1.7,1.54l-.43-.2a3.63,3.63,0,0,1,2-1.78,3.07,3.07,0,0,1,2.51.43c1.26.75,1.88,1.77,1.68,2.81-.27,1.43-2,2.54-4.65,3A6.64,6.64,0,0,1,108.21,121.92Z"/></g><path class="cls-2" d="M108,124.73c-.12,0-.25-.07-.32-.29a1.24,1.24,0,0,1,0-.69c-.58-1-2.82-.72-2.84-.72l-.06-.46c.11,0,2.22-.29,3.12.68a4.93,4.93,0,0,1,2.62-1.88l.17.44c-1.77.68-2.32,1.47-2.49,1.91a1.57,1.57,0,0,1,.06.2c0,.17.16.7-.17.79Z"/><path class="cls-2" d="M117.88,121.26a16.67,16.67,0,0,1-4.66-1.37l.19-.43c1,.43,3.69,1.49,4.73,1.31a2.47,2.47,0,0,0,1.76-1.66A2,2,0,0,0,119,117a2.1,2.1,0,0,0-1.92-.6,1.82,1.82,0,0,0-1,1.1l-.46-.11A2.27,2.27,0,0,1,116.9,116a2.53,2.53,0,0,1,2.37.68,2.46,2.46,0,0,1,1.09,2.55,2.9,2.9,0,0,1-2.14,2A2,2,0,0,1,117.88,121.26Z"/><path class="cls-2" d="M113.54,116.87l-.47,0a8.24,8.24,0,0,1,2.9-5.17c1.35-1.23,1.18-1.92,1-2.73a2.6,2.6,0,0,1,.49-2.6c.77-1,.74-1.05.54-1.42s-.71-1.31-.59-3.88c0-.9.09-1.71.14-2.45.21-3.32.32-5-.95-6.17l.32-.34c1.42,1.34,1.31,3.18,1.09,6.54,0,.73-.1,1.54-.14,2.44-.12,2.44.31,3.22.53,3.64.31.58.3.8-.58,1.93a2.14,2.14,0,0,0-.4,2.2c.21.83.44,1.77-1.12,3.19A7.9,7.9,0,0,0,113.54,116.87Z"/><path class="cls-2" d="M111.92,103.82a17,17,0,0,1,0-2.78c.09-1.7-1.78-1.9-1.86-1.91l0-.47a2.34,2.34,0,0,1,2.28,2.4,17,17,0,0,0,0,2.7Z"/><path class="cls-2" d="M113.25,111.53c-1.31-.34-.87-2.25-.48-3.94a13.86,13.86,0,0,0,.3-1.56,2,2,0,0,0-.4-1.66,2.48,2.48,0,0,0-2.08-.35c-1.91.27-2.57,1.56-2.37,4.6l-.47,0c-.15-2.3.06-4.71,2.78-5.1A2.9,2.9,0,0,1,113,104a2.38,2.38,0,0,1,.55,2,14.13,14.13,0,0,1-.31,1.61c-.34,1.48-.73,3.16.14,3.38Z"/><path class="cls-2" d="M111.12,112.91s-2.65-1.77-1.74-4.57a2.69,2.69,0,0,1,1.41-1.74,3.13,3.13,0,0,1,2.3,0l-.19.43a2.7,2.7,0,0,0-1.93,0,2.24,2.24,0,0,0-1.15,1.45,3.67,3.67,0,0,0,1.55,4Z"/><path class="cls-2" d="M101.5,100.17l-.38-.28s1.85-2.58.26-3.91a1.78,1.78,0,0,1-.79-1.58c.13-1,1.44-1.85,2.52-2.37l.2.42c-1.37.65-2.17,1.36-2.25,2a1.35,1.35,0,0,0,.63,1.16C103.22,96.91,102.24,99.16,101.5,100.17Z"/><path class="cls-2" d="M103.87,101.34a2,2,0,0,1,.87-1.59,2.57,2.57,0,0,0,1-1.72c.29-1.92.36-6.54.37-6.59h.47c0,.19-.08,4.7-.37,6.65a3,3,0,0,1-1.19,2,1.5,1.5,0,0,0-.71,1.23Z"/><path class="cls-2" d="M119.14,87.14a1.45,1.45,0,0,1-1.05-.41c-1-1-.63-3.28-.61-3.38l.47.07s-.34,2.19.48,3a1.12,1.12,0,0,0,1.06.24,4,4,0,0,0,3-2,1.13,1.13,0,0,0-.06-1.1,1,1,0,0,0-1.32-.28c-.43.19-.67.51-.62.69l.19.83-.59-.61a3,3,0,0,1,0-4.24l.34.33a2.41,2.41,0,0,0-.29,3.22,1.75,1.75,0,0,1,.78-.64,1.48,1.48,0,0,1,1.9.44,1.58,1.58,0,0,1,.11,1.55,4.42,4.42,0,0,1-3.33,2.29A2.28,2.28,0,0,1,119.14,87.14Z"/><path class="cls-2" d="M127.84,103.32l-.44-.18a3,3,0,0,0,0-2.61c-.91-1.7-3.58-2.47-5.09-2.78-.69-.14-1.08-.39-1.21-.75-.2-.57.34-1.2.82-1.76.21-.25.6-.71.56-.83a.35.35,0,0,0-.18-.07c-1.75-.38-2.89-5-3-5.51l.46-.11c.32,1.34,1.42,4.89,2.65,5.16a.64.64,0,0,1,.52.38c.13.37-.23.79-.65,1.28s-.84,1-.73,1.31.36.34.86.44c1.59.32,4.41,1.15,5.41,3A3.4,3.4,0,0,1,127.84,103.32Z"/><path class="cls-2" d="M125.09,109.47a1.24,1.24,0,0,1-1-.32c-.47-.5-.26-1.43,0-2.72.13-.59.28-1.25.39-2,.47-3.09.29-3.37-2.4-3.81-3-.48-4.43-3.83-4.49-4l.44-.18s1.39,3.24,4.13,3.68c3.09.5,3.27,1.16,2.79,4.34-.11.74-.26,1.41-.39,2-.25,1.1-.44,2-.15,2.29s.55.22,1.14.13c1.45-.22,3.73-3,4.71-5.63.62-1.69.6-3-.05-3.77a5.9,5.9,0,0,0-5.05-1.79l-.08-.46a6.27,6.27,0,0,1,5.49,1.95c.77.88.82,2.38.14,4.24-.94,2.58-3.32,5.66-5.08,5.94A3.93,3.93,0,0,1,125.09,109.47Z"/><g class="cls-3"><path class="cls-2" d="M118.91,117c0-.1-.42-1,1.59-2.56a1.9,1.9,0,0,0,.73-1.33c.16-1.4-.84-3.36-1.9-4.68s.59-2.76,1.64-3.77a4.43,4.43,0,0,0,.83-.92c0-.12-.12-.2-.57-.38a4,4,0,0,1-1.91-1.42l.39-.27a3.53,3.53,0,0,0,1.71,1.25c.47.2.91.38.85.87,0,.29-.36.61-1,1.21-1,.95-2.32,2.24-1.6,3.14,1,1.3,2.19,3.39,2,5a2.35,2.35,0,0,1-.91,1.64c-1.69,1.31-1.45,2-1.45,2Z"/></g><path class="cls-2" d="M126.5,116.93c-.31,0-.63-.2-1-.64-1.48-1.63-4.79-1.48-4.82-1.47l0-.47c.15,0,3.56-.17,5.19,1.63.38.42.59.49.7.48s.44-.46.68-.91a5.55,5.55,0,0,1,1.45-1.93,9.41,9.41,0,0,1,3.14-1.22c1.68-.45,3.42-.92,4.14-2.08.84-1.36.47-4.5-.39-6.48-.47-1.07-1-1.74-1.6-1.85a20,20,0,0,0-2.94-.42v-.47a19.91,19.91,0,0,1,3,.43c.91.18,1.56,1.25,1.94,2.12.93,2.12,1.3,5.41.36,6.91-.82,1.32-2.65,1.81-4.42,2.29a9.15,9.15,0,0,0-3,1.14,5.17,5.17,0,0,0-1.32,1.78c-.32.61-.58,1.1-1,1.16Z"/><path class="cls-2" d="M134.44,109.32a2.43,2.43,0,0,1-.58-.07,1.66,1.66,0,0,1-1.23-.91,2.34,2.34,0,0,1,.22-1.84l.41.23a1.9,1.9,0,0,0-.2,1.43,1.23,1.23,0,0,0,.91.63c1.73.42,2.39-1.55,2.42-1.63l.45.14A2.74,2.74,0,0,1,134.44,109.32Z"/><path class="cls-2" d="M132.83,112.5a1.59,1.59,0,0,1-1-.33c-.78-.63-.9-2-1-4.3-.08-1.58-.46-2-.68-2.17a.48.48,0,0,0-.43,0l-.21-.42a1,1,0,0,1,.87,0c.55.32.86,1.18.92,2.56.1,2.06.21,3.45.84,4a1.39,1.39,0,0,0,1.13.19l.07.46A3,3,0,0,1,132.83,112.5Z"/><path class="cls-2" d="M125.81,116.32l-.31-.35a2.87,2.87,0,0,0,.13-4.12c-1.42-1.74-1.5-2.34-1.55-2.79a1,1,0,0,0-.17-.52l.4-.26a1.48,1.48,0,0,1,.25.72c0,.38.11.91,1.45,2.55A3.36,3.36,0,0,1,125.81,116.32Z"/><g class="cls-3"><path class="cls-2" d="M124,98.09l-.47,0a5.34,5.34,0,0,1,1.75-3.45,1.37,1.37,0,0,0,.58-.88c0-.4-.37-.81-.82-1.29a9.47,9.47,0,0,1-.74-.85,4.91,4.91,0,0,1-1.11-4.46l.45.15c-.54,1.58.42,3.2,1,4a9.11,9.11,0,0,0,.7.8c.5.53,1,1,.95,1.64a1.79,1.79,0,0,1-.74,1.21A4.93,4.93,0,0,0,124,98.09Z"/></g><path class="cls-2" d="M127.48,94.07c-.64,0-1.33-.06-1.45-.07l0-.47a10,10,0,0,0,2.19,0,.75.75,0,0,0,.37-.68,1,1,0,0,0-.77-.91c-1.33-.44-1.48-1.47-1.64-2.55,0-.19-.06-.39-.09-.59l.46-.08c0,.21.07.41.09.6.15,1.06.26,1.82,1.32,2.17a1.38,1.38,0,0,1,1.09,1.36,1.19,1.19,0,0,1-.71,1.12A3.86,3.86,0,0,1,127.48,94.07Z"/><path class="cls-2" d="M130.06,99.13h-.13l0-.47s3.23.1,3.81-2.12a1.34,1.34,0,0,0-.19-1.23c-.69-.87-2.54-.86-2.56-.86h-.24v-.24s-.07-4.27-1.37-5.49a1,1,0,0,0-.75-.3,3.11,3.11,0,0,1-2.59-1.07,5.36,5.36,0,0,1-.91-4.36c.41-2-.42-2.65-2.08-4l.12-.2.15-.18-.15.18.18-.16c1.63,1.34,2.71,2.23,2.24,4.47a4.88,4.88,0,0,0,.8,4,2.6,2.6,0,0,0,2.21.9,1.45,1.45,0,0,1,1.09.43c1.27,1.19,1.48,4.67,1.51,5.6a3.89,3.89,0,0,1,2.71,1,1.8,1.8,0,0,1,.27,1.64C133.61,99,130.71,99.13,130.06,99.13Z"/><g class="cls-3"><path class="cls-2" d="M127.32,85.59a2.35,2.35,0,0,1-1-2.1,9.92,9.92,0,0,1,.54-2.49c.5-1.64,1-3.35.07-4.78l.4-.26c1.06,1.62.49,3.51,0,5.17a9.6,9.6,0,0,0-.52,2.36,1.89,1.89,0,0,0,.79,1.71Z"/></g><path class="cls-2" d="M128,88.37l-.17-.44c.31-.12.6-.21.86-.28,1-.29,1.52-.44,1.78-2.72a1.8,1.8,0,0,0-.55-1.81,3.1,3.1,0,0,0-2.69.06l-.21-.42a3.55,3.55,0,0,1,3.17,0A2.22,2.22,0,0,1,131,85c-.28,2.48-.92,2.77-2.12,3.12C128.58,88.18,128.32,88.26,128,88.37Z"/><path class="cls-2" d="M133.6,90.85a2.83,2.83,0,0,1-2.4-1.39,1.69,1.69,0,0,1-.18-1.57c.51-1.23,2.51-1.76,2.59-1.78l.12.45s-1.86.49-2.28,1.5a1.23,1.23,0,0,0,.15,1.15,2.29,2.29,0,0,0,2.58,1.07c1.21-.38,1.85-1.85,1.71-3.94-.31-4.52-1.26-4.86-1.27-4.87l.07-.46c.22,0,1.33.39,1.67,5.3.16,2.32-.6,4-2,4.42A2.48,2.48,0,0,1,133.6,90.85Z"/><g class="cls-3"><path class="cls-2" d="M133.94,85.16c-6.63-4.25-4.18-9.9-4.16-10l.43.19c-.1.22-2.3,5.34,4,9.37Z"/></g><path class="cls-2" d="M136.48,94.41A4.34,4.34,0,0,1,134.86,90l.46.09A3.8,3.8,0,0,0,136.74,94Z"/><path class="cls-2" d="M136.14,103.15h0v-.47a.87.87,0,0,0,.63-.24.69.69,0,0,0,.05-.62,4.49,4.49,0,0,0-.63-1.12c-.73-1.07-1.72-2.53-.19-3.74l.29.37c-1.11.87-.58,1.83.28,3.1a4.72,4.72,0,0,1,.7,1.26,1.12,1.12,0,0,1-.14,1A1.35,1.35,0,0,1,136.14,103.15Z"/><path class="cls-2" d="M142.12,101a8.69,8.69,0,0,1-3.11-.7c-2.07-.83-3.58-3.11-3.31-5,.12-.84.73-2.27,3.37-2.52,2.47-.23,4.27.54,4.82,2.06a2.62,2.62,0,0,1-1,3,2.08,2.08,0,0,1-2.42.14,2.29,2.29,0,0,1-1.09-2l.47.08a1.84,1.84,0,0,0,.88,1.53,1.62,1.62,0,0,0,1.9-.13,2.15,2.15,0,0,0,.79-2.48c-.47-1.3-2.09-2-4.33-1.75-1.73.16-2.77.91-3,2.12-.24,1.65,1.17,3.74,3,4.48,1.46.58,3.47,1.08,4.81.13,1.05-.75,1.52-2.3,1.4-4.6-.27-5.07-.84-5.57-.87-5.59a.16.16,0,0,0,.11,0l-.05-.47a.33.33,0,0,1,.25.09c.62.52.9,3.51,1,5.92s-.4,4.16-1.6,5A3.64,3.64,0,0,1,142.12,101Z"/><g class="cls-3"><path class="cls-2" d="M139,93.21a2.28,2.28,0,0,1-1.61-1.62c-.24-1.41,1.4-2.85,1.47-2.92l.31.35s-1.51,1.34-1.31,2.48c.09.52.53.95,1.32,1.27Z"/></g><path class="cls-2" d="M136.77,86.74l-.32-.35a4,4,0,0,1,4.08-.7l-.18.43A3.58,3.58,0,0,0,136.77,86.74Z"/><path class="cls-2" d="M143.48,89.91c-1.81,0-2.61-1-3.26-2.61a3.24,3.24,0,0,1,.66-3.45,2.87,2.87,0,0,1,3.18-.58c1.55.59,1.9,1.72,1.72,2.5A1.73,1.73,0,0,1,144,87.14a1.7,1.7,0,0,1-1.41-.61.78.78,0,0,1,0-.7l.43.2-.21-.1.22.09a.32.32,0,0,0,0,.27c.07.11.3.32,1,.37a1.26,1.26,0,0,0,1.32-1c.14-.63-.16-1.48-1.43-2a2.41,2.41,0,0,0-2.68.47,2.77,2.77,0,0,0-.56,2.94c.81,2,1.75,2.84,4.93,2a6.8,6.8,0,0,0,4.31-3.64,4.47,4.47,0,0,0-.07-4c-1.48-2.88-1.44-3.62-1.29-6.1,0-.46.06-1,.08-1.61a8.84,8.84,0,0,0-2.14-6.09l.34-.33a9.18,9.18,0,0,1,2.27,6.43c0,.62-.06,1.15-.08,1.61-.15,2.44-.18,3.09,1.24,5.86a4.9,4.9,0,0,1,.08,4.37,7.29,7.29,0,0,1-4.61,3.9A8.74,8.74,0,0,1,143.48,89.91Z"/><path class="cls-2" d="M145.14,83.68l-.27-.39a4.26,4.26,0,0,0,1-6.06,22.41,22.41,0,0,0-1.91-2.49c-1.77-2.08-2.94-3.45-.36-6.8,3.89-5.06,4.91-8.17,3.21-9.77a15.15,15.15,0,0,0-3.08-2.49l.24-.4a18,18,0,0,1,3.16,2.55c2.51,2.37-.6,7.07-3.16,10.4-2.34,3-1.39,4.17.35,6.22A22.78,22.78,0,0,1,146.22,77,4.78,4.78,0,0,1,145.14,83.68Z"/><path class="cls-2" d="M142.49,83.63l-.38-.27a5.28,5.28,0,0,0,.72-3.93,8,8,0,0,0-1.46-2.73,13.65,13.65,0,0,1-2.5-5.18c-.53-2.31.78-3.86,2-5.36,1.06-1.26,2.06-2.45,1.89-4a3.18,3.18,0,0,0-1.12-2.25,3.87,3.87,0,0,0-2.55-.69l-.06-.47a4.29,4.29,0,0,1,2.9.78,3.63,3.63,0,0,1,1.3,2.57c.19,1.76-.92,3.09-2,4.37-1.24,1.48-2.42,2.87-1.94,5a13.26,13.26,0,0,0,2.43,5,8.29,8.29,0,0,1,1.53,2.89A5.66,5.66,0,0,1,142.49,83.63Z"/><g class="cls-3"><path class="cls-2" d="M145.87,76.18l-.44-.18c2.07-5-.55-8.27-.57-8.3l.37-.3A8.88,8.88,0,0,1,145.87,76.18Z"/></g><path class="cls-2" d="M157.46,83.2A13,13,0,0,1,152.94,82c-3.7-1.52-3.5-2.61-3.05-5a21.68,21.68,0,0,0,.44-5.17c-.25-6.62-3-8-3-8l.2-.42c.12.06,3,1.49,3.26,8.39a22.09,22.09,0,0,1-.45,5.27c-.45,2.4-.58,3.12,2.77,4.5,4,1.62,5.22,1.17,5.61.76s.16-1.7-.25-2.55c-.24-.5-.46-.93-.65-1.32-1.07-2.14-1.4-2.78-.12-4.56,1.17-1.61,1.57-2.95,1.22-4.07s-1.46-2-3.31-2.69l.16-.44c2,.72,3.21,1.73,3.6,3s0,2.74-1.29,4.49c-1.12,1.54-.9,2,.15,4.07.19.38.41.82.65,1.32.69,1.44.74,2.47.17,3.08A2.14,2.14,0,0,1,157.46,83.2Z"/><g class="cls-3"><path class="cls-2" d="M156.74,80.89c-3.33-2.41-3.32-3.54-1.74-8.78,1.49-4.93-2-6.24-2.13-6.29l.16-.44s4,1.5,2.43,6.87c-1.54,5.12-1.56,6,1.56,8.26Z"/></g><path class="cls-2" d="M160.51,94.38l-.33-.33a4.27,4.27,0,0,0,1.26-3A2.87,2.87,0,0,0,159.9,89,15.36,15.36,0,0,1,154,82.69l.43-.19a14.86,14.86,0,0,0,5.73,6.14,3.31,3.31,0,0,1,1.75,2.4A4.66,4.66,0,0,1,160.51,94.38Z"/><g class="cls-3"><path class="cls-2" d="M147.59,101.48c-.52-.75-.22-1.25.2-1.94a8.72,8.72,0,0,0,1.23-3c.69-3.18-.69-8-.7-8.08l.45-.13c.06.2,1.42,5,.71,8.31a9.26,9.26,0,0,1-1.28,3.14c-.41.67-.57.93-.22,1.43Z"/></g><path class="cls-2" d="M148.82,105.53a4.35,4.35,0,0,1-1.46-.27c-3.4-1.21-3.08-4-2.55-5.92l.46.12c-.53,1.94-.75,4.3,2.25,5.36a2.87,2.87,0,0,0,2.79-.22,4,4,0,0,0,1.38-3.24,2.1,2.1,0,0,0-2.25-2.22v-.47a2.57,2.57,0,0,1,2.71,2.67,4.49,4.49,0,0,1-1.57,3.64A2.93,2.93,0,0,1,148.82,105.53Z"/><path class="cls-2" d="M157.92,106l-.07,0c-2-.95-2.54-6.16-2.81-9l0-.37a10.43,10.43,0,0,1,.17-2.62c.21-1.39.39-2.58-.41-3.59-4.14-2.86-4.41-4.66-4.42-4.74l.47-.06s.36,2,5.27,5.11l1.16.73c4,2.52,4.52,2.84,4.14,6.65a10.62,10.62,0,0,1-1.37,4.49,2.42,2.42,0,0,0-.47,1.48A1.76,1.76,0,0,1,158,106Zm-2.31-15a6.33,6.33,0,0,1,0,3.09,10.09,10.09,0,0,0-.17,2.5l0,.37c.23,2.29.75,7.6,2.47,8.55.28-.08,1.21-.41,1.08-1.36a2.81,2.81,0,0,1,.52-1.77,10.2,10.2,0,0,0,1.32-4.31c.35-3.52.11-3.67-3.93-6.21l-1.16-.73Z"/><path class="cls-2" d="M153.68,101.37a2.82,2.82,0,0,1-1.42-.46l.27-.39a1.9,1.9,0,0,0,1.66.26c.59-.3.93-1.24,1-2.72h.47c0,1.68-.45,2.73-1.22,3.12A1.57,1.57,0,0,1,153.68,101.37Z"/><g class="cls-3"><path class="cls-2" d="M150,108.64v-.47a4.09,4.09,0,0,0,3.63-2.52,2.6,2.6,0,0,0-1.38-3.34l.21-.42s2.7,1.35,1.61,3.95A4.58,4.58,0,0,1,150,108.64Z"/></g><path class="cls-2" d="M152.21,112.6l-.24-.4,1.81-1.09a1.11,1.11,0,0,0,.57-.79c.19-1.11-1.08-2.63-1.09-2.65l.36-.3c.06.07,1.42,1.7,1.2,3a1.57,1.57,0,0,1-.79,1.12Z"/><path class="cls-2" d="M155.07,111.25a3.61,3.61,0,0,1-.52,0l.07-.46a2.65,2.65,0,0,0,1.85-.39,1.36,1.36,0,0,0,.41-1.12,5.75,5.75,0,0,1,1.29-3.79l.35.31a5.38,5.38,0,0,0-1.17,3.47,1.8,1.8,0,0,1-.56,1.49A2.64,2.64,0,0,1,155.07,111.25Z"/><path class="cls-2" d="M156.12,68l-8.56-6.27-.33-9.47a18.32,18.32,0,0,1-4.82,3.47l-.13.06-.11-.09C128.15,45,99.8,42.45,99.51,42.43l-.36,0,.17-.32c.43-.79,10.69-19.33,13.62-21s6.79-.07,16.23,3.69l.87.35c-.85-2.71-5.14-8-11.48-10-5.79-1.77-9.16,3-11.17,5.77l-.52.71a12.32,12.32,0,0,0-1.53,4c-.6,2.27-1.22,4.62-3,5.56-1.15.62-1.92.76-2.4.43a1.09,1.09,0,0,1-.39-.49c-.32.86-1.78,4.77-4,11.32l0,.11-.11,0A30.31,30.31,0,0,0,83,51.71l-.82,1.09.41-1.3c0-.15,4.74-15,8.78-26.29S110.47,5.1,110.62,5l.06,0h.06c10.86,0,22.55,2.4,34.5,19.82s10.91,42.51,10.9,42.76ZM148,61.49l7.66,5.61c.07-3.44.12-26.07-10.83-42C133,7.86,121.51,5.46,110.8,5.45c-1,.59-15.11,9.08-19,19.92-3.39,9.45-7.24,21.44-8.42,25.14A30.73,30.73,0,0,1,95.2,42.25c2.45-7.36,4-11.37,4-11.41l.19-.5a15.38,15.38,0,0,1,.15-2.61c.14-1.22,1.34-2.91,2.64-4.62l.2-.52c-1.67,1.06-6,3.66-7.27,3a.77.77,0,0,1-.44-.67c-.14-1.59,2.9-5.12,5.6-7.09,1.46-1.07,3.51-2.21,5-1.6a1.28,1.28,0,0,1,.81.85c.34,1.27-1.27,3.37-3,5.6-.16.21-2.17,3.36-2.32,3.57l-.87,4.12a1.18,1.18,0,0,0,.35.89c.32.21,1,.06,1.91-.46,1.58-.85,2.17-3.1,2.75-5.27a12.6,12.6,0,0,1,1.6-4.17l.51-.71c1.95-2.73,5.58-7.83,11.7-6,6.39,2,11.33,7.67,11.92,10.75l.08.42-1.7-.68c-9.29-3.71-12.8-4.87-15.48-3.36S101.3,39.5,99.91,42c3.35.34,29.13,3.21,42.42,13.25a18.6,18.6,0,0,0,4.94-3.7l.39-.43ZM104.34,16.57a7.22,7.22,0,0,0-3.8,1.68c-2.79,2-5.06,5.09-4.95,6.36a.31.31,0,0,0,.17.29c1,.47,4.61-1.52,7-3.09l.62-.41.35-.27c1.39-1.82,2.16-2.95,1.9-3.88a.82.82,0,0,0-.53-.54A1.87,1.87,0,0,0,104.34,16.57Z"/><path class="cls-2" d="M103.67,34.18c-2.55-1.43-3.25.17-5.45.71l.7-1.11a4.57,4.57,0,0,1,5,0Z"/><path class="cls-2" d="M158.17,27.32c-4.72-13.36-11.92-19.9-19-23.15-.17.1-1.54-.09-1.72,0,7,3.15,15.49,9.89,20.23,23.3,7.43,21-2.13,39.15-2.23,39.33l.42.22C156,66.85,165.67,48.54,158.17,27.32Z"/><path class="cls-2" d="M112.88,4.16,111.68,5l.24.4,1.78-1.25A6.92,6.92,0,0,1,112.88,4.16Z"/><path class="cls-2" d="M136.09,165.55h.15c-16.51-21.41-34.29-41.65-34.56-42l-.35.31c.27.31,17.9,20.37,34.33,41.66Z"/><path class="cls-2" d="M95.06,124.16c-1-.3-3.55.32-10.14,5-3.07,2.16-7.43,3-12.48,3.9-10.33,1.91-23.19,4.28-32.29,20a98.41,98.41,0,0,0-6.37,12.61l.52,0a99.11,99.11,0,0,1,6.26-12.35c9-15.51,21.73-17.86,32-19.75,5.1-.94,9.51-1.76,12.66-4,6.83-4.82,9-5,9.65-4.92.2,0,.25.12.25.12l.43-.19A.68.68,0,0,0,95.06,124.16Z"/><path class="cls-2" d="M62.71,165.69A50.86,50.86,0,0,1,69,150.11l-.4-.25a51.34,51.34,0,0,0-6.42,15.9Z"/><path class="cls-2" d="M118.76,165.56l.61,0c-7.59-9.89-14.47-18.47-19.06-24.19-1.76-2.2-3.15-3.93-4.09-5.13-4.73-6-7.27-7.22-8.56-7.15a1.27,1.27,0,0,0-1,.48l.39.26a.84.84,0,0,1,.68-.27c1,0,3.32.85,8.13,7,.94,1.2,2.33,2.94,4.1,5.13C104.48,147.34,111.26,155.8,118.76,165.56Z"/><path class="cls-2" d="M120.33,134.4c-.13-6.13-2.57-8.12-2.59-8.14l.29-.37c.11.08,2.64,2.12,2.77,8.5Z"/><path class="cls-2" d="M125.16,131.67c-.5-2.45,1.69-5.6,1.79-5.73l.39.27s-2.17,3.12-1.71,5.37Z"/><path class="cls-2" d="M163.18,129.53c-4.26-2.81-17.38-1.84-17.51-1.83l0-.47c.55,0,13.41-1,17.81,1.91Z"/><path class="cls-2" d="M166.15,122.68a97.78,97.78,0,0,1-12.09-7.63,19.82,19.82,0,0,1-3.28-5.19,31.53,31.53,0,0,0-2.08-3.93l-.4.26a31,31,0,0,1,2,3.87,20,20,0,0,0,3.37,5.33,96.4,96.4,0,0,0,12.45,7.85C166.16,123,166.15,122.87,166.15,122.68Z"/><g class="cls-3"><path class="cls-2" d="M136.09,164.55h.15c-16.51-21.41-34.29-41.65-34.56-42l-.35.31c.27.31,17.9,20.37,34.33,41.66Z"/></g><g class="cls-3"><path class="cls-2" d="M118.76,164.56l.61,0c-7.59-9.89-14.47-18.47-19.06-24.19-1.76-2.2-3.15-3.93-4.09-5.13-4.73-6-7.27-7.22-8.56-7.15a1.27,1.27,0,0,0-1,.48l.39.26a.84.84,0,0,1,.68-.27c1,0,3.32.85,8.13,7,.94,1.2,2.33,2.94,4.1,5.13C104.48,146.34,111.26,154.81,118.76,164.56Z"/></g><polyline class="cls-4" points="166.17 123.61 166.17 4.4 139.08 4.4"/></g><path class="cls-5" d="M169.16,1V169.16H1V1H169.16m1-1H0V170.16H170.16V0Z"/><polyline class="cls-6" points="112.88 4.15 3.99 4.15 3.99 165.75 34.14 165.75"/><text class="cls-7" transform="translate(18.34 137.39)">R<tspan class="cls-8" x="14.24" y="0">E</tspan><tspan class="cls-9" x="26.86" y="0">GGIO</tspan><tspan class="cls-10"><tspan x="0" y="24.28">CALABRIA</tspan></tspan></text><text class="cls-11" transform="translate(18.34 137.39)">R<tspan class="cls-8" x="14.24" y="0">E</tspan><tspan class="cls-9" x="26.86" y="0">GGIO</tspan><tspan class="cls-10"><tspan x="0" y="24.28">CALABRIA</tspan></tspan></text></g></g></svg>