<svg xmlns="http://www.w3.org/2000/svg" xmlns:xlink="http://www.w3.org/1999/xlink" viewBox="0 0 207.09 171.16"><defs><style>.cls-1,.cls-2{fill:none;}.cls-2{stroke:#c0beba;stroke-miterlimit:10;}.cls-3{fill:#c6c6c6;}.cls-4{clip-path:url(#clip-path);}.cls-5,.cls-7,.cls-8{fill:#fff;}.cls-6{opacity:0.1;}.cls-7{opacity:0.4;}.cls-8{opacity:0.7;}</style><clipPath id="clip-path"><rect class="cls-1" x="3.83" y="3.83" width="163.08" height="163.08" transform="translate(170.75 170.75) rotate(-180)"/></clipPath></defs><title>CATANIA</title><g id="Livello_2" data-name="Livello 2"><g id="Livello_1-2" data-name="Livello 1"><rect class="cls-2" x="0.5" y="0.5" width="170.16" height="170.16"/><rect class="cls-3" x="3.83" y="3.83" width="163.08" height="163.08"/><g class="cls-4"><path class="cls-5" d="M57.94,81.25c.33-.84,2-5.08,1.89-6.53a17.77,17.77,0,0,1,1-4.08c.3-.94.58-1.83.72-2.48a6.88,6.88,0,0,0,.13-1.25c.05-1.24.11-2.52,3.13-5.33a30.1,30.1,0,0,0,2.55-2.71c1.54-1.8,2.24-2.62,7.25-3.69,4.25-.91,9.49-1.65,13.69-2.24,3-.43,5.39-.76,6.65-1,2.85-.64,9.37,0,9.44,0l.15-1.51c-.28,0-6.84-.68-9.93,0-1.2.27-3.67.62-6.53,1-4.23.6-9.49,1.35-13.8,2.26C69,54.83,68,55.8,66.22,57.89a28.39,28.39,0,0,1-2.43,2.58c-3.48,3.24-3.55,4.9-3.61,6.38a5.54,5.54,0,0,1-.1,1c-.13.59-.4,1.45-.69,2.35a16.72,16.72,0,0,0-1.07,4.64c.06.81-1,3.92-1.79,5.86Z"/><path class="cls-5" d="M71.71,65.92a2.7,2.7,0,0,1-.27-1.5c0-1.34-.12-2.42-1.44-3.08-2-1-3.33-.41-3.5-.25a.52.52,0,0,0,.12-.24l-1.47-.37a1.44,1.44,0,0,1,.9-.88,5.35,5.35,0,0,1,4.63.38C72.95,61.12,73,63.26,73,64.42a4.48,4.48,0,0,0,0,.69,11.14,11.14,0,0,1,.9,1.81l-1.42.54A9.43,9.43,0,0,0,71.71,65.92ZM73,65.13Z"/><path class="cls-5" d="M70.36,67.85l.75-1.32a4.9,4.9,0,0,1-.88-.91c-.88-1-2.2-2.62-4.07-1.9A5.72,5.72,0,0,0,63,66.94l1.43.5a4.23,4.23,0,0,1,2.24-2.31c.8-.31,1.46.38,2.36,1.46A5.42,5.42,0,0,0,70.36,67.85Z"/><path class="cls-5" d="M67.16,68.41h.12a4.37,4.37,0,0,0,2.86-1.6l-1.2-.93.6.47-.6-.47a2.86,2.86,0,0,1-1.75,1c-.62,0-1.1-1.09-1.19-1.37L64.56,66C64.84,66.89,65.71,68.41,67.16,68.41Z"/><path class="cls-5" d="M69.42,97.81s.09-1,.87-5.12a30,30,0,0,1,2.31-7.27c1-2.18,1.71-3.91,1.35-6.88a4.41,4.41,0,0,0-2-3.43c-2.19-1.36-5.28-.32-5.41-.27l.5,1.43s2.55-.86,4.12.13a2.94,2.94,0,0,1,1.25,2.32c.31,2.56-.3,4-1.23,6.09a31.33,31.33,0,0,0-2.41,7.6c-.8,4.27-.89,5.24-.89,5.28Z"/><path class="cls-5" d="M99,130.67l-2.48,0c-2,0-4.13,0-4.94,0a1.62,1.62,0,0,1-1.3-.62c-.49-.71-.25-1.69.55-4.28a7.31,7.31,0,0,1,1.57-2.86A2.25,2.25,0,0,0,93,120.7,83.94,83.94,0,0,1,93.32,106c.53-3.09-.05-6.4-1.31-11.43-.89-3.57-2.36-3.43-5.58-3.14-.85.08-1.82.17-2.87.18-4.47.07-7,1-8.09,3-.67,1.25-1,1.57-1.9,1.64a3.25,3.25,0,0,0-1.67.64c-2.31,1.44-3.15,2.37-3.34,3.69-.29,2-2,2-3.59,2h-.84a2,2,0,0,1-1.67-.64c-.56-.72-.31-1.71.08-3.22.15-.58.32-1.23.46-2,.62-3.49,2.64-7.08,4.42-10.24.33-.58.66-1.17,1-1.74-7.78,2.44-19.87.41-22.91-1.35-1.89-1.1-2.72-2.22-2.34-3.15s1.68-1.11,3.87-.55c8.84,1.42,18.62-.9,19.54-1.13a4.56,4.56,0,0,1,3.57-.28,2.55,2.55,0,0,1,1.35,1.93c.31,1.6-1,4-2.73,7S65.07,93.72,64.49,97c-.16.78-.33,1.45-.48,2a7,7,0,0,0-.35,1.9,1.34,1.34,0,0,0,.47.06H65c1.81,0,2-.06,2.06-.67.29-2.05,1.7-3.3,4-4.76a4.67,4.67,0,0,1,2.36-.87h.14a3,3,0,0,0,.54-.84c1.34-2.5,4.33-3.7,9.41-3.78,1,0,1.89-.1,2.75-.18,3.21-.29,6-.55,7.19,4.28,1.31,5.23,1.91,8.7,1.34,12.06a83.08,83.08,0,0,0-.3,14.3,3.71,3.71,0,0,1-1,3.35,5.82,5.82,0,0,0-1.28,2.33,16.19,16.19,0,0,0-.74,2.92h.14c.76.05,2.92,0,4.83,0l2.49,0c2.16,0,10.46.66,10.81.69l-.12,1.51C109.58,131.35,101.08,130.67,99,130.67ZM69.09,83.35a5.91,5.91,0,0,0,.9-2.89c-.13-.65-.43-.8-.53-.85a3.29,3.29,0,0,0-2.3.31L67,80c-.43.11-10.7,2.71-20.27,1.17h-.07a6.26,6.26,0,0,0-2-.27A5.57,5.57,0,0,0,46.24,82c2.83,1.64,15.65,3.62,22.68.87Z"/><polygon class="cls-5" points="90.93 134.1 113.82 132.63 113.05 130.7 111.67 131.25 92.45 132.48 92.45 130.6 90.93 130.6 90.93 134.1"/><path class="cls-5" d="M110.73,131.36h2.53l.18-.5c.1-.27.94-2.69-.06-4.4l-.24-.42a6.7,6.7,0,0,0-2.65-2.95V107.65H109V124l.41.21a5.16,5.16,0,0,1,2.44,2.58l.25.43a4,4,0,0,1,.09,2.62h-1.43Z"/><path class="cls-5" d="M109.83,124.47l.72-1.34c-4.25-2.29-15.5-.64-16-.57l.22,1.5C94.91,124,106,122.41,109.83,124.47Z"/><path class="cls-5" d="M96,78.26l.91,0a9.13,9.13,0,0,0,6.49-3.56c1.64-2.08,3.36-5.9,2.2-12.23C103.65,52,94.81,52.71,89,53.19l-.48,0a12,12,0,0,0-8.86,4.55l1.26.85a10.45,10.45,0,0,1,7.72-3.89l.49,0c5.62-.46,13.31-1.08,15,8,1.06,5.77-.45,9.17-1.9,11a7.6,7.6,0,0,1-5.38,3C92.68,76.94,87,75.4,85.59,73l-1.3.78C85.95,76.57,91.46,78.26,96,78.26Z"/><path class="cls-5" d="M97.07,74.11c3,0,5-3.39,5.71-6.9.91-4.5-.16-9.63-4-10.73-10.93-3.57-18,4.69-18.06,4.77l1.16,1-.58-.49.58.49a15.51,15.51,0,0,1,16.46-4.3c3,.85,3.71,5.16,2.94,9-.59,2.92-2.26,5.94-4.53,5.67a15.17,15.17,0,0,1-6.18-1.8c1.1-1,2.84-3,1.92-4.85s-2.85-3.63-7.25-2.36L85.68,65c2.76-.8,4.55-.28,5.47,1.58.53,1.08-1.26,2.88-2.22,3.58l-.65.48.52.62c.18.21,1.9,2.09,7.79,2.8Z"/><path class="cls-5" d="M97,70.09c.12-.31,3-7.53-1.92-9.8-4.64-2.15-9.75,1.3-10,1.44L86,63l-.43-.63L86,63s4.62-3.11,8.46-1.32c3.59,1.67,1.18,7.79,1.15,7.86Z"/><path class="cls-5" d="M86.83,70.51l-.44-.16-.06-.46c0-.2-.29-2-1.91-1.94L82.7,68l1.12-1.31c.1-.12,2.45-2.81,5.7-1.49a1.91,1.91,0,0,1,1.28,2.58c-.48,1.25-2.39,2.79-3.6,2.79A1.1,1.1,0,0,1,86.83,70.51Zm.39-1.45Zm-1.15-2.24a3.67,3.67,0,0,1,1.59,2.08c.66-.35,1.67-1.2,1.77-1.82,0-.09,0-.26-.48-.48a3.19,3.19,0,0,0-1.21-.24A3.45,3.45,0,0,0,86.07,66.83Z"/><path class="cls-5" d="M83.77,73.82a1.52,1.52,0,0,0,.5-.08l-.51-1.43a.28.28,0,0,1,.2.14,1.17,1.17,0,0,1,0-.51c.39-2.06-1.6-3.53-1.68-3.6l-.08-.06-.09,0a1,1,0,0,1-.57-.56c-.46-1.08.2-3.15.46-3.8l-1.4-.58c-.13.31-1.25,3.12-.46,5a2.49,2.49,0,0,0,1.31,1.33c.25.21,1.21,1.07,1,2a1.86,1.86,0,0,0,.41,1.87A1.3,1.3,0,0,0,83.77,73.82Z"/><path class="cls-5" d="M65.2,75.09l1.4-.59A2.72,2.72,0,0,0,65,73.07a4.22,4.22,0,0,0-3.47.69l.78,1.3a2.88,2.88,0,0,1,2.22-.55A1.23,1.23,0,0,1,65.2,75.09Z"/><path class="cls-5" d="M35.74,104.34h.37c14.2-.15,23.6-4.75,25-6,.46-.43,1.62-.1,2.11.13l.65-1.37c-.25-.12-2.45-1.1-3.78.13-.73.68-9.49,5.48-24,5.63h-.37c-12.86,0-18.25-7.22-21.48-11.56l-.73-1A15.77,15.77,0,0,0,10,87c-.58-.42-1.18-.85-1.2-1.09,0-.06,0-.32.57-.95,2-2.28,9-2.36,10.22-1.74.36.18.47,2,.53,2.87A8.5,8.5,0,0,0,20.89,90a4.1,4.1,0,0,0,2.35,1.9,19.7,19.7,0,0,0,2.23,1.76l.47.32.44-.37s.27-.17,1.59.61l.29.17.32-.1a3.39,3.39,0,0,1,1.85.28l.47.21.37-.37c.06-.05.75-.62,2.09.13l.41.23.39-.26c.34-.23.47-.22,1.61,0l.63.15.29-.26c.47-.41.47-.41.93-.24a7.78,7.78,0,0,0,1.6.42l.72.11.11-.56a8.79,8.79,0,0,1,3.08-.83l.37-.05.18-.32c.48-.85,2-.25,2.05-.25l.53.27.4-.45a8.65,8.65,0,0,1,3.1-1.83c.86-.38,1.83-.81,2.9-1.38,3.11-1.68,3.59-3.8,3.61-3.89l-1.49-.31.74.15-.74-.17c0,.06-.4,1.55-2.84,2.88-1,.55-2,1-2.79,1.33a11.57,11.57,0,0,0-3.27,1.84,3.12,3.12,0,0,0-3.31.73A7.84,7.84,0,0,0,39,93a6.75,6.75,0,0,1-.89-.27A1.87,1.87,0,0,0,36,93a3.32,3.32,0,0,0-2.28,0,3.24,3.24,0,0,0-3.08,0,4.7,4.7,0,0,0-2.15-.26A3.36,3.36,0,0,0,26,92.1a16.35,16.35,0,0,1-1.82-1.49l-.25-.25-.28,0s-.66-.11-1.44-1.27A8.11,8.11,0,0,1,21.61,86c-.12-1.83-.23-3.56-1.36-4.13-1.58-.79-9.48-.81-12,2.1a2.91,2.91,0,0,0-.94,2.12c.1.9.86,1.45,1.82,2.15a14.26,14.26,0,0,1,3.23,3l.72,1C16.22,96.44,22.12,104.34,35.74,104.34Z"/><path class="cls-5" d="M56.41,89.2a24.58,24.58,0,0,0,7-1.1l-.48-1.44c-.05,0-5.29,1.72-9.55.69L53,88.83A14.71,14.71,0,0,0,56.41,89.2Z"/><path class="cls-5" d="M59,92.21l.12-1.51c-.05,0-5.51-.44-8.28-1.86l-.69,1.35C53.2,91.74,58.77,92.19,59,92.21Z"/><path class="cls-5" d="M55.48,96.09l.41-1.46a76.65,76.65,0,0,1-9.47-3.32l-.66,1.37A76.47,76.47,0,0,0,55.48,96.09Z"/><path class="cls-5" d="M51.06,98.5l.2-1.5-.1.75.1-.75a13.59,13.59,0,0,1-7.66-4.93l-1.17,1C46.42,97.82,50.87,98.47,51.06,98.5Z"/><path class="cls-5" d="M46.73,100.56l.72-1.33a26.13,26.13,0,0,1-7.13-6l-1.2.93A27.21,27.21,0,0,0,46.73,100.56Z"/><path class="cls-5" d="M42.93,102.1l.94-1.19c-.05,0-5.42-4.3-7.45-7.58l-1.29.8C37.31,97.64,42.71,101.92,42.93,102.1Z"/><path class="cls-5" d="M36.8,100.49l.93-1.2-.46.6.47-.6s-1.58-1.3-3.22-5.44l-1.41.56C34.92,99,36.72,100.44,36.8,100.49Z"/><path class="cls-5" d="M33.2,100.65l1.22-.9C33.12,98,31.36,95,31.49,93.92L30,93.74C29.73,95.85,32.62,99.87,33.2,100.65Z"/><path class="cls-5" d="M30.13,100,31.32,99a11.94,11.94,0,0,1-2.21-5.59l-1.51.14A13.29,13.29,0,0,0,30.13,100Z"/><path class="cls-5" d="M28,99l.2-1.5a.46.46,0,0,1,.17.05s-.88-.61-1.68-4.74l-1.49.29C26.12,98.07,27.32,98.95,28,99Z"/><path class="cls-5" d="M22.13,96.42l1.4-.59-.7.29.7-.29s-1.13-2.8.54-4.1l-.94-1.19C20.56,92.57,22.07,96.27,22.13,96.42Z"/><path class="cls-5" d="M70,96.34l1.46-.42a.42.42,0,0,1,0,.08c-.08-.84.5-7.5,3.11-10.66,3.38-4.11,2-7.62.9-9.34l-1.27.82c1.09,1.68,1.84,4.36-.79,7.55C70.32,88.14,69.79,95.6,70,96.34Z"/><path class="cls-5" d="M71.77,95.2l1.51-.12-.76.06.76-.06a9.92,9.92,0,0,1,3.18-7.63c.77-.65,1.47-1.18,2.1-1.65,2.56-1.92,4.11-3.08,3.52-7.89-.72-5.87-4.85-7.61-5-7.68l-.57,1.4c.14.06,3.48,1.52,4.09,6.47.48,3.93-.51,4.68-2.93,6.49-.64.48-1.37,1-2.17,1.71A11.29,11.29,0,0,0,71.77,95.2Z"/><path class="cls-5" d="M76.34,92.11a1.07,1.07,0,0,0,.46-.9c.19-1.24.77-5,7.7-6C93,84,96.77,85.44,97.14,86.67l1.46-.43c-.8-2.7-6.41-3.7-14.3-2.55-5.34.78-8.36,3.23-9,7.28,0,.09,0,.16,0,.2a.68.68,0,0,1,.32-.39Z"/><path class="cls-5" d="M103.23,37.86h5.4a5.89,5.89,0,0,1,5.32,3h4.48A4.32,4.32,0,0,1,123,37.54c2.93,0,4.21,1.62,4.62,2.88h5c.39-1,1.63-2.88,5.43-2.88h5.4v7.75H125.09l.12-.86a2.13,2.13,0,0,0-1.94-2.5,2,2,0,0,0-1.64.37,3.51,3.51,0,0,0-.93,2.25l0,.74H103.23Zm16.5,4.47H113l-.19-.47a4.37,4.37,0,0,0-4.15-2.48h-3.89v4.4h14.52A5.52,5.52,0,0,1,119.73,42.33ZM142,39.06H138.1c-3.83,0-4.09,2.1-4.1,2.17l-.05.7h-7.61l-.08-.67c0-.22-.33-2.2-3.26-2.2s-3.13,2.29-3.15,2.55l0,.56a3.62,3.62,0,0,1,.82-1,3.48,3.48,0,0,1,2.83-.73,3.52,3.52,0,0,1,3.25,3.35H142Z"/><path class="cls-5" d="M52.17,89.2l.05-1.52c-.1,0-9.71-.39-12.64-3.67l0,0a2.72,2.72,0,0,1-.3-.34,2.46,2.46,0,0,1,1.31.32c1.69,1,7,1.44,10.39,1.19l-.11-1.51c-3.66.27-8.37-.33-9.52-1s-2.8-.78-3.45.08c-.28.37-.57,1.17.61,2.32C41.85,88.78,51.75,89.18,52.17,89.2Z"/><path class="cls-5" d="M103.73,43.77h4.61V54.48h-4.61Zm3.09,1.52h-1.58V53h1.58Z"/><path class="cls-5" d="M138.28,43.77h4.61V54.48h-4.61Zm3.09,1.52h-1.58V53h1.58Z"/><rect class="cls-5" x="107.58" y="52.15" width="31.45" height="1.52"/><path class="cls-5" d="M124.24,119a6.83,6.83,0,0,0,6.35-5,5.53,5.53,0,0,0,4,.27c2.44-.57,2.39-1.95,2.35-3.05a3.11,3.11,0,0,1,1.27-3,13.62,13.62,0,0,1,3.34-2.34l.85.32V53.72h-1.52v50.8a16.64,16.64,0,0,0-3.64,2.54,4.61,4.61,0,0,0-1.81,4.23c0,1,0,1.23-1.18,1.52-2.87.67-3.52-.63-3.55-.68l-1.46-3.55v3.85a5.24,5.24,0,0,1-5,5,5.08,5.08,0,0,1-5.15-4.85v-1l-1,.31c-2.1.66-3.3.8-3.9.47s-.92-1.45-1.36-3.22c-.85-3.46-5.18-4.45-6.91-4.71V53.72h-1.52v52.09l.7.05c.05,0,5.47.47,6.25,3.65.48,1.95.85,3.49,2.08,4.18.9.51,2.12.5,4.19-.07A6.72,6.72,0,0,0,124.24,119Z"/><path class="cls-5" d="M116,110.41a8,8,0,0,0,3.15-.92l-.64-1.38c-1.84.85-2.6.86-2.93.71-.14-.07-.36-.23-.56-.92v0c-1.49-4.23-4.37-5.38-5.71-5.69V52.91h-1.52v50.62l.72,0c.14,0,3.47.26,5.07,4.77a2.74,2.74,0,0,0,1.38,1.86A2.46,2.46,0,0,0,116,110.41Z"/><path class="cls-5" d="M131.53,110.41a2.46,2.46,0,0,0,1-.21,2.74,2.74,0,0,0,1.38-1.86c1.6-4.51,4.93-4.76,5.08-4.77l.71,0V52.91h-1.52v49.25c-1.35.31-4.22,1.46-5.71,5.69v0c-.2.69-.41.85-.56.92-.32.15-1.09.14-2.93-.71l-.64,1.38A8,8,0,0,0,131.53,110.41Z"/><path class="cls-5" d="M166.25,106.45l.38-1.62a73.83,73.83,0,0,0,1.23-7.33l.23-.9c2.13-8.23,5.71-22-.18-33.35C161.8,51.47,143,50.14,142.17,50.09l-.1,1.51c.19,0,18.77,1.33,24.48,12.35,5.62,10.84,2.14,24.26.06,32.27l-.26,1.05c-.29,2.47-.67,4.6-.93,5.89-1.61-1.24-5.15-2.87-11.49-.91l.45,1.45c8-2.47,10.77,1.24,10.88,1.4Z"/><path class="cls-5" d="M173.17,134.12l.17-.63c1.19-4.32-3.52-7-5-7.68l-1.67-21.2-1.51.12,1.75,22.11.43.18c.05,0,5,2.1,4.68,5.43a225.66,225.66,0,0,0-28.33-1.28c.76-2.3,2.54-3,4-3.64,1.06-.44,2.06-.85,2.14-1.88.14-1.78.23-16.51-.61-25.66a36.37,36.37,0,0,0-5.88-16.45l-1.23.88a35.51,35.51,0,0,1,5.6,15.71c.87,9.42.72,24,.61,25.4a5,5,0,0,1-1.2.6c-1.66.69-4.44,1.84-5.14,5.69l-.17.92.94,0A223.77,223.77,0,0,1,172.52,134Z"/><path class="cls-5" d="M150.84,126.43c.09,0,9.29-2.68,13.39-.77l.59.27.36-.54a6.83,6.83,0,0,0-.68-8.39l-1.11,1a5.42,5.42,0,0,1,.85,6c-4.8-1.65-13.44.84-13.82.95Z"/><path class="cls-5" d="M164.83,96.22l1.51-.18c-.1-.89-2.58-21.8-6.9-25.68l-1,1.13C161.66,74.4,164.14,90.33,164.83,96.22Z"/><path class="cls-5" d="M153.54,100l1.5-.22c-2.61-17.51-12.3-20.41-12.71-20.53l-.41,1.46.2-.73-.21.73C142,80.78,151.09,83.58,153.54,100Z"/><path class="cls-5" d="M146.24,126.49h1.52V108.25a.64.64,0,0,0,.65-.5c.27-.73-.44-1-1.12-1.31l-1-.43v.11c-.61-.79-.57-2.8-.54-4.07,0-1.57.06-2.52-.74-2.83a9.39,9.39,0,0,0-3.41,0l.21,1.5a11,11,0,0,1,2.41-.1c0,.33,0,1,0,1.43,0,2.19-.11,5.18,2,5.86l0,0Z"/><rect class="cls-5" x="110.66" y="108.63" width="1.52" height="16.18"/><path class="cls-5" d="M117.54,101.63l-.09-.16V90.11l1.15.7s2.94,1.7,10.6-.09l.93-.22v11.84l-.15.2c-.07.09-1.66,2.15-6.19,2.15S117.61,101.75,117.54,101.63Zm11.08-9.23c-5.11,1.07-8.15.62-9.65.17v8.49c.34.5,1.68,2.1,4.83,2.1,3,0,4.39-1,4.83-1.39Z"/><path class="cls-5" d="M125.31,107.12c2.72,0,5.11-.64,5.9-2.09a2.8,2.8,0,0,0-.88-3.86l-.8,1.29a1.29,1.29,0,0,1,.35,1.85c-.66,1.24-4.91,1.82-9.19.69a3.19,3.19,0,0,1-2.2-1.41,1.88,1.88,0,0,1,0-1.45l-1.37-.66a3.41,3.41,0,0,0,0,2.72,4.51,4.51,0,0,0,3.2,2.26A20.16,20.16,0,0,0,125.31,107.12Z"/><path class="cls-5" d="M124.29,108.41c5.67,0,8.53-1.2,8.77-3.67a4,4,0,0,0-.93-3,3.1,3.1,0,0,0-2.36-1v1.52a1.6,1.6,0,0,1,1.23.52,2.48,2.48,0,0,1,.54,1.88c-.15,1.54-2.9,2.35-7.74,2.29-6.27-.07-6.56-2.34-6.72-3.56a1.46,1.46,0,0,1,.78-1.59l-.6-1.39a3,3,0,0,0-1.69,3.18c.29,2.23,1.49,4.8,8.21,4.88Z"/><path class="cls-5" d="M123.06,109.39c5.27,0,8.35-.62,9.69-1.94a3,3,0,0,0,.84-2.37v-1.74h-1.52v1.74a1.57,1.57,0,0,1-.4,1.29c-.73.72-3,1.58-9.43,1.5-3.48,0-5.68-.75-6.38-2.06s.39-3.18.41-3.2l-1.27-.83c-.07.1-1.64,2.55-.47,4.74,1,1.85,3.58,2.82,7.7,2.87Z"/><path class="cls-5" d="M122.92,93.06c-5.52-.07-6.81-1.8-7-2.15l-.1-.18V87.17l1.49-.5,0-.07a2.58,2.58,0,0,1,.2-.9l2.64-6.25L119,86.11c0,.23-.08.45-.13.66a1.09,1.09,0,0,0,.19.53c.28.41,1.29,1.37,4.68,1.32,4.52-.07,5.8-1.87,5.81-1.87l1.23-1.94.2,2.75.68.08v3.46l-.34.22c-.11.07-2.7,1.75-8,1.75ZM130.1,89l-.59-.07v-.19a11,11,0,0,1-5.78,1.42c-3.74.06-5.29-1-5.94-2h-.21l-.25.09v2c.38.34,1.77,1.25,5.62,1.3a15.88,15.88,0,0,0,7.16-1.31Z"/><path class="cls-5" d="M122,91.2a17.29,17.29,0,0,0,3.84-.49c3.35-.62,5.11-1.43,5.19-2.43l-1.51-.13a.5.5,0,0,1,.08-.25s-.57.67-4.06,1.32c-6.37,1.46-7.18-1-7.19-1l-1.47.36C116.86,88.68,117.51,91.2,122,91.2Z"/><path class="cls-5" d="M56.31,150.55l.45-.09c.17,0,17.28-3.53,42.48-4.44l-.05-1.52a292.32,292.32,0,0,0-42.24,4.37,3.12,3.12,0,0,1-.54-2.14,2.43,2.43,0,0,1,1.46-1.56c3.45-1.72,5.75-3.2,5.67-7.41a60.7,60.7,0,0,1,9.71-.65l0-1.52a61,61,0,0,0-10.67.78l-.68.11.05.69c.27,3.7-1.25,4.86-4.8,6.63a3.85,3.85,0,0,0-2.26,2.6A5,5,0,0,0,56,150.2Z"/><path class="cls-5" d="M68,148l.91-1.21a1.76,1.76,0,0,1-.62-1.31c0-1,.75-2.09,2.2-3.28,3.8-1.94,4.15-2.54,4.58-5.33.05-.33.11-.68.17-1.08a429.38,429.38,0,0,1,53.47-3.11c27.32.17,43.76,1,60.06,3-.58,1.49-.83,3.48.69,4.55a8.85,8.85,0,0,0,2.31.94c1.55.48,3.48,1.09,4.13,2.4a3.64,3.64,0,0,1-.12,2.9l1.42.52a5.11,5.11,0,0,0,.05-4.1c-.94-1.9-3.21-2.61-5-3.18a8.39,8.39,0,0,1-1.89-.73c-1.24-.86.21-3.52.23-3.55l.55-1-1.11-.14c-16.71-2.15-33.32-3-61.28-3.19a426.74,426.74,0,0,0-54.23,3.19l-.54.07-.1.53c-.13.65-.21,1.19-.28,1.67-.36,2.3-.38,2.49-3.84,4.25l-.13.09c-1.9,1.55-2.85,3.09-2.82,4.57A3.31,3.31,0,0,0,68,148Z"/><path class="cls-5" d="M205.69,149.49a1.26,1.26,0,0,0,1.35-.9c.52-1.81-3.16-5.39-5.87-6.28s-2.28-4.44-2.25-4.59L199,137l-.76-.12-7.68-1.24-.24,1.5,7,1.12c-.09,1.83.51,4.6,3.36,5.53a9.67,9.67,0,0,1,4.83,4.21l-.27-.05c-7.52-1.88-18.27-3-26-3.58-7.3-.57-15.41-.92-16.06-.7l.48,1.44-.09,0c1.18-.15,27.47.84,41.28,4.29A3.31,3.31,0,0,0,205.69,149.49Z"/><path class="cls-5" d="M62.23,143.78c2.85-.37,5.29-.49,5.31-.49l-.07-1.52c-.1,0-2.52.12-5.44.5Z"/><path class="cls-5" d="M71.76,143.29c.21,0,20.81-2.77,31.53-2.86v-1.52c-10.82.09-31.51,2.84-31.72,2.87Z"/><path class="cls-5" d="M190.18,141.85l.32-1.48c-5.45-1.18-31.64-2-32.75-2l0,1.52C158,139.89,184.86,140.69,190.18,141.85Z"/><rect class="cls-5" x="196.53" y="140.71" width="1.52" height="3.3" transform="translate(34.45 323.12) rotate(-83.8)"/><g class="cls-6"><path class="cls-5" d="M175.78,165.59l1.47-.39a46.79,46.79,0,0,0-8.94-16.35c-6.2-7.45-17.61-16.33-36.78-16.33s-30.34,8.89-36.33,16.34a45.26,45.26,0,0,0-8.48,16.36l1.48.35a44.61,44.61,0,0,1,8.22-15.8c8.41-10.43,20.22-15.72,35.1-15.72,18.58,0,29.62,8.58,35.61,15.78A46,46,0,0,1,175.78,165.59Z"/></g><path class="cls-5" d="M171.79,165.59l1.47-.38a43.72,43.72,0,0,0-8.19-15.2c-5.68-6.93-16.15-15.18-33.72-15.18S103.52,143.09,98,150a42.32,42.32,0,0,0-7.77,15.21l1.48.34a41.61,41.61,0,0,1,7.52-14.65c7.68-9.67,18.48-14.57,32.08-14.57,17,0,27.08,8,32.55,14.63A42.9,42.9,0,0,1,171.79,165.59Z"/><g class="cls-6"><path class="cls-5" d="M169.64,165.8l1.47-.38a41,41,0,0,0-7.79-14.3c-5.4-6.52-15.34-14.28-32-14.28s-26.43,7.77-31.65,14.29a39.66,39.66,0,0,0-7.38,14.31l1.48.35A38.9,38.9,0,0,1,100.87,152c7.28-9.07,17.52-13.68,30.42-13.68s23.28,4.6,30.83,13.69A40.26,40.26,0,0,1,169.64,165.8Z"/></g><path class="cls-5" d="M166.57,165.79l1.47-.38a38.4,38.4,0,0,0-7.15-13.32c-5-6.07-14.09-13.31-29.43-13.31S107.18,146,102.39,152.1a37.19,37.19,0,0,0-6.78,13.33l1.48.34A36.37,36.37,0,0,1,103.62,153c6.67-8.43,16-12.7,27.84-12.7s21.31,4.28,28.21,12.71A37.62,37.62,0,0,1,166.57,165.79Z"/><g class="cls-6"><path class="cls-5" d="M160.43,165.59l1.47-.39a31.83,31.83,0,0,0-6.06-11.11c-4.2-5.06-11.93-11.1-24.92-11.1s-20.56,6-24.62,11.11a30.8,30.8,0,0,0-5.75,11.12l1.48.35A29.86,29.86,0,0,1,107.53,155c5.6-7,13.47-10.49,23.39-10.49S148.83,148,154.63,155A30.92,30.92,0,0,1,160.43,165.59Z"/></g><path class="cls-5" d="M158.28,165.8l1.46-.4a28.6,28.6,0,0,0-5.66-10.08c-3.92-4.59-11.13-10.05-23.23-10.05s-19.16,5.47-23,10.06a27.63,27.63,0,0,0-5.37,10.09l1.47.36a26.63,26.63,0,0,1,5.1-9.53c5.2-6.28,12.52-9.46,21.74-9.46C152.89,146.79,158.23,165.61,158.28,165.8Z"/><g class="cls-6"><path class="cls-5" d="M154.91,165.81l1.46-.4a24.27,24.27,0,0,0-4.92-8.61c-3.41-3.91-9.68-8.57-20.19-8.57s-16.66,4.67-20,8.58a23.43,23.43,0,0,0-4.67,8.62l1.47.36a22.34,22.34,0,0,1,4.4-8.06c4.49-5.3,10.79-8,18.75-8s14.35,2.69,19,8A23.2,23.2,0,0,1,154.91,165.81Z"/></g><path class="cls-5" d="M151.23,165.62l1.45-.43c0-.13-4.2-13.47-21.21-13.47s-20.76,13.36-20.79,13.5l1.47.39c.14-.51,3.5-12.37,19.33-12.37S151.07,165.11,151.23,165.62Z"/><rect class="cls-5" x="116.57" y="137.01" width="1.52" height="16.14" transform="translate(-45.46 53.9) rotate(-21.78)"/><rect class="cls-5" x="129.05" y="134.35" width="1.52" height="16.16" transform="translate(-7.26 6.98) rotate(-2.99)"/><rect class="cls-5" x="133.51" y="142.83" width="16.46" height="1.52" transform="translate(-30.95 247.94) rotate(-76.51)"/><rect class="cls-5" x="145.78" y="149.77" width="17.87" height="1.52" transform="translate(-60.31 169.4) rotate(-49.23)"/><rect class="cls-5" x="153.04" y="158.3" width="17.35" height="1.52" transform="translate(-58.89 106.29) rotate(-31.07)"/><rect class="cls-5" x="99.63" y="150.38" width="1.52" height="17.35" transform="translate(-87.66 162.94) rotate(-58.93)"/><rect class="cls-5" x="106.02" y="143.58" width="1.52" height="16.88" transform="translate(-76.11 119.41) rotate(-44.81)"/><path class="cls-5" d="M119.57,112.13h0c-.12-3.17,2.18-3.68,4.2-3.78,1.54-.07,3.53.49,4.23,3.58a3,3,0,0,1-.72,2.46,4,4,0,0,1-3.06,1.58C120.29,116,119.62,113.56,119.57,112.13Zm4.27-2.26c-2.41.11-2.8.8-2.75,2.21,0,1,.4,2.38,3.13,2.38a2.52,2.52,0,0,0,1.87-1,1.59,1.59,0,0,0,.43-1.18c-.37-1.64-1.17-2.41-2.5-2.41Z"/><path class="cls-5" d="M113.45,48.06a1.28,1.28,0,0,1-.92-.79,2.27,2.27,0,0,1,.5-1.91,1.28,1.28,0,0,1,1.33-.52,2.1,2.1,0,0,1,1.56,1.55,1.37,1.37,0,0,1-.36,1.33,1.82,1.82,0,0,1-1.29.45A3.17,3.17,0,0,1,113.45,48.06Zm.72-1.68a2.29,2.29,0,0,0-.14.26,1.3,1.3,0,0,0,.38,0A.68.68,0,0,0,114.17,46.38Z"/><path class="cls-5" d="M132.14,48.15A1.5,1.5,0,0,1,131,47a1.76,1.76,0,0,1,.5-1.68,1.62,1.62,0,0,1,1.52-.35,2.19,2.19,0,0,1,1.49,1.23,1.28,1.28,0,0,1-.3,1.32,2.17,2.17,0,0,1-1.58.67A2,2,0,0,1,132.14,48.15Zm.53-1.68s-.09,0-.12,0-.06.16,0,.21a.66.66,0,0,0,.45-.06A.8.8,0,0,0,132.67,46.47Z"/><polygon class="cls-5" points="115.04 41.57 116.55 41.57 116.55 22.78 105.94 25.74 105.94 38.3 107.46 38.3 107.46 26.89 115.04 24.78 115.04 41.57"/><polygon class="cls-5" points="130.12 41.18 131.64 41.18 131.64 24.74 137.26 26.1 137.26 37.83 138.78 37.83 138.78 24.91 130.12 22.82 130.12 41.18"/><polygon class="cls-5" points="118.03 41.57 119.55 41.57 119.55 23.02 115.8 23.02 115.8 24.54 118.03 24.54 118.03 41.57"/><polygon class="cls-5" points="127.24 40.82 128.76 40.82 128.76 24.54 130.88 24.54 130.88 23.02 127.24 23.02 127.24 40.82"/><rect class="cls-5" x="118.79" y="23.02" width="9.21" height="1.52"/><path class="cls-5" d="M129.3,88.46c-1.26-.24-1.91-.44-2.1-.9a1.49,1.49,0,0,1-1.24.34l-.09,0c-.68-.15-1.09-.23-1.25-.73a1,1,0,0,1,.32-1,2.61,2.61,0,0,0,.29-.34,7.75,7.75,0,0,0,.64-2.41l0-.34-1.75.22c-.08,2-.49,4.16-1.83,4.26l-2.49.19.66-1.22A5.8,5.8,0,0,0,121,84a1.7,1.7,0,0,0-.63-1.34,2.91,2.91,0,0,1-.84-1.37,1.74,1.74,0,0,1-.76.18c-.13,0-.41,0-.71.06-1.6.16-4.27.43-5.1-1.13a2.22,2.22,0,0,0-.59-.73c-.06,1.41-1,1.8-1.43,1.8h-.52l-.74-1.85v-.09a3,3,0,0,1,.76-2.56,2.41,2.41,0,0,1,2.47-.17,18.27,18.27,0,0,1,2.13,1,5.21,5.21,0,0,0,1.07.47.94.94,0,0,0,.12-.19,3.55,3.55,0,0,0,.27-1.16,2.31,2.31,0,0,1,2.19-2.44,16.41,16.41,0,0,0,2.29-.58,15.56,15.56,0,0,1,5.52-.91,12,12,0,0,1,6.93,3.49c.49.72,1.09,5.28-1.13,7.63a8.19,8.19,0,0,0-2.11,3.78l-.12.77Zm-1.09-.57h0Zm.65-5.21a20.44,20.44,0,0,0,2.3-2.47l1,.75a8.48,8.48,0,0,0,0-3.7c-.42-.47-3.15-2.66-5.75-2.82a14.38,14.38,0,0,0-5,.85,17.34,17.34,0,0,1-2.52.63c-.77.11-.79.26-.89,1.11a4.93,4.93,0,0,1-.41,1.65,1.74,1.74,0,0,1-1,1c-.7.23-1.38-.12-2.25-.56l-.7-.35a4,4,0,0,1,.66.91c.35.66,2.8.41,3.6.33a8.66,8.66,0,0,1,.87-.06,1.41,1.41,0,0,0,.41-.26,1.13,1.13,0,0,1,1.22-.3c.56.27.56,1,.56,1.32s.14.53.49.9a3.16,3.16,0,0,1,1,2.38c0,.22,0,.44,0,.64a15,15,0,0,0,.15-2V82l5-.63-.3,2.29a13.69,13.69,0,0,1-.33,1.71,13.79,13.79,0,0,0,.93-2.06l.37-1Zm1.71,1a1.27,1.27,0,0,0-.44.58l-.05.12c.16-.23.33-.47.52-.71Zm.46-.52.17-.18a3.7,3.7,0,0,0,.74-1.21Zm-19.62-5.06a.56.56,0,0,0-.16.27,1.22,1.22,0,0,1,.53-.34A.54.54,0,0,0,111.41,78.13Z"/><path class="cls-5" d="M120.82,80.45a1.67,1.67,0,0,0,.88-.28,4.13,4.13,0,0,0,1.77-3.4,1.58,1.58,0,0,0-.71-1.41c-1.11-.7-3,.11-3.61.38l.65,1.37-.32-.69.32.69a3.64,3.64,0,0,1,2.15-.47s0,0,0,.13a2.68,2.68,0,0,1-.91,2,5.12,5.12,0,0,1,0-1l-1.52-.08c-.05,1,.05,2.23.84,2.62A1.1,1.1,0,0,0,120.82,80.45Z"/><path class="cls-5" d="M118.72,71.95c-.13-.77-.23-1.38.32-1.71a1.05,1.05,0,0,1,1.23.25,3.6,3.6,0,0,0,.65.42,5.81,5.81,0,0,1-.5-.74l-.21-.38c-.78-1.42-1.25-2.28-.62-2.83s1.21,0,1.43.15.5.39.87.69c0-.18,0-.39,0-.61-1.17-.83-1.68-1.6-1.53-2.28,0-.11.07-.26.11-.43a5,5,0,0,0,.3-2,9.44,9.44,0,0,1-2.52-1.92l-.55-.58.6-.52a42.76,42.76,0,0,1,4.05-3.19l.11-.06c.78-.43,1.93-1.06,2.93,0a1.77,1.77,0,0,1,.72-.52.46.46,0,0,0,.26-.33l-1.16-.61-.63-.33.72-1.34.62.32c.29.14.65.31,1,.46a1.59,1.59,0,0,1,.55.36l1,.54.35,0s0,.12,0,.25c3.69,2,3.68,2.25,3.66,2.7,0,.7-.71.84-1.36,1a4.61,4.61,0,0,0-1.58.52,3.41,3.41,0,0,1,.57,2.57l-.08.69-1.16,0c.62,1.54.79,2.5.51,3a11.62,11.62,0,0,1,.63,1l.06.11c.39.69.64,1.15.25,1.61a.79.79,0,0,1-.79.27.81.81,0,0,1,.22,1.08c-.14.23-.49.56-1.22.21a18.5,18.5,0,0,1-1.73-1.05A1,1,0,0,1,127,69a2.81,2.81,0,0,1-.72,2,9.63,9.63,0,0,1,1.7-.15c2,0,2.19,1.06,2.2,1.39,0,.83-.83,1.5-1.92,1.54a5,5,0,0,1-2.49-1.1,8.12,8.12,0,0,0-.8.29,3,3,0,0,1-.39.14l-.55.13-.3-.45c-.29-.44-.1-.77.33-1.35q-.92-.71-2-1.63l.22.29c.47.62,1,1.26.6,1.9s-1.18.55-1.49.52a3.25,3.25,0,0,1-.89-.22,1.34,1.34,0,0,0,1.25.55l.07.76-.08-.75.15,1.51h-.26A2.82,2.82,0,0,1,118.72,71.95ZM125,69.37h0a1,1,0,0,1-.63.42l.62.48a6.21,6.21,0,0,0,.45-.73Zm-1.39-.65h0Zm.88-3.15-.21-.27L124.1,65l.12-.52a4.5,4.5,0,0,1-1.06-2.66.85.85,0,0,1,.52-.6,1.45,1.45,0,0,1,1.25.21l.08-.35a1.13,1.13,0,0,1-.21-.15,1.27,1.27,0,0,1-.23-1.5,5,5,0,0,1,.83-1.44,1.37,1.37,0,0,1-1-.66c-.24-.33-.26-.36-1.21.16l-.11.06A32.48,32.48,0,0,0,119.92,60a5.64,5.64,0,0,0,1.43,1c.89.32,1,1.22.93,2.14l1.19,0a11.52,11.52,0,0,0,.56,3.69l.33.93a1.84,1.84,0,0,1,1.15.06,6.26,6.26,0,0,1,.76.31c-1-.79-2-1.76-1.72-2.56C124.54,65.65,124.54,65.61,124.53,65.58Zm3.44.72.3.1-.18-.25Zm.26-.28-2.31-2.11-.06.26a12.12,12.12,0,0,0,.94,1.16l.2-.23a2.3,2.3,0,0,1,.22-.22C126.83,64.59,126.38,64.24,125.92,63.91Zm-4.06,1.21,0,0V65Zm4.43-2.83v0c.45.31.93.66,1.36,1-.1-.28-.24-.6-.4-1Zm-1.64-.2Zm1.3-2Zm4-2.81-1.38-.78a3,3,0,0,1-.44.77,9.67,9.67,0,0,1-.8.85,5.74,5.74,0,0,0-1.23,1.51,10.31,10.31,0,0,0,1.7-.71l.14-.07C128.17,58,129.13,57.55,130,57.31Zm-4.25-.71Zm0,0"/><path class="cls-5" d="M56.61,149.72"/><path class="cls-5" d="M55.85,156.67l.85-.1c.24,0,24.48-3,36.31-3.24l0-1.52c-10.64.26-31.19,2.63-35.61,3.15v-4.47H55.85Z"/><path class="cls-5" d="M205.25,156.78v-7.44h-1.52v5.52c-10.73-2.35-33.07-4-33.3-4l-.11,1.51c.24,0,23.81,1.77,34,4.2Z"/><polygon class="cls-5" points="54.86 165.65 56.37 165.56 55.85 157.59 57.13 156.37 56.08 155.27 54.29 156.99 54.86 165.65"/><polygon class="cls-5" points="205.24 165.51 206.49 157.07 205.08 155.34 203.9 156.3 204.89 157.51 203.74 165.29 205.24 165.51"/><rect class="cls-5" x="98.39" y="13.61" width="22.17" height="1.52" transform="translate(93.93 123.68) rotate(-89.38)"/><rect class="cls-5" x="103.83" y="12.68" width="22.17" height="1.52" transform="translate(100.23 128.21) rotate(-89.38)"/><rect class="cls-5" x="134.57" y="3.3" width="1.52" height="21.62" transform="translate(-0.45 5.27) rotate(-2.23)"/><rect class="cls-5" x="130.45" y="2.9" width="1.52" height="21.62" transform="translate(-0.43 5.11) rotate(-2.23)"/></g><path class="cls-7" d="M3.54,91.9s9.12,18,19.12,18.75,30-1.62,33.25-5.31,2,.06,3,1.31,8,.63,9.25-1.31,2.5-5.19,4.5-5.44,4.5-.25,7-2.5,6.75-1.75,8,.75,2.25,7.5,2.25,13.75-3.5,12-3.5,12a8.93,8.93,0,0,0-2.25,5s-11.75.5-12.25,1.5-3,2.75-3,2.75-9-1.5-10,0,.25,3.25-1.25,5.5-5.5,3.75-6,7.25a15.14,15.14,0,0,0,.75,6.75s-2.5.64-2,5.19.5,9.07.5,9.07H3.83Z"/><path class="cls-7" d="M3.83,108.76v58.16H41.91s-.25-7,0-11.26a3.73,3.73,0,0,1,4.25-3.75s-2.25-5.5-1.25-9,6.75-3.5,7-7.5,2.25-6.5,6.75-7.5a15.35,15.35,0,0,1,8.25.5,8.35,8.35,0,0,1,6.75-4.5c5-.5,6.5,0,6.5,0s4.75-5.5,4-10.5,0-12-2.25-10.25-6.5,1.66-6.5,1.66.75,4.34-2.75,6.34-14,4.25-14.75,1.5a10.46,10.46,0,0,0-1.75-3.89s-6.5,4.64-19.25,7.89-25.49-4.12-29.42-11.31L3.57,98.15Z"/><path class="cls-8" d="M3.83,113.65l-.29,53.26H31.77s-.89-12.51,0-14.76,4.89-1.75,4.89-1.75-1.85-7.49,1.7-10.12,7.4-3.38,8.48-6.13,2.07-9,5.57-9.75,14.5-1.59,14.5-1.59a11.38,11.38,0,0,1,8.5-3.41c5.25.25,2.75-5.75,2.75-5.75h-2s.5,1.25-2.25,2.5-16.75,6-17.75,5-2-6-2-6-15.5,9.5-23.75,10-24.65-10-26.57-16.39Z"/><path class="cls-7" d="M3.83,3.83V82.75s6.82-9.52,15.82-8.52S25,89.56,29.32,87.56l5.33-.67s-2.67-9.39,0-8.7l2.67.7s-.18-3,6.58-3.33a63.21,63.21,0,0,1,9.42,0,72.85,72.85,0,0,1,4.07-13c2.93-7,8.26-13.67,15.26-15s26-2.67,26-2.67v-10H102V3.83Z"/><path class="cls-7" d="M3.57,71.56s15.66-9.33,21.37-1,4.72,7.09,4.72,7.09.07-1.73,5.53-5.24S49.11,69.9,49.11,69.9,53.66,42.23,71,38.56s21,1.67,21,1.67l1.67-7L95.88,31V3.83H3.57Z"/><path class="cls-8" d="M3.57,3.83V62.08s19.89-8.44,25.76.95C36,59.23,43.9,63,43.9,63s5.42-31.8,24.76-35.13,18.67,4,18.67,4l2.58-7.3V3.83Z"/><path class="cls-7" d="M141.66,3.83v17.4h2.67v12.2H148V46.6s15.51,1.52,18.92,8.4V3.83Z"/><path class="cls-7" d="M147.32,3.83V18.89h2.07V29.45h2.84v11.4s12,1.31,14.68,7.27V3.83Z"/><path class="cls-8" d="M152.88,3.83V16.39h1.48V25.2h2v9.51s8.62,1.09,10.52,6.07V3.83Z"/></g></g></svg>