<svg xmlns="http://www.w3.org/2000/svg" viewBox="0 0 19.21 19.21"><defs><style>.cls-1{fill:#fff;}</style></defs><title>INSTAGRAM FOOTER</title><g id="Livello_2" data-name="Livello 2"><g id="Livello_1-2" data-name="Livello 1"><path class="cls-1" d="M13.91,0H5.3A5.31,5.31,0,0,0,0,5.3v8.61a5.31,5.31,0,0,0,5.3,5.3h8.61a5.31,5.31,0,0,0,5.3-5.3V5.3A5.31,5.31,0,0,0,13.91,0Zm3.6,13.91a3.6,3.6,0,0,1-3.6,3.6H5.3a3.6,3.6,0,0,1-3.6-3.6V5.3A3.6,3.6,0,0,1,5.3,1.7h8.61a3.6,3.6,0,0,1,3.6,3.6Zm0,0"/><path class="cls-1" d="M9.61,4.66a5,5,0,1,0,5,5,5,5,0,0,0-5-5Zm0,8.2a3.25,3.25,0,1,1,3.25-3.25,3.25,3.25,0,0,1-3.25,3.25Zm0,0"/><path class="cls-1" d="M14.77,3.21a1.25,1.25,0,1,0,.88.37,1.25,1.25,0,0,0-.88-.37Zm0,0"/></g></g></svg>