<svg xmlns="http://www.w3.org/2000/svg" viewBox="0 0 21.32 21.32"><defs><style>.cls-1{fill:#fff;}</style></defs><title>LOGIN REGISTRATI FOOTER</title><g id="Livello_2" data-name="Livello 2"><g id="Livello_1-2" data-name="Livello 1"><path class="cls-1" d="M10.66,0A10.66,10.66,0,1,0,21.32,10.66,10.7,10.7,0,0,0,10.66,0Zm0,3.2a3.14,3.14,0,0,1,3.2,3.2,3.14,3.14,0,0,1-3.2,3.2,3.14,3.14,0,0,1-3.2-3.2,3.14,3.14,0,0,1,3.2-3.2Zm0,15.14a7.78,7.78,0,0,1-6.4-3.42c0-2.13,4.26-3.3,6.4-3.3s6.4,1.18,6.4,3.3a7.78,7.78,0,0,1-6.4,3.42Zm0,0"/></g></g></svg>