<svg xmlns="http://www.w3.org/2000/svg" xmlns:xlink="http://www.w3.org/1999/xlink" viewBox="0 0 205.38 354.43"><defs><style>.cls-1,.cls-2,.cls-6{fill:none;}.cls-2{stroke:#c0beba;}.cls-2,.cls-6{stroke-miterlimit:10;}.cls-3{fill:#c6c6c6;}.cls-4{clip-path:url(#clip-path);}.cls-5,.cls-7,.cls-8{fill:#fff;}.cls-6{stroke:#fff;}.cls-7{opacity:0.4;}.cls-8,.cls-9{opacity:0.7;}</style><clipPath id="clip-path"><rect class="cls-1" x="4.2" y="124.65" width="163.08" height="163.08" transform="translate(171.48 412.37) rotate(-180)"/></clipPath></defs><title>MESSINA</title><g id="Livello_2" data-name="Livello 2"><g id="Livello_1-2" data-name="Livello 1"><rect class="cls-2" x="0.5" y="121.31" width="170.16" height="170.16"/><rect class="cls-3" x="4.2" y="124.65" width="162.98" height="163.08"/><g class="cls-4"><path class="cls-5" d="M118,170.56c4.51-.55,15.39-1.53,17.17,4.59,2,6.88-7.77,10.81-12.07,13.48-4,2.51-11,6.72-10.19,12.35.62,4.54,6.93,3.67,9,7s-4.74,4.49-6.44,1.66a.46.46,0,0,1,.79-.46q6.47,3,3-2.22-1.4-.63-2.84-1.19a11.13,11.13,0,0,1-2-1,6.52,6.52,0,0,1-2.41-3.44c-1.14-4.19,3-7.83,5.89-10.14,4.49-3.56,11.37-5.71,14.91-10.24,3.68-4.7.25-8.17-4.52-9.31-3.4-.81-6.88-.47-10.3-.06-.58.07-.58-.85,0-.92Z"/><path class="cls-5" d="M119.67,213a6.55,6.55,0,0,0,6.12-1.34.47.47,0,0,1,.78.32c.24,2.75,7.39,1.83,9,1.42,4.06-1,8.3-4.13,3.25-8-2.41-1.84-5.08-2.47-5.8-5.8-.57-2.64.7-4.83,2.42-6.73,1.4-1.54,3.41-2.91,4.32-4.83,2.06-4.36-.08-8.33-2.86-11.72-.37-.45.27-1.11.65-.65,3.34,4.08,5.75,9.38,2.14,14.07-2.25,2.93-6.15,5-5.8,9.19.38,4.65,5.39,4.51,7.86,7.32,2.91,3.31-2.14,6.77-4.91,7.71-2.6.88-10.82,2.17-11.18-2l.78.32a7.62,7.62,0,0,1-7,1.57c-.57-.14-.33-1,.24-.88Z"/><path class="cls-5" d="M136.8,181c-1,2.84-3.19,4.88-4.61,7.49-2.21,4.06-2.8,13.82,2.9,15.61.56.18.32,1.06-.24.88-4.24-1.33-5.13-6.08-5-10a15.32,15.32,0,0,1,1.3-6.52c1.37-2.72,3.74-4.78,4.76-7.69.19-.55,1.08-.32.88.24Z"/><path class="cls-5" d="M128.59,208.18a4.13,4.13,0,0,0,3.21,1.29c1.3,0,4.48-1,2.21-3.08-.93-.85-2.77-1.13-3.91-1.64a8.27,8.27,0,0,1-4.81-5.51.46.46,0,0,1,.88-.24c1.05,3.48,3.46,4.57,6.6,5.84,1.27.51,3.16,1.19,3.06,2.87-.09,1.5-1.78,2.31-3.06,2.57a5.16,5.16,0,0,1-4.83-1.43.46.46,0,0,1,.65-.65Z"/><path class="cls-5" d="M128.43,188.69c-2.39,2.24-6.13,3.51-8,6.22-1.74,2.55-1.88,5.68.16,8,1.65,1.89,3.9,2.67,6.22,3.59.54.21.31,1.1-.24.88-4.32-1.71-8-3-8.42-8.1-.5-6,6-7.87,9.61-11.26.43-.4,1.08.24.65.65Z"/><path class="cls-5" d="M117.62,214c-1.49.61-3.24,1.23-4.74.32a4.51,4.51,0,0,1-1.17-1.16,10.77,10.77,0,0,0-2.47-1.95,3.79,3.79,0,0,1-1.66-3.58c.31-1.86,2.27-3.26,3.21-4.78.31-.5,1.1,0,.79.46-.54.87-1.2,1.59-1.78,2.42-1.84,2.62-1.28,3.85,1,5.29a8.71,8.71,0,0,1,1.34,1.16,5.93,5.93,0,0,0,2.42,1.69,5.91,5.91,0,0,0,2.82-.76c.55-.22.78.66.24.88Z"/><path class="cls-5" d="M110.52,214.48a10.32,10.32,0,0,1-2.27.7,6,6,0,0,0-1.56.26,10.34,10.34,0,0,0-.93.84c-1.19.89-2.89,1.64-4.36,1.12-.55-.2-.31-1.08.24-.88a3.81,3.81,0,0,0,3.18-.7c.51-.32,1-1,1.5-1.28a2.43,2.43,0,0,1,.75-.18,11.27,11.27,0,0,0,3-.67c.54-.23,1,.56.46.79Z"/><path class="cls-5" d="M101.36,220.45c1.33-3.14-1.47-6.09-.87-9.25a8.67,8.67,0,0,1,2.92-4.74c1.54-1.37,3.45-2,5.14-3.13,5-3.33,0-8.5-3-11.12s-7.29-3.4-6.55-8.09a3.32,3.32,0,0,1,1.7-2.75,6.48,6.48,0,0,1,2.22-.53,12.34,12.34,0,0,0,3.44-.57q4.5-.73.43-4.95c-.57-.14-.33-1,.24-.88,3.85.93,4.48,4.6.74,6.27a14,14,0,0,1-3.63.95c-1.51.23-3.42.28-4.17,2-.64,1.49.81,3.77,1.78,4.76s2.46,1.54,3.52,2.39a26.48,26.48,0,0,1,3.82,3.71c2.72,3.26,3.94,7-.11,9.61-4.34,2.83-9.24,4.62-7,11.2.72,2.11,1,3.42.12,5.59-.23.54-1,.07-.79-.46Z"/><path class="cls-5" d="M115.51,174.57c-3.76,1.15-5.88.92-9.47-.32a9,9,0,0,0-6.74-.1,10.74,10.74,0,0,1-1.92.81c-1,.11-1,.3-1.86-.35-1.46-1.06-1-2.6.06-3.62,1.57-1.49,10.47-1.32,10.44-2.5a.46.46,0,0,1,.92,0c0,1.27-.6,1.61-1.79,2s-2.73,0-4,.06a10.13,10.13,0,0,0-3.27.3q-2.34,4.4.16,2.89c2.2-.22,3.56-1.55,6-1.1,1.64.3,2.91,1.32,4.5,1.75,2.3.64,4.53,0,6.72-.67.57-.17.81.71.24.88Z"/><path class="cls-5" d="M94.16,172.11c-.76-.24-1.87-.55-2.31.49-.07.16.12.4,0,.57a1.87,1.87,0,0,1-.79.91c-.76.44-1.6.71-2.36,1.17a8,8,0,0,0-1.29.88,20,20,0,0,0-1.11,2.22c.57-.14.82.74.24.88-.92.22-1-.7-1-1.41a4,4,0,0,1,2-3c.65-.44,1.36-.78,2-1.16a1.23,1.23,0,0,0,.91-.66.68.68,0,0,0,.33-.88,1.7,1.7,0,0,1,.24-.56c.71-.93,2.33-.67,3.26-.37.56.18.32,1.07-.24.88Z"/><path class="cls-5" d="M95.33,177.78c-1.3.09-2.88.63-3.93-.47a1.53,1.53,0,0,1,.36-2.45c.53-.25,1,.54.46.79a.6.6,0,0,0-.17,1,1.51,1.51,0,0,0,1.1.42,19.51,19.51,0,0,0,2.19-.23c.59,0,.59.88,0,.92Z"/><path class="cls-5" d="M107.19,176.35a9,9,0,0,0-4.32-.86,5.08,5.08,0,0,0-3.51,2c-.4.44-1-.21-.65-.65a5.93,5.93,0,0,1,3.63-2.25,9.71,9.71,0,0,1,5.32.94c.54.24.07,1-.46.79Z"/><path class="cls-5" d="M107.61,178c-2.26-.48-6.21-.8-7.85,1.23-.37.46-1-.19-.65-.65,1.87-2.31,6.16-2,8.74-1.47.58.12.33,1-.24.88Z"/><path class="cls-5" d="M105.77,178.46a1.94,1.94,0,0,1-2.47,1.84c-1-.27-2.48-1.78-1.3-2.71a2.59,2.59,0,0,1,1.91-.25,2,2,0,0,1,1.57.64c.8,1.2-1,2.51-2,2.59-.59,0-.59-.87,0-.92a1.52,1.52,0,0,0,1-.53.37.37,0,0,0,.18-.43q.18-.34-.16-.35a3.29,3.29,0,0,0-1.64-.13c-.79.5.69,1.23,1,1.24a1,1,0,0,0,1-1,.46.46,0,0,1,.92,0Z"/><path class="cls-5" d="M103.82,179.25a3.53,3.53,0,0,1-1.62,0,.46.46,0,0,1,0-.88c.67-.28,2.26-.49,2.49.49s-1.42,1-2,.65a.46.46,0,0,1,0-.79,2.85,2.85,0,0,1,2-.51c.31,0,.61.37.4.69a1.66,1.66,0,0,1-1.49.78c-.59,0-.59-.94,0-.92a.73.73,0,0,0,.69-.33l.4.69a2.11,2.11,0,0,0-1.58.39v-.79a2.79,2.79,0,0,0,.59.13q.33-.14.1.29l-.21-.05a2.09,2.09,0,0,0-1.18.17v-.88a2.45,2.45,0,0,0,1.13,0c.58-.11.82.77.24.88Z"/><path class="cls-5" d="M99,181.05a7.06,7.06,0,0,0-4.59-.69c-.84.17-3,.83-3.31,1.76l-.44-.58h.09l-.46.46v-.06c0-.58,1-.59.92,0V182a.47.47,0,0,1-.46.46h-.09a.46.46,0,0,1-.44-.58c.48-1.26,2.51-2,3.71-2.34a8,8,0,0,1,5.54.72c.53.26.06,1.05-.46.79Z"/><path class="cls-5" d="M95.56,183.63c-.84-.26-1.68-.51-2.54-.71-.34-.07-2.4-.6-2.6-.23a.46.46,0,0,1-.79-.46c.42-.75,1.47-.52,2.19-.44a23,23,0,0,1,4,1c.56.17.32,1.06-.24.88Z"/><path class="cls-5" d="M93.54,180.2c-1,.47-2,.94-2.95,1.43s-2.53,1-3,1.88c-.27.53-1.06.06-.79-.46.47-.92,1.66-1.35,2.53-1.81,1.22-.65,2.47-1.24,3.73-1.84.53-.25,1,.54.46.79Z"/><path class="cls-5" d="M92.26,179.43a16.07,16.07,0,0,0-8.62,2.08,14.22,14.22,0,0,0-3.36,2.62c-1.36,1.48-1.4,1.5-.71,3.65.29.91.89,3,2.49,2l-.09.72h.55c-.39.44-1-.21-.65-.65l0,0a.47.47,0,0,1,.65,0l.06,0a.46.46,0,0,1-.09.72c-1,.68-3.09.12-4-.65-1.35-1.18-1.19-3.09-.41-4.53,2.57-4.79,9-7,14.11-6.86a.46.46,0,0,1,0,.92Z"/><path class="cls-5" d="M82.17,189.33a1.11,1.11,0,0,1,.43-1,.92.92,0,0,1,1.05.13,1.05,1.05,0,0,1,.51.87.8.8,0,0,1-.21.52.81.81,0,0,1-.56.19.46.46,0,0,1-.46-.46.47.47,0,0,1,.46-.46l.21,0-.32.13c-.07.08-.09.07-.18,0s-.12-.07,0-.07a1.17,1.17,0,0,0,0,.2.46.46,0,0,1-.92,0Z"/><path class="cls-5" d="M84.63,186.63c-1.15-1.22-.39-2.8,1-3.32.56-.21,4.32-.9,3.56.56-.27.52-1.07.06-.79-.46l0-.07v.46c0,.1-1,.11-1.08.12a5.9,5.9,0,0,0-1.08.15c-.84.23-1.9,1-1,1.91.41.43-.24,1.08-.65.65Z"/><path class="cls-5" d="M84,190.67a3.42,3.42,0,0,0-.33,3.8c.45,1.07,1,2.07,2.23,2.26.58.09.33,1-.24.88-1.55-.23-2.25-1.41-2.82-2.76a4.14,4.14,0,0,1,.37-4.65c.34-.47,1.14,0,.79.46Z"/><path class="cls-5" d="M86.52,195.11c2-4,5.06-5.29,9.46-5.77,2.23-.24,8.65,0,9.46,3,.57,2.11-2.43,3.07-4.11,3.31s-3.63-.08-5.43.08a20.12,20.12,0,0,0-4.57,1A19.56,19.56,0,0,0,88.13,198a7.1,7.1,0,0,1-2.83,1.57c.18-.56,1.07-.32.88.24l0,.08a.47.47,0,0,1-.44.34H85.6c-.22,0-.49-.19-.46-.46.43-3.43,8.15-4.78,10.74-5,1.45-.13,2.89.06,4.34,0,.75,0,3.14-.23,3.56-1l-.71-2.35-2.18-.88c-4.9-1.38-11.24.31-13.59,5-.26.53-1.06.06-.79-.46Z"/><path class="cls-5" d="M84.85,199.44c-.42-3.25,3.84-4.62,6.28-5.6,4.25-1.71,7.92-1.57,12.4-1.39.59,0,.59.94,0,.92-3.19-.13-6-.45-9.19.38-2,.52-9,2.56-8.57,5.69.08.58-.84.58-.92,0Z"/><path class="cls-5" d="M86.57,200c.72,1.63,2,3.41,4.38,2.64.64-.21,1.08-.91,1.73-1.14.94-.34,1.34-.06,2.3.08,1.87.27,3.36.54,4.86-.85.13-.12,1.24-1.74,1.37-1.81.52-.25.49-.45,1.08-.25a.46.46,0,0,1,0,.88l-.42.16c-.55.22-.79-.67-.24-.88l.42-.16v.88c.43.14-2.87,3-3.32,3.15-2.16.71-4.2-.73-6.29,0-1.66.59-1.95,1.6-3.84.85a5.63,5.63,0,0,1-2.82-3.11c-.24-.53.55-1,.79-.46Z"/><path class="cls-5" d="M100.94,201.83c1.43.52,3,1.15,3.58,2.66a2.35,2.35,0,0,1,0,1.86.68.68,0,0,1-1.13.18c-.41-.42.23-1.07.65-.65h-.31l.05-.33a1.69,1.69,0,0,0-.14-.72,2.57,2.57,0,0,0-.71-1,6.86,6.86,0,0,0-2.27-1.14c-.55-.2-.31-1.09.24-.88Z"/><path class="cls-5" d="M112.35,195.88a14.82,14.82,0,0,0-1.4-4.6c-.26-.53.53-1,.79-.46a16.22,16.22,0,0,1,1.53,5.06c.08.58-.84.58-.92,0Z"/><path class="cls-5" d="M113.35,193.19l-.92-2.81c-.18-.56.7-.8.88-.24l.92,2.81c.18.56-.7.8-.88.24Z"/><path class="cls-5" d="M114.2,190.8l-.43-1.35c-.18-.56.71-.81.88-.24l.43,1.35c.18.56-.71.81-.88.24Z"/><path class="cls-5" d="M116.77,190.55a7.83,7.83,0,0,0-.18-3.85,5.06,5.06,0,0,0-2.61-2.4c-.52-.28-.06-1.07.46-.79a6.11,6.11,0,0,1,2.89,2.59,8.13,8.13,0,0,1,.35,4.45c-.07.58-1,.59-.92,0Z"/><path class="cls-5" d="M119.45,188.91c.27-1.92.3-4.28-1.39-5.55a15,15,0,0,0-4.2-2c-.56-.18-.32-1.07.24-.88,1.73.56,4.15,1.45,5.35,2.89s1.13,4,.88,5.8c-.08.58-1,.33-.88-.24Z"/><path class="cls-5" d="M121.78,186.83c.2-2.36-.13-4.47-2-6.12a11.09,11.09,0,0,0-5.62-2.31c-.58-.1-.33-1,.24-.88a11.41,11.41,0,0,1,6.41,2.91c1.72,1.79,2,4,1.84,6.4,0,.58-1,.59-.92,0Z"/><path class="cls-5" d="M124.46,186.11c6.62-4.59-2-11.69-7.25-11.41-.59,0-.59-.89,0-.92,3.49-.19,8.11,2.19,9.82,5.32a5.93,5.93,0,0,1-2.11,7.8c-.49.34-.95-.46-.46-.79Z"/><path class="cls-5" d="M128.59,183.77c2.92-5.05-1.27-8.7-5.52-10.65-.54-.25-.07-1,.46-.79,4.77,2.19,9,6.45,5.85,11.91a.46.46,0,0,1-.79-.46Z"/><path class="cls-5" d="M131.84,181c1.86-4.08-2.82-8.23-6.49-8.77-.58-.09-.33-1,.24-.88,4.34.64,9.14,5.52,7,10.12-.24.54-1,.07-.79-.46Z"/><path class="cls-5" d="M127.18,165.25c-2.57-2.33-7.75-4.38-10.35-.66a.47.47,0,0,1-.79,0l-3.58-1.8a3.75,3.75,0,0,0-2.55.7,5,5,0,0,0-3,2.89.46.46,0,0,1-.72.09q-3.66-2.14-4.52,1.9c.56.18.32,1.07-.24.88-2.75-.9-.16-3.68,1.46-4.22a5.2,5.2,0,0,1,2.15-.3c.22,0,1,.47,1.13.41,1.15-.37,1.81-2.24,3.16-2.84a7.83,7.83,0,0,1,5.28-.13c-.68-.25,2.54,1.06,1.7,1.06.93,0-.6-.15,1.09-.57,1.91-.48,3-1.25,5.14-.89a10.48,10.48,0,0,1,5.35,2.81c.44.4-.21,1-.65.65Z"/><path class="cls-5" d="M99.61,169.73c-2.94-2.46-2-5.4,1.64-6.77,1.8-.68,3,.4,4.7.08,1.29-.24,1.92-1.18,3.19-1.62a11.55,11.55,0,0,1,6.41-.36c.32.07.77.53,1.07.54,1.23,0,1.65-.73,2.79-1.13,3.27-1.16,8.12.1,9.69,3.29.26.53-.53,1-.79.46-.84-1.7-3.21-2.8-5-3a7.68,7.68,0,0,0-5.94,1.61.48.48,0,0,1-.65,0c-1.68-1.33-8-2.13-9.07,1a.47.47,0,0,1-.56.32c-2-.34-4.31-1-6.31.08a2.79,2.79,0,0,0-.53,4.85c.45.38-.2,1-.65.65Z"/><path class="cls-5" d="M138.05,175.14c2.5-2.19,4.37-5.2,1.46-8.08a11.69,11.69,0,0,0-2.85-2,6.1,6.1,0,0,0-5.82,0c-.53.24-1-.55-.46-.79,1.87-.84,3.58-1.4,5.55-.6a12.19,12.19,0,0,1,4.71,3.27c2.7,3.29.82,6.43-1.94,8.85-.44.39-1.09-.26-.65-.65Z"/><path class="cls-5" d="M138,173.53c2.58-2.82.27-5.5-2.66-6.56-.85-.31-2.49-.93-3.17-.24.17-.17-.46,1.16-.36,1a3.08,3.08,0,0,1-.72.76l-.2-.77a11.23,11.23,0,0,1,7,5c.32.5-.48,1-.79.46a10.29,10.29,0,0,0-6.41-4.6.46.46,0,0,1-.2-.77,1.83,1.83,0,0,0,.84-1.7.47.47,0,0,1,.34-.44c4.75-1,11.32,3.81,7,8.49-.4.44-1-.21-.65-.65Z"/><path class="cls-5" d="M127.65,168.34a21,21,0,0,0-12.54.83c-.55.21-.79-.68-.24-.88a21.84,21.84,0,0,1,13-.83c.57.14.33,1-.24.88Z"/><path class="cls-5" d="M126.08,167.72a.46.46,0,0,1,0-.92.46.46,0,0,1,0,.92Z"/><path class="cls-5" d="M124.67,167.41a.46.46,0,0,1,0-.92.46.46,0,0,1,0,.92Z"/><path class="cls-5" d="M122.53,166a.46.46,0,0,1,0-.92.46.46,0,0,1,0,.92Z"/><path class="cls-5" d="M121.49,167.72a.46.46,0,0,1,0-.92.46.46,0,0,1,0,.92Z"/><path class="cls-5" d="M120.23,166.22l.24-2.63c.05-.58,1-.59.92,0l-.24,2.63c-.05.58-1,.59-.92,0Z"/><path class="cls-5" d="M123.43,166.1l.36-2c.11-.58,1-.33.88.24l-.36,2c-.11.58-1,.33-.88-.24Z"/><path class="cls-5" d="M118.79,166.22l.18-.92c.12-.58,1-.33.88.24l-.18.92c-.12.58-1,.33-.88-.24Z"/><path class="cls-5" d="M141.45,174.46a9.09,9.09,0,0,1,3.43,8.54c-.35,3.28-2.06,5.4-4.38,7.64-.43.41-1.08-.24-.65-.65,4.35-4.19,6.26-10.41,1-14.88-.45-.38.2-1,.65-.65Z"/><path class="cls-5" d="M139,213.36c2.52,1,4.26,2,6.09-.67,2.55-3.73,2.16-6.94-1.26-10-1.6-1.45-2.58-2.5-2.24-4.87.48-3.28,3.56-5.4,5.17-8.07,3.94-6.52.78-12.27-5.29-15.79a.46.46,0,0,1,.46-.79c4.26,2.46,8.21,6.25,7.66,11.6a13,13,0,0,1-2,5.44c-1.67,2.68-5.37,5.21-5.12,8.64.18,2.5,4.23,4.28,5,6.86a8,8,0,0,1-.46,5.49c-.53,1.23-1.86,3.67-3.21,4.27-1.67.75-3.49-.59-5-1.22-.54-.22-.3-1.11.24-.88Z"/><path class="cls-5" d="M149.89,182.57c4.25,6.91-1.77,12.71-7.86,15.34-.54.23-1-.56-.46-.79,5.51-2.39,11.51-7.62,7.53-14.09-.31-.5.48-1,.79-.46Z"/><path class="cls-5" d="M152.53,190a10.28,10.28,0,0,1,.11,9.43c-1.37,3.08-3.45,4.65-2.3,8.54.46,1.55,1.09,2.9.64,4.58-.87,3.32-9.38,8.92-10.4,3.19-.1-.58.78-.83.88-.24.69,3.9,5.87.6,6.79-.51A6.24,6.24,0,0,0,149.8,209c-.42-1.39-1.11-2.38-.95-3.9a10.26,10.26,0,0,1,1.78-4.06c1.87-3.09,3-7.29,1.11-10.63-.29-.52.51-1,.79-.46Z"/><path class="cls-5" d="M144.22,218.59c1.05,1,2.37,2.38,3.89,2.69,3.89.79,5.95-3.28,5.52-6.35-.22-1.58-1.87-2.35-1.81-3.84s2-2.92,2.46-4.45a10.93,10.93,0,0,0-1.69-9.64c-.35-.48.44-.93.79-.46a11.49,11.49,0,0,1,1.78,10.35c-.38,1.49-1.82,2.68-2.16,4s1.58,3.28,1.74,4.89a6.74,6.74,0,0,1-3.58,6.2c-2.87,1.39-5.61-.81-7.57-2.7-.43-.41.22-1.06.65-.65Z"/><path class="cls-5" d="M150.66,197.86c-.76.3-2.34.82-2.86,1.54s-.4,3.41.52,3.84c.53.25.07,1-.46.79-1.4-.66-1.43-3-1.18-4.26.31-1.61,2.39-2.27,3.74-2.8.55-.22.79.67.24.88Z"/><path class="cls-5" d="M153.14,221.33a6,6,0,0,1,.15,6.28c-1.48,2.51-5,3.67-7.45,5-.52.28-1-.51-.46-.79a39.48,39.48,0,0,0,5.8-3.24,5,5,0,0,0,1.17-6.76c-.31-.5.48-1,.79-.46Z"/><path class="cls-5" d="M145.3,220.51a9.24,9.24,0,0,1,2.16,7.57c-.88,5.29-2.52,9.75,1.36,14.42.37.45-.27,1.1-.65.65a12.27,12.27,0,0,1-2.95-7.75c-.11-5.16,3.22-9.51-.57-14.23-.37-.46.28-1.11.65-.65Z"/><path class="cls-5" d="M142.89,221.42c-1.45,3.54-4.92,4.61-8.27,5.82-.9.32-2.2.48-2.76,1.31,0,0-.2,1.58-.24,1.69a6.75,6.75,0,0,1-2.81,2.83c-.49.33-.95-.46-.46-.79,1.35-.92,3.06-2,2.43-4.18a.47.47,0,0,1,.32-.56c3.7-1.33,9.25-2.31,10.91-6.36.22-.54,1.11-.3.88.24Z"/><path class="cls-5" d="M122.35,219.69c-1.34.22-6.32.93-3,4.41.36.38,1,.54,1.45.92a4.15,4.15,0,0,1,1.3,2.48c.39,2.44-1.13,4.43-2.81,6-.43.4-1.08-.24-.65-.65,1.32-1.25,2.52-2.57,2.49-4.48s-1.2-2.67-2.57-3.7a2.7,2.7,0,0,1-1.27-1.85c-.37-2.76,2.84-3.68,4.86-4,.58-.09.83.79.24.88Z"/><path class="cls-5" d="M105.6,219.22a10.88,10.88,0,0,0-4.5,2.8c-.41.42-1.06-.23-.65-.65a11.89,11.89,0,0,1,4.91-3c.56-.18.8.7.24.88Z"/><path class="cls-5" d="M103.7,206.71c-3.31.81-6.09,2.89-5,6.46.84,2.66,2.95,4.95,3.31,7.76.46,3.54-1.45,4.34-4.55,3.65-3.61-.81-6.71-1.83-6.06-6,.62-4,2.65-7.93,6.7-9.25.56-.18.8.7.24.88A9.15,9.15,0,0,0,93,216.08a5.69,5.69,0,0,0,3.49,7.27c2,.6,1.69.78,3.14-1.44s1.15-2.36,0-4.57a26.55,26.55,0,0,1-1.82-3.94c-1.29-4.12,1.69-6.63,5.61-7.59.57-.14.82.74.24.88Z"/><path class="cls-5" d="M91.77,216.23a5.83,5.83,0,0,0-2.56,4.53,4.44,4.44,0,0,0-.14,1.1c.06.44.7,1.18,1.21,1.08.2,0,.77-.62,1.06-.72.56-.2.8.69.24.88-1,.34-1,1.71-2.3,1.16a2.35,2.35,0,0,1-1.13-2.4,11.9,11.9,0,0,1,.65-3.71,6.42,6.42,0,0,1,2.49-2.71c.48-.35.94.45.46.79Z"/><path class="cls-5" d="M90.51,225.17a13.16,13.16,0,0,1,.4,1.9.48.48,0,0,1-.32.56.46.46,0,0,1-.56-.32,13.16,13.16,0,0,0-.4-1.9.46.46,0,0,1,.88-.24Z"/><path class="cls-5" d="M99.26,225c-1.79,1.38-1.86,2.86-4.25,3.22a77.46,77.46,0,0,1-10.7.35c-7.51.05-15-1-22.49-.57-.59,0-.59-.89,0-.92,6.1-.32,12.16.37,18.26.53,3.06.08,6.11,0,9.17-.07a26.18,26.18,0,0,0,4.23-.16c4.12-.84,3.07-1.43,5.14-3,.46-.36,1.12.29.65.65Z"/><path class="cls-5" d="M129.28,233.26c2.47,1.26,6,2.9,7.15,5.64a4.33,4.33,0,0,1,0,3.52c-.17.4-.46.72-.65,1.1-1,2,.09,5.14,2.76,5,.59,0,.59.89,0,.92-2.29.11-4.91-1.09-4.73-3.78.12-1.82,2.3-3.1,2.11-4.94-.36-3.46-4.43-5.3-7.11-6.67-.53-.27-.06-1.06.46-.79Z"/><path class="cls-5" d="M135.74,250.22c-1.19-.23-2.4-.58-2.82-1.84-.34-1,.21-2.31.58-3.26.59-1.55,2.89-5.17-.68-5-1.24.07-2.2.95-3.44,1.2a6.31,6.31,0,0,1-2.54,0,6.58,6.58,0,0,1-4.57-3.75c-.26-.53.53-1,.79-.46,1.76,3.57,5.17,4,8.42,2.29a3,3,0,0,1,3.43.24,2.24,2.24,0,0,1,.93,2.32,8.83,8.83,0,0,1-1,2.35,7.28,7.28,0,0,0-.86,2.23,3.2,3.2,0,0,0,2,2.78c.58.11.33,1-.24.88Z"/><path class="cls-5" d="M132.52,250.14c-.84-.54-1.34-1.07-1.19-2.11.17-1.27.58-3.08-1-3.45-1.12-.26-2.41,0-3.56-.14a7.56,7.56,0,0,1-6.38-5.21.46.46,0,0,1,.88-.24,6.47,6.47,0,0,0,4.89,4.41c1.72.43,3.65-.17,5.3.44,3.17,1.17-.43,4.24,1.56,5.52.5.32,0,1.11-.46.79Z"/><path class="cls-5" d="M129.87,250a3.73,3.73,0,0,1-1-1.2c.2.52-.59-1.94-.1-1.38-.35-.39-4.71-.38-5.49-.57a8,8,0,0,1-3.89-1.79c-1.52-1.59-1-4.66-4.1-2.93-.52.29-1-.5-.46-.79.86-.48,2.61-1.51,3.61-.8.24.17.23.49.41.7a7.74,7.74,0,0,0,1.18,3.17,6,6,0,0,0,2.29,1.22,10.5,10.5,0,0,0,4.81.61c.5-.07,1.21-.48,1.77-.2,1.35.69.45,2.21,1.61,3.31.43.41-.22,1.06-.65.65Z"/><path class="cls-5" d="M118.59,235.57a23.38,23.38,0,0,1-7.18,3.4.46.46,0,0,1-.24-.88,22.61,22.61,0,0,0,7-3.31c.48-.34.94.45.46.79Z"/><path class="cls-5" d="M107.16,237.77c.59-1.71.07-4.23-1.94-4.73a.46.46,0,0,1,.24-.88c2.47.62,3.33,3.68,2.58,5.86-.19.55-1.08.32-.88-.24Z"/><path class="cls-5" d="M107,229a44.23,44.23,0,0,1,3.3-3.42c.43-.4,1.08.25.65.65a44.23,44.23,0,0,0-3.3,3.42c-.39.45-1-.2-.65-.65Z"/><path class="cls-5" d="M103,232.17c-1.51-.53-3.24-.33-4.66-1.14a3.67,3.67,0,0,1-1.87-3.18c.07-.58,1-.59.92,0-.18,1.57,1.48,2.57,2.79,2.84a22.82,22.82,0,0,1,3.07.59c.55.19.32,1.08-.24.88Z"/><path class="cls-5" d="M105.7,240c-3.73,2-7.64.84-11.39-.47-.55-.19-.32-1.08.24-.88,3.47,1.22,7.2,2.41,10.68.57.52-.28,1,.52.46.79Z"/><path class="cls-5" d="M89.39,238.21c-5.25-1.2-10.51-2.41-15.81-3.41-5-.94-10.14-1.24-15.07-2.43-.57-.14-.33-1,.24-.88,4.91,1.19,10.1,1.49,15.07,2.43,5.3,1,10.55,2.21,15.81,3.41.58.13.33,1-.24.88Z"/><path class="cls-5" d="M59.27,229.37a6.93,6.93,0,0,0-.92,1.55.47.47,0,0,1-.56.32.46.46,0,0,1-.32-.56,7.76,7.76,0,0,1,1-1.77.47.47,0,0,1,.63-.16.46.46,0,0,1,.16.63Z"/><path class="cls-5" d="M115.48,243.58c-.25.38-.64.91-.52,1.4a2,2,0,0,0,.78.88,7.81,7.81,0,0,0,1.75.94.46.46,0,0,1-.12.9c-1.68,0-4.63.09-5.36-1.85-.16-.43.47-.78.77-.45a.84.84,0,0,1,.24.56c.07.59-.85.58-.92,0l0,.09.77-.45c.52,1.39,3.34,1.21,4.48,1.18l-.12.9a6.47,6.47,0,0,1-2.81-1.79c-.7-.94-.34-1.88.25-2.77.32-.49,1.12,0,.79.46Z"/><path class="cls-5" d="M113.22,246.57c.16,1.7,1.88,2.49,2.56,4,.45,1,.93,2.08.1,2.95a.46.46,0,0,1-.77-.2l-.16-.78c-.11-.58.77-.82.88-.24l.16.78-.77-.2c.45-.47-.21-1.87-.47-2.3a10.72,10.72,0,0,0-1.49-1.66,3.83,3.83,0,0,1-1-2.31c-.06-.59.86-.58.92,0Z"/><path class="cls-5" d="M111.27,245.3c-1.79,3.59,1.83,5.2,3.46,7.68,1,1.54.52,3.22.2,4.92-.11.58-1,.33-.88-.24a6,6,0,0,0-1.39-5.56,17.3,17.3,0,0,1-2.27-2.45c-1.12-1.68-.77-3.09.09-4.81.26-.53,1.06-.06.79.46Z"/><path class="cls-5" d="M108.49,246.13c-1.69,3.59,4.19,6.76,4.47,10.29.18,2.37-1.41,4.08-3,5.62-.31.3-.92,0-.77-.45,1.1-3.23.22-6.31-1.84-9l.72-.56c.85,1.29.23,3.78-.42,5-.23.44-.82.19-.85-.23-.18-2-3.24-3.15-3.61-5.36a3.07,3.07,0,0,1,1.06-3c.43-.4,1.08.25.65.65-.76.7.61,4.26,1.12,5,.36.55,1,.87,1.31,1.47a2.19,2.19,0,0,1,.39,1.18l-.85-.23c.27-.51,1-3.23.42-4.12-.28-.43.4-1,.72-.56,2.26,2.91,3.29,6.27,2.07,9.85l-.77-.45c2-1.94,3.08-3.95,2.09-6.77-.69-2-2.6-3.08-3.69-4.77-.94-1.47-.74-2.66,0-4.18.25-.53,1-.07.79.46Z"/><path class="cls-5" d="M101.34,251.29c-.94-.57-2.67-1.72-1.95-3s2.51-2,3.88-2.3c.57-.13.82.75.24.88a6.46,6.46,0,0,0-2.66,1.18c-.54.44-.88,1-.29,1.59a5.68,5.68,0,0,0,1.23.89.46.46,0,0,1-.46.79Z"/><path class="cls-5" d="M97.1,249a96.44,96.44,0,0,0-23.47-9.57.46.46,0,0,1,.24-.88,96.9,96.9,0,0,1,23.69,9.66.46.46,0,0,1-.46.79Z"/><path class="cls-5" d="M71.24,238.62a3.5,3.5,0,0,1,1.36,1.88,3.35,3.35,0,0,1-.6,2.09c-.24.54-1,.07-.79-.46s.64-1,.46-1.59a3.07,3.07,0,0,0-1.08-1.27c-.45-.38.2-1,.65-.65Z"/><path class="cls-5" d="M69.54,238.66A8.79,8.79,0,0,1,72.07,242c.33,1.19-.46,2.14-1.25,2.93a.46.46,0,0,1-.65-.65c.87-.86,1.38-1.66.57-2.85a13.66,13.66,0,0,0-1.84-2.13c-.43-.41.22-1.06.65-.65Z"/><path class="cls-5" d="M67.33,238.3a13.56,13.56,0,0,1,2.88,4.23,3.2,3.2,0,0,1-.73,3.32c-2.62,1.87-4.54-2.87-4.63-4.72,0-.59.89-.59.92,0a5.49,5.49,0,0,0,.77,2.67c.53.87.64,1,1.74.81.94-.13,1.07,0,1.16-.92.17-1.6-1.74-3.66-2.76-4.74-.4-.43.24-1.08.65-.65Z"/><path class="cls-5" d="M64.47,244.84A15.19,15.19,0,0,1,60,242.2a9.61,9.61,0,0,1-2.43-4.44.46.46,0,0,1,.88-.24,8.46,8.46,0,0,0,2.51,4.32,16.12,16.12,0,0,0,4,2.22c.54.24.07,1-.46.79Z"/><path class="cls-5" d="M62.73,237.61a13.81,13.81,0,0,0-3.27-.53c-.88,0-1.39.58-2.21.7-.47.07-.85-.58-.35-.84l.22-.12c.52-.27,1,.52.46.79l-.22.12-.35-.84c.51-.08.83-.44,1.29-.62a2.84,2.84,0,0,1,1.16-.12,19.41,19.41,0,0,1,3.51.56c.57.14.33,1-.24.88Z"/><path class="cls-5" d="M57.23,240.58q-1.54-.48-3.07-1a6.53,6.53,0,0,1-2.23-.85A.46.46,0,0,1,52,238l0,0a.47.47,0,0,1,.63.16v0c.34.48-.45.94-.79.46v0l.63.16,0,0,.09-.72a4.68,4.68,0,0,0,1.28.43l1.08.37,2.53.82c.56.18.32,1.06-.24.88Z"/><path class="cls-5" d="M62,226.71a60.37,60.37,0,0,0-9-3.24,22.38,22.38,0,0,0-5.59-.71,16,16,0,0,0-3.41.37q-2.67.27-2.64,3.18c.48.33,0,1.13-.46.79-2.76-1.9.64-4.27,2.86-4.85,6.23-1.64,12.9,1.23,18.52,3.59.54.22.3,1.11-.24.88Z"/><path class="cls-5" d="M44.08,227.27a8.66,8.66,0,0,0-2.87.29,1.35,1.35,0,0,0-.81,1c0,.13-.1.78-.24.57l-.4-.23h.11c.58-.07.58.85,0,.92h-.11a.45.45,0,0,1-.4-.23c-.26-.41,0-.74.13-1.16a2.26,2.26,0,0,1,.7-1.29c1.08-.93,2.58-.64,3.88-.76.59-.06.58.86,0,.92Z"/><path class="cls-5" d="M43.34,231c-.77.22-1.53.47-2.27.76-.54.21-.66.37-.59,1a3.8,3.8,0,0,0,.4,1.41l-.52-.21h.09c.58-.1.83.79.24.88h-.09a.49.49,0,0,1-.52-.21,5.19,5.19,0,0,1-.56-1.92,1.29,1.29,0,0,1,.23-1.2,3.1,3.1,0,0,1,1.32-.7c.67-.25,1.34-.47,2-.66a.46.46,0,0,1,.24.88Z"/><path class="cls-5" d="M43.28,234.74a8,8,0,0,0-3.08,1.13c-.66.43-.69.91-.53,1.67a3.37,3.37,0,0,0,.55,1.47c.43.41-.22,1.06-.65.65a4.05,4.05,0,0,1-.79-1.88,2.19,2.19,0,0,1,.11-1.95c.82-1.21,2.79-1.75,4.14-2,.58-.1.83.79.24.88Z"/><path class="cls-5" d="M52.27,240.06l-3.49.58c-.58.1-.83-.79-.24-.88l3.49-.58c.58-.1.83.79.24.88Z"/><path class="cls-5" d="M50.91,243.06c.76.5,2.36,1.58,1.54,2.66a3,3,0,0,1-1.5.82,8.18,8.18,0,0,1-2.35.36.46.46,0,0,1,0-.92,7.14,7.14,0,0,0,2.46-.45c.47-.18.84-.42.38-.92a5.28,5.28,0,0,0-1-.76c-.49-.32,0-1.12.46-.79Z"/><path class="cls-5" d="M48.46,241.7a3,3,0,0,0-1.81-1.31,1.82,1.82,0,0,0-1.4.13c-.28.16-1.09.94-.42,1.19s.31,1.09-.24.88c-1.39-.53-1-2.13.07-2.8,1.58-1,3.41-.05,4.44,1.26.36.46-.28,1.11-.65.65Z"/><path class="cls-5" d="M47.14,244.15a3.17,3.17,0,0,0-2-.15c-.44.17-1,1-.31,1.26.56.19.32,1.08-.24.88A1.5,1.5,0,0,1,44,243.8c.82-1.08,2.28-.84,3.42-.53a.46.46,0,0,1-.24.88Z"/><path class="cls-5" d="M46.34,247.71a2.86,2.86,0,0,0-2,.27.79.79,0,0,0,.13,1.39c.53.27.06,1.06-.46.79a1.71,1.71,0,0,1-.71-2.38c.63-1,1.95-1.07,3-1,.58,0,.59,1,0,.92Z"/><path class="cls-5" d="M45.91,251.14a2.68,2.68,0,0,0-1.44.12c-.94.57-.38,1.2.25,1.54.33.18,3.25.52,2.74-.37a.46.46,0,0,1,.16-.63l.17-.08.35.84c-1.36.22-2-1.34-2.71-2.27-.35-.48.45-.94.79-.46s1.11,1.94,1.67,1.84.87.6.35.84l-.17.08.16-.63c1.32,2.32-2.91,2.28-4.1,1.56a2,2,0,0,1-1.06-2.26c.42-1,1.9-1.11,2.83-1,.58,0,.59,1,0,.92Z"/><path class="cls-5" d="M48.94,248.54l.76,1.39c.28.52-.51,1-.79.46L48.15,249c-.28-.52.51-1,.79-.46Z"/><path class="cls-5" d="M49.89,250.46a.46.46,0,0,1,0-.92.46.46,0,0,1,0,.92Z"/><path class="cls-5" d="M49.1,242c2.31-.34,5.37.5,6.55,2.73,1.26,2.4-2.49,4.05-4.22,4.48a.46.46,0,0,1-.24-.88c1.5-.37,5-1.79,3.2-3.73a5.75,5.75,0,0,0-5-1.71c-.58.09-.83-.8-.24-.88Z"/><path class="cls-5" d="M48.48,245.47l-.59-1.5a.46.46,0,0,1,.44-.58q1.64,0,3.27-.06c.59,0,.59.9,0,.92q-1.64.05-3.27.06l.44-.58.59,1.5c.22.55-.67.79-.88.24Z"/><path class="cls-5" d="M45.67,240.05c-1.17,0-2.48-.47-3.63-.13a2.67,2.67,0,0,0-1.58,1.52c-.2.39-.76,1.43-.32,1.8l-.56-.07-.18.31c-.07-.58.84-.58.92,0v.05a.45.45,0,0,1-.23.4L40,244a.47.47,0,0,1-.56-.07c-1.07-.9.11-3,.74-3.8,1.39-1.73,3.53-1,5.43-.95.59,0,.59.94,0,.92Z"/><path class="cls-5" d="M44.62,243.63a5.16,5.16,0,0,0-4.57,1c-1,.87-1.93,1.89-1.74,3.32l-.69-.4.23-.12c.52-.27,1,.52.46.79l-.23.12a.47.47,0,0,1-.69-.4c-.24-1.83,1-3.21,2.36-4.26,1.59-1.24,3.18-1.24,5.1-1,.58.08.33,1-.24.88Z"/><path class="cls-5" d="M43.77,247.17a5.8,5.8,0,0,0-3.95.85c-1.63,1.05-1.5,2.67-1.52,4.41a.46.46,0,0,1-.92,0c0-2-.09-3.7,1.67-5a6.74,6.74,0,0,1,5-1.16c.58.08.33,1-.24.88Z"/><path class="cls-5" d="M44.2,250.9c-2.06.07-5.29.15-6.57,2.12-1.47,2.26.91,5.72,3.39,5.9.59,0,.59,1,0,.92a5.6,5.6,0,0,1-4.82-6c.52-3.34,5.45-3.76,8-3.85.59,0,.59.9,0,.92Z"/><path class="cls-5" d="M54.54,249.27a13.52,13.52,0,0,1,0,2.19,1.85,1.85,0,0,0,1,2l4,2.75c.48.33,0,1.13-.46.79a45.92,45.92,0,0,1-5.28-3.6.9.9,0,0,1-.39-.9c0-1.1.28-2.15.23-3.28,0-.59.89-.59.92,0Z"/><path class="cls-5" d="M51.35,260.42a.46.46,0,0,1,0-.92.46.46,0,0,1,0,.92Z"/><path class="cls-5" d="M50.88,260.11A3.45,3.45,0,0,0,48.7,260a14.85,14.85,0,0,0-2.35.45.46.46,0,0,1-.56-.32l0-.08a.46.46,0,0,1,.12-.45l.06-.05c.46-.36,1.11.28.65.65l-.06.05.12-.45,0,.08-.56-.32a16.14,16.14,0,0,1,2.95-.51,3.48,3.48,0,0,1,2.29.3c.48.34,0,1.13-.46.79Z"/><path class="cls-5" d="M52.95,259q2.33.65,4.7,1.08c.58.11.33,1-.24.88q-2.38-.43-4.7-1.08a.46.46,0,0,1,.24-.88Z"/><path class="cls-5" d="M58.15,259.17c1.47-.59,3.71-1.54,5.24-.71.52.28.06,1.07-.46.79-1.21-.65-3.38.35-4.54.81-.55.22-.79-.67-.24-.88Z"/><path class="cls-5" d="M64.09,257.51c1.28-.71,2.67-1.31,4.08-.59.53.27.06,1.06-.46.79-1.08-.55-2.2.06-3.16.59-.52.28-1-.51-.46-.79Z"/><path class="cls-5" d="M70.68,257.81c1.15.47,2.31.88,3.49,1.24a.46.46,0,0,1,.27.67c-1.7,2.55-.19,5,.69,7.54a.47.47,0,0,1-.32.56c-.43.18-1,1.32-1.36,1.63a7.87,7.87,0,0,1-2.1,1.43c-.36.18-.93-.23-.63-.63,2.52-3.27-1.06-3.25-3.4-3.8a3.27,3.27,0,0,1-2.09-1.34c-.35-.48.45-.94.79-.46,1.31,1.81,4.76.54,6.34,2.44.94,1.13-.08,2.63-.84,3.62l-.63-.63c1.09-.54,2.77-1.61,3.15-2.87.14-.46-.38-1.37-.63-2.09-.84-2.41-1.22-3.7.23-5.88l.27.67c-1.19-.36-2.34-.77-3.49-1.24-.54-.22-.3-1.11.24-.88Z"/><path class="cls-5" d="M68.06,263.6a28.5,28.5,0,0,1-3.56-2.81,2.84,2.84,0,0,1-.66-2.91c.13-.58,1-.33.88.24-.3,1.31.26,1.91,1.2,2.7s1.72,1.34,2.6,2c.47.34,0,1.14-.46.79Z"/><path class="cls-5" d="M69.19,262.12c-1-1-2-1.87-2.88-2.89-.71-.81-.6-1.22.2-1.9.45-.38,1.1.26.65.65-.1.08-.42.27-.45.39.07-.22.16.1.26.22.29.34.62.64.94,1l1.94,1.94a.46.46,0,0,1-.65.65Z"/><path class="cls-5" d="M65.43,266a8.49,8.49,0,0,1-.94,3.22c-.24.47-1,.14-.84-.35a2.5,2.5,0,0,0-.28-2.61c-.66-.95-.66-.82-1.61-1.09a5.86,5.86,0,0,1-2-1c-1.13-.86-2-2.15-1.35-3.54.26-.53,1.05-.07.79.46-.73,1.48,1.57,2.78,2.62,3.1a5.7,5.7,0,0,1,2.13.77c1.25,1,1,2.74.6,4.1l-.84-.35a7.22,7.22,0,0,0,.81-2.75c.05-.58,1-.59.92,0Z"/><path class="cls-5" d="M64.07,264a.46.46,0,0,1,0-.92.46.46,0,0,1,0,.92Z"/><path class="cls-5" d="M90.13,248.16q-9.41-.12-18.82-.32l-8.68-.21c-2-.05-5.71.46-7.58-.32a.49.49,0,0,1-.34-.44v-.15c-.05-.59.86-.58.92,0,0,.36,31.59.5,34.51.53a.46.46,0,0,1,0,.92Z"/><path class="cls-5" d="M98.7,269.43c-3.28-3.42-7.6-4.81-12.11-5.88a148.24,148.24,0,0,0-14.81-2.83c-.58-.08-.58-1,0-.92A141.32,141.32,0,0,1,88.06,263c4.25,1.07,8.2,2.6,11.28,5.82.41.43-.24,1.08-.65.65Z"/><path class="cls-5" d="M98.82,268.94c-3-3-4.31-6.84-5.16-11-.59-2.88-1.31-6.53.22-9.26a.45.45,0,0,1,.4-.23l.47,0c.59,0,.59,1,0,.92-1.84-.11-.19,8.47.07,9.61a18.67,18.67,0,0,0,4.64,9.25c.41.42-.23,1.07-.65.65Z"/><path class="cls-5" d="M155.31,255.63c-.56-2.9-2.5-4.48-3.65-7-.81-1.78-1.19-3.75-2-5.56-1.49-3.34-2.88-6.4-2.16-10.13.11-.58,1-.33.88.24-.91,4.69,2,8.64,3.46,12.88,1.17,3.34,3.67,5.82,4.36,9.35.11.58-.77.82-.88.24Z"/><path class="cls-5" d="M151.69,253.62c-3.93-2.34-7.7-4.81-9.53-9.19s-2.57-9.72-1-14.32c.19-.56,1.07-.32.88.24-1.5,4.44-.78,9.43,1,13.71s5.38,6.53,9.12,8.77a.46.46,0,0,1-.46.79Z"/><path class="cls-5" d="M145.39,238.47a28.16,28.16,0,0,1-1.77-7.47c-.14-2.8,1.11-5.28,1.23-8,0-.59.94-.59.92,0-.09,2.2-1,4.2-1.17,6.39-.27,3.08.71,6,1.67,8.88.19.56-.7.8-.88.24Z"/><path class="cls-5" d="M164.61,276.94c.8-1.32-17.18-11.09-17.77-13.23a.45.45,0,0,1,.12-.45l.29-.24a.47.47,0,0,1,.65,0l.27.25a.45.45,0,0,1,.12.45l-.12.35c-.19.56-1.07.32-.88-.24.13-.38,7,4.42,7.59,4.81a47.06,47.06,0,0,0,8.73,5.26c1.68.72,3.09,1.38,1.8,3.51-.31.5-1.1,0-.79-.46Z"/><path class="cls-5" d="M148.05,267.49c-.6-6.44-7.26-13.38-13-16-.54-.24-.07-1,.46-.79,6.16,2.78,12.84,9.86,13.48,16.77.05.59-.86.58-.92,0Z"/><path class="cls-5" d="M141.54,268.71a3.24,3.24,0,0,0-3.43-2.84.45.45,0,0,1-.4-.23,9.58,9.58,0,0,0-1.74-2.85c-.49-.54-1.29-.9-1.66-1.51-.48-.78-.23-1.69-.93-2.42a17.89,17.89,0,0,0-3.13-2c-.5-.32,0-1.11.46-.79,1.26.8,3.33,1.58,4.18,2.86.4.59.21,1.57.62,2.19s1.15,1,1.59,1.6.78,1.56,1.37,2,1.11.31,1.66.58a4.16,4.16,0,0,1,2.28,3.15c.1.58-.78.83-.88.24Z"/><path class="cls-5" d="M127.27,269.81a53.62,53.62,0,0,1-7.57,3.68c-2.16.84-4.6,2-6.95,1.52-.58-.13-.33-1,.24-.88,2.33.51,5.67-1.17,7.76-2.05a53,53,0,0,0,6-3.05.46.46,0,0,1,.46.79Z"/><path class="cls-5" d="M125.69,263.09c-5.89,3.16-11.94,6.1-18.79,4.83-.58-.11-.33-1,.24-.88,6.58,1.23,12.44-1.71,18.08-4.74.52-.28,1,.51.46.79Z"/><path class="cls-5" d="M158,284.74l-13.3-7.31c-2.14-1.18-4.15-2.52-6.7-2.43-3.1.11-6.43,1.59-9.08,3-.52.28-1-.51-.46-.79,3.55-1.91,8.59-4.21,12.66-2.73,2.65,1,5.2,2.77,7.67,4.13l9.67,5.32c.52.28.06,1.08-.46.79Z"/><path class="cls-5" d="M124.24,279.41a30.57,30.57,0,0,1-9.17,0c-.58-.09-.33-1,.24-.88a29.06,29.06,0,0,0,8.68,0c.58-.09.83.8.24.88Z"/><path class="cls-5" d="M151.27,292.77q-5.74-1.85-11.61-3.21c-.57-.13-.33-1,.24-.88q5.87,1.37,11.61,3.21c.56.18.32,1.07-.24.88Z"/><path class="cls-5" d="M156.3,302.92a182.38,182.38,0,0,0-19-13.28.46.46,0,0,1,.46-.79,184.25,184.25,0,0,1,19.21,13.42c.46.37-.19,1-.65.65Z"/><path class="cls-5" d="M152,308c2.75-1.43-3.64-5.5-4.34-6q-1.59-1.17-3.13-2.41-3.48-2.81-6.69-5.93c-1.22-1.19-2.74-3.32-4.31-4-1.76-.75-3.59-.5-5.41-.47a18.11,18.11,0,0,1-7.11-1.38c-4.74-1.9-9.17-5.17-13.15-8.35-2.3-1.84-8.33-6.57-8.1-10a.47.47,0,0,1,.34-.44l.15,0a.46.46,0,0,1,.24.88c.32-.08,2.87,4,3.07,4.25a30.8,30.8,0,0,0,3.19,3.2,74.43,74.43,0,0,0,8.79,6.46c3.14,2,6.51,3.86,10.27,4.32,2.72.33,5.65-.65,8.18.74s4.32,4,6.35,5.89a94.38,94.38,0,0,0,8.85,7.22c1.65,1.19,7.29,4.72,3.26,6.82-.52.27-1-.52-.46-.79Z"/><path class="cls-5" d="M174.49,273.93a70.65,70.65,0,0,1-11.23-8.87,55,55,0,0,1-4.83-4.75c-.47-.57-.8-1.33-1.28-1.84-1.09-1.16-1.75-.65-3.27-.42-.34.05-.78-.31-.52-.67l.27-.37a.46.46,0,0,1,.4-.23l.46.05c.58.06.59,1,0,.92l-.33.1-.52-.67a12.28,12.28,0,0,0,3.09-.86.46.46,0,0,1,.52.21c1.52,3.6,4.76,6.15,7.57,8.75A66.14,66.14,0,0,0,175,273.14c.5.31,0,1.1-.46.79Z"/><path class="cls-5" d="M188.59,287.4c.66-2.2-2.76-6.31-4.09-7.75-2.07-2.23-4.76-3.43-7.52-4.57-.54-.22-.3-1.11.24-.88,3.36,1.39,6.42,2.87,8.74,5.76,1.45,1.81,4.26,5.16,3.51,7.69a.46.46,0,0,1-.88-.24Z"/><path class="cls-5" d="M172.09,280.45c1.37,0,3.61.16,3.67,2,.05,1.54-1.6,2-2.69,2.56-8.89,4.71-6.67,17.77-.19,23.73.44.4-.21,1-.65.65a20,20,0,0,1-5.94-15.69,12.48,12.48,0,0,1,2.4-6.37,10.34,10.34,0,0,1,2.2-2.16,15.58,15.58,0,0,0,1.38-.81l.5-.24q1.38-.55-.68-2.8a.46.46,0,0,1,0-.92Z"/><path class="cls-5" d="M164.84,290.85a11.13,11.13,0,0,0-3.49,12.85c.2.56-.68.79-.88.24a12,12,0,0,1,3.73-13.75c.45-.37,1.11.27.65.65Z"/><path class="cls-5" d="M163.33,281.74a22,22,0,0,0-6.24,10.32c-1.19,5,.48,9.58,2.89,13.94a48.43,48.43,0,0,0,15.67,16.84c.49.33,0,1.12-.46.79a48.77,48.77,0,0,1-17.6-20.34c-3.67-8.13-1.08-16.11,5.09-22.21.42-.42,1.07.23.65.65Z"/><path class="cls-5" d="M174.62,313.66a8.67,8.67,0,0,0-8.48-.35c-.53.26-1-.53-.46-.79a9.62,9.62,0,0,1,9.4.35.46.46,0,0,1-.46.79Z"/><path class="cls-5" d="M173.29,314.3c-1.12.33-2.23.71-3.32,1.13l-.12-.9a42.05,42.05,0,0,1,7.1,1.57.46.46,0,0,1-.12.9c-1.72.09-3.36.22-4.58,1.6l-.32-.78c1.92-.09,4-.43,5.85.25a.46.46,0,0,1,0,.88c-.4.13-2.1.34-1.84,1,.09.21,1.76.5,2,.57a.46.46,0,0,1,.27.67.84.84,0,0,0-.16,1.12c.36.47-.44.93-.79.46-.55-.73-.34-1.33.16-2.05l.27.67c-.81-.23-2.94-.36-3.08-1.52s2.16-1.58,2.89-1.81v.88c-1.75-.64-3.78-.3-5.61-.22a.46.46,0,0,1-.32-.78c1.37-1.55,3.26-1.77,5.22-1.87l-.12.9a40.67,40.67,0,0,0-6.85-1.54.46.46,0,0,1-.12-.9c1.09-.42,2.19-.8,3.32-1.13a.46.46,0,0,1,.24.88Z"/><path class="cls-5" d="M185.76,289.79c-.36.28-3.1,2.17-3.4,2.92s.1,1.25.32,2a14.13,14.13,0,0,1,.81,3.71,13.07,13.07,0,0,1-3.06,8.2c-.35.46-1.15,0-.79-.46,2.88-3.8,4.12-8.52,1.2-12.72a.46.46,0,0,1,.07-.56A39.14,39.14,0,0,1,185.3,289c.47-.36.93.44.46.79Z"/><path class="cls-5" d="M182.45,310.25c5.11,7.15,15.11,10.64,12.54,21.26-1,4.11-4,5.75-7.66,7.26C181,341.39,176,345.67,170.78,350c-.45.37-1.11-.27-.65-.65A114.64,114.64,0,0,1,181,340.9c4.18-2.66,11-3.49,12.86-8.63,3.76-10.5-7.23-14.66-12.16-21.56-.34-.48.45-.94.79-.46Z"/><path class="cls-5" d="M169.57,344.6q11.19-7.61,21.86-16c.46-.36,1.11.29.65.65q-10.76,8.41-22,16.1c-.49.33-.95-.46-.46-.79Z"/><path class="cls-5" d="M190.29,328l-3.91.12c-.59,0-.59-.9,0-.92l3.91-.12c.59,0,.59.9,0,.92Z"/><path class="cls-5" d="M188.59,330.14a14,14,0,0,0-5.5,2.4c-.4.3-4.17,3.73-4,3.94.35.47-.44.93-.79.46-.74-1,2.56-3.71,3.2-4.28a14.81,14.81,0,0,1,6.87-3.4c.58-.12.82.76.24.88Z"/><path class="cls-5" d="M176.25,338.57c-3.22,3.16-6.3,6.75-10,9.32-.49.34-.95-.46-.46-.79,3.66-2.52,6.69-6.07,9.84-9.17.42-.41,1.07.23.65.65Z"/><path class="cls-5" d="M180.32,331a16.63,16.63,0,0,1-4.64-6.74c-.19-.56.69-.8.88-.24a15.7,15.7,0,0,0,4.41,6.33c.43.41-.22,1.06-.65.65Z"/><path class="cls-5" d="M185.8,326.7c-1.76-2.59-4.23-4.53-6-7.07a37.3,37.3,0,0,1-3.84-8.57c-.2-.56.69-.8.88-.24,1.13,3.22,2.37,7.09,4.81,9.6a42.32,42.32,0,0,1,4.9,5.82c.33.49-.46.95-.79.46Z"/><path class="cls-5" d="M190.05,327a12.81,12.81,0,0,1-7.49-4.68c-.36-.46.29-1.11.65-.65a12,12,0,0,0,7.08,4.44c.58.12.33,1-.24.88Z"/><path class="cls-5" d="M199.7,338.4c5-5.47-1.31-10.68-5-14.39-2.4-2.43-1.17-5.74-.76-8.83.08-.58,1-.58.92,0-.47,3.55-1.36,6.05,1.32,8.86a31.89,31.89,0,0,1,4.69,5.41c2.29,3.78,2.49,6.3-.55,9.59-.4.43-1-.22-.65-.65Z"/><path class="cls-5" d="M192.67,312.25l-.83-5.12c-.09-.58.79-.83.88-.24l.83,5.12c.09.58-.79.83-.88.24Z"/><path class="cls-5" d="M192.53,304.19c.25,1.17.37,2.31-.68,3.1-.87.66-2,.86-2.52,1.95s-1.09,4-.61,4.85a.46.46,0,0,1-.79.46c-.91-1.59,0-3.95.51-5.56a2.75,2.75,0,0,1,1-1.63c1.17-.83,2.59-1,2.16-2.93-.13-.58.76-.82.88-.24Z"/><path class="cls-5" d="M190.89,299.77a19.27,19.27,0,0,0-3.11-11.36c-.32-.5.47-1,.79-.46a20.15,20.15,0,0,1,3.24,11.82c0,.59-.94.59-.92,0Z"/><path class="cls-5" d="M197.88,340.26a17.8,17.8,0,0,0-7.78,4c-.44.39-1.09-.26-.65-.65a18.81,18.81,0,0,1,8.18-4.2c.57-.13.82.75.24.88Z"/><path class="cls-5" d="M189.89,341.82c-1.58,1.47-.65,3.06-.54,4.76a8.1,8.1,0,0,1-.9,3.64c-.87,2-2,3.8-4.27,4.2a.46.46,0,0,1-.24-.88l.35-.14c.55-.22.78.66.24.88l-.35.14-.24-.88c2-.34,3-2,3.7-3.75a6.25,6.25,0,0,0,.62-2.75,6.69,6.69,0,0,0-.48-2.39c-.35-1.51.38-2.45,1.47-3.46.43-.4,1.08.25.65.65Z"/><path class="cls-5" d="M187.64,342.82a7.66,7.66,0,0,0-1.4,2.69c-.24,1.18.29,2.3.33,3.47a3,3,0,0,1-1.22,2.73c-.48.35-.94-.45-.46-.79,1.58-1.14.26-3.51.38-5.07a7.33,7.33,0,0,1,1.57-3.49c.33-.48,1.13,0,.79.46Z"/><path class="cls-5" d="M184.57,346.72l-1.71,3.91c-.24.54-1,.07-.79-.46l1.71-3.91c.24-.54,1-.07.79.46Z"/><path class="cls-5" d="M178.55,352.45a21.92,21.92,0,0,0-5.75,1.8c-.53.25-1-.54-.46-.79a22.79,22.79,0,0,1,6-1.89c.58-.1.83.79.24.88Z"/><path class="cls-5" d="M163.23,346.72c-6.53-3-15.47-1.34-19.94,4.31.37-.46,1,.19.65.65l-.13.16a.44.44,0,0,1-.45.12l-.23-.09a.48.48,0,0,1-.32-.56c.5-3.5,5.12-5.64,8.13-6.23,4.29-.85,8.72-1,12.76.85.54.24.07,1-.46.79Z"/><path class="cls-5" d="M153.36,346c-3.24.6-6.24,1.69-7.11,5.22l-.56-.56.34-.11c.56-.18.8.7.24.88l-.34.11a.46.46,0,0,1-.56-.56c1-3.85,4.17-5.2,7.76-5.86.58-.11.82.78.24.88Z"/><path class="cls-5" d="M150.05,349.64a.46.46,0,0,1,0-.92.46.46,0,0,1,0,.92Z"/><path class="cls-5" d="M158.2,347.72l.61,1.83c.19.56-.7.8-.88.24l-.61-1.83c-.19-.56.7-.8.88-.24Z"/><path class="cls-5" d="M151.76,347.75a5.57,5.57,0,0,1,.68,3.28c-.06.58-1,.59-.92,0a4.72,4.72,0,0,0-.56-2.82c-.28-.52.51-1,.79-.46Z"/><path class="cls-5" d="M145.4,350.94l16.66-.11c1.75,0,9.81-1.06,10.85,1.15,1.24,2.64-4.24,1.93-1.56-.51.44-.4,1.09.25.65.65s-6-.39-7.12-.39c-2.15,0-4.3,0-6.45,0l-13,.08a.46.46,0,0,1,0-.92Z"/><path class="cls-5" d="M168,353.65l-8.32-.13a.46.46,0,0,1,0-.92l8.32.13a.46.46,0,0,1,0,.92Z"/><path class="cls-5" d="M176.41,328.14c-8.27,6.41-19,6.52-28.49,10-.55.21-.79-.68-.24-.88,9.31-3.45,20-3.52,28.09-9.8.46-.36,1.11.29.65.65Z"/><path class="cls-5" d="M156.71,308.39q-7.81,7.3-15,15.18c-.4.44-1-.21-.65-.65q7.22-7.88,15-15.18c.43-.4,1.08.24.65.65Z"/><path class="cls-5" d="M154.09,318.58a.46.46,0,0,1,0-.92.46.46,0,0,1,0,.92Z"/><path class="cls-5" d="M157.22,316.36q-6.08,4.93-12.47,9.45c-.48.34-.94-.45-.46-.79q6.3-4.45,12.28-9.31c.45-.37,1.11.28.65.65Z"/><path class="cls-5" d="M166.61,323.8a22.14,22.14,0,0,1-17.28,5.26c-.58-.07-.59-1,0-.92a21.22,21.22,0,0,0,16.64-5c.45-.38,1.1.26.65.65Z"/><path class="cls-5" d="M140.51,329.69l-3.3,1a.46.46,0,0,1-.24-.88l3.3-1a.46.46,0,0,1,.24.88Z"/><path class="cls-5" d="M130.42,329c-1.07-5.57,5.1-5.78,8.26-8.67,4.67-4.26,8.67-8.74,14.54-11.41.53-.24,1,.55.46.79-4.57,2.08-8.31,5.28-11.86,8.79a37.46,37.46,0,0,1-3.88,3.68c-2.26,1.67-7.44,2.44-6.64,6.57.11.58-.77.82-.88.24Z"/><path class="cls-5" d="M130.37,333.6c-2.92,2.4-.47,5.36,1.43,7.5a56.48,56.48,0,0,0,4.06,4.1,46.43,46.43,0,0,1,6.65,6.92c.34.48-.45.94-.79.46-3.33-4.65-8.22-7.91-11.84-12.33-2.4-2.93-3.41-4.63-.15-7.31.45-.37,1.11.27.65.65Z"/><path class="cls-5" d="M134,333.79c.25,1,0,2.32.54,3.18s3,2,4,2.7q4,2.69,8.08,5.35c.49.32,0,1.12-.46.79q-4.86-3.2-9.69-6.43c-.86-.57-2.36-1.14-2.9-2s-.2-2.19-.48-3.31a.46.46,0,0,1,.88-.24Z"/><path class="cls-5" d="M145.54,344.18a23.25,23.25,0,0,0-4.62-8.3c-.38-.45.27-1.1.65-.65a24.51,24.51,0,0,1,4.85,8.7c.17.57-.71.81-.88.24Z"/><path class="cls-5" d="M149.35,343.07a29.31,29.31,0,0,0-2.31-5.74c-.28-.52.51-1,.79-.46a30.47,30.47,0,0,1,2.41,6,.46.46,0,0,1-.88.24Z"/><path class="cls-5" d="M146.83,334.5a14.65,14.65,0,0,0-4.34-4c-.5-.31,0-1.1.46-.79a15.77,15.77,0,0,1,4.67,4.35c.34.48-.45.94-.79.46Z"/><path class="cls-5" d="M194.83,300.8q2.88,1.63,2.48-2.57,2-2.41.06-4a15.67,15.67,0,0,0-1.21-1.6c-1.34-1.85-2.52-3.8-3.69-5.76-2-3.3-4.4-6.56-5.76-10.16-1.5-3.95-1.78-7.53-1.9-11.74-.07-2.41-.09-4.82,0-7.23.08-1.45-.14-3.62.66-4.88a.47.47,0,0,1,.79,0l.1.13a.46.46,0,0,1-.07.56l-.09.07c-.46.36-1.12-.29-.65-.65.11-.09.13,5.7.12,6.22,0,1.45,0,2.89,0,4.34.06,3.45,0,7,1,10.31,1.55,5.27,5,10.06,7.85,14.7,1.5,2.42,3.51,4.5,5,6.88a4.62,4.62,0,0,1,.94,3c-.28,3-3.3,4.23-5.89,3.2-.54-.22-.31-1.1.24-.88Z"/><path class="cls-5" d="M185,250.61a26.8,26.8,0,0,1,4.29-13c1.52-2.29,4.29-4.38,4.94-7.08a6.17,6.17,0,0,0-2.49-6.39,5.53,5.53,0,0,0-4.31-.56,5.22,5.22,0,0,0-2.93,1.94c.38.45-.27,1.1-.65.65-1.08-1.29,1.47-2.74,2.42-3.15a6.3,6.3,0,0,1,7.81,2.2c1.94,2.91,1.31,6-.68,8.71-4,5.33-7,9.75-7.5,16.64,0,.58-1,.59-.92,0Z"/><path class="cls-5" d="M183.49,230.19c.69,1.84,1.27,3.9.47,5.81a5,5,0,0,1-1,1.53,9.32,9.32,0,0,1-1.05.85l-1,.71q-2.35,1.34.07,4.6a.46.46,0,0,1-.24.88,3,3,0,0,1-2.23-4.19,5.94,5.94,0,0,1,1.88-2.07c1.17-1,2.51-1.73,2.93-3.33s-.18-3.13-.72-4.55c-.21-.55.68-.79.88-.24Z"/><path class="cls-5" d="M182.87,231.43c.59,1.84,1.18,4.37-.71,5.72a4.14,4.14,0,0,1-3,.49c-.5-.05-1-.17-1.5-.25l-1.36-.24q-2.95-1.12-3.86,2.67c.46.35,0,1.15-.46.79-1.74-1.33-1.07-3.6.9-4.34,1.4-.53,2.93-.14,4.35.11s3.87,1.09,5-.66c.76-1.23.16-2.82-.24-4.05-.18-.56.71-.8.88-.24Z"/><path class="cls-5" d="M178.2,243.54a9.28,9.28,0,0,1-2.74-2.4c-.65-1-.14-2.13.41-3.06a.46.46,0,0,1,.79.46,3,3,0,0,0-.6,1.55,2,2,0,0,0,.7,1.13,12.73,12.73,0,0,0,1.91,1.53c.49.32,0,1.12-.46.79Z"/><path class="cls-5" d="M175.69,244.21a15.38,15.38,0,0,1-2.61,1.95l-.46-.79a3.84,3.84,0,0,0,1.5-1.1c.35-.43.18-.62-.17-.95a10.45,10.45,0,0,0-.87-.74c-.39-.29-.19-1,.35-.84l.47.13a.46.46,0,0,1-.24.88l-.47-.13.35-.84c.67.5,2,1.32,1.73,2.31a3.89,3.89,0,0,1-2.19,2.05c-.53.23-1-.48-.46-.79a14.24,14.24,0,0,0,2.42-1.8c.43-.4,1.08.25.65.65Z"/><path class="cls-5" d="M181.4,229a4.38,4.38,0,0,1-2.26,5.2,8.45,8.45,0,0,1-3.29.78c-1.8.12-9.62,0-6.15,3.83.39.44-.25,1.09-.65.65a3,3,0,0,1,.93-4.9c3.14-1.41,12.15,1.17,10.53-5.31a.46.46,0,0,1,.88-.24Z"/><path class="cls-5" d="M171.35,232.52c1.67-1.52,1.28-4.22,3-5.68a5.25,5.25,0,0,1,2.59-.9,4.07,4.07,0,0,1,2.78.06c.52.28.06,1.07-.46.79-.81-.44-2.29,0-3.16.24-1.39.37-1.95,1.4-2.36,2.69a7.23,7.23,0,0,1-1.78,3.45c-.44.4-1.09-.25-.65-.65Z"/><path class="cls-5" d="M178.26,228.59c.36,3.28-3.15,4.47-5.7,5-.58.12-.82-.77-.24-.88,2.15-.43,5.34-1.26,5-4.09-.06-.59.85-.58.92,0Z"/><path class="cls-5" d="M179.89,223.17c3.8-7,17.75-9,21.42-.72,1.89,4.28.67,9.76-1.71,13.57-1.36,2.17-3.19,4-4.59,6.15-2.36,3.61-2.63,7.93-3,12.12a39.16,39.16,0,0,0,3.9,21.4c2.54,5.28,6.13,10.1,8.14,15.62,1.66,4.59,2.14,10.13-.69,14.38a9.71,9.71,0,0,1-10.25,4.22c-.58-.13-.33-1,.24-.88,7,1.58,11.41-5.29,11.1-11.56-.27-5.34-3.11-10.05-5.7-14.57-4.37-7.61-8.11-15.49-7.93-24.47.09-4.37.28-9.6,1.85-13.73,1.33-3.52,4.22-6,6.15-9.14,2.93-4.78,4.21-13.11-1.79-16.12-5.57-2.8-13.25-1.49-16.34,4.21-.28.52-1.07.06-.79-.46Z"/><path class="cls-5" d="M143,173.49c-.17-.9-1.08-1.27-1.84-1.59-.54-.23-.07-1,.46-.79,1,.42,2,1,2.26,2.14.11.58-.77.82-.88.24Z"/><path class="cls-5" d="M144.23,174.24a2.74,2.74,0,0,0-.34-3.11,5.4,5.4,0,0,0-2.43-1.34c-.57-.14-.33-1,.24-.88a6.1,6.1,0,0,1,3.23,2c.79,1,.58,2.52.18,3.6-.2.55-1.09.31-.88-.24Z"/><path class="cls-5" d="M142.38,169.31c-9.23-10.59-25.32-11.92-37.86-7.25-.55.21-.79-.68-.24-.88,12.82-4.77,29.33-3.33,38.75,7.49.39.44-.26,1.09-.65.65Z"/><path class="cls-5" d="M100.12,162.82a3.6,3.6,0,0,1,.55-1.91,2.37,2.37,0,0,1,1.66-.79c.58-.12.82.77.24.88s-.9.08-1.18.47a2.63,2.63,0,0,0-.36,1.35c-.05.58-1,.59-.92,0Z"/><path class="cls-5" d="M102.6,161.27c2.15-3.08,6.51-3.78,10-4.53a39.82,39.82,0,0,1,15.79.09c4.57.86,19.81,5.57,14.16,12.66-.37.46-1-.19-.65-.65,3.56-4.46-4.68-8.49-7.82-9.62a43.5,43.5,0,0,0-10.63-2.18,35.31,35.31,0,0,0-10.61.58c-3.09.66-7.49,1.35-9.4,4.1-.34.48-1.13,0-.79-.46Z"/><path class="cls-5" d="M143.27,164.55c-2.36-5-8.24-6.6-13.3-7.7a42.49,42.49,0,0,0-14.17-.57c-.58.07-.58-.85,0-.92a43,43,0,0,1,16.84,1.21c4.72,1.33,9.23,2.88,11.43,7.52.25.53-.54,1-.79.46Z"/><path class="cls-5" d="M143.64,168.71a3.3,3.3,0,0,0,.35-2.51.46.46,0,0,1,.32-.56c.9-.13,2-.05,2.57-.77.43-.51.68-1.39-.51-1.52a1.5,1.5,0,0,0-1.2.46c-.35.47-1.15,0-.79-.46.84-1.12,3.08-1.41,3.64.13a2.28,2.28,0,0,1-.27,2.18c-.71.82-2.24.73-3.2.87l.32-.56a4.26,4.26,0,0,1-.44,3.22c-.29.52-1.08.05-.79-.46Z"/><path class="cls-5" d="M144.29,163.67a20.5,20.5,0,0,1,7.09-7.75c.5-.32,1,.47.46.79a19.56,19.56,0,0,0-6.76,7.42c-.27.52-1.07.06-.79-.46Z"/><path class="cls-5" d="M150.39,153.76c-1.43-.32-3.27-.71-4.33.61-.37.46-1-.19-.65-.65,1.27-1.59,3.48-1.24,5.22-.85.58.13.33,1-.24.88Z"/><path class="cls-5" d="M142.8,160.34a8.79,8.79,0,0,1,9.17-5.79c.58.05.59,1,0,.92a7.87,7.87,0,0,0-8.29,5.12c-.21.55-1.09.31-.88-.24Z"/><path class="cls-5" d="M141.29,159.36c1.92-3,4.74-8.22.62-10.84-1.15-.73-3-.05-4.26.3a6.32,6.32,0,0,0-4.46,6.67c.08.58-.8.83-.88.24A7.07,7.07,0,0,1,135,149.2a6.73,6.73,0,0,1,3.07-1.41c1-.24,2.51-.9,3.51-.71,1.71.32,3.16,3.42,3.32,4.89.33,2.92-1.28,5.51-2.8,7.85-.32.49-1.11,0-.79-.46Z"/><path class="cls-5" d="M137.19,155.29c-.58-2-.21-4,2.13-4.41,1.89-.32,3.39.64,3,2.68a3.27,3.27,0,0,1-4,2.7c-1.41-.41-3.41-2.47-2-3.86.42-.41,1.07.23.65.65-1.17,1.15,1.71,2.46,2.38,2.39a2.45,2.45,0,0,0,2.09-2.36c0-1.3-1.38-1.56-2.42-1.19-1.46.52-1.35,1.9-1,3.16a.46.46,0,0,1-.88.24Z"/><path class="cls-5" d="M141.94,144.93a11.07,11.07,0,0,0-5,.52,6.75,6.75,0,0,0-2.06,1.58,20.29,20.29,0,0,0-1.87,2c.26.53-.53,1-.79.46s-.13-.6.11-1a12.68,12.68,0,0,1,3.12-3.18c1.88-1.38,4.26-1.32,6.49-1.23.59,0,.59.94,0,.92Z"/><path class="cls-5" d="M142,144c-.18-1.69,1.67-2.32,3-2.59s3.3-.42,4,1.23c1.49,3.78-3.39,4.89-6,3.59-.53-.26-.07-1.05.46-.79,1.6.78,5.53.65,4.86-2-.34-1.38-1.48-1.33-2.64-1.17-.94.13-2.84.43-2.7,1.75.06.59-.86.58-.92,0Z"/><path class="cls-5" d="M143.95,146.29a5.66,5.66,0,0,1,2.33,4.18c.2,1.56.37,3.6-.6,4.94-.34.47-1.14,0-.79-.46.75-1,.62-2.55.53-3.78a5.07,5.07,0,0,0-1.94-4.09c-.48-.34,0-1.13.46-.79Z"/><path class="cls-5" d="M151.29,153.36c1.15-3.29,6.67-2,6.92,1.27a2.86,2.86,0,0,1-2.63,3.14c-1.52.2-3.72-.29-3.55-2.24.05-.58,1-.59.92,0-.18,2.13,5.42,1.84,4.21-1.42-.64-1.72-4.24-2.66-5-.5-.19.55-1.08.32-.88-.24Z"/><path class="cls-5" d="M128.17,141.68c1.29.68,2.79,1.16,3.65,2.41s.88,3.12,1.84,4.48c.34.48-.45.94-.79.46-.79-1.12-.91-2.44-1.42-3.68-.68-1.64-2.29-2.12-3.74-2.88-.52-.28-.06-1.07.46-.79Z"/><path class="cls-5" d="M122.61,141.71c-2.73.53-6.11,2.61-6.18,5.72a.46.46,0,0,1-.92,0c.08-3.52,3.7-6,6.86-6.61.58-.11.82.77.24.88Z"/><path class="cls-5" d="M107.29,142.33a18.27,18.27,0,0,1,6.15,1.39,3.82,3.82,0,0,1,2.39,3,.46.46,0,0,1-.88.24c-.48-1.85-1.64-2.4-3.34-2.93a18.49,18.49,0,0,0-4.31-.78c-.59,0-.59-1,0-.92Z"/><path class="cls-5" d="M104.34,146.5a11,11,0,0,0,.31,5.62.46.46,0,0,1-.77.45c-2-2.25-5.34-3.27-7.77-1l-.32-.78h.36c.59,0,.59.9,0,.92h-.36a.46.46,0,0,1-.32-.78c2.8-2.6,6.69-1.63,9.07,1l-.77.45a12,12,0,0,1-.31-6.11c.12-.58,1-.33.88.24Z"/><path class="cls-5" d="M101.23,159.44a7.05,7.05,0,0,0-1.89-3.74,6.4,6.4,0,0,0-4.14-1c-.59,0-.59-.9,0-.92a7.33,7.33,0,0,1,4.7,1.14,8,8,0,0,1,2.21,4.25.46.46,0,0,1-.88.24Z"/><path class="cls-5" d="M102.95,154.74a6.91,6.91,0,0,0-5.32-1.07c-.58.12-.82-.77-.24-.88a7.84,7.84,0,0,1,6,1.16c.49.33,0,1.12-.46.79Z"/><path class="cls-5" d="M94.43,151.22a10,10,0,0,0-1.35-.43,1.3,1.3,0,0,0-1.56,1.31,2.17,2.17,0,0,0,1.54,2.3c1.16.3,2.88-.48,2.18-1.88a1.71,1.71,0,0,0-1.31-1,5.75,5.75,0,0,0-.61-.1l-.24,1.05c.15.36,1.23.46,1.39.05s1.1-.31.88.24c-1,2.39-4.88-.25-3.06-2,.68-.64,2.33-.21,3,.29.83.63,1.47,2.06.87,3a3.06,3.06,0,0,1-5.32-.59,3,3,0,0,1,.28-2.87c.92-1.24,2.35-.67,3.56-.28.56.18.32,1.07-.24.88Z"/><path class="cls-5" d="M105.11,144.64c-1,.78-2.23,1.48-3.51.92a2.38,2.38,0,0,1-1.17-2.77c.41-2.88,4.6-3,6.33-1.26,2.18,2.24-1.4,4.61-3.42,3-.7-.58-1.23-1.87-.48-2.63s2.39.06,3,.7c.42.41-.23,1.06-.65.65s-1.68-1.39-1.79-.09c-.08,1,1.63,1.07,2.15.89,1.28-.44.77-1.79-.15-2.31a3.42,3.42,0,0,0-1.68-.43c-1.35,0-2.64.76-2.5,2.3.17,1.93,2.2,1.17,3.18.4.46-.36,1.11.28.65.65Z"/><path class="cls-5" d="M124.81,141.32c-1.28-.52-3.44-1.43-2.49-3.16s3.21-1.65,4.82-1.17a2.85,2.85,0,0,1,2.07,3.73c-.46,1.34-2.82,2.47-4.08,1.66-.5-.32,0-1.11.46-.79.34.22,1,0,1.36-.08a1.82,1.82,0,0,0,1.48-1.55c.13-1.29-.77-1.91-1.92-2.19a3.62,3.62,0,0,0-2.73.19c-.73.44-.92,1.24-.14,1.75a8.35,8.35,0,0,0,1.41.72c.54.22.3,1.11-.24.88Z"/><path class="cls-5" d="M126.33,140.18c-.49-.6-1.27-1.58-2.15-1.07a.46.46,0,0,1-.46-.79c1.28-.75,2.47.25,3.26,1.21.37.45-.27,1.11-.65.65Z"/><path class="cls-5" d="M117.8,152.42c-.16-2.29-.07-4.41,1.49-6.21a9.75,9.75,0,0,1,5.87-2.9c.58-.1.83.78.24.88a9.27,9.27,0,0,0-5.13,2.3c-1.63,1.64-1.72,3.74-1.56,5.92,0,.59-.88.59-.92,0Z"/><path class="cls-5" d="M129.2,154.13c.58-2.1.91-4-.4-5.93-.9-1.3-2.69-3-4.25-3.36-.58-.13-.33-1,.24-.88,1.77.39,3.8,2.32,4.8,3.78,1.44,2.1,1.14,4.3.5,6.64a.46.46,0,0,1-.88-.24Z"/><path class="cls-5" d="M113.89,154.47c-.56-4.3-3.26-8.61-8.19-7.93-.58.08-.83-.8-.24-.88,5.56-.77,8.71,3.84,9.35,8.82.08.58-.84.58-.92,0Z"/><path class="cls-5" d="M106,147.07c-1.18,3.45.75,6.89,2,10,.22.55-.67.78-.88.24-1.35-3.33-3.27-6.88-2-10.52.19-.56,1.08-.32.88.24Z"/><path class="cls-5" d="M109.91,148.93c2.1.82,2.67,3.46,2.26,5.51-.36,1.8-3.18,1.63-4.25.61s-2-4-1-5.38a2.68,2.68,0,0,1,4.59.57c.19.56-.69.8-.88.24a1.69,1.69,0,0,0-2.67-.52,2.26,2.26,0,0,0-.42,1.79,3.54,3.54,0,0,0,1.37,2.84,2.17,2.17,0,0,0,1.81.18c.6-.31.61-1.12.6-1.67,0-1.29-.27-2.75-1.64-3.29-.54-.21-.31-1.1.24-.88Z"/><path class="cls-5" d="M125.05,147c2.29.58,4.12,2.07,3,4.63-1,2.28-4.17,2-6.13,1.32s-3-2.63-1.4-4.34c1-1,2.46-1.24,3.76-1.49,1-.2,2-.47,2.74.43.37.46-.28,1.11-.65.65-.68-.85-3.78.12-4.58.59-1,.62-1.63,1.83-.47,2.88a4,4,0,0,0,1.81.68c1.5.32,3.59.39,4.18-1.36s-1-2.71-2.52-3.1a.46.46,0,0,1,.24-.88Z"/><path class="cls-5" d="M108.77,28.85a.46.46,0,0,1,0-.92.46.46,0,0,1,0,.92Z"/><path class="cls-5" d="M108.34,27.78l-.18-.73a.46.46,0,0,1,.88-.24l.18.73a.46.46,0,0,1-.88.24Z"/><path class="cls-5" d="M107.6,29.3c-3.24,7.08-4.94,14.78-7,22.27l-1.51,5.62c-.45,1.68-1.45,3.12.42,3.75,1.68.57,4.18.33,6,.56,1.59.2,3.17.44,4.74.71,15.63,2.65,30.65,8.17,46.46,9.91l-.32.78a81.39,81.39,0,0,1-21.09-24.77.46.46,0,0,1,.27-.67,118.91,118.91,0,0,0,28.56-12.38l.23.85a157.07,157.07,0,0,1-58.54-10.8.46.46,0,0,1,0-.88,5.78,5.78,0,0,1,2.73-.34c.58.05.59,1,0,.92a3.9,3.9,0,0,0-2.48.31v-.88A156.38,156.38,0,0,0,164.4,35a.46.46,0,0,1,.23.85,119.72,119.72,0,0,1-14.51,7.45q-3.36,1.43-6.8,2.66c-1.16.41-6.44,1.39-6.61,2.75-.06.47,1.6,2.71,1.85,3.12q1,1.54,2,3a77.78,77.78,0,0,0,5.11,6.59,81.46,81.46,0,0,0,11.4,10.78.46.46,0,0,1-.32.78c-20-2.21-39-10.42-59.19-11.28a.46.46,0,0,1-.44-.58c2.9-10.76,5-22.18,9.7-32.34.25-.54,1-.07.79.46Z"/><path class="cls-5" d="M104,27.46a27.74,27.74,0,0,0-3.46,3.68c-1,1.24-2.07,2.22.15,3.92a9.12,9.12,0,0,0,2.45.89l-.35.84-.58-.32a.46.46,0,0,1-.16-.63c2.63-3.82,3.11-8.64,5.88-12.39l.4.69c-.9-.05-2.78-.56-3.5.13-.26.25-.32,1.7-.44,2.12a17.92,17.92,0,0,1-2.25,4.93c-.32.5-1.11,0-.79-.46A17.2,17.2,0,0,0,104,23.45a.47.47,0,0,1,.46-.46l3.87.23c.31,0,.62.39.4.69-.54.73-5.74,11.93-5.46,12.09a.46.46,0,0,1-.35.84c-1.62-.53-4.36-1.18-4.61-3.28s3.62-5.44,5.06-6.74c.44-.39,1.09.25.65.65Z"/><path class="cls-5" d="M118.08,31.86,114,37.52c-.61.84-1.56,3-2.58,3.34s-2.29-.51-3-.79l-6.1-2.27c-.46-.17-.43-.92.12-.9l.67,0c.59,0,.59.94,0,.92l-.67,0,.12-.9c2.38.89,6.94,3.68,9.31,2,1-.73,2-2.73,2.72-3.77l2.72-3.77c.34-.47,1.14,0,.79.46Z"/><path class="cls-5" d="M137.39,45.54a49.92,49.92,0,0,1-12.13-1.84A.46.46,0,0,1,125,43l7.84-12.82c.31-.5,1.1,0,.79.46-2.14,3.5-5,7.09-6.63,10.85-.44,1-.93,1.09.12,1.73a8.83,8.83,0,0,0,2.7.6,48.82,48.82,0,0,0,7.58.77.46.46,0,0,1,0,.92Z"/><path class="cls-5" d="M133.25,54.65l-11.88-4,.52-.67c.66,1-.32,2.38-.7,3.3a36.42,36.42,0,0,1-4.74,8.09l-.72-.56.79-.63c.46-.36,1.11.28.65.65l-.79.63c-.37.29-1.06-.1-.72-.56A37.74,37.74,0,0,0,118.88,56c.63-1.17,2.89-4.55,2.22-5.55a.46.46,0,0,1,.52-.67l11.88,4c.56.19.32,1.07-.24.88Z"/><path class="cls-5" d="M109.13,56.23l4.42-8,.4.69a31.47,31.47,0,0,1-5.76-.23c-2-.27-3.93-1.16-5.88-1.31a.47.47,0,0,1-.44-.34l0-.2a.47.47,0,0,1,.32-.56l.13,0a.46.46,0,0,1,.24.88q-.26-.78.31-.63a2.74,2.74,0,0,1,.95.29c1,.29,2,.55,2.95.74a30,30,0,0,0,7.23.49.46.46,0,0,1,.4.69l-4.42,8c-.29.52-1.08.05-.79-.46Z"/><path class="cls-5" d="M108.07,22.38a15,15,0,0,1-1.08,2,.46.46,0,0,1-.85-.23,1.16,1.16,0,0,1,.31-.86c.38-.45,1,.2.65.65a.21.21,0,0,0,0,.21l-.85-.23a15,15,0,0,0,1.08-2c.24-.54,1-.07.79.46Z"/><path class="cls-5" d="M106.57,20.59a.46.46,0,0,1,0-.92.46.46,0,0,1,0,.92Z"/><path class="cls-5" d="M105.68,21.46a28.43,28.43,0,0,0-1.53,4.16l-.56-.56.31-.07c.57-.13.82.75.24.88l-.31.07a.46.46,0,0,1-.56-.56A30,30,0,0,1,104.89,21c.25-.54,1-.07.79.46Z"/><path class="cls-5" d="M103.9,19.86c-1.21-1.13-2.19-2.78-.54-4s4-.42,5.57.65c1,.7,2,1.51,2.93,2.28.63.51,1.39,1,1.22,1.88-.31,1.73-2.69,1.8-3.93,1.33-.55-.21-.31-1.09.24-.88q1.39.77,2.38-1.23L110.65,19c-.65-.51-1.28-1-1.95-1.53a7.6,7.6,0,0,0-1.91-1.09,3.79,3.79,0,0,0-2.05-.16q-1.7,2-.2,3c.43.4-.22,1.05-.65.65Z"/><path class="cls-5" d="M105.63,20.88c-.35-.31-1-.9-1.47-.67-.12.05-.35.26-.31.41s.55.16.7.14c.58-.07.58.84,0,.92a1.49,1.49,0,0,1-1.51-.61,1.2,1.2,0,0,1,.24-1.32c.92-1,2.19-.25,3,.48.44.39-.21,1-.65.65Z"/><path class="cls-5" d="M106.21,20.23a.46.46,0,0,1,0-.92.46.46,0,0,1,0,.92Z"/><path class="cls-5" d="M111,15.22a15.13,15.13,0,0,1,2.35-2.05l-.16.63a10.19,10.19,0,0,0-1.48-2.28c-.65-.51-1.55-.25-2.31-.27a16.57,16.57,0,0,1-4.29-.74l.56-.56c.42,1.85-.09,3.7-.41,5.53-.1.58-1,.33-.88-.24.29-1.65.79-3.38.41-5a.46.46,0,0,1,.56-.56,16.37,16.37,0,0,0,3.39.67c.82.07,2.18-.24,3,.06,1.07.42,1.7,2.09,2.28,3a.47.47,0,0,1-.16.63,13.84,13.84,0,0,0-2.16,1.91c-.4.43-1-.22-.65-.65Z"/><path class="cls-5" d="M106.88,7.79l7-7.66c.35-.38,1,.13.72.56-1.15,1.61-.5,4.12-.58,6a30.49,30.49,0,0,1-.74,5.26c-.13.58-1,.33-.88-.24a29,29,0,0,0,.71-7.42c-.05-1.47-.18-2.81.7-4.06l.72.56-7,7.66c-.4.44-1-.21-.65-.65Z"/><path class="cls-5" d="M109.65,14l-2.2,2.2a.46.46,0,0,1-.65-.65l2.2-2.2a.46.46,0,0,1,.65.65Z"/><path class="cls-5" d="M107.67,15.82a.46.46,0,0,1,0-.92.46.46,0,0,1,0,.92Z"/><path class="cls-5" d="M94.4,54.87c1.52-4.13,3-8.26,4.55-12.38.53-1.42,1.64-5.93,3.27-6.28a.47.47,0,0,1,.56.32v.06c.13.57-.75.82-.88.24.4,1.75-1.48,4.32-2.08,5.9-.47,1.23-.91,2.48-1.37,3.72l-3.19,8.67c-.2.55-1.09.31-.88-.24Z"/><path class="cls-5" d="M97.6,59.63l.08-.07-.07.56c-.15-.25-1.78-.15-2.11-.18l-2.24-.17.12-.9a17.87,17.87,0,0,1,4.75,2.48.46.46,0,0,1-.35.84,19.37,19.37,0,0,1-5-2.13.46.46,0,0,1,.35-.84,14.36,14.36,0,0,1,3.39,1c.54.23.07,1-.46.79a13.46,13.46,0,0,0-3.17-.92l.35-.84a18.47,18.47,0,0,0,4.75,2l-.35.84a17,17,0,0,0-4.53-2.38c-.46-.16-.42-.94.12-.9l3.36.25c.65,0,1.41-.07,1.78.55a.46.46,0,0,1-.07.56l-.08.07c-.45.37-1.11-.27-.65-.65Z"/><path class="cls-5" d="M93.18,61.14a.46.46,0,0,1,0-.92.46.46,0,0,1,0,.92Z"/><path class="cls-5" d="M50.07,221.84a.46.46,0,0,1,0-.92.46.46,0,0,1,0,.92Z"/><path class="cls-5" d="M84.93,104.25a.46.46,0,0,1,0-.92.46.46,0,0,1,0,.92Z"/><line class="cls-6" x1="93.18" y1="60.68" x2="50.07" y2="221.38"/><line class="cls-6" x1="97.55" y1="61.3" x2="53.82" y2="222.3"/><polyline class="cls-6" points="46.23 259.97 26.59 345.41 23.1 345.41 42.61 258.73"/></g><path class="cls-7" d="M151.76,232.71s3,10.25,5.75,13.5a21.45,21.45,0,0,1,1.25,7,13.26,13.26,0,0,1,4,5.25c1.75,3.75,4.25,4,4.25,4V124.65H87.26S80.26,131,72.51,173C68.26,187,59,220,59,220l6.25,2.75,20.75,2s-2-6.75.75-10c4.25-3.5,5.25-4.25,5.25-4.25s4.5-3.25,5-4.5-4.5-2-7.25.75a3.56,3.56,0,0,1-6.25-2c-.25-2.5-2.75-4-3-6.75s-6.75-3.75-6.75-8.5,3.44-10.9,8-11c.5-4.5,6-6,6.5-7.5s2.5-4.75,5.25-4,.25-4.25,1.5-4.5,1.5-5-4.25-3.75-6-5.25-5-8.25,7.5-5,9-3c2.75-.75,3.75-.5,3.75-.5s-4-5.25,1.5-8.75,8.75,1,8.75,1,4.75-.25,6.5,2.25a11.22,11.22,0,0,1,3.75-2.75s-.75-3.5,3.75-4,9.95,1.12,9.5,5.25a12.27,12.27,0,0,0,1.75,4,11.41,11.41,0,0,1,5.75-2c2.25-4.5,8-6.75,12.25-.25,1.75,3.75-2,6-3.5,7.25l1.25,1.25,2-.25s7.5-3.25,9,1.25-1.75,8.75-4,9a7.29,7.29,0,0,1-4.5-1.5l-2.25,3.5s1.25,2.75.25,4.75-3.5,1.75-3.5,1.75A10.61,10.61,0,0,1,148,174c2.5,3.25,5.75,7.25,5.5,11.75,2.5,3.75,2.75,10,2.75,10s4.25,4.75,3,9.5-4.5,4.25-2.25,12.5S156.26,229.46,151.76,232.71Z"/><path class="cls-7" d="M4.2,124.65H71.76L47.51,214.21l-.75,4.25s-11,0-10.75,5.5c-.5,3.25-1,4.75.25,6s-3.75,2.5-1.5,5.75-1.75,4.5,0,6.5-2.25,2.75-1,6.5-3,3.75-2.5,6.25,6.75,7.5,6.75,7.5L31.26,288H4.2Z"/><path class="cls-7" d="M4.2,124.65,67,124.46,43.89,210.65l-.84,4.75s-12.3,0-12,6.15c-.56,3.64-1.12,5.31.28,6.71s-4.19,2.8-1.68,6.43-2,5,0,7.27-2.52,3.08-1.12,7.27-3.36,4.19-2.8,7,7.55,8.39,7.55,8.39L25.72,288H4.26Z"/><path class="cls-8" d="M4,124.57l57.63-.22L40,204.4l-1,5.55s-14.37,0-14,7.19c-.65,4.25-1.31,6.21.33,7.84s-4.9,3.27-2,7.51-2.29,5.88,0,8.49-2.94,3.59-1.31,8.49-3.92,4.9-3.27,8.17,8.82,9.8,8.82,9.8l-7.13,20.37L4.26,288Z"/><path class="cls-7" d="M65.76,216.21s1.25,1.75,7.5,2.25,8.25,1.75,8.25,1.75-1.5-2.75,1-6.5,4.25-3.25,4.25-3.25-7.5,3.25-7.75-1a20.42,20.42,0,0,0-1.75-7.25l-3.75-7.5s-3.75-.75-3.75-6.25,4.75-13.5,6-14.75,9.5-4.25,10.25-7a2.79,2.79,0,0,1,3.5-2l-.25-3.25s-5.5,2.5-6.5-2.75-2.75-16,6.5-17l3,1.5s.5-6.5,5-8S107,132.46,111,136l3.25,1.25s1-3,5.75-4.25,14.5-1,15.25,4.25v3l3.25-1s2-6.5,8.25-5.75,11,4.75,9,12.25l-3.25,1.75s9-6,10.75-.75,1.5,14.75-1.25,17.5-7.75-.25-7.75-.25.5,5.25-2,7.25c.75,3.75,3.25,2.75,4,7.75s4,11,4.75,14.25,4.5,9.25,2,16.25-4.25,3.25-2,9.5,1.25,15.75-2.25,17.25c.5,7.25,1.75,7,3,9.75a37,37,0,0,1,2,7.5L167,258V124.46H94.26s-7,6.75-8,11.5S66.51,184.46,66,205.46C63.26,214.71,65.76,216.21,65.76,216.21Z"/><path class="cls-5" d="M64.91,216.9s1.71-13.65,3.25-16.25S70,192.81,70,192.81s.63,5.85,4.31,6.75.49,11.87,3.62,13.21.2,2.79.2,2.79L74,220.89Z"/><path class="cls-8" d="M99.51,123.29s-6.25,6.42-6.25,8.67c0,0,15.25-5.5,17.5-2.25l2.25,3s10.75-8.25,21.25-3.75l5,3s8-5.5,16.5.25c6,5.75,4,9,4,9,3.56-2.19,7.58-1.81,8,10.5,0-23.5.61-28.67.61-28.67Z"/><path class="cls-8" d="M167.75,254.21V162s-1,6.67-6.49,6.42l-4.5,2a23.44,23.44,0,0,1,4.75,10c1.75,8,4,16.25,4.25,20.5s.5,12.25-2,16c2.25,6.75,2.75,17.75-.25,21.25A157.09,157.09,0,0,0,167.75,254.21Z"/><path class="cls-8" d="M45.85,287.88S48.68,264.71,50,264s5.33.67,5.33.67a2.92,2.92,0,0,0,2.33,2.83c2.5.83,1.17,9.67,1.17,9.67s7-1.67,8.5-5.33c.33,4.5.67,6.5.67,6.5s8.83-4.83,9.67-10.17.5-3.5.5-3.5,12,3.5,15.83,5.5,8.5,15.17,14.33,17.33C89.68,288.21,46.35,287.38,45.85,287.88Z"/><path class="cls-7" d="M49.18,288s2.17-12.67,2.33-14a1.55,1.55,0,0,1,3,.67v7.67L64,280l1.83,4.83s12.83-5,15-10,2.33-4.33,2.33-4.33,7.5,2,9.17,4,4.83,12.83,8.83,13.5h-52Z"/><g class="cls-9"><polygon class="cls-5" points="56.51 286.71 53.01 285.88 52.85 288.38 64.25 288.38 62.35 284.88 56.51 286.71"/><path class="cls-5" d="M64.35,288.54s5.33,0,7.5-.17H64.26Z"/><path class="cls-5" d="M92.68,288.38h-.14l.14.33Z"/><path class="cls-5" d="M84.85,277.21s-10.83,11-13,11.17H92.54c-.64-1.5-3.25-7.66-3.69-8.83C88.35,278.21,84.85,277.21,84.85,277.21Z"/></g></g></g></svg>