<svg xmlns="http://www.w3.org/2000/svg" xmlns:xlink="http://www.w3.org/1999/xlink" viewBox="0 0 274.75 230.54"><defs><style>.cls-1,.cls-2{fill:none;}.cls-2{stroke:#c0beba;stroke-miterlimit:10;}.cls-3{fill:#c6c6c6;}.cls-4{clip-path:url(#clip-path);}.cls-5,.cls-6,.cls-7,.cls-8{fill:#fff;}.cls-6{opacity:0.4;}.cls-7{opacity:0.1;}.cls-8{opacity:0.7;}</style><clipPath id="clip-path"><rect class="cls-1" x="5" y="3.83" width="163.08" height="163.08"/></clipPath></defs><title>PALERMO</title><g id="Livello_2" data-name="Livello 2"><g id="Livello_1-2" data-name="Livello 1"><rect class="cls-2" x="0.5" y="0.5" width="170.16" height="170.16"/><rect class="cls-3" x="5" y="3.83" width="163.08" height="163.08"/><g class="cls-4"><path class="cls-5" d="M132.4,21.09l1.34-1a2.73,2.73,0,0,1,1.14.68,3.94,3.94,0,0,1,1.06,1.5c.37.82.55,1.72.93,2.54A21.34,21.34,0,0,0,139.69,29c.38.48,1-.2.67-.67a17.64,17.64,0,0,1-3.14-5.3A6.1,6.1,0,0,0,135.42,20c-1.62-1.3-4-1.41-4,1.13a.47.47,0,0,0,.94,0Z"/><path class="cls-5" d="M131.69,20.94q-1.06-5.26,3.55-5a7.84,7.84,0,0,1,3.62,1.16,10.36,10.36,0,0,1,3.41,3.44c1.57,2.54,1.14,5.4,2.42,7.89.72,1.41,2.35,2.44,3.76,1.18s.85-4.05-1.09-4.25c-2.47-.25-2.06,2.73-1.33,4.06.29.53,1.11.06.81-.48-1.22-2.22-1.45-1.54-1.82-3.5a18.08,18.08,0,0,0-.61-2.49,13.81,13.81,0,0,0-1.9-3.75,10.17,10.17,0,0,0-6.19-4.09c-3.82-.7-8.32,2.69-5.3,6.45.38.47,1-.2.67-.67Z"/><path class="cls-5" d="M146.11,24.73q1.13-2.4,3.23-1.46a7.53,7.53,0,0,1,2.42,1.49,7.28,7.28,0,0,1,2.34,3.8c.55,2.18.72,4.53,1.05,6.76.09.6,1,.34.91-.25-.7-4.66-.68-9.62-5.31-12.18-1.81-1-6.57-1.27-5.55,2.09.18.58,1.09.33.91-.25Z"/><path class="cls-5" d="M133.34,26.24a24.24,24.24,0,0,1,6.8,6.87c.33.51,1.15,0,.81-.48a25.44,25.44,0,0,0-7.14-7.21c-.51-.34-1,.48-.48.81Z"/><path class="cls-5" d="M132.75,24.73l-.26-1a.48.48,0,0,0-.91,0c-.67,2.41.06,3.92,1.64,5.73,2.72,3.12,8.35,7.19,8.91,11.49.08.59,1,.6.94,0-.28-2.18-1.4-3.64-2.83-5.24-2.45-2.75-8.93-7.5-7.75-11.72h-.91l.26,1a.47.47,0,0,0,.91-.25Z"/><path class="cls-5" d="M134.07,32.71c2.33,3.1,5.08,6.42,6.38,10.12,1,2.91,1,5.74-.89,8.29-.91,1.22-2.07,2.25-3,3.45-1.94,2.46-7.46,9.89-4,12.89.46.39,1.13-.27.67-.67-2.87-2.47,2.37-9.48,4.11-11.68s4.15-4,4.66-7.11c1-5.87-3.87-11.45-7.13-15.78-.36-.48-1.18,0-.81.48Z"/><path class="cls-5" d="M129.42,65.16c-4.6-7,6.53-12.07,9.13-17.17,1.31-2.57.72-7.63-1.71-9.41-.49-.36-1,.46-.48.81,1.49,1.09,2.06,4.64,1.82,6.27-.32,2.19-1.91,3.61-3.39,5.14a54.85,54.85,0,0,0-5.23,5.91c-2,2.77-2.94,5.9-1,8.92.33.51,1.15,0,.81-.48Z"/><path class="cls-5" d="M138.78,63.82c-.85-4.62,5.82-8.93,7.29-13.26,1.1-3.23,0-5.3-2.56-7.31-.47-.37-1.15.29-.67.67,2.7,2.1,2.86,5.61,1.34,8.49A28.47,28.47,0,0,1,140,57.71c-1.71,1.95-2.63,3.76-2.15,6.35.11.6,1,.34.91-.25Z"/><path class="cls-5" d="M148.51,63.72c-5.57-4.07,2-9.88,1.76-15A5.33,5.33,0,0,0,146,43.47c-.59-.13-.84.77-.25.91,5.45,1.24,3.34,7.29,1.55,10.5-.78,1.39-1.78,2.7-1.95,4.34A5.81,5.81,0,0,0,148,64.54c.49.36,1-.46.48-.81Z"/><path class="cls-5" d="M152.56,63.14c-3.56-2.19-.2-6.49.63-9.53a12.44,12.44,0,0,0,.37-5.8,7.88,7.88,0,0,0-2.46-4.48c-1.8-1.52-4.51-1.49-5.84-3.63-.32-.52-1.14,0-.81.48.93,1.49,2.18,2,3.74,2.63,4.76,2.08,5.29,6.65,3.9,11.16-1.21,3.93-4.38,7.29,0,10,.52.32,1-.5.48-.81Z"/><path class="cls-5" d="M154.13,64.79a5.47,5.47,0,0,0,.34-3.16c-.12-2.9,1-5.09,1-7.9-.05-5.25,1.5-10.46.54-15.68-.11-.6-1-.34-.91.25.91,4.93-.49,9.93-.6,14.89,0,2.1-.8,3.81-1.09,5.84-.25,1.7.71,3.68-.05,5.29-.26.55.56,1,.81.48Z"/><path class="cls-5" d="M147.77,36.52a13.56,13.56,0,0,0,2.42-.31c.58-.19.53-.53.53-1,0-.67.37-.78.87-1.09a2.34,2.34,0,0,0,.69-.58,1.3,1.3,0,0,0,.09-1.5c-.32-.52-1.13,0-.81.48s-.92,1-1.2,1.24a1.64,1.64,0,0,0-.62.93,1.2,1.2,0,0,0,0,.37c0,.51.15.16-.1.32a6.07,6.07,0,0,1-1.83.23c-.59.07-.6,1,0,.94Z"/><path class="cls-5" d="M104.72,81.62a2.78,2.78,0,0,1-1-2.39l-.47.47a4.34,4.34,0,0,1,2.83.58.47.47,0,0,0,.48-.81,5.18,5.18,0,0,0-3.3-.71.49.49,0,0,0-.47.47A3.66,3.66,0,0,0,104,82.29c.46.39,1.13-.27.67-.67Z"/><path class="cls-5" d="M109,77.72a12.49,12.49,0,0,1-3-3.31q-2.35-2.92,3.82-.52l-.29,1c.3.84.05,1.11.77,1.63,2.14,1.56,5.2-.63,6.43-2.27a.47.47,0,0,0-.07-.57c-1-.79-4.59-5.23-2-6.41l5.19,2.24L119.43,72a.48.48,0,0,0,.33.58,46.05,46.05,0,0,0,9.21.68c.44,0,.68-.67.24-.88a15.11,15.11,0,0,1-1.8-.95l-1.51-1.18,1.73-3.1c1.07-.36,1.69,2,1.91,2.36s.15.61.32.86c.72,1.1,2.27,1.17,3.45,1.21a.48.48,0,0,0,.45-.35l.61-.86a.48.48,0,0,0,0-.67q4.37-2.4,4-.26,0,.54.1,1.07s.2.26.22.28c1,1.57,4.31,1.33,5.8,1.18a.48.48,0,0,0,.33-.81c-.47-.44-2.31-1.8-2.52-2.39-.94-2.61,4.14-4.88,5.18-1,.1.38-.44,1.22-.32,1.81.59,2.91,4.7,2.22,6.74,2.82a.48.48,0,0,0,.53-.69c-.78-1.13-1.33-1.51-1-2.93.66-2.91,3.76,2.54,3.77,2.68,0,.53-.64.8-.49,1.45.37,1.6,4.24,2.12,5.5,2.59.43.16.69-.36.53-.69-.76-1.67-1.12-1.29.46-3.07q.92-2.49,2.19-.7,2.63,1.66,1.86,5.37a.48.48,0,0,0,.28.69c1.85.57,3.68,1.19,5.5,1.86.4.15.73-.36.53-.69-.64-1.09-1-2.75.68-2.39,1.95.41,2.76,7.41-.82,6.67-.59-.12-.85.79-.25.91,3.71.76,5.34-5.32,3-7.59-.76-.73-3.2-2-4.23-1.18-1.17.94.29,3.16.83,4.06l.53-.69c-1.18-.43-4.11-.83-4.73-2a19.43,19.43,0,0,0,.18-2,7.71,7.71,0,0,0-5-5.12c-4.83-1.11-2.79,4.2-1.81,6.35l.53-.69C161,74,158.17,73.44,158,71.9c0-.52.71-1.39.66-2.13a3.54,3.54,0,0,0-2.75-3c-1.11-.29-3.57-.18-4.25.9-1,1.54,1.12,3.32,1.95,4.51l.53-.69c-.5-.15-1.06-.2-1.55-.35a12,12,0,0,0-1.47-.11l-2.5-3.08c-.07-.34.54-.86.41-1.45-.3-1.36-2.19-1.88-3.38-1.88-1.45,0-4,.94-4.64,2.4-.92,2.05,1.92,3.68,3.13,4.83l.33-.81c-2.63.27-3.84-.08-4.95-2.59-.41-.92-.1-1.32-.89-2.11a4,4,0,0,0-4.11-.66c-1.2.38-2.24.89-2.2,2.34,0,.74,2,3.31-.63,2.49-1.41-.44-.85-3.19-2.3-4a4.94,4.94,0,0,0-3.79.14c-4.51,1.95.84,5.51,3.09,6.57l.24-.88c-1.43,0-6.61.52-7.68-.43-1.24-1.09-.25-2.35-.38-3.79a3.48,3.48,0,0,0-2.81-3.24c-4.33-1-5.86,4.51-4,7.51-.1-.16.78,1.16.71.95.74,2.44-3.3,3.75-4.08.85-.2-.76.21-1.56-.06-2.42a4.1,4.1,0,0,0-4.49-2.78c-5.88.9.18,7.68,2.13,9.44.45.41,1.12-.26.67-.67Z"/><path class="cls-5" d="M107,86.64c5.66-12.48,22.8-12,34.4-12.36A47.08,47.08,0,0,1,159,76.89a44.44,44.44,0,0,1,12.37,6.92c.28.22,2.85,2.69,2.92,2.68a.47.47,0,0,0,.25.91l.89-.25a.48.48,0,0,0,.21-.79c-9.75-9.48-22.26-13.52-35.7-13-11.63.46-28.16.29-33.83,12.78-.25.55.56,1,.81.48Z"/><path class="cls-5" d="M172.64,90.41a51.82,51.82,0,0,1,1.16-5.53.47.47,0,0,0-.91-.25,51.82,51.82,0,0,0-1.16,5.53c-.09.59.82.85.91.25Z"/><path class="cls-5" d="M106.49,88.88a14,14,0,0,0,2.14,2.43c.45.4,1.12-.26.67-.67a13,13,0,0,1-2-2.24c-.34-.49-1.16,0-.81.48Z"/><path class="cls-5" d="M110.24,90c2.8-6.58,10.52-8.28,16.93-9.06,5.21-.64,10.47-1.08,15.71-1.39,5.79-.34,11.56-.15,17.12,1.65a31.81,31.81,0,0,1,6.72,3c.3.18,7.79,5.81,5.84,6.74-.34.16,0,.36.22.24l.67-.32c.05,0,.2-.11.16-.19C168.47,79.42,152,78.58,141.54,79.3c-9.67.66-27.19-.22-31.85,10.74-.08.18.47.12.55-.07Z"/><path class="cls-5" d="M115.55,101.59c-3.27.45-8.2.06-8.37-4.08-.24-6,6.51-8.74,12-6.15a8.73,8.73,0,0,1,4.39,4.4c1.09,2.62-.27,4.63-1.87,6.69a.7.7,0,0,0,.54-.1c2.84-3.66,3-7.32-1-10.25a11.24,11.24,0,0,0-9.66-1.34,6.42,6.42,0,0,0-5,6.47c-.21,4.66,5.18,5.05,8.67,4.57.14,0,.59-.26.24-.22Z"/><path class="cls-5" d="M125.9,103.15l6.26-.14c.13,0,.59-.21.28-.3-1.45-.4-9.9-3.37-3.9-4.76,0,0,.34-.14.22-.24A1.77,1.77,0,0,1,127.68,96q-1.39-2.35,2.31-1.61c.1.12.58,0,.53-.18a4.54,4.54,0,0,1-.36-2q-.67-2.79,3.64-2c.08.16.52.06.55-.11l3.59-.69c.09.18.43,0,.53-.07l5.11-.15c0,.16.37,0,.44,0l4.18,1c0,.14.33.06.38,0l3.17,2.93c-.07.11.06.15.15.16l2.72,2.86c-.12.14.15.16.22.15l.63,3.2s-.25.14-.15.21q1.74.72-.56,1.92-.64,1.84-2.29,1.43c-.34.13-.79,0-1.16.14a3.51,3.51,0,0,0-2,1.13c-.06.06-.08.13,0,.17,3,1.81,7.44,0,10.58-.49.26,0,.45-.36.08-.3a28.59,28.59,0,0,1-5.16.85c-.91,0-1.26.75-1.42-.49-.19-1.44-.35-.13.95-.72.89-.4,2.09-.09,2.67-1.17.69-1.28-.62-1.72-.46-2.84s1.48-1.29.56-2.61c-.39-.56-1.29-.53-1.54-.95-.54-.93.26-1.62-1.06-2.41-.33-.2-1.28-.2-1.47-.39-.87-.92.17-.28-.23-1.49-.52-1.58-1.08-1.68-2.59-2.09-.31-.08-.83.3-1.08.19-.42-.19-.86-1.16-1.21-1.36-1.15-.64-1.72-.06-2.83,0-2,.12-3.39-1-5.68-.23-1.69.55-.59.25-2.32-.2a2.38,2.38,0,0,0-2.43.34c-1.73,1.43.2.66-1.32.74-.78,0-1-.38-1.88-.12-1.61.51-1.85,2.11-2,3.54-.3,3,1.22,0-.41.93-.22.12-.76,0-1,.14a2.25,2.25,0,0,0-1.36,2.39,15.63,15.63,0,0,0,.82,1.58c-.17.9-1.91,1.31-2.58,1.72,0,0-.16.12-.09.18,1.74,1.41,3.68,2,5.5,3.2.71.47,1,0,.11.26-1.18.4-3.13.07-4.38.09-.2,0-.58.31-.21.3Z"/><path class="cls-5" d="M131.2,99.46l5,2.28c.14.06.64-.15.44-.24l-5-2.28c-.14-.06-.64.15-.44.24Z"/><path class="cls-5" d="M133,97.66c.31,0,.42-.4,0-.4s-.42.4,0,.4Z"/><path class="cls-5" d="M129.54,94.81c.16,0,.59-.24.23-.24-.16,0-.59.24-.23.24Z"/><path class="cls-5" d="M133,95.34l3.31,4.37c.16.21.68,0,.5-.25l-3.31-4.37c-.16-.21-.68,0-.5.25Z"/><path class="cls-5" d="M135.82,94q2,3.75,4.3,7.36c.08.12.58,0,.55-.15-.14-.53,0-.33-.44-.68-.12-.1-.61.11-.51.19l.41.64.55-.15q-2.27-3.61-4.3-7.36c-.08-.14-.6.05-.55.15Z"/><path class="cls-5" d="M140.7,93.13a50.41,50.41,0,0,0,1,5c.21.84.32,2.69,1.2,3.07.09,0,.55,0,.49-.19a2.53,2.53,0,0,0-.36-.87c-.09-.16-.61,0-.55.15a2.53,2.53,0,0,1,.36.87l.49-.19c-.82-.35-1.12-3-1.31-3.85-.31-1.37-.56-2.75-.76-4.14,0-.15-.57,0-.55.15Z"/><path class="cls-5" d="M145.23,95.52c-.17,1.84-.35,3.69-.6,5.53,0,.06.52,0,.55-.15.25-1.84.42-3.68.6-5.53,0-.07-.53,0-.55.15Z"/><path class="cls-5" d="M147.42,98.62l1.72-2.72c.35-.55,1.19-1.43,1.2-2.09a.12.12,0,0,0-.06-.12l-.12-.07a.41.41,0,0,0-.44.08l-.09.08c-.25.21.29.25.45.12l.09-.08-.44.08c.14.08-2.59,4.31-2.82,4.68s.41.21.52,0Z"/><path class="cls-5" d="M149,100.53q2.25-2,4.61-3.89l-.48-.06-.22.36c-.14.22.41.18.51,0l.22-.36c.15-.25-.39-.12-.48-.06q-2.36,1.88-4.61,3.89c-.24.21.3.22.44.1Z"/><path class="cls-5" d="M158.65,100.31c-.24-2.13-.54-4.63.1-6.72s6.46-4.25,8.52-3.91a13.93,13.93,0,0,1,3.51,1.37c2.54,1.24,5,2.65,3.66,5.83a7.44,7.44,0,0,1-2.29,2.9l-1.55,1.06q-8.55,3.22-5.54-3.24c.26,0,.46-.33.08-.29-3.69.39-1.64,4.73,1.29,5,3.67.35,8.94-3.49,9.07-7.29.09-2.62-2.78-3.57-4.78-4.49a13,13,0,0,0-7.61-1.4c-5.62,1-5.53,6.63-5,11.31,0,.17.57.05.55-.15Z"/><path class="cls-5" d="M118.66,99.94c.91-1.74,1.39-2.51-.32-3.91A4.79,4.79,0,0,0,113.56,95c-.89.29-3.18,1-2.64,2.42s2.86,1.43,4,1.24c.3,0,.42-.46,0-.4-.78.13-4.43,0-2.8-2.2.72-1,3.12-1.07,4.08-.73A5.84,5.84,0,0,1,118.64,97c.8,1.25,0,1.91-.5,2.86-.14.27.41.27.52.06Z"/><path class="cls-5" d="M114.28,107.88c1.26-1.28,2-2.56,3.91-2.68,1-.07,2.8.84,3.88,1a27.37,27.37,0,0,0,8,0,11.92,11.92,0,0,0,5.57-2.27c1.73-1.39,2.6-2.06,5-2.4,1.66-.24,3.37-.27,5-.41a.47.47,0,0,0,0-.94l-1,0c-.61,0-.61.92,0,.94l1,0v-.94c-3.22.26-7.12-.39-9.5,1.94-4.59,4.51-13.11,4.29-18.68,1.76a.49.49,0,0,0-.57.07l-3.27,3.31a.47.47,0,0,0,.67.67Z"/><path class="cls-5" d="M146.6,102.06c4.11,5.81,13.81,5.58,19.47,2.34.53-.31.07-1.07-.48-.81-2.27,1.08,4.4,4.38,4.82,4.64l.24-.88h-1.49a.47.47,0,0,0,0,.94h1.49a.48.48,0,0,0,.24-.88c-.6-.37-4.25-3.29-4.82-3l-.48-.81c-5.13,2.94-14.42,3.31-18.18-2-.35-.49-1.17,0-.81.48Z"/><path class="cls-5" d="M116.18,109q1.33-.76,2.68-1.48l-.69-.53-.22.53c-.23.56.68.81.91.25l.22-.53c.17-.41-.37-.71-.69-.53q-1.35.72-2.68,1.48a.47.47,0,0,0,.48.81Z"/><path class="cls-5" d="M119.14,108a20.9,20.9,0,0,0,11.49.47c3.47-.77,7.81-1.94,10.57-4.27.41-.34-.13-1-.57-.74l-.78.52c-.5.34,0,1.15.48.81l.78-.52-.57-.74c-2.5,2.11-6.94,3.34-10.16,4a20.11,20.11,0,0,1-11-.47c-.58-.2-.82.71-.25.91Z"/><path class="cls-5" d="M141.7,104.35l2.52.15-.13-.93a23.24,23.24,0,0,1-6.61.23v.94q3.6-.24,7.2-.22v-.94a3.27,3.27,0,0,0-1.13.21c-.58.18-.33,1.09.25.91l.88-.18a.47.47,0,0,0,0-.94q-3.61,0-7.2.22a.47.47,0,0,0,0,.94,24.12,24.12,0,0,0,6.86-.26c.55-.1.38-.9-.13-.93l-2.52-.15c-.61,0-.6.91,0,.94Z"/><path class="cls-5" d="M145.65,105.83A20.43,20.43,0,0,0,166.14,107c.55-.27.07-1.06-.48-.81l-.57.26a.48.48,0,0,0-.17.65c.15.24,1.06,2,1.53,1.74a.47.47,0,0,0,.48.81l.46-.27a.48.48,0,0,0,.1-.74,3.16,3.16,0,0,1-1.34-1.63l-.48-.81A19.47,19.47,0,0,1,146.13,105c-.51-.33-1,.48-.48.81Z"/><path class="cls-5" d="M170.45,109.42c-3.9,4.25-1.92,11.78-1.3,16.9.07.6,1,.6.94,0-.56-4.67-2.5-12.39,1-16.24.41-.45-.26-1.12-.67-.67Z"/><path class="cls-5" d="M113.2,111c6.31,4.59,3.33,13.57,4,20.08.06.6,1,.61.94,0-.67-7,2.31-16-4.42-20.9-.49-.36-1,.46-.48.81Z"/><path class="cls-5" d="M116.73,134.57c.62,3.72.19,7.78,1.69,11.32a17.15,17.15,0,0,0,5.13,7,23.66,23.66,0,0,0,10.11,3.78c1.59.23,3.21.1,4.8.29,3.82.46,3.62,2.36,5.56,4.29l.33-.81-.48,0c-.6-.06-.6.88,0,.94l.48,0c.42,0,.6-.54.33-.81-1.83-1.82-1.79-3.8-4.59-4.41-3.48-.76-7-.24-10.49-1.41-4.29-1.43-6.87-3.8-9.29-7.52-2.52-3.89-1.94-8.55-2.67-12.95-.1-.6-1-.34-.91.25Z"/><path class="cls-5" d="M145.17,160.71c.94-4.25,9.35-3.33,12.79-4.77,3.76-1.57,6.45-4.6,8.72-7.89a19.33,19.33,0,0,0,3.55-11.94c0-1.38.27-4.18-1.79-3.83-.6.1-.34,1,.25.91.85-.15.46,6,.39,6.57a16.08,16.08,0,0,1-2.19,6.23c-2.27,3.75-5.22,7.37-9.37,9.06-3.48,1.42-7.09.71-10.55,1.65-1.89.51-2.29,1.85-2.71,3.75-.13.59.78.84.91.25Z"/><path class="cls-5" d="M163.88,145.87a.47.47,0,0,0,0-.94.47.47,0,0,0,0,.94Z"/><path class="cls-5" d="M124,143.21c3.48,2.18,6.21,5.4,9,8.32l.33-.81.08,0c-.28-.54-1.1-.06-.81.48.19.36.33.42.73.45a.48.48,0,0,0,.33-.81c-2.9-3-5.68-6.24-9.23-8.46-.52-.32-1,.49-.48.81Z"/><path class="cls-5" d="M129.31,142.87c1.27,1.18,2.53,2.36,3.85,3.49.58.5,3.08,3,3.83,2.45l.57.07-.07-.07.07.57,0-.08a.47.47,0,0,0-.81-.48l0,.08a.48.48,0,0,0,.07.57l.07.07a.48.48,0,0,0,.57.07c1.09-.81-.91-1.75-1.4-2.13a76.42,76.42,0,0,1-6.09-5.3c-.44-.41-1.11.25-.67.67Z"/><path class="cls-5" d="M136.36,143.65l4.73,3.86c.47.38,1.14-.28.67-.67L137,143c-.47-.38-1.14.28-.67.67Z"/><path class="cls-5" d="M137.18,154.66a12.48,12.48,0,0,0,3.62-1.87,11.76,11.76,0,0,0,2-2c.18-.24,1-1.69,1.11-1.72.47-.11,3.23,2.39,3.78,2.75a45.31,45.31,0,0,0,5.78,2.93l.11-.86-.74.23c-.58.18-.33,1.09.25.91l.74-.23c.35-.11.5-.69.11-.86-3.6-1.62-7.06-3.29-9.71-6.31a.47.47,0,0,0-.74.1,11,11,0,0,1-6.62,6.05c-.57.2-.32,1.11.25.91Z"/><path class="cls-5" d="M141.87,155.26a8.3,8.3,0,0,0,4.34.47c1-.13,2.82-.12,3.35-1.17a.47.47,0,0,0,0-.48l-.05-.07a.49.49,0,0,0-.65-.17l0,0c-.54.28-.06,1.09.48.81l0,0-.65-.17c-.22-.31-3.06.37-3.32.38a7.08,7.08,0,0,1-3.26-.52c-.56-.23-.8.68-.25.91Z"/><path class="cls-5" d="M150.51,151.26a4.31,4.31,0,0,0,1.55-.68c.54-.39,1-1.58,1.39-1.82s2.67.53,3.58.35c2.95-.59,4.29-3.4,3.84-6.18l-.58.58c2.44.5,4.25,0,5.24-2.44.49-1.23.51-2.54-1.12-2.49-.61,0-.61,1,0,.94q.77,3.48-3.87,3.07a.48.48,0,0,0-.58.58,4.19,4.19,0,0,1-6.52,4.22.48.48,0,0,0-.69.28,3.06,3.06,0,0,1-2.49,2.67.47.47,0,0,0,.25.91Z"/><path class="cls-5" d="M144,146.24a.47.47,0,0,0,0-.94.47.47,0,0,0,0,.94Z"/><path class="cls-5" d="M138.95,141.92c1.88,1.94,5.87,4.38,8.63,2.64,2-1.28,2.52-5.16.6-6.66l-.33.81a58.64,58.64,0,0,0,7.37-1.08l-.25-.91-.65.2c-.58.18-.33,1.09.25.91l.65-.2a.47.47,0,0,0-.25-.91,56.87,56.87,0,0,1-7.12,1c-.36,0-.69.53-.33.81q2.27,3.74-1.84,5.53a6.29,6.29,0,0,1-2.09-.32,8.9,8.9,0,0,1-4-2.52c-.42-.44-1.09.23-.67.67Z"/><path class="cls-5" d="M153.07,142.53c.83-1.19,1.21-2.1,2.78-2.47a27.09,27.09,0,0,1,2.91-.25l7.35-.83-.13-.93-.45.08c-.6.11-.34,1,.25.91l.45-.08c.52-.1.41-1-.13-.93-3.33.37-6.85,1.11-10.19,1-2.22-.06-2.29,1-3.67,3-.35.5.47,1,.81.48Z"/><path class="cls-5" d="M137,140.87a.47.47,0,0,0,0-.94.47.47,0,0,0,0,.94Z"/><path class="cls-5" d="M134.72,141.34a.47.47,0,0,0,0-.94.47.47,0,0,0,0,.94Z"/><path class="cls-5" d="M125.28,142.28l1.23-.09c.6,0,.61-1,0-.94l-1.23.09c-.6,0-.61,1,0,.94Z"/><path class="cls-5" d="M121.6,135.43q10.85-.84,21.72-.64v-.94l-1.15.1c-.6.05-.61,1,0,.94l1.15-.1a.47.47,0,0,0,0-.94q-10.88-.2-21.72.64c-.6,0-.61,1,0,.94Z"/><path class="cls-5" d="M124.47,127.66c1.42-.31,2.84-.61,4.27-.85.9-.15,3.27-.92,4.19-.56,1.26.5.62.55,1.32,1.79,1.31,2.36,4.68,2.59,7.08,2.69,8.59.38,11.48-6.2,15.43-12.64a.48.48,0,0,0-.65-.65c-.74.39-.43.88-.29,1.56.5,2.48,2.81,4.76,3.59,7.26.18.58,1.09.33.91-.25a77.61,77.61,0,0,0-3.74-7.75l-.65-.65c-1.88,3.06-3.62,6.92-6.17,9.48a10.33,10.33,0,0,1-7.25,2.71c-2.22.06-8.3-.09-7.68-4,0-.27-.12-.63-.45-.6a81.43,81.43,0,0,0-10.15,1.57c-.59.13-.34,1,.25.91Z"/><path class="cls-5" d="M155.67,130.13c2,0,8.19-.88,9.29,1.07a8.89,8.89,0,0,0-.18,2.77c-.8.86-.6.52-2.06.35a70.48,70.48,0,0,0-18.21.27c-.6.08-.34,1,.25.91a70.84,70.84,0,0,1,20.6.13.48.48,0,0,0,.58-.58,7.34,7.34,0,0,1,.34-4.83.48.48,0,0,0-.45-.6c-3.38-.28-6.76-.42-10.15-.44a.47.47,0,0,0,0,.94Z"/><path class="cls-5" d="M130.52,114.58l2.39,2.49,1.12,1.17c.19.19,1.19,1,1.18,1.24l.35-.45-.08,0c-.57.19-.33,1.11.25.91l.08,0a.49.49,0,0,0,.35-.45,1,1,0,0,0-.34-.73c-.47-.57-1-1.08-1.55-1.61l-3.09-3.23c-.42-.44-1.09.23-.67.67Z"/><path class="cls-5" d="M122.73,113.29a5.33,5.33,0,0,1,2.15.31l-.21-.79a5.48,5.48,0,0,1-2.11,1.13.47.47,0,0,0,.25.91,6.58,6.58,0,0,0,2.53-1.38.48.48,0,0,0-.21-.79,6,6,0,0,0-2.4-.35c-.6,0-.61,1,0,.94Z"/><path class="cls-5" d="M123.24,117.81a.47.47,0,0,0,0-.94.47.47,0,0,0,0,.94Z"/><path class="cls-5" d="M123.75,118.76a3.6,3.6,0,0,1,1.39,1.56c.26.55,1.07.07.81-.48a4.48,4.48,0,0,0-1.73-1.9c-.52-.32-1,.5-.48.81Z"/><path class="cls-5" d="M127,123.09a.47.47,0,0,0,0-.94.47.47,0,0,0,0,.94Z"/><path class="cls-5" d="M122.4,124.74c2.29.65,5.16,1.34,7.16-.42s-.32-3-1.72-4.24a.49.49,0,0,0-.57-.07,17.43,17.43,0,0,1-6.55,1.85c-.6,0-.61,1,0,.94a19.18,19.18,0,0,0,3.31-.53c.88-.23,2.53-1.25,3.39-1.13a3,3,0,0,1,1.46,1.09c.7,1.12-.43,1.84-1.4,2.11a9.09,9.09,0,0,1-4.82-.5.47.47,0,0,0-.25.91Z"/><path class="cls-5" d="M138.75,113.91a14.88,14.88,0,0,1,3.49,4.33c.22.42,1,2.43,1.77,1.43a.47.47,0,0,0,.12-.46,1,1,0,0,0-.36-.47.48.48,0,0,0-.65.17l-.05.07c-.36.49.46,1,.81.48l.05-.07-.65.17-.07-.09.12-.46-.07.09.46-.12c-.3,0-.73-1.31-.85-1.54a15.12,15.12,0,0,0-1-1.6,15.92,15.92,0,0,0-2.42-2.59c-.46-.4-1.13.27-.67.67Z"/><path class="cls-5" d="M145.13,110.26a.47.47,0,0,0,0-.94.47.47,0,0,0,0,.94Z"/><path class="cls-5" d="M146.36,111q.4,8.14.18,16.29c0,.57.74.59.93.13l.67-1.69c.23-.56-.69-.81-.91-.25l-.67,1.69.93.13q.22-8.15-.18-16.29c0-.6-1-.61-.94,0Z"/><path class="cls-5" d="M149.66,113.28a.47.47,0,0,0,0-.94.47.47,0,0,0,0,.94Z"/><path class="cls-5" d="M150.16,111.77a.47.47,0,0,0,0-.94.47.47,0,0,0,0,.94Z"/><path class="cls-5" d="M157.88,113.59a18.47,18.47,0,0,1,2.77-1l1.76-.25q.79,3.56-2.47,2.9a.48.48,0,0,0-.41.71c1.39,2.43,4.22,1.56,6.47,2.45l-.11-.86a27.45,27.45,0,0,1-4.47,2.44.48.48,0,0,0,0,.81,7.79,7.79,0,0,0,3.07.84c3.22.47-.63,2.5-1.74,3.42a.47.47,0,0,0,.1.74c1.29.59,2.26.9.63,1.88a.47.47,0,0,0,.48.81,10.36,10.36,0,0,0,1.89-1.43.48.48,0,0,0-.1-.74c-1.61-1-1.77-.76-.11-1.75a6.59,6.59,0,0,0,.84-.45c.53-.43,1.36-1.19,1.14-2-.49-1.8-4.61-1.47-5.73-2.13v.81a27.45,27.45,0,0,0,4.47-2.44.48.48,0,0,0-.11-.86c-1.82-.72-4.82-.12-5.91-2l-.41.71c2.5-.17,5-.66,5.53-3.46a.49.49,0,0,0-.22-.53c-2.57-1.36-5-.58-7.62.47-.55.23-.31,1.14.25.91Z"/><path class="cls-5" d="M173.19,137.65c2.93,1.17,9.58,2.23,9.45-2.68-.05-2-1.42-3.7-2.8-5-1-.93-2.07-1.72-3.08-2.61-.44-.39-.89-.79-1.3-1.23q-2.22-1.46.37-2.35,2.24-1.79,1-.76c-.55.26-.07,1.07.48.81l1-.46a.48.48,0,0,0,.1-.74c-1-1.19-2.71-2.77-4.42-1.74-1.26.76-1.25,2.32-.8,3.56.77,2.13,3,3.63,4.64,5,1.35,1.13,2.88,2.37,3.47,4.09,1.91,5.61-5.72,4.06-7.86,3.21-.56-.22-.81.69-.25.91Z"/><path class="cls-5" d="M174.58,120.51a36.43,36.43,0,0,1,3.6,3.16l.33-.81-1.18,0c-.61,0-.61,1,0,.94l1.18,0a.48.48,0,0,0,.33-.81,38.22,38.22,0,0,0-3.79-3.31c-.48-.37-1,.45-.48.81Z"/><path class="cls-5" d="M176.07,115.76c1.19.78,3.43,2.3,3.83,3.77.71,2.59-2.62,3.5-4.58,3.31-.6-.06-.6.88,0,.94,2,.2,5.28-.63,5.75-3s-2.83-4.77-4.52-5.88c-.51-.33-1,.48-.48.81Z"/><path class="cls-5" d="M172.56,134.42a.47.47,0,0,0,0-.94.47.47,0,0,0,0,.94Z"/><path class="cls-5" d="M173.18,133.36a4.41,4.41,0,0,0,2.65-2.73.48.48,0,0,0-.22-.53,1.22,1.22,0,0,0-1.64.21c-.39.46.28,1.13.67.67a.32.32,0,0,1,.49-.06l-.22-.53a3.4,3.4,0,0,1-2,2.08c-.56.21-.32,1.13.25.91Z"/><path class="cls-5" d="M112.35,136.14q-1.19,2-3.39-.24-4,0-2.37-3.27a11.05,11.05,0,0,1,2.53-3.64c1-1,2.35-1.83,2.75-3.35.79-3-2.17-6.06-3.66-8.3a.49.49,0,0,0-.53-.22,10.24,10.24,0,0,0-4.74,2.31c-.47.39.2,1.05.67.67,2.47-2.05,3.87-2.21,5.57.37,1,1.55,1.86,4.63.89,6.41-.3.56-1.15,1-1.61,1.44-2,1.87-3.41,4.25-3.08,7.1.55,4.82,5,4.21,7.64,1.38.41-.45-.25-1.11-.67-.67Z"/><path class="cls-5" d="M106.32,119.58c-1.06-1.5-2.06-3.8.44-4.41.55-.14,1.13-.17,1.69-.28a10.1,10.1,0,0,0,1-.27l.35-.12q.73-.42,1,.42c-.46.4.21,1.07.67.67a1.24,1.24,0,0,0-.52-2.06,2.27,2.27,0,0,0-1.41.06,23.31,23.31,0,0,1-2.37.54,3.3,3.3,0,0,0-2.81,1.69c-.62,1.47.33,3.06,1.15,4.23.35.49,1.17,0,.81-.48Z"/><path class="cls-5" d="M112.16,133.41a.47.47,0,0,0,0-.94.47.47,0,0,0,0,.94Z"/><path class="cls-5" d="M122.68,102.63c3.34-2.7,3.94-7.54.53-10.5s-9.85-2.94-13.67-.59c-3.16,1.95-5.39,5.5-2.53,8.69,2.07,2.31,6.75,4,8.71.77.32-.52-.5-1-.81-.48-1,1.65-3.56,1.33-4.95.65-1.92-1-2.81-1.92-2.85-4.06-.07-3.22,2.8-5.24,5.78-5.94a12.47,12.47,0,0,1,7.3.31c4.5,2,5.93,7.18,1.83,10.49-.47.38.2,1,.67.67Z"/><path class="cls-5" d="M113.89,97.59c-.32-1.87,2.15-1.67,3-1.37a3.71,3.71,0,0,1,2,1.6,2.74,2.74,0,0,1-1.37,3.92c-.57.2-.32,1.11.25.91A3.73,3.73,0,0,0,119,96.38c-1.73-1.63-6.61-2.06-6,1.46.1.6,1,.34.91-.25Z"/><path class="cls-5" d="M159,96.75c1.29-2.31,2.77-5,5.25-6.24a7,7,0,0,1,6.26.3A5.61,5.61,0,0,1,174,94.34q2,2.31-1,3.55a15.69,15.69,0,0,1-2.81,1.4,16.2,16.2,0,0,1-4.11,1c-.59.06-3.4.35-3.76-.43A5.54,5.54,0,0,1,164,97q2.75-2.56,1.8-.39c-.61,0-.61,1,0,.94,1.27,0,4-1.32,2-2.74-1-.7-2.95.41-3.74,1a6.61,6.61,0,0,0-2.69,4.62c0,.23.05.54.33.58a17.08,17.08,0,0,0,11.87-2.32c2.07-1.39,3.51-3.55,1.7-5.79-2-2.49-6.33-4.5-9.55-3.87-3.65.71-5.76,4.25-7.43,7.23a.47.47,0,0,0,.81.48Z"/><path class="cls-5" d="M173.19,106.45a14.5,14.5,0,0,0,3.93.07,3,3,0,0,0,2.05-.81c1.33-1.63-1.58-3.64-2.53-4.57a.48.48,0,0,0-.57-.07,1.52,1.52,0,0,0-.63.68c-.27.54.55,1,.81.48l.3-.34-.57-.07,1.37,1.33c.59.57,1.83,1.52.49,2.29a4.84,4.84,0,0,1-2,.25,13.63,13.63,0,0,1-2.41-.14c-.59-.09-.85.82-.25.91Z"/><path class="cls-5" d="M175.58,100.19a.47.47,0,0,0,0-.94.47.47,0,0,0,0,.94Z"/><path class="cls-5" d="M178.31,100.09a8,8,0,0,0,3.08-4.23c.13-.43-.34-.69-.69-.53l-.85.39c-.55.25-.07,1.06.48.81l.85-.39-.69-.53a7,7,0,0,1-2.65,3.67c-.49.35,0,1.17.48.81Z"/><path class="cls-5" d="M180.11,95.92a.47.47,0,0,0,0-.94.47.47,0,0,0,0,.94Z"/><path class="cls-5" d="M183,95.17c1.67-.61,4-1.54,3.93-3.73a2.21,2.21,0,0,0-2.77-2.11c-.55.09-.38.9.13.93,2.23.13,4.92-.15,6.06-2.39A3.39,3.39,0,0,0,189,83.32l-.36.86A3.83,3.83,0,0,0,193.2,81a5.8,5.8,0,0,0-.31-3.22c-.12-.36-1.38-2.24-1.29-2.68,0-.17.71-.3.8-.51a14.07,14.07,0,0,0,.9-2c.12-.41-.24-.83-.14-1.18.24-.87.88-1.16,1.52-1.76a80.07,80.07,0,0,0,10-10.66.47.47,0,0,0-.41-.71,34.72,34.72,0,0,0-6.06.93l.36.86a5.75,5.75,0,0,0,2.69-4.94.48.48,0,0,0-.6-.45c-8,2.44-16.44,5.34-21,12.81a.47.47,0,0,0,0,.48,16.25,16.25,0,0,0,2.31,2.34c3,3.11,2.24,5.26,1,8.82a31.73,31.73,0,0,1-8.35,12.71c-.44.42.23,1.09.67.67A32.89,32.89,0,0,0,183,81.7c1.15-2.68,3.39-7.47,1.54-10.24-1-1.51-3.9-2.15-3.52-4.32.34-2,4.43-4.71,5.88-5.65a37.49,37.49,0,0,1,6.71-3.35c1-.41,2.08-.78,3.12-1.13l2.1-.68q3.11-1.37-.73,3a.47.47,0,0,0,.36.86q1.16-.31,2.35-.52,3.55-1.37,1.53.92c-.48,1.21-2.13,2.54-3,3.49A61.7,61.7,0,0,1,192,70.71a.47.47,0,0,0-.07.57l-1.24,3.07a.48.48,0,0,0-.28.69c.92,1.49,5.67,9.32-1.44,8.22a.47.47,0,0,0-.36.86c3.59,2.25-2.56,5.28-4.3,5.18l.13.93q1.82,3.61-1.66,4c-.57.21-.32,1.12.25.91Z"/><path class="cls-5" d="M182.74,108.17a4.21,4.21,0,0,0,2.85-2.18.48.48,0,0,0-.07-.57,11.07,11.07,0,0,0-5.94-2.7c-.58-.08-.86.77-.25.91a16.55,16.55,0,0,0,12.59-1.89.48.48,0,0,0,0-.81c-3-2.08-6.38-2.69-10-3.19l-.13.93c5.66.56,11.94-.49,14-6.51a.48.48,0,0,0-.45-.6l-8.16-.64v.94a16.4,16.4,0,0,0,13.86-6.06.48.48,0,0,0-.21-.79,21.84,21.84,0,0,0-7.36-.33.47.47,0,0,0,0,.94,11.5,11.5,0,0,0,10.71-5.94.48.48,0,0,0-.41-.71l-9.27.32.13.93a13.91,13.91,0,0,0,9.91-9.6.47.47,0,0,0-.45-.6,23,23,0,0,0-10.88,4c-.5.34,0,1.16.48.81a57.18,57.18,0,0,0,18.16-20.06.48.48,0,0,0-.65-.65l-8.57,5,.57.74A23.29,23.29,0,0,0,210,50.54c.17-.41-.37-.71-.69-.53q-5.91,3.22-11.56,6.86c-.51.33,0,1.15.48.81q5.66-3.64,11.56-6.86l-.69-.53a22.37,22.37,0,0,1-6.53,8.89c-.42.35.12,1,.57.74l8.57-5-.65-.65A56.16,56.16,0,0,1,193.27,74l.48.81a22.15,22.15,0,0,1,5.54-2.86,20.77,20.77,0,0,1,2.46-.66q2.48-.61,1.21,1c-.43,3.52-5.61,6.2-8.51,7a.47.47,0,0,0,.13.93c.81,0,7.92-.92,8.35-.13s-3.06,3-3.61,3.32a10.54,10.54,0,0,1-5.77,1.25v.94c.78-.09,5.64-.69,5.92,0,.34.91-1.32,1.85-2.14,2.44a15.34,15.34,0,0,1-10.07,2.81c-.61,0-.6.9,0,.94,1.56.12,4-.14,5.44.43l1.36.11a2,2,0,0,1-1,2.72c-3,2.9-7.31,3-11.18,2.61-.52-.05-.65.85-.13.93,1.13.16,9.16,1.33,8.76,2.66-.27.91-3.25,1.5-4.26,1.69a15.74,15.74,0,0,1-6.63-.27l-.25.91a9.35,9.35,0,0,1,2.09.42q3.27.38,1.08,3.22a.47.47,0,0,0,.25.91Z"/><path class="cls-5" d="M183.78,113.45a22.67,22.67,0,0,0,9.43,1.37c.36,0,.68-.53.33-.81l-7-5.57-.46.79c1.82.54,10.67,1.79,10.63-1.83,0-3.17-7.64-3.69-9.71-3.64a.47.47,0,0,0-.13.93,12.56,12.56,0,0,0,12.4-3.5.48.48,0,0,0-.21-.79,12.1,12.1,0,0,0-6.89-.59c-.56.11-.36.87.13.93,6.17.66,11-3.29,15.31-7.2.33-.3,0-.76-.33-.81A41.37,41.37,0,0,0,196.1,93c-.53.08-.4.94.13.93A32.13,32.13,0,0,0,215,87.42a.48.48,0,0,0-.24-.88q-6.85.11-13.65.87a.47.47,0,0,0,0,.94,36,36,0,0,0,13.73-2.47c1.59-.63,6.29-2,6.28-4.41,0-5.95-16.31,1-18.33,1.61A.47.47,0,0,0,203,84c3.71-.91,7.49-2,10.73-4.06,1.61-1,5.22-3.57,4.82-5.91-.27-1.55-1.95-1.67-3.21-1.59-2.16.14-4.48,1.08-6.58,1.61l-8.62,2.19a.47.47,0,0,0,.25.91,38,38,0,0,0,22.8-15.37c.24-.35-.16-.8-.53-.69a72.73,72.73,0,0,0-18.93,8.27.47.47,0,0,0,.48.81c8.37-4.33,20.46-8.55,21.69-19.38.05-.45-.53-.56-.81-.33A116.75,116.75,0,0,1,208,62.06c-.54.3-.07,1.07.48.81a39,39,0,0,0,18.8-19,.48.48,0,0,0-.41-.71c-8.13-.68-10.81,9.15-17.93,11a.47.47,0,0,0,.25.91c3-.78,5.13-2.64,7.24-4.87a34.91,34.91,0,0,1,4.17-4.05c1.44-1.09,6.68-4,4.61-.22A37.85,37.85,0,0,1,208,62.06l.48.81a118.19,118.19,0,0,0,17.33-11.73l-.81-.33c-1.17,10.31-13.25,14.44-21.22,18.56l.48.81A71.8,71.8,0,0,1,222.93,62l-.53-.69a37,37,0,0,1-22.24,14.94l.25.91L209,75l3.59-.91,2.15-.55q3.75,1.16,1.67,2.81c-2.12,4.22-9.57,5.77-13.68,6.77L203,84l7.79-2.34c1.29-.39,2.59-.84,3.9-1.17a11.85,11.85,0,0,1,2.76-.53q3.07,2.32,1,3.15c-1.61,1.76-5.86,2.67-8.08,3.25a35.67,35.67,0,0,1-9.27,1.06v.94q6.81-.77,13.65-.87l-.24-.88A31.23,31.23,0,0,1,196.22,93l.13.93a40.15,40.15,0,0,1,10.91-.24l-.33-.81c-4.13,3.74-8.71,7.57-14.64,6.93l.13.93c2-.37,8.43-.64,3.3,2.08a11.78,11.78,0,0,1-8.6,1l-.13.93c1.08,0,9.91.45,7,3.69-1.33,1.51-6.17.38-7.72-.08-.43-.13-.84.49-.46.79l7,5.57.33-.81a22.26,22.26,0,0,1-9.17-1.34c-.57-.21-.82.7-.25.91Z"/><path class="cls-5" d="M185.27,122.06c1.4.4,7.2,2.79,8.12.25s-5.51-5.7-7-6.24c-.58-.21-.81.69-.25.91,2.75,1.07,11.4,4.68,13.3.33,1.66-3.79-3.84-3.52-5.76-4.3l-.25.91a26.81,26.81,0,0,0,18.33-2,.48.48,0,0,0-.11-.86q-6.88-1.4-13.85-2.13c-.6-.06-.6.88,0,.94,6.31.72,13.24.6,17.92-4.3a.49.49,0,0,0,0-.67c-1.29-1.56-3-1.89-4.93-2-3.79-.24-7.63-.2-11.43-.3-.62,0-.59.88,0,.94,3.78.38,7.71.77,11.37-.49,1.61-.56,5.47-2.28,5.56-4.44.14-3.54-11.26-2.47-13.17-2.4a.47.47,0,0,0,0,.94c9.17.28,18.92.26,26.43-5.74a.47.47,0,0,0-.21-.79,43.63,43.63,0,0,0-18.09.51c-.6.14-.34,1,.25.91,7.48-1.3,19.48-3.14,24-10.33,1-1.53,1-3.27-1-3.43s-5.39,1.59-7.31,2.3c-2.7,1-5.34,2.09-8,3.26-.55.25-.07,1.06.48.81,2.12-.94,4.25-1.84,6.41-2.67,1.46-.56,3.77-1.87,5.34-1.88q1.77-1.3,1.82.87,1.16,1.35-.35,2.06c-.87,1.23-3.11,2.34-4.44,3.06-5.29,2.88-11.34,4-17.21,5l.25.91a42,42,0,0,1,12.22-1.19c2.13.12,5.49-.32,2.51,1.76a17.37,17.37,0,0,1-4.45,2c-6,2-12.45,1.81-18.67,1.62v.94c2.1-.07,4.19-.08,6.28.06a14.51,14.51,0,0,1,3.41.33q1.76-.43,1.46,1.22.69,1.72-1.45,2.29c-4,2.49-9,2-13.45,1.54v.94l8.21.21c2.14.05,9.94.26,4.85,3.36-4.31,2.63-9.78,2.38-14.61,1.83v.94q6.86.73,13.6,2.1l-.11-.86a25.76,25.76,0,0,1-17.6,1.91.47.47,0,0,0-.25.91c.47.19,1.39.28,1.83.52l.92.1q1.07,4.61-1.94,3.61c-2.55.08-5.53-1.18-7.85-2.08l-.25.91c1.11.4,7.61,3.08,4.07,5.25-.7.43-3.91-.85-4.69-1.08a.47.47,0,0,0-.25.91Z"/><path class="cls-5" d="M225.73,81.92c3.06-1.2,22.58-9.92,17-15.36a2.4,2.4,0,0,0-2-.71c-.93,0-2.85,1.44-3.72,1.86-1.62.78-3.26,1.52-4.92,2.22a126.11,126.11,0,0,1-19.35,6.42l.25.91c7.77-2,14.6-6.13,21.13-10.7,3-2.09,10.47-5.89,6.81-10.44a.47.47,0,0,0-.57-.07,154.83,154.83,0,0,1-19.59,9.64.47.47,0,0,0,.25.91,30.42,30.42,0,0,0,22.51-23,.48.48,0,0,0-.79-.46L225.19,56.74c-.43.33.12,1,.57.74,4.93-3,9.75-6.39,13.36-11,2.7-3.42,5.45-8,4.05-12.46a.48.48,0,0,0-.79-.21Q233.84,43,224.57,51.36c-.45.41.22,1.07.67.67q4.89-4.43,9.59-9.05,2.22-2.2,4.4-4.44c.64-.66,1.59-2.24,2.4-2.51q.44-1,.77-.11a1.87,1.87,0,0,1,0,2.49c-2,8.28-10.35,14.1-17.14,18.26l.57.74L243.39,43.8l-.79-.46a29.48,29.48,0,0,1-21.85,22.35l.25.91c3.85-1.57,7.65-3.26,11.37-5.13q2.76-1.39,5.46-2.9l1.79-1-.16,3.91c-.45.89-2.35,1.79-3.14,2.36C229,69.07,221.51,74,212.71,76.35a.47.47,0,0,0,.25.91,126.78,126.78,0,0,0,22-7.58c1.13-.51,3.74-2.44,4.92-2.36q2.86,3,.79,4.53-.42.4-.87.76c-.93.78-1.89,1.53-2.88,2.24A51.1,51.1,0,0,1,225.48,81c-.56.22-.32,1.13.25.91Z"/><path class="cls-5" d="M189.2,128.27c1.53,1.08,8.83,6.61,10.69,3.62,1.7-2.73-5-7.12-6.77-8.16l-.48.81a26.68,26.68,0,0,0,19.71,1.18c.34-.11.51-.69.11-.86l-13.23-5.7-.36.86a44.8,44.8,0,0,0,27.31-.89.48.48,0,0,0,0-.91A82.42,82.42,0,0,0,207,114c-.52-.05-.65.84-.13.93a40.74,40.74,0,0,0,23.17-3,.48.48,0,0,0,.1-.74c-1.84-1.91-4.19-2.36-6.73-2.84-3.65-.69-7.34-1.16-11-1.5-.61-.06-.59.87,0,.94a40.27,40.27,0,0,0,22.82-3.9.48.48,0,0,0,.1-.74c-1.64-1.93-4.22-1.73-6.58-1.93l-12.37-1.07v.94c6.95.47,14,.73,20.27-2.73a.48.48,0,0,0-.11-.86,72,72,0,0,0-11.74-2.17c-.53-.05-.63.8-.13.93a18,18,0,0,0,10-.22c2.45-.79,6.54-2.63,7.77-5.12,2.46-5-11.88-1.32-13.43-.81a.47.47,0,0,0,.13.93c3.39,0,7.11-.13,9.9-2.31s4.72-6,6.74-8.87a.47.47,0,0,0-.41-.71l-9.68.7c-.6,0-.61,1,0,.94a66,66,0,0,1,6.91-.5c1.39,0,1.4-.48,1.22.71-.1.66-1.55,2.23-1.89,2.71-1.47,2.1-2.86,4.13-5.24,5.25s-5,1.1-7.56,1.13l.13.93a33.21,33.21,0,0,1,7.43-1.61c1.52-.14,2.38-.51,3.32.92,1.06,1.62,0,1.88-1.75,3a17,17,0,0,1-13.34,2l-.13.93a70.38,70.38,0,0,1,11.49,2.13l-.11-.86c-6.14,3.37-13,3.06-19.79,2.6-.61,0-.6.89,0,.94l9.62.83c1.34.12,2.79.14,4.12.36a4.3,4.3,0,0,1,3.47,1.36,30.19,30.19,0,0,1-2.87,1.19,39.1,39.1,0,0,1-18.31,2v.94c3.39.31,6.76.74,10.12,1.35a29.06,29.06,0,0,1,4,.85c2.37.78,1.54,1.62-.37,2.53C220.6,115.14,213,115,207.17,114L207,115a81.37,81.37,0,0,1,18.89,4.16v-.91a43.9,43.9,0,0,1-26.81.89c-.5-.14-.87.65-.36.86l13.23,5.7.11-.86a25.68,25.68,0,0,1-19-1.09c-.54-.25-1,.5-.48.81,1.23.74,8.79,6,4.54,7-1.78.39-6.06-3-7.51-4.05-.5-.35-1,.47-.48.81Z"/><path class="cls-5" d="M249.5,78.39c8.07-3.75,19.89-9.1,21.53-19a.48.48,0,0,0-.33-.58c-2.81-.52-5.77,2.91-8,4.37q-4.87,3.19-10,5.89c-7.09,3.7-14.52,6.71-21.84,9.92l.48.81a255.73,255.73,0,0,0,24.88-14.61c6.21-4.21,16-9,18-16.93a.48.48,0,0,0-.45-.6c-6.08,0-11.86,5.46-16.72,8.61-5.76,3.74-11.52,7.5-17.31,11.21-.51.33,0,1.14.48.81,7.49-4.77,15.12-9.34,22.08-14.87,3.51-2.79,7.31-5.73,10-9.39.95-1.31,3.7-5.16,1.91-6.86a4.85,4.85,0,0,0-3.77-.59c-1.29.44-2.84,2.42-3.8,3.28-1.66,1.5-3.29,3-4.93,4.57-7.2,6.73-14.53,13.41-23.69,17.35l.48.81a102.78,102.78,0,0,0,22.33-15.83A91.08,91.08,0,0,0,270.54,37c1.59-2,3.8-5.3,3.07-8.07-1.6-6.05-12.23,3.81-14.16,5.16L233,52.58c-.49.34,0,1.16.48.81a117.15,117.15,0,0,0,35-36.31.48.48,0,0,0-.65-.65c-9.55,5.76-19.12,11.71-26.1,20.6-.37.47.29,1.14.67.67,6.92-8.82,16.43-14.73,25.91-20.45l-.65-.65a116,116,0,0,1-34.64,36l.48.81,19.82-13.86,9.61-6.72c1.6-1.12,3.18-2.27,4.81-3.36,1.45-1,1.15-1,3.2-.34q2.41-.2,1.65,1.59a6.42,6.42,0,0,1-.9,2.93c-3,5.85-9.6,10.89-14.51,15.11A97.76,97.76,0,0,1,238,61.82c-.55.28-.07,1,.48.81a65.78,65.78,0,0,0,17.12-11.31c2.76-2.41,5.42-4.93,8.1-7.43,1.78-1.66,5.33-6.31,7.78-6.22,5.34.2-1.88,8.2-3.53,9.75a104.73,104.73,0,0,1-9.54,7.86c-6,4.42-12.38,8.24-18.64,12.24l.48.81c5.94-3.81,11.85-7.67,17.78-11.52,3.18-2.06,6.33-4.22,9.58-6.16,1.54-.92,6.91-3.73,4.68.21a16.69,16.69,0,0,1-3.78,4.33c-11.19,9.57-24.65,17-37.63,23.83-.55.29-.07,1.05.48.81,11.08-4.86,22.24-9.44,32.38-16.14a34,34,0,0,1,4.2-2.89,1.33,1.33,0,0,1,2-.5,10.49,10.49,0,0,1-1.29,3c-1.69,2.86-4.5,5.14-7,7.22-3.8,3.11-8.16,4.95-12.58,7-.55.26-.07,1.07.48.81Z"/><path class="cls-5" d="M99.29,94.26q-3.47-.41-1.66-4l.13-.93c-1.75.11-7.9-2.93-4.3-5.18a.47.47,0,0,0-.36-.86c-7.11,1.1-2.36-6.73-1.44-8.22a.48.48,0,0,0-.28-.69l-1.24-3.07a.47.47,0,0,0-.07-.57,61.7,61.7,0,0,1-7.33-6.61c-.89-1-2.54-2.28-3-3.49q-2-2.29,1.53-.92,1.19.21,2.35.52a.47.47,0,0,0,.36-.86q-3.85-4.4-.73-3l1.57.51c1.05.35,2.1.71,3.13,1.11a37.25,37.25,0,0,1,7.23,3.55c1.52,1,5.55,3.62,5.88,5.65S98.51,70,97.5,71.47C95.64,74.22,97.89,79,99,81.7a32.89,32.89,0,0,0,7.72,10.89c.44.42,1.11-.25.67-.67a32.05,32.05,0,0,1-8.35-12.71,28.2,28.2,0,0,1-.83-2.88,5.31,5.31,0,0,1,1.49-5.67c.87-1,1.93-1.46,2.67-2.6a.47.47,0,0,0,0-.48c-4.59-7.47-13-10.37-21-12.81a.48.48,0,0,0-.6.45,5.75,5.75,0,0,0,2.69,4.94l.36-.86a34.76,34.76,0,0,0-6.06-.93.47.47,0,0,0-.41.71,61,61,0,0,0,9.45,10.23c.74.63,1.78,1.16,2,2.13.06.23-.26.6-.2.87a10,10,0,0,0,.94,2.32c.1.24.77.34.8.51.11.57-.82,1.56-1,2.12a6.65,6.65,0,0,0-.65,3.28,3.94,3.94,0,0,0,4.64,3.63L93,83.32a3.4,3.4,0,0,0-1.28,4.55c1.12,2.26,3.85,2.52,6.06,2.39.5,0,.68-.83.13-.93a2.2,2.2,0,0,0-2.77,2.11c-.16,2.18,2.29,3.13,3.93,3.73.57.21.82-.7.25-.91Z"/><path class="cls-5" d="M99.51,107.26q-2.19-2.83,1.08-3.22a9.35,9.35,0,0,1,2.09-.42l-.25-.91a15.74,15.74,0,0,1-6.63.27c-1-.19-4-.79-4.26-1.69-.4-1.33,7.63-2.5,8.76-2.66.52-.07.4-1-.13-.93C96.32,98.09,92,98,89,95.1q-1.51-.78-1.11-2.1-.15-1.27,1.44-.73c1.6-.48,3.77-.3,5.44-.43.6,0,.61-1,0-.94A15.34,15.34,0,0,1,84.7,88.09c-.82-.59-2.48-1.53-2.14-2.44.27-.73,5.14-.14,5.92,0v-.94a10.66,10.66,0,0,1-5.77-1.25c-.72-.4-4-2.63-3.61-3.32.45-.85,7.35.1,8.35.13a.47.47,0,0,0,.13-.93c-2.91-.79-8.08-3.47-8.51-7q-1.27-1.63,1.21-1a20.77,20.77,0,0,1,2.46.66,22.15,22.15,0,0,1,5.54,2.86l.48-.81A56.16,56.16,0,0,1,70.91,54.27l-.65.65,8.57,5c.45.26,1-.39.57-.74a22.37,22.37,0,0,1-6.53-8.89l-.69.53Q78.09,54,83.74,57.68c.51.33,1-.49.48-.81Q78.56,53.22,72.66,50c-.32-.18-.86.13-.69.53a23.3,23.3,0,0,0,6.77,9.31l.57-.74-8.57-5a.48.48,0,0,0-.65.65A57.18,57.18,0,0,0,88.26,74.8c.5.34,1-.47.48-.81a23,23,0,0,0-10.88-4,.47.47,0,0,0-.45.6,13.91,13.91,0,0,0,9.91,9.6l.13-.93L78.17,79a.48.48,0,0,0-.41.71A11.5,11.5,0,0,0,88.47,85.6a.47.47,0,0,0,0-.94,21.84,21.84,0,0,0-7.36.33.48.48,0,0,0-.21.79,16.4,16.4,0,0,0,13.86,6.06V90.9l-8.16.64a.48.48,0,0,0-.45.6c2.09,6,8.37,7.07,14,6.51l-.13-.93c-3.57.5-6.94,1.12-10,3.19a.48.48,0,0,0,0,.81,16.55,16.55,0,0,0,12.59,1.89c.61-.14.33-1-.25-.91a11.07,11.07,0,0,0-5.94,2.7.48.48,0,0,0-.07.57,4.21,4.21,0,0,0,2.85,2.18.47.47,0,0,0,.25-.91Z"/><path class="cls-5" d="M98,112.54a22.27,22.27,0,0,1-9.17,1.34l.33.81,7-5.57c.38-.3,0-.92-.46-.79-1.38.41-6.43,1.55-7.72.08-1.48-1.67.88-2.76,2.06-3.12a15.69,15.69,0,0,1,5-.58l-.13-.93a11.49,11.49,0,0,1-8.6-1c-4.39-2.53.54-2.6,3.3-2.08l.13-.93c-5.93.64-10.51-3.19-14.64-6.93l-.33.81a40.15,40.15,0,0,1,10.91.24l.13-.93a31.23,31.23,0,0,1-18.26-6.39l-.24.88q6.85.11,13.65.87v-.94a35.81,35.81,0,0,1-8.66-.9c-2.53-.6-6.93-1.48-8.69-3.41q-2.1-.82,1-3.15a9.81,9.81,0,0,1,2.29.41c1.25.3,2.48.73,3.72,1.1L79,84l.25-.91c-4.1-1-11.57-2.58-13.68-6.77q-2.08-1.64,1.67-2.81l1.44.37A32.49,32.49,0,0,1,73,75l8.62,2.19.25-.91A37,37,0,0,1,59.6,61.32l-.53.69a71.8,71.8,0,0,1,18.7,8.17l.48-.81c-8-4.12-20-8.25-21.22-18.56l-.81.33A118.19,118.19,0,0,0,73.55,62.87l.48-.81A37.85,37.85,0,0,1,56.82,46c-.27-.49-1.12-1.45-.48-1.91s3.42,1,4.16,1.42c2,1.17,3.53,3.11,5.11,4.77,2.12,2.23,4.22,4.09,7.24,4.87a.47.47,0,0,0,.25-.91c-7.13-1.84-9.8-11.67-17.93-11a.48.48,0,0,0-.41.71,39,39,0,0,0,18.8,19c.54.26,1-.52.48-.81A116.76,116.76,0,0,1,56.89,50.48c-.28-.22-.86-.12-.81.33,1.23,10.82,13.32,15,21.69,19.38a.47.47,0,0,0,.48-.81A72.73,72.73,0,0,0,59.32,61.1c-.37-.1-.78.35-.53.69a38,38,0,0,0,22.8,15.37.47.47,0,0,0,.25-.91C77,75,71.66,72.89,66.65,72.45c-1.31-.12-2.88.06-3.21,1.59-.49,2.27,3.31,4.92,4.82,5.91,3.22,2.11,7,3.15,10.73,4.06a.47.47,0,0,0,.25-.91c-2.11-.63-18.32-7.56-18.33-1.61,0,2.44,4.61,3.73,6.28,4.41a35.74,35.74,0,0,0,13.73,2.47.47.47,0,0,0,0-.94q-6.81-.77-13.65-.87a.48.48,0,0,0-.24.88,32.13,32.13,0,0,0,18.74,6.52c.52,0,.66-.84.13-.93a41.33,41.33,0,0,0-11.16-.27c-.37,0-.67.5-.33.81,4.32,3.91,9.14,7.87,15.31,7.2.48-.05.69-.82.13-.93a12.1,12.1,0,0,0-6.89.59.48.48,0,0,0-.21.79,12.56,12.56,0,0,0,12.4,3.5.47.47,0,0,0-.13-.93c-2.07-.05-9.67.47-9.71,3.64,0,3.62,8.81,2.37,10.63,1.83l-.46-.79-7,5.57c-.35.28,0,.78.33.81a22.67,22.67,0,0,0,9.43-1.37c.57-.21.32-1.12-.25-.91Z"/><path class="cls-5" d="M96.49,121.15c-.78.22-4,1.51-4.69,1.08-3.53-2.18,3-4.85,4.07-5.25l-.25-.91c-2,.79-5.63,2.51-7.85,2.08q-2.06.88-1.58-1.73-1.4-2.23.56-2c.29-.19,1.45-.37,1.83-.52a.47.47,0,0,0-.25-.91,25.75,25.75,0,0,1-17.6-1.91l-.11.86q6.76-1.37,13.6-2.1v-.94c-4.83.55-10.29.8-14.61-1.83-4.83-2.94,2-3.29,4.16-3.34l8.9-.22v-.94c-4.48.45-9.42.94-13.45-1.54-1-.62-2.48-2-1.31-3.34.47-.52,3.2-.39,4-.46a61,61,0,0,1,7-.1v-.94c-6.22.19-12.68.34-18.67-1.62a17.37,17.37,0,0,1-4.45-2c-3-2.07.38-1.64,2.51-1.76A42,42,0,0,1,70.53,92l.25-.91c-5.87-1-11.92-2.17-17.21-5-1.38-.75-3.48-1.82-4.44-3.06l-.81-.76q-.14-3.68,2.29-2.17c1.57,0,3.87,1.32,5.34,1.88,2.17.82,4.3,1.72,6.41,2.67.55.24,1-.57.48-.81-2.62-1.17-5.27-2.27-8-3.26-2.1-.77-4.62-2-6.84-2.24s-2.59,1.57-1.46,3.38c1.95,3.11,6.37,5.31,9.6,6.65A67.19,67.19,0,0,0,70.53,92c.59.1.85-.77.25-.91a43.63,43.63,0,0,0-18.09-.51.47.47,0,0,0-.21.79c7.52,6,17.27,6,26.43,5.74a.47.47,0,0,0,0-.94c-2.08-.07-13.15-1.2-13.17,2.4,0,1.93,3.68,3.73,5,4.26,3.79,1.47,7.93,1.06,11.88.66.59-.06.62-1,0-.94-3.8.1-7.64.05-11.43.3-2,.13-3.63.45-4.93,2a.48.48,0,0,0,0,.67c4.68,4.89,11.6,5,17.92,4.3.6-.07.61-1,0-.94q-7,.74-13.85,2.13a.48.48,0,0,0-.11.86,26.82,26.82,0,0,0,18.33,2l-.25-.91c-1.93.78-7.42.52-5.76,4.3,1.9,4.35,10.55.74,13.3-.33.56-.22.33-1.12-.25-.91-1.52.55-7.95,3.64-7,6.24s6.7.16,8.12-.25a.47.47,0,0,0-.25-.91Z"/><path class="cls-5" d="M56.53,81a51.4,51.4,0,0,1-11-5.8c-1-.7-2-1.43-2.91-2.2C41,71.65,40.8,71.89,41.5,69.4c.78-2.73.54-2.1,2.43-1.18Q45.46,69,47,69.68a126.78,126.78,0,0,0,22,7.58.47.47,0,0,0,.25-.91C60.5,74,53,69.07,45.68,63.83c-.78-.56-2.78-1.65-3.14-2.36l-.16-3.91,1.19.68c2,.6,4.17,2.28,6.06,3.23C53.35,63.34,57.15,65,61,66.6l.25-.91A29.48,29.48,0,0,1,39.4,43.34l-.79.46L56.15,57.4l.57-.74c-6.8-4.16-15.15-10-17.14-18.26-.12-.51-.67-2.68.32-2.88A22.29,22.29,0,0,1,42.3,38q2.17,2.25,4.38,4.45Q51.61,47.38,56.77,52c.45.41,1.12-.26.67-.67Q48.16,43,39.62,33.84a.48.48,0,0,0-.79.21c-1.4,4.47,1.35,9,4.05,12.46,3.61,4.58,8.44,8,13.36,11,.44.27,1-.41.57-.74L39.28,43.13a.48.48,0,0,0-.79.46A30.42,30.42,0,0,0,61,66.6a.47.47,0,0,0,.25-.91A154.83,154.83,0,0,1,41.67,56a.48.48,0,0,0-.57.07c-3.66,4.54,3.81,8.35,6.81,10.44,6.54,4.57,13.36,8.66,21.13,10.7l.25-.91a126.64,126.64,0,0,1-18.15-5.9Q48,69.17,45,67.71c-.91-.44-2.62-1.78-3.66-1.84a2.37,2.37,0,0,0-2,.69C33.7,72,53.25,80.74,56.28,81.92c.57.22.81-.69.25-.91Z"/><path class="cls-5" d="M92.33,127.46c-1.43,1-5.71,4.45-7.51,4.05l-1.51-1.45a17.7,17.7,0,0,1,2.26-2.69,20.31,20.31,0,0,1,3.79-2.82c.53-.32.07-1.06-.48-.81a25.69,25.69,0,0,1-19,1.09l.11.86L83.24,120c.5-.21.14-1-.36-.86a43.9,43.9,0,0,1-26.81-.89v.91A81.35,81.35,0,0,1,75,115l-.13-.93c-5.8.91-13.55,1.18-18.95-1.55-1.64-.83-3.12-1.62-.37-2.53a25.56,25.56,0,0,1,3.28-.73c3.57-.68,7.18-1.14,10.79-1.47v-.94a39.08,39.08,0,0,1-18.31-2,30.19,30.19,0,0,1-2.87-1.19,4.3,4.3,0,0,1,3.47-1.36A36.85,36.85,0,0,1,56,101.9l9.62-.83c.6-.05.61-1,0-.94-6.76.46-13.66.77-19.79-2.6l-.11.86a70.38,70.38,0,0,1,11.49-2.13l-.13-.93a17.05,17.05,0,0,1-13.34-2c-.44-.28-2.36-1.34-2.49-2-.52-2.58,2.28-2.09,3.42-2A32.81,32.81,0,0,1,52.75,91l.13-.93a21.8,21.8,0,0,1-6.61-.71c-2.92-1-4.52-3.28-6.19-5.67a22.52,22.52,0,0,1-1.51-2.16c-1-1.88-1-.88.16-1.3,1.62-.6,5.9.43,7.6.55.61,0,.6-.9,0-.94l-9.68-.7a.47.47,0,0,0-.41.71c2,2.9,3.9,6.66,6.74,8.87S49.49,91,52.88,91a.47.47,0,0,0,.13-.93c-1.49-.49-15.91-4.18-13.43.81,1.16,2.33,5,4.13,7.26,4.93a18,18,0,0,0,10.5.41c.5-.13.41-1-.13-.93a72,72,0,0,0-11.74,2.17.48.48,0,0,0-.11.86c6.28,3.45,13.32,3.2,20.27,2.73v-.94L53.25,101.2c-2.35.2-4.94,0-6.58,1.93a.48.48,0,0,0,.1.74,40.28,40.28,0,0,0,22.82,3.9c.59-.07.61-1,0-.94-3.7.34-7.39.81-11,1.5-2.52.48-4.89.93-6.73,2.84a.48.48,0,0,0,.1.74,40.74,40.74,0,0,0,23.17,3c.52-.08.4-1-.13-.93a82.42,82.42,0,0,0-19.14,4.2.48.48,0,0,0,0,.91,44.79,44.79,0,0,0,27.31.89l-.36-.86-13.23,5.7c-.4.17-.23.75.11.86a26.69,26.69,0,0,0,19.71-1.18l-.48-.81c-1.73,1-8.47,5.44-6.77,8.16,1.86,3,9.16-2.54,10.69-3.62.49-.35,0-1.17-.48-.81Z"/><path class="cls-5" d="M33,77.57c-4.42-2.05-8.78-3.89-12.58-7-2.54-2.08-5.35-4.36-7-7.22a10.49,10.49,0,0,1-1.29-3,1.33,1.33,0,0,1,2,.5,34,34,0,0,1,4.2,2.89C28.46,70.39,39.61,75,50.7,79.83c.54.24,1-.53.48-.81-13-6.78-26.52-14.22-37.63-23.83a16.89,16.89,0,0,1-3.78-4.33c-2-3.57,2.52-1.47,4.18-.51,3.28,1.9,6.42,4.09,9.6,6.15,6.08,3.95,12.15,7.91,18.26,11.83l.48-.81C36.17,63.63,30,59.9,24.1,55.63a109.25,109.25,0,0,1-9.58-7.8c-1.7-1.56-9.41-10-4-10.16,2.3-.09,5.66,4.25,7.33,5.8,2.68,2.5,5.34,5,8.1,7.45,5.33,4.69,11,8.9,17.58,11.71.54.23,1-.53.48-.81A97.1,97.1,0,0,1,25.33,49.16c-2.65-2.26-5.21-4.62-7.69-7.06S12,36.91,10.33,33.63c-.33-.65-1.52-3.25-1-3.95.71-1.07,3.41-1,4.39-.65,1.64.6,3.37,2.36,4.81,3.36l9.61,6.72L48.51,53.39l.48-.81a116,116,0,0,1-34.64-36l-.65.65c9.48,5.72,19,11.63,25.91,20.45.37.48,1-.19.67-.67-7-8.89-16.55-14.83-26.1-20.6a.48.48,0,0,0-.65.65,117.15,117.15,0,0,0,35,36.31c.51.34,1-.47.48-.81L22.56,34.1C20.59,32.72,10,22.88,8.4,28.93,7.66,31.71,9.87,35,11.47,37a89.88,89.88,0,0,0,9.77,9.81A102.81,102.81,0,0,0,43.57,62.64l.48-.81C35.07,58,27.86,51.48,20.8,44.89c-1.79-1.67-3.57-3.35-5.38-5-1-.91-2.49-2.89-3.8-3.28-.93-.28-3-.16-3.77.59-1.76,1.75.91,5.47,1.91,6.86,2.52,3.51,6.13,6.32,9.47,9,7.1,5.7,14.9,10.38,22.57,15.26.51.33,1-.49.48-.81C36.49,63.81,30.73,60.05,25,56.31c-4.84-3.14-10.66-8.65-16.72-8.61a.48.48,0,0,0-.45.6c2,7.88,11.82,12.72,18,16.93A255.73,255.73,0,0,0,50.7,79.83l.48-.81c-7.32-3.21-14.75-6.23-21.84-9.92q-4.89-2.55-9.53-5.56c-2.32-1.5-5.6-5.24-8.5-4.7a.48.48,0,0,0-.33.58c1.65,9.87,13.46,15.22,21.53,19,.55.25,1-.56.48-.81Z"/><path class="cls-5" d="M103.48,121c-2,2.66,1.88,2.49,3.31,1.14a.48.48,0,0,0-.1-.74c-3.69-2-2.83,4.8-2.84,6.62l.81-.33c-1.15-1.33-3.65-2.14-4.51,0-1,2.47,2,3.66,3.9,3.28.5-.1.39-.76,0-.91-4.61-1.75-5,6.76,1.15,5a.47.47,0,0,0-.25-.91,3.65,3.65,0,1,0,2.53,6.67.48.48,0,0,0,0-.81c-2.22-1.3-5.73-1.71-6.79,1.35a3.11,3.11,0,0,0,.45,3,11.54,11.54,0,0,0,3.65,1.64c.13.32-1.14,2.64-1,3.54a3.79,3.79,0,0,0,1.53,2.53,2.84,2.84,0,0,0,4.62-2.22.47.47,0,0,0-.35-.45c-3.75-.86-7.1.51-4,4.34.85,1.07,3.08,3.65,4.8,3.22.88-.22,1.7-1.22,1.17-2.14-1.5-2.58-4.11,1.37-3.45,3.26.53,1.5,5.22,5.47,5.07,1.89a.48.48,0,0,0-.35-.45,2.77,2.77,0,0,0-3,4.16c.79,1.59,5.77,4.34,7.2,2.22,1.08-1.62-1.29-2.24-2.43-1.86-2.46.83-2.33,3.81-.82,5.41s7.08,2.89,8.6.58c1.26-1.91-2.2-3.06-3.54-2.56-2.54,1-1.45,3,.27,4,2.77,1.57,6.55,1.77,8.42-1.09.3-.46-.36-.92-.74-.57-1.25,1.14-.68,2.67.45,3.74,2.31,2.19,6,1.71,8.38.12.31-.2.31-.79-.11-.86-1.1-.2-2.68-.47-3,1-.21.93.35,1.26,1.07,1.51s.82-.71.25-.91l1.44-.69-.11-.86a5.76,5.76,0,0,1-3.74,1.24q-3.78.21-3.95-3.62l-.74-.57c-2.27,3.47-5.17,1.24-7.56.23h-1.18q-4.95-.09-3.91-4.8a57.71,57.71,0,0,1-4.93-8.19,6.14,6.14,0,0,0-2.09-3.21,2.57,2.57,0,0,1-1-3.72q-2.43-2.23.16-4.07a.47.47,0,0,0-.21-.79,9.33,9.33,0,0,1-1.45-.25q-5.38-1,.74-10l-.25-.91L103.8,131v-.91l.19-1.68a.48.48,0,0,0,.81-.33c0-.78-.07-1.55-.08-2.33,0-.43,0-.87,0-1.3,0,0,.13-3.66-.43-2.91.37-.48-.45-1-.81-.48Z"/><path class="cls-5" d="M160.6,172.26a4.72,4.72,0,0,0,2.49-.89.48.48,0,0,0-.11-.86c-1.42-.43-5.79-.38-3.68,2.16,1.11,1.33,4.38,1.36,5.92,1a5.82,5.82,0,0,0,3.88-3.19.48.48,0,0,0-.17-.65,3.52,3.52,0,0,0-2.75-.36c-.48.1-.42.78,0,.91,2.27.73,6.77.62,6.37-3a2.3,2.3,0,0,0-4.27-1,.48.48,0,0,0,.28.69c2.07.6,5.06.53,5.74-2.08.52-2-.9-3.33-2.75-3.43a.48.48,0,0,0-.24.88c3.74,2.39,7.22-2.23,3.8-5.12a.47.47,0,0,0-.74.57c2.15,4,7.51.67,4.76-3-.36-.47-1.16,0-.81.48,2.59,3.81,6.21-4.1,1.51-5.25a.48.48,0,0,0-.46.79c1.74,2,3.73,0,3.77-2.06,0-1.46-1.56-6.3-3.74-4.8a.48.48,0,0,0-.1.74c3.66,3.27,4.51-5.55,4.24-7.57,0-.27-.36-.37-.58-.33l-1.47.25a.47.47,0,0,0-.33.58c1.61,4.08,7.38-1,2.13-4.06l-.11.86c6.44-2-1-11-3-8.68-.87,1,.22,2.18,1.34,2,2.85-.5.55-4.43-.49-5.37a.47.47,0,0,0-.67.67,1.88,1.88,0,0,0,3.18-.1c1.41-2.37-1.66-4.06-3.37-4.74-.56-.22-.81.69-.25.91l1.11,3.26-.67.67A12.65,12.65,0,0,0,184.2,129q1.65,3.06-1.26,4.62a.48.48,0,0,0-.11.86l-.2,6.65a12.15,12.15,0,0,0-1.07,3.61,2.17,2.17,0,0,0,.14,2.26q1.27,2-1.65,3.26l-.46.79-.45,3.86-.81.48-3.13,2-.74.57-2.66,3.64-.24.88q-.42,9-5.12,6.91v.91q2.31,1.83-1.46,2.37-5.31,1.11-2.24-1.31l-.11-.86-2.27.8c-.6.11-.34,1,.25.91Z"/><path class="cls-5" d="M99.68,144.85c-2.58,1.53-5.32,3.3-5.93,6.47-.94,4.89,2.63,9.32-1.09,13.86-.38.47.28,1.14.67.67a9.26,9.26,0,0,0,2-7.48c-.18-1.75-.73-3.46-.74-5.22,0-3.88,2.61-5.72,5.57-7.48a.47.47,0,0,0-.48-.81Z"/><path class="cls-5" d="M100.5,150c-2,1.6-4.48,2.64-4.24,5.57.22,2.58,1.75,3.69.64,6.51-1.2,3-4.34,4.37-7.34,5.33-.58.18-.33,1.1.25.91,2.91-.93,7-2.55,8.23-5.62a6.4,6.4,0,0,0,.19-3.88c-.52-2.4-1-2,.21-4.67a6.89,6.89,0,0,1,2.71-3.48c.47-.38-.2-1-.67-.67Z"/><path class="cls-5" d="M102.71,157.43c-1.18,2.46-1.93,5.37-4.08,7.18C95.87,167,91.42,167.1,88,167.53c-.59.07-.6,1,0,.94,3.56-.44,7.86-.58,10.86-2.78,2.54-1.87,3.37-5.06,4.67-7.78.26-.54-.55-1-.81-.48Z"/><path class="cls-5" d="M100,162.92l-3,1.51c-.54.27-.07,1.09.48.81l3-1.51c.54-.27.07-1.09-.48-.81Z"/><path class="cls-5" d="M101.7,164.75a26.81,26.81,0,0,1-12.38,2.72.47.47,0,0,0,0,.94,27.91,27.91,0,0,0,12.86-2.84c.55-.27.07-1.08-.48-.81Z"/><path class="cls-5" d="M99.7,168.27c1.66,0,11.46-1.92,8.45-5.23-.41-.45-1.08.22-.67.67,1.11,1.22-3.47,2.87-3.82,3a14.15,14.15,0,0,1-4,.63.47.47,0,0,0,0,.94Z"/><path class="cls-5" d="M113,154c1.27-1.29,2.61-2.87,1.63-4.73-1.12-2.12-4.06-3.26-6.22-3.86l.11.86a10.47,10.47,0,0,0,4.25-7.14c.08-.59-.83-.85-.91-.25a9.52,9.52,0,0,1-3.82,6.57.48.48,0,0,0,.11.86c2.91.8,7.93,3.2,4.17,7-.43.43.24,1.1.67.67Z"/><path class="cls-5" d="M175.34,152.21c-.75-2.13-1.57-4.28.86-6.09.62-.46,1.4-.66,2-1.16a.48.48,0,0,0-.1-.74c-.6-.35-6-4.8-4.06-5.77.54-.27.07-1.08-.48-.81-3.17,1.58,2.7,6.61,4.06,7.4l-.1-.74c-1.41,1.09-2.95,1.21-3.67,3s0,3.55.53,5.17c.2.57,1.11.32.91-.25Z"/><path class="cls-5" d="M169.32,155.78a17.33,17.33,0,0,0,5.52,2.68.47.47,0,0,0,.25-.91,16.57,16.57,0,0,1-5.3-2.58c-.49-.36-1,.46-.48.81Z"/><path class="cls-5" d="M166.77,155.54c1.67,4.13-1.17,7.18-4.88,8.42a13.66,13.66,0,0,1-3.49.68c-2.6.15-4.38-1-6.66-2,.55.24,1-.57.48-.81l-.14-.06a.49.49,0,0,0-.57.07l-.13.13a.48.48,0,0,0-.07.57c2.29,3.95,8.11,3.5,11.7,2,4.22-1.74,6.45-4.88,4.68-9.26-.22-.56-1.14-.31-.91.25Z"/><path class="cls-5" d="M114.48,161.09c1.3-.6,3.12-2.38,4.56-2.52.74-.07,2.28.72,3,.94,1.59.48,3.06,1.08,3.77,2.75.93,2.18.19,4.25,2.81,5.34,1.73.72,9.2-.49,5.68-3-.49-.36-1,.46-.48.81a3.21,3.21,0,0,1-3.14,1.61q-3.48-.81-3.69-3.47a9.78,9.78,0,0,0-.68-2.5,5,5,0,0,0-2.5-2c-1.32-.55-4.08-1.72-5.39-1.63-1.46.1-3,2.2-4.42,2.85-.55.26-.07,1.07.48.81Z"/><path class="cls-5" d="M142.31,164.16c-.24,1.23-.33,3.08,1.21,3.52a3.28,3.28,0,0,0,3.53-1.74c1.17-2.84-2.31-4.88-4.57-3.21-.48.36,0,1.18.48.81,1.34-1,3.6-.37,3.34,1.57a2,2,0,0,1-1.74,1.59c-1.6.36-1.55-1.19-1.33-2.29.11-.59-.79-.85-.91-.25Z"/><path class="cls-5" d="M141.28,176c.91-1.66,4-4.31,1.35-6.05l-.36.86a23.13,23.13,0,0,0,7.78.31l-.13-.93a3.37,3.37,0,0,0-2.57,3.51c.1,2.32,2,3.93,3.69,5.25.47.37,1.14-.29.67-.67-1.77-1.39-6.08-6-1.53-7.19.5-.13.41-1-.13-.93a22.35,22.35,0,0,1-7.53-.28.47.47,0,0,0-.36.86c1.8,1.18-1,3.59-1.69,4.76-.29.53.52,1,.81.48Z"/><path class="cls-5" d="M159.59,175.92c-2.85-1.62-7.76-7-3.36-9.83.51-.32,0-1.14-.48-.81-5,3.2-.19,9.44,3.36,11.46a.47.47,0,0,0,.48-.81Z"/><path class="cls-5" d="M133.8,169.06c1.16,2.33,1.52,4.4-.54,6.35A11,11,0,0,1,128,178c-.59.14-.34,1,.25.91a11.18,11.18,0,0,0,6.53-3.86c1.6-2.14.88-4.31-.21-6.51-.27-.54-1.08-.07-.81.48Z"/><path class="cls-5" d="M84.46,178.06c3.68-2.07,9.23-5.36,9.62-10,.05-.61-.89-.6-.94,0-.35,4.17-5.89,7.38-9.15,9.21a.47.47,0,0,0,.48.81Z"/><path class="cls-5" d="M88.15,187.39a104.14,104.14,0,0,1,10.34-11.1,41.06,41.06,0,0,1,6.33-4.65c2.48-1.46,5.26-2.27,7.71-3.7a.47.47,0,0,0,.48.81l.16-.1a.49.49,0,0,0,.22-.53l0-.22a.48.48,0,0,0-.45-.35c-4.05-.33-9.69,3.78-12.64,6.05-4.86,3.75-8.84,8.46-12.78,13.12-.39.46.27,1.13.67.67Z"/><path class="cls-5" d="M174.5,170.8c4.15,1,7.76,3.19,11.33,5.45s7,4.9,8.83,9c.22.49,1,.14.86-.36l-.24-.74c-.19-.58-1.1-.33-.91.25l.24.74.86-.36c-1.69-3.84-4.74-6.44-8.2-8.71-3.9-2.56-7.94-5.08-12.53-6.17-.59-.14-.84.77-.25.91Z"/><path class="cls-5" d="M198.29,173.66a71.21,71.21,0,0,1-8.75-7.28.48.48,0,0,0-.79.46.93.93,0,0,0,.45.77c.46.38,1.14-.28.67-.67l-.21-.35-.79.46a72.73,72.73,0,0,0,8.94,7.43c.5.35,1-.47.48-.81Z"/><path class="cls-5" d="M175.73,168.24c3.31,2.2,8.25,5.1,12.37,4.08l-.36-.86-.53.3a.47.47,0,0,0,.48.81l.53-.3a.47.47,0,0,0-.36-.86c-3.83.95-8.56-1.94-11.64-4-.51-.34-1,.48-.48.81Z"/><path class="cls-5" d="M181.59,167.28a27,27,0,0,0,8.62,3.27.47.47,0,0,0,.36-.86l-.58-.37c-.51-.33-1,.49-.48.81l.58.37.36-.86a26.27,26.27,0,0,1-8.39-3.17.47.47,0,0,0-.48.81Z"/><path class="cls-5" d="M184.14,163.56l7.39,2.45a.48.48,0,0,0,.58-.58.76.76,0,0,0-.45-.61c-.52-.32-1,.5-.48.81l0,0,.58-.58-7.39-2.45c-.58-.19-.83.72-.25.91Z"/><path class="cls-5" d="M191.34,160c-.92-4.74,1.1-8.74-3.73-11.66-.6-.36-6.35-3.72-5.73-1.07.14.59,1,.34.91-.25.13.57,3.25,1.49,4,1.91,1.9,1.12,3.24,2.39,3.48,4.71s-.25,4.39.18,6.61c.12.6,1,.34.91-.25Z"/><path class="cls-5" d="M185.58,155.87a.47.47,0,0,0,0-.94.47.47,0,0,0,0,.94Z"/><path class="cls-5" d="M185,158.47a64.88,64.88,0,0,1,4,6,.47.47,0,0,0,.81-.48,64.88,64.88,0,0,0-4-6c-.36-.48-1.18,0-.81.48Z"/><path class="cls-5" d="M185.92,158.09a54.5,54.5,0,0,1,3.22,5.28c.29.54,1.1.06.81-.48a54.5,54.5,0,0,0-3.22-5.28c-.34-.5-1.16,0-.81.48Z"/><path class="cls-5" d="M201,176.91a15,15,0,0,0,5.8,2.76.49.49,0,0,0,.53-.22,6.31,6.31,0,0,0,.82-2.52,6.17,6.17,0,0,1,1-2.41c.8-1.14,4.78-4.58,5.56-.13l.58-.58-.78-.33c-.48-.37-1,.45-.48.81a1.31,1.31,0,0,0,1,.43.48.48,0,0,0,.58-.58c-.53-3.06-3.9-3.14-6-1.52a6.39,6.39,0,0,0-2.28,3.69c-.36,1.48-.21,2.24-2,2-1.31-.2-2.79-1.39-3.82-2.18-.48-.37-1,.45-.48.81Z"/><path class="cls-5" d="M214.13,170c.87-.6,2.41-1.89,3.5-1.83,1.86.1,1.8,3.73-.33,3.21-.59-.14-.84.77-.25.91a2.43,2.43,0,0,0,2.62-3.56,2.46,2.46,0,0,0-2.16-1.6c-1.3.12-2.82,1.35-3.85,2.06-.5.34,0,1.16.48.81Z"/><path class="cls-5" d="M219.35,172.61c.08.81-1.15,2.21-1.8,2.65-.46.31-1,.51-1.47.82a12.38,12.38,0,0,0-2,1.65c-1.71,1.71-3.23,3.62-4.82,5.43l.74.57.27-.39c.35-.5-.47-1-.81-.48l-.27.39c-.3.44.39,1,.74.57,2.12-2.41,4.17-5.4,6.92-7.13,1.7-1.06,3.67-1.72,3.44-4.09-.06-.6-1-.61-.94,0Z"/><path class="cls-5" d="M213.81,181.74a19.33,19.33,0,0,1,9.7-5.67l-.25-.91-1.19.35a.47.47,0,0,0,.25.91l1.19-.35a.47.47,0,0,0-.25-.91,20.24,20.24,0,0,0-10.12,5.91c-.41.44.25,1.11.67.67Z"/><path class="cls-5" d="M197.72,186.1l2.83,2.65c.44.41,1.11-.25.67-.67l-2.83-2.65c-.44-.41-1.11.25-.67.67Z"/><path class="cls-5" d="M199.42,193.71c.08,1,.61,2.51-.5,3.11-.37.2-1.33,0-1.82.11a.47.47,0,0,0-.33.33c-.63,2.69,3.76,2.84,5.14,1.44.58-.59.91-1.58,1.45-2.23s1.25-1.27,1.82-2a27.8,27.8,0,0,0,2.22-3.17,61.23,61.23,0,0,0,4-8.41c.19-.47-.48-.75-.79-.46L210,183c-.45.41.22,1.08.67.67l.63-.58-.79-.46A47.49,47.49,0,0,1,205.11,193a19.22,19.22,0,0,1-3.33,3.66c-.21.17-.24.56-.46.7-.43.28-4.37.37-1.14.39a.48.48,0,0,0,.47-.47l-.29-3.59c0-.6-1-.61-.94,0Z"/><path class="cls-5" d="M199.55,193a.47.47,0,0,0,0-.94.47.47,0,0,0,0,.94Z"/><path class="cls-5" d="M87.07,189.36a10.23,10.23,0,0,1,2.66,5.28,6.7,6.7,0,0,1,.2,2q-.9,3.48-2-1.12c.34-.3,0-.76-.33-.81-1.2-.14-3.47-.34-4.49-1.14s-1.74-2.53-2.45-3.73a12.69,12.69,0,0,0-2.4-3.29,14.85,14.85,0,0,0-1.54-1.16c-1.83-1.35-2.64-1.55-3.06-4-.31-1.85.26-3.51-.32-5.27l-.86.36.6,1.07c.3.53,1.11.06.81-.48l-.6-1.07a.47.47,0,0,0-.86.36c.83,2.5-1.18,4.51.25,6.91s4.35,3.08,6,5.17c1.31,1.68,1.58,4,3.22,5.43s3.76,1.59,5.73,1.82l-.33-.81c-2.41,2.16.7,4,2.72,4.33a.48.48,0,0,0,.58-.33,11.39,11.39,0,0,0-2.84-10.18c-.41-.45-1.07.22-.67.67Z"/><path class="cls-5" d="M68.63,171.35c-.39-.27-1.13-.72-1.09-1.27s.5-.6.89-.57a4.75,4.75,0,0,1,.69.14c.93.23,2.38.74,2.06,2a.47.47,0,0,0,.91.25c.56-2.17-2.09-3.3-3.85-3.33a1.49,1.49,0,0,0-1.63,1.31c-.1,1.07.76,1.77,1.55,2.31.5.34,1-.47.48-.81Z"/><path class="cls-5" d="M72.41,173.44q.69-2.26,2.47-1.51l1.28.37,1.44.43.9,2c0,.9-.8,1.54-.48,2.59.48,1.61,2.15,2.35,3.57,2.78l-.33-.58,0,.12.69-.28-.07,0c-.54-.27-1,.54-.48.81l.07,0a.48.48,0,0,0,.69-.28l0-.12a.48.48,0,0,0-.33-.58,4.48,4.48,0,0,1-2.4-1.29c-1.37-1.71.17-2.39.3-3.89.15-1.79-1.57-2.12-3-2.53s-3.39-1.25-4.71-.16a1.92,1.92,0,0,0-.31,2.77c.37.48,1-.19.67-.67Z"/><path class="cls-5" d="M66.28,174.34a2.24,2.24,0,0,0,1.16,2.47c1,.65,2.45.65,3.11,1.71.32.52,1.14,0,.81-.48a3.48,3.48,0,0,0-1.83-1.37c-.86-.34-2.71-.8-2.35-2.09a.47.47,0,0,0-.91-.25Z"/><path class="cls-5" d="M111.71,184.3c4.58-1.49,7.55-5.37,10.6-8.87a.47.47,0,0,0-.67-.67,2.34,2.34,0,0,0-.87,1.27c-.19.58.72.83.91.25l.63-.86-.67-.67c-2.91,3.35-5.79,7.2-10.18,8.63-.58.19-.33,1.1.25.91Z"/><path class="cls-5" d="M111.1,185.61c1.58,2.81,5,1.67,7.37.64A12.07,12.07,0,0,0,125,180.2c.15-.33-.1-.86-.53-.69l-1.49.57c-.56.21-.32,1.13.25.91l1.49-.57-.53-.69a10.2,10.2,0,0,1-4.11,4.63c-1.79,1.11-6.59,3.6-8.18.78a.47.47,0,0,0-.81.48Z"/><path class="cls-5" d="M110.8,189a5.22,5.22,0,0,0-1.89,2.22.48.48,0,0,0,.17.65c8.39,4.15,17.83-3.11,20.76-10.82.19-.49-.47-.72-.79-.46l-1.16,1c-.47.39.2,1.05.67.67l1.16-1-.79-.46a17.63,17.63,0,0,1-7,8.72,16.53,16.53,0,0,1-4.74,2.1,14,14,0,0,1-3.32.48q-3.11.8-2.63-2.28c.49-.35,0-1.17-.48-.81Z"/><path class="cls-5" d="M117.75,194.18c1.42,1.25,3.11,2.51,5.06,1.64s3.51-2.93,4.7-4.61c.25-.34-.16-.8-.53-.69l-1,.28a.47.47,0,0,0,.25.91l1-.28-.53-.69a18,18,0,0,1-2.81,3.14c-1,.83-1.52,1.32-2.8,1.12a4.91,4.91,0,0,1-2.68-1.47c-.45-.4-1.12.27-.67.67Z"/><path class="cls-5" d="M133.17,181.69c-.46.42-4,5.57-1.36,4.55l-.46-.79c-2,1.74-2.65,3-1,5,1.53,1.74,3.94,3.88,5.94,1.58.28-.32,0-1-.46-.79a11.12,11.12,0,0,0-2.24,1,.47.47,0,0,0-.17.65,20.08,20.08,0,0,1,2.41,3.18c.58,1.36.37,4.91-1.2,5.4a.48.48,0,0,0,0,.91c2.5.74,6.65,1.68,7.15-1.51.25-1.61-2.25-.94-.49-3.38.17-.24,1-.05,1.26-.31,1.06-.88,2.17-1.1,2.29-2.71.11-1.45-1.16-2.93-1.42-4.39-.13-.76-.37-.44-.41-.72s.46-.72.57-1.07-.16-.86-.18-1.23c-.11-1.64-.79-3.06-.81-4.78a.47.47,0,0,0-.94,0c0,1.75-.71,5.91.41,7.43-.35-.49-1.17,0-.81.48l.12.16a.5.5,0,0,0,.53.22l.23,0a.46.46,0,0,0,.33-.33c.66-2.34.14-5.51.14-7.92h-.94c0,1.13.87,6.25,0,7.16a.48.48,0,0,0,.21.79l.79,1.85a.48.48,0,0,0,.17.65l-2.56,3.91a.48.48,0,0,0-.47.47,11.74,11.74,0,0,0,.41,2.59c.25,1.56.37,1.8-1.06,2.27-1.25.41-3-.14-4.24-.49v.91c1.6-.5,1.78-1.53,2.06-3.06a7.35,7.35,0,0,0,.26-2.69c-.3-1.25-3.68-3.52-1.12-4.5l-.46-.79c-.79.91-4.13-.59-4.61-1.58a3.13,3.13,0,0,1,1-3.62c.35-.3,0-1-.46-.79.54-.21,1.71-2.46,2.27-3s-.22-1.07-.67-.67Z"/><path class="cls-5" d="M146.13,182.86a.47.47,0,0,0,0-.94.47.47,0,0,0,0,.94Z"/><path class="cls-5" d="M145.12,185.22l.11,5.6a.47.47,0,0,0,.94,0l.45-10.1a.48.48,0,0,0-.35-.45,10,10,0,0,0-6.47,0l.36.86a6.09,6.09,0,0,1,2.89-.67.47.47,0,0,0,0-.94c-2.2,0-4.87-.41-7,0-1.21.23-2.06,1.39-3.23,1.49a.47.47,0,0,0-.13.93l.91.32c.57.2.82-.71.25-.91l-.91-.32-.13.93c1.11-.1,1.86-.79,2.92-1.15,2.21-.75,5-.35,7.36-.35v-.94a9,9,0,0,0-3.36.8c-.49.22-.14,1,.36.86,1.09-.35,4-1.14,5.11-.24.78.65.42,2,.38,2.86l-.32,7.07h.94l-.11-5.6a.47.47,0,0,0-.94,0Z"/><path class="cls-5" d="M149.41,181.34c3.9,1.23,7.87,2.64,4.4,7.16-.21.27,0,.59.28.69.6.25,1.62.51,1.82,1.24.3,1.07-1.87,3.81-2.35,4.41a.48.48,0,0,0,.21.79c1.11.42-1.57,2.51-1.64,2.6a23,23,0,0,0-1.67,3c-.86,1.34.08.95-1.22,1.34-.49.15-2.84-.6-3.62-.61l.33.81c1.18-1.43,3.85-2.53,3.8-4.76s-3.42-4.69-2.14-7.33c.27-.54-.55-1-.81-.48-.83,1.71-1,2.55-.1,4.14a13.94,13.94,0,0,1,1.17,1.74c1.11,2.78-1.1,4.21-2.58,6a.48.48,0,0,0,.33.81,7.25,7.25,0,0,1,4.32,1.07.48.48,0,0,0,.69-.28,12.73,12.73,0,0,1,2.36-4.86c.51-.59,1.7-1.31,2-2.06s-.22-1-.16-1.63c.09-.94,2.53-3.46,2.13-5.19-.2-.84-.94-.71-1.1-1.26-.33-1.16.78-1.48.77-2.54,0-4.16-3.72-4.68-6.94-5.7-.58-.18-.83.73-.25.91Z"/><path class="cls-5" d="M149.37,190.92a10.08,10.08,0,0,0,1.2-2.4.48.48,0,0,0-.33-.58,1.2,1.2,0,0,0-1.18.31.47.47,0,0,0,.1.74,9.09,9.09,0,0,0,3.22.76c.61,0,.61-.91,0-.94a7.8,7.8,0,0,1-2.74-.63l.1.74.27-.07-.33-.58a9.15,9.15,0,0,1-1.1,2.17c-.34.5.47,1,.81.48Z"/><path class="cls-5" d="M146.7,186.07a.47.47,0,0,0,0-.94.47.47,0,0,0,0,.94Z"/><path class="cls-5" d="M136.64,187.53a3.87,3.87,0,0,1,1.33,1.71l.45-.6-1.15,0c-.61,0-.61,1,0,.94l1.15,0a.48.48,0,0,0,.45-.6,5,5,0,0,0-1.76-2.28c-.49-.36-1,.46-.48.81Z"/><path class="cls-5" d="M138.29,189.29a2.22,2.22,0,0,1,1.39-3,.47.47,0,0,0-.25-.91,3.17,3.17,0,0,0-2,4.35c.25.55,1.07.07.81-.48Z"/><path class="cls-5" d="M136.89,185.12a.47.47,0,0,0,0-.94.47.47,0,0,0,0,.94Z"/><path class="cls-5" d="M120.65,199.34a7.57,7.57,0,0,0,6.52.27c2.79-1.2,3.3-3.73,5.26-5.77a.47.47,0,0,0-.57-.74l-.49.22c-.55.25-.07,1.06.48.81l.49-.22-.57-.74c-1.4,1.45-2,3.5-3.6,4.74a6.59,6.59,0,0,1-7,.61c-.54-.28-1,.54-.48.81Z"/><path class="cls-5" d="M128.82,200l5.08-2.68c.54-.28.06-1.1-.48-.81l-5.08,2.68c-.54.28-.06,1.1.48.81Z"/><path class="cls-5" d="M127.39,201.71a19.41,19.41,0,0,0,6.54-2.68c.51-.33,0-1.14-.48-.81a18.66,18.66,0,0,1-6.31,2.58c-.59.12-.34,1,.25.91Z"/><path class="cls-5" d="M133.3,204a.47.47,0,0,0,0-.94.47.47,0,0,0,0,.94Z"/><path class="cls-5" d="M153.94,203.41l2.4,1a.48.48,0,0,0,.53-.69,6,6,0,0,0-3-2.22c-.58-.19-.83.72-.25.91a4.93,4.93,0,0,1,2.47,1.78l.53-.69-2.4-1c-.56-.23-.81.68-.25.91Z"/><path class="cls-5" d="M168.3,176.63a27.7,27.7,0,0,0,5.45,3.41c.66.31,1.38.6,2.06.85s1.39.47,2.09.67q1.2,2.32-.74,2.1c-2.71,1.43-7.19-2.05-9-3.64-1.12-1-2.39-2.94-3.85-3.36a.48.48,0,0,0-.58.58l.05.13a.48.48,0,0,0,.69.28l.08,0c.54-.28.06-1.09-.48-.81l.56.19-.58.58c1.58.46,3.41,3.17,4.73,4.19a15,15,0,0,0,3.44,2.1c2.13.88,6.08,1.59,8-.23.86-.81.91-1.2.12-2s-3.13-1.18-4.29-1.61a25.93,25.93,0,0,1-7.1-4c-.47-.37-1.15.29-.67.67Z"/><path class="cls-5" d="M177.19,186.1c.58,1.74,1,2.42-1.15,2.88-1.32.28-3.12-.36-4.43-.72a18.63,18.63,0,0,1-8.18-4.37,4,4,0,0,1-1.58-2.82,7.2,7.2,0,0,1-.44-2c-.07-.07,0-.27-.14-.33-.51-.29-.61-.39-1.15-.09a.47.47,0,0,0,.48.81c-1.43.81,2,5,2.55,5.45a20,20,0,0,0,7.64,4.11c1.72.52,5.06,1.52,6.84.8,1.95-.79,1-2.35.45-4-.19-.57-1.1-.33-.91.25Z"/><path class="cls-5" d="M172.49,190.63c-3.19,1.8-7.09-1-9.59-2.94a13.73,13.73,0,0,1-5-7,.47.47,0,0,0-.91.25,15.43,15.43,0,0,0,6.48,8.33c2.74,1.88,6.24,4,9.48,2.15a.47.47,0,0,0-.48-.81Z"/><path class="cls-5" d="M167.28,194.31c-2.06,4.91-6.7,1.26-8.27-1.71-.4-.75-3.76-6.06-3.32-6.57s-.27-1.13-.67-.67c-1,1.18-.24,2.05.55,3.12,1.64,2.22,2.42,5,4.27,7.09,2.57,2.84,6.77,2.74,8.34-1,.23-.56-.68-.8-.91-.25Z"/><path class="cls-5" d="M157.33,198.56a32.21,32.21,0,0,0,4.26,3.58c.78.54,1.91,1.31,2.63.29.35-.5-.47-1-.81-.48s-4.9-3.57-5.4-4.06a.47.47,0,0,0-.67.67Z"/><path class="cls-5" d="M161.94,190.91c3.86,2.45,7.75,6.8,12.76,4.88a.47.47,0,0,0-.13-.93l-1.26-.17c-.6-.08-.59.86,0,.94l1.26.17-.13-.93c-4.72,1.81-8.43-2.5-12-4.79-.51-.33-1,.49-.48.81Z"/><path class="cls-5" d="M151.8,211a.47.47,0,0,0,0-.94.47.47,0,0,0,0,.94Z"/><path class="cls-5" d="M105.4,188.64l-9.1,3.18a.48.48,0,0,0-.21.79c5.69,5.82,12.22,3.37,19.05,1.22a.48.48,0,0,0,.11-.86,1,1,0,0,0-1-.27c-.6.06-.6,1,0,.94l.53.14.11-.86c-4.48,1.41-9.31,3.65-14,1.85a7,7,0,0,1-2.64-1.47c-1.11-1.22-.43-.91.86-1.48,2.08-.91,4.35-1.52,6.5-2.27.57-.2.32-1.11-.25-.91Z"/><path class="cls-5" d="M100.23,196.9a10.76,10.76,0,0,0-3.48,2.23.48.48,0,0,0-.12.46c1.15,3.72,8.82,2.77,11.66,2.43a41.42,41.42,0,0,0,10.11-2.52c1-.39,2.69-.68,3.1-1.81a.48.48,0,0,0-.33-.58l-.22-.07a.48.48,0,0,0-.58.33l0,.16c-.18.58.73.83.91.25s-3,.78-3.08.8c-1,.4-2,.75-3.09,1.06a41.18,41.18,0,0,1-5.73,1.29,30.51,30.51,0,0,1-6.29.38c-1.55-.09-3.5.07-3.92-1.61-.38-1.49.24-1.34,1.59-2,.55-.26.07-1.07-.48-.81Z"/><path class="cls-5" d="M104.12,202.92A52.2,52.2,0,0,0,96,204.81c-.7.25-1.62.39-2.06,1.06-1.6,2.39,1.9,4.39,3.76,4.82,4.07.93,8.91-1.34,12.69-2.52A122,122,0,0,0,126,202.33c.46-.22.18-.84-.24-.88l-1.11-.09c-.61-.05-.6.89,0,.94l1.11.09-.24-.88a136.58,136.58,0,0,1-18.63,6.76c-1.46.44-2.92.95-4.41,1.27l-2.36.37q-3.36.43-4.43-4c.56-.63,2.79-.81,3.69-1,1.66-.41,3.32-.74,5-1,.6-.11.34-1-.25-.91Z"/><path class="cls-5" d="M103.17,213c2.36,2.37,5.44,2.41,8.45,1.27,5.55-2.1,10.85-5.69,16.07-8.51.55-.3.07-1.05-.48-.81l-1.13.5c-.55.24-.08,1.06.48.81l1.13-.5-.48-.81L117,210.42c-3.87,2.09-9.21,5.85-13.17,1.87a.47.47,0,0,0-.67.67Z"/><path class="cls-5" d="M106.53,217.71c-.91,1-4.14,3.44-2.7,5.17,1.63,2,6.71.45,8.61-.13,8.88-2.71,17.24-8.18,24.48-13.87a.47.47,0,0,0,.07-.57c-.4-.65-.41-.66-1.19-.69-.61,0-.61.92,0,.94-.7,0-3.43,2.58-4.17,3.1q-1.61,1.12-3.27,2.17-3.59,2.28-7.38,4.22a57.36,57.36,0,0,1-8.19,3.61c-1.33.43-3.4,1.23-4.83,1q-2.36.61-2.38-2.47l1.61-1.83c.4-.45-.27-1.12-.67-.67Z"/><path class="cls-5" d="M116.36,224.38a3.39,3.39,0,0,0,2.42,4.06c3,.95,6.84-1.71,9.12-3.22,5.91-3.91,12.79-9.57,14.42-16.78.13-.59-.78-.84-.91-.25-1.13,5-4.61,8.31-8.26,11.64a47.48,47.48,0,0,1-5.73,4.57,31.43,31.43,0,0,1-3.2,1.88l-2.08.93q-3.39,1.65-4.88-2.58c.11-.59-.8-.85-.91-.25Z"/><path class="cls-5" d="M129,228.25c10.63,1.44,20.53-10.79,19.86-20.78,0-.6-1-.61-.94,0,.62,9.23-8.63,21.24-18.67,19.87-.59-.08-.85.83-.25.91Z"/><path class="cls-5" d="M148.22,220.53c3.54,5.78,8.69,11.34,16.12,9.73a.48.48,0,0,0,.28-.69c-1.48-3.33-4.24-5.78-6.24-8.78a23.81,23.81,0,0,1-3.16-5.48c-.74-2.28-.38-4.84-.53-7.2,0-.5-.82-.68-.93-.13l-.13.7c-.11.59.8.85.91.25l.13-.7-.93-.13c.18,2.89-.21,5.8,1,8.51a35.6,35.6,0,0,0,4.6,7.12c.93,1.18,1.95,2.27,2.83,3.48s1.46,1.37.41,2.13-2.64.18-3.67-.12c-4.58-1.32-7.51-5.32-9.88-9.18-.32-.52-1.13,0-.81.48Z"/><path class="cls-5" d="M156.85,220.39c3.05,3.72,6.94,6.88,11.73,8,2.48.57,8.89,1.28,10.2-1.65a.48.48,0,0,0,0-.48c-2.31-3.05-7.1-4.37-10.27-6.37a36.67,36.67,0,0,1-6.12-4.74c-2.26-2.22-3.08-4.31-1.91-7.21a.47.47,0,0,0-.12-.46l-.27-.31a.46.46,0,0,0-.46-.12l-.33.1c-.58.18-.33,1.09.25.91-2.29.71.13,5.47.81,6.32,2.24,2.82,5.65,5.14,8.72,6.95,1.89,1.12,3.89,2,5.79,3.14,1,.57,2.6,1.45,1.38,2.85-.68.78-4,.57-5,.51-5.64-.33-10.29-3.91-13.74-8.11-.39-.47-1.05.2-.67.67Z"/><path class="cls-5" d="M164.6,212a120.52,120.52,0,0,0,10.52,6.64c1.63.91,3.34,1.68,5,2.61a5.14,5.14,0,0,1,1.53,1l-1.24.54c-1.21,1.29-5.13,2.22-6.5,1-.45-.41-1.11.25-.67.67,1.59,1.47,3.12,1.07,5.06.31,1.35-.52,4.08-1.05,4.57-2.6a.46.46,0,0,0-.12-.46c-2.19-1.9-5.66-3-8.2-4.44-3.24-1.85-6.38-3.88-9.43-6-.5-.35-1,.47-.48.81Z"/><path class="cls-5" d="M162.46,210.6A28.44,28.44,0,0,0,192.16,216a.48.48,0,0,0,.11-.86c-8.39-5.12-18.67-6.09-26.6-12.06-.49-.37-1,.45-.48.81,7.94,6,18.21,6.94,26.6,12.06l.11-.86a27.52,27.52,0,0,1-28.77-5.15c-.45-.41-1.12.26-.67.67Z"/><path class="cls-5" d="M182.75,210.22c1.23-.06,12.23-.66,9.2-4-1.26-1.4-5.61-.64-7.15-.71-5.13-.22-12.23.14-15.51-4.56a.47.47,0,0,0-.86.36l.28,1a.47.47,0,0,0,.91-.25l-.28-1-.86.36C171,205,174.91,205.63,179,206q2.52.24,5.06.37c1.32.06,3.13-.26,4.35.13q2.1-.7,1.85,1.6l-1.25.33c-1.33,1-4.58.75-6.27.82-.6,0-.61,1,0,.94Z"/><path class="cls-5" d="M179.23,201.14c1.65.38,13.73,3.56,13.57.18-.08-1.7-3-2.5-4.25-2.7-1.77-.29-3.66-.17-5.46-.29-2.39-.15-4.77-.68-7.14-.74a.47.47,0,0,0,0-.94.68.68,0,0,0-.68.3.48.48,0,0,0,.1.74c3.18,1.85,7.29,1.53,10.84,1.73.91.05,5.27.1,5.16,1.37s-3.09.91-3.74.85a65.86,65.86,0,0,1-8.13-1.42c-.59-.14-.84.77-.25.91Z"/><path class="cls-5" d="M180.17,193.26l6.13.9c.49.07,1-.06,1,.43s-.49.92-.74,1.19a5.84,5.84,0,0,1-2.65,1.64c-.58.18-.33,1.09.25.91a6.84,6.84,0,0,0,2.91-1.73c.54-.55,1.44-1.55,1.33-2.39-.14-1.07-1.67-.92-2.47-1l-5.57-.82c-.59-.09-.85.82-.25.91Z"/></g><path class="cls-6" d="M5,53.47V167.34H81.83s6.31-.81,6.13-7.46-2.74-16.78,6.49-19.56c.67-3.42,0-4.26,0-4.26H86.54s-7.42,5.08-9.09,0-12.2.53-13.33-7.23S53,131.08,49.88,119.15c-1.76.08-9.3-4.12-5.38-9.83-4-1.43-4.93-9-1.37-7.58-7-2.51-3-5.52-3-5.52s-8.33-1-8.67-8.19c1.33-1.81-.67-6.44-.67-6.44s-16.33-4.26-23-16.31a81.71,81.71,0,0,1,.67-8.75Z"/><path class="cls-7" d="M5,53.47V167.34H81.83s6.31-.81,6.13-7.46-2.74-16.78,6.49-19.56c.67-3.42,0-4.26,0-4.26H86.54s-7.42,5.08-9.09,0-12.2.53-13.33-7.23S53,131.08,49.88,119.15c-1.76.08-9.3-4.12-5.38-9.83-4-1.43-4.93-9-1.37-7.58-7-2.51-3-5.52-3-5.52s-8.33-1-8.67-8.19c1.33-1.81-.67-6.44-.67-6.44s-16.33-4.26-23-16.31a81.71,81.71,0,0,1,.67-8.75Z"/><path class="cls-6" d="M5,73v94.32H71.4s5.45-.67,5.3-6.18-2.37-13.9,5.61-16.2c.58-2.84,0-3.53,0-3.53H75.47s-6.41,4.21-7.85,0-10.55.44-11.52-6-9.64,1.89-12.31-8c-1.52.06-8-3.42-4.65-8.14-3.49-1.18-4.26-7.43-1.19-6.28-6-2.08-2.59-4.57-2.59-4.57s-7.2-.87-7.49-6.78c1.15-1.5-.58-5.33-.58-5.33S13.17,92.78,7.41,82.8A64.94,64.94,0,0,1,8,75.55Z"/><path class="cls-8" d="M5,92v75.31H61.09s4.61-.53,4.48-4.93-2-11.1,4.74-12.94c.49-2.26,0-2.82,0-2.82H64.53s-5.42,3.36-6.64,0-8.91.35-9.73-4.78-8.14,1.51-10.4-6.37c-1.28.05-6.79-2.73-3.93-6.5-2.95-.95-3.6-5.93-1-5-5.11-1.66-2.19-3.65-2.19-3.65s-6.08-.69-6.33-5.42c1-1.19-.49-4.26-.49-4.26S11.9,107.81,7,99.84a49.07,49.07,0,0,1,.49-5.79Z"/><path class="cls-6" d="M5,3.83V26s5.78-2.58,10.78,0c-8.33-11.34-11-15.75-5.15-16.75S37.76,29.42,37.76,29.42s4.56-1.65,12.11,10.14c1.24-3,9.23-3,18.24,5,3-2.68,7.67,5.47,17,8.9s14.63,3.76,19.67,12.09a44.36,44.36,0,0,1,5.67,1.7s0-4,3.67-5.18,8.33,1.29,8.33,1.29c1-6.8,3.21-10.11,9-12.74s-.37-13.76-2.52-15.08-4.15-7.32-2.48-11.32c-2.33-3.67-.67-10,4-12.48s14.84-.55,16.86,5.48c7.81,2.33,10.14,4.38,12.48,12.19S157.63,56.38,158,61s2.08,5.61,4.41,3.6,5.63,2.18,5.63,2.18V3.83Z"/><path class="cls-6" d="M14.79,3.83S32.12,17.71,39.12,22.31c3.67-2.07,13,10.9,13,10.9a20.18,20.18,0,0,1,16,2.34c6.33,1,5.78,8.27,14.44,11.05s17,5.18,24.56,12.94c3-4,11.33-.11,11.33-.11s2-6.87,7-10-7.33-14.78-7.33-20,1.67-7.12,1.67-7.12-1-12.07,9.15-16.07c11.19-4,13.85,3,20.85,5.52,7.33-.18,13,8.65,15.67,14.23s-2.67,26.41-1.33,30.66,4,2.9,4,2.9V3.83Z"/><path class="cls-8" d="M27.12,3.83l16.66,14.4S53.45,21.4,56.12,26c9,.92,17.09,1.32,23.67,11.58,9,7.33,23.33,7,27.33,11.83l2.33,3.17s1.42-3,6,0c2-3,7.31-6.77,7.31-6.77-5.67-5.9-11.67-9-12.67-17.6.33-4,3.67-7.63,3.67-7.63s-3-8.13,7.33-16.73h-94"/><path class="cls-5" d="M43.78,3.83s8.67,11.06,15.34,14.4S84,27.2,94.75,35.55s18.37,10.24,18.37,10.24-15.24-5.78-12.29-14,5-11.23,5-11.23-5-13.13,4.67-16.73Z"/></g></g></svg>