<svg xmlns="http://www.w3.org/2000/svg" xmlns:xlink="http://www.w3.org/1999/xlink" viewBox="0 0 221.07 250.07"><defs><style>.cls-1,.cls-7{fill:none;}.cls-2{clip-path:url(#clip-path);}.cls-3{fill:#c6c6c6;}.cls-4,.cls-5,.cls-6{fill:#fff;}.cls-5{opacity:0.4;}.cls-6{opacity:0.7;}.cls-7{stroke:#c0beba;stroke-miterlimit:10;}</style><clipPath id="clip-path"><rect class="cls-1" x="4.04" y="3.83" width="163.08" height="163.08"/></clipPath></defs><title>REGGIO CALABRIA</title><g id="Livello_2" data-name="Livello 2"><g id="Livello_1-2" data-name="Livello 1"><g class="cls-2"><rect class="cls-3" x="4.04" y="3.83" width="163.08" height="163.08"/><path class="cls-4" d="M97.49,80.14l-1.29-.39c0-.1,2.84-9.59.08-13.91l1.14-.73C100.51,70,97.61,79.72,97.49,80.14Z"/><path class="cls-4" d="M87.13,69.4a.75.75,0,0,1-.57-.26,1.25,1.25,0,0,1-.25-.81,2.66,2.66,0,0,0-.13-.73c-.52-1.45.79-2.25,3-3.58l.07,0c2.38-1.46,6.7-1.68,8.15.16.6.76.49,1.3.29,1.61-.53.85-2.18.68-3.47.4h0a12.32,12.32,0,0,0-3,0,3.35,3.35,0,0,0-2.49,1.93,3.42,3.42,0,0,1-.9,1.06A1.36,1.36,0,0,1,87.13,69.4Zm.54-1Zm1.21-2.65c-1,.65-1.54,1.06-1.43,1.37a3.16,3.16,0,0,1,.09.31l.07-.11A7.44,7.44,0,0,1,88.88,65.77Zm4.83-1.61a7.76,7.76,0,0,0-3.66.88,3.85,3.85,0,0,1,1.08-.24,12.46,12.46,0,0,1,3.36,0,6.81,6.81,0,0,0,1.84.18l0,0A3.44,3.44,0,0,0,93.71,64.16Z"/><path class="cls-4" d="M92.62,93.4l-1.34-.2c.11-.74-1.45-4.89-2.89-7.35-1.35-2.3-.54-7.76-.28-9.56l0-.35c.34-2.51-.06-2.89-.08-2.9-1.17-.33-1.79-2.52-2-3.45l1.32-.3a5.16,5.16,0,0,0,1.07,2.46c1.36.39,1.26,2.54,1,4.37l-.05.36c-.83,5.61-.4,7.82.11,8.68C90.76,87.21,92.83,92,92.62,93.4Z"/><path class="cls-4" d="M91.8,75.53a9.28,9.28,0,0,1-2.63-.39l.38-1.3a7.38,7.38,0,0,0,6.84-1.33c-2-1.26-4.79-2.39-6.81.3L88.49,72c2.09-2.79,5.12-2.91,9-.38l.17.11H99l-1,1.12A8.68,8.68,0,0,1,91.8,75.53Z"/><path class="cls-4" d="M92.25,75.52A2.77,2.77,0,1,1,95,72.75,2.77,2.77,0,0,1,92.25,75.52Zm0-4.19a1.42,1.42,0,1,0,1.42,1.42A1.42,1.42,0,0,0,92.25,71.33Z"/><path class="cls-4" d="M112.05,71.31a2.77,2.77,0,1,1,2.77-2.77A2.77,2.77,0,0,1,112.05,71.31Zm0-4.19a1.42,1.42,0,1,0,1.42,1.42A1.42,1.42,0,0,0,112.05,67.12Z"/><path class="cls-4" d="M104.13,64.62a1.79,1.79,0,0,1-1.41-.5,1.3,1.3,0,0,1-.12-1.48h0c1-2.23,4.67-2.72,6.84-3s7.62-.11,11.07,2.12L124,64l-4-1c-6.57-1.7-9.43-.47-11.72.51-.55.24-1.07.46-1.61.63A8.59,8.59,0,0,1,104.13,64.62Zm-.32-1.38a5.24,5.24,0,0,0,2.42-.4c.48-.15,1-.36,1.49-.59a15.71,15.71,0,0,1,4.49-1.34,15.39,15.39,0,0,0-2.6.07c-1.77.24-5.07.68-5.79,2.24h0Z"/><path class="cls-4" d="M113.25,71.64A49,49,0,0,1,105,70.58l-.8-.17.31-.75c.07-.17,1.79-4.15,8.07-4.23s8.13,3.57,8.21,3.72l.44.9-1,.07a13.77,13.77,0,0,0-4.44,1.14A6,6,0,0,1,113.25,71.64Zm-7.07-2.2c3.2.61,7.81,1.2,9,.61a13.14,13.14,0,0,1,3.78-1.14c-.87-.9-2.75-2.2-6.35-2.14C108.77,66.83,106.94,68.46,106.18,69.44Z"/><path class="cls-4" d="M99.34,88.07a3.33,3.33,0,0,1-1.87-.57,2.37,2.37,0,0,1-3-.37c-1.28-1.28-.47-3.15.21-4l1.08.82-.54-.41.54.41s-1.11,1.5-.33,2.27a1.15,1.15,0,0,0,1.62,0l.5-.44.45.5a2.07,2.07,0,0,0,2.23.35,7.06,7.06,0,0,0,1.28-.66,4.81,4.81,0,0,1,5-.48c.67.26.77,0,.83-.07a4.08,4.08,0,0,0-.77-3.32l.3-1.31c1,.2,1.57,1.85,1.71,2.35s.6,2.5-.42,3.42a1.92,1.92,0,0,1-2.13.19,3.48,3.48,0,0,0-3.78.38,8.22,8.22,0,0,1-1.52.77A4,4,0,0,1,99.34,88.07Z"/><path class="cls-4" d="M116,107.08l-1.17-.68c2.08-3.58,1.89-4.65,1.21-6.93a3.93,3.93,0,0,1,.32-3.64,4,4,0,0,0,.42-.91A5,5,0,0,0,115,89a16.89,16.89,0,0,0-6.68-3.15l.25-1.33a18,18,0,0,1,7.29,3.44A6.33,6.33,0,0,1,118,95.3a5.25,5.25,0,0,1-.54,1.2,2.65,2.65,0,0,0-.2,2.59C118.09,101.76,118.19,103.23,116,107.08Z"/><path class="cls-4" d="M114.22,100.26c-.88-1.29-.62-3,.24-6.07.68-2.42-.62-3.44-.63-3.45l.82-1.08c.08.06,2,1.59,1.12,4.89-.73,2.62-1,4.1-.42,4.95Z"/><path class="cls-4" d="M95.15,106.16l-1.35-.06a4.06,4.06,0,0,0-.44-2.2c-.2-.5-.46-1.18-.8-2.2-.47-1.42-2.69-8.73.06-13.33l.05-.08c1.34-1.66,4.78-2,5.16-2l.11,1.35c-.88.07-3.34.48-4.2,1.48-1.87,3.17-1.12,8.53.09,12.16.33,1,.59,1.65.78,2.13A5.32,5.32,0,0,1,95.15,106.16Z"/><path class="cls-4" d="M94.43,95.51c-1-1.06-.38-4.09-.17-5l1.31.31c-.39,1.64-.47,3.43-.17,3.75Z"/><path class="cls-4" d="M96.62,93.72l-1.06-.83c.39-.49.39-2.28.26-3.33l1.34-.16C97.22,89.92,97.49,92.61,96.62,93.72Z"/><path class="cls-4" d="M96.41,106.27,95.09,106c.68-3.29-1.73-8.25-1.76-8.3l1.21-.6C94.65,97.32,97.19,102.52,96.41,106.27Z"/><path class="cls-4" d="M96.56,100.22H95.21c0-1.29-.26-3.57-.26-3.59l1.34-.15C96.3,96.57,96.56,98.85,96.56,100.22Z"/><path class="cls-4" d="M97.83,104.19l-1.32-.28a20.09,20.09,0,0,0-.34-7c-.12-.7-.22-1.31-.26-1.77a1.67,1.67,0,0,1,.36-1.29,2.5,2.5,0,0,1,1.88-.62,2.58,2.58,0,0,0,.9-.14,3.07,3.07,0,0,0,.9-2.11A2,2,0,0,0,99,89.16L99.76,88A3.36,3.36,0,0,1,101.28,91a4.23,4.23,0,0,1-1.55,3.23,3.18,3.18,0,0,1-1.54.33,2.21,2.21,0,0,0-.93.16.49.49,0,0,0,0,.29c0,.4.13,1,.25,1.65A21.45,21.45,0,0,1,97.83,104.19Z"/><path class="cls-4" d="M113.09,104.66l-1.34-.14c.18-1.76-.56-4.25-1.91-8s-1.44-4-5.44-3.72a3.3,3.3,0,0,1-3.06-1.14c-1.2-1.63-.28-4.25-.17-4.54l1.27.47-.63-.24.63.24c-.23.61-.67,2.38,0,3.27a2.08,2.08,0,0,0,1.89.59c4.81-.29,5.37.72,6.79,4.61S113.3,102.62,113.09,104.66Z"/><path class="cls-4" d="M113.46,102.21c-.08-.09-1.86-2.14-1.69-7.19.15-4.31-1-5.42-1-5.43l.85-1c.17.14,1.66,1.5,1.49,6.53-.15,4.45,1.33,6.23,1.35,6.25Z"/><path class="cls-4" d="M105,90.69c-.89-.89-.35-2.9-.17-3.5l1.29.4a3.51,3.51,0,0,0-.17,2.14Z"/><path class="cls-4" d="M108,91.22a3.57,3.57,0,0,1-1.14-4.57l1.2.63a2.22,2.22,0,0,0,.74,2.86Z"/><path class="cls-4" d="M99.57,95.4a2.45,2.45,0,0,1-1.21-.28A1.72,1.72,0,0,1,97.49,94l1.33-.25-.66.12.66-.15a.42.42,0,0,0,.23.23c.19.09.77.25,2.12-.27l.92-.36c2.47-1,4.1-1.62,5.52-.56l-.81,1.08c-.78-.59-1.86-.2-4.21.73l-.93.37A5.89,5.89,0,0,1,99.57,95.4Z"/><path class="cls-4" d="M100,99.79a4.19,4.19,0,0,1-3.84-2.73l1.27-.46-.63.23.63-.24a2.84,2.84,0,0,0,3,1.81,5.23,5.23,0,0,0,2.44-1,3.17,3.17,0,0,1,2.59-.69c1.25.22,3.33-1.53,4-2.16l1,1c-.3.3-3,2.93-5.16,2.54a1.87,1.87,0,0,0-1.61.49,6.62,6.62,0,0,1-3,1.2A4.62,4.62,0,0,1,100,99.79Z"/><path class="cls-4" d="M89.75,94.48a1.12,1.12,0,0,1-.85-.36c-.55-.59-.44-1.67-.31-2.92a10.72,10.72,0,0,0,.09-1.68,1.77,1.77,0,0,0-.62-1.11,5.38,5.38,0,0,1-1.51-3.15,16.2,16.2,0,0,1,0-3.56c.11-1.42.22-2.76-.31-3.34a5.48,5.48,0,0,1-1.42-5l1.28.43a4.13,4.13,0,0,0,1.14,3.7c.91,1,.79,2.63.65,4.35a14.94,14.94,0,0,0,0,3.26,4,4,0,0,0,1.18,2.44,3.06,3.06,0,0,1,1,1.9,11.56,11.56,0,0,1-.09,1.92,8.35,8.35,0,0,0-.07,1.77c.46-.13,1-.91,1.25-1.44l1.23.56c-.1.23-1,2.21-2.56,2.25Z"/><path class="cls-4" d="M88.86,76.12a6.36,6.36,0,0,1-5.3-4.28c-1.26-3.4,0-5.21.43-5.74l.66-2.24c0-.71.22-4.56,3.24-6.28A12.46,12.46,0,0,0,91.4,55l1.1.79c-.09.12-.94,1.25-3.94,3C86,60.21,86,63.9,86,63.94V64l-.82,2.78-.15.13s-1.36,1.32-.21,4.41a5.06,5.06,0,0,0,4.12,3.4Z"/><path class="cls-4" d="M90.92,59.43a.78.78,0,0,1-.75-.36c-.29-.46,0-.88.27-1.25a5.53,5.53,0,0,0,1.14-2.94l1.35.11A6.59,6.59,0,0,1,92,57.93l.14,0c2.68-.49,2.69-4.15,2.69-4.3h1.35c0,1.71-.76,5.08-3.79,5.64A9.29,9.29,0,0,1,90.92,59.43Z"/><path class="cls-4" d="M87.56,66.75l-1.2-.63.6.31-.6-.31A12.75,12.75,0,0,0,87.14,61c0-1.55,3.08-2.6,4.41-3l.37,1.3c-1.65.47-3.32,1.3-3.43,1.7C88.49,64.93,87.6,66.68,87.56,66.75Z"/><path class="cls-4" d="M103.18,56.31a4.07,4.07,0,0,1-2.18-.61c-2.09-1.29-2.6-4.16-2.62-4.28l-.13-.79h3.23V52H99.92a4.79,4.79,0,0,0,1.79,2.58,3.18,3.18,0,0,0,2.71.2c2.75-.84,3.42-1.66,3.58-2a.45.45,0,0,0,.06-.18s0,0,0,.07l1.28-.44a1.51,1.51,0,0,1-.15,1.17c-.53,1-2,1.93-4.39,2.65A5.65,5.65,0,0,1,103.18,56.31Z"/><path class="cls-4" d="M112.16,56.54A6.37,6.37,0,0,1,109.7,56c-2.92-1.21-3.3-1.37-3.06-2.08,0-.15.27-.61,1-.42l-.34,1.3a.66.66,0,0,0,.4-1.17,23.07,23.07,0,0,0,2.5,1.11A5.47,5.47,0,0,0,116,53.53l1,.94A7.25,7.25,0,0,1,112.16,56.54Z"/><path class="cls-4" d="M128.77,70.85c-.44,0-1.36-.24-3.66-1.55-2.71-1.54-1.89-3.94-1.23-5.86a7.5,7.5,0,0,0,.56-2.37c0-1.54-.62-3-4.57-3s-5.49-1.95-5.56-2l1-.86-.52.43.52-.44c.05.06,1.36,1.54,4.52,1.54,1.43,0,5.8,0,5.92,4.29a8.51,8.51,0,0,1-.63,2.85c-.71,2.09-1,3.31.62,4.25,2.37,1.35,3,1.36,3,1.36h0a.57.57,0,0,0-.44.36l1.24.53a.76.76,0,0,1-.46.41A.93.93,0,0,1,128.77,70.85Z"/><path class="cls-4" d="M127.77,68.28l-.7-1.16c.57-.35.62-.52.62-.53a2.37,2.37,0,0,0-.42-.65,3.91,3.91,0,0,1-.84-4.09c1-2.88-.72-4-.79-4.07l.71-1.15c1,.58,2.46,2.51,1.36,5.66a2.62,2.62,0,0,0,.64,2.82,2.18,2.18,0,0,1,.67,1.72A2.4,2.4,0,0,1,127.77,68.28Z"/><path class="cls-4" d="M131.75,77.93a4.06,4.06,0,0,1-2.82-1.26c-1.41-1.37-2.21-3.71-1.12-5.26,1.44-2,2.45-3.9,1.23-7.72a5.15,5.15,0,0,1,.09-4.05A3.44,3.44,0,0,1,131,58l.37,1.3-.19-.65.19.65a2.06,2.06,0,0,0-1.11,1,3.91,3.91,0,0,0,0,3c1.4,4.4.13,6.73-1.41,8.91-.58.82-.14,2.43,1,3.51a2.4,2.4,0,0,0,3.23.4c1.15-.86,1.73-1.69,1.58-2.28a1.47,1.47,0,0,0-1.28-.87,2,2,0,0,0-1.81.38c0,.08,0,.21.11.38.38.52.59.56.59.56s-.07,0-.16.08l.86,1a1.15,1.15,0,0,1-.87.23,2.37,2.37,0,0,1-1.52-1.11,1.64,1.64,0,0,1-.16-1.87,3.13,3.13,0,0,1,3.17-1A2.77,2.77,0,0,1,136,73.49c.2.82,0,2.13-2.09,3.69A3.59,3.59,0,0,1,131.75,77.93Z"/><path class="cls-4" d="M132.82,69.7l-.87-1c1.1-.93.89-2,.31-4.25-.13-.52-.28-1.1-.41-1.72-.29-1.34-.12-2.28.49-2.82a2.14,2.14,0,0,1,2-.29l-.44,1.28c-.15,0-.52-.11-.68,0s-.25.61-.06,1.52c.13.59.27,1.14.4,1.67C134.13,66.28,134.61,68.18,132.82,69.7Z"/><path class="cls-4" d="M134.42,73l-.61-1.21c2.08-1,1.34-4.66.46-7.69a2.43,2.43,0,0,1,.29-2.33,2.93,2.93,0,0,1,2.37-.82l-.12,1.35.06-.67-.06.67a1.64,1.64,0,0,0-1.2.34,1.3,1.3,0,0,0,0,1.09C136.23,66,137.78,71.35,134.42,73Z"/><path class="cls-4" d="M137.23,83.45a5,5,0,0,1-2.65-2.56,4.12,4.12,0,0,1,.31-3.41c1.79-3.57,2.27-5,1.8-6.67-.58-2.14.37-5.39.41-5.52l1.3.38s-.88,3-.4,4.79c.61,2.25-.11,4.05-1.9,7.63a2.84,2.84,0,0,0-.26,2.31,3.69,3.69,0,0,0,1.89,1.79Z"/><path class="cls-4" d="M130.19,81.6a6.47,6.47,0,0,1,.58-4.67l1.18.65-.59-.32.59.32a5.18,5.18,0,0,0-.49,3.57Z"/><path class="cls-4" d="M137.06,90.15h-.21c-2.36-.08-4-.72-4.73-1.91s-.7-2.42,0-4.1c.42-1.08,1-1.66,1.83-1.74,1.51-.14,2.8,1.76,3,2.14l-1.14.73c-.43-.67-1.29-1.58-1.78-1.52-.23,0-.49.35-.7.89a3.14,3.14,0,0,0-.09,2.86c.52.79,1.78,1.24,3.65,1.3a3,3,0,0,0,2.81-1.33,3.92,3.92,0,0,0,.07-3.72,13.71,13.71,0,0,0-.95-1.42c-1.2-1.65-2.69-3.71-.77-6.54,1.34-2,1.06-3.37.71-5.15a15,15,0,0,1-.35-2.67,4.78,4.78,0,0,1,2.78-4.65l.5,1.25-.25-.63.26.63a3.46,3.46,0,0,0-1.93,3.37,14,14,0,0,0,.33,2.44c.36,1.84.74,3.74-.92,6.17-1.39,2-.45,3.34.74,5a14.92,14.92,0,0,1,1,1.57,5.28,5.28,0,0,1-.11,5.08A4.25,4.25,0,0,1,137.06,90.15Z"/><path class="cls-4" d="M136.6,87a4.55,4.55,0,0,1-.64,0l.2-1.34-.1.67.1-.67a2.61,2.61,0,0,0,1.81-.36,1.08,1.08,0,0,0,.31-.89l1.35,0a2.38,2.38,0,0,1-.76,1.94A3.44,3.44,0,0,1,136.6,87Z"/><path class="cls-4" d="M98.34,131.65a1.78,1.78,0,0,1-.73-.12,3.27,3.27,0,0,1-1.16-.95,8.33,8.33,0,0,0-1.12-1.09,5.9,5.9,0,0,1-2.45-3.4c-2-1.2-2.21-4.68-2.22-6a4.27,4.27,0,0,1-1.32-2.39,5,5,0,0,1,.79-4.28,10.78,10.78,0,0,1-.73-2.54,4.52,4.52,0,0,0-1.21-2.16c-.64-.75-1.36-1.59-.82-2.82.31-.7.23-.78.13-.9a1.64,1.64,0,0,1-.42-.76,2.31,2.31,0,0,1,.19-1.31c.14-.39.22-.63.13-.8l0,0c-.53-1-.6-1.38,0-3.13.26-.79.22-.85.08-1.11a4.71,4.71,0,0,1-.5-1.32A9.78,9.78,0,0,1,86.71,95a5.8,5.8,0,0,0-.57-2.18,2,2,0,0,1,0-1.74c.69-1.33,2.81-1.83,3-1.88l.29,1.32-.14-.66.15.66a3.65,3.65,0,0,0-2.13,1.18.64.64,0,0,0,0,.59,7.13,7.13,0,0,1,.68,2.59,8.54,8.54,0,0,0,.19,1.29,3.36,3.36,0,0,0,.37,1c.34.63.39,1,0,2.18-.45,1.38-.41,1.45-.07,2.07l0,0a2.21,2.21,0,0,1,0,1.91,1.77,1.77,0,0,0-.14.55s0,.06.12.16c.48.54.64,1.1.09,2.34-.18.41,0,.65.61,1.4a5.78,5.78,0,0,1,1.52,2.79,7.07,7.07,0,0,0,.68,2.31l.6.4-.56.58a3.72,3.72,0,0,0-.82,3.4,4.14,4.14,0,0,0,.7,1.58l.72-.24,0,1c-.05,1.2.16,4.78,1.76,5.43l.42.17v.45c0,.81.61,1.66,2,2.78a9.76,9.76,0,0,1,1.28,1.25,2,2,0,0,0,.72.61,5.67,5.67,0,0,0,3.54-1.39,3.2,3.2,0,0,0,1-3.07l1.33-.23a4.56,4.56,0,0,1-1.84,4.62A7.24,7.24,0,0,1,98.34,131.65Zm-6.91-18.71Z"/><path class="cls-4" d="M104.79,131a3,3,0,0,1-1.11-.21l-2.22.21-.13-1.35,2.6-.24.18.1a1.83,1.83,0,0,0,2.28-.73.81.81,0,0,0,.22-.71c-.15-.75-1.31-1.51-1.71-1.71l.63-1.2c.21.11,2.1,1.13,2.41,2.64a2.16,2.16,0,0,1-.5,1.84A3.38,3.38,0,0,1,104.79,131Z"/><path class="cls-4" d="M95.13,126.57a5.16,5.16,0,0,1-1.39-.19l.4-1.29-.2.65.2-.65a3.39,3.39,0,0,0,2.54-.29,2.46,2.46,0,0,0,.87-1.07,4.77,4.77,0,0,1-4-.5l.73-1.14a3.15,3.15,0,0,0,3.81-.29l1.34-1.31-.19,1.87a4.59,4.59,0,0,1-1.85,3.58A4.1,4.1,0,0,1,95.13,126.57Z"/><path class="cls-4" d="M93.62,121.1l-.8-1.09a2.81,2.81,0,0,0,1.06-1.83,3,3,0,0,0-.54-1.4,4.91,4.91,0,0,1-.78-3.83l1.31.34a3.65,3.65,0,0,0,.65,2.84,4,4,0,0,1,.7,2.14A4.15,4.15,0,0,1,93.62,121.1Z"/><path class="cls-4" d="M96.37,122.09a4,4,0,0,1-1-2.73,3.32,3.32,0,0,1,1-2.44c1.11-1.07,1.35-1.77,0-3.34-1.68-1.9-1.31-2.92,0-6.73l.56-1.59,1.28.44-.56,1.6c-1.35,3.8-1.42,4.12-.3,5.39,1.74,2,1.73,3.52,0,5.21a2,2,0,0,0-.6,1.47,2.72,2.72,0,0,0,.61,1.76Z"/><path class="cls-4" d="M91.48,113.86l-1-.88a4.71,4.71,0,0,0,.91-2.77,14.92,14.92,0,0,1,.46-2.46c.54-1.87,0-2.25-.47-2.62l.8-1.09-.4.54.41-.54c.62.46,1.77,1.31,1,4.08a13.61,13.61,0,0,0-.41,2.25A6,6,0,0,1,91.48,113.86Z"/><path class="cls-4" d="M90.43,107.75a6.6,6.6,0,0,0-.61-.69c-1.09-1.1-1.41-1.89,0-4.82a8.07,8.07,0,0,0,.5-6l1.26-.5a9.28,9.28,0,0,1-.55,7.1c-1.16,2.37-.92,2.62-.27,3.28a8,8,0,0,1,.73.82Z"/><path class="cls-4" d="M100.74,112a11,11,0,0,1,0-4.87c.6-1.73.63-1.93-.66-2.44A1.77,1.77,0,0,1,99,103.47c-.35-1.32.87-2.92,1.12-3.23l1.05.85c-.43.53-1,1.54-.86,2,0,.06,0,.19.33.3,2.54,1,2,2.53,1.44,4.15a9.49,9.49,0,0,0,0,4.14Z"/><path class="cls-4" d="M102.71,117.19a6.12,6.12,0,0,1-2.37-.44,1.73,1.73,0,0,1-1.23-1.8c.15-1.36,1.91-2.55,3.06-2.78a1.29,1.29,0,0,1,.93.09,27.3,27.3,0,0,0,0-3.59l1.35-.08c.1,1.71.2,5.79-1,6.67a1.09,1.09,0,0,1-1,.16,1.31,1.31,0,0,1-.87-.79,1.26,1.26,0,0,1,0-.78c-.58.35-1.08.87-1.12,1.25,0,.05,0,.22.42.42a5,5,0,0,0,4.32-.35,1.53,1.53,0,0,0,.64-1.53,7.31,7.31,0,0,1,4.59-7.53l.42,1.28a6,6,0,0,0-3.67,6.07,2.89,2.89,0,0,1-1.17,2.78A5.58,5.58,0,0,1,102.71,117.19Z"/><path class="cls-4" d="M104,120.08l-1.23-.56a3,3,0,0,0,.11-2.66l1.15-.7A4.31,4.31,0,0,1,104,120.08Z"/><path class="cls-4" d="M103.41,124.78a3,3,0,0,1-2.7-1.29,2.61,2.61,0,0,1,.12-2.77,3,3,0,0,1,2.37-1.61h0a2,2,0,0,1,1.71,1.1,1.28,1.28,0,0,1,.08,1.41c-.48.75-1.74.69-2.11.65l.13-1.34a2.75,2.75,0,0,0,.74,0h0c-.17-.29-.36-.43-.57-.44s-.77.25-1.24,1a1.26,1.26,0,0,0-.11,1.34,1.93,1.93,0,0,0,1.9.62c1-.09,1.31-.86,1.74-2.13.3-.9.61-1.83,1.48-2.12a2.12,2.12,0,0,1,2,.39h0a8.27,8.27,0,0,1,.47-.93,2.68,2.68,0,0,1-1.57-1.44l-1.42-2.59,1.18-.65,1.42,2.59c.16.29.48.79.82.8a1.18,1.18,0,0,0,.74-.41c.23-.3.4-.48.42-.51l1.08.81a4.08,4.08,0,0,1-.49.6,11,11,0,0,0-1.41,2.26,1.46,1.46,0,0,1-.85.92,1.33,1.33,0,0,1-1.15-.31c-.35-.24-.52-.32-.79-.23s-.46.77-.63,1.27c-.41,1.21-1,2.87-2.9,3Zm.43-3.74Z"/><path class="cls-4" d="M96.51,129.54a3.35,3.35,0,0,1-1.81-.61l.72-1.14c1,.62,1.33.47,2.51,0l.83-.35a1.56,1.56,0,0,0,.8-1.92l1.3-.38a2.85,2.85,0,0,1-1.6,3.56l-.79.33A5,5,0,0,1,96.51,129.54Z"/><path class="cls-4" d="M110.2,128.79a4.05,4.05,0,0,1-2.72-.93,5.3,5.3,0,0,1-1.57-3.76h1.35a4,4,0,0,0,1.1,2.73,3.24,3.24,0,0,0,2.74.52c2.51-.42,3.56-1.38,3.7-2.14.11-.6-.32-1.24-1.18-1.76a2.07,2.07,0,0,0-1.66-.32,2.61,2.61,0,0,0-1.36,1.24l-1.22-.58a4,4,0,0,1,2.17-1.95,3.35,3.35,0,0,1,2.75.45,3.1,3.1,0,0,1,1.82,3.17c-.3,1.58-2,2.76-4.81,3.22A6.76,6.76,0,0,1,110.2,128.79Z"/><path class="cls-4" d="M110,131.48a.78.78,0,0,1-.74-.58,1.57,1.57,0,0,1-.06-.69c-.46-.46-1.81-.4-2.17-.35l-.18-1.34a4.77,4.77,0,0,1,2.94.45,5.85,5.85,0,0,1,2.43-1.57l.49,1.26a3.81,3.81,0,0,0-2.06,1.44l0,.07c.22.95-.21,1.22-.48,1.29Zm-.62-.84Z"/><path class="cls-4" d="M119.44,128.16a15.29,15.29,0,0,1-4.64-1.35l.55-1.24c1.32.59,3.51,1.35,4.26,1.22a1.89,1.89,0,0,0,1.33-1.26,1.49,1.49,0,0,0-.73-1.52,1.74,1.74,0,0,0-1.39-.51,1.3,1.3,0,0,0-.69.75l-1.31-.33a2.63,2.63,0,0,1,1.54-1.7A2.81,2.81,0,0,1,121,123a2.74,2.74,0,0,1,1.2,2.91,3.26,3.26,0,0,1-2.4,2.26A2.29,2.29,0,0,1,119.44,128.16Z"/><path class="cls-4" d="M115.74,123.52l-1.35-.08a8.4,8.4,0,0,1,2.92-5.26c1.09-1,1-1.47.8-2.18a3,3,0,0,1,.54-2.88,5.15,5.15,0,0,0,.53-.77l-.06-.11c-.26-.48-.74-1.37-.62-4,0-.87.09-1.65.14-2.35.21-3.25.25-4.61-.76-5.56l.93-1c1.51,1.43,1.4,3.27,1.18,6.63,0,.7-.09,1.47-.13,2.33-.1,2.22.26,2.89.46,3.26.44.81.26,1.23-.6,2.34a1.64,1.64,0,0,0-.3,1.73c.26,1.07.36,2.08-1.2,3.5A7.1,7.1,0,0,0,115.74,123.52Z"/><path class="cls-4" d="M113.29,111a16.75,16.75,0,0,1,0-2.75c.06-1.19-1.22-1.34-1.36-1.36l.12-1.35a2.68,2.68,0,0,1,2.59,2.77,16.33,16.33,0,0,0,0,2.5Z"/><path class="cls-4" d="M114.9,118.81c-1.67-.44-1.18-2.59-.78-4.32a13.1,13.1,0,0,0,.28-1.44,1.48,1.48,0,0,0-.25-1.22,2,2,0,0,0-1.61-.22c-1.31.19-2.08.91-1.88,3.94l-1.35.09c-.15-2.27.06-4.94,3-5.37a3.16,3.16,0,0,1,2.73.58,2.7,2.7,0,0,1,.66,2.33,13.89,13.89,0,0,1-.31,1.6c-.16.71-.6,2.61-.19,2.71Z"/><path class="cls-4" d="M112.74,120.07a4.39,4.39,0,0,1-1.85-4.9,3,3,0,0,1,1.59-1.94,3.47,3.47,0,0,1,2.56,0l-.54,1.24a2.09,2.09,0,0,0-1.48,0,1.73,1.73,0,0,0-.85,1.12,3.11,3.11,0,0,0,1.3,3.36Z"/><path class="cls-4" d="M104.17,107.74l-1.09-.79s1.52-2.14.32-3.14a2.11,2.11,0,0,1-.91-1.92c.12-1,1-1.84,2.66-2.62l.58,1.22c-1.33.64-1.85,1.23-1.9,1.57s.12.44.44.71C106,104.22,105,106.66,104.17,107.74Z"/><path class="cls-4" d="M105.61,108.61a2.3,2.3,0,0,1,1-1.86,2,2,0,0,0,.84-1.38c.27-1.81.34-6.21.34-6.26l1.35,0c0,.18-.07,4.54-.36,6.44a3.34,3.34,0,0,1-1.28,2.19c-.39.35-.53.49-.53.84Z"/><path class="cls-4" d="M120.63,95.43a1.84,1.84,0,0,1-1.32-.52c-1.09-1.06-.76-3.38-.72-3.64l1.33.21a3.57,3.57,0,0,0,.32,2.46c.05.05.19.19.61.11a4.34,4.34,0,0,0,1.39-.51l-1.08-1.12a3.28,3.28,0,0,1,0-4.69l1,.94a1.83,1.83,0,0,0-.49,2,2.39,2.39,0,0,1,.45-.26,1.85,1.85,0,0,1,2.36.58,2,2,0,0,1,.15,1.91,4.67,4.67,0,0,1-3.51,2.47A2.6,2.6,0,0,1,120.63,95.43Zm1.71-3.55.32,1.39a2.28,2.28,0,0,0,.72-.87.64.64,0,0,0,0-.63.42.42,0,0,0-.43-.19A1,1,0,0,0,122.34,91.89Z"/><path class="cls-4" d="M129.35,110.67l-1.25-.51a2.39,2.39,0,0,0,0-2.12c-.57-1.07-2.23-2-4.55-2.43-.3-.06-1.23-.25-1.49-1s.36-1.53.86-2.13l.23-.28c-1.62-.85-2.57-4.35-2.83-5.47l1.32-.31c.49,2.06,1.51,4.46,2.19,4.61a1,1,0,0,1,.83.66c.2.6-.24,1.12-.7,1.67a4.46,4.46,0,0,0-.59.8,1.68,1.68,0,0,0,.45.14c1.95.4,4.48,1.27,5.47,3.12A3.71,3.71,0,0,1,129.35,110.67Z"/><path class="cls-4" d="M126.31,116.85a1.63,1.63,0,0,1-1.24-.45c-.61-.65-.39-1.64-.08-3,.12-.55.26-1.18.36-1.86.41-2.76.37-2.77-1.92-3.14-3.11-.5-4.57-3.93-4.63-4.08l1.25-.52s1.23,2.88,3.6,3.26c3.22.52,3.53,1.41,3,4.67-.11.73-.25,1.38-.38,2a5.44,5.44,0,0,0-.24,1.8,1.53,1.53,0,0,0,.23,0,3,3,0,0,0,.45,0c1.09-.17,3.21-2.56,4.14-5.11.52-1.44.53-2.59,0-3.17a5.06,5.06,0,0,0-4.41-1.57l-.23-1.33a6.44,6.44,0,0,1,5.65,2c.86,1,.94,2.55.22,4.52-.94,2.59-3.31,5.69-5.2,6A4.17,4.17,0,0,1,126.31,116.85Z"/><path class="cls-4" d="M120,123.78c-.15-.29-.46-1.37,1.64-3a1.37,1.37,0,0,0,.53-1c.14-1.2-.79-3-1.72-4.15-1.2-1.5.55-3.2,1.6-4.22l.48-.48-.09,0a4.25,4.25,0,0,1-2-1.52l1.11-.77a3,3,0,0,0,1.44,1c.47.2,1.17.5,1.08,1.3-.05.45-.43.82-1.06,1.43s-1.92,1.86-1.49,2.41c1,1.31,2.2,3.45,2,5.16a2.69,2.69,0,0,1-1,1.88c-1.21.95-1.22,1.45-1.22,1.46a.33.33,0,0,0,0-.12Zm2.74-13.09Z"/><path class="cls-4" d="M127.66,124a1.91,1.91,0,0,1-1.31-.76c-1.05-1.17-3.42-1.31-4.24-1.27l-.07-1.35c.15,0,3.62-.17,5.32,1.71a2.23,2.23,0,0,0,.26.25,6.37,6.37,0,0,0,.32-.57,5.77,5.77,0,0,1,1.5-2,9.23,9.23,0,0,1,3.15-1.25c1.52-.41,3.09-.84,3.69-1.8s.46-3.81-.4-5.79c-.45-1-.91-1.45-1.2-1.51a18.77,18.77,0,0,0-2.73-.39l0-1.35a19.3,19.3,0,0,1,3,.42c.84.17,1.6,1,2.18,2.3.93,2.13,1.31,5.43.31,7-.88,1.42-2.79,1.94-4.48,2.39a8.49,8.49,0,0,0-2.68,1,4.54,4.54,0,0,0-1.13,1.56c-.34.65-.66,1.26-1.33,1.35Z"/><path class="cls-4" d="M135.25,116.71a2.83,2.83,0,0,1-.68-.09,2,2,0,0,1-1.48-1.13,2.67,2.67,0,0,1,.23-2.17l1.17.67-.59-.33.59.33a1.37,1.37,0,0,0-.16,1,.77.77,0,0,0,.56.35c1.25.31,1.75-1.2,1.77-1.27l1.29.41A3.07,3.07,0,0,1,135.25,116.71Z"/><path class="cls-4" d="M133.7,119.75a2,2,0,0,1-1.28-.42c-.89-.72-1-2.17-1.13-4.46-.06-1.31-.36-1.69-.44-1.72l-.27-.62-.31-.6a1.35,1.35,0,0,1,1.26.05c.67.39,1,1.31,1.1,2.82s.15,3.08.63,3.47c.05,0,.21.17.72.09l.21,1.33A3.21,3.21,0,0,1,133.7,119.75Z"/><path class="cls-4" d="M127.3,123.3l-.9-1a2.3,2.3,0,0,0,.07-3.33c-1.33-1.63-1.5-2.31-1.58-2.9a.56.56,0,0,0-.1-.31l1.13-.74a1.86,1.86,0,0,1,.3.88c0,.3.09.75,1.29,2.21A3.63,3.63,0,0,1,127.3,123.3Z"/><path class="cls-4" d="M125.68,105.51l-1.35-.08a5.62,5.62,0,0,1,1.82-3.62c.36-.31.4-.48.4-.52,0-.2-.35-.57-.66-.91a9.67,9.67,0,0,1-.74-.85A5.16,5.16,0,0,1,124,94.83l1.28.43a4.05,4.05,0,0,0,.93,3.45,8.38,8.38,0,0,0,.64.73,2.71,2.71,0,0,1,1,1.9,2.13,2.13,0,0,1-.86,1.48A4.31,4.31,0,0,0,125.68,105.51Z"/><path class="cls-4" d="M128.57,102.08c-.56,0-1.15,0-1.4-.07l.12-1.35a10.36,10.36,0,0,0,1.87,0,.44.44,0,0,0,.07-.32c0-.15-.17-.27-.42-.35-1.54-.51-1.71-1.73-1.87-2.81,0-.18-.05-.36-.09-.55l1.33-.24c0,.2.07.4.09.59.15,1,.24,1.48,1,1.72a1.79,1.79,0,0,1,1.35,1.74,1.57,1.57,0,0,1-1,1.5A4.17,4.17,0,0,1,128.57,102.08Z"/><path class="cls-4" d="M131,106.93h-.13l.05-1.35s2.72.08,3.18-1.7a.83.83,0,0,0-.09-.79,3.12,3.12,0,0,0-2.09-.65h-.67v-.67c0-1.51-.36-4.18-1.17-4.95a.49.49,0,0,0-.38-.16,3.39,3.39,0,0,1-2.84-1.18,5.63,5.63,0,0,1-1-4.57c.34-1.62-.3-2.14-1.83-3.41l.4-.54.43-.52-.43.52.46-.5c1.62,1.34,2.8,2.31,2.29,4.72a4.29,4.29,0,0,0,.67,3.41,2,2,0,0,0,1.75.71,1.85,1.85,0,0,1,1.37.53c1.2,1.13,1.5,4,1.57,5.28a3.73,3.73,0,0,1,2.5,1.13,2.16,2.16,0,0,1,.34,2C134.8,106.79,131.72,106.93,131,106.93Z"/><path class="cls-4" d="M128.17,93.85A2.71,2.71,0,0,1,127,91.46a9.85,9.85,0,0,1,.53-2.5c.45-1.48.91-3,.12-4.21l1.13-.74c1.13,1.73.55,3.64,0,5.34a9,9,0,0,0-.48,2.15,1.36,1.36,0,0,0,.57,1.26Z"/><path class="cls-4" d="M129.28,96.58l-.5-1.26a9,9,0,0,1,.86-.28c.87-.25,1.16-.34,1.38-2.23.08-.66,0-1.11-.34-1.32a2.56,2.56,0,0,0-2.11.09l-.6-1.21a3.78,3.78,0,0,1,3.48,0,2.53,2.53,0,0,1,.9,2.58c-.3,2.6-1.08,3-2.34,3.37C129.78,96.4,129.54,96.47,129.28,96.58Z"/><path class="cls-4" d="M134.44,99a3.15,3.15,0,0,1-2.68-1.56,2.06,2.06,0,0,1-.2-1.9c.56-1.36,2.55-1.91,2.78-2l.34,1.31c-.51.13-1.63.6-1.87,1.18a.73.73,0,0,0,.12.7,1.75,1.75,0,0,0,1.94.83c.95-.29,1.44-1.53,1.31-3.31-.26-3.73-1-4.3-1-4.3a.4.4,0,0,0,.18.05l.15-1.34c.74.08,1.69,1.1,2,5.5.25,3.63-1.67,4.51-2.26,4.7A2.8,2.8,0,0,1,134.44,99Z"/><path class="cls-4" d="M134.51,93.45c-6.65-4.29-4.16-10.05-4.13-10.11l1.23.55-.62-.28.62.27c-.08.19-2,4.78,3.63,8.42Z"/><path class="cls-4" d="M136.93,102.33a4.56,4.56,0,0,1-1.74-4.7l1.33.25a3.23,3.23,0,0,0,1.16,3.32Z"/><path class="cls-4" d="M136.86,110.79h0l0-1.35,0,.68v-.68a.54.54,0,0,0,.25-.06.9.9,0,0,0,0-.2,4.27,4.27,0,0,0-.54-.93c-.7-1-1.88-2.77-.08-4.19l.84,1.06c-.69.55-.52,1.07.36,2.37a4.8,4.8,0,0,1,.73,1.34,1.5,1.5,0,0,1-.22,1.38A1.73,1.73,0,0,1,136.86,110.79Z"/><path class="cls-4" d="M142.56,108.67a8.52,8.52,0,0,1-3.13-.7c-2.15-.87-3.73-3.28-3.43-5.26.11-.75.68-2.53,3.62-2.8,3.81-.35,4.84,1.65,5.06,2.27a2.94,2.94,0,0,1-1.09,3.43,2.45,2.45,0,0,1-2.81.14,2.62,2.62,0,0,1-1.24-2.38l1.33.23a1.4,1.4,0,0,0,.64,1,1.1,1.1,0,0,0,1.31-.11,1.61,1.61,0,0,0,.58-1.85c-.38-1-1.75-1.56-3.67-1.38-1,.09-2.24.45-2.41,1.65-.2,1.37,1,3.19,2.6,3.81,1.05.42,3,1,4.16.18.87-.62,1.26-2,1.15-4-.23-4.29-.66-5-.71-5.09A.55.55,0,0,0,145,98l-.15-1.34a.77.77,0,0,1,.58.19c.26.22.86.73,1.14,6,.14,2.54-.44,4.29-1.71,5.2A3.9,3.9,0,0,1,142.56,108.67Z"/><path class="cls-4" d="M139.43,101.21a2.59,2.59,0,0,1-1.81-1.9c-.27-1.57,1.36-3,1.55-3.21l.89,1-.45-.51.45.51c-.33.29-1.23,1.27-1.11,2,.06.34.39.63,1,.87Z"/><path class="cls-4" d="M137.76,94.93l-.91-1a4.28,4.28,0,0,1,4.37-.75l-.52,1.25A2.92,2.92,0,0,0,137.76,94.93Z"/><path class="cls-4" d="M143.86,98.09c-1.73,0-2.77-.87-3.53-2.79a3.53,3.53,0,0,1,.73-3.79,3.2,3.2,0,0,1,3.52-.66,2.56,2.56,0,0,1,1.92,2.92,2.1,2.1,0,0,1-2.21,1.66,2,2,0,0,1-1.7-.81,1.21,1.21,0,0,1-.06-1.09l1.23.57a.15.15,0,0,0,0-.18s.13.12.65.16a.76.76,0,0,0,.79-.61c.12-.54-.28-1.05-1.08-1.36a1.84,1.84,0,0,0-2.08.35,2.21,2.21,0,0,0-.43,2.34c.67,1.7,1.3,2.41,4.17,1.63a6,6,0,0,0,3.81-3.23,3.87,3.87,0,0,0-.05-3.42,8.89,8.89,0,0,1-1.28-6.08c0-.44.06-.95.08-1.53a8,8,0,0,0-1.91-5.51l1-.94a9.31,9.31,0,0,1,2.29,6.5c0,.6-.05,1.11-.08,1.56a7.66,7.66,0,0,0,1.13,5.38,5.23,5.23,0,0,1,.09,4.58,7.43,7.43,0,0,1-4.7,4A8.74,8.74,0,0,1,143.86,98.09Z"/><path class="cls-4" d="M145.7,92l-.77-1.11.39.55-.39-.55a3.62,3.62,0,0,0,.79-5.2,21.13,21.13,0,0,0-1.78-2.33c-1.7-2-3-3.59-.36-7.09,3.5-4.57,4.51-7.44,3.11-8.77a25.18,25.18,0,0,0-3.9-3l.69-1.16a26.17,26.17,0,0,1,4.13,3.18c2.66,2.52-.42,7.24-3,10.57-2,2.64-1.33,3.44.32,5.4A22.22,22.22,0,0,1,146.86,85,5,5,0,0,1,145.7,92Z"/><path class="cls-4" d="M143.29,91.87l-1.1-.79a4.64,4.64,0,0,0,.61-3.41,7.35,7.35,0,0,0-1.32-2.46A13.69,13.69,0,0,1,139,80.09c-.55-2.44.82-4.08,2-5.53,1-1.18,1.85-2.21,1.7-3.52a2.62,2.62,0,0,0-.9-1.86,3.23,3.23,0,0,0-2.1-.56l-.16-1.34a4.57,4.57,0,0,1,3.1.85,3.92,3.92,0,0,1,1.4,2.77c.21,1.88-.92,3.23-2,4.53s-2.16,2.58-1.76,4.37a12.36,12.36,0,0,0,2.24,4.65,8.42,8.42,0,0,1,1.53,2.94A5.93,5.93,0,0,1,143.29,91.87Z"/><path class="cls-4" d="M146.56,84.64l-1.25-.52c1.86-4.49-.39-7.39-.48-7.51l1.05-.85C146,75.91,148.73,79.38,146.56,84.64Z"/><path class="cls-4" d="M157.2,91.65a12.69,12.69,0,0,1-4.49-1.17c-3.72-1.53-3.66-2.73-3.19-5.31a20.22,20.22,0,0,0,.42-4.86c-.23-6-2.57-7.26-2.59-7.27l.58-1.22c.13.06,3.1,1.55,3.36,8.44a21.68,21.68,0,0,1-.44,5.15c-.41,2.23-.49,2.64,2.37,3.81s4.49,1.22,4.86.83c.2-.21.22-.83-.32-1.95-.23-.48-.43-.89-.62-1.25-1-2.06-1.46-2.91-.07-4.84,1-1.41,1.38-2.59,1.1-3.51s-1.26-1.7-2.88-2.29l.46-1.27c2,.74,3.29,1.81,3.71,3.16s0,2.91-1.29,4.7c-.91,1.26-.82,1.42.19,3.44.19.37.4.79.63,1.28.74,1.56.77,2.73.08,3.46A2.44,2.44,0,0,1,157.2,91.65Z"/><path class="cls-4" d="M156.25,89.35c-3.4-2.47-3.39-3.71-1.83-8.91,1.29-4.3-1.63-5.44-1.76-5.48l.46-1.27s4.26,1.58,2.6,7.14c-1.47,4.91-1.37,5.47,1.33,7.43Z"/><path class="cls-4" d="M160.43,102.24l-1-1a3.64,3.64,0,0,0,1.07-2.46,2.33,2.33,0,0,0-1.25-1.64,15.18,15.18,0,0,1-5.82-6.29l1.24-.55A13.75,13.75,0,0,0,160,96a3.59,3.59,0,0,1,1.88,2.64A5,5,0,0,1,160.43,102.24Z"/><path class="cls-4" d="M147.42,109a1.88,1.88,0,0,1,.18-2.35,8,8,0,0,0,1.11-2.73c.63-2.94-.65-7.48-.66-7.53l1.3-.37c.06.2,1.39,4.91.69,8.18a9.3,9.3,0,0,1-1.28,3.15c-.39.64-.38.65-.22.88Z"/><path class="cls-4" d="M149,113.07a4.59,4.59,0,0,1-1.55-.29c-2.66-1-3.57-3-2.71-6.22l1.3.35c-.48,1.77-.63,3.71,1.86,4.6a2.31,2.31,0,0,0,2.24-.15,3.42,3.42,0,0,0,1.14-2.73,1.56,1.56,0,0,0-1.71-1.7l0-1.35a2.9,2.9,0,0,1,3,3,4.72,4.72,0,0,1-1.68,3.88A3.23,3.23,0,0,1,149,113.07Z"/><path class="cls-4" d="M157.58,113.53l-.2-.1c-1.9-.9-2.54-4.84-2.94-9l0-.36a10.41,10.41,0,0,1,.16-2.63c.21-1.38.31-2.29-.26-3-4-2.79-4.33-4.61-4.35-4.82l1.34-.17h0s.41,1.76,4.82,4.58l1.1.7c3.85,2.43,4.55,2.87,4.16,6.81A10.75,10.75,0,0,1,160,110c-.3.56-.44.85-.4,1.15a2.12,2.12,0,0,1-1.81,2.33ZM156.07,99.6a10.3,10.3,0,0,1-.17,2.09,9.38,9.38,0,0,0-.16,2.29l0,.36c.17,1.69.66,6.69,2,7.75a.71.71,0,0,0,.52-.75,3.08,3.08,0,0,1,.55-2,9.42,9.42,0,0,0,1.21-4c.3-3.1.23-3.15-3.54-5.53Z"/><path class="cls-4" d="M153.59,109.08a3.1,3.1,0,0,1-1.61-.52l.77-1.11-.38.56.38-.56c.18.12.76.41,1.12.22.19-.1.63-.51.67-2.21l1.35,0c0,1.79-.51,2.93-1.4,3.39A1.94,1.94,0,0,1,153.59,109.08Z"/><path class="cls-4" d="M150.12,116.05V114.7a3.44,3.44,0,0,0,3.05-2.14,2,2,0,0,0-1.1-2.63l.6-1.21a3.35,3.35,0,0,1,1.75,4.36A4.83,4.83,0,0,1,150.12,116.05Z"/><path class="cls-4" d="M152.42,119.78l-.7-1.16,1.72-1a.61.61,0,0,0,.33-.45,3.69,3.69,0,0,0-.94-2.18l1-.87c.15.18,1.48,1.82,1.24,3.26a2,2,0,0,1-1,1.38Z"/><path class="cls-4" d="M154.92,118.56a3.83,3.83,0,0,1-.57,0l.21-1.33a2,2,0,0,0,1.4-.26.82.82,0,0,0,.23-.72,6,6,0,0,1,1.35-4l1,.9a4.73,4.73,0,0,0-1,3,2.17,2.17,0,0,1-.69,1.79A2.94,2.94,0,0,1,154.92,118.56Z"/><path class="cls-4" d="M156.33,77.48l-9-6.64-.29-8.3a17.14,17.14,0,0,1-4,2.72l-.37.17-.33-.25C129.06,55,102.14,52.57,101.87,52.54l-1-.09.5-.91c1-1.91,10.31-18.68,13.17-20.31s6.68-.17,15.7,3.45a18.46,18.46,0,0,0-10.26-8.3c-5.22-1.61-8.31,2.76-10.16,5.37l-.5.69a11.6,11.6,0,0,0-1.38,3.69c-.6,2.27-1.21,4.62-3.06,5.62-.85.46-1.92.92-2.72.42-.56,1.52-1.8,5-3.51,10.12l-.1.31-.31.11A28.41,28.41,0,0,0,86.5,61.27l-2.36,3.15,1.18-3.76c0-.14,4.53-14.42,8.39-25.23,3.94-11,18-19.27,18.57-19.61l.16-.09h.18c10.48,0,21.77,2.33,33.3,19.21s10.49,41,10.47,41.29Zm-7.69-7.34,6.42,4.73c0-5.19-.57-25-10.26-39.17-11.1-16.27-21.93-18.59-32-18.62C111.26,18,98.53,25.92,95,35.88c-2.79,7.8-5.9,17.42-7.42,22.19a28.87,28.87,0,0,1,9.87-6.5c2.3-6.94,3.74-10.72,3.76-10.76l.15-.39a16.23,16.23,0,0,1,.15-2.49,8.45,8.45,0,0,1,1.72-3.46c-2.07,1.21-4.6,2.43-5.71,1.9a1.18,1.18,0,0,1-.67-1c-.15-1.74,2.79-5.19,5.53-7.2,1.49-1.09,3.6-2.25,5.19-1.59a1.66,1.66,0,0,1,1,1.12c.38,1.43-1.15,3.44-2.92,5.76l-.42.55-2.54,6.63q0,.33.14.39s.28.12,1.36-.46c1.34-.72,1.88-2.78,2.4-4.77a12.61,12.61,0,0,1,1.6-4.15l.48-.67c1.93-2.72,5.51-7.77,11.66-5.88s11.1,7.6,11.68,10.65l.23,1.21-2.39-1c-8.72-3.5-12.33-4.94-14.7-3.6-1.84,1-8.09,11.54-12.15,18.88,5.12.54,27.48,3.38,39.8,12.56a17.44,17.44,0,0,0,4.33-3.33l1.12-1.24Zm-50.47-35c.79.08,3.75-1.38,6.55-3.24l.79-.53c1-1.35,1.92-2.76,1.76-3.36,0,0,0-.13-.25-.22-.76-.32-2.21.22-3.87,1.43C100.37,31.3,98.21,34.23,98.17,35.19Z"/><path class="cls-4" d="M105.65,44.58a3.48,3.48,0,0,0-3.76-.05l-.82-1.07a4.8,4.8,0,0,1,5.25-.05Z"/><path class="cls-4" d="M156.12,75.91l-1.19-.64C155,75.1,164,57.86,157,37.91c-4.33-12.33-11.93-20.18-22.57-23.36a34.5,34.5,0,0,0-14.61-1.11L114,17l-.7-1.16,6.07-3.66.12,0a35,35,0,0,1,15.36,1.12c7.62,2.27,17.87,8.32,23.46,24.21C165.52,58,156.21,75.73,156.12,75.91Z"/><path class="cls-4" d="M157.35,201.25c-14.52-25.5-53.66-70.27-54.06-70.72l1-.89c.39.45,39.63,45.32,54.21,70.94Z"/><path class="cls-4" d="M38.77,195.67l-1.35-.07A56.35,56.35,0,0,0,37,185.44c-.8-6.91-1.33-11.47,7.91-27.51C53.65,142.7,66,140.4,76,138.55c4.76-.88,8.88-1.65,11.73-3.67,5.17-3.66,8.56-5.29,10.07-4.83a1.09,1.09,0,0,1,.74.62l-1.26.48a.35.35,0,0,0,.15.2c-.06,0-1.52-.6-8.91,4.63-3.09,2.19-7.34,3-12.26,3.89-9.68,1.8-21.73,4-30.19,18.73-9,15.65-8.51,20-7.74,26.68A57.5,57.5,0,0,1,38.77,195.67Z"/><path class="cls-4" d="M66.71,174.71l-1.35-.05c.38-9.89,6.45-19.38,6.71-19.78l1.13.73C73.14,155.71,67.07,165.21,66.71,174.71Z"/><path class="cls-4" d="M155.27,222c-14.14-25.32-41.59-59.74-53.31-74.44-1.68-2.11-3-3.77-3.91-4.93-4.51-5.77-6.61-6.48-7.31-6.51a.57.57,0,0,0-.4.09l0,0-1.14-.73a1.63,1.63,0,0,1,1.34-.67c1.95-.09,4.82,2.28,8.54,7,.9,1.15,2.22,2.81,3.9,4.92,11.74,14.72,39.24,49.2,53.43,74.62Z"/><path class="cls-4" d="M89.85,211.37c-5.5,0-10.89-3-15.78-8.76a49.8,49.8,0,0,1-7.12-11.43l1.24-.53c.1.23,9.94,23,25.41,18.86,17-4.54,30.75-10.42,36.83-15.71l.89,1c-6.22,5.42-20.19,11.4-37.37,16A15.83,15.83,0,0,1,89.85,211.37Z"/><path class="cls-4" d="M88.89,202a3.11,3.11,0,0,1-1.44-.34,2.86,2.86,0,0,1-1.49-1.9c0-.1,0-.21-.07-.33a3.38,3.38,0,0,1,.46-3h0a3.83,3.83,0,0,1,3-1.67,4.47,4.47,0,0,1,3.5,1.33,3.07,3.07,0,0,1,.81,2.62,4.26,4.26,0,0,1-2.62,2.73A5,5,0,0,1,88.89,202Zm-1.43-4.81a2.07,2.07,0,0,0-.27,1.94c0,.15.07.29.09.42a1.53,1.53,0,0,0,.78.92,2.72,2.72,0,0,0,2.41-.24c1.11-.54,1.76-1.16,1.89-1.79a1.79,1.79,0,0,0-.51-1.47,3.13,3.13,0,0,0-2.4-.86,2.49,2.49,0,0,0-2,1.08Z"/><path class="cls-4" d="M89.12,200.11a1.38,1.38,0,0,1-1-.4,2.31,2.31,0,0,1-.45-1.89L89,198l-.67-.11L89,198a1.19,1.19,0,0,0,.07.71h.17a.68.68,0,0,0,.64-.75l1.35-.12a2,2,0,0,1-1.75,2.21A2,2,0,0,1,89.12,200.11Z"/><path class="cls-4" d="M121.32,140.32c-.12-5.61-2.28-7.45-2.31-7.47l.84-1.06c.11.09,2.69,2.17,2.82,8.5Z"/><path class="cls-4" d="M125.94,137.78c-.51-2.54,1.68-5.71,1.78-5.84l1.11.78c-.55.78-1.89,3.17-1.56,4.8Z"/><path class="cls-4" d="M162.41,136c-3.94-2.61-16.3-1.7-16.43-1.69l-.1-1.35c.53,0,13-1,17.27,1.91Z"/><path class="cls-4" d="M219.52,191a7.51,7.51,0,0,1-.42-4.67c.13-.9.3-2.13.45-4a59.88,59.88,0,0,0-6.85-33c-4.8-8.92-14-13.44-27.39-13.44h-.39c-4.2,0-8.59-.3-16-4-7-3.45-14.67-8.53-15.65-9.53a19.68,19.68,0,0,1-3.31-5.24,29.43,29.43,0,0,0-1.92-3.65l1.13-.74a30.13,30.13,0,0,1,2,3.83,18.53,18.53,0,0,0,3,4.84,104.3,104.3,0,0,0,15.29,9.27c7.11,3.53,11.16,3.81,15.35,3.81h.3a43.21,43.21,0,0,1,13.23,1.74,25.45,25.45,0,0,1,15.44,12.41,61.23,61.23,0,0,1,7,33.7c-.15,2-.33,3.22-.46,4.13a6.25,6.25,0,0,0,.36,4Z"/><path class="cls-4" d="M177.73,202.36a36.77,36.77,0,0,1-7.48-.77c-9.2-1.91-11.24-1.5-11.25-1.5l-.34-1.31c.22-.06,2.38-.49,11.87,1.48,9.79,2,17.51-.52,20.23-2.16,2.13-1.28,6.1-12.78,8.11-19.72l1.3.37c-.55,1.89-5.42,18.53-8.71,20.51C189.33,200.54,184.32,202.36,177.73,202.36Z"/><path class="cls-4" d="M184.59,194a3.33,3.33,0,0,1-3.43-2,3.85,3.85,0,0,1,1-4l0,0a4.9,4.9,0,0,1,3.61-.8,3.6,3.6,0,0,1,2.78,4.76,3.15,3.15,0,0,1-2.14,1.83A8.23,8.23,0,0,1,184.59,194Zm-1.5-5a2.48,2.48,0,0,0-.67,2.53c.57,1.53,3,1.08,3.75.91a1.78,1.78,0,0,0,1.2-1,2.25,2.25,0,0,0-1.77-2.91A3.64,3.64,0,0,0,183.09,189Z"/><path class="cls-4" d="M184.63,192.23a1.56,1.56,0,0,1-.49-.08A2,2,0,0,1,183,191l1.27-.46-.64.23.63-.24c0,.09.16.3.3.34a.71.71,0,0,0,.51-.18l.16-.13a1.49,1.49,0,0,0-.36-.21l.48-1.26c.2.07,1.18.49,1.27,1.33a1.46,1.46,0,0,1-.8,1.38A2.15,2.15,0,0,1,184.63,192.23Z"/><path class="cls-4" d="M198.86,167.34c-1.22-4.75-6.65-11.5-6.7-11.57l1.05-.85c.23.29,5.66,7,7,12.08Z"/><path class="cls-4" d="M38.48,201.72l-1.07-.82a60,60,0,0,0,4.92-8.64l1.22.57A60.1,60.1,0,0,1,38.48,201.72Z"/><path class="cls-4" d="M33.16,226.85,31,163l.08-.16c1.49-2.91,6.14-1.53,6.34-1.47l.47.14,1.17,56.56-1.35,0-1.15-55.55c-1-.22-3.36-.55-4.2.76l2.14,63.49Z"/><path class="cls-4" d="M37.87,163.42l-.63-1.19c.15-.08.39-.27.26-.55s-1.57-1-4-.51l-.25-1.33c2.73-.51,4.94,0,5.5,1.3A1.78,1.78,0,0,1,37.87,163.42Z"/><path class="cls-4" d="M31.63,163.82a2.33,2.33,0,0,1-1.53-.8,1.51,1.51,0,0,1-.24-1.24c.31-1.44,2-1.87,3-1.89l0,1.35c-.39,0-1.55.19-1.68.83,0,.11,0,.15,0,.16a1,1,0,0,0,.58.25Z"/><rect class="cls-4" x="29.83" y="158.01" width="1.35" height="3.91" transform="translate(-1.07 0.21) rotate(-0.38)"/><path class="cls-4" d="M37.72,161.16l-.16-3.35c-1.09-.37-4.3-1.22-6.63.72l-.86-1c3.49-2.9,8.22-.87,8.42-.78l.38.17.2,4.22Z"/><polygon class="cls-4" points="32.55 157.16 31.2 157.16 31.2 78.24 32.55 78.2 37.26 156.57 35.91 156.66 32.55 100.73 32.55 157.16"/><path class="cls-4" d="M31.68,150.38c-4.81-1.44-4.46-8.37-4.34-11v-.13c.11-2.3,3.81-61,3.85-61.58l1.35,0c.07.57,6.55,57.48,7.22,61.13.72,4,0,9.17-2.74,11.46l-.86-1c2.33-1.94,2.91-6.69,2.28-10.18-.53-2.91-4.55-37.86-6.36-53.64-1,16.08-3.28,52.16-3.37,53.94v.13c-.11,2.32-.42,8.48,3.37,9.62Z"/><path class="cls-4" d="M61.67,250.07l-1.31-.31a31.17,31.17,0,0,1,2.76-6.51c2.26-4.44,5.07-10,5.55-18,.74-12.32,2.37-26.82,2.39-27l1.34.15c0,.14-1.65,14.61-2.38,26.9-.5,8.31-3.38,14-5.69,18.53A30.34,30.34,0,0,0,61.67,250.07Z"/><path class="cls-4" d="M196.75,227l-1.31-.32c4.82-19.94.06-34.75,0-34.9l1.28-.42C196.79,191.49,201.67,206.65,196.75,227Z"/><path class="cls-5" d="M4,166.91H27.52l-.17-3s-1.5-1.17-1.5-4.83,2-3.83,2-3.83l-.17-3.5s-3.33-1-3.33-8.17S31,59.23,31,59.23s10.17,71,11,77.33.17,12.17-1.17,14.33c-.33,4.33,1.5,4.83,0,10.17,7-15.67,14.67-20.67,24.17-24.17s19.5-2.67,22.5-7.67l.83-1.67a5.81,5.81,0,0,1-2.17-4.67c0-3.17-2.83-3.5-2.67-7.17s.17-4.17-.67-7.33-2-2-2-5.67-2.17-12,0-13.5c0,0,2.67-5.67,1.67-7.5s-6.5-5.83-6-12.33S84.19,49.73,88,38.9,98.36,14.23,110.69,9.23c8.83-3.5,14.5-5.33,14.5-5.33H4.19Z"/><path class="cls-5" d="M4,166.91H21.19a11.46,11.46,0,0,1-1.25-7c.5-4.25,3-5.25,3-5.25s-4.25-2.5-3.75-11.5,10-101.5,10-101.5S44.94,122.9,46.44,134.9c1,5.5-.75,12.5-.75,12.5a27.7,27.7,0,0,1,14.25-14,56.29,56.29,0,0,1,20.5-4.75,28.56,28.56,0,0,1-1.75-5.25c-.5-2.5,1-10.5-3.75-17-4.75-10.5,2-21,2-21s-11.5-9.5-10.5-19,20.5-45,27.75-51.5S111.44,3.4,111.44,3.4H3.94Z"/><path class="cls-6" d="M100.94,3.65H3.69V167.4l.35-.49h9.65s-1.25-8.26,2.75-11.76c-2-4.25-6-7-3.5-23s13-108.5,13-108.5l25.5,97.5s2,5.25,0,10.25c0,0,17.25-9,22.5-7.75-1-5.75,1-9.75-3-10.75s-5.25-17.25-3.25-23.75S65.94,84.4,64.44,75.9s-5.75-.5-1-26.75S100.94,3.65,100.94,3.65Z"/><path class="cls-6" d="M3.69,3.56V167.65h6.5s-2.75-1.25-1.75-9.28,4.75,1,1-10.79-.25-55.2,2-76,10.5-68,10.5-68Z"/><path class="cls-6" d="M26.36,3.9S43.52,58.56,46.69,70.4s12.33,45,12.17,48.33l5.67-1.83s-1,2.67-2.67-6.83-1.5-20.5-.67-23.83,3.83,2.83-2.83-8-7.67-18-6.33-23.5S65.36,6.9,72.36,3.9Z"/><path class="cls-5" d="M133.44,3.65h33.68V124.4s-7.93-1-7.43-3.75,6-4.75,5.5-16.5-3.75-11.5-3.75-11.5,4-2.25,2-5.25,1.5-5.5-.5-9l-2-3.5s11-31.75-3.5-53.25C151.69,14.4,133.44,3.65,133.44,3.65Z"/><path class="cls-6" d="M142.94,3.9h24.18V122.4s-4.18,0-3.43-1-1.5,1.5-.25-2.5,5.25-16.25,2-23.5c.25-7-.5-5.5-.5-11.25a30.41,30.41,0,0,0-1.5-9.75s7.5-38-1-53S142.94,3.9,142.94,3.9Z"/><rect class="cls-7" x="1.03" y="0.5" width="170.16" height="170.16"/></g><rect class="cls-7" x="0.5" y="0.5" width="170.16" height="170.16"/></g></g></svg>