<?xml version="1.0" encoding="utf-8"?>
<!-- Generator: Adobe Illustrator 21.1.0, SVG Export Plug-In . SVG Version: 6.00 Build 0)  -->
<svg version="1.1" id="Livello_1" xmlns="http://www.w3.org/2000/svg" xmlns:xlink="http://www.w3.org/1999/xlink" x="0px" y="0px"
	 viewBox="0 0 170 170" style="enable-background:new 0 0 170 170;" xml:space="preserve">
<style type="text/css">
	.st0{fill:#FFFFFF;}
	.st1{opacity:0.4;}
	.st2{fill:#1D1D1B;}
	.st3{fill:#E01F21;}
	.st4{fill:#E20613;}
</style>
<rect class="st0" width="170" height="170"/>
<g>
	<g>
		<g class="st1">
			<g>
				<g>
					<path class="st2" d="M56.3,68.5c-0.9,0-1.5-0.9-1.8-1.4L54,66.2L53.5,67c-0.1,0.1-0.2,0.2-0.2,0.4l-0.4-0.1
						c0.4-0.7,1.1-1.8,2.6-2.4c0.2-0.1,0.5-0.1,0.7-0.1c1.1,0,2,1.1,2.7,1.9c0.2,0.3,0.4,0.5,0.6,0.7l-0.2,0.3l-0.5-0.5l-0.4,0.4
						C58,67.9,57.2,68.4,56.3,68.5L56.3,68.5z M54.6,66.3c0,0.1,0.6,1.8,1.7,1.8c0.7,0,1.3-0.3,1.9-0.9l0.4-0.4l-0.4-0.4
						c-0.7-0.8-1.3-1.3-2-1.3c-0.2,0-0.4,0-0.6,0.1c-0.3,0.1-0.5,0.2-0.8,0.5l-0.1,0.1l-0.3-0.2L54.6,66.3z"/>
				</g>
				<g>
					<path class="st2" d="M86.2,74.2c-0.1,0-0.3,0-0.4,0c-5.7-0.7-7.2-2.4-7.4-2.6l-0.1-0.2l0.2-0.1c0,0,3.3-2.5,2.4-4.3
						c-0.7-1.5-2-2.3-3.7-2.3c-0.6,0-1.2,0.1-1.8,0.2l-0.1-0.4c0.7-0.2,1.4-0.3,2-0.3c1.9,0,3.3,0.8,4.1,2.5
						c0.8,1.5-0.8,3.3-1.8,4.2L79,71.4l0.6,0.4c1,0.6,2.9,1.5,6.4,1.9c0.1,0,0.2,0,0.3,0c2.5,0,4.2-3.1,4.8-6.1
						c0.8-4.1-0.1-8.7-3.3-9.6c-1.7-0.6-3.5-0.9-5.2-0.9c-6.1,0-10.1,3.5-11.4,4.9l-0.3-0.2c1.2-1.2,5.5-5,11.8-5
						c1.7,0,3.5,0.3,5.3,0.9c3.5,1,4.5,5.8,3.6,10.1C90.7,70.9,88.8,74.2,86.2,74.2z"/>
				</g>
				<g>
					<polygon class="st2" points="71,62.8 71,62.8 70.4,62.4 					"/>
				</g>
				<g>
					<path class="st2" d="M85.4,69.8c0.6-1.8,1.7-6.5-1.6-8c-0.9-0.4-1.8-0.6-2.9-0.6c-2.4,0-4.6,1.1-5.7,1.7L75,62.5
						c1-0.6,3.3-1.7,5.9-1.7c1.1,0,2.1,0.2,3.1,0.7c3.7,1.7,2.4,6.9,1.8,8.5L85.4,69.8z"/>
				</g>
				<g>
					<path class="st2" d="M76.3,70.6c-0.1,0-0.1,0-0.2,0H76v-0.1c0-0.2-0.4-2.4-2.4-2.4h-0.5l0.3-0.3c0.1-0.1,1.4-1.7,3.5-1.7
						c0.5,0,1.1,0.1,1.6,0.3c1.3,0.5,1.1,1.5,1,1.8C78.9,69.3,77.2,70.6,76.3,70.6z M76.8,66.4c-0.7,0-1.3,0.2-1.9,0.5L74,67.4
						l0.9,0.5c0.8,0.5,1.2,1.3,1.3,1.8l0.2,0.6L77,70c0.6-0.3,1.9-1.3,2.1-2.2c0.1-0.5-0.2-0.8-0.8-1.1
						C77.8,66.5,77.3,66.4,76.8,66.4z"/>
				</g>
				<g>
					<path class="st2" d="M72.6,73.8c-0.1,0-0.1-0.1-0.2-0.1c-0.2-0.2-0.3-0.6-0.3-1.1L72.6,73.8z M72.2,72.3
						c0.2-1.2-0.9-2.3-1.2-2.5c-0.6-0.3-0.9-0.6-1.1-1.1c-0.5-1.3,0-3.1,0.3-4l0.4,0.1c-0.3,0.9-0.7,2.6-0.3,3.7
						c0.2,0.4,0.5,0.7,0.9,0.9h0.1c0,0,1.7,1.2,1.4,2.9H72.2z"/>
				</g>
				<g>
					<path class="st2" d="M54.5,75c-0.2-0.2-0.4-0.3-0.7-0.4c-0.2-0.1-0.4-0.1-0.6-0.1c-0.5,0-1,0.1-1.6,0.4l-0.2-0.3
						c0.6-0.3,1.2-0.5,1.8-0.5c0.3,0,0.5,0,0.7,0.1c0.4,0.1,0.8,0.4,0.9,0.6L54.5,75z"/>
				</g>
				<g>
					<path class="st2" d="M140.1,125.9c1.5-0.4,5.4-1.3,9-1.3c1.6,0,2.9,0.2,3.9,0.5l0.5,0.2l0.2-0.4c1.5-2.8,0.1-5.2-0.6-6.2
						l0.3-0.3c0.7,0.9,2.5,3.9,0.3,7.2l-0.1,0.1l-0.1-0.1c-1.1-0.5-2.5-0.7-4.3-0.7c-3.5,0-7.5,0.9-8.9,1.3L140.1,125.9z"/>
				</g>
				<g>
					<path class="st2" d="M154.3,96.2c-0.9-7-3.2-20.5-6.1-24.1l0.3-0.3c3.6,4.3,5.9,21.3,6.2,24.3L154.3,96.2z"/>
				</g>
				<g>
					<path class="st2" d="M44.8,86.1l0.1-0.4h0.4c1.2,0.1,2.4,0.1,3.5,0.1c3.3,0,6.1-0.4,8.4-1.1l0.5-0.2l-0.1-0.4
						c-2.3,0.8-5.3,1.2-8.8,1.2c-5.9,0-11.9-1.2-13.8-2.3c-1-0.6-1.5-1.1-1.7-1.3L32.8,81c-0.2,0.6,0.6,1.5,2.1,2.4
						c0.1,0,0.2,0.1,0.3,0.1l3.5,1.2l-3.5-0.1H35c-2.3-0.2-4.1-0.6-4.8-1c-0.5-0.3-1.1-0.5-1.7-0.5c-0.5,0-0.9,0.1-1.1,0.4
						c0,0,0,0,0,0.1l0.9-0.1h0.1c0.2,0,0.9,0,1.5,0.4c1.1,0.7,4.7,1.2,8.1,1.2c0.5,0,1,0,1.4,0v-0.3l0.7,0.1
						c1.1,0.2,2.3,0.4,3.6,0.5l0.8,0.1l-0.4,0.7c-0.3,0.5-1,1.5-2.6,2.5L40.7,89v-0.4C38.6,88.7,31,88,28.3,85
						c-0.2-0.2-0.3-0.3-0.4-0.4l-0.6-0.8c-0.2,0.4,0.1,0.9,0.7,1.4c2.3,2.5,7.8,3.4,10.9,3.8l2.1,0.2l-2.5,1.1
						c-1.3,0.6-2.4,1-3.1,1.7l-0.2,0.2l-0.3-0.1c-0.2-0.1-0.6-0.1-1-0.1c-0.5,0-1.2,0.1-1.7,0.7L32,93h-0.2c-2.2,0.4-3,0.8-3.3,1
						l-0.2,0.2L28,94.1c-0.4-0.1-0.7-0.2-1-0.3c-0.3-0.1-0.5-0.2-0.7-0.2c-0.3,0-0.5,0.1-0.9,0.4l-0.2,0.2L25,94.1
						c-0.5-0.1-0.9-0.2-1.3-0.2c-0.2,0-0.5,0-0.7,0.1l-0.2,0.1L22.6,94c-0.5-0.2-0.9-0.3-1.4-0.3S20.3,93.9,20,94l-0.2,0.1L19.6,94
						c-0.4-0.1-0.9-0.3-1.5-0.3c-0.1,0-0.3,0-0.4,0h-0.1h-0.2h-0.1c-0.5-0.3-1.2-0.6-1.7-0.6c-0.1,0-0.2,0-0.3,0.1L15,93.3l-0.2-0.2
						c-1.1-0.8-1.8-1.5-1.9-1.6l-0.1-0.1h-0.2l-0.2-0.1v-0.1c-0.3-0.2-0.9-0.5-1.5-1.4c-0.5-0.7-0.6-2.1-0.6-3.4
						c-0.1-1.7-0.2-3.2-1-3.7c-0.4-0.2-1.5-0.4-3.2-0.4c-0.9,0-1.8,0.1-2.8,0.2c0.1,0.1,0.1,0.2,0.2,0.3C4.3,83,5.2,82.9,6,82.9
						c1.4,0,2.4,0.1,2.9,0.4s0.7,1,0.8,3.3c0.1,1.4,0.2,2.8,0.7,3.6c0.4,0.6,0.8,1,1.3,1.3l0.5,0.3l-0.3,0.5c-0.9,1.3-0.6,3-0.3,3.9
						l0.4-0.1c-0.2-0.8-0.5-2.5,0.3-3.6l0.4-0.5l0.5,0.4c0.3,0.3,0.8,0.7,1.5,1.2l0.2,0.1v0.2c0.6,3,1.3,4.2,1.7,4.8l0.1-0.5
						c-0.3-0.5-0.8-1.6-1.3-3.8l-0.2-1l0.9,0.3c0.2,0.1,0.6,0.2,0.9,0.4l0.3,0.1v0.3c0.3,2.4,1.5,4.4,2,5.2l0.3-0.2
						c-0.5-0.8-1.5-2.5-1.9-4.6l-0.1-0.7l0.7,0.1c0.3,0,0.7,0.1,0.9,0.2l0.4,0.1V95c0.2,1.8,2,4.5,2.8,5.5l0.3-0.2
						c-1-1.4-2.5-3.9-2.7-5.3v-0.4l0.4-0.2c0.2-0.1,0.5-0.2,0.8-0.2c0.4,0,0.9,0.1,1.3,0.3l0.6,0.4L23,94.3h0.9c0.2,0,0.4,0,0.7,0.1
						h0.2l0.1,0.2c1.9,2.9,5.8,6.2,7,7.2l0.2-0.3c-1.3-1.1-4.6-3.9-6.5-6.5l-0.3-0.5l0.5-0.3c0.1-0.1,0.3-0.2,0.6-0.2
						c0.2,0,0.3,0.1,0.6,0.1c0.3,0.1,0.8,0.3,1.5,0.4l0.5,0.1l0.1,0.2c2.4,2.9,5.4,4.8,6.6,5.5l0.2-0.3c-1.1-0.7-4-2.6-6.3-5.3
						L29,94.1l0.8-0.3c0.5-0.2,1.2-0.3,2-0.5l0.3-0.1l0.2,0.2c3,3.4,6.1,4.5,7.4,4.8l0.1-0.4c-1.2-0.3-4.2-1.3-7-4.5L32.3,93
						l0.7-0.3c0.2-0.1,0.5-0.2,0.8-0.2c0.6,0,1.3,0.2,1.4,0.3l0.1,0.1l0.4,0.2c2.8,1.3,7,2.5,8.6,3l0.1-0.4
						c-1.4-0.4-5.2-1.5-7.9-2.7l-1-0.4l0.9-0.6c0.6-0.4,1.4-0.8,2.3-1.2l0.9-0.4l0.2,0.1c2.5,1.1,6.3,1.6,7.8,1.8v-0.4
						c-1.2-0.1-4-0.5-6.3-1.2L40,90.1l1.2-0.6l0.3-0.2c0.2-0.1,0.4-0.2,0.6-0.4l0.2-0.1h0.2c0.9,0.2,1.9,0.3,3,0.3
						c2.7,0,5.2-0.6,6.2-0.9l-0.1-0.4c-1,0.3-3.5,0.9-6.2,0.9c-0.5,0-1,0-1.5-0.1l-1.2-0.1l0.8-0.8C44.3,87.1,44.7,86.4,44.8,86.1z"
						/>
				</g>
				<g>
					<path class="st2" d="M23,95.3c1.2,2.8,2.3,4.3,2.9,4.9l0.2-0.3c-0.5-0.6-1.6-2-2.8-4.7L23,95.3z"/>
				</g>
				<g>
					<path class="st2" d="M51.8,143.7c1.8-0.2,3.4-0.3,4.2-0.4v-0.4c-0.8,0.1-2.4,0.2-4.3,0.4L51.8,143.7z"/>
				</g>
				<g>
					<path class="st2" d="M81.5,153.3v-0.4c-10.8,0.3-31,2.7-35,3.1l-0.6,0.1v-4.5h-0.4v4.7l-1.5,1.5l0.5,8.8h0.4l-0.5-8.7l1.4-1.3
						l0.2-0.1h0.1c2.4-0.3,23.5-2.8,35.1-3.2L81.5,153.3z"/>
				</g>
				<g>
					<path class="st2" d="M163.2,152.2c-1.5-0.1-2.6-0.2-3.2-0.3v0.4h0.1c0.6,0,1.7,0.1,3.1,0.2
						C163.1,152.5,163.1,152.4,163.2,152.2z"/>
				</g>
				<g>
					<path class="st2" d="M46.6,144.9c-1.1,0.6-1.8,1.3-2,2.2c-0.4,1.6,0.9,3.2,1,3.3l0.1,0.1h0.1c0.2,0,16.4-3.4,40.9-4.4h1v-0.4
						c-10.2,0.4-20.2,1.2-29.8,2.5l-1.5,0.2c-5.4,0.7-9,1.4-10.3,1.6l-0.4,0.1l-0.2-0.3c-0.3-0.5-0.8-1.5-0.6-2.6
						c0.2-0.8,0.8-1.4,1.8-1.9c1.5-0.7,3-1.5,3.9-2.6l0.1-0.2c0.9-1.1,1.3-2.4,1.3-4.1v-0.5l0.5-0.1c3.8-0.6,7.3-0.7,9-0.7h0.3v-0.4
						h-0.3c-1.9,0-5.6,0.1-9.6,0.8h-0.2v0.2C52,141.8,49.9,143.2,46.6,144.9z"/>
				</g>
				<g>
					<path class="st2" d="M163.4,145.1c-4.1-0.3-7.9-0.4-9.9-0.4c-0.2,0-0.4,0-0.5,0l0.1,0.4h0.7c2,0,5.5,0.2,9.6,0.4
						C163.4,145.4,163.4,145.2,163.4,145.1z"/>
				</g>
				<g>
					<path class="st2" d="M159.2,152.8l-0.3-0.4c-0.7-1-1.4-1.8-2-2.7c-1-1.3-2.2-2.5-3.5-3.7l-0.7-0.7l-0.8-0.7
						c-1.6-1.4-3.2-2.6-5-3.8l-0.5-0.3c-6-3.8-13-6-20.8-6.7h-0.3l0.1-1.1h0.3c17.1,0.2,29.6,0.7,41.1,1.8c0-0.1,0.1-0.2,0.1-0.4
						c-1.5-0.1-3-0.3-4.5-0.4h-0.6l0.1-0.6c0.4-3.5-3.6-5.7-4.9-6.3l-0.3-0.1l-1.7-21.6c0.1-0.5,0.7-3.4,1.2-7.2l0.2-0.9
						c2.1-8.1,5.6-21.8-0.1-32.9C151,53.7,135,51.6,131.9,51.3h-0.5v-5.9h0.6v-6.6h-4.7V26l-2.3-0.6l-0.8-22.2h-0.4l0.8,22.1
						l-3.7-0.9l-0.8-20.3h-0.4l0.8,20.2l-0.7-0.2v0.1h-14.7v-0.1l-1,0.3l0.2-13.9h-0.4l-0.2,14L98.6,26l0.2-22.7h-0.4l-0.2,22.8
						l-2.7,0.7V39h-2.7v6.3h0.5v6.2l-0.6-0.1c-1-0.1-3-0.2-5-0.2c-1.7,0-3,0.1-3.9,0.3c-1.2,0.3-3.7,0.6-6.6,1
						c-4.2,0.6-9.5,1.3-13.7,2.3c-5.1,1.1-6.1,2-7.8,4c-0.6,0.7-1.3,1.6-2.5,2.6c-3.3,3.1-3.4,4.6-3.4,6c0,0.4,0,0.7-0.1,1.1
						C49.6,69.2,49.3,70,49,71c-0.5,1.7-1.1,3.5-1,4.4c0.1,1-1.2,4.4-1.5,5.4l-0.1,0.3H46c-1.3,0.1-2.5,0.1-3.7,0.1
						c-2.2,0-4.3-0.2-6.3-0.5c-0.8-0.2-1.4-0.3-2-0.3c-0.9,0-1.2,0.3-1.2,0.5l1-0.1c0.1,0,0.2,0,0.3,0c0.5,0,1.2,0.1,1.9,0.3
						c2,0.3,4.1,0.5,6.4,0.5c6.9,0,12.9-1.5,13.5-1.6H56c0.4-0.2,1.2-0.5,1.9-0.5c0.3,0,0.6,0.1,0.9,0.2c0.4,0.2,0.7,0.6,0.8,1.3
						c0.1,0.7-0.2,1.6-0.9,3.2l-0.1,0.2l0,0l-0.3,0.5L58,85.4l0,0l0,0.2c-0.3,0.6-0.6,1.2-1,1.7c-1.8,3.1-3.7,6.7-4.4,10.1L52.5,98
						L52,97.9c-0.4-0.1-0.7-0.2-1-0.2c-0.6,0-1,0.2-1.3,0.5c-0.8,0.7-9.7,5.6-24.3,5.8H25c-12.6,0-18.1-6.7-21.5-11.2
						c-0.1,0.1-0.2,0.2-0.2,0.3c3.2,4.3,9.1,11.3,21.7,11.3h0.4c14-0.1,23.2-4.6,24.6-5.9c0.3-0.2,0.6-0.4,1.1-0.4
						c0.4,0,0.7,0.1,1,0.2l0.5,0.1l-0.2,1c-0.3,1.3-0.6,2.2-0.2,2.7c0.3,0.4,0.8,0.4,1.2,0.4c0.3,0,0.6,0,0.9,0c0.2,0,0.4,0,0.6,0
						c1.6,0,2.3-0.4,2.4-1.5c0.2-1.5,1.1-2.5,3.6-4.1c1.1-0.7,1.6-0.7,1.9-0.7c0.5,0,0.8-0.1,1.4-1.3c1.2-2.2,3.9-3.2,8.6-3.3
						c1,0,2-0.1,2.8-0.2s1.5-0.1,2.1-0.1c1.9,0,3.3,0.6,4,3.7c1.3,5.1,1.9,8.5,1.3,11.7c-0.6,3.3-0.6,11.7-0.3,14.5
						c0.2,1.5-0.2,1.9-0.8,2.6c-0.4,0.5-1,1.2-1.5,2.7c-0.7,2.3-1,3.3-0.6,3.8c0.1,0.2,0.3,0.3,0.5,0.3h0.1l0.2-0.2v0.2l0,0v0.1v3
						h-0.5c-9.7,0.8-15.8,1.6-16.4,1.7h-0.1v0.1c-0.1,0.6-0.2,1.2-0.3,1.6c-0.4,2.6-0.6,2.9-4.1,4.6L59,142c-0.8,0.7-1.5,1.4-1.9,2
						l-0.2,0.2c-0.4,0.6-0.6,1.3-0.5,1.8c0,0.5,0.2,0.9,0.4,1.4l0.2,0.3l0.2-0.3c-0.2-0.3-0.4-0.7-0.5-1.3c0-1.2,0.8-2.4,2.5-3.8
						c3.6-1.8,3.9-2.3,4.3-5c0-0.3,0.1-0.7,0.2-1l0.1-0.4l0.4-0.1c4-0.5,25.4-3.1,51.1-3.1h1.2v1.1h-0.3c-11,0.8-20.4,4.7-27.7,11.7
						l-0.6,0.5l0,0l-1,1c-0.8,0.9-1.7,1.8-2.4,2.7c-0.8,0.9-1.5,1.9-2.2,3l-0.4,0.5l0,0l-0.6,0.9c-3.2,5.1-4.6,9.5-5.1,11.1l0.4,0.1
						c0.4-1.4,1.7-5.3,4.3-9.9l0.3-0.5l2.3,1.4l-0.3,0.5c-2.2,3.9-3.2,7.2-3.5,8.4l0.4,0.1c0.4-1.2,1.4-4.5,3.5-8.3l0.3-0.5l1.3,0.8
						l-0.3,0.5c-1.9,3.6-2.9,6.5-3.2,7.6l0.4,0.1c0.3-1.1,1.3-4,3.1-7.5l0.3-0.5l2.2,1.3l-0.2,0.5c-1.4,2.8-2.1,5.1-2.4,6.1l0.4,0.1
						c0.3-1,1-3.2,2.4-5.9l0.3-0.5l3.5,2.1l-0.2,0.5c-0.7,1.6-1.2,2.9-1.4,3.6l0.4,0.1c0.2-0.6,0.6-1.9,1.3-3.4l0.3-0.6l1.4,0.8
						l-0.2,0.5c-0.5,1.2-0.9,2.2-1.1,2.8l0.4,0.1c0.2-0.5,0.5-1.4,1-2.5l0.3-0.6l2.9,1.8l-0.2,0.4c-0.1,0.3-0.2,0.6-0.3,0.8l0.4,0.1
						c0.4-1.2,1.5-4.1,3.8-7.1l0.4-0.5l0.2,0.2l0.3-0.3l-0.3-0.3l0.4-0.4c1.9-2.1,4.1-3.8,6.6-5l0.6-0.3l0.2,0.6l0.4-0.1l-0.2-0.6
						l0.5-0.2c2.6-1.1,5.6-1.7,8.8-1.9h0.6v0.7h0.4v-0.7h0.9c2.9,0,5.6,0.4,8.1,1.1l0.5,0.1l-0.1,0.6l0.4,0.1l0.1-0.6l0.6,0.2
						c3.1,1.1,5.9,2.8,8.3,5.1l0.4,0.4l-0.5,0.5l0.3,0.2l0.5-0.5l0.4,0.5c0,0,0.3,0.3,0.4,0.4c2.8,3.2,4.1,6.5,4.6,7.7l0.4-0.1
						c-0.1-0.3-0.3-0.7-0.5-1.2l-0.2-0.5l2.3-1.4l0.3,0.6c0.5,1.1,0.9,2.1,1.1,2.6l0.4-0.1c-0.2-0.6-0.6-1.6-1.2-2.8l-0.2-0.5
						l1.5-0.9l0.3,0.6c0.8,1.6,1.2,2.8,1.4,3.5l0.4-0.1c-0.2-0.7-0.7-2-1.5-3.7l-0.2-0.5l4.3-2.6l0.3,0.5c1.7,3,2.5,5.6,2.9,6.6
						l0.4-0.1c-0.3-1-1.2-3.6-2.9-6.7l-0.3-0.5l2-1.2l0.3,0.5c2.2,3.7,3.3,6.8,3.6,8l0.4-0.1c-0.4-1.2-1.5-4.3-3.7-8.1l-0.3-0.5
						l1.4-0.9l0.3,0.5c2.4,4.1,3.6,7.5,4,8.8l0.4-0.1c-0.4-1.3-1.6-4.8-4.1-8.9l-0.3-0.5l0.6-0.3l-0.2-0.3l-0.6,0.3l-0.3-0.5
						c-0.9-1.5-2-2.9-3.1-4.2c-1.4-1.7-3-3.3-4.6-4.8l-0.4-0.4l0.8-0.9l-0.3-0.2l-0.8,0.9L148,145c-4.3-3.5-9.3-6-14.7-7.5l-0.5-0.1
						l0.2-0.7l-0.4-0.1l-0.2,0.7l-0.5-0.1c-3.6-0.8-7.4-1.3-11.3-1.3c-0.2,0-0.5,0-0.7,0h-1v-0.5h-0.4v0.5h-0.6
						c-4.8,0.2-9.2,1.1-13.3,2.6l-0.5,0.2l-0.1-0.3l-0.4,0.1l0.1,0.3l-0.5,0.2c-4.4,1.8-8.4,4.4-11.8,7.7l-0.4,0.4l-0.4-0.4
						l-0.3,0.3l0.4,0.4l-0.4,0.4c-1,1-1.9,2-2.6,3c-1.2,1.5-2.2,3-3.2,4.7l-0.3,0.5l-2.3-1.4l0.3-0.5c0.9-1.5,2-2.9,3-4.3
						c8.5-10.6,20.5-15.9,35.5-15.9c18.8,0,30,8.7,36,16c5.6,6.8,8,13.6,8.6,15.4l0.4-0.1c-0.5-1.7-2.2-6.6-6-12.1L159.2,152.8z
						 M88.2,158.6l-2.2-1.3l0.3-0.5c1-1.6,2-3.2,3.2-4.6c0.7-0.8,1.4-1.7,2.3-2.6l0.4-0.4l1.6,1.6l-0.4,0.4
						c-0.6,0.7-1.1,1.2-1.5,1.8c-1.2,1.6-2.4,3.3-3.4,5.1L88.2,158.6z M141.8,152.2c-3.1-2.8-6.6-5-10.7-6.3l-0.5-0.2l1-4l0.6,0.2
						c4.7,1.4,9,3.7,12.6,6.8l0.4,0.4l-3,3.5L141.8,152.2z M141.9,152.9l-1.2,1.3l-0.4-0.4c-2.8-2.6-6.1-4.5-9.8-5.8l-0.5-0.2
						l0.4-1.9l0.6,0.2c3.9,1.3,7.4,3.4,10.4,6.3L141.9,152.9z M145,148.4c-3.7-3.2-8-5.5-12.9-6.9l-0.5-0.2l0.4-1.6l0.6,0.2
						c5.1,1.4,9.7,3.8,13.7,7l0.4,0.4l-1.3,1.5L145,148.4z M131.3,141.2l-0.6-0.1c-3.2-0.8-6.6-1.2-10.2-1.2c-0.2,0-0.4,0-0.6,0h-1
						l-0.1-1.6h0.9c0.2,0,0.4,0,0.6,0c3.8,0,7.4,0.4,10.8,1.2l0.6,0.1L131.3,141.2z M118.8,146.4h-0.6c-3.6,0.2-6.9,0.8-10,2
						l-0.5,0.2l-0.7-1.7l0.5-0.2c3.2-1.3,6.7-2,10.5-2.1h0.6L118.8,146.4z M107.4,148.7l-0.5,0.2c-3,1.4-5.7,3.2-8,5.6l-0.4,0.4
						l-1.2-1.2l0.4-0.4c2.5-2.6,5.3-4.7,8.5-6.1l0.5-0.2L107.4,148.7z M106.1,146.9c-3.3,1.5-6.2,3.6-8.7,6.2l-0.4,0.4l-2.7-2.8
						l0.4-0.4c2.9-3,6.2-5.3,9.9-7l0.5-0.2l1.4,3.5L106.1,146.9z M104.6,143.1c-3.8,1.7-7.2,4.1-10.1,7l-0.4,0.4l-1.6-1.6l0.4-0.4
						c3.2-3.1,6.9-5.5,11-7.1l0.5-0.2l0.7,1.7L104.6,143.1z M92.1,160.9l-3.5-2.1l0.3-0.5c1-1.8,2.2-3.6,3.4-5.2
						c0.4-0.5,0.9-1.1,1.4-1.7l0.4-0.4l2.7,2.8l-0.3,0.4c-0.2,0.3-0.5,0.5-0.7,0.8c-1.3,1.6-2.5,3.5-3.5,5.4L92.1,160.9z
						 M93.7,161.9l-1.3-0.8l0.2-0.5c1-2,2.2-3.8,3.5-5.5c0.1-0.1,0.2-0.3,0.3-0.4L97,154l1.2,1.2l-0.4,0.5c-0.1,0.2-0.3,0.3-0.4,0.5
						c-1.3,1.6-2.4,3.3-3.4,5.2L93.7,161.9z M100.4,158.1c-1.6,2-2.6,3.9-3.2,5.2l-0.3,0.6l-2.9-1.8l0.2-0.5c1-1.9,2.1-3.7,3.4-5.3
						c0.1-0.1,0.8-0.9,0.8-0.9l2.2,2.2L100.4,158.1z M108.2,152c-2.6,1.3-4.9,3-6.8,5.1l-0.4,0.4l-2.2-2.2l0.4-0.4
						c2.3-2.3,4.9-4.2,7.9-5.5l0.5-0.2l1.1,2.6L108.2,152z M118.4,149.4c-3.2,0.2-6.2,0.8-8.9,2l-0.5,0.2l-1.1-2.6l0.5-0.2
						c3-1.1,6.3-1.8,9.8-1.9h0.6l0.1,2.6L118.4,149.4z M118.9,140.3h1c0.2,0,0.4,0,0.6,0c3.6,0,7,0.4,10.1,1.2l0.5,0.1l-1,4
						l-0.6-0.2c-3-0.9-6.3-1.3-9.7-1.3h-0.9V140.3z M119.1,144.5h0.8c3.4,0,6.7,0.4,9.7,1.3l0.5,0.1l-0.4,1.9l-0.6-0.2
						c-2.9-0.8-6-1.2-9.2-1.2h-0.7L119.1,144.5z M129,150.6l-0.6-0.2c-2.5-0.7-5.3-1.1-8.2-1.1h-0.9l-0.1-2l0.1-0.5h0.5
						c3.3,0,6.3,0.4,9.2,1.2l0.5,0.1L129,150.6z M138.9,156.4l-0.4-0.4c-2.4-2.3-5.3-4-8.5-5.2l-0.5-0.2l0.6-2.4l0.6,0.2
						c3.6,1.2,6.8,3.2,9.5,5.7l0.4,0.4L138.9,156.4z M143.9,163.5l-0.3-0.5c-1-1.9-2.1-3.7-3.5-5.3c-0.2-0.2-0.4-0.4-0.6-0.6
						l-0.3-0.4l1.6-1.9l0.4,0.4c1.8,1.9,3.4,4.1,4.7,6.4l0.3,0.5L143.9,163.5z M146.5,161.9l-0.3-0.5c-1-1.8-2.2-3.6-3.5-5.2
						c-0.4-0.5-0.8-0.9-1.3-1.4l-0.4-0.4l1.2-1.3l0.4,0.5c0.6,0.6,1,1.1,1.4,1.6c1.4,1.6,2.6,3.4,3.6,5.4l0.3,0.5L146.5,161.9z
						 M148.3,160.8l-0.3-0.5c-1-1.9-2.2-3.7-3.6-5.3c-0.5-0.6-1-1.2-1.6-1.8l-0.4-0.4l3-3.5l0.4,0.4c1.2,1.1,2.2,2.3,3.2,3.4
						c1.2,1.4,2.2,2.9,3.2,4.6l0.3,0.5L148.3,160.8z M153,158l-0.3-0.5c-1-1.6-2.1-3.1-3.2-4.6c-1-1.2-2.1-2.4-3.3-3.6l-0.4-0.4
						l1.3-1.5l0.4,0.4c1.5,1.3,2.9,2.8,4.1,4.3c1.1,1.3,2.1,2.7,3,4.2l0.3,0.5L153,158z M148.3,146l0.4,0.4c1.7,1.5,3.2,3.1,4.6,4.7
						c1.1,1.3,2.1,2.7,3,4.1l0.3,0.5l-1.4,0.9l-0.3-0.5c-0.9-1.5-2-2.9-3-4.2c-1.3-1.5-2.7-3-4.2-4.4l-0.4-0.4L148.3,146z
						 M132.5,137.8l0.6,0.2c5.4,1.5,10.3,4,14.5,7.4l0.5,0.4L147,147l-0.4-0.3c-4-3.3-8.7-5.7-13.9-7.1l-0.5-0.1L132.5,137.8z
						 M119.7,136.3c0.2,0,0.4,0,0.6,0c3.9,0,7.6,0.4,11.2,1.3l0.6,0.1l-0.4,1.6l-0.6-0.1c-3.4-0.8-7.1-1.2-10.9-1.2
						c-0.2,0-0.4,0-0.6,0h-1l-0.1-1.6L119.7,136.3z M118.7,144.1h-0.6c-3.8,0.2-7.4,0.9-10.7,2.2l-0.5,0.2l-1.4-3.5l0.5-0.2
						c3.6-1.4,7.6-2.2,11.9-2.5h0.6L118.7,144.1z M118.5,139.9h-0.6c-4.3,0.2-8.3,1.1-12,2.5l-0.5,0.2l-0.7-1.7l0.5-0.2
						c3.8-1.4,8.1-2.2,12.6-2.4h0.6L118.5,139.9z M104.6,139c4-1.5,8.5-2.3,13.2-2.6h0.6l0.1,1.6h-0.6c-4.5,0.2-8.8,1.1-12.7,2.5
						l-0.5,0.2l-0.6-1.5L104.6,139z M91.5,147.1c3.4-3.3,7.3-5.8,11.6-7.6l0.5-0.2l0.6,1.5l-0.5,0.2c-4.2,1.7-7.9,4.1-11.1,7.2
						l-0.4,0.4l-1.1-1.1L91.5,147.1z M84.7,155.8c1-1.7,2.1-3.2,3.2-4.7c0.8-1,1.6-1.9,2.5-2.9l0.4-0.4l1.1,1.1l-0.4,0.4
						c-0.9,0.9-1.7,1.8-2.4,2.7c-1.1,1.4-2.2,3-3.2,4.6l-0.3,0.5l-1.3-0.8L84.7,155.8z M120.1,24.7l6.7,1.6v12.4h-0.5
						c-2.8,0.2-3.8,1.6-4.1,2.5l-0.1,0.4h-2V24.7z M117.2,24.6h2.5v17h-2.5V24.6z M105.1,24.6h2.6V42h-2.6V24.6z M96,27.1l8.7-2.4
						V42h-2l-0.2-0.3c-0.5-0.8-1.8-2.7-4.8-2.7H96V27.1z M93.3,45v-5.5h4.5c3.5,0,4.6,2.7,4.7,2.8v0.1h5.9v-0.2
						c0-0.3,0.3-3.1,3.7-3.1c3.4,0,3.8,2.4,3.8,2.7V42h0.8l-0.9-1.4c-0.5-0.8-1.6-1.8-3.8-1.8c-1.3,0-2.3,0.4-3,1.1l-1,1V24.6h8.8
						V42h5.6v-0.2c0-0.1,0.3-2.7,4.7-2.7h4.5V45h-16.3v-0.5c-0.1-0.7-0.5-2.5-2.8-2.8c-0.2,0-0.4,0-0.6,0c-0.7,0-1.3,0.2-1.8,0.6
						c-0.3,0.2-0.5,0.5-0.7,0.9l-0.1,0.1c-0.2,0.5-0.4,1-0.4,1.3l-0.1,0.5L93.3,45L93.3,45z M125.1,111.8c0,1.2-0.1,1.7-1.6,2.1
						c-0.6,0.1-1.1,0.2-1.6,0.2c-1.9,0-2.5-1-2.6-1.2l-0.4-0.9v1c0,3.2-3,5.6-5.6,5.6c-2.8,0-5.7-2.2-5.7-5.4v-0.3l-0.2,0.1
						c-1.5,0.5-2.5,0.7-3.2,0.7c-0.5,0-0.8-0.1-1.1-0.2c-0.8-0.5-1.1-1.6-1.6-3.6c-0.8-3.1-4.8-4-6.4-4.3l-0.5-0.1v-51h2.9v49h0.2
						c0.2,0,3.8,0.3,5.6,5.2c0.1,0.5,0.4,1.2,1.1,1.5c0.2,0.1,0.5,0.2,0.8,0.2c0.6,0,1.4-0.2,2.4-0.6l-0.1-0.3l-0.8,0.3
						c-0.6,0.2-1.1,0.3-1.4,0.3c-0.2,0-0.5,0-0.6-0.1c-0.4-0.2-0.7-0.6-0.9-1.3c-1.4-3.9-3.9-5-5.3-5.3l-0.4-0.1V53.7h17.2l-0.6,1
						l1.7,0.9L116,56c0,0.3-0.3,0.6-0.6,0.8c-0.2,0.1-0.3,0.2-0.5,0.4l-0.4,0.5l-0.4-0.5c-0.3-0.3-0.5-0.4-0.8-0.4
						c-0.5,0-1,0.3-1.4,0.5l-0.1,0.1c-0.7,0.4-2.5,1.9-3.9,3.1l-0.2,0.1l0.1,0.1c0.1,0.1,1.4,1.4,2.3,1.8l0.2,0.1l0.1,0.2
						c0.1,0.3,0.1,0.8-0.3,2.3c0,0.2-0.1,0.3-0.1,0.4c-0.1,0.4,0.4,1,1.3,1.7l0,0l-1-1.5l0.2-0.6l1.1,0.2v0.4l-0.1,1.6l0.1,0.1v0.3
						c0,0.2,0,0.4,0,0.6l0.1,1.3l-1-0.8c-0.4-0.3-0.6-0.5-0.8-0.7c-0.1-0.1-0.3-0.3-0.5-0.3c0,0-0.1,0-0.2,0.1
						c-0.3,0.2,0,0.8,0.7,2.1l0.2,0.4c0.1,0.2,0.3,0.5,0.4,0.7l0.1,0.2l-0.6,0.8l-0.2-0.1c-0.3-0.1-0.6-0.3-0.8-0.5
						c-0.1-0.1-0.3-0.2-0.5-0.2h-0.1c-0.1,0.1-0.2,0.2-0.1,0.5l1.5,0.6c0.2,0.1,0.5,0.2,0.7,0.2c0.1,0,0.2,0,0.3,0
						c0.4,0,0.6-0.1,0.6-0.3c0.2-0.3-0.1-0.6-0.6-1.3l-0.4-0.5l0.8-0.7l0.2,0.2c0.7,0.6,1.4,1.1,2,1.6l0.4,0.3l-0.3,0.4
						c-0.4,0.5-0.4,0.6-0.3,0.7l0.6,1l-0.9,0.1c-0.6,0.1-1.3,0.3-2.1,0.5l-0.3,0.1l0,0l-1.4,0.4c-0.5,0.1-1.1,0.3-1.6,0.4
						c-1.5,0.2-1.6,1.1-1.7,1.9c-0.1,0.4-0.1,0.9-0.3,1.3c-0.1,0.1-0.1,0.2-0.2,0.3l-0.2,0.2h-0.3c-0.3,0-0.7-0.2-1.3-0.5
						c-0.5-0.3-1.2-0.6-2.1-0.9c-0.4-0.1-0.7-0.2-1-0.2c-0.4,0-0.6,0.1-0.9,0.3c-0.6,0.5-0.6,1.6-0.6,2l0.6,1.5h0.1
						c0.1,0,0.8-0.1,0.9-1.3v-1c-0.1,0-0.1,0.1-0.2,0.1l-0.2,0.2L99.7,79l0.1-0.2c0.1-0.2,0.2-0.4,0.3-0.5c0.2-0.1,0.4-0.2,0.6-0.2
						h0.4l0.1,1l-0.2,0.1l0.8,0.6c0.2,0.1,0.5,0.4,0.7,0.9c0.3,0.6,1.2,0.9,2.7,0.9c0.7,0,1.3-0.1,1.9-0.1h0.1c0.3,0,0.5,0,0.6,0
						l0,0c0.1,0,0.2,0,0.4-0.1l0.2-0.1l0.1-0.5c-0.2,0.2-0.4,0.3-0.7,0.3c-0.2,0-0.4,0-0.8,0.1c-0.4,0-1.1,0.1-1.9,0.1
						c-1.3,0-2-0.2-2.3-0.7c-0.2-0.3-0.4-0.6-0.6-0.8l-0.2-0.2l0.6-0.8l0.2,0.1c0.2,0.1,0.4,0.2,0.7,0.4c0.6,0.3,1.1,0.6,1.5,0.6
						c0.1,0,0.2,0,0.3,0c0.3-0.1,0.5-0.3,0.7-0.7c0.2-0.5,0.3-1,0.4-1.5c0.1-0.9,0.2-1.4,1.4-1.6l0.7-0.1l0.5,1.2
						c0.6-0.2,1.2-0.4,1.6-0.4c0.2,0,0.4,0,0.5,0.1l0.3,0.1v0.2v0.1c0,0,0,0.1,0,0.2c0,1.1-0.6,2-1.1,2.4l-0.8,0.6l-0.2-1
						c0-0.2,0-0.3-0.1-0.5h-0.4c0,0.4,0.1,0.7,0.1,0.9l0.1,0.5l-0.4,0.2c-0.1,0-0.2,0.1-0.3,0.2l0,0l0.2,0.4l0.6-0.2l-0.3,0.8
						l0.2,0.4c0.1,0.3,0.3,0.5,0.6,0.7c0.4,0.4,0.8,0.8,0.8,1.7c0,1.7-0.5,2.8-0.6,2.8l-0.2,0.3l1.5-0.1c0.7-0.1,1.2-1.4,1.3-3.7
						v-0.5l3-0.4l-0.1,1.1c0,0-0.3,2-0.7,2.7c-0.1,0.2-0.2,0.3-0.3,0.4c-0.2,0.2-0.2,0.3-0.2,0.4s0.1,0.2,0.9,0.4c0.1,0,0.1,0,0.2,0
						c0.2,0,0.4-0.1,0.6-0.3l0.6-0.4l0.3,0.7c0,0,0.1,0.1,0.2,0.1l1,0.6l-1.1,0.4c-1.1,0.4-2.5,0.7-4.1,0.7h-0.3
						c-3.3,0-4.5-1-4.9-1.6c-0.2-0.3-0.3-0.5-0.3-1c0-0.2,0.1-0.4,0.1-0.6l0.3-1.7l-0.7,1.6c-0.1,0.2-0.1,0.5-0.2,0.7v0.1l-0.1,0.3
						l-1.4,0.5v3l0,0c0,0.1,0.3,0.5,1.3,1l0.3,0.2v9.3l-1,0.2l0,0c-0.3,0.2-0.6,0.6-0.8,1.2l-0.2,0.7l-0.8-0.5
						c-0.4,0.8-0.9,2.3-0.2,3.7c0.4,0.8,1.2,1.4,2.4,1.8l0.6,0.2l1,0.2c0.5,0.1,1.1,0.2,1.6,0.2l1.3,0.1l-1,0.9
						c-0.6,0.5-0.8,1.3-0.8,2.4c0.1,2.2,1.5,3.3,4.1,3.3c1,0,1.9-0.5,2.6-1.4c0.5-0.7,0.7-1.4,0.6-2c-0.2-1-0.6-1.8-1.2-2.4l-1-0.9
						l1.3-0.1c0.6,0,1.3-0.1,1.9-0.2l1-0.2l0.7-0.2c0.9-0.3,1.5-0.6,2-1l0.2-0.1l0.8,0.6l-0.2,0.5c-0.2,0.7-0.5,1.1-0.9,1.3
						c-0.2,0.1-0.4,0.1-0.6,0.1c-0.3,0-0.8-0.1-1.3-0.2l-1-0.3l-0.1,0.3c0.1,0.1,0.5,0.2,0.5,0.2l0.4,0.1c0.6,0.2,1.1,0.3,1.5,0.3
						c0.3,0,0.6-0.1,0.8-0.2c0.6-0.3,0.9-1,1.1-1.5c1.7-4.9,5.4-5.1,5.6-5.1h0.2v-49h2.3v50.9l-0.3,0.1c-0.8,0.3-1.9,1.1-3.5,2.5
						C125,109.5,125,110.8,125.1,111.8z M93.8,54.2v-8.8h2.7v8.8H93.8z M102.7,45.3h6.4v-0.2c0-0.1,0.1-1.8,1.1-2.7
						c0.4-0.4,1-0.5,1.6-0.5c0.2,0,0.3,0,0.5,0c2.2,0.3,2.6,2.1,2.4,3.1v0.2h5.9h0.1l0,0h7.1v8h-31v-8h5.3L102.7,45.3L102.7,45.3z
						 M121.5,104.5l-0.1-0.4c-0.1-0.6-0.4-1-0.7-1.4c-0.4-0.5-1-0.7-1.6-0.8l-0.5-0.1v-9.7L119,92c0.7-0.3,1-0.5,1-0.5l0.1-0.1v-2.7
						l-0.6-0.1l-0.1-2v-0.2v-0.1c0.4-0.8,0.9-1.5,1.6-2.2c2-2.1,1.5-6.4,1.1-6.9c-0.3-0.4-2-1.8-4-2.6l-1.2-0.5l0.2-0.1h-2.2
						c-0.2,0-0.4,0-0.7,0H114l-0.2-1l0.2,0c0.2-0.1,0.4-0.2,0.7-0.2l0.3-0.1l2.2,1.4l0.9-0.4c0.4-0.2,0.6-0.5,0.6-0.8
						c0-0.2-0.1-0.8-1.6-0.8c-0.6,0-1.1,0-1.6,0.1l-1.3,0.2l0.8-1.1c0.5-0.7,0.7-1.3,0.6-1.6c0-0.1,0-0.1-0.1-0.2l-0.1-0.1l0,0
						l-0.2-0.1c-0.3-0.1-0.5-0.2-0.7-0.3c-0.1,0-0.4-0.1-0.5-0.1s-0.2,0-0.2,0l-0.5,0.2l-0.5-1.5c0-0.1-0.5-1.5-0.6-3.3h-1.3
						l0.1-0.6c0.1-1.3-0.3-1.5-0.6-1.5c-0.5-0.2-1.2-0.7-1.6-1.1l-0.5-0.4l0.5-0.4c0.6-0.5,2.5-2.1,3.2-2.5l0.1-0.1
						c0.6-0.3,0.9-0.5,1.2-0.5c0.4,0,0.6,0.3,0.8,0.5c0.1,0.1,0.3,0.4,0.6,0.4h1.1l-0.7,0.9c-0.3,0.4-0.6,0.8-0.7,1.3
						c-0.1,0.3-0.1,0.6,0,0.8l0.5-1c0.3-0.7,0.9-1.2,1.4-1.7c0.3-0.3,0.5-0.5,0.7-0.8c0.1-0.2,0.3-0.4,0.4-0.6l0.2-0.6l0.6,0.3
						c0.5,0.3,1,0.6,1.4,0.8l1.2,0.7l-1.3,0.4c-1,0.3-1.5,0.7-1.6,1.2l-0.1,0.3l-0.4,0.2c-0.9,0.4-1.5,0.6-1.8,0.7l-1.1,0.3l0,0
						l0.1,0.1l0.4,0.2l-0.3,1.5l-0.6-0.3c-0.3-0.1-0.5-0.2-0.6-0.2h-0.1c-0.1,0-0.2,0.1-0.2,0.2c-0.1,0.3,0.2,1.1,1,2.2l0.1,0.2
						l-0.1,0.5l0.3,0.4l0.1,0.2v0.1v0.1v0.1c-0.1,0.3,0.3,1,1.5,1.9l0.2,0.2l-0.4,0.7l0.5-0.6l0.2,0.1c0.9,0.6,1.7,1,1.7,1
						c0.2,0.1,0.3,0.1,0.3,0.1s0.1,0,0.2-0.1c0-0.1,0.1-0.1-0.1-0.4l-1.2-1.2l0.9,0.1l1,0.1c0.1,0,0.1,0,0.2-0.1s0.1-0.2-0.3-1
						l-0.1-0.1c-0.2-0.4-0.4-0.7-0.6-1l-0.2-0.3l0.2-0.3c0.1-0.2,0.2-0.7-0.5-2.6l-0.3-0.8h1.5v-0.2c0.1-0.7,0-1.7-0.4-2.1l-0.5-0.4
						l0.5-0.4c0.4-0.3,1-0.5,1.8-0.6c0.8-0.2,0.9-0.3,0.9-0.4c0-0.2-0.4-0.6-3.4-2.2l-0.1-0.1l0,0l0,0l-1.3-0.7
						c-0.1-0.1-0.2-0.2-0.4-0.2c-0.1,0-0.6-0.3-0.6-0.3l0.2-1h12.5v49.5l-0.4,0.1c-1,0.2-2.9,0.9-4.3,3.2l-0.1,0.2l-0.9-0.3v-0.2
						c0-0.2,0-0.3,0-0.5v-1.2L121.5,104.5z M109.6,106.1c-1.3-0.3-2.2-0.9-2.6-1.7c-0.2-0.4-0.2-0.8-0.2-1.2l0.1-1.1l0.8,0.8
						c0.8,0.8,2.4,1.9,5.1,1.9c3.6,0,5.2-1.4,5.6-1.8l0.4-0.4l0.4,0.5c0.2,0.3,0.7,1.1,0.1,2.2c-0.5,1-2.4,1.6-5.1,1.6
						C112.8,106.7,111.1,106.5,109.6,106.1z M113.1,109.9c1.6,0,2.6,1,3.1,2.8c0.1,0.5-0.1,1.1-0.5,1.7c-0.6,0.8-1.5,1.2-2.3,1.2
						c-2.4,0-3.6-1-3.7-2.9S110.5,110,113.1,109.9L113.1,109.9L113.1,109.9z M106.4,106l-0.2-0.2l0.8-0.7l0.2,0.2
						c0.5,0.5,1.3,0.9,2.3,1.2c0.3,0.1,0.7,0.2,1.1,0.2l0.3,0.1l-0.2,1.1h-0.3C108.4,107.6,107.1,107,106.4,106z M107.8,107.6
						l-0.4,1l-0.2-0.1c-1.4-0.4-2.3-1-2.7-1.8c-0.3-0.6-0.4-1.3-0.2-2v-0.2h1v0.2c0.3,1.3,1,2.2,2.3,2.9H107.8z M106.8,89.7
						c0.5,0.7,1.7,1.5,4.2,1.5c1.1,0,2.3-0.2,3.7-0.5c1.9-0.4,3.3-0.8,4.1-1.3l0.9-0.5v2.2l-0.3,0.2c-0.3,0.2-1,0.5-2.1,0.7
						c-2,0.4-3.8,0.6-5.4,0.6h-0.2c-0.7,0-1.3-0.1-1.9-0.1c-1.7-0.2-2.4-0.7-2.4-0.7l-0.3-0.2V92l-0.9-0.7c-0.1-0.1-0.1-0.1-0.2-0.1
						l-0.2-0.2v-2.6l0.7-0.2h0.3h0.1l0.3,0.1l0.7,0.9l-1.2,0.3L106.8,89.7z M112.3,83.1v0.2c0,0.7-0.1,1.4-0.2,2.1v0.3l-1.1-0.1
						v-0.3c0-0.2,0-0.4,0-0.6c0-1-0.5-1.5-0.9-2c-0.4-0.4-0.6-0.7-0.6-1.3c0-0.1,0-0.8,0-0.8l0.5-0.1c0.1,0,0.3,0,0.5-0.2
						c0.7-0.4,1.5-1.5,1.5-2.9c0-0.6-0.3-0.8-0.4-0.9s-0.3-0.1-0.5-0.2h-0.2l-0.1-1l0.2-0.1c1.3-0.4,2.6-0.7,4-0.7
						c0.2,0,0.4,0,0.5,0c2.7,0.2,5.6,2.4,6.2,3l0.1,0.1v0.1c0.2,0.6,0.4,2.4,0,4l-0.2,0.8l0,0v0.1c-0.2,0.6-0.5,1-0.8,1.4l-0.2,0.2
						l-0.1,0.1l-0.3,0.4c-0.2,0.2-0.3,0.5-0.5,0.7l-0.1,0.2l-1-0.5l0.2-0.4c0.3-0.5,0.6-0.8,0.8-0.9h0.1h-0.1l1.2-1.8l0.2,0.1
						l-0.5-0.4c-0.7,0.8-1.5,1.7-2,2.1l-0.4,0.3l-0.2-0.2l-0.1,0.3c-0.3,0.7-0.6,1.5-1,2.1l-0.1,0.2l-1-0.4l0.1-0.2
						c0.2-0.7,0.3-1.4,0.3-1.6l0.2-1.6L112.3,83.1z M118.2,92.3v10.3l-0.2,0.2c-0.5,0.5-2,1.5-5.2,1.5c-3.4,0-4.9-1.8-5.3-2.4v-0.1
						v-9.3l0.7,0.2c0.6,0.2,1.3,0.3,2,0.3c0.2,0,0.5,0,0.7,0.1h0.2c0.2,0,0.4,0,0.6,0h0.6c1.9,0,3.6-0.2,5.3-0.7L118.2,92.3z
						 M118.9,106.2c0.4-0.3,0.7-0.5,0.9-0.8c0.1-0.2,0.2-0.5,0.3-0.8v-0.2l1,0.1v0.2c0,0.2,0,0.4,0,0.6c-0.1,0.8-0.7,1.5-1.8,2
						l-0.2,0.1l-0.5-1L118.9,106.2z M112.1,70.1l1.2-0.3c0.1,0,0.2-0.1,0.3-0.2l0.3-0.3l0.4,0.1c0.1,0,0.3,0.1,0.4,0.2l0.5,0.2
						l-0.3,0.5c-0.1,0.2-0.3,0.5-0.5,0.8l-0.3,0.5L112.1,70.1z M116.6,66.5l0.6-0.7l0.4,0.5c0.1,0.1,0.1,0.2,0.2,0.3l0.9,1.4
						l-1.5-0.5c-0.1,0-0.7-0.2-0.7-0.2l-0.4-0.1L116.6,66.5z M115.9,66.8l-0.4-0.5c-0.3-0.3-0.6-0.7-1-1.2l-0.2-0.2l0.3-1.3l0.7,0.5
						c0.5,0.3,0.9,0.7,1.3,1l0.6,0.4l-0.5,0.5c-0.1,0-0.1,0.1-0.2,0.2s-0.1,0.1-0.2,0.2L115.9,66.8z M116.4,64.4
						c-0.4-0.3-0.9-0.7-1.3-1l-0.3-0.2l0.2-0.8h1.8l0.1,0.3c0.2,0.4,0.3,0.7,0.4,1l0.7,1.8L116.4,64.4z M128.3,54.2v-8.8h2.7v8.8
						H128.3z M100.4,131v1.4L81,133.6v-3h0.3c0,0,1,0,1.4,0c0.8,0,1.8,0,2.8,0h0.1c0.9,0,1.8,0,2.5,0c1.8,0,7.9,0.5,10.2,0.6v-0.4
						c-1.6-0.1-8.3-0.6-10.2-0.6c-0.7,0-1.6,0-2.5,0c-1,0-2,0-2.9,0s-1.6,0-1.9,0c-0.1,0-0.1,0-0.2,0l-0.5-0.1v-0.5
						c0-0.5,0.4-1.8,0.8-3.1c0.4-1.4,0.9-2,1.4-2.5c0.6-0.7,1-1.3,0.8-2.9c-0.3-3-0.2-11.4,0.3-14.4c0.6-3.2,0-6.7-1.3-11.8
						c-0.8-3.3-2.3-4-4.5-4c-0.7,0-1.4,0.1-2.1,0.1c-0.9,0.1-1.8,0.2-2.8,0.2c-2.8,0-5,0.5-6.5,1.3L66,92.6l-0.4,0.3
						c-0.8,0.5-1.4,1.1-1.8,1.9c-0.5,0.9-0.6,1-0.7,1l-0.5,0.3l-0.1-0.2L61.9,96v-0.6c0-1.1,0.3-5,3.4-7.7c0.4-0.3,0.8-0.6,1.1-0.9
						l0.2-0.2l0.7,0.8l-0.2,0.2c-1,0.9-1.6,2.1-2,3.4l0.3,0.5c0.3-1.5,1.2-5.2,8.1-6.2c2.2-0.3,4.1-0.5,5.9-0.5
						c3.6,0,6.2,0.7,7.1,1.8l0.4-0.1c-0.9-1.3-3.6-2.1-7.6-2.1c-1.8,0-3.7,0.2-5.9,0.5c-1.9,0.3-3.6,0.8-4.9,1.6l-0.2,0.1l-0.6-0.9
						l0.2-0.2c2-1.5,3.2-2.7,2.7-6.9c-0.5-4.4-3.1-6.3-4.2-7L66.3,72c1,0.6,3.4,2.5,3.9,6.7c0.5,4.3-0.7,5.2-3.1,7
						c-0.6,0.5-1.4,1-2.1,1.7c-3.8,3.3-3.5,8.2-3.5,8.4v0.4c0,0-0.5,0.3-0.6,0.3L60,96.9l0.1-1c0.1-2.4,1-7.6,3.2-10.3
						c2.8-3.4,2.2-6.3,1.1-8.2l-0.3,0.2c1,1.8,1.5,4.5-1.1,7.7c-0.4,0.4-0.7,1-1,1.6l-0.1,0.2l-1-0.5l0.4-0.9
						c0.9-2.1,1.6-3.8,1.3-6.6c-0.2-1.4-0.7-2.4-1.7-3c-0.7-0.4-1.5-0.6-2.4-0.6c-0.8,0-1.5,0.1-1.9,0.2l0.1,0.4
						c0.4-0.1,1.1-0.2,1.8-0.2c0.9,0,1.6,0.2,2.2,0.6c0.9,0.5,1.4,1.4,1.5,2.7c0.3,2.7-0.3,4.2-1.3,6.4c-0.8,1.8-1.7,3.9-2.4,7.5
						c-0.5,2.6-0.7,4-0.8,4.7h0.4l0.1-0.7c0.1-0.7,0.3-1.7,0.6-3.1l1-4.3l0.9,0.6L60,94.2c-0.2,1.5-0.2,2.4-0.1,2.7v0.4l-0.3,0.2
						c-0.1,0.1-0.2,0.2-0.3,0.2l-0.7,0.5l-0.5,0.5c-0.6,0.7-1,1.4-1.1,2.3c-0.2,1.1-0.9,1.2-2,1.2c-0.2,0-0.4,0-0.6,0
						c-0.3,0-0.6,0-0.9,0c-0.3,0-0.5,0-0.7-0.1l-0.3-0.1l-0.1-0.3c-0.1-0.4,0-1,0.3-2.2c0.2-0.6,0.3-1.2,0.5-2
						c0.6-3.3,2.6-6.9,4.3-10c1.6-2.9,2.9-5.2,2.7-6.6c-0.2-0.9-0.7-1.3-1-1.5c-0.3-0.1-0.6-0.2-1-0.2c-0.6,0-1.3,0.2-2.1,0.5
						c-0.6,0.1-3.8,0.9-8.1,1.3l-0.9,0.1l0.3-0.8c0.9-2.4,1.4-4.2,1.3-4.9c-0.1-0.8,0.5-2.6,1-4.3c0.3-0.9,0.6-1.8,0.7-2.4
						c0.1-0.4,0.1-0.8,0.1-1.2c0.1-1.3,0.1-2.7,3.3-5.7c0.4-0.3,0.7-0.6,0.9-0.9l0.2-0.2l0,0l1.3-1.5c1.6-1.9,2.4-2.8,7.6-3.9
						c4.3-0.9,9.5-1.7,13.7-2.3c3-0.4,5.3-0.8,6.6-1c0.9-0.2,2.1-0.3,3.8-0.3c2,0,4.1,0.1,5.1,0.2h0.5v2.6h0.7v5.1l-1,0.2L93,59.6
						c-2.3-4.9-7.2-5.5-10.6-5.5c-1.5,0-3,0.1-4.3,0.2h-0.5c-4.6,0.4-7.2,2.8-8.1,3.9l0.3,0.2c0.9-1,3.3-3.3,7.8-3.7h0.5
						c1.3-0.1,2.7-0.2,4.2-0.2c4.2,0,9.9,0.9,11.4,8.7c0.2,1.4,0.4,2.7,0.4,3.9v0.1c-0.1,3.7-1.3,6.1-2.4,7.4
						c-1.5,1.9-3.7,3.1-5.8,3.2c-0.3,0-0.5,0-0.8,0c-3.8,0-8.7-1.3-10.6-3.5l-0.3,0.2c1.9,2.3,6.9,3.7,10.9,3.7c0.3,0,0.6,0,0.9,0
						c2.2-0.1,4.5-1.4,6.1-3.3c0.4-0.5,0.7-1,1-1.5l0.1-0.2l1,0.2v32.4h0.2c0,0,2.8,0.2,4.8,1.5v-0.2l0.8,0.8l0.4,0.3l0.5,0.5h-0.2
						l0.6,1h-0.8v14l-0.1,0.9l-0.8-0.5L99,124v-15.2h-0.4v15l-0.7-0.2c-1.4-0.4-3.4-0.6-5.7-0.6c-3.3,0-6.6,0.4-7.8,0.6l0.1,0.4
						c1.3-0.2,4.6-0.6,7.9-0.6c2.8,0,5,0.3,6.4,0.9v-0.1l0.5,0.3c1.2,0.7,1.6,1.5,2.2,2.5l0.2,0.4c0.6,1,0.3,2.5,0.2,3l-0.1,0.4
						h-1.4V131z M117.7,132.3c-0.8,0-1.6,0-2.4,0c-4.2,0-8.6,0.1-13,0.2h-0.4l-0.3-0.7l0.2-0.6c0.1-0.2,0.8-2.4,0-3.9l-0.2-0.4
						c-0.3-0.5-0.6-1-1-1.5l-0.1-0.1v-12.8l1-0.2l0.1,0.2c0.3,0.6,0.6,1,1,1.3c0.4,0.2,0.8,0.3,1.3,0.3c0.6,0,1.4-0.1,2.5-0.4
						l0.6-0.2l0.1,0.6c0.5,3.1,3.5,4.9,6,4.9c2.3,0,5.1-1.7,5.8-4.5l0.2-0.7l0.6,0.4c0.5,0.3,1.2,0.4,1.9,0.4c0.5,0,1.1-0.1,1.7-0.2
						c2-0.5,2-1.4,1.9-2.5c0-1-0.1-2.2,1.5-3.5c2.1-1.8,3.1-2.3,3.5-2.4l0.2-0.1l0.3,0.1v-5.3h0.5c0.4,0,0.8-0.1,1.2-0.1
						c0.3,0,0.5,0,0.7,0l0.4,0.1v0.4c0,0.4,0,1,0,1.5c0,2-0.1,4.8,1.7,5.3h0.1l-0.7-0.9c-0.7-1-0.7-3-0.7-4.4c0-1.5,0-2.1-0.4-2.3
						c-0.3-0.1-0.7-0.1-1.2-0.1c-0.4,0-0.7,0-1,0l-0.6,0.1V80.7l0.8,0.3c2.1,0.9,9.1,5,11.3,19l0.4-0.1c-2.6-16-11.2-19.2-12.1-19.5
						l-0.4-0.1V54.5h0.5v-2.9l0.6,0.1c4.4,0.5,19,2.8,24.1,12.6c5.7,11,2.2,24.6,0.1,32.6l-0.3,1c-0.3,2.5-0.7,4.6-0.9,5.9l-0.2,0.9
						l-0.7-0.6c-1-0.8-2.8-1.7-5.7-1.7c-1.5,0-3.1,0.2-4.7,0.7l0.1,0.4c1.7-0.5,3.2-0.7,4.6-0.7c3.9,0,5.7,1.8,6.2,2.4l0.1,0.1
						l1.7,21.7h0.1c0.1,0,5.3,2.3,5,6v0.6l-0.6-0.1c-9.5-1.1-19.4-1.3-24.5-1.3c-1.6,0-2.9,0-3.7,0h-0.8l0.3-0.8
						c0.8-2.5,2.8-3.3,4.3-4c1.1-0.4,1.7-0.8,1.8-1.4c0.1-1.8,0.2-16.4-0.6-25.5c-0.7-8-4.4-14-5.5-15.7l-0.3,0.2l0.1,0.1
						c1.1,1.7,4.6,7.7,5.3,15.4c0.2,1.9,0.3,4.2,0.4,6.8v0.2v1l0,0v0.1c0.3,8.1,0.2,16.4,0.1,17.5v0.1v0.1c-0.1,0.2-0.3,0.3-0.8,0.5
						l-0.8,0.4v-19h0.6l0.2-0.2l-0.3-0.2c-0.2-0.1-0.4-0.2-0.7-0.3l-0.3-0.1v20l-0.3,0.2c-1.5,0.7-3.2,1.8-3.9,4.5l-0.1,0.4h-0.5
						C127,132.4,122.6,132.3,117.7,132.3z"/>
				</g>
				<g>
					<path class="st2" d="M61.5,65c0-1.2,0-3-2-3.9c-0.9-0.4-1.8-0.7-2.6-0.7c-0.3,0-0.5,0-0.8,0.1L55,60.7l0.9,0.2
						c0.3-0.1,0.6-0.1,1-0.1c0.8,0,1.6,0.2,2.4,0.6c1.6,0.8,1.7,2.2,1.7,3.6c0,0.5,0,0.9,0.2,1.2c0.2,0.3,0.4,0.8,0.6,1.1l0.4-0.1
						c-0.2-0.4-0.4-0.9-0.7-1.3C61.5,65.7,61.5,65.4,61.5,65z"/>
				</g>
				<g>
					<path class="st2" d="M159.4,139.9c-5.3-0.2-10.1-0.4-12.1-0.5v0.4c1.9,0.1,6.8,0.2,12.2,0.5
						C159.5,140.2,159.5,140.1,159.4,139.9z"/>
				</g>
				<g>
					<path class="st2" d="M61.3,142.8c3.1-0.4,20.6-2.6,30.5-2.8v0.4c-9.9,0.2-27.4,2.4-30.4,2.8L61.3,142.8z"/>
				</g>
				<g>
					<path class="st2" d="M140.6,165.4c-1-2.6-5.6-12.2-20.1-12.2s-18.8,9.7-19.7,12.2l-0.4-0.1c1-2.7,5.5-12.5,20-12.5
						s19.4,9.9,20.4,12.5L140.6,165.4z"/>
				</g>
			</g>
			<g>
				<polygon class="st2" points="3.8,83.1 3.3,83.1 3.3,3.3 98.5,3.3 98.5,3.8 3.8,3.8 				"/>
			</g>
			<g>
				<polygon class="st2" points="44.8,166.7 3.3,166.7 3.3,93.2 3.8,93.2 3.8,166.2 44.8,166.2 				"/>
			</g>
			<g>
				<polygon class="st2" points="166.7,134.1 166.2,134.1 166.2,3.8 123.8,3.8 123.8,3.3 166.7,3.3 				"/>
			</g>
		</g>
	</g>
	<g>
		<g>
			<path class="st3" d="M44.7,158.6c0,0.5-0.2,0.8-0.6,0.9c-1.6,0.9-3.4,1.6-6,1.6c-5.2,0-9.2-3.6-9.2-9.5s4-9.5,9.2-9.5
				c2.6,0,4.4,0.7,6,1.6c0.3,0.2,0.6,0.4,0.6,0.9c0,0.6-0.4,1.1-1.1,1.1c-0.1,0-0.3,0-0.5-0.1c-1.4-0.7-2.8-1.2-4.8-1.2
				c-4.7,0-7.1,3.1-7.1,7.2s2.4,7.2,7.1,7.2c2.1,0,3.4-0.5,4.8-1.2c0.2-0.1,0.3-0.1,0.5-0.1C44.3,157.5,44.8,158,44.7,158.6z"/>
			<path class="st0" d="M38.1,165.7c-8,0-13.7-5.9-13.7-14s5.8-14,13.7-14c3.8,0,6.4,1.2,8.2,2.2c1.7,0.9,2.8,2.6,2.9,4.6
				c0.1,1.5-0.5,3-1.5,4.1c-1.1,1.1-2.5,1.7-4,1.7c-0.6,0-1.5-0.1-2.5-0.6l-0.1-0.1c-0.9-0.5-1.6-0.7-2.7-0.7
				c-1.2,0-2.6,0.2-2.6,2.7s1.3,2.7,2.6,2.7c1.2,0,1.8-0.2,2.7-0.7h0.1c1-0.5,1.9-0.6,2.5-0.6c1.6,0,3,0.6,4,1.7
				c1,1.1,1.6,2.6,1.5,4.1l0,0c-0.1,2-1.2,3.7-2.9,4.7C44.5,164.5,42,165.7,38.1,165.7z M42,155.6C41.9,155.6,41.9,155.7,42,155.6
				C41.9,155.7,41.9,155.6,42,155.6z M41.9,147.8C42,147.8,42,147.8,41.9,147.8C42,147.8,42,147.8,41.9,147.8z"/>
		</g>
		<g>
			<path class="st3" d="M63.6,159.9c0,0.7-0.4,1.2-1.2,1.2c-0.5,0-0.9-0.3-1.1-0.7l-1.7-4.1h-9l-1.7,4.1c-0.2,0.5-0.6,0.7-1.1,0.7
				c-0.7,0-1.2-0.5-1.2-1.2c0-0.2,0.1-0.3,0.1-0.5l6.7-15.9c0.2-0.6,0.7-1.1,1.5-1.1h0.3c0.8,0,1.3,0.5,1.5,1.1l6.7,15.9
				C63.5,159.5,63.6,159.7,63.6,159.9z M58.6,154l-3.6-8.6l-3.6,8.6H58.6z"/>
			<path class="st0" d="M62.4,165.6c-2.3,0-4.3-1.3-5.2-3.4l-0.6-1.4h-3l-0.6,1.4c-0.9,2.1-2.9,3.4-5.2,3.4c-3.2,0-5.7-2.5-5.7-5.7
				c0-0.8,0.2-1.5,0.5-2.3l6.7-15.9c0.8-1.8,2.2-3.1,4-3.6l1.8-4.4l1.8,4.4c1.8,0.5,3.2,1.8,4,3.6l6.7,15.9c0.3,0.7,0.5,1.5,0.5,2.3
				C68.1,163.1,65.6,165.6,62.4,165.6z M59.3,161.1L59.3,161.1L59.3,161.1z M50.8,161.1L50.8,161.1L50.8,161.1z"/>
		</g>
		<g>
			<path class="st3" d="M78.3,143.6c0,0.6-0.5,1.1-1.1,1.1h-5.4v15.1c0,0.7-0.6,1.2-1.2,1.2c-0.7,0-1.2-0.5-1.2-1.2v-15.1H64
				c-0.6,0-1.1-0.5-1.1-1.1s0.5-1.1,1.1-1.1h13.1C77.8,142.5,78.3,143,78.3,143.6z"/>
			<path class="st0" d="M70.6,165.6c-3.1,0-5.7-2.6-5.7-5.7v-10.6H64c-3.1,0-5.6-2.5-5.6-5.6s2.5-5.6,5.6-5.6h13.1
				c3.1,0,5.6,2.5,5.6,5.6s-2.5,5.6-5.6,5.6h-0.9v10.6C76.4,163,73.8,165.6,70.6,165.6z"/>
		</g>
		<g>
			<path class="st3" d="M94.8,159.9c0,0.7-0.4,1.2-1.2,1.2c-0.5,0-0.9-0.3-1.1-0.7l-1.7-4.1h-9l-1.7,4.1c-0.2,0.5-0.6,0.7-1.1,0.7
				c-0.7,0-1.2-0.5-1.2-1.2c0-0.2,0.1-0.3,0.1-0.5l6.7-15.9c0.2-0.6,0.7-1.1,1.5-1.1h0.3c0.8,0,1.3,0.5,1.5,1.1l6.7,15.9
				C94.8,159.5,94.8,159.7,94.8,159.9z M89.9,154l-3.6-8.6l-3.6,8.6H89.9z"/>
			<path class="st0" d="M93.6,165.6c-2.3,0-4.3-1.3-5.2-3.4l-0.6-1.4h-3l-0.6,1.4c-0.9,2.1-2.9,3.4-5.2,3.4c-3.2,0-5.7-2.5-5.7-5.7
				c0-0.8,0.2-1.5,0.5-2.3l6.7-15.9c0.8-1.8,2.2-3.1,4-3.6l1.8-4.4l1.8,4.4c1.7,0.5,3.2,1.8,4,3.6l6.7,15.9c0.3,0.8,0.5,1.5,0.5,2.3
				C99.3,163.1,96.8,165.6,93.6,165.6z M90.5,161.1L90.5,161.1L90.5,161.1z M82.1,161.1L82.1,161.1C82,161.1,82,161.1,82.1,161.1z"
				/>
		</g>
		<g>
			<path class="st3" d="M114.1,143.6v15.7c0,0.9-0.8,1.7-1.7,1.7H112c-0.6,0-1.1-0.3-1.4-0.7l-10.2-14.7v14.3c0,0.7-0.6,1.2-1.2,1.2
				c-0.7,0-1.2-0.5-1.2-1.2v-15.7c0-0.9,0.8-1.7,1.7-1.7h0.3c0.6,0,1.1,0.3,1.4,0.8l10.2,14.7v-14.2c0-0.7,0.5-1.2,1.2-1.2
				C113.5,142.4,114.1,142.9,114.1,143.6z"/>
			<path class="st0" d="M116.2,168.2l-4.6-2.7c-1.8-0.1-3.4-1-4.5-2.5l-0.1-0.1l-2-2.9c-0.1,3.1-2.6,5.6-5.7,5.6s-5.7-2.6-5.7-5.7
				v-15.7c0-2,0.9-3.8,2.4-4.9v-8l4.6,6.7c1.8,0.1,3.4,1,4.5,2.5l0.1,0.2l2,2.8c0.1-3.1,2.6-5.6,5.7-5.6s5.7,2.6,5.7,5.7v15.7
				c0,2-0.9,3.8-2.4,4.9V168.2z"/>
		</g>
		<g>
			<path class="st3" d="M121.6,143.6v16.3c0,0.7-0.6,1.2-1.2,1.2c-0.7,0-1.2-0.5-1.2-1.2v-16.3c0-0.7,0.5-1.2,1.2-1.2
				C121.1,142.4,121.6,142.9,121.6,143.6z"/>
			<path class="st0" d="M120.4,165.6c-3.1,0-5.7-2.6-5.7-5.7v-16.3c0-3.2,2.6-5.7,5.7-5.7c3.2,0,5.7,2.6,5.7,5.7v16.3
				C126.1,163,123.5,165.6,120.4,165.6z"/>
		</g>
		<g>
			<path class="st3" d="M141.9,159.9c0,0.7-0.4,1.2-1.2,1.2c-0.5,0-0.9-0.3-1.1-0.7l-1.7-4.1h-9l-1.7,4.1c-0.2,0.5-0.6,0.7-1.1,0.7
				c-0.7,0-1.2-0.5-1.2-1.2c0-0.2,0.1-0.3,0.1-0.5l6.7-15.9c0.2-0.6,0.7-1.1,1.5-1.1h0.3c0.8,0,1.3,0.5,1.5,1.1l6.7,15.9
				C141.8,159.5,141.9,159.7,141.9,159.9z M136.9,154l-3.6-8.6l-3.6,8.6H136.9z"/>
			<path class="st0" d="M140.7,165.6c-2.3,0-4.3-1.3-5.2-3.4l-0.6-1.4h-3l-0.6,1.4c-0.9,2.1-2.9,3.4-5.2,3.4c-3.2,0-5.7-2.5-5.7-5.7
				c0-0.8,0.2-1.5,0.5-2.3l6.7-15.9c0.8-1.8,2.2-3.1,4-3.6l1.8-4.4l1.8,4.4c1.8,0.5,3.2,1.8,4,3.6l6.7,15.9c0.3,0.8,0.5,1.5,0.5,2.3
				C146.4,163.1,143.9,165.6,140.7,165.6z M137.6,161.1L137.6,161.1L137.6,161.1z M129.1,161.1L129.1,161.1L129.1,161.1z"/>
		</g>
	</g>
	<g>
		<g>
			<path class="st3" d="M44.7,158.6c0,0.5-0.2,0.8-0.6,0.9c-1.6,0.9-3.4,1.6-6,1.6c-5.2,0-9.2-3.6-9.2-9.5s4-9.5,9.2-9.5
				c2.6,0,4.4,0.7,6,1.6c0.3,0.2,0.6,0.4,0.6,0.9c0,0.6-0.4,1.1-1.1,1.1c-0.1,0-0.3,0-0.5-0.1c-1.4-0.7-2.8-1.2-4.8-1.2
				c-4.7,0-7.1,3.1-7.1,7.2s2.4,7.2,7.1,7.2c2.1,0,3.4-0.5,4.8-1.2c0.2-0.1,0.3-0.1,0.5-0.1C44.3,157.5,44.8,158,44.7,158.6z"/>
		</g>
		<g>
			<path class="st3" d="M63.6,159.9c0,0.7-0.4,1.2-1.2,1.2c-0.5,0-0.9-0.3-1.1-0.7l-1.7-4.1h-9l-1.7,4.1c-0.2,0.5-0.6,0.7-1.1,0.7
				c-0.7,0-1.2-0.5-1.2-1.2c0-0.2,0.1-0.3,0.1-0.5l6.7-15.9c0.2-0.6,0.7-1.1,1.5-1.1h0.3c0.8,0,1.3,0.5,1.5,1.1l6.7,15.9
				C63.5,159.5,63.6,159.7,63.6,159.9z M58.6,154l-3.6-8.6l-3.6,8.6H58.6z"/>
		</g>
		<g>
			<path class="st3" d="M78.3,143.6c0,0.6-0.5,1.1-1.1,1.1h-5.4v15.1c0,0.7-0.6,1.2-1.2,1.2c-0.7,0-1.2-0.5-1.2-1.2v-15.1H64
				c-0.6,0-1.1-0.5-1.1-1.1s0.5-1.1,1.1-1.1h13.1C77.8,142.5,78.3,143,78.3,143.6z"/>
		</g>
		<g>
			<path class="st3" d="M94.8,159.9c0,0.7-0.4,1.2-1.2,1.2c-0.5,0-0.9-0.3-1.1-0.7l-1.7-4.1h-9l-1.7,4.1c-0.2,0.5-0.6,0.7-1.1,0.7
				c-0.7,0-1.2-0.5-1.2-1.2c0-0.2,0.1-0.3,0.1-0.5l6.7-15.9c0.2-0.6,0.7-1.1,1.5-1.1h0.3c0.8,0,1.3,0.5,1.5,1.1l6.7,15.9
				C94.8,159.5,94.8,159.7,94.8,159.9z M89.9,154l-3.6-8.6l-3.6,8.6H89.9z"/>
		</g>
		<g>
			<path class="st3" d="M114.1,143.6v15.7c0,0.9-0.8,1.7-1.7,1.7H112c-0.6,0-1.1-0.3-1.4-0.7l-10.2-14.7v14.3c0,0.7-0.6,1.2-1.2,1.2
				c-0.7,0-1.2-0.5-1.2-1.2v-15.7c0-0.9,0.8-1.7,1.7-1.7h0.3c0.6,0,1.1,0.3,1.4,0.8l10.2,14.7v-14.2c0-0.7,0.5-1.2,1.2-1.2
				C113.5,142.4,114.1,142.9,114.1,143.6z"/>
		</g>
		<g>
			<path class="st3" d="M121.6,143.6v16.3c0,0.7-0.6,1.2-1.2,1.2c-0.7,0-1.2-0.5-1.2-1.2v-16.3c0-0.7,0.5-1.2,1.2-1.2
				C121.1,142.4,121.6,142.9,121.6,143.6z"/>
		</g>
		<g>
			<path class="st3" d="M141.9,159.9c0,0.7-0.4,1.2-1.2,1.2c-0.5,0-0.9-0.3-1.1-0.7l-1.7-4.1h-9l-1.7,4.1c-0.2,0.5-0.6,0.7-1.1,0.7
				c-0.7,0-1.2-0.5-1.2-1.2c0-0.2,0.1-0.3,0.1-0.5l6.7-15.9c0.2-0.6,0.7-1.1,1.5-1.1h0.3c0.8,0,1.3,0.5,1.5,1.1l6.7,15.9
				C141.8,159.5,141.9,159.7,141.9,159.9z M136.9,154l-3.6-8.6l-3.6,8.6H136.9z"/>
		</g>
	</g>
	<g>
		<path class="st4" d="M169,1v168H1V1H169 M170,0H0v170h170V0L170,0z"/>
	</g>
</g>
</svg>
