<?xml version="1.0" encoding="utf-8"?>
<!-- Generator: Adobe Illustrator 21.1.0, SVG Export Plug-In . SVG Version: 6.00 Build 0)  -->
<svg version="1.1" id="Livello_1" xmlns="http://www.w3.org/2000/svg" xmlns:xlink="http://www.w3.org/1999/xlink" x="0px" y="0px"
	 viewBox="0 0 170 170" style="enable-background:new 0 0 170 170;" xml:space="preserve">
<style type="text/css">
	.st0{fill:#FFFFFF;}
	.st1{fill:#E20613;}
	.st2{opacity:0.4;}
	.st3{fill:none;}
	.st4{opacity:0.5;}
	.st5{fill:#1D1D1B;}
	.st6{fill:#E01F21;}
</style>
<rect class="st0" width="170" height="170"/>
<g>
	<g>
		<g>
			<path class="st1" d="M169,1v168H1V1H169 M170,0H0v170h170V0L170,0z"/>
		</g>
	</g>
	<g class="st2">
		<g>
			<g>
				<g>
					<rect x="3.6" y="3.4" class="st3" width="162.9" height="162.9"/>
				</g>
			</g>
			<g class="st4">
				<g>
					<path class="st5" d="M130.2,93.2c-1.9,0-4.2-0.3-4.9-2l-0.1-0.3l-0.3,0.2c-1.3,0.9-2.7,1.3-4.1,1.3c-0.6,0-1.3-0.1-2-0.3
						c0,0-0.1,0-0.1-0.2c0-0.1,0.1-0.2,0.2-0.2c0.8,0.2,1.4,0.3,2,0.3c1.6,0,3-0.5,4.4-1.6c0,0,0.1-0.1,0.2-0.1s0.2,0,0.2,0.2
						c0.1,1.4,1.8,2.2,4.8,2.2c1.8,0,3.8-0.3,4.6-0.5c2.5-0.6,5.3-2.1,5.7-4.2c0.3-1.4-0.5-2.8-2.4-4.2c-0.6-0.5-1.3-0.9-1.9-1.3
						c-1.8-1.1-3.3-2-3.8-4.4c-0.5-2.1,0.3-4.2,2.4-6.5c0.4-0.5,0.9-0.9,1.5-1.4c1.1-1,2.3-2.1,2.9-3.5c2.3-4.8-0.6-9.2-2.9-12
						c-0.1-0.1-0.1-0.1,0-0.2c0-0.1,0.1-0.1,0.2-0.1c3.1,3.7,5.8,9,2.2,13.8c-0.6,0.8-1.4,1.6-2.1,2.3c-2,1.9-4,3.9-3.7,7.1
						c0.3,3.1,2.4,4.2,4.6,5.2c1.2,0.6,2.5,1.2,3.4,2.2c0.7,0.8,1,1.7,0.7,2.6c-0.6,2.1-3.6,4-5.5,4.6
						C134.7,92.8,132.4,93.2,130.2,93.2L130.2,93.2z"/>
				</g>
			</g>
			<g>
				<g>
					<path class="st5" d="M134.1,83.3c-4.4-1.4-4.9-6.7-4.8-9.7c0.1-2.1,0.2-4.4,1.3-6.4c0.6-1.1,1.4-2.2,2.1-3.2
						c1-1.4,2.1-2.8,2.7-4.5c0-0.1,0.1-0.1,0.2-0.1c0.1,0,0.1,0,0.2,0.1c0,0,0,0,0,0.1c-0.6,1.7-1.6,3-2.6,4.5c-0.7,0.9-1.4,1.9-2,3
						c-1.6,2.9-2.3,8.4-0.8,12.2c0.8,2,2.1,3.2,3.8,3.8c0.1,0,0.1,0.1,0.1,0.2C134.3,83.3,134.3,83.4,134.1,83.3
						C134.2,83.4,134.2,83.4,134.1,83.3z"/>
				</g>
			</g>
			<g class="st4">
				<g>
					<path class="st5" d="M130.8,88.7c-1.3,0-2.5-0.5-3.5-1.5c-0.1-0.1-0.1-0.1,0-0.2c0-0.1,0.1-0.1,0.2-0.1c0,0,0.1,0,0.1,0.1
						c0.9,0.9,2,1.4,3.2,1.4h0.2c0.9,0,2.8-0.5,3.2-1.6c0.2-0.6,0-1.3-0.8-2c-0.7-0.6-1.7-0.9-2.6-1.2c-0.5-0.2-1-0.3-1.3-0.5
						c-2.4-1.1-3.9-2.7-4.7-5.3c0-0.1,0-0.1,0-0.1s0.1-0.1,0.2-0.1s0.2,0.1,0.2,0.1c1.1,3.5,3.4,4.6,6.8,6l0.2,0.1
						c1.2,0.5,2.8,1.1,2.7,2.5c-0.1,1.3-1.6,2-2.8,2.3C131.6,88.7,131.2,88.7,130.8,88.7z"/>
				</g>
			</g>
			<g>
				<g>
					<path class="st5" d="M126,85.8C126,85.8,125.9,85.8,126,85.8l-0.4-0.2c-4.2-1.6-7.5-2.9-7.9-7.7c-0.3-4.2,2.7-6.2,6-8.4
						c1.2-0.8,2.5-1.7,3.6-2.7l0.1-0.1c0.1,0,0.2,0.1,0.2,0.1c0,0.1,0,0.1,0,0.1c-1,0.9-2.2,1.7-3.3,2.4c-1.7,1.1-3.5,2.2-4.7,3.9
						c-1.9,2.8-1.9,6,0.2,8.4c1.6,1.8,3.6,2.6,5.8,3.5l0.5,0.2c0.2,0.1,0.1,0.2,0.1,0.2C126.1,85.7,126,85.8,126,85.8z"/>
				</g>
			</g>
			<g>
				<g>
					<path class="st5" d="M113.8,93c-0.6,0-1.1-0.1-1.6-0.4c-0.4-0.3-0.7-0.6-1-1l-0.1-0.1c-0.6-0.7-1.2-1.1-1.8-1.5
						c-0.2-0.2-0.5-0.3-0.7-0.5c-0.9-0.7-1.8-1.9-1.5-3.3c0.2-1.1,1-2.1,1.9-3c0.5-0.5,1-1.1,1.3-1.6c0-0.1,0.1-0.1,0.1-0.1
						c0.1,0,0.2,0,0.2,0.1v0.1c-0.3,0.5-0.7,1-1,1.4c-0.2,0.3-0.5,0.6-0.7,1c-0.9,1.3-1.3,2.3-1.1,3.2c0.2,0.9,0.8,1.6,2.2,2.5
						c0.4,0.3,0.7,0.5,1,0.9l0.5,0.4c0.6,0.6,1.5,1.4,2.4,1.6c0.1,0,0.2,0,0.4,0c0.7,0,1.6-0.4,2.2-0.7l0.4-0.2l0,0
						c0.1,0,0.1,0.1,0.1,0.1s0,0.2-0.1,0.3C115.8,92.7,114.8,93,113.8,93z"/>
				</g>
			</g>
			<g>
				<g>
					<path class="st5" d="M85.6,57.6c-0.1,0-0.2-0.1-0.2-0.1c-0.1-0.2-0.2-0.5-0.2-1c0.1-1.1,0.7-1.9,1.9-2.7
						c0.4-0.3,0.9-0.5,1.4-0.8c0.2-0.1,0.4-0.2,0.6-0.3c0.4-0.1,0.7-0.3,1-0.7c0.4-0.3,0.5-0.6,0.4-1.1v-0.1c0-0.1,0-0.2,0.1-0.3
						c0.3-0.4,0.7-0.5,1.4-0.5c0.6,0,1.2,0.2,1.5,0.3c0.1,0,0.1,0.1,0.1,0.2c0,0.1,0,0.1-0.1,0.1c-0.5-0.1-0.9-0.3-1.3-0.3
						c-0.7,0-1.1,0.3-1.4,0.9c-0.1,0.2,0,0.3,0,0.4v0.1c-0.2,0.4-0.3,0.6-0.7,0.8c-0.4,0.2-0.7,0.4-1.1,0.5
						c-0.4,0.2-0.9,0.4-1.3,0.6l-0.2,0.1c-0.4,0.2-0.8,0.5-1.1,0.8c-0.2,0.2-0.5,0.9-0.9,1.7c-0.1,0.3-0.2,0.5-0.3,0.6l0.1-0.1
						l0.1,0.6l0,0C85.5,57.3,85.6,57.4,85.6,57.6c0,0-0.1,0.1-0.1,0.1C85.7,57.6,85.6,57.6,85.6,57.6z"/>
				</g>
			</g>
			<g>
				<g>
					<path class="st5" d="M92.5,56.3c-0.7,0-1.2-0.2-1.6-0.6c-0.3-0.3-0.4-0.8-0.4-1.2c0.1-0.4,0.3-0.7,0.6-0.8c0,0,0,0,0.1,0
						c0.2,0,0.2,0.1,0.2,0.2c0,0,0,0.1-0.1,0.1c-0.3,0.1-0.5,0.3-0.5,0.6c-0.1,0.3,0,0.6,0.2,0.8c0.3,0.3,0.7,0.5,1.3,0.5h0.2
						c0.4,0,0.8-0.1,1.2-0.1c0.3,0,0.6-0.1,0.8-0.1l0,0c0,0,0.1,0,0.1,0.1c0,0,0,0.2-0.2,0.2c-0.3,0-0.6,0.1-0.9,0.1
						C93.3,56.3,92.9,56.3,92.5,56.3z"/>
				</g>
			</g>
			<g>
				<g>
					<path class="st5" d="M102.7,58.9C102.7,58.9,102.6,58.9,102.7,58.9l-0.1-0.3l-0.1-0.1c-0.7-0.3-1.5-1.1-1.3-1.7l0.2-0.5
						l-0.6,0.2c-0.9,0.3-1.5,0.7-2,1.3h-0.1c-0.1,0-0.1,0-0.1-0.1s0-0.1,0-0.2c1.2-1.4,3.4-1.7,5-1.7c1.4,0,2.7,0.2,3.5,0.4
						c0,0,0.1,0,0.1,0.1s-0.1,0.2-0.2,0.2l0,0c-0.8-0.2-1.6-0.3-2.5-0.3l-0.9-0.1l0.7,0.6c0.1,0.1,0.1,0.1,0.2,0.2V57l0.1,0.1
						c0.1,0,0.1,0.1,0.1,0.1c0,0.8-0.6,1.4-1.2,1.5C103.2,58.8,102.9,58.9,102.7,58.9L102.7,58.9z"/>
				</g>
			</g>
			<g class="st4">
				<g>
					<path class="st5" d="M84.2,65.1C84.2,65.1,84.1,65.1,84.2,65.1c-0.5-0.5-0.7-1-0.5-1.5c0.1-0.6,0.7-1.2,1.4-1.4
						c0.1,0,0.6-0.1,1.1-0.2h0.2l0.1-0.1c0.3-0.7,1.2-1.1,1.9-1.4c0.2-0.1,0.4-0.2,0.5-0.3c1.2-0.6,2.5-1.2,3.7-1.8h0.1
						c0.1,0,0.1,0.1,0.2,0.1l0.1,0.2l0.4-0.1c0.6-0.1,1.1-0.2,1.7-0.2c1.2,0,2.4,0.3,3.6,0.9c0.1,0,0.1,0.1,0.1,0.1
						c0,0.1-0.1,0.2-0.2,0.2l0,0c-1.2-0.6-2.4-0.9-3.5-0.9c-0.5,0-0.9,0-1.3,0.1c-0.6,0.1-2.4,0.6-3.2,1.4L90,60.6l1,0.1
						c1.4,0.2,2.7,0.6,3.9,0.9c0.1,0,0.1,0.1,0.1,0.2c0,0.1,0,0.2-0.1,0.2c-0.9-0.3-1.8-0.5-2.6-0.7h-0.1c-0.4-0.1-1.5-0.3-2.1-0.3
						c-0.2,0-0.6,0-0.7,0.3c0,0.1-0.1,0.1-0.1,0.1c-0.1,0-0.2,0-0.2-0.1c0,0,0-0.1,0-0.2c0-0.1,0.1-0.1,0.1-0.2l-0.3-0.5
						c-0.6,0.3-1.3,0.6-1.8,1l-0.6,0.5h0.8c0.6,0,0.9,0.1,1,0.2c0,0.1,0,0.2-0.1,0.3c0,0.1-0.1,0.1-0.1,0.1c-0.1,0-0.1-0.1-0.2-0.1
						l-0.1-0.2l-0.2,0.1c0,0-0.2,0-0.8,0.1h-0.1c-0.4,0-0.8,0.1-1.1,0.2c-0.6,0.2-1.4,0.6-1.5,1.2C84,64.1,84,64.5,84.5,65
						c0,0,0.1,0.1,0,0.2C84.3,65.1,84.3,65.1,84.2,65.1z"/>
				</g>
			</g>
			<g class="st4">
				<g>
					<path class="st5" d="M118.1,89.5c-1.5,0-2.6-0.5-3.2-1.4c0-0.1,0-0.1,0-0.1c0-0.1,0.1-0.1,0.2-0.1s0.1,0,0.1,0.1v0.1h0.1
						c1.6,0.7,2.8,1.1,3.5,1.1c0.5,0,0.8-0.2,1-0.5c0.3-0.6-0.1-1.6-1.2-3.3v-0.1h-0.1c-0.9-0.4-1.9-0.8-2.8-1.2l-0.4-0.2
						c-0.5-0.2-1.1-0.5-1.5-0.8c-1.1-0.9-2-2-2.3-3.3c-0.4-1.5-0.1-3,0.8-4.7l0.2-0.3l0.2-0.3c1.2-1.8,3.1-3.4,4.6-4.6
						c1.7-1.4,3.8-2.5,6-3.7l1.2-0.7l-0.6-0.2c0,0-0.1-0.1-0.1-0.2s0.1-0.2,0.1-0.2c2.7-1.9,2.8-4,2.3-5.5c-1-3.2-5.7-6.4-9.4-6.4
						c-0.1,0-0.3,0-0.3,0c-0.1,0-0.1,0-0.1-0.1c0,0,0-0.2,0.2-0.2c0.1,0,0.3,0,0.4,0c3.4,0,7.6,2.4,9.2,5.2c1.3,2.3,0.7,5.1-1.5,7
						l0.3,0.5c1.4-0.8,2.4-1.4,3.4-2l0.4-0.3l-0.5-0.2c-0.1,0-0.1-0.1-0.1-0.1v-0.1c1-1.8,1.3-3.5,0.8-5.1c-1-3.1-4.4-5-6.4-5.9
						c-0.1,0-0.1-0.1-0.1-0.1c0-0.1,0.1-0.2,0.2-0.2c3.4,1.5,5.7,3.7,6.5,6.1c0.6,1.7,0.4,3.4-0.6,5.2l0.4,0.4
						c1.1-0.8,1.9-1.5,2.6-2.3l0.3-0.3l-0.4-0.1c-0.1,0-0.1-0.1-0.1-0.1v-0.1c0.7-1.5,0.6-3.1-0.3-4.7c-1.2-2.2-3.9-4.1-6.4-4.5
						c-0.1,0-0.1,0-0.1-0.1s0.1-0.2,0.2-0.2c2.4,0.4,5,2,6.3,4.2c0.7,1.1,1.4,2.9,0.8,4.9l0.5,0.3c1.4-1.9,1.9-3.7,1.3-5.4
						c-0.7-2-3-3.6-6-4.3c-1.4-0.3-2.9-0.5-4.6-0.5c-2,0-4,0.2-5.8,0.4l0,0c0,0-0.1,0-0.1-0.1s0-0.2,0.2-0.2c1.5-0.2,3.7-0.4,6-0.4
						c6.3,0,9.9,1.6,10.8,4.8c1.6,5.6-4.8,9.2-9.6,11.8c-0.9,0.5-1.7,0.9-2.4,1.4l-0.2,0.1c-4.1,2.5-10.9,6.8-10.2,12.5
						c0.4,2.7,2.7,3.6,4.9,4.5c1.7,0.6,3.3,1.2,4.1,2.6c0.4,0.6,0.4,1.1,0.2,1.6C120.7,89,119.5,89.5,118.1,89.5z M112.1,74.6
						c0,0-0.2,0-0.2-0.2c-0.2-1.6-0.7-3.2-1.4-4.7c0-0.1,0-0.1,0-0.2s0.1-0.1,0.2-0.1c0,0,0.1,0,0.1,0.1c0.7,1.5,1.2,3.1,1.5,4.8
						v0.2L112.1,74.6z"/>
				</g>
			</g>
			<g>
				<g>
					<path class="st5" d="M113,71.8c-0.1,0-0.2-0.1-0.2-0.1l-0.9-2.8c0-0.1,0-0.1,0-0.1s0.1-0.1,0.2-0.1s0.2,0.1,0.2,0.1l0.9,2.8
						c0,0.1,0,0.1,0,0.1C113.2,71.8,113.1,71.8,113,71.8z"/>
				</g>
			</g>
			<g>
				<g>
					<path class="st5" d="M113.9,69.5c-0.1,0-0.2-0.1-0.2-0.1l-0.4-1.3c0-0.1,0-0.1,0-0.1s0.1-0.1,0.2-0.1s0.2,0.1,0.2,0.1l0.4,1.3
						c0,0.1,0,0.1,0,0.1C114,69.4,113.9,69.5,113.9,69.5z"/>
				</g>
			</g>
			<g>
				<g>
					<path class="st5" d="M116.4,69.3L116.4,69.3l-0.1-0.2c0.1-1.3,0.3-2.6-0.2-3.9c-0.5-1.3-1.6-1.9-2.7-2.5c0,0-0.1-0.1-0.1-0.2
						c0-0.1,0.1-0.2,0.2-0.2c1.1,0.6,2.3,1.3,2.9,2.5c0.6,1.3,0.5,2.7,0.3,4.3C116.6,69.3,116.4,69.3,116.4,69.3z"/>
				</g>
			</g>
			<g>
				<g>
					<path class="st5" d="M119.2,67.8c-0.1,0-0.1,0-0.2-0.1c0,0-0.1-0.1,0-0.2c0.3-1.8,0.4-4.4-1.5-5.8c-1.3-1-3-1.7-4.3-2.1
						c-0.1,0-0.1-0.1-0.1-0.2c0,0,0-0.1,0.1-0.1c1.9,0.6,4.2,1.5,5.3,2.8C119.4,63.3,119.7,65.1,119.2,67.8
						C119.3,67.8,119.2,67.8,119.2,67.8z"/>
				</g>
			</g>
			<g>
				<g>
					<path class="st5" d="M121.4,65.6C121.3,65.6,121.3,65.6,121.4,65.6c0-2,0-4.5-2.2-6.4c-1.6-1.5-3.8-2-5.8-2.4
						c-0.1,0-0.1,0-0.1-0.1s0.1-0.2,0.2-0.2c2,0.4,4.5,1,6.3,2.8c1.5,1.5,2,3.4,1.8,6.2C121.6,65.6,121.4,65.6,121.4,65.6z"/>
				</g>
			</g>
			<g>
				<g>
					<path class="st5" d="M113.7,40.8C113.7,40.8,113.8,40.8,113.7,40.8L113.7,40.8z"/>
				</g>
			</g>
			<g>
				<g>
					<path class="st5" d="M137.6,52.7c-0.1,0-0.1-0.1-0.2-0.1c0-0.1,0-0.1,0-0.2c1-1.1,1.4-2.3,1.1-3.4c-0.4-1.5-1.8-2.8-3.9-3.6
						c-0.7-0.2-1.6-0.6-2.3-0.6c-0.5,0-0.9,0.1-1.1,0.4l0.4,0.4l-0.2,0.1l-0.2-0.1l-0.1-0.2c0,0.1-0.2,0.5-0.3,0.7
						c-0.1,0.1-0.1,0.2-0.1,0.3l-0.4,0.4l0.4,0.2c2.5,0.8,4.6,2.4,6,4.7c0,0.1,0,0.1,0,0.1c0,0.1-0.1,0.1-0.2,0.1
						c-0.1,0-0.1,0-0.1-0.1c-1.5-2.4-3.8-4-6.6-4.7c-0.1,0-0.1-0.1-0.1-0.1v-0.1c0.6-0.4,1-1,0.9-1.9c0-0.1,0.1-0.1,0.1-0.2
						c0.4-0.1,0.8-0.1,1.3-0.1c2.7,0,5.6,1.6,6.5,3.7C139.3,49.7,139,51.2,137.6,52.7L137.6,52.7z"/>
				</g>
			</g>
			<g>
				<g>
					<path class="st5" d="M114.2,47.6C114.1,47.6,114.1,47.5,114.2,47.6c-0.1-0.1-0.1-0.3,0-0.3c2-0.8,4.2-1.2,6.3-1.4h0.1h0.1h0.1
						h0.2c0.3,0,0.6,0,0.9,0c0.5,0,1,0,1.5,0.1h0.3v-0.3c0-0.1,0.1-0.1,0.2-0.1s0.1,0,0.1,0v0.1V46l1,0.1l0.1-0.2
						c0-0.1,0.1-0.1,0.1-0.1s0.1,0,0.1,0.1v0.2h0.2c0.5,0.1,0.9,0.2,1.4,0.3c0,0,0.1,0,0.1,0.2c0,0.1-0.1,0.2-0.2,0.2
						c-1.7-0.4-3.4-0.6-5.1-0.6C119.3,46.1,116.7,46.6,114.2,47.6L114.2,47.6z"/>
				</g>
			</g>
			<g>
				<g>
					<path class="st5" d="M121.8,44.4c-0.1,0-0.2-0.1-0.2-0.2c0-0.1,0.1-0.2,0.2-0.2s0.2,0.1,0.2,0.2
						C121.9,44.3,121.8,44.4,121.8,44.4z"/>
				</g>
			</g>
			<g>
				<g>
					<path class="st5" d="M119.9,45L119.9,45v-1.4l0.1-1.3c0-0.2,0.2-0.2,0.2-0.2h0.1l-0.1,1.4l-0.1,1.3C120.1,45,119.9,45,119.9,45
						z"/>
				</g>
			</g>
			<g>
				<g>
					<path class="st5" d="M123.2,45c-0.1,0-0.1,0-0.2-0.1c0,0,0-0.1,0-0.2l0.4-2c0-0.1,0-0.1,0.1-0.1s0.1,0,0.2,0.1c0,0,0,0.1,0,0.2
						L123.2,45C123.3,45,123.2,45,123.2,45z"/>
				</g>
			</g>
			<g>
				<g>
					<path class="st5" d="M118.5,45.2c-0.1,0-0.1,0-0.2-0.1c0,0,0-0.1,0-0.2l0.2-0.9c0-0.1,0-0.1,0.1-0.1s0.1,0,0.2,0.1
						c0,0,0,0.1,0,0.2L118.5,45.2C118.6,45.1,118.5,45.2,118.5,45.2z"/>
				</g>
			</g>
			<g class="st4">
				<g>
					<path class="st5" d="M139.4,69.1c-0.1,0-0.2-0.1-0.2-0.1c0-0.1,0-0.1,0-0.2c2.8-2.7,4.4-6,4.3-8.9c-0.1-2.4-1.2-4.6-3.3-6.3
						c-0.1-0.1-0.1-0.1,0-0.1c0-0.1,0.1-0.1,0.2-0.1h0.1c2.6,2.2,3.7,4.9,3.3,8.3c-0.3,3.1-1.9,5.1-4.3,7.5
						C139.5,69.1,139.4,69.1,139.4,69.1z"/>
				</g>
			</g>
			<g>
				<g>
					<path class="st5" d="M147.7,121.6C147.6,121.6,147.6,121.6,147.7,121.6c-1.2-1.3-1.9-2.8-2.4-4.3l-0.1-0.2H145
						c-0.1,0-0.1-0.1-0.2-0.1c-0.8-2.4-1.6-4.8-1.8-7.4c-0.1-1.5,0.3-2.9,0.6-4.3c0.3-1.2,0.6-2.4,0.6-3.7c0-0.1,0.1-0.2,0.2-0.2
						h0.1l0.4-0.4c-0.3-0.6-0.6-1-1-1.5c0-0.1-0.1-0.1,0-0.2c0-0.1,0.1-0.1,0.1-0.2l0.4-0.2l-0.3-0.3c-0.4-0.4-0.9-0.8-1.3-1.1
						c-0.1-0.1-0.1-0.1,0-0.2c0-0.1,0.1-0.1,0.2-0.1c0,0,0.1,0,0.1,0.1l0.2,0.2c1,1,2.3,2.2,3.8,2.5c0.3,0.1,0.7,0.1,1,0.1
						c1.3,0,2.5-0.5,3.3-1.6c1.2-1.3,1.7-3.4,1.5-5.2c-0.1-0.8-0.6-1.4-1-2s-0.8-1.1-0.8-1.8c0-0.7,0.6-1.4,1.2-2.2
						c0.5-0.7,1.1-1.4,1.3-2.2c0.9-3.2,0.5-6.3-1.1-8.9l-0.3-0.5l-0.2,0.6c-0.2,0.5-0.3,1-0.5,1.4c-0.3,0.8-0.7,1.5-1.1,2.1
						c-1.1,1.9-2.1,3.6-1.2,6.6c0.1,0.3,0.2,0.5,0.2,0.8c0.4,1.3,0.8,2.3,0.4,3.7c-0.6,2.1-4.7,5.4-7.4,5.4c-1.3,0-2.1-0.8-2.4-2.2
						c0-0.1,0-0.2,0.1-0.2l0.2-0.1V94c0.3,1.7,1.4,2.1,2.3,2.1c1.9,0,4.4-1.7,5-2.5c1.7-2,2.2-4.1,1.6-6.2c-0.1-0.4-0.3-0.8-0.4-1.1
						c-0.3-0.9-0.6-1.6-0.5-2.7c0.1-1.3,0.9-2.5,1.5-3.6l0.2-0.3c2.3-3.9,2.7-7.9,1.1-10.9c0-0.1,0-0.1,0-0.2s0.1-0.1,0.2-0.1
						c0,0,0.1,0,0.1,0.1c1.1,2,1.4,4.2,0.9,6.6v0.1l0.1,0.1c2.1,2.9,2.6,6.1,1.6,9.9c-0.2,0.7-0.7,1.4-1.1,2
						c-0.5,0.6-0.9,1.3-1.1,1.9c-0.2,0.9,0.3,1.8,0.8,2.8c0.4,0.7,0.8,1.5,0.9,2.1c0.2,2.2-1.3,4.9-3.4,5.9
						c-0.6,0.3-1.1,0.4-1.7,0.4c-1.1,0-2.2-0.4-3.4-1.3l-0.4,0.4c1.6,2.2,2.1,4.4,1.7,6.8c-0.1,0.8-0.3,1.5-0.4,2.2l-0.2,1.3
						l0.7-0.3c1.4-0.7,2.9-1.4,4.1-2.4c2.2-1.7,2.7-4.7,1.2-7.1c0-0.1,0-0.1,0-0.1c0-0.1,0.1-0.1,0.2-0.1c0.1,0,0.1,0,0.1,0.1
						c1.2,1.9,1.2,4.1,0.1,6c-1.1,1.9-3.5,3-5.6,4c-0.3,0.1-1,0.5-1,0.5v0.1c-0.6,3.3-0.9,6.9,2.2,10.6c0.1,0.1,0.1,0.1,0,0.2
						C147.8,121.5,147.7,121.6,147.7,121.6z M144.7,101.5L144.7,101.5c0,1.2-0.3,2.3-0.6,3.4c-0.2,1-0.5,2-0.6,3
						c-0.1,1.7,0.1,3.5,0.6,5.7l0.6-0.1c0-0.7,0.1-1.5,0.2-2.3V111l-0.2-0.1c-0.1,0-0.1-0.1-0.1-0.2c0,0,0-0.1,0.1-0.1l0.4-0.2v-0.1
						c0.1-0.4,0.2-0.8,0.3-1.2c0.6-2.6,1.1-5.1-0.1-7.7L144.7,101.5z M142,94c-0.4,0-0.7-0.1-1.2-0.2l-0.3-0.1l-0.3-0.1
						c-0.3-0.1-0.7-0.3-1-0.5c-0.4-0.2-0.7-0.4-1.1-0.5c-0.2-0.1-0.1-0.2-0.1-0.3c0,0,0-0.1,0.1-0.1l0.6,0.2c1.1,0.5,2.1,0.9,3,0.9
						c1.1,0,2-0.6,2.9-1.8c2.6-3.8,2.2-7.2-1.3-10.4c-1.5-1.4-2.4-2.3-2.1-4.5v-0.2l-0.2-0.1c-0.1,0-0.1-0.1-0.1-0.2l0.2-0.1
						l0.1-0.1l0.1-0.2c0.5-1.7,1.7-3.1,2.9-4.5c0.7-0.9,1.5-1.8,2.1-2.7c1.7-2.8,2.2-5.5,1.5-8.1c-0.8-3.1-3.2-5.9-6.9-8
						c0,0-0.1-0.1-0.1-0.2c0-0.1,0.1-0.2,0.2-0.2c4.5,2.6,7,5.6,7.5,9v0.2h0.2c0.1,0,0.1,0,0.1,0.1c1.4,2.2,1.7,4.4,1.1,6.6
						c-0.9,3.1-4,6.1-8.3,8.1l-0.1,0.1v0.1c-0.1,0.4-0.1,0.8-0.1,1.2c0.1,1.4,1.4,2.6,2.6,3.8c1,1,2.1,2,2.5,3.1
						c0.5,1.6,0.3,3.5-0.5,5.3c-0.5,1.2-1.8,3.6-3.1,4.1C142.6,93.9,142.3,94,142,94z M148.6,62.7L148.6,62.7c0,0.3,0,0.5,0,0.7
						c-0.2,1.7-0.8,3.5-2,5.3c-0.5,0.8-1.2,1.6-1.9,2.5c-1.1,1.2-2.2,2.5-2.8,3.9l-0.3,0.7l0.7-0.4c2.4-1.2,10.1-5.9,6.9-12.8
						L148.6,62.7z"/>
				</g>
			</g>
			<g class="st4">
				<g>
					<path class="st5" d="M147.3,82.4C147.2,82.4,147.2,82.4,147.3,82.4c-1.3-0.6-1.3-2.7-1.1-4c0.3-1.3,2-2,3.2-2.5l0.4-0.1l0,0
						c0.1,0,0.1,0.1,0.1,0.1s0,0.2-0.1,0.2l-0.3,0.1c-0.9,0.3-2.2,0.8-2.7,1.5c-0.5,0.6-0.5,2-0.2,3c0.1,0.5,0.4,1.1,0.9,1.3
						c0.1,0,0.1,0.1,0.1,0.1C147.5,82.3,147.3,82.4,147.3,82.4z"/>
				</g>
			</g>
			<g>
				<g>
					<path class="st5" d="M127.8,111.4C127.7,111.4,127.7,111.3,127.8,111.4c-0.1-0.2-0.1-0.3,0-0.3c1.4-0.9,3.2-2.2,2.5-4.5
						c0-0.1,0.1-0.2,0.1-0.2c0.7-0.2,1.4-0.5,2.1-0.7c3.5-1.1,7.5-2.4,9-5.8c0-0.1,0.1-0.1,0.2-0.1c0.1,0,0.1,0,0.2,0.1
						c-1.3,3.3-4.4,4.4-7.6,5.6l-0.5,0.2c-0.2,0.1-0.4,0.1-0.7,0.2c-0.8,0.2-1.7,0.5-2.2,1.2l-0.1,0.2l0.1,0.1
						c0,0.4-0.2,1.4-0.2,1.5c-0.5,1.2-1.6,1.9-2.6,2.6L127.8,111.4z"/>
				</g>
			</g>
			<g class="st4">
				<g>
					<path class="st5" d="M118.2,111.9c-0.1,0-0.2-0.1-0.2-0.1c0-0.1,0-0.1,0-0.1c1.3-1.2,2.6-2.6,2.6-4.7c0-1.9-1.2-2.8-2.5-3.8
						l-0.2-0.2c-0.7-0.5-1.1-0.9-1.2-1.7c-0.3-2.4,2.3-3.3,4.6-3.7l0,0c0.2,0,0.2,0.1,0.2,0.2s0,0.1-0.1,0.1h-0.1
						c-1.1,0.2-3.7,0.6-4.2,2.1c-0.3,0.8,0.1,1.7,1.1,2.8c0.2,0.2,0.5,0.4,0.8,0.5c0.2,0.1,0.5,0.2,0.6,0.4c0.7,0.6,1.1,1.4,1.2,2.3
						C121.2,108.5,119.4,110.5,118.2,111.9C118.2,111.9,118.2,111.9,118.2,111.9z"/>
				</g>
			</g>
			<g class="st4">
				<g>
					<path class="st5" d="M89.1,102.7c-0.1,0-0.3,0-0.4-0.1c-0.8-0.4-1-1.4-1-2.1c0-1.3,0.3-2.7,0.6-3.6c0.4-1.1,1.3-1.8,2.4-2.6
						c0,0,0,0,0.1,0s0.1,0.1,0.1,0.1c0,0.1,0,0.2-0.1,0.2c-1.9,1.4-2.4,2.7-2.7,4.7c0,0.1,0,0.2-0.1,0.3c-0.1,0.3-0.1,0.6-0.1,0.9
						c0.1,0.5,0.7,1.3,1.4,1.3h0.2c0.2,0,0.3-0.2,0.6-0.4c0.2-0.1,0.4-0.3,0.5-0.3l0,0c0.1,0,0.2,0.1,0.2,0.1c0,0.1,0,0.2-0.1,0.2
						c-0.4,0.2-0.7,0.5-1,0.8C89.5,102.5,89.4,102.7,89.1,102.7z"/>
				</g>
			</g>
			<g>
				<g>
					<path class="st5" d="M102.4,110.5C102.3,110.5,102.3,110.5,102.4,110.5c-0.7-0.2-1.4-0.3-2.1-0.4c-0.9-0.1-1.8-0.3-2.6-0.7
						c-0.9-0.5-1.9-1.8-1.7-2.9l0.1-0.2v0.1l0,0c0.1,0,0.1,0,0.1,0c-0.2,1.9,1.7,3,3,3.2c0.4,0.1,0.8,0.1,1.1,0.2
						c0.7,0.1,1.3,0.2,1.9,0.4c0.1,0,0.1,0.2,0.1,0.2C102.5,110.4,102.5,110.5,102.4,110.5z M87.9,106.8c-0.6,0-1.2,0-1.9,0
						c-0.6,0-1.2,0-1.8,0h-1.3c-3,0-6.1-0.2-9.1-0.3c-3-0.2-6.1-0.3-9.1-0.3c-1.3,0-2.5,0-3.7,0.1l0,0c-0.1,0-0.1,0-0.1-0.1
						c0,0,0-0.2,0.2-0.2c1.1-0.1,2.2-0.1,3.4-0.1c2.9,0,5.8,0.2,8.6,0.3c2,0.1,4.2,0.2,6.3,0.3c1.1,0,2.1,0,3.2,0c1.8,0,3.7,0,6-0.1
						c0.2,0,0.3,0,0.5,0h1.1l0,0h0.5c0.7,0,1.5,0,2.2-0.2c2.9-0.6,3.4-1.1,4-1.9c0.2-0.2,0.4-0.5,0.8-0.8l0.4-0.4l-0.6-0.1
						c-0.2,0-0.4-0.1-0.6-0.1c-3.6-0.8-6.4-1.8-5.8-5.6c0.3-2.2,1.7-7.4,6.4-9h0.1l0.1-0.1c0.8-1.6,2.7-2.8,5.2-3.4h0.1h0.1h0.3
						l0.1-0.3v-0.2c0-0.3-0.1-0.6-0.2-0.8c-0.2-0.4-0.4-0.8-0.8-1.1c-0.7-0.6-1.5-0.9-2.3-1.2h-0.1c-0.1,0-0.1-0.2-0.1-0.2
						s0-0.1,0.1-0.1c1.5,0.6,2.9,1.1,3.5,2.5c0.1,0.3,0.2,0.6,0.2,0.9v0.5l0.4-0.3c0.6-0.4,1.2-0.7,1.8-1c0.7-0.4,1.4-0.7,2.1-1.2
						c1.4-0.9,2.2-2.1,2.3-3.4c0.1-2.3-1.6-5-5.2-8.1c-0.1-0.1-0.3-0.2-0.3-0.2l-0.4,0.3c0.1,0.1,0.1,0.2,0.1,0.3
						c0.1,0.5,0.1,0.9-0.2,1.2c-0.6,1-2.4,1.5-3.7,1.7c-0.5,0.1-1,0.1-1.6,0.1c-0.5,0-0.9,0-1.4,0s-0.9,0-1.4,0c-0.4,0-0.7,0-1.1,0
						c-1.5,0.1-3.1,0.5-4.6,1c-1.1,0.4-2.2,0.8-3.2,1.4c-0.7,0.6-1.4,1-2.1,1.3l-0.5,0.2l0.5,0.3l0.1,0.1l-0.1,0.3h-0.1
						c-0.2,0-0.3-0.1-0.3-0.1v-0.2l-0.2-0.1c-0.1,0-0.1-0.1-0.1-0.2c-0.1-0.6,0-1.2,0.3-1.8l0.2-0.3L84.8,76
						c-1.1-0.3-1.6-1.2-2.2-2.5c-0.8-1.8-0.7-3,0.3-4.4c0,0,0.1,0,0.1-0.1l-0.1-0.6l0,0c-0.1,0-0.2-0.1-0.2-0.2v-0.1h0.1l0.3-0.2
						l-0.2-0.3h-0.1l0.1,0.1l-0.4-0.2l-0.1,0.3V68l0,0h-0.1L82,68.5l0.1,0.1c0,0.1,0,0.1-0.1,0.2c-0.3,0.2-0.6,0.3-1.1,0.3
						c-0.9,0-2-0.4-2.6-0.9c-1.3-1.1-1-3-0.4-4.2c2.5-4.6,8.7-6.7,13.4-6.7c0.2,0,0.3,0,0.5,0s0.2,0.1,0.2,0.2c0,0.1,0,0.2-0.1,0.2
						c-0.2,0-0.4,0-0.6,0c-3,0-5.8,0.7-8.2,2.1c-1.4,0.8-2.5,1.7-3.4,2.7c-1.4,1.6-1.5,1.7-0.8,3.9v0.1c0.3,0.8,0.7,2.3,1.9,2.3
						c0.2,0,0.5-0.1,0.7-0.2h0.1v-0.1l0.1-0.1l0.3-0.5c0,0,0,0,0-0.1c0-0.4,0.1-0.6,0.3-0.8c0.1-0.1,0.2-0.1,0.2-0.1
						c0.1,0,0.3,0.1,0.5,0.2c0.1,0.1,0.4,0.3,0.4,0.6c0,0.1-0.1,0.3-0.1,0.3s-0.1,0.1-0.2,0.1v0.6c0.1,0,0.2,0.1,0.2,0.1s0,0,0,0.1
						c-0.9,1.3-1,2.4-0.4,4.1c0.5,1.1,1,2.1,2.3,2.4h0.2l0.1-0.1c0.3-0.3,0.6-0.6,1-0.9l0.1-0.1l0.3-0.2c1-0.6,2.2-1,3.2-1.4
						l0.6-0.2c3.2-1.3,6.1-1.5,8.5-1.5c1.1,0,2.3,0,3.6,0.1h0.4l-0.5-1.5l-2.3-0.9c-1.2-0.3-2.3-0.5-3.6-0.5
						c-4.6,0-8.6,2.2-10.4,5.6v0.1h-0.1c-0.1,0-0.1-0.1-0.2-0.1c0-0.1,0-0.1,0-0.2c1.7-3.5,4.4-5.1,9.2-5.6c0.4,0,0.9-0.1,1.5-0.1
						c1,0,2.8,0.1,4.6,0.6l0.2-0.5c-1.9-1.2-3.4-2.5-3-5.4c0.2-1.2,0.5-1.9,1.6-2.5c0.5-0.3,1-0.3,1.6-0.4c0.2,0,0.4-0.1,0.6-0.1
						c1.2,0,2.3-0.2,3.5-0.6c1.4-0.2,2.2-0.7,2.5-1.4c0.3-0.8,0-1.8-1-3l-0.2-0.2l-0.2,0.2h-0.1c-1.4-0.6-2.7-0.9-4-0.9
						c-0.2,0-0.4,0-0.5,0c-1.7,0.1-2.8,1.1-3.7,2.1c0,0.1-0.1,0.1-0.1,0.1c-0.1,0-0.1-0.1-0.2-0.1c0-0.1,0-0.1,0-0.2
						c1.1-1.2,2-2,3.5-2.2c0.3,0,0.7-0.1,1-0.1c1,0,2,0.2,3.1,0.6l0.7,0.3l-0.4-0.7v-0.1c0-0.1,0-0.1,0.1-0.1l0.5-0.3
						c0,0-1.1-0.4-1.3-0.4c-1.5-0.5-2.6-0.7-3.7-0.7c-1,0-2.1,0.2-3.2,0.6c-0.2,0.1-0.4,0.2-0.7,0.3c-0.4,0.2-0.9,0.4-1.2,0.5
						c-0.2,0-0.4,0-0.5,0.1c-0.1,0-0.3,0-0.4,0c-0.2,0-0.3-0.1-0.8-0.4c-0.5-0.4-0.8-0.8-0.8-1.3c0-0.6,0.3-1.3,0.9-1.9
						c0.6-0.6,2.5-0.9,4.1-1.1v-0.6c-1.3-1-1.8-2.1-1.7-3.2c0.1-1.1,1-2.1,2.5-2.8l-0.1-0.5l0,0c-0.1,0-0.1,0-0.1,0
						c0-0.8,0.1-1.4,0.5-1.9c0.3-0.5,0.8-0.6,1.4-0.7h0.1c0.1,0,0.2,0.1,0.2,0.2c0,0.1,0,0.1-0.1,0.1h-0.2c-0.4,0.1-0.8,0.1-1.1,0.5
						c-0.3,0.4-0.4,1-0.4,1.4c0,0.1,0,0.1-0.1,0.2l0.3,0.5h0.1c0.1,0,0.2-0.1,0.2-0.1c0.4-0.1,0.7-0.2,1.1-0.2s0.9,0.1,1.3,0.2
						c0.5,0.1,0.9,0.2,1.5,0.2c0.2,0,0.5,0,0.7-0.1c0.8-0.1,1.3-0.5,1.9-0.9c0.4-0.3,0.8-0.6,1.4-0.8c1.2-0.4,2.4-0.6,3.7-0.6
						c0.8,0,1.7,0.1,2.6,0.3c0.1,0,0.3,0.1,0.4,0.2c0.2,0.2,0.5,0.3,0.7,0.3l0,0c0.8,0,1.3-0.3,1.9-0.6c0.3-0.2,0.6-0.4,1-0.5
						c0.7-0.3,1.6-0.4,2.5-0.4c2.5,0,5.6,1.1,6.8,3.5c0,0.1,0,0.1,0,0.2c0,0.1-0.1,0.1-0.2,0.1c0,0-0.1,0-0.1-0.1
						c-0.9-1.8-3.3-3-5.2-3.1c-0.4,0-0.8-0.1-1.1-0.1c-1.8,0-3.2,0.5-4.6,1.4l0.2,0.5c0.4-0.1,0.7-0.2,1-0.3
						c0.9-0.3,1.6-0.5,2.6-0.5c0.3,0,0.7,0,1,0.1c1.8,0.3,3.5,1.2,5.2,2.7c0.1,0.1,0.1,0.1,0,0.1c0,0.1-0.1,0.1-0.2,0.1
						c0,0-0.1,0-0.1-0.1c-1.4-1.3-4-2.8-6.5-2.8c-1.8,0-3.2,0.7-4.2,2.2c0,0.1-0.1,0.1-0.2,0.1s-0.1,0-0.1-0.1v-0.1l-3.7-1.9H112
						c-0.1,0-0.3,0-0.4,0c-0.8,0-1.6,0.3-2.4,0.8c-1.8,0.7-2.2,1.3-3.1,3c0,0.1-0.1,0.1-0.1,0.1h-0.1c-0.9-0.6-1.7-0.8-2.4-0.8
						c-1.3,0-2.2,1-2.6,2.9l-0.1,0.2l0.2,0.1c0.1,0,0.1,0.1,0.1,0.2c0,0,0,0.1-0.1,0.1c-0.7-0.2-1.1-0.6-1.1-1
						c0-0.9,1.4-2.3,2.5-2.7c0.6-0.2,1.1-0.3,1.7-0.3c0.1,0,0.2,0,0.4,0c0.1,0,0.3,0.1,0.4,0.2c0.3,0.2,0.5,0.2,0.7,0.2l0,0h0.1
						c0.5-0.2,0.9-0.6,1.4-1.1l0.6-0.7l0,0c0.4-0.4,0.7-0.8,1.2-1c0.7-0.3,1.7-0.5,2.7-0.5c0.8,0,1.6,0.1,2.3,0.3l0,0
						c0,0,0.1,0,0.2,0.1c0.9,0.4,1.5,0.7,1.6,0.8v-0.2c0-0.1,0.1-0.1,0.2-0.2v0.6l0,0c0.3,0,0.5,0,0.6-0.2l0.1-0.2l0,0l0.4-0.2
						l-0.4-0.3c-0.9-0.7-2.9-1.2-4.8-1.2c-1.4,0-3.8,0.3-4.6,2.2l0.3,0.2l-0.5,0.1h-0.1c-0.3,0-0.6-0.1-0.8-0.2
						c-1-0.2-2-0.4-2.9-0.4c-1,0-1.9,0.2-2.7,0.6c-1.1,0.6-1.7,1.5-1.8,2.5c-0.1,1,0.3,2,1.3,2.8c0.1,0,0.1,0.1,0.1,0.1
						s0,0.1-0.1,0.1l0.2,0.5c0.5-0.1,0.9-0.1,1.4-0.2c3.2-0.4,4.7-0.6,4.7-1.4c0-0.1,0-0.1,0-0.1h0.1c0.1,0,0.2,0,0.2,0.2
						c0,1-0.4,1.3-1.6,1.7c-0.4,0.1-0.8,0.2-1.3,0.2c-0.4,0-0.8,0-1.2-0.1c-0.4,0-0.8-0.1-1.2-0.1h-0.2c-0.2,0-0.5,0-0.7,0
						c-0.9,0-1.8,0.1-2.6,0.3h-0.1l-0.1,0.1c-1.3,2.4-1.3,3.1-1.1,3.4c0.1,0.2,0.3,0.3,0.5,0.3c0.3,0,0.6-0.1,1.1-0.4
						c0.9-0.1,1.6-0.4,2.3-0.6c0.8-0.3,1.6-0.6,2.6-0.6c0.3,0,0.6,0,1,0.1c0.9,0.2,1.6,0.5,2.4,0.9c0.6,0.3,1.3,0.6,2.1,0.8
						c0.7,0.2,1.3,0.3,2.1,0.3c1.6,0,3.1-0.4,4.8-0.9l0,0c0.1,0,0.2,0.1,0.2,0.1c0,0.1,0,0.2-0.1,0.2c-1.7,0.5-3,0.7-4.2,0.7
						c-0.9,0-1.7-0.1-2.7-0.3l-0.2,0.5c1.1,0.6,1.7,1.5,1.7,2.5c0,1.1-0.9,2.1-2.3,2.7c-1.2,0.5-2.5,0.8-3.6,0.9
						c-0.2,0-0.4,0.1-0.5,0.1c-1.4,0.2-3.1,0.4-3.8,2.1c-0.7,1.7,0.9,4.1,1.8,5.1c0.6,0.6,1.3,1,2,1.4c0.5,0.3,1.1,0.6,1.5,1
						c1.4,1.1,2.7,2.4,3.8,3.7c1.8,2.2,2.6,4.2,2.4,5.9c-0.2,1.3-1,2.4-2.4,3.3c-0.6,0.4-1.1,0.7-1.7,1.1c-3.8,2.3-7.4,4.5-5.4,10.5
						c0.2,0.5,0.3,0.9,0.4,1.3l0.1,0.2h0.2c0.8,0,1.6-0.3,2.5-0.9c0.3-0.2,0.5-0.4,0.7-0.6s0.5-0.5,0.8-0.6c0.1-0.1,0.3-0.1,0.5-0.1
						l0.7-0.1c0.8-0.1,1.6-0.2,2.5-0.6l0,0c0.2,0,0.2,0.1,0.3,0.2c0,0,0,0.1-0.1,0.1c-0.8,0.3-1.5,0.5-2.2,0.7c-0.1,0-0.3,0-0.5,0.1
						c-0.4,0-0.8,0.1-1.2,0.2c-0.2,0.1-0.4,0.3-0.6,0.5c-0.1,0.1-0.2,0.3-0.4,0.3c-1,0.7-2,1.2-3,1.2h-0.3v0.3
						c0.1,0.7,0.1,1.3-0.1,2l-0.2,0.7l0.6-0.4c0.9-0.6,1.8-1,2.7-1.3l0,0c0.1,0,0.2,0.1,0.2,0.1c0,0.1,0,0.2-0.1,0.2
						c-1.3,0.4-2.5,1.1-3.6,2l-0.1,0.1v0.2c0.1,1.2,0,2.1-0.5,2.6c-0.4,0.5-1,0.7-1.9,0.7h-0.2L99,103c-0.7,0.6-1.1,1.1-1.5,1.5
						c-0.3,0.4-0.6,0.7-0.9,1l0,0l-0.3,0.2c-0.4,0.2-0.8,0.4-1.4,0.5C92.1,106.8,89.8,106.8,87.9,106.8z M96.8,88.9
						c-2.1,1-4,3.2-4.8,5.7c-0.5,1.6-0.4,3.4,0.4,4.9c0.7,1.4,1.9,2.3,3.3,2.7l0.5,0.2c0.5,0.1,0.8,0.2,1.1,0.2
						c0.6,0,0.9-0.4,1.5-1.5l0.3-0.5c1.4-2.1,1.3-2.5,0.4-4.2l-0.3-0.6c-0.2-0.3-0.3-0.6-0.5-0.9c-0.5-1-1-1.9-1.3-3
						c-0.3-1-0.4-1.9-0.2-2.7l0.1-0.6L96.8,88.9z M102.1,85.3c-3.7,1.2-5.3,3.6-4.4,6.6c0.4,1.1,1,2.2,1.5,3.3c0.5,1,1.1,1.9,1.4,3
						h0.5c0.1-0.6,0.1-1.3-0.1-2V96l-0.3-0.1c-0.1,0-0.1-0.1-0.1-0.2s0-0.2,0.1-0.2l0.3-0.1l-0.1-0.3c-0.1-0.4-0.2-0.7-0.3-1.1
						c-0.4-1.4-0.8-2.7-0.6-4.1c0.3-1.4,1.1-2.9,2.3-4.1L102.1,85.3z M98.3,71.5c-1.8,0-3.3,0.2-4.8,0.6c-2.1,0.5-7.1,2.1-8.4,4.5
						l0.4,0.3c2.2-2.1,7.7-3,9.6-3.2c0.4,0,0.7,0,1.1,0s0.8,0,1.2,0c0.4,0,0.8,0,1.3,0c0.2,0,0.5,0,0.7,0c1,0,3.3-0.3,3.8-1.1
						l0.1-0.1l-0.2-0.8l-0.3,0.1c-0.5,0-1,0-1.5-0.1C100.3,71.6,99.3,71.5,98.3,71.5z M89.6,105.9c-0.1-0.7-0.2-1.3-0.4-2
						c0-0.1,0-0.1,0-0.1s0.1-0.1,0.2-0.1s0.1,0.1,0.2,0.1c0.2,0.6,0.3,1.2,0.4,1.9c0,0.1,0,0.2,0,0.2l-0.1,0.1L89.6,105.9z M89,82.2
						c-0.3,0-0.6-0.1-1.1-0.2c-1.1-0.4-2-1.4-2.7-3v-0.3h0.2c0,0,0.1,0,0.1,0.1c0.9,2,2.1,3,3.5,3c0.4,0,0.8-0.1,1.2-0.2
						c0.4-0.1,0.7-0.4,1-0.6s0.5-0.4,0.8-0.5s0.5-0.1,0.7-0.1s0.5,0,0.7,0.1c0.2,0,0.4,0.1,0.7,0.1h0.2c0.7,0.1,1.4,0.2,2,0.2
						c1.2,0,2.1-0.4,2.9-1.1c0.1-0.1,0.2-0.3,0.6-0.8c0.3-0.3,0.7-0.9,0.8-1c0.1,0,0.2-0.1,0.3-0.2c0.1-0.1,0.2-0.1,0.2-0.1
						c0.1,0,0.2,0,0.3,0.1c0.1,0,0.1,0.1,0.1,0.2s0,0.2-0.1,0.2l-0.4,0.1v0.2c-0.1,0.4-2.7,2.7-3.2,2.9c-0.4,0.1-0.8,0.2-1.2,0.2
						c-0.6,0-1.2-0.1-1.8-0.2c-0.6-0.1-1.2-0.2-1.8-0.2c-0.5,0-1,0.1-1.4,0.2c-0.5,0.2-0.9,0.4-1.3,0.6C89.8,82,89.5,82.2,89,82.2z"
						/>
				</g>
			</g>
			<g>
				<g>
					<path class="st5" d="M135,128.5c-1.1-0.2-2.2-0.5-2.6-1.6c-0.3-0.9,0.1-2,0.5-2.8l0.1-0.2c0.1-0.2,0.2-0.5,0.4-0.8
						c0.6-1.3,1.3-2.9,0.7-3.8c-0.3-0.5-0.9-0.7-1.7-0.7c-0.1,0-0.2,0-0.3,0c-0.7,0-1.4,0.3-2,0.6c-0.5,0.2-1,0.5-1.5,0.6
						c-0.4,0.1-0.8,0.1-1.2,0.1c-0.4,0-0.8,0-1.2-0.1c-2.4-0.5-3.7-2.2-4.4-3.6c0-0.1,0-0.1,0-0.2s0.1-0.1,0.2-0.1
						c0,0,0.1,0,0.1,0.1c1.1,2.2,2.9,3.4,5.1,3.4c1.2,0,2.4-0.3,3.7-1c0.5-0.3,1-0.4,1.4-0.4c0.6,0,1.1,0.2,1.7,0.6
						c0.6,0.4,0.8,0.9,0.8,1.6l0.6,0.1c0.1-0.3,0.1-0.6,0.1-0.9c-0.4-3.4-4-5.3-6.7-6.6l-0.5-0.3c-0.1,0-0.1-0.1-0.1-0.1
						c0-0.1,0.1-0.2,0.2-0.2l0.5,0.3c2.4,1.2,5.5,2.8,6.5,5.3c0.5,1.1,0.5,2.2,0,3.3c-0.1,0.2-0.2,0.4-0.3,0.6s-0.2,0.3-0.3,0.5
						c-0.6,1.2-0.5,2.8,0.2,3.9c0.6,1,1.6,1.5,2.7,1.5h0.2c0.1,0,0.1,0.1,0.1,0.1s0,0.2-0.2,0.2c-0.1,0-0.3,0-0.3,0
						c-1.4,0-3.3-0.5-3.9-2.1l-0.5,0.2c0.3,1,1.2,2.1,2.1,2.3c0.1,0,0.1,0,0.1,0.1C135.2,128.4,135.2,128.5,135,128.5L135,128.5z"/>
				</g>
			</g>
			<g>
				<g>
					<path class="st5" d="M132,128.5C131.9,128.5,131.9,128.5,132,128.5c-0.9-0.5-1.3-1-1.1-1.9v-0.3c0.2-1.2,0.4-3.1-1.3-3.5
						c-0.3-0.1-0.7-0.1-1.2-0.1c-0.2,0-0.5,0-0.7,0s-0.5,0-0.7,0c-0.4,0-0.6,0-0.9-0.1c-3.1-0.5-5.3-2.3-6.1-5c0-0.1,0-0.1,0-0.1
						s0.1-0.1,0.2-0.1s0.1,0.1,0.2,0.1c0.7,2.3,2.5,4,5.1,4.6c0.6,0.2,1.3,0.2,1.8,0.2c0.3,0,0.5,0,0.8,0c0.2,0,0.5,0,0.7,0
						c0.6,0,1.3,0,2,0.3c1.4,0.5,1.3,1.4,1,2.7c-0.2,1-0.5,2.1,0.5,2.8c0.1,0,0.1,0.1,0.1,0.2C132.1,128.4,132,128.5,132,128.5z"/>
				</g>
			</g>
			<g>
				<g>
					<path class="st5" d="M129.4,128.5c0,0-0.1,0-0.1-0.1l-0.1-0.1c-0.3-0.3-0.6-0.6-0.8-0.9l0,0c0,0,0-0.1,0-0.2
						c-0.1-0.2-0.2-0.8-0.2-1l0.4-0.2l-0.5-0.2c-0.5-0.2-1.7-0.3-3.3-0.3c-0.9,0-1.8-0.1-2-0.2c-1.4-0.3-2.9-0.8-3.8-1.7
						c-0.5-0.5-0.7-1.1-1-1.7c-0.4-0.9-0.8-1.8-1.8-1.8c-0.5,0-1,0.2-1.7,0.6c0,0,0,0-0.1,0s-0.2-0.1-0.2-0.1c0-0.1,0-0.1,0.1-0.2
						l0.1-0.1c0.6-0.4,1.7-1,2.5-1c0.3,0,0.5,0.1,0.7,0.2c0.1,0,0.1,0.1,0.1,0.3c0,0.1,0.1,0.2,0.2,0.3c0.2,1.1,0.6,2.2,1.2,3.2
						c0.8,0.7,1.6,1.1,2.4,1.3c1.3,0.5,2.6,0.7,3.8,0.7c0.4,0,0.8,0,1.1-0.1c0.2,0,0.4-0.1,0.6-0.1c0.3-0.1,0.5-0.2,0.7-0.2
						c0.1,0,0.2,0,0.3,0.1c0.6,0.3,0.6,0.8,0.7,1.4s0.2,1.3,0.8,1.9C129.6,128.3,129.6,128.4,129.4,128.5
						C129.5,128.4,129.4,128.5,129.4,128.5z"/>
				</g>
			</g>
			<g>
				<g>
					<path class="st5" d="M128.1,127.5C128.1,127.5,128.1,127.4,128.1,127.5L128.1,127.5z"/>
				</g>
			</g>
			<g>
				<g>
					<path class="st5" d="M110.5,117.3c-0.1,0-0.1-0.1-0.1-0.2s0-0.2,0.1-0.2c2.6-0.7,4.9-1.8,7-3.3c0,0,0,0,0.1,0s0.1,0.1,0.1,0.1
						c0,0.1,0,0.2-0.1,0.2C115.5,115.4,113.1,116.6,110.5,117.3L110.5,117.3z"/>
				</g>
			</g>
			<g>
				<g>
					<path class="st5" d="M106.8,116.6c-0.1,0-0.1,0-0.2-0.1c0,0,0,0,0-0.1c0.4-1.2,0.3-2.6-0.3-3.6c-0.4-0.8-1.1-1.3-1.9-1.5
						c0,0-0.1,0-0.1-0.2c0-0.1,0.1-0.2,0.2-0.2c1.2,0.3,1.8,1.1,2.1,1.7c0.6,1.1,0.7,2.6,0.3,3.8C107,116.6,106.8,116.6,106.8,116.6
						z"/>
				</g>
			</g>
			<g>
				<g>
					<path class="st5" d="M106.6,108.1c-0.1,0-0.1,0-0.2-0.1c0-0.1,0-0.2,0-0.2c1-1.2,2.1-2.3,3.3-3.4l0.1-0.1
						c0.1,0,0.2,0.1,0.2,0.1v0.1C108.9,105.7,107.8,106.9,106.6,108.1C106.7,108.1,106.6,108.1,106.6,108.1z"/>
				</g>
			</g>
			<g>
				<g>
					<path class="st5" d="M100.5,119.4c-2.3,0-4.7-0.8-6.9-1.5c-0.1,0-0.1-0.2-0.1-0.2s0-0.1,0.1-0.1c2.4,0.8,4.6,1.5,6.9,1.5
						c1.5,0,2.8-0.3,4.1-1c0,0,0,0,0.1,0s0.2,0.1,0.2,0.1c0,0.1,0,0.1-0.1,0.1C103.5,119,102.1,119.4,100.5,119.4L100.5,119.4z"/>
				</g>
			</g>
			<g>
				<g>
					<path class="st5" d="M88.7,116.5L88.7,116.5c-5.2-1.2-10.5-2.4-15.8-3.4c-2.1-0.4-4.3-0.7-6.3-1c-2.9-0.4-5.9-0.8-8.7-1.5
						c0,0-0.1,0-0.1-0.2c0-0.1,0.1-0.2,0.2-0.2c2.9,0.7,5.9,1.1,8.8,1.5c2.1,0.3,4.2,0.6,6.3,1c5.3,1,10.6,2.2,15.7,3.4
						c0.1,0,0.2,0,0.2,0.2C88.9,116.4,88.9,116.5,88.7,116.5C88.8,116.5,88.7,116.5,88.7,116.5z"/>
				</g>
			</g>
			<g>
				<g>
					<path class="st5" d="M57.1,109.6L57.1,109.6c0.2-0.8,0.5-1.4,0.9-1.9c0.1-0.1,0.1-0.1,0.2-0.1c0.1,0,0.2,0.1,0.2,0.2
						c-0.4,0.6-0.7,1.1-1,1.7C57.4,109.4,57.3,109.6,57.1,109.6C57.2,109.6,57.2,109.6,57.1,109.6z"/>
				</g>
			</g>
			<g>
				<g>
					<path class="st5" d="M114.8,131.9c-0.1,0-0.2,0-0.2-0.1l-0.2-0.8c0-0.2,0.1-0.2,0.2-0.2l0.3-0.1l-0.1-0.3
						c-0.1-0.6-0.4-1.2-0.6-1.5c-0.3-0.5-0.6-0.8-1-1.2c-0.2-0.2-0.4-0.3-0.5-0.5c-0.5-0.6-0.8-1.3-0.9-2.1l0.1-0.1l-0.1-0.2
						l-0.1-0.2l0,0l-0.1-0.1l-0.1-0.1v-0.2c0-0.1,0.1-0.1,0.2-0.1c0.2,0.1,0.2,0.2,0.2,0.2c0.4,0.8,1.3,1.2,2.7,1.3l1.1,0.1
						l-0.9-0.6c-0.4-0.3-0.7-0.5-0.9-0.8c-0.5-0.7-0.4-1.4,0.3-2.4c0-0.1,0.1-0.1,0.1-0.1c0.1,0,0.2,0,0.2,0.1v0.1l-0.1,0.1
						c-0.3,0.4-0.6,1-0.5,1.5c0.1,0.4,0.5,0.7,0.9,1c0.6,0.4,1.2,0.7,1.8,1c0.1,0,0.2,0.2,0.1,0.2c0,0,0,0.1-0.2,0.1s-0.5,0-0.8,0
						c-1.4,0-2.4-0.2-3.1-0.5l-0.6-0.3l0.2,0.6c0.3,0.7,0.8,1.3,1.3,1.9c0.4,0.5,0.9,0.9,1.1,1.5c0.5,1.1,0.8,1.9,0.2,2.6
						C114.9,131.9,114.8,131.9,114.8,131.9z"/>
				</g>
			</g>
			<g>
				<g>
					<path class="st5" d="M113.8,136.5c-0.1,0-0.1,0-0.2-0.1c0,0,0-0.1,0-0.2c0.5-2.4-0.1-4.4-1.5-5.8c-0.2-0.2-0.3-0.3-0.5-0.5
						c-0.6-0.6-1.3-1.2-1.7-1.9c-1-1.5-0.7-2.8,0.1-4.5c0-0.1,0.1-0.1,0.1-0.1c0.1,0,0.1,0,0.2,0.1c0,0.1,0,0.1,0,0.2
						c-1.4,2.8,0.3,4.4,1.8,6.1c0.6,0.6,1.2,1.2,1.6,1.9c0.8,1.3,0.6,2.7,0.3,4.2l-0.1,0.6C113.9,136.5,113.8,136.5,113.8,136.5z"/>
				</g>
			</g>
			<g>
				<g>
					<path class="st5" d="M108.9,140.4c-0.1,0-0.1,0-0.2-0.1v-0.1c0.9-2.5,0.6-5-0.8-7.5l-0.4-0.8l-0.1,0.9c-0.1,0.9-0.4,2-0.8,2.7
						c0,0.1-0.1,0.1-0.1,0.1c-0.1,0-0.2-0.1-0.2-0.2c-0.1-1.1-1-2-1.8-2.8s-1.6-1.6-1.8-2.6c-0.2-1.1,0.1-1.9,1-2.7h0.1
						c0.1,0,0.2,0.1,0.2,0.1v0.1c-1,0.9,0.7,4.8,1.1,5.4c0.2,0.3,0.4,0.5,0.6,0.7s0.4,0.4,0.6,0.6l0.4,0.5l0.2-0.6
						c0.2-0.9,0.5-2.5,0-3.2v-0.1c0-0.1,0.1-0.1,0.2-0.1l0.1,0.1l0.2,0.2l0,0c1.8,2.5,2.6,5.1,2.2,7.6l-0.2,1.1l0.7-0.9
						c1.4-1.8,1.7-3.6,1-5.7c-0.4-1.2-1.3-2.1-2.2-3c-0.6-0.6-1.1-1.2-1.5-1.8c-0.9-1.4-0.7-2.5,0-3.9c0-0.1,0.1-0.1,0.1-0.1
						c0.1,0,0.1,0,0.2,0.1c0,0.1,0,0.1,0,0.2c-1,2.2,0.6,4.2,2.1,6.2c1.1,1.4,2.2,2.8,2.3,4.2c0.2,2.2-1.3,3.8-2.9,5.4
						C109,140.4,108.9,140.4,108.9,140.4z"/>
				</g>
			</g>
			<g>
				<g>
					<path class="st5" d="M100.8,129.6L100.8,129.6c-1.8-1.1-2.4-1.9-1.9-2.7c0.7-1.2,2.4-1.9,3.7-2.2l0,0c0.2,0,0.2,0.1,0.2,0.2
						s-0.1,0.1-0.1,0.2c-1.2,0.3-2.1,0.7-2.8,1.2c-0.4,0.4-0.7,0.7-0.7,1.1c0,0.3,0.1,0.6,0.4,0.9c0.4,0.4,0.8,0.6,1.2,0.9
						c0.1,0.1,0.2,0.1,0.2,0.2C101,129.6,100.8,129.6,100.8,129.6z"/>
				</g>
			</g>
			<g>
				<g>
					<path class="st5" d="M96.6,127.3C96.6,127.3,96.5,127.3,96.6,127.3c-7.7-4.3-15.6-7.5-23.6-9.6c0,0-0.1,0-0.1-0.2
						c0-0.1,0.1-0.2,0.2-0.2c8.1,2.1,16,5.3,23.7,9.6c0,0,0.1,0.1,0.1,0.2C96.7,127.3,96.6,127.3,96.6,127.3z"/>
				</g>
			</g>
			<g>
				<g>
					<path class="st5" d="M67.6,124.6c-1.8,0-3.1-3.4-3.1-4.9c0-0.1,0-0.1,0-0.1h0.1c0,0,0.2,0,0.2,0.2c0.1,1.1,0.3,2,0.8,2.8
						c0.4,0.7,0.6,1,1.3,1c0.2,0,0.4,0,0.7-0.1h0.3c0.8-0.1,1-0.2,1.1-1.1c0.2-1.7-1.8-3.8-2.8-5c0,0-0.1-0.1,0-0.2
						c0-0.1,0.1-0.1,0.2-0.1c0,0,0,0,0.1,0.1c1.4,1.5,2.3,2.8,2.8,4.1c0.1,0.4,0.2,0.9,0.1,1.4v0.4l-0.1,0.3
						c-0.1,0.4-0.3,0.7-0.6,0.8C68.2,124.4,67.9,124.6,67.6,124.6z M69.8,123.4C69.8,123.4,69.7,123.4,69.8,123.4l-0.2-0.2l0.3-0.3
						c0.7-0.7,1.3-1.7,0.4-3c-0.5-0.7-1.1-1.4-1.9-2.2c-0.1,0-0.1-0.1,0-0.2c0-0.1,0.1-0.1,0.2-0.1c0,0,0.1,0,0.1,0.1
						c0.7,0.7,1.6,1.5,2.1,2.4l0.4,0.6l0.2-0.7c0-0.2,0.1-0.4,0-0.7c-0.2-0.6-0.7-1-1.1-1.3l-0.1-0.1c-0.1-0.1-0.1-0.1,0-0.1
						c0-0.1,0.1-0.1,0.2-0.1h0.1c0.6,0.5,1.1,1,1.3,1.7c0.1,0.5-0.1,1-0.4,1.5l-0.1,0.2v0.1c0.1,0.9-0.5,1.7-1.2,2.4
						C69.8,123.4,69.8,123.4,69.8,123.4z"/>
				</g>
			</g>
			<g>
				<g>
					<path class="st5" d="M64,123.2C63.9,123.2,63.9,123.2,64,123.2c-1.6-0.7-3.3-1.4-4.5-2.6c-1-1-1.8-2.3-2.4-4.3L57,116l-0.3,0.1
						c-0.1,0-0.2,0.1-0.2,0.1l0,0c-0.1,0-0.2-0.1-0.3-0.2c0,0,0-0.1,0.1-0.1l0.2-0.1h0.1h0.1h0.1c0.1-0.1,0.3-0.2,0.4-0.2
						c0.2-0.1,0.3-0.2,0.5-0.3c0.2-0.1,0.4-0.1,0.7-0.1c0.1,0,0.2,0,0.3,0c1,0,2.1,0.2,3.5,0.6c0,0,0.1,0,0.1,0.2
						c0,0.1-0.1,0.2-0.2,0.2l-0.3-0.1c-1-0.2-2-0.5-3.1-0.5c-0.6,0-1,0.2-1.3,0.3l-0.3,0.1l0.2,0.3c0.4,1.4,1.1,3.2,2.6,4.5
						c1.2,1,2.6,1.6,3.9,2.2l0.1,0.1C64,123.1,64,123.2,64,123.2C64.1,123.1,64.1,123.2,64,123.2z"/>
				</g>
			</g>
			<g>
				<g>
					<path class="st5" d="M56.6,118.9c-1-0.3-2-0.7-3.1-1c-0.2-0.1-0.4-0.1-0.6-0.2c-0.6-0.1-1.2-0.3-1.5-0.6V117
						c0-0.1,0-0.1,0.1-0.2h0.1c0.1,0,0.1,0,0.1,0.1c0.3,0.2,0.7,0.3,1,0.4c0.1,0,0.3,0.1,0.3,0.1l1.1,0.4c0.8,0.3,1.7,0.6,2.5,0.8
						C56.7,118.6,56.7,118.7,56.6,118.9C56.8,118.8,56.7,118.9,56.6,118.9C56.7,118.9,56.6,118.9,56.6,118.9z"/>
				</g>
			</g>
			<g>
				<g>
					<path class="st5" d="M39,108.1C39,108.1,38.9,108.1,39,108.1c-0.2-0.3-0.2-0.4-0.1-0.7c0-0.1,0.1-0.2,0.1-0.3
						c0.1-0.5,0.2-0.8,0.6-1.1c0.1-0.1,0.2-0.2,0.3-0.2l0.3-0.2l-0.3-0.3c-0.5-0.4-0.7-0.9-0.6-1.4c0.3-1.1,2.1-2.3,3.6-2.7
						c1.2-0.3,2.5-0.5,3.8-0.5c4.9,0,9.8,2.1,14.2,3.9l0.3,0.1c0.2,0.1,0.1,0.2,0.1,0.3c0,0,0,0.1-0.1,0.1L61,105
						c-2.9-1.2-5.9-2.5-9-3.2c-2-0.5-3.8-0.7-5.4-0.7h-0.3c-1.2,0-2.3,0.1-3.5,0.4c-1.9,0.2-2.9,1.4-2.9,3.5v0.1l0.1,0.1
						c0,0,0,0,0.1,0.1l0.1,0.2h0.2c0.5-0.1,1-0.1,1.5-0.1c0.4,0,0.7,0,1,0l0,0c0.1,0,0.1,0,0.1,0.1c0,0,0,0.2-0.2,0.2s-0.4,0-0.6,0
						h-0.5c-0.6,0-1.2,0-1.8,0.3c-0.5,0.2-0.8,0.6-1,1.2c0,0,0,0.1,0,0.2s0,0.3-0.1,0.3l-0.1,0.1v0.1c0,0.1,0,0.1,0,0.2
						s-0.1,0.1-0.1,0.1L39,108.1z"/>
				</g>
			</g>
			<g>
				<g>
					<path class="st5" d="M39.2,118.1C39.2,118.1,39.1,118.1,39.2,118.1c-0.4-0.4-0.6-1-0.7-1.5l-0.1-0.4c-0.2-0.7-0.3-1.2,0.1-1.7
						c0.3-0.4,0.7-0.7,1.2-1l0.4-0.2l0,0l0.4-0.1c0.7-0.3,1.5-0.4,2-0.5l0,0c0.2,0,0.2,0.1,0.2,0.2s0,0.1-0.1,0.1
						c-1.2,0.2-2.3,0.6-3.2,1.2s-0.8,1.3-0.7,2c0.1,0.5,0.3,1.3,0.6,1.6c0.1,0.1,0.1,0.1,0,0.2C39.3,118,39.2,118.1,39.2,118.1z
						 M39.7,113.1L39.7,113.1c-0.3-0.4-0.4-1-0.5-1.5l-0.1-0.3c-0.1-0.5,0-0.7,0.2-1s0.6-0.4,1-0.5l0.2-0.1c0.6-0.2,1.3-0.4,2-0.7
						l0,0c0.1,0,0.2,0.1,0.2,0.2s0,0.2-0.1,0.2c-0.9,0.2-1.6,0.5-2.3,0.8s-0.8,0.6-0.8,1.3c0,0.3,0.2,1,0.4,1.4v0.1H40
						c0.1,0,0.1,0.1,0.1,0.2v0.3L39.7,113.1z"/>
				</g>
			</g>
			<g>
				<g>
					<path class="st5" d="M47.9,125.2c-0.1,0-0.2-0.1-0.2-0.2s0-0.2,0.2-0.2c0.9,0,1.8-0.2,2.6-0.5c0.3-0.1,0.7-0.3,0.8-0.6
						c0.1-0.2,0-0.5-0.3-0.7c-0.1-0.1-0.3-0.3-0.4-0.4l-0.1-0.1h-0.1c-0.7,0-1.3,0-2,0H48l0.5,1.3c0,0.1-0.1,0.2-0.2,0.2
						c-0.1,0-0.2,0-0.2-0.1l-0.6-1.5c0.1-0.1,0.1-0.2,0.2-0.2c0.5,0,0.9,0,1.4,0h0.7l0.1-0.2c0-0.1,0.1-0.2,0.1-0.2
						c0.2,0.1,0.3,0.2,0.5,0.3l0.1,0.1H51c0.1,0,0.1,0,0.1,0s0,0.1,0,0.2v0.2l0.1,0.1c0.8,0.7,0.6,1.2,0.4,1.4
						c-0.3,0.4-0.9,0.6-1.3,0.7C49.5,125.1,48.7,125.2,47.9,125.2L47.9,125.2z"/>
				</g>
			</g>
			<g>
				<g>
					<path class="st5" d="M48.6,128.9c0,0-0.1,0-0.1-0.1l-0.8-1.4c0-0.1,0-0.1,0-0.2s0.1-0.1,0.2-0.1c0,0,0.1,0,0.1,0.1l0.8,1.5
						l0.3-0.3c0,0,0,0,0.1,0s0.2,0.1,0.2,0.2s0,0.2-0.2,0.2l-0.2-0.1l-0.2,0.2C48.7,128.9,48.6,128.9,48.6,128.9z"/>
				</g>
			</g>
			<g>
				<g>
					<path class="st5" d="M40.3,138.1c-1.2-0.1-2.5-0.8-3.4-2c-0.9-1.1-1.3-2.5-1.1-3.7c0.1-0.7,0.5-1.4,1.1-1.9l0.1-0.1v-0.1
						c0-1.3,0.1-2.4,0.7-3.3l0,0l0.4-0.4c0.1-0.1,0.3-0.3,0.5-0.4c1.1-0.8,2.3-1.2,3.7-1.2c0.3,0,0.7,0,1,0.1c0.1,0.1,0.1,0.2,0,0.3
						l0.3,0.5c0.4-0.2,0.8-0.2,1.4-0.2c0.2,0,0.4,0,0.7,0c0.2,0,0.2,0.2,0.2,0.2c0,0.1-0.1,0.1-0.1,0.1h-0.1c-0.2,0-0.5,0-0.7,0
						c-0.4,0-0.9,0-1.3,0.4c-0.3,0.2-0.5,0.6-0.5,1s0.3,0.7,0.6,0.9c0.1,0,0.1,0.1,0.1,0.1c0,0.1,0,0.1-0.1,0.2l-0.1,0.1l-0.3-0.2
						c-0.6-0.4-0.8-1.2-0.4-1.8c0.1-0.2,0.3-0.4,0.5-0.5l-0.2-0.5c-0.3,0-0.6-0.1-0.9-0.1c-1.2,0-2.3,0.3-3.3,1
						c-1.4,0.9-1.6,2.1-1.6,3.4v0.5l0.4-0.2c1.2-0.6,3-1,5.3-1.1h0.5l0,0l0.1,0.2h0.3c0.2,0,0.5-0.1,0.7-0.1h0.4l-0.2-0.4
						c0-0.1,0.1-0.2,0.2-0.2c0.1,0,0.1,0,0.2,0.1c0.1,0.1,0.1,0.2,0.2,0.3c0.5,0.9,1.1,1.6,1.6,1.6h0.1c0.1,0,0.2,0.1,0.2,0.1v0.1
						l-0.1,0.1v0.1c0.1,0.3,0.1,0.5-0.1,0.7c-0.3,0.4-0.9,0.6-1.9,0.6c-0.8,0-1.6-0.2-2-0.4c-0.7-0.4-1.2-1.2-0.9-1.9
						c0-0.1,0.1-0.2,0.2-0.3l0.4-0.5h-0.6c-1.7,0.1-3.8,0.3-5.1,1.4l-0.1,0.1v0.3c0,0.1-0.1,0.2-0.2,0.2h-0.2l-0.1,0.1
						c-0.1,0.1-0.1,0.1-0.1,0.2c-0.7,1-0.7,2.3,0,3.6c0.8,1.5,2.2,2.6,3.6,2.7c0.2,0,0.2,0.2,0.2,0.2
						C40.5,138.1,40.3,138.1,40.3,138.1z M44.5,129.4c-0.4,0-0.7,0.1-0.9,0.2c-0.4,0.3-0.6,0.6-0.6,0.9c0,0.4,0.3,0.8,0.9,1.1
						c0.2,0.1,1.1,0.2,1.8,0.2s1.1-0.1,1.3-0.4c0.1-0.1,0.1-0.3,0.1-0.5v-0.1H47c-0.6-0.2-1-0.7-1.3-1.3l-0.1-0.1h-0.2h-0.2
						C44.9,129.4,44.7,129.4,44.5,129.4z M37.3,126.6c-0.1,0.1-0.2,0.1-0.2,0.1c-0.1,0-0.2-0.1-0.2-0.2c-0.2-1.3,0.5-2.5,2-3.8
						l0.3-0.2l-0.3-0.2c-0.9-0.7,0.2-2.7,0.8-3.4c0.6-0.7,1.4-1,2.5-1c0.5,0,1,0.1,1.5,0.1c0.4,0,0.8,0.1,1.2,0.1c0,0,0.1,0,0.1,0.1
						l0.1,0.2h0.2c0.7,0,1.4,0.3,2,0.7l0.3,0.2l0.2,0.2c0.1,0.1,0.2,0.3,0.4,0.4c0.1,0.1,0.1,0.1,0,0.2c0,0.1-0.1,0.1-0.2,0.1
						c-0.6-0.7-1.1-1.3-2-1.5c-0.2,0-0.4-0.1-0.7-0.1s-0.6,0.1-0.9,0.2c-0.2,0.1-0.9,0.7-0.8,1.2c0,0.1,0.1,0.4,0.4,0.5
						c0.1,0.1,0.1,0.2,0.1,0.2s0,0.1-0.1,0.1c-0.5-0.2-0.7-0.4-0.7-0.8c-0.1-0.5,0.2-1.1,0.7-1.4l0.5-0.4l-0.7-0.1
						c-0.5-0.1-1-0.1-1.5-0.1c-0.4,0-0.8,0-1.1,0.1c-0.9,0.3-1.4,1-1.7,1.7c-0.2,0.5-0.7,1.4-0.4,1.9v0.1h0.1l0.1,0.1l0.1,0.3
						l0.3-0.2c0.8-0.5,1.6-0.7,2.7-0.7c0.5,0,1,0,1.7,0.1c0.1,0,0.1,0,0.1,0.1v0.3l0.3-0.1c0.2,0,0.3,0,0.5,0c0.4,0,0.9,0.1,1.5,0.2
						c0.1,0,0.1,0.1,0.1,0.2s0,0.2-0.1,0.2h-0.2c-0.4-0.1-0.9-0.2-1.3-0.2c-0.3,0-0.5,0-0.7,0.1c-0.4,0.2-0.8,0.7-0.8,1.1
						c0,0.3,0.2,0.5,0.5,0.7c0.1,0,0.1,0.2,0.1,0.2s0,0.1-0.1,0.1c-0.4-0.1-0.7-0.4-0.8-0.8s0-0.8,0.2-1.1c0-0.1,0.1-0.1,0.1-0.1
						l0.4-0.4l-0.6-0.1c-0.4,0-0.7-0.1-1-0.1c-1.3,0-2.3,0.4-3.3,1.2c-0.9,0.7-1.8,1.7-1.9,3v0.2l0.1,0.1c0.1,0,0.1,0.1,0.1,0.2v0.5
						L37.3,126.6z M47.8,118.7C47.8,118.6,47.8,118.6,47.8,118.7l3.6-0.7c0.2,0,0.2,0.1,0.2,0.2s0,0.1-0.1,0.1l-3.5,0.6h-0.2V118.7z
						"/>
				</g>
			</g>
			<g>
				<g>
					<path class="st5" d="M58.6,135.4C58.6,135.4,58.5,135.4,58.6,135.4c-0.6-0.4-1.2-0.8-1.8-1.2c-1.2-0.8-2.5-1.5-3.5-2.4
						c-0.3-0.3-0.3-0.3-0.3-0.7c0-0.5,0.1-0.9,0.1-1.4c0.1-0.6,0.1-1.2,0.1-1.9c0-0.1,0-0.1,0-0.1h0.1c0,0,0.2,0,0.2,0.2
						c0,0.8,0,1.5,0,2.1c-0.1,1.1,0.2,1.7,1.1,2.3l4,2.8C58.7,135.2,58.7,135.3,58.6,135.4C58.7,135.3,58.6,135.4,58.6,135.4z"/>
				</g>
			</g>
			<g>
				<g>
					<path class="st5" d="M39.4,166c-0.1,0-0.3,0-0.4,0l6.2-27.2h0.1v-0.3l0.1-0.1h0.1h0.1h0.2c0.9-0.2,1.8-0.4,2.6-0.4h0.2
						c0.2,0,0.5,0,0.7,0c0.5,0,0.9,0.1,1.2,0.3c0,0,0,0,0.1,0.1v0.1h0.1c0.1,0,0.1,0.1,0.1,0.2c0,0.1-0.1,0.1-0.2,0.1
						c-0.1,0-0.1,0-0.1-0.1v-0.1l-0.1-0.1c-0.3-0.2-0.7-0.3-1.2-0.3c-0.3,0-0.6,0-0.9,0.1H48c-0.6,0.1-1.3,0.2-2.1,0.4h-0.2
						L39.4,166z"/>
				</g>
			</g>
			<g>
				<g>
					<path class="st5" d="M56.7,139.3c-1.6-0.3-3.1-0.6-4.7-1.1c-0.1,0-0.1-0.1-0.1-0.2c0-0.1,0-0.2,0.1-0.2
						c1.6,0.4,3.2,0.8,4.8,1.1c0.1,0,0.1,0,0.1,0.1C57,139.2,56.9,139.3,56.7,139.3L56.7,139.3z"/>
				</g>
			</g>
			<g>
				<g>
					<path class="st5" d="M57.5,138.4c-0.1,0-0.1-0.1-0.1-0.1s0-0.2,0.1-0.2l0.2-0.1c1-0.4,2.3-0.9,3.5-0.9c0.5,0,0.9,0.1,1.3,0.3
						c0,0,0.1,0.1,0.1,0.2c0,0.1-0.1,0.2-0.2,0.2c-0.4-0.2-0.8-0.3-1.2-0.3c-1.1,0-2.4,0.5-3.3,0.9L57.5,138.4L57.5,138.4z"/>
				</g>
			</g>
			<g>
				<g>
					<path class="st5" d="M67.6,142C67.6,142,67.5,141.9,67.6,142l-0.7-0.5c-1-0.7-2-1.4-2.8-2.3c-0.7-0.7-0.9-1.5-0.6-2.6v-0.1
						c0,0,0-0.1,0.1-0.1c0.8-0.5,1.7-0.9,2.6-0.9c0.4,0,0.8,0.1,1.2,0.3c0.1,0,0.1,0.1,0.1,0.1c0,0.1-0.1,0.2-0.2,0.2
						c-0.2-0.1-0.4-0.2-0.6-0.2l-0.3-0.1l0.1-0.1l-1,0.2c-0.6,0.1-1.1,0.4-1.6,0.7l-0.1,0.1v0.1c-0.3,1.4,0.4,2.1,1.3,2.9
						c0.8,0.7,1.7,1.3,2.5,1.9l0.1,0.1c0.1,0.1,0.1,0.2,0.1,0.2C67.7,141.9,67.6,142,67.6,142z M68.8,140.5c0,0-0.1,0-0.1-0.1
						c-0.3-0.3-0.6-0.6-0.9-0.9c-0.7-0.6-1.3-1.3-1.9-2c-0.2-0.2-0.3-0.4-0.4-0.5h0.4c0.1,0.1,0.1,0.2,0.1,0.2
						c0.2,0.2,0.4,0.5,0.7,0.7l0.3,0.3l1.9,1.9c0.1,0.1,0.1,0.1,0,0.2C68.9,140.5,68.8,140.5,68.8,140.5z M65.4,137.1
						c-0.1-0.3,0-0.5,0.3-0.8l0.4-0.4l0.1,0.3v0.1c0,0-0.1,0-0.1,0.1c-0.1,0.1-0.2,0.2-0.3,0.3L65.4,137.1z"/>
				</g>
			</g>
			<g>
				<g>
					<path class="st5" d="M63.4,147.7c-0.1,0-0.1,0-0.2-0.1v-0.1c0.3-1.1,0.4-1.7-0.3-2.8c-0.6-0.9-0.7-0.9-1.4-1.1l-0.3-0.1
						c-0.8-0.2-1.4-0.5-1.9-0.9c-0.6-0.5-2-1.7-1.3-3.2c0-0.1,0.1-0.1,0.1-0.1c0.1,0,0.1,0,0.2,0.1c0,0.1,0,0.1,0,0.2
						c-0.2,0.4-0.2,0.9,0,1.4c0.5,1.1,2,1.9,2.8,2.1c0.2,0.1,0.4,0.1,0.6,0.2c0.5,0.1,1,0.2,1.4,0.6c0.2,0.2,0.4,0.4,0.6,0.7
						l0.2,0.5l0.3-0.5c0-0.1,0.1-0.1,0.2-0.1h0.1c-0.1,1.2-0.4,2.2-0.9,3.2C63.5,147.7,63.5,147.7,63.4,147.7z"/>
				</g>
			</g>
			<g>
				<g>
					<path class="st5" d="M63.4,142.3c-0.1,0-0.2-0.1-0.2-0.2c0-0.1,0.1-0.2,0.2-0.2c0.1,0,0.2,0.1,0.2,0.2
						C63.5,142.2,63.4,142.3,63.4,142.3z"/>
				</g>
			</g>
			<g>
				<g>
					<path class="st5" d="M50.6,127.5c-0.1,0-0.2-0.1-0.2-0.2s0.1-0.2,0.1-0.2c0.1,0,3.4-0.8,3.8-2.5c0.2-0.6,0-1.1-0.5-1.7
						c-1.1-1.2-2.7-1.9-4.4-1.9c-0.3,0-0.6,0-0.9,0.1l0,0c-0.2,0-0.2-0.1-0.2-0.2s0-0.1,0.1-0.1c0.3,0,0.6-0.1,1-0.1
						c1.8,0,4.2,0.7,5.3,2.6c0.3,0.6,0.3,1.1,0,1.7l-0.1,0.1v0.1c0,0.4,0.1,0.6,30.9,0.8c2,0,3.4,0,3.9,0c0.1,0,0.2,0.1,0.2,0.2
						s0,0.2-0.2,0.2l0,0c-6.7-0.1-12.8-0.2-18.8-0.3c-2.9-0.1-5.8-0.1-8.7-0.2h-0.3c-0.5,0-1.1,0-1.8,0.1c-0.7,0-1.5,0.1-2.2,0.1
						c-1.4,0-2.4-0.1-3.1-0.4l-0.2-0.1l-0.1,0.1C53.2,126.7,51.5,127.3,50.6,127.5L50.6,127.5z"/>
				</g>
			</g>
			<g>
				<g>
					<path class="st5" d="M70.4,149.2c-0.1,0-0.2-0.1-0.2-0.1c0.8-1.1,1.1-2,0.8-2.6c-0.4-1-1.8-1.2-3.3-1.5
						c-0.4-0.1-0.8-0.1-1.1-0.2c-0.9-0.2-1.4-0.6-1.9-1.2c0-0.1,0-0.1,0-0.1c0-0.1,0.1-0.1,0.2-0.1s0.1,0,0.2,0.1
						c0.7,1,2,1.1,3.2,1.3c1.2,0.1,2.4,0.3,3.1,1.2c0.4,0.4,0.4,1,0.1,1.7l-0.4,1l0.8-0.6c0.9-0.7,1.4-1.3,1.6-2
						c0.1-0.4-0.1-1-0.4-1.6c-0.1-0.2-0.2-0.4-0.2-0.6c-0.6-1.7-0.9-2.8-0.6-4.1l0.1-0.3c0,0-1.2-0.2-1.4-0.2
						c-0.2,0-0.2-0.2-0.2-0.3s0.1-0.1,0.1-0.1c0.3,0,0.6,0.1,0.9,0.1l0.8,0.1l0.1-0.2l0.3-0.6l-0.3-0.1c-1.1-0.3-2-0.7-2.9-1
						c-0.2-0.1-0.1-0.2-0.1-0.3c0,0,0-0.1,0.1-0.1c1.2,0.5,2.4,0.9,3.6,1.3c0.1,0,0.1,0.1,0.1,0.1v0.1c-0.1,0.2-0.2,0.3-0.3,0.5
						l-0.2,0.4l0.4,0.1c4.6,0.7,9.2,1.6,13.8,2.8c3.9,1,6.7,2.2,8.9,3.8l0.4-0.4c-1.6-2.3-2.6-5-3.4-8.8c-0.5-2.7-1.3-6.4,0.2-9.1
						l0.1-0.1h0.5c0.2,0,0.2,0.2,0.2,0.2c0,0.1-0.1,0.1-0.1,0.1l0,0c-0.3,0-0.5,0.1-0.7,0.3c-1.2,1.6,0.5,9.5,0.5,9.6
						c1,4.2,2.4,7.1,4.7,9.4c0.1,0.1,0.1,0.1,0.1,0.1s0,0.1-0.1,0.1l-0.1,0.1l0.1,0.2c0,0.1,0,0.1,0,0.2c0,0.1-0.1,0.1-0.2,0.1
						c0,0,0,0-0.1-0.1c-3.1-3.3-7.2-4.8-12.2-6c-4.7-1.1-8.9-1.9-12.8-2.5H73l-0.1,0.2c-0.5,1.8,0.2,3.5,0.8,5.2
						c0.2,0.4,0.3,0.8,0.5,1.2c0,0.1-0.1,0.2-0.2,0.2c-0.3,0.1-0.6,0.6-1,1.1c-0.2,0.2-0.3,0.5-0.4,0.6
						C72,148.3,71.4,148.8,70.4,149.2L70.4,149.2z"/>
				</g>
			</g>
			<g>
				<g>
					<path class="st5" d="M154.9,134.2c-0.1,0-0.1,0-0.1-0.1c-0.4-1.8-1.3-3.2-2.1-4.5c-0.5-0.8-1.1-1.6-1.5-2.6
						c-0.4-0.9-0.7-1.8-1-2.8c-0.3-0.9-0.6-1.9-1-2.8l-0.1-0.1c-1.4-3.2-2.8-6.2-2.1-9.8c0-0.1,0-0.1,0.1-0.1s0.1,0,0.2,0.1
						c0,0,0,0.1,0,0.2c-0.7,3.5,0.7,6.6,2.1,9.6c0.5,1.1,1,2.2,1.4,3.4c0.5,1.5,1.3,2.8,2,4c1,1.7,1.9,3.3,2.3,5.3
						c0,0.1,0,0.1,0,0.2C155,134.2,155,134.2,154.9,134.2z"/>
				</g>
			</g>
			<g>
				<g>
					<path class="st5" d="M151.1,132L151.1,132c-4.2-2.5-7.7-4.8-9.5-9.1c-2-4.9-2.4-10-1-14.1c0-0.1,0.1-0.1,0.2-0.1
						c0.1,0,0.1,0,0.2,0.1c0,0,0,0,0,0.1c-1.4,4.1-1,9,1,13.9c1.7,4.2,5.2,6.5,9.2,8.9c0,0,0.1,0.1,0.1,0.2L151.1,132z"/>
				</g>
			</g>
			<g>
				<g>
					<path class="st5" d="M164.2,155.9c-0.1,0-0.2,0-0.2-0.1v-0.1c0.5-0.8-1.5-2.2-8.6-6.8c-2.8-1.8-5.7-3.7-7.5-5.1l-0.6-0.5
						l0.2,0.8c0.2,0.7,0.3,1.4,0.4,2c0,0.1-0.1,0.1-0.1,0.1s-0.2,0-0.2-0.2c-0.1-1-0.3-2.1-0.8-3.2v-0.1l0,0
						c-0.3-0.3-0.4-0.5-0.4-0.5v-0.1l0.1-0.1l-0.1-0.1c-2.2-4.8-7.1-9.8-12-12c-0.1,0-0.1-0.1-0.1-0.1c0-0.1,0.1-0.2,0.2-0.2
						c5.1,2.3,10,7.1,12.2,12.1l0.1,0.1h0.1l0.4,0.3c0,0,0.1,0.1,0,0.1l-0.1,0.4l0.1,0.3l0.1,0.1c2,1.2,6.6,4.3,6.6,4.4l0.3,0.2
						c2.8,2,5.3,3.7,8.5,5.1c1.1,0.5,1.9,0.8,2.1,1.5c0.1,0.4,0,0.9-0.4,1.6C164.3,155.9,164.2,155.9,164.2,155.9z"/>
				</g>
			</g>
			<g>
				<g>
					<path class="st5" d="M141.1,147.3c-0.1,0-0.1,0-0.1-0.1c-0.3-1.9-1.7-3.1-3.6-3.1h-0.1c0,0-0.1,0-0.1-0.1
						c-0.5-1.2-1.1-2.2-1.8-2.9c-0.2-0.2-0.5-0.4-0.7-0.6c-0.4-0.3-0.7-0.5-0.9-0.8s-0.2-0.6-0.3-1c-0.1-0.5-0.2-1-0.7-1.5
						c-0.6-0.6-1.4-1-2.2-1.5c-0.4-0.2-0.7-0.4-1-0.6c0,0-0.1-0.1-0.1-0.2c0-0.1,0.1-0.1,0.1-0.1c0.4,0.3,0.9,0.5,1.3,0.7
						c1.1,0.6,2.3,1.2,2.9,2.1c0.2,0.2,0.2,0.6,0.3,1s0.1,0.9,0.4,1.2c0.2,0.3,0.6,0.6,0.9,0.9c0.3,0.2,0.5,0.5,0.7,0.7
						s0.3,0.5,0.5,0.8c0.3,0.5,0.5,1,0.9,1.3c0.3,0.2,0.7,0.3,1,0.4c0.2,0.1,0.5,0.1,0.7,0.2c1.1,0.6,1.9,1.6,2.1,2.9
						c0,0.1,0,0.1,0,0.2C141.3,147.3,141.2,147.3,141.1,147.3z"/>
				</g>
			</g>
			<g class="st4">
				<g>
					<path class="st5" d="M113.2,153.4c-0.4,0-0.8,0-1.1-0.1c0,0-0.1,0-0.1-0.1s0.1-0.2,0.2-0.2c0.4,0.1,0.7,0.1,1,0.1
						c2,0,4.3-1,6.1-1.8c0.3-0.1,0.6-0.3,0.8-0.4c2-0.8,4-1.8,6.1-3.1c0,0,0,0,0.1,0s0.2,0.1,0.2,0.1c0,0.1,0,0.1-0.1,0.2
						c-2.6,1.5-5,2.7-7.5,3.7c-0.3,0.1-0.5,0.2-0.8,0.3C116.4,152.7,114.8,153.4,113.2,153.4L113.2,153.4z"/>
				</g>
			</g>
			<g>
				<g>
					<path class="st5" d="M109.5,146.5c-1.1,0-2.2-0.1-3.3-0.3c-0.1,0-0.1,0-0.1-0.1s0.1-0.2,0.2-0.2c1.1,0.2,2.1,0.3,3.2,0.3
						c5.3,0,9.9-2.3,15.1-5.1c0,0,0,0,0.1,0s0.2,0.1,0.2,0.1c0,0.1,0,0.1-0.1,0.2C119.8,144.1,114.8,146.5,109.5,146.5z"/>
				</g>
			</g>
			<g class="st4">
				<g>
					<path class="st5" d="M157.4,163.1C157.3,163.1,157.3,163,157.4,163.1l-13.4-7.3c-0.3-0.1-0.5-0.3-0.8-0.4c-1.8-1-3.6-2-5.8-2
						h-0.3c-2.6,0.1-5.6,1.1-9.2,3.1c0,0,0,0-0.1,0s-0.2-0.1-0.2-0.1c0-0.1,0-0.1,0.1-0.2c2.5-1.4,6.3-3.2,9.7-3.2
						c1,0,1.9,0.2,2.7,0.5c1.8,0.7,3.6,1.7,5.3,2.8c0.8,0.5,1.5,0.9,2.3,1.3l9.7,5.3c0,0,0.1,0.1,0.1,0.2
						C157.5,163,157.4,163.1,157.4,163.1z"/>
				</g>
			</g>
			<g>
				<g>
					<path class="st5" d="M118.8,158c-1.5,0-3-0.1-4.4-0.3c-0.1,0-0.1,0-0.1-0.1s0.1-0.2,0.2-0.2c1.5,0.2,2.9,0.3,4.3,0.3
						c1.5,0,3-0.1,4.5-0.3l0,0c0.2,0,0.2,0.1,0.2,0.2c0,0.1,0,0.1-0.1,0.1C121.9,157.9,120.3,158,118.8,158L118.8,158z"/>
				</g>
			</g>
			<g>
				<g>
					<path class="st5" d="M120.3,166c-4.7-1.9-9.1-5.1-13.1-8.3l-0.1-0.1c-2.2-1.8-8.1-6.4-7.9-9.6c0-0.1,0-0.2,0.1-0.2h0.2
						c0.1,0,0.2,0.1,0.2,0.2c0,0.1-0.1,0.2-0.1,0.2l0.1,0.6h-0.2c0.3,0.2,1.8,2.5,2.4,3.3c0.3,0.5,0.5,0.8,0.6,0.8
						c0.9,1,1.9,2.1,3.2,3.2c2.9,2.6,6.3,4.8,8.8,6.5c1.7,1.1,3.9,2.4,6.3,3.3C120.7,165.9,120.5,166,120.3,166z"/>
				</g>
			</g>
			<g>
				<g>
					<path class="st5" d="M166,146.4c-1.2-1-2.3-2-3.4-3c-0.4-0.3-0.8-0.7-1.1-1c-1.3-1.2-2.6-2.4-3.7-3.7c-0.2-0.2-0.4-0.5-0.6-0.8
						c-0.2-0.4-0.4-0.7-0.7-1c-0.5-0.6-1-0.8-1.6-0.8c-0.3,0-0.7,0.1-1,0.2c-0.2,0.1-0.5,0.1-0.8,0.2l0,0c-0.1,0-0.2-0.1-0.3-0.1
						l0.2-0.3l0.1-0.1c0.1-0.1,0.1-0.1,0.1-0.1l0.5,0.1c0,0,0.1,0,0.1,0.1l0.1,0.1h0.1c0.7-0.2,1.3-0.4,2-0.7c0.1,0,0.1,0,0.2,0.1
						c1.3,3.1,3.9,5.5,6.4,7.7c0.4,0.4,0.8,0.7,1.2,1.1C164.5,145.1,165.3,145.7,166,146.4C166,146,166,146.4,166,146.4z"/>
				</g>
			</g>
			<g>
				<g>
					<path class="st5" d="M157.2,166.6c1.1-2.4,2.8-4.7,4.9-6.7c0.1-0.1,0.1-0.1,0.1-0.1c0.1,0,0.2,0.1,0.2,0.1c0,0.1,0,0.1,0,0.2
						c-2.1,2-3.7,4.2-4.8,6.5H157.2z"/>
				</g>
			</g>
			<g>
				<g>
					<path class="st5" d="M137.6,54.3c-0.1,0-0.2-0.1-0.2-0.1v-0.1c2-1.7,3-3.4,3-5c0-1.2-0.5-2.4-1.6-3.5c-0.8-0.7-1.7-1.4-2.9-2
						c-1-0.5-2-0.8-2.9-0.8c-1,0-2,0.2-3.1,0.8l0,0c-0.2,0-0.2-0.1-0.3-0.2c0,0,0-0.1,0.1-0.1c1.3-0.6,2.4-0.9,3.5-0.9
						c0.3,0,0.6,0,0.9,0.1l0.2-0.5c-4.7-2.6-10.4-3.9-16.3-3.9c-4.8,0-9.8,0.9-14.3,2.6l0,0c-0.1,0-0.1-0.1-0.1-0.1s0-0.2,0.1-0.2
						c4.5-1.7,9.5-2.6,14.3-2.6c9.5,0,17.9,3.3,23.5,9.3l0.3,0.3L142,47c0.5-0.9,0.5-1.9,0.1-2.9c-1.2-2.9-6-5.3-8.6-6.2
						c-3-1.1-6.6-1.8-10.7-2.2c-1.2-0.1-2.3-0.2-3.5-0.2c-2.5,0-4.9,0.3-7.2,0.7l-0.8,0.2c-3.1,0.6-7,1.4-8.8,4.1
						c0,0.1-0.1,0.1-0.2,0.1l0,0c-0.1,0-0.2-0.1-0.2-0.1s0,0,0-0.1c1.9-2.8,5.7-3.5,9-4.2l0.8-0.2c0.9-0.2,1.9-0.3,3-0.5L115,35
						c0,0-0.1-0.1,0-0.2c0,0,0-0.2,0.2-0.2c1.8-0.2,3.7-0.3,5.5-0.3c3.9,0,7.6,0.5,11.3,1.5c4.9,1.4,9.1,2.9,11.2,7.4
						c0,0.1,0,0.1,0,0.2c0,0.1-0.1,0.1-0.2,0.1c0,0-0.1,0-0.1-0.1l-0.5,0.3c0.6,1.3,0.6,2.5-0.2,3.9l-0.1,0.2l0.1,0.2
						c0.1,0.1,0,0.2-0.1,0.3l-0.4,0.3l0.4,0.2c0.8,0.4,1.4,0.9,1.9,1.4c0.7,0.8,0.5,2.3,0.1,3.3c0,0.1-0.1,0.1-0.2,0.1
						c-0.1,0-0.1,0-0.2-0.1c0,0,0,0,0-0.1c0.6-1.5,0.4-2.7-0.4-3.4c-0.7-0.6-1.3-1-2-1.2l-0.4-0.1v0.4c0,0.4,0,0.8-0.1,1.2v0.2
						l0.2,0.1c0.8,0.4,1.7,0.9,1.9,1.8c0,0.1,0,0.1,0,0.2c0,0.1-0.1,0.1-0.2,0.1c-0.1,0-0.1,0-0.1-0.1c-0.2-0.9-0.9-1.3-1.6-1.6
						l-0.3-0.1l-0.1,0.3c-0.5,1.2-1.4,2.4-2.8,3.6C137.7,54.2,137.7,54.3,137.6,54.3z M140.5,47.2c0.1,0.1,0.1,0.3,0.2,0.4v0.2
						l0.4,0.1l0.2-0.2l0.1-0.1l0.1-0.2l-0.2-0.2l-0.3-0.3L140.5,47.2z M119.1,34.9c2.7,0,5.5,0.3,8.4,0.8c3.8,0.7,12.5,3.5,14.7,7.5
						l0.5-0.3c-2.4-5-8.2-6.6-13.4-7.7c-2.8-0.6-5.7-0.9-8.7-0.9c-0.8,0-1.7,0-2.6,0.1V35C118.4,34.9,118.7,34.9,119.1,34.9z"/>
				</g>
			</g>
			<g>
				<g>
					<path class="st5" d="M143.3,47.8c-0.1,0-0.1,0-0.2-0.1c0,0,0-0.1,0-0.2c0.5-0.9,0.6-1.7,0.4-2.7c0,0,0-0.1,0-0.2
						c0.2-0.1,0.4-0.1,0.6-0.1c0.8-0.1,1.6-0.2,2.2-0.8c0.3-0.4,0.5-0.9,0.4-1.3c-0.1-0.2-0.4-0.6-1.1-0.6h-0.1
						c-0.4,0-0.8,0.1-1.1,0.4l0,0l-0.1,0.2c-0.1,0.1-0.1,0.2-0.2,0.3c0,0.1-0.1,0.1-0.1,0.1c-0.1,0-0.1,0-0.2-0.1c0-0.1,0-0.1,0-0.2
						v-0.1v-0.1c0.1-0.1,0.1-0.1,0.1-0.2l0,0L144,42c1.6-2.9,3.9-5.3,6.7-7.1c0,0,0,0,0.1,0s0.1,0.1,0.2,0.1c0,0.1,0,0.2-0.1,0.2
						c-2.3,1.5-4.3,3.5-5.8,5.8l-0.3,0.5l0.6-0.1c0.1,0,0.2,0,0.3,0c0.4,0,1.1,0.1,1.4,0.9c0.2,0.6,0.2,1.4-0.2,1.9
						c-0.5,0.6-1.5,0.6-2.3,0.7L144,45v0.3c0.1,0.9,0,1.7-0.5,2.5C143.4,47.8,143.3,47.8,143.3,47.8z"/>
				</g>
			</g>
			<g class="st4">
				<g>
					<path class="st5" d="M142.4,39.3c-0.1,0-0.1,0-0.2-0.1c0,0,0,0,0-0.1c1.3-3.5,4.4-5.6,8-5.6c0.3,0,0.6,0,0.8,0
						c0.1,0,0.1,0,0.1,0.1c0,0,0.1,0.1,0,0.2v0.1H151c-0.3,0-0.6,0-0.9,0C146.6,33.9,143.6,35.9,142.4,39.3
						C142.6,39.2,142.5,39.3,142.4,39.3z M154.1,36.2c-1,0-1.8-0.3-2.2-0.8c-0.3-0.3-0.4-0.7-0.4-1.2v-0.1h0.1c0,0,0,0,0.1,0
						s0.1,0,0.1,0c0,0.5,0.1,0.8,0.4,1.1c0.4,0.4,1.1,0.7,1.8,0.7c0.8,0,1.9-0.3,2.4-1.1c0.3-0.4,0.5-1.1,0.2-2.1
						c-0.5-1.2-2-1.9-3.3-1.9c-1.1,0-1.9,0.5-2.2,1.4c0,0.1-0.1,0.1-0.2,0.1c-0.1,0-0.1,0-0.2-0.1c0,0,0,0,0-0.1
						c0.4-1.1,1.3-1.7,2.6-1.7c1.7,0,3.6,1.1,3.7,2.9c0.1,1.5-0.8,2.6-2.4,2.8C154.6,36.2,154.4,36.2,154.1,36.2z"/>
				</g>
			</g>
			<g class="st4">
				<g>
					<path class="st5" d="M140.9,38.4c-0.1,0-0.2,0-0.2-0.1v-0.1c2.3-3.5,3.1-6.2,2.7-8.3c-0.3-1.2-1-2.2-2.1-2.9
						c-0.4-0.2-0.9-0.4-1.4-0.4c-0.9,0-1.8,0.3-2.6,0.5l-0.4,0.1c-3,0.8-5.1,4-4.7,7c0,0.1,0,0.1,0,0.2c0,0.1-0.1,0.1-0.2,0.1
						c-0.1,0-0.1,0-0.1-0.1c-0.3-2.4,0.6-4.5,2.6-6.3c0.9-0.8,1.8-1.1,2.9-1.4c0.3-0.1,0.6-0.2,0.9-0.3c0.7-0.2,1.5-0.5,2.1-0.5
						c0.1,0,0.2,0,0.3,0c1.5,0.3,2.9,3.2,3.1,4.6c0.3,2.9-1.4,5.5-2.8,7.7C141,38.4,141,38.4,140.9,38.4z"/>
				</g>
			</g>
			<g>
				<g>
					<path class="st5" d="M138.4,34.8c-0.2,0-0.5,0-0.7-0.1c-0.9-0.3-2-1.2-2.2-2.2c-0.1-0.5,0-0.9,0.4-1.2c0.1-0.1,0.1-0.1,0.1-0.1
						c0.1,0,0.2,0.1,0.2,0.2v0.1l-0.1,0.1l0,0c-0.4,0.4-0.4,1,0,1.5l0.6,0.7l-0.1-0.9c0-0.4,0-0.8,0-1.1v-0.2l0.1-0.2
						c0.3-0.9,0.9-1.4,2-1.6c0.2,0,0.4-0.1,0.6-0.1c0.7,0,1.4,0.2,1.7,0.7c0.3,0.4,0.5,1,0.3,1.7C141,33.6,138.4,34.8,138.4,34.8z
						 M139.1,30.1c-0.3,0-0.7,0.1-1,0.2c-2,0.7-1.4,2.8-1.2,3.5v0.1L137,34c0.5,0.3,1.1,0.4,1.4,0.4c1.4-0.1,2.4-1.4,2.4-2.6
						C140.9,30.7,140.2,30.1,139.1,30.1z"/>
				</g>
			</g>
			<g>
				<g>
					<path class="st5" d="M102.4,33.2L102.4,33.2c-1.3-0.9-2.7-1.3-4.1-1.3c-0.5,0-1,0.1-1.5,0.2l0,0c-0.2,0-0.2-0.1-0.2-0.2
						c0-0.1,0.1-0.1,0.1-0.1c0.5-0.1,1.1-0.2,1.6-0.2c1.5,0,2.9,0.4,4.2,1.3c0.1,0,0.1,0.1,0.1,0.2
						C102.5,33.1,102.5,33.2,102.4,33.2z"/>
				</g>
			</g>
			<g>
				<g>
					<path class="st5" d="M100.9,38.1C100.8,38.1,100.8,38,100.9,38.1c-0.4-1.4-1-3.1-2.1-4c-0.9-0.7-2.2-1-3.8-1h-0.1l-0.2,0.1
						c-0.5,0.4-1,0.6-1.7,0.6c-1.2,0-2.2-0.7-2.6-1.7c-0.4-0.9-0.3-1.9,0.2-2.6c0.3-0.4,0.7-0.6,1.3-0.6c0.6,0,1.2,0.2,1.7,0.4
						l0.2,0.1c0.1,0,0.1,0.2,0.1,0.2v0.2l0.2,0.1c0.1,0.1,0.2,0.1,0.3,0.2l0.3,0.2l0.2,0.3c0.4,0.6,0.6,1.3,0.4,1.9l-0.1,0.4h0.4
						c1.5,0.1,2.7,0.4,3.5,1.1c0.9,0.7,1.6,2.1,2.1,4.1c0,0.1,0,0.1,0,0.1C101,38.1,101,38.1,100.9,38.1z M91.2,29.4
						c-0.4,0.3-0.7,0.8-0.8,1.4c-0.1,1.2,0.7,2.3,1.7,2.6c0.2,0,0.4,0.1,0.6,0.1c0.5,0,1-0.1,1.4-0.4l0.1-0.1v-0.1
						c0-0.1,0.1-0.1,0.1-0.1h0.1l0.1-0.1c0.3-0.4,0.4-0.8,0.3-1.3l0,0l0,0l-0.1-0.2l-0.2-0.6l-0.1,0.2l0,0c-0.3-0.4-0.7-0.7-1.3-0.8
						c-0.2,0-0.4-0.1-0.6-0.1h-0.3L92,31.1v0.1c0.1,0.3,0.6,0.5,1,0.5s0.8-0.2,0.9-0.4c0-0.1,0.1-0.1,0.2-0.1h0.2l-0.1,0.1
						c-0.3,0.6-0.7,0.8-1.1,0.8c-0.7,0-1.5-0.5-1.8-1.1c-0.1-0.3-0.2-0.7,0.1-1.2L91.2,29.4z M103.4,31.1L103.4,31.1
						c-1.4-1.5-3.2-2.4-4.9-2.4c-1,0-2,0.3-2.8,0.9l-0.1,0.1v0.2c0,0.1,0,0.1,0,0.2c0,0,0,0-0.1,0h-0.6l0.1-0.2c1-1,2.3-1.5,3.6-1.5
						c1.3,0,2.7,0.5,4,1.4l0.6,0.4l-0.1-0.7c-0.3-1.5-0.3-3,0.1-4.5c0-0.1,0-0.1,0.1-0.1s0.1,0,0.2,0.1v0.1
						c-0.4,1.9-0.3,3.8,0.3,5.8V31C103.6,31,103.5,31.1,103.4,31.1z"/>
				</g>
			</g>
			<g>
				<g>
					<path class="st5" d="M115.2,26.3C115.1,26.3,115.1,26.3,115.2,26.3c-0.1,0-0.1,0-0.1-0.1v-0.4H115l0.2-0.7
						c0.8-2.8,3.9-4.7,6.5-5.2l0,0c0.2,0,0.2,0.1,0.2,0.2s0,0.1-0.1,0.1c-2.5,0.5-6.3,2.5-6.4,6C115.4,26.2,115.2,26.3,115.2,26.3z
						 M114.7,25.6C114.7,25.6,114.6,25.7,114.7,25.6c-0.2,0-0.2,0-0.2-0.1c-0.5-2-1.9-2.6-3.5-3.1c-1.3-0.4-2.7-0.7-4.3-0.8h-0.3
						v0.3c-0.1,0.9-1.1,1.5-2.2,1.5c-0.1,0-0.2,0-0.3,0h-0.1l-0.1,0.1c-0.7,0.5-1.3,0.7-1.9,0.7l0,0c-0.3,0-0.6-0.1-0.8-0.2
						c-1.1-0.5-1.1-1.6-1-2.5c0.2-1.6,1.7-2.2,3-2.2c1.1,0,2.2,0.4,2.8,1.1c0.2,0.2,0.4,0.5,0.5,0.7l0.1,0.2h0.2
						c2.3,0.1,4.3,0.6,6,1.4c1.1,0.5,1.7,1.1,2.1,2.3l0.2,0.7L114.7,25.6z M103,19.7c-0.9,0-1.7,0.3-2.2,0.9
						c-0.4,0.5-0.6,1.1-0.6,1.7c0.1,0.9,0.6,1.5,1.4,1.5c0.3,0,0.7-0.1,1.1-0.3l0.5-0.2l-0.4-0.3l-0.1-0.1c-0.4-0.3-0.7-0.9-0.7-1.4
						c0-0.3,0.1-0.6,0.3-0.8c0.2-0.2,0.4-0.3,0.7-0.3c0.7,0,1.6,0.6,2,1c0.1,0.1,0.1,0.1,0,0.2c0,0.1-0.1,0.1-0.2,0.1
						c0,0-0.1,0-0.1-0.1c0,0-0.8-0.8-1.5-0.8c-0.2,0-0.7,0.1-0.8,0.9c0,0.6,0.4,1,1.2,1.2h0.1l0.1-0.1c0.1-0.1,0.1-0.1,0.2-0.1
						s0.1,0,0.2,0.1l0.1,0.1h0.1c0.2,0,0.4,0,0.5-0.1c0.8-0.3,0.9-0.8,1-1.1c0.1-0.6-0.4-1.4-1.1-1.7C104.3,19.8,103,19.7,103,19.7z
						"/>
				</g>
			</g>
			<g>
				<g>
					<path class="st5" d="M144.5,34c-0.1,0-0.2-0.1-0.2-0.1s0,0,0-0.1c0.2-0.3,0.4-0.6,0.5-1l0,0v-0.2c0.2-0.9,0.1-1.8,0.1-2.7
						c-0.1-2.1-0.8-3.5-2.1-4.4c-0.1-0.1-0.1-0.2,0-0.3l0.1-0.2l0.6,0.5c1,0.9,1.5,2,1.7,3.6c0.1,0.7,0.2,1.6,0.1,2.4V32l0.4-0.2
						c0.5-0.2,1-0.3,1.7-0.3c0.8,0,1.6,0.2,2.3,0.3c0,0,0.1,0,0.1,0.1s-0.1,0.2-0.2,0.2c-0.8-0.2-1.5-0.3-2.2-0.3
						c-1,0-1.7,0.3-2.3,0.9l-0.1,0.1v0.1C144.9,33.3,144.7,33.7,144.5,34C144.6,34,144.6,34,144.5,34z M131.8,28.1
						C131.8,28.1,131.7,28.1,131.8,28.1c-0.3-0.4-0.2-0.4,0-0.8l0.1-0.1l0.2-0.3l-0.1-0.1c-0.2-0.5-0.4-1-0.5-1.5s-0.3-0.9-0.5-1.4
						c-0.6-1.4-1.9-2-3.1-2.6c-0.3-0.1-0.5-0.3-0.8-0.4l-0.1-0.2h-0.3c-0.4,0.2-0.9,0.3-1.3,0.3c-0.3,0-0.6-0.1-0.9-0.2
						c0,0-0.1-0.1-0.1-0.2s0.1-0.1,0.1-0.1c0.2,0.1,0.4,0.2,0.7,0.2c0.3,0,0.7-0.1,1-0.2c1-0.3,1.6-0.9,1.7-1.8s-0.2-2-2.1-2.5
						c-0.5-0.1-0.9-0.2-1.4-0.2c-0.6,0-1.1,0.1-1.6,0.4c-0.5,0.3-0.8,0.7-0.8,1.2c0,0.4,0.2,0.8,0.6,1.1c0.4,0.3,0.9,0.5,1.5,0.7
						c0.2,0.1,0.1,0.2,0.1,0.3c0,0,0,0.1-0.1,0.1l0,0c-0.9-0.3-2.3-0.9-2.5-1.8c-0.1-0.3-0.1-0.6,0.1-1c0.6-1.1,1.8-1.3,2.7-1.3
						c0.7,0,1.4,0.2,1.8,0.3c0.8,0.2,1.4,0.7,1.8,1.4c0.3,0.6,0.3,1.3,0.1,2c-0.1,0.3-0.4,0.6-0.7,0.9l-0.3,0.3l0.4,0.2
						c0.2,0.1,0.4,0.2,0.6,0.3c1.1,0.5,2,1,2.7,1.9c0.4,0.6,0.6,1.4,0.9,2.1c0.1,0.4,0.2,0.8,0.4,1.1l0.2,0.4l0.3-0.4
						c0.8-0.9,1.7-1.7,2.3-2.1c1.5-1.1,3.2-1.2,4.8-1.2c0.5,0,1,0,1.5,0h0.2V23c0,0.1,0,0.1,0,0.1h-0.1h-0.2c-0.5,0-1,0-1.5,0
						c-1,0-2.2,0.1-3.4,0.6c-0.9,0.4-1.6,1-2.1,1.6l-0.2,0.2c-0.3,0.3-0.8,0.8-1.2,1.2l-0.2,0.2l0.1,0.2c0.1,0.1,0.1,0.2,0.1,0.2
						c0,0.1,0,0.1,0,0.1c0,0.1-0.1,0.1-0.2,0.1l-0.4-0.2v0.5c0,0.1,0,0.1-0.1,0.1C131.9,28.1,131.8,28.1,131.8,28.1z M144.6,25.2
						c-0.3,0-0.6,0-0.8-0.1L143,25l0,0l-0.3-0.1c-0.1-0.1-0.3-0.1-0.4-0.2c-0.1,0-0.1-0.1-0.1-0.1c0-0.1,0.1-0.2,0.2-0.2
						c0.7,0.3,1.5,0.5,2.3,0.5c1.2,0,2.2-0.4,2.7-1c0.4-0.5,0.5-1.1,0.3-1.8c-0.2-1-0.9-1.5-2-1.5c-0.3,0-0.7,0-1,0.1
						c-0.9,0.1-3.1,0.4-2.9,2.1c0,0.1-0.1,0.1-0.1,0.1l-0.2-0.1v-0.2v-0.1c-0.1-1,0.8-1.8,2.8-2.2c0.6-0.1,1.1-0.2,1.5-0.2
						c1.1,0,1.8,0.4,2.1,1.2c0.4,0.9,0.3,1.7-0.1,2.4C147.3,24.6,146,25.2,144.6,25.2z"/>
				</g>
			</g>
			<g>
				<g>
					<path class="st5" d="M125.9,18.7C125.8,18.7,125.8,18.7,125.9,18.7c-0.5-0.6-1.2-1.4-1.9-1.4c-0.2,0-0.4,0.1-0.6,0.2
						c0,0,0,0-0.1,0s-0.2-0.1-0.2-0.1c0-0.1,0-0.1,0.1-0.2c0.3-0.2,0.5-0.2,0.8-0.2c0.7,0,1.4,0.5,2.1,1.4c0.1,0.1,0.1,0.1,0,0.2
						C126,18.7,125.9,18.7,125.9,18.7z"/>
				</g>
			</g>
			<g class="st4">
				<g>
					<path class="st5" d="M128.9,33.1c-0.1,0-0.1,0-0.2-0.1v-0.1c0.6-2.1,1-4.1-0.4-6.2c-0.8-1.2-2.7-3.1-4.4-3.5
						c-0.1,0-0.1,0-0.1-0.1v-0.4l-0.3,0.1c-1.8,0.4-3.1,1.1-4.1,2.1c-1.8,1.8-1.8,4.1-1.6,6.1c0,0.1-0.1,0.1-0.1,0.1s-0.2,0-0.2-0.2
						c-0.2-2.4,0-4.4,1.4-6c1.2-1.4,3.1-2.4,5.7-2.8l0,0c0.2,0,0.2,0.1,0.2,0.2s0,0.1-0.1,0.1l-0.8,0.2l0.7,0.3
						c1.6,0.6,3.2,2.2,4,3.5c1.3,1.9,1.1,3.9,0.5,6.4C129,33,128.9,33.1,128.9,33.1z"/>
				</g>
			</g>
			<g>
				<g>
					<path class="st5" d="M123.4,22.8l0.3-0.1v0.1c0.1,0,0.1,0,0.2-0.1h-0.1l0.8-0.2c0,0,0.1,0,0.1-0.1s-0.1-0.2-0.2-0.2l0,0
						c-2.6,0.5-4.5,1.4-5.7,2.8c-1.4,1.6-1.6,3.6-1.4,6c0,0.2,0.2,0.2,0.2,0.2c0.1,0,0.1,0,0.1-0.1c-0.1-2-0.1-4.3,1.6-6.1
						C120.3,24,121.6,23.3,123.4,22.8z"/>
				</g>
			</g>
			<g>
				<g>
					<path class="st5" d="M106.9,36c-0.1,0-0.2,0-0.2-0.1c-0.2-0.4-0.4-0.9-0.5-1.3c-1.2-2.9-2.5-5.9-1.5-9c0,0,0-0.1,0.1-0.1v-0.6
						c-0.1,0-0.2-0.2-0.2-0.2s0-0.1,0.1-0.1c0.4-0.1,0.8-0.1,1.2-0.1c5,0,7.4,4.7,7.9,8.6c0,0.1-0.1,0.1-0.1,0.1s-0.2,0-0.2-0.2
						c-0.5-4.1-3-8.2-7.5-8.2c-0.3,0-0.7,0-1,0.1v0.6c0,0,0.1,0,0.1,0.1c-1,3.1,0.3,6.2,1.4,8.9c0.2,0.5,0.4,0.9,0.6,1.4
						C107,36,107,36,106.9,36z"/>
				</g>
			</g>
			<g>
				<g>
					<path class="st5" d="M109.3,34.2c-0.8,0-1.6-0.3-2-0.7c-1-1-1.9-3.8-1-5c0.4-0.6,1.1-0.9,1.9-0.9c1,0,1.9,0.6,2.2,1.4
						c0.7,1.1,0.9,2.6,0.7,4C110.9,34.1,109.3,34.2,109.3,34.2z M108.3,27.9c-0.5,0-1,0.2-1.3,0.5c-0.4,0.5-0.6,1.1-0.5,2
						c0.2,1.6,0.7,2.6,1.5,3.1c0.4,0.2,0.9,0.3,1.3,0.3c0.3,0,0.5-0.1,0.8-0.2c0.8-0.4,0.8-1.4,0.8-1.9c0-1.2-0.3-2.9-1.8-3.5
						c-0.1,0-0.1-0.1-0.1-0.1l-0.1-0.1h-0.2C108.6,27.9,108.4,27.9,108.3,27.9z"/>
				</g>
			</g>
			<g class="st4">
				<g>
					<path class="st5" d="M123.9,31.8c-0.8,0-1.8-0.2-2.6-0.5c-1-0.4-1.8-1.1-2-1.9c-0.2-0.7,0.1-1.3,0.7-2c0.8-0.9,2.2-1.1,3.3-1.4
						l0.8-0.1l0,0h0.1c0.2,0,0.5-0.1,0.7-0.1c0.5,0,0.9,0.2,1.1,0.5c0,0,0.1,0.1,0,0.2v0.2l0.1,0.1c1.2,0.8,1.4,2,0.8,3.4
						C126.4,31.5,123.9,31.8,123.9,31.8z M124,26.3c-1.2,0.1-2.6,0.6-3.1,0.9c-0.7,0.4-1.2,1-1.2,1.7c0,0.4,0,1,0.7,1.6
						c0.5,0.4,1.3,0.6,1.9,0.7s1.2,0.2,1.7,0.2c1.5,0,2.5-0.6,2.9-1.7c0.2-0.7,0.2-1.3-0.1-1.9c-0.4-0.7-1.3-1.3-2.6-1.6L124,26.3
						L124,26.3z"/>
				</g>
			</g>
			<g>
				<g>
					<path class="st5" d="M49.4,100.1C49.3,100.1,49.3,100.1,49.4,100.1c-0.1,0-0.1-0.1-0.1-0.2l0.1-0.3l0,0L75.1,3.2h0.1
						c0.1,0,0.2,0,0.3,0h0.1l-26,96.6l0,0L49.4,100.1C49.5,100.1,49.4,100.1,49.4,100.1z"/>
				</g>
			</g>
			<g>
				<g>
					<path class="st5" d="M53,100.6L79.5,2.9c0,0,0.3,0,0.5,0l-26.6,97.8L53,100.6z"/>
				</g>
			</g>
			<g>
				<g>
					<path class="st5" d="M41.6,137.5l0.4,0.1l-6.4,28.6c-0.2,0-0.3,0.1-0.5,0.1L41.6,137.5z"/>
				</g>
			</g>
			<g class="st4">
				<g>
					<path class="st5" d="M93.7,107.2c-0.7,0.1-1.5,0.2-2.1,0.2h-0.5l0,0H90c-0.2,0-0.3,0-0.5,0c-2.3,0.1-4.2,0.1-6,0.1
						c-1.1,0-2.1,0-3.2,0c-2.1-0.1-4.2-0.2-6.3-0.3c-2.8-0.2-5.7-0.3-8.6-0.3c-1.2,0-2.3,0-3.4,0.1c-0.2,0-0.2,0.2-0.2,0.2
						c0,0.1,0,0.1,0.1,0.1l0,0c1.2-0.1,2.4-0.1,3.7-0.1c3,0,6.1,0.2,9.1,0.3c3,0.2,6.1,0.3,9.1,0.3h1.3c0.6,0,1.2,0,1.8,0
						c0.6,0,1.2,0,1.9,0c1.5,0,3.2,0,4.9-0.2C93.8,107.5,93.7,107.4,93.7,107.2z"/>
				</g>
			</g>
			<g class="st4">
				<g>
					<path class="st5" d="M110.5,93.5C110.4,93.5,110.4,93.5,110.5,93.5c-0.9,0.4-1.7,0.5-2.5,0.6l-0.7,0.1c-0.2,0-0.4,0.1-0.5,0.1
						c-0.2,0.1-0.5,0.4-0.8,0.6c-0.2,0.2-0.5,0.5-0.7,0.6c-0.8,0.5-1.6,0.8-2.3,0.9c0,0.1,0,0.2,0.1,0.4c0.9-0.1,1.9-0.5,2.8-1.2
						c0.1-0.1,0.2-0.2,0.4-0.3c0.2-0.2,0.4-0.4,0.6-0.5c0.3-0.2,0.8-0.2,1.2-0.2c0.2,0,0.3,0,0.5-0.1c0.7-0.1,1.5-0.4,2.2-0.7
						c0.1,0,0.1-0.1,0.1-0.1C110.7,93.6,110.6,93.5,110.5,93.5z"/>
				</g>
			</g>
			<g class="st4">
				<g>
					<path class="st5" d="M109.1,74.3c-0.3-0.3-0.6-0.7-0.9-1c-0.1,0.1-0.1,0.2-0.2,0.3c2.2,2.3,3.2,4.4,3.1,6.1
						c-0.1,1.3-0.9,2.5-2.3,3.4c-0.7,0.4-1.4,0.8-2.1,1.2c-0.6,0.3-1.2,0.6-1.8,1l-0.4,0.3v-0.1l-0.2,0.2c-0.3,0.2-0.5,0.4-0.9,0.6
						c-0.3,0.5-0.5,1-0.7,1.6c1.1-1.3,2.7-2.3,4.4-3.3c0.6-0.3,1.1-0.7,1.7-1.1c1.4-0.9,2.2-2,2.4-3.3
						C111.8,78.5,111,76.5,109.1,74.3z"/>
				</g>
			</g>
			<g class="st4">
				<g>
					<path class="st5" d="M109.5,55.6c-0.1,0.1-0.2,0.3-0.4,0.4c-0.2,0.2-0.4,0.3-0.5,0.4c0.6,1,0.8,1.7,0.6,2.4
						c-0.3,0.7-1.1,1.2-2.5,1.4c-1.1,0.4-2.3,0.6-3.5,0.6c-0.2,0-0.4,0.1-0.6,0.1c-0.6,0.1-1.1,0.1-1.6,0.4
						c-1.1,0.6-1.4,1.4-1.6,2.5c0,0.3-0.1,0.6-0.1,0.9c0.1,0,0.3,0,0.4,0c-0.1-0.5-0.1-1,0.1-1.5c0.7-1.7,2.5-1.9,3.8-2.1
						c0.2,0,0.4,0,0.5-0.1c1.1-0.2,2.4-0.4,3.6-0.9c1.4-0.6,2.3-1.6,2.3-2.7C110.3,56.7,110,56.1,109.5,55.6z"/>
				</g>
			</g>
			<g class="st4">
				<g>
					<path class="st5" d="M120.2,41.8c-0.4,0.1-0.7,0.2-1.1,0.3c-0.3,0.1-0.6,0.2-1,0.3l-0.1-0.1c-0.2,0.1-0.4,0.1-0.5,0.2l0.1,0.1
						l-0.4,0.2l0,0l-0.1,0.2c-0.1,0.2-0.3,0.2-0.6,0.2l0,0v-0.6c0,0-0.1,0-0.2,0.2V43c-0.1-0.1-0.5-0.3-1.3-0.7
						c-0.2-0.1-0.4-0.2-0.5-0.2c-0.6-0.2-1.4-0.3-2.3-0.3c-1,0-2,0.2-2.7,0.5c-0.1,0-0.2,0.1-0.3,0.2c-0.1,0.1-0.1,0.2-0.2,0.2
						c-0.2,0.2-0.5,0.4-0.7,0.6l-0.6,0.7c-0.5,0.5-0.9,0.9-1.4,1.1h-0.1l0,0c-0.2,0-0.4-0.1-0.7-0.2c-0.1-0.1-0.4-0.2-0.4-0.2
						c-0.1,0-0.3,0-0.4,0c-0.5,0-1,0.1-1.7,0.3c-0.6,0.2-1.3,0.7-1.8,1.3c0.2,0.1,0.5,0.2,0.7,0.3c0.5-1,1.2-1.5,2.1-1.5
						c0.7,0,1.5,0.3,2.4,0.8h0.1c0,0,0.1,0,0.1-0.1c0.9-1.7,1.4-2.3,3.1-3c0.7-0.5,1.5-0.8,2.4-0.8c0.1,0,0.3,0,0.4,0h0.1l3.7,1.9
						V44c0,0.1,0.1,0.1,0.1,0.1c0.1,0,0.1,0,0.2-0.1c0.8-1.2,2-1.9,3.4-2.1C120.2,41.9,120.2,41.9,120.2,41.8z"/>
				</g>
			</g>
			<g class="st4">
				<g>
					<path class="st5" d="M115.6,53.6L115.6,53.6c-1.7,0.5-3.2,0.9-4.8,0.9c-0.2,0-0.4,0-0.6,0c0,0,0,0,0,0.1
						c0.4,0.1,0.9,0.1,1.3,0.1c1.3,0,2.6-0.2,4.2-0.7c0.1,0,0.1-0.1,0.1-0.2C115.8,53.7,115.7,53.6,115.6,53.6z"/>
				</g>
			</g>
			<g>
				<g>
					<path class="st5" d="M157.4,162.1C157.3,162.1,157.3,162,157.4,162.1l-15-8.2c-0.3-0.2-0.6-0.3-0.9-0.5c-2-1.1-4-2.3-6.5-2.3
						h-0.3c-2.9,0.1-6.3,1.2-10.3,3.4c0,0,0,0-0.1,0s-0.2-0.1-0.2-0.2c0-0.1,0-0.1,0.1-0.2c2.8-1.5,7-3.6,10.9-3.6
						c1.1,0,2.2,0.2,3.1,0.5c2,0.7,4,1.9,6,3.1c0.9,0.5,1.7,1,2.6,1.5l10.9,6c0.1,0,0.1,0.1,0.1,0.2
						C157.5,162,157.4,162.1,157.4,162.1z"/>
				</g>
			</g>
			<g>
				<g>
					<path class="st5" d="M143.8,30.7c-0.2-1.4-1.6-4.4-3.1-4.6c0,0,0,0-0.1,0c0.2,0.3,0.3,0.5,0.4,0.8c0.1,0,0.2,0.1,0.2,0.1
						c1.2,0.7,1.9,1.7,2.1,2.9c0.5,2.1-0.4,4.8-2.7,8.3c0,0.1,0,0.1,0,0.1c0,0.1,0.1,0.1,0.2,0.1c0.1,0,0.1,0,0.1-0.1
						C142.4,36.2,144.1,33.6,143.8,30.7z"/>
				</g>
			</g>
			<g>
				<g>
					<path class="st5" d="M123.5,31.5c-0.4,0-0.8-0.1-1.2-0.2c-0.6-0.1-1.4-0.3-1.9-0.7c-0.7-0.6-0.8-1.2-0.7-1.6
						c0.1-0.6,0.5-1.3,1.2-1.7c0.5-0.3,1.9-0.8,3.1-0.9h0.1l0,0c0.3,0.1,0.6,0.2,0.9,0.3c0.2-0.2,0.5-0.3,0.8-0.4
						c-0.2-0.2-0.5-0.3-0.9-0.3c-0.2,0-0.5,0-0.7,0.1h-0.1l0,0l-0.8,0.1c-1.2,0.2-2.5,0.5-3.3,1.4c-0.6,0.6-0.8,1.3-0.7,2
						c0.2,0.8,0.9,1.5,2,1.9c0.8,0.3,1.6,0.4,2.4,0.5C123.6,31.7,123.5,31.6,123.5,31.5z"/>
				</g>
			</g>
		</g>
		<g>
			<g>
				<polygon class="st5" points="166.7,146.4 166.2,146.4 166.2,3.1 80,3.1 80,2.6 166.7,2.6 				"/>
			</g>
		</g>
		<g>
			<g>
				<polygon class="st5" points="35.6,166.6 3.3,166.6 3.3,3 75.1,3 75.1,3.5 3.8,3.5 3.8,166.1 35.6,166.1 				"/>
			</g>
		</g>
		<g>
			<g>
				<rect x="39.4" y="165.7" class="st5" width="80.9" height="0.5"/>
			</g>
		</g>
	</g>
	<g>
		<g>
			<path class="st6" d="M47.7,144.7v15.8c0,0.7-0.5,1.2-1.2,1.2s-1.2-0.5-1.2-1.2v-15l-6.1,15.1c-0.3,0.7-0.9,1.1-1.7,1.1
				s-1.4-0.4-1.7-1.1l-6.1-15.1v15c0,0.7-0.6,1.2-1.2,1.2c-0.7,0-1.2-0.5-1.2-1.2v-15.8c0-1,0.8-1.7,1.7-1.7h0.9
				c0.7,0,1.3,0.5,1.6,1.1l6,14.9l6-14.9c0.3-0.6,0.9-1.1,1.6-1.1H46C46.9,143,47.7,143.8,47.7,144.7z"/>
			<path class="st0" d="M37.5,167.1l-1-2.5c-1.5-0.3-2.8-1.3-3.4-2.8l-0.4-0.9c-0.2,2.1-2,3.8-4.2,3.8c-2.3,0-4.2-1.9-4.2-4.2v-15.8
				c0-1.8,1-3.3,2.4-4.1v-10.5l4,10c1.5,0.3,2.9,1.4,3.5,2.9l3.2,8l3.2-8c0.6-1.5,2-2.6,3.5-2.9l4-10v10.5c1.4,0.8,2.4,2.4,2.4,4.1
				v15.8c0,2.3-1.9,4.2-4.2,4.2c-2.2,0-4-1.7-4.2-3.8l-0.3,0.8c-0.7,1.5-2,2.6-3.5,2.9L37.5,167.1z"/>
		</g>
		<g>
			<path class="st6" d="M65.7,160.4c0,0.6-0.5,1.1-1.1,1.1H54c-0.7,0-1.2-0.5-1.2-1.2v-16c0-0.7,0.5-1.2,1.2-1.2h10.6
				c0.6,0,1.1,0.5,1.1,1.1s-0.5,1.1-1.1,1.1h-9.4v5.8h8.4c0.6,0,1.1,0.5,1.1,1.1s-0.5,1.1-1.1,1.1h-8.4v5.9h9.4
				C65.2,159.3,65.7,159.8,65.7,160.4z"/>
			<path class="st0" d="M64.5,164.5H54c-2.3,0-4.2-1.9-4.2-4.2v-16c0-2.3,1.9-4.2,4.2-4.2h10.6c2.3,0,4.1,1.9,4.1,4.1
				c0,2.2-1.7,4-3.9,4.1c1.7,0.5,3,2.1,3,4s-1.3,3.5-3.1,4c2.2,0.1,4,1.9,4,4.1C68.7,162.7,66.8,164.5,64.5,164.5z"/>
		</g>
		<g>
			<path class="st6" d="M82.2,156.6c0,3-2.7,5.1-6.8,5.1c-2.6,0-4.7-0.6-6.3-1.3c-0.4-0.2-0.7-0.6-0.7-1.1c0-0.6,0.4-1.1,1.1-1.1
				c0.2,0,0.3,0,0.5,0.1c1.2,0.5,2.9,1.1,5.2,1.1c2.6,0,4.6-0.7,4.6-3c0-3.9-11.2-1.7-11.2-8.2c0-2.9,2.4-5.4,6.8-5.4
				c2.1,0,3.8,0.3,5.3,0.9c0.4,0.1,0.7,0.4,0.7,1.1c0,0.5-0.4,1.1-1.1,1.1c-0.1,0-0.3-0.1-0.4-0.1c-1.2-0.4-2.6-0.7-4.2-0.7
				c-2.7,0-4.7,1-4.7,3C71,152.6,82.2,149.7,82.2,156.6z"/>
			<path class="st0" d="M75.4,164.8c-2.6,0-5.1-0.5-7.5-1.5c-1.5-0.6-2.5-2.2-2.5-3.8c0-2.3,1.8-4.1,4.1-4.1c0.6,0,1.1,0.1,1.7,0.3
				c1,0.5,2.1,0.7,3.2,0.8c-3.1-0.8-8.8-2.3-8.8-8.2c0-4,3.1-8.4,9.8-8.4c2.3,0,4.4,0.4,6.3,1.1c1.7,0.6,2.7,2.1,2.7,3.9
				c0,2.3-1.8,4.1-4.1,4.1c-0.5,0-0.9-0.1-1.5-0.3c-1-0.4-2.1-0.5-3.2-0.5c-0.1,0-0.2,0-0.3,0c0.4,0.1,0.7,0.2,1,0.3
				c3.1,0.7,8.8,2.1,8.8,8.3C85.2,161.4,81.1,164.8,75.4,164.8z M70.2,157.7C70.3,157.7,70.3,157.8,70.2,157.7
				C70.3,157.8,70.3,157.7,70.2,157.7z"/>
		</g>
		<g>
			<path class="st6" d="M98.4,156.6c0,3-2.7,5.1-6.8,5.1c-2.6,0-4.7-0.6-6.3-1.3c-0.4-0.2-0.7-0.6-0.7-1.1c0-0.6,0.4-1.1,1.1-1.1
				c0.2,0,0.3,0,0.5,0.1c1.2,0.5,2.9,1.1,5.2,1.1c2.6,0,4.6-0.7,4.6-3c0-3.9-11.2-1.7-11.2-8.2c0-2.9,2.4-5.4,6.8-5.4
				c2.1,0,3.8,0.3,5.3,0.9c0.4,0.1,0.7,0.4,0.7,1.1c0,0.5-0.4,1.1-1.1,1.1c-0.1,0-0.3-0.1-0.4-0.1c-1.2-0.4-2.6-0.7-4.2-0.7
				c-2.7,0-4.7,1-4.7,3C87.2,152.6,98.4,149.7,98.4,156.6z"/>
			<path class="st0" d="M91.7,164.8c-2.6,0-5.1-0.5-7.5-1.5c-1.5-0.6-2.5-2.2-2.5-3.8c0-2.3,1.8-4.1,4.1-4.1c0.6,0,1.1,0.1,1.7,0.3
				c1,0.5,2.1,0.7,3.2,0.8c-3.1-0.8-8.8-2.3-8.8-8.2c0-4,3.1-8.4,9.8-8.4c2.3,0,4.4,0.4,6.3,1.1c1.7,0.6,2.7,2.1,2.7,3.9
				c0,2.3-1.8,4.1-4.1,4.1c-0.5,0-0.9-0.1-1.5-0.3c-1-0.4-2.1-0.5-3.2-0.5c-0.1,0-0.2,0-0.3,0c0.4,0.1,0.7,0.2,1,0.3
				c3.1,0.7,8.8,2.1,8.8,8.3C101.4,161.4,97.3,164.8,91.7,164.8z M86.5,157.7C86.5,157.7,86.5,157.8,86.5,157.7
				C86.5,157.8,86.5,157.7,86.5,157.7z"/>
		</g>
		<g>
			<path class="st6" d="M104.5,144.2v16.3c0,0.7-0.6,1.2-1.2,1.2c-0.7,0-1.2-0.5-1.2-1.2v-16.3c0-0.7,0.5-1.2,1.2-1.2
				C103.9,143,104.5,143.5,104.5,144.2z"/>
			<path class="st0" d="M103.3,164.7c-2.3,0-4.2-1.9-4.2-4.2v-16.3c0-2.3,1.9-4.2,4.2-4.2c2.3,0,4.2,1.9,4.2,4.2v16.3
				C107.5,162.8,105.6,164.7,103.3,164.7z"/>
		</g>
		<g>
			<path class="st6" d="M125.7,144.2V160c0,1-0.8,1.7-1.7,1.7h-0.3c-0.6,0-1.1-0.3-1.4-0.7L112,146.2v14.3c0,0.7-0.6,1.2-1.2,1.2
				c-0.7,0-1.2-0.5-1.2-1.2v-15.8c0-1,0.8-1.7,1.7-1.7h0.3c0.6,0,1.1,0.3,1.5,0.8l10.2,14.7v-14.2c0-0.7,0.5-1.2,1.2-1.2
				C125.1,143,125.7,143.5,125.7,144.2z"/>
			<path class="st0" d="M126.3,168l-2.3-3.4h-0.3c-1.5,0-2.9-0.7-3.8-1.9l-0.1-0.1l-4.7-6.9v4.7c0,2.3-1.9,4.2-4.2,4.2
				c-2.3,0-4.2-1.9-4.2-4.2v-15.8c0-1.8,1-3.3,2.4-4.1v-4l2.3,3.4h0.3c1.5,0,2.9,0.7,3.8,1.9l0.1,0.1l4.7,6.8v-4.6
				c0-2.3,1.9-4.2,4.2-4.2c2.3,0,4.2,1.9,4.2,4.2v15.8c0,1.8-1,3.3-2.4,4.1C126.3,164,126.3,168,126.3,168z"/>
		</g>
		<g>
			<path class="st6" d="M146,160.5c0,0.7-0.4,1.2-1.2,1.2c-0.5,0-0.9-0.3-1.1-0.7l-1.7-4.1h-9l-1.7,4.1c-0.2,0.5-0.6,0.7-1.1,0.7
				c-0.7,0-1.2-0.5-1.2-1.2c0-0.2,0.1-0.3,0.1-0.5l6.7-15.9c0.2-0.6,0.7-1.1,1.5-1.1h0.3c0.8,0,1.3,0.5,1.5,1.1l6.7,15.9
				C145.9,160.1,146,160.3,146,160.5z M141,154.6l-3.6-8.6l-3.6,8.6H141z"/>
			<path class="st0" d="M144.8,164.7c-1.7,0-3.2-1-3.9-2.5l-1-2.3h-5l-0.9,2.3c-0.7,1.6-2.2,2.6-3.9,2.6c-2.3,0-4.2-1.8-4.2-4.2
				c0-0.6,0.1-1.1,0.4-1.7L133,143c0.7-1.6,2.1-2.7,3.7-2.9l0.7-1.8l0.7,1.8c1.6,0.2,3,1.3,3.7,2.9l6.7,15.9
				c0.2,0.6,0.4,1.1,0.4,1.7C149,162.8,147.1,164.7,144.8,164.7z M143.1,161.1L143.1,161.1L143.1,161.1z M131.8,161.1L131.8,161.1
				L131.8,161.1z"/>
		</g>
	</g>
	<g>
		<g>
			<path class="st6" d="M47.7,144.7v15.8c0,0.7-0.5,1.2-1.2,1.2s-1.2-0.5-1.2-1.2v-15l-6.1,15.1c-0.3,0.7-0.9,1.1-1.7,1.1
				s-1.4-0.4-1.7-1.1l-6.1-15.1v15c0,0.7-0.6,1.2-1.2,1.2c-0.7,0-1.2-0.5-1.2-1.2v-15.8c0-1,0.8-1.7,1.7-1.7h0.9
				c0.7,0,1.3,0.5,1.6,1.1l6,14.9l6-14.9c0.3-0.6,0.9-1.1,1.6-1.1H46C46.9,143,47.7,143.8,47.7,144.7z"/>
		</g>
		<g>
			<path class="st6" d="M65.7,160.4c0,0.6-0.5,1.1-1.1,1.1H54c-0.7,0-1.2-0.5-1.2-1.2v-16c0-0.7,0.5-1.2,1.2-1.2h10.6
				c0.6,0,1.1,0.5,1.1,1.1s-0.5,1.1-1.1,1.1h-9.4v5.8h8.4c0.6,0,1.1,0.5,1.1,1.1s-0.5,1.1-1.1,1.1h-8.4v5.9h9.4
				C65.2,159.3,65.7,159.8,65.7,160.4z"/>
		</g>
		<g>
			<path class="st6" d="M82.2,156.6c0,3-2.7,5.1-6.8,5.1c-2.6,0-4.7-0.6-6.3-1.3c-0.4-0.2-0.7-0.6-0.7-1.1c0-0.6,0.4-1.1,1.1-1.1
				c0.2,0,0.3,0,0.5,0.1c1.2,0.5,2.9,1.1,5.2,1.1c2.6,0,4.6-0.7,4.6-3c0-3.9-11.2-1.7-11.2-8.2c0-2.9,2.4-5.4,6.8-5.4
				c2.1,0,3.8,0.3,5.3,0.9c0.4,0.1,0.7,0.4,0.7,1.1c0,0.5-0.4,1.1-1.1,1.1c-0.1,0-0.3-0.1-0.4-0.1c-1.2-0.4-2.6-0.7-4.2-0.7
				c-2.7,0-4.7,1-4.7,3C71,152.6,82.2,149.7,82.2,156.6z"/>
		</g>
		<g>
			<path class="st6" d="M98.4,156.6c0,3-2.7,5.1-6.8,5.1c-2.6,0-4.7-0.6-6.3-1.3c-0.4-0.2-0.7-0.6-0.7-1.1c0-0.6,0.4-1.1,1.1-1.1
				c0.2,0,0.3,0,0.5,0.1c1.2,0.5,2.9,1.1,5.2,1.1c2.6,0,4.6-0.7,4.6-3c0-3.9-11.2-1.7-11.2-8.2c0-2.9,2.4-5.4,6.8-5.4
				c2.1,0,3.8,0.3,5.3,0.9c0.4,0.1,0.7,0.4,0.7,1.1c0,0.5-0.4,1.1-1.1,1.1c-0.1,0-0.3-0.1-0.4-0.1c-1.2-0.4-2.6-0.7-4.2-0.7
				c-2.7,0-4.7,1-4.7,3C87.2,152.6,98.4,149.7,98.4,156.6z"/>
		</g>
		<g>
			<path class="st6" d="M104.5,144.2v16.3c0,0.7-0.6,1.2-1.2,1.2c-0.7,0-1.2-0.5-1.2-1.2v-16.3c0-0.7,0.5-1.2,1.2-1.2
				C103.9,143,104.5,143.5,104.5,144.2z"/>
		</g>
		<g>
			<path class="st6" d="M125.7,144.2V160c0,1-0.8,1.7-1.7,1.7h-0.3c-0.6,0-1.1-0.3-1.4-0.7L112,146.2v14.3c0,0.7-0.6,1.2-1.2,1.2
				c-0.7,0-1.2-0.5-1.2-1.2v-15.8c0-1,0.8-1.7,1.7-1.7h0.3c0.6,0,1.1,0.3,1.5,0.8l10.2,14.7v-14.2c0-0.7,0.5-1.2,1.2-1.2
				C125.1,143,125.7,143.5,125.7,144.2z"/>
		</g>
		<g>
			<path class="st6" d="M146,160.5c0,0.7-0.4,1.2-1.2,1.2c-0.5,0-0.9-0.3-1.1-0.7l-1.7-4.1h-9l-1.7,4.1c-0.2,0.5-0.6,0.7-1.1,0.7
				c-0.7,0-1.2-0.5-1.2-1.2c0-0.2,0.1-0.3,0.1-0.5l6.7-15.9c0.2-0.6,0.7-1.1,1.5-1.1h0.3c0.8,0,1.3,0.5,1.5,1.1l6.7,15.9
				C145.9,160.1,146,160.3,146,160.5z M141,154.6l-3.6-8.6l-3.6,8.6H141z"/>
		</g>
	</g>
</g>
</svg>
