<?xml version="1.0" encoding="utf-8"?>
<!-- Generator: Adobe Illustrator 21.1.0, SVG Export Plug-In . SVG Version: 6.00 Build 0)  -->
<svg version="1.1" id="Livello_1" xmlns="http://www.w3.org/2000/svg" xmlns:xlink="http://www.w3.org/1999/xlink" x="0px" y="0px"
	 viewBox="0 0 170 170" style="enable-background:new 0 0 170 170;" xml:space="preserve">
<style type="text/css">
	.st0{fill:#FFFFFF;}
	.st1{opacity:0.4;}
	.st2{fill:none;}
	.st3{fill:#1D1D1B;}
	.st4{fill:#E20613;}
	.st5{fill:#E01F21;}
</style>
<rect class="st0" width="170" height="170"/>
<rect class="st0" width="170" height="170"/>
<g>
	<g>
		<g class="st1">
			<g>
				<rect x="4.4" y="3.3" class="st2" width="163.1" height="163.1"/>
			</g>
			<g>
				<path class="st3" d="M146.5,29.4c-0.8,0-1.6-0.6-2.1-1.6c-0.6-1.1-0.8-2.3-1-3.5c-0.3-1.5-0.5-3-1.4-4.4
					c-0.9-1.5-2.1-2.7-3.5-3.5c-1.1-0.7-2.4-1.1-3.7-1.2c-0.2,0-0.3,0-0.5,0c-1.2,0-2.2,0.3-2.8,1c-0.7,0.8-0.9,2-0.7,3.5h0.6
					c0.2-0.8,0.9-0.9,1.3-0.9c0.6,0,1.4,0.3,2.1,0.8c0.9,0.8,1.3,1.8,1.7,3c0.7,2.2,2,3.9,3.2,5.4c0.1,0.1,0.1,0.2,0,0.2
					c0,0.1-0.1,0.1-0.2,0.1l-0.1-0.1c-1-1.3-2.1-2.6-2.7-4.1c-0.2-0.4-0.3-0.8-0.5-1.3c-0.1-0.4-0.3-0.9-0.5-1.3
					c-0.3-0.6-0.6-1.1-1.1-1.6c-0.3-0.3-0.8-0.6-1.2-0.7h-0.1l-1.6,1.2v0.1c0,0.1,0,0.1,0,0.1l-0.1,0.1l-0.2-0.1l-0.2,0.2
					c0,0.1-0.1,0.1-0.2,0.1c-1-1.2-1.3-2.5-0.7-3.6c0.7-1.5,2.7-2.5,4.7-2.5c0.3,0,0.7,0,1,0.1c2.3,0.4,4.5,1.9,6,4
					c0.8,1,1.4,2.3,1.9,3.7c0.3,0.9,0.5,1.8,0.6,2.5c0.1,0.8,0.3,1.2,0.5,1.6l0.4,0.7l0.1-0.9c0.1-0.9,0.5-1.3,1.3-1.3
					c0.1,0,0.2,0,0.3,0c0.7,0.1,1.2,0.5,1.4,1.3c0.3,0.9,0.1,1.9-0.5,2.5C147.3,29.2,146.9,29.4,146.5,29.4z"/>
			</g>
			<g>
				<path class="st3" d="M155,34.8c-0.1,0-0.1,0-0.1-0.1c-0.1-0.7-0.2-1.4-0.3-2.1c-0.2-1.5-0.4-3.1-0.8-4.7
					c-0.4-1.6-1.2-2.8-2.4-3.9c-0.7-0.7-1.6-1.2-2.5-1.5c-0.4-0.2-0.8-0.3-1.2-0.3c-1,0-1.8,0.6-2.4,1.9v0.1v0.1c0,0.1,0,0.1,0,0.1
					s-0.1,0.1-0.2,0.1c-0.1,0-0.2-0.1-0.2-0.1c-0.2-0.7-0.2-1.2,0.1-1.6c0.4-0.5,1.2-0.8,2.2-0.8s2.1,0.3,2.8,0.6
					c3.9,2.2,4.4,6,4.9,10.1c0.1,0.6,0.2,1.3,0.3,1.9c0,0.1,0,0.1,0,0.2C155.1,34.8,155,34.8,155,34.8z"/>
			</g>
			<g>
				<path class="st3" d="M139.9,32.5c-0.1,0-0.1,0-0.2-0.1c-1.8-2.8-4.1-5.1-6.9-6.9c-0.1-0.1-0.1-0.2-0.1-0.2
					c0-0.1,0.1-0.2,0.2-0.2c2.9,1.9,5.3,4.3,7.1,7.2c0,0.1,0,0.1,0,0.1C140.1,32.4,139.9,32.5,139.9,32.5z"/>
			</g>
			<g>
				<path class="st3" d="M142.1,40.6c-0.1,0-0.2,0-0.3-0.2c-0.3-2.4-2.1-4.7-4.2-6.8c0.7,0.6,1.3,1.3,1.8,1.8
					c1.3,1.5,2.5,2.9,2.8,5.1C142.2,40.6,142.1,40.6,142.1,40.6z M135.3,31.2c-0.9-0.9-1.7-1.7-2.4-2.5c-1.5-1.7-2.2-3.1-1.6-5.5
					c0-0.1,0.1-0.1,0.2-0.1c0,0,0.1,0,0.2,0.1l0.3,1c0,0.1,0,0.1,0,0.1l-0.1,0.1h-0.2v0.2C131.6,27,133.3,29.2,135.3,31.2z"/>
			</g>
			<g>
				<path class="st3" d="M128.4,65c-0.1,0-0.1,0-0.2-0.1c-1.7-2.5-1.3-5.4,0.9-8.6c1.4-2,3.2-3.8,4.9-5.5l0.8-0.8
					c1.3-1.4,2.7-2.8,3-4.9c0.2-1.6-0.3-5.4-1.9-6.5c-0.1-0.1-0.1-0.2-0.1-0.3s0.1-0.1,0.1-0.1c2.4,1.7,3,6.6,1.7,9.1
					c-0.8,1.6-2.5,3.2-4.4,5c-3.7,3.6-8,7.6-4.8,12.5C128.4,64.9,128.4,64.9,128.4,65C128.6,64.9,128.5,65,128.4,65z"/>
			</g>
			<g>
				<path class="st3" d="M137.7,63.5c-0.1,0-0.1,0-0.1-0.1c-0.5-2.6,0.5-4.3,2.1-6.1c0.3-0.3,0.6-0.6,0.8-1c1.3-1.4,2.4-2.7,3.3-4.4
					c1.4-2.7,1.6-6.5-1.4-8.8c-0.1-0.1-0.1-0.1,0-0.1c0-0.1,0.1-0.2,0.2-0.2h0.1c2.7,2.1,3.4,4.1,2.5,7c-0.6,1.7-2,3.4-3.4,5.1
					c-2.2,2.6-4.4,5.4-3.9,8.3c0,0.1,0,0.1,0,0.2C137.8,63.5,137.7,63.5,137.7,63.5z"/>
			</g>
			<g>
				<path class="st3" d="M147.7,63.8C147.7,63.8,147.6,63.7,147.7,63.8c-1.4-1-2.9-2.6-2.6-5.1c0.1-1.2,0.7-2.3,1.4-3.3
					c0.2-0.3,0.4-0.6,0.5-0.9c0.7-1.3,2.9-5.6,1.6-8.5c-0.6-1.2-1.7-2.1-3.3-2.4c0,0-0.1,0-0.1-0.2c0-0.1,0.1-0.2,0.2-0.2
					c2.5,0.6,4,2.4,4.1,5c0.1,1.9-0.9,3.9-1.9,5.8c-1.7,3.3-3.4,6.7,0.3,9.4c0.1,0.1,0.1,0.2,0.1,0.2
					C147.8,63.7,147.7,63.8,147.7,63.8z"/>
			</g>
			<g>
				<path class="st3" d="M151.7,63.2L151.7,63.2c-3.2-2-2.3-4.2-1-7c0.4-0.9,0.8-1.8,1.1-2.7c1-3.2,1.8-9-4.1-11.5l-0.3-0.1
					c-1.4-0.6-2.5-1.1-3.3-2.4c0-0.1,0-0.1,0-0.1c0-0.1,0.1-0.1,0.2-0.1c0.1,0,0.1,0,0.1,0.1c0.8,1.3,2.2,1.9,3.4,2.4
					c0.9,0.3,1.8,0.7,2.5,1.3c1.5,1.3,2.1,3,2.4,4.3c0.3,1.7,0.2,3.5-0.4,5.7c-0.2,0.7-0.6,1.5-0.9,2.4c-1.2,2.7-2.5,5.7,0.4,7.4
					c0,0,0.1,0.1,0.1,0.2C151.9,63.1,151.8,63.2,151.7,63.2z"/>
			</g>
			<g>
				<path class="st3" d="M153.2,64.2c-0.1,0-0.1,0-0.2-0.1c0-0.1,0-0.1,0-0.2c0.5-1,0.3-2.2,0.2-3.3c-0.1-0.7-0.2-1.5-0.1-2.1
					c0.1-0.8,0.3-1.6,0.5-2.3c0.3-1.1,0.6-2.3,0.6-3.6c0-1.8,0.2-3.6,0.4-5.3c0.4-3.2,0.7-6.4,0.1-9.7c0-0.1,0-0.1,0-0.2
					c0-0.1,0.1-0.1,0.2-0.1c0.1,0,0.1,0,0.1,0.1c0.6,3.1,0.2,6.4-0.1,9.5c-0.2,2-0.4,4.1-0.4,6.2c0,1.3-0.2,2.5-0.5,3.7
					c-0.3,1.3-0.5,2.7-0.5,4.2c0,0.2,0,0.4,0,0.6c0.1,0.9,0.1,1.5-0.3,2.4C153.3,64.2,153.2,64.2,153.2,64.2z"/>
			</g>
			<g>
				<path class="st3" d="M147.1,35.7c0,0-0.1,0-0.1-0.1s0-0.2,0.2-0.3c0.1,0,0.3,0,0.5,0c0.5,0,1.1,0,1.4-0.2L149,35l0.4-0.4l0,0
					c0,0,0-0.1,0-0.2c0-0.1,0-0.2,0-0.3c0.1-0.3,0.2-0.5,0.5-0.8c0.1,0,0.2-0.1,0.3-0.2c0.4-0.2,0.9-0.5,1-0.9c0-0.2,0-0.3-0.1-0.5
					c0-0.1,0-0.1,0-0.2s0.1-0.1,0.2-0.1c0.1,0,0.1,0,0.1,0.1c0.2,0.4,0.2,0.8-0.1,1.2c-0.2,0.2-0.4,0.4-0.6,0.5l-0.2,0.1
					c-0.4,0.2-0.8,0.5-0.8,1.2v0.1c0,0.5,0,0.6-0.3,0.7c-0.5,0.2-1,0.2-1.6,0.2C147.7,35.6,147.4,35.6,147.1,35.7L147.1,35.7z"/>
			</g>
			<g>
				<path class="st3" d="M103.8,81.5C103.8,81.5,103.7,81.5,103.8,81.5c-0.9-0.8-1.4-1.8-1.3-2.9c0-0.1,0-0.2,0.2-0.2s0.4,0,0.6,0
					c0.9,0,1.8,0.2,2.5,0.7c0,0,0.1,0.1,0.1,0.2s-0.1,0.2-0.2,0.2c-0.8-0.5-1.6-0.7-2.5-0.7h-0.4v0.3c0.1,0.8,0.4,1.6,1.1,2.1
					c0.1,0.1,0.1,0.1,0,0.1C104,81.5,103.8,81.5,103.8,81.5z"/>
			</g>
			<g>
				<path class="st3" d="M113,69.1c0,0.9,0.3,1.8,0.7,2.6l0.1,0.1c0.1,0.2,0.5,0.7,0.6,0.8l-0.2-0.1l-0.2,0.1v0.2l0.5-0.2
					c0.2,0.7,0.1,1.3-0.3,1.9c-0.5,0.6-1.2,1-2,1c-1.1,0-2-0.7-2.3-1.9c-0.1-0.4-0.1-0.8,0-1.2c0-0.4,0.1-0.8,0-1.2
					c-0.5-1.5-2-2.6-3.6-2.6c-0.2,0-0.4,0-0.6,0c-1.2,0.2-2,0.7-2.2,1.4c-0.6,2.1,2.7,6,4.5,7.6l0.1,0.1c0.1,0,0.2-0.1,0.2-0.2v-0.1
					l-0.3-0.3c-1-0.9-2.2-1.9-2.7-3c-0.6-0.8-0.4-1.3-0.7-1.7c-0.4-0.6-0.8-2.4-0.4-2.6c5.4-2.1,5.3,2.3,5.2,3.3l0.2,0.1l-0.3,1.2
					c0.1,0.2,0.1,0.4,0.2,0.6c0.1,0.4,0.1,0.5,0.5,0.8s0.9,0.5,1.5,0.5c1.6,0,3.5-1.4,4.5-2.7v-0.2C115.3,72.8,113.5,70.8,113,69.1z
					"/>
			</g>
			<g>
				<path class="st3" d="M167.7,74.8c0-0.4-0.1-0.8-0.1-1.2c0-0.3,0-0.7,0-1c-0.8-1.7-2.8-3.5-4.4-3.9c-0.4-0.1-0.8-0.1-1.1-0.1
					c-0.6,0-1.1,0.2-1.3,0.6c-0.5,0.8-0.3,2.4,0.5,4.5l0.2,0.6l-0.6-0.2c-1.6-0.5-3.6-1.1-3.7-2.6c0-0.3,0.1-0.7,0.3-1
					c0.2-0.4,0.4-0.8,0.3-1.1c-0.1-1.5-1.4-2.5-2.5-2.8c-0.3-0.1-0.7-0.1-1.2-0.1c-1,0-2.3,0.2-2.7,0.9c-0.6,1,0.2,2.1,1.1,3.2
					l0.4,0.6l-0.8-0.2c-0.1,0-0.1,0-0.1,0c-0.5-0.1-1-0.1-1.4-0.1h-0.1l-2.6-3.2v-0.1c0-0.2,0.1-0.5,0.2-0.7
					c0.1-0.2,0.3-0.5,0.2-0.7c-0.3-1.2-2-1.7-3.1-1.7c-1.3,0-3.8,0.9-4.4,2.2c-0.7,1.5,0.9,2.7,2.2,3.8l0.6,0.5h-0.8
					c-4.6,0.7-3.9-2.8-3.9-2.8s-0.2-0.7-0.3-0.9c-0.1-0.4-0.1-0.7-0.6-1.1c-0.7-0.7-1.6-0.8-2.3-0.8c-0.5,0-1,0.1-1.6,0.3
					c-0.5,0.2-1.1,0.4-1.5,0.8l-0.2,0.2l-0.2-0.2c-2.1-2.7,1.9-8.5,4.4-11.7c0.5-0.6,1-1.1,1.5-1.7c1.4-1.6,2.8-3.1,3.1-5.3
					c0.9-5.2-3-10.2-6.1-14.3c-0.3-0.4-0.7-0.9-1-1.3c0-0.1-0.1-0.1-0.2-0.1c-0.1,0-0.2,0.1-0.2,0.1s0,0,0,0.1
					c0.3,0.4,0.6,0.8,0.9,1.2c2.1,2.8,4.4,5.7,5.5,9c1.2,3.3,0.9,6.1-0.9,8.6c-0.5,0.7-1.1,1.3-1.6,1.9c-0.5,0.5-1,1-1.4,1.6
					c-2.2,2.8-7,9.6-4.1,12.4l0.1,0.1v0.2c-0.1,0.2-0.1,0.4-0.1,0.6c0,0.1,0.2,0.5,0.3,0.8c0.3,0.7,0.6,1.4,0.3,1.8
					c-0.1,0.2-0.4,0.3-0.7,0.3c-0.2,0-0.5-0.1-0.9-0.2c-0.9-0.3-1.1-1.2-1.3-2.1c-0.2-0.8-0.4-1.6-1-1.9c-0.3-0.2-0.8-0.3-1.4-0.3
					c-0.7,0-1.5,0.2-2.2,0.4c-1,0.4-1.5,1-1.6,1.6c-0.1,1,1.1,2.4,3.3,3.7l0.8,0.5h-0.9c-0.7,0-1.6,0.1-2.4,0.1
					c-2.1,0-3.3-0.2-3.8-0.7c-0.9-0.8-0.8-1.7-0.6-2.6c0.1-0.4,0.2-0.9,0.1-1.3c-0.1-1.5-1.1-2.7-2.6-3c-0.3-0.1-0.6-0.1-0.9-0.1
					c-1.2,0-2.2,0.6-2.9,1.8c-0.1,0.2-0.2,0.4-0.3,0.7c0.2-0.2,0.4-0.3,0.6-0.4l1.3-1.2c0,0,4.9-1.1,4.3,3.6c-0.2,1-0.1,1.4-0.3,1.8
					c-0.2,0.4,0.2,1.2,1.2,1.4c2.7,0.5,4,0.4,6.7,0.4c0.4,0,0.8,0,1.2,0c0.1,0,0.2-0.1,0.2-0.2s0-0.1-0.1-0.2
					c-0.6-0.3-1.2-0.6-1.8-1c0,0-1.2-0.9-1.7-1.3c-2.6-2.8,1.9-3.4,1.9-3.4h0.1c0.1,0,0.2-0.1,0.3-0.1c0.9,0,1.4,1.3,1.8,2.1
					c0.1,0.2,0.1,0.3,0.2,0.4c0.1,0.1,0.1,0.3,0.2,0.5c0,0.1,0.1,0.3,0.1,0.4c0.6,0.9,1.9,1,3.2,1.1c0.1,0,0.1-0.1,0.2-0.2l0.3-0.5
					l0.1-0.3l0.1-0.2c0-0.1-0.2-0.5-0.2-0.5s-0.4-1.2-0.7-1.5c-0.5-1.1,1.9-1.7,1.9-1.7c1.8-0.7,2.8,0,3.3,0.9
					c0.2,0.3,0.4,1.4,0.4,1.4s-0.1,0.5-0.1,0.9c0,0.3,0,0.6,0.1,1c0.1,0.1,0.1,0.2,0.2,0.3c0.5,0.8,1.7,1.2,3.6,1.2
					c0.7,0,1.4-0.1,1.9-0.1c0.1,0,0.2-0.1,0.2-0.2s0-0.1,0-0.2c-0.1-0.1-0.3-0.3-0.6-0.5c-1-0.8-1.8-1.5-2-2
					c-0.3-0.7-0.1-1.4,0.3-2.1c0.6-0.8,1.7-1.3,2.7-1.4c4.2-0.4,2.7,2.3,2.7,2.3s-0.3,0.5,0,1c0.2,0.3,1.1,1.2,1.1,1.2
					s1.5,2.8,3,1.9c0.7-0.4,1.5,0.1,2.1,0.3c0.1,0,0.1-0.1,0.2-0.1c0-0.1,0-0.1,0-0.1c-0.1-0.2-0.2-0.3-0.4-0.5
					c-0.6-0.8-1.6-1.4-1.3-2.8c0.2-0.9,0.1-0.8,1.5-1c3.8-0.5,3.1,3.3,3.2,3.5c0,0.3,0.1,0.9-0.1,1.1c-0.2,0.2,0,0.8,0.1,1.1
					c0.2,1.1,2.3,1.2,3.8,1.6c0.5,0.1,1,0.2,1.3,0.4c0,0,0.1,0,0.1-0.1s0.1-0.2,0-0.3c-0.1-0.3-0.4-0.7-0.4-0.7s-0.6-3.5-0.4-4.2
					s2.1,0,2.7,0c0.4,0.2,0.8,0.4,1.2,0.8c1.8,1.2,2.5,3.1,1.9,5.6v0.1l0,0v0.1c0,0.1,0.1,0.1,0.1,0.1c0.1,0,0.3,0.1,0.4,0.1
					C167.5,75.8,167.6,75.3,167.7,74.8z"/>
			</g>
			<g>
				<path class="st3" d="M108.4,90.6C108.4,90.6,108.3,90.6,108.4,90.6c-0.9-0.8-1.6-1.6-2.2-2.5c-0.1-0.1,0-0.1,0-0.1
					c0-0.1,0.1-0.1,0.2-0.1s0.1,0,0.2,0.1c0.6,0.8,1.3,1.6,2,2.3c0.1,0.1,0.1,0.1,0,0.1C108.5,90.5,108.5,90.6,108.4,90.6z"/>
			</g>
			<g>
				<path class="st3" d="M130.6,98.9c1.7,0.8,3.3,1.5,5,2.3c0.1,0.1,0.6-0.1,0.4-0.2c-1.7-0.8-3.3-1.5-5-2.3
					C130.9,98.6,130.4,98.8,130.6,98.9z"/>
			</g>
			<g>
				<path class="st3" d="M132.4,97.1c0.3,0,0.4-0.4,0-0.4C132.2,96.7,132.1,97.1,132.4,97.1z"/>
			</g>
			<g>
				<path class="st3" d="M129,94.2c0.2,0,0.6-0.2,0.2-0.2C129,94,128.6,94.2,129,94.2z"/>
			</g>
			<g>
				<path class="st3" d="M136.2,98.9c-1.1-1.5-2.2-2.9-3.3-4.4c-0.2-0.2-0.7,0-0.5,0.2c1.1,1.5,2.2,2.9,3.3,4.4
					C135.9,99.4,136.4,99.1,136.2,98.9z"/>
			</g>
			<g>
				<path class="st3" d="M149.1,94c0.2-0.3,0.3-0.5,0.3-0.6l0.1-0.2C149.4,93.5,149.3,93.8,149.1,94z"/>
			</g>
			<g>
				<path class="st3" d="M148.4,100c1.3-1.2,2.7-2.3,4.1-3.4c0.1,0,0.3,0,0.4-0.1c0.1-0.1,0.1-0.2,0.2-0.4c0.2-0.2-0.4-0.1-0.5-0.1
					c-1.6,1.3-3.1,2.6-4.6,3.9C147.7,100.1,148.3,100.1,148.4,100z"/>
			</g>
			<g>
				<path class="st3" d="M113.4,107.2c-0.1,0-0.2-0.1-0.2-0.1c0-0.1,0-0.1,0-0.2l3.3-3.3h0.1h0.1c2.6,1.2,5.7,1.8,8.7,1.8
					c4.3,0,7.9-1.3,10.3-3.6c0.8-0.8,1.9-1.3,3.3-1.5l0.4-0.1l0,0h0.2c0.6-0.1,1.2-0.1,2-0.1h0.4l-0.2-0.5c0,0.1,0.2,0.4,0.2,0.4
					l0.2-0.1l0,0v0.1l0.2,0.1h1.4l0.1-0.1h0.1h1c0.1,0,0.2,0.1,0.2,0.2c0,0,0,0.2-0.2,0.2c-0.6,0-1.1,0.1-1.7,0.1
					c-1.1,0.1-2.3,0.1-3.4,0.3c-2.5,0.4-3.4,1.1-5.1,2.5c-1.4,1.1-3.2,1.8-5.4,2.2c-1.2,0.2-2.5,0.3-3.8,0.3s-2.7-0.1-4.1-0.3
					c-0.4-0.1-1-0.2-1.6-0.5c-0.8-0.3-1.6-0.5-2.2-0.5h-0.1c-1.6,0.1-2.5,1.1-3.4,2.1C114,106.8,113.8,107.1,113.4,107.2
					C113.4,107.2,113.4,107.2,113.4,107.2z"/>
			</g>
			<g>
				<path class="st3" d="M115.4,108.2c-0.1,0-0.2-0.1-0.2-0.2s0-0.2,0.1-0.2c0.9-0.5,1.8-1,2.7-1.5c0,0,0,0,0.1,0
					c0.2,0,0.2,0.1,0.2,0.1v0.1L118,107c-0.1,0.2-0.2,0.2-0.2,0.2c-0.1,0-0.1,0-0.2-0.1l-0.1-0.1l-0.4,0.2
					C116.6,107.6,116,107.9,115.4,108.2L115.4,108.2z M124.9,108.1c-2.2,0-4.3-0.3-6.3-1c0,0-0.1,0-0.1-0.1l-0.1-0.2l0.2-0.1
					c2.1,0.7,4.1,1,6.3,1c1.6,0,3.2-0.2,4.9-0.5c3.4-0.7,6.2-1.6,8.2-2.7l0.9-0.5l-1.3-0.1c-0.2,0-0.5,0-0.7-0.1
					c-0.2,0-0.2-0.2-0.2-0.2c0-0.1,0-0.2,0.2-0.2c0.9-0.1,1.8-0.1,2.7-0.1h0.1l0.5-0.3c0,0,0,0,0.1,0s0.2,0.1,0.2,0.1l0.1,0.2h0.3
					l0.1-0.2c0-0.1,0.1-0.1,0.1-0.1l2.5,0.2l0,0h0.1h0.3c0.1,0,0.2,0.1,0.2,0.2c0,0,0,0.2-0.2,0.2l-0.9,0.2l-0.1-0.1h-0.3
					c-1,0.1-2.1,0.2-3.1,0.2h-0.1h-0.1c-2.7,1.9-6.5,2.9-9.5,3.5C128.3,108,126.6,108.1,124.9,108.1z"/>
			</g>
			<g>
				<path class="st3" d="M166.1,108.8c-0.1,0-0.2-0.1-0.2-0.2s0.1-0.2,0.1-0.2l-0.3-0.5c0,0-0.3-0.1-0.9-1.3l-0.1-0.2l-0.2,0.1
					c-2.6,1.1-5.4,1.7-8.2,1.7c-3.9,0-7.7-1.1-11-3.3c-0.1-0.1-0.1-0.1-0.1-0.2s0.1-0.2,0.2-0.2c3.4,2.2,7.2,3.3,11,3.3
					c2.9,0,5.7-0.6,8.3-1.8h0.1l0,0l0.5-0.2c0,0,0,0,0.1,0c0.2,0,0.2,0.1,0.3,0.2c0,0.1,0,0.1-0.1,0.1l-0.2,0.1l0.1,0.2
					c0.3,0.8,0.8,1.4,1.5,1.8l0,0c0,0,0,0,0,0.1s0,0.1-0.1,0.2L166.1,108.8L166.1,108.8z"/>
			</g>
			<g>
				<path class="st3" d="M117.1,130.7c0,0-0.2,0-0.2-0.2c-0.2-1.8-0.1-3.7,0-5.8c0.3-5.4,0.6-11.1-4.1-14.5
					c-0.1-0.1-0.1-0.2-0.1-0.2c0-0.1,0.1-0.1,0.1-0.1c4.9,3.5,4.6,9.2,4.4,14.7c-0.1,2-0.2,4.2,0,6.1v0.1
					C117.2,130.7,117.1,130.7,117.1,130.7z"/>
			</g>
			<g>
				<path class="st3" d="M143.3,160.5c-0.1,0-0.1,0-0.2-0.1c0-0.1,0-0.2,0-0.2l0.1-0.2l-0.1-0.1c-0.3-0.4-0.5-0.7-0.7-1
					c-0.9-1.3-1.6-2.4-4.4-2.7c-0.8-0.1-1.5-0.1-2.3-0.1s-1.7,0-2.5-0.2c-3.8-0.5-7.3-1.9-10-3.7c-1.9-1.3-3.8-3.9-5-6.9
					c-1-2.2-1.1-4.8-1.3-7.2c-0.1-1.3-0.2-2.7-0.4-4.1c0-0.1,0-0.1,0-0.2c0-0.1,0.1-0.1,0.2-0.1s0.1,0,0.1,0.1
					c0.2,1.3,0.3,2.6,0.4,3.9c0.2,3.1,0.5,6.3,2.3,9.1c2.6,4.1,5.4,6.3,9.4,7.6c2,0.7,4.1,0.8,6,0.9c1.5,0.1,3,0.2,4.5,0.5
					c1.7,0.4,2.3,1.3,3,2.4c0.3,0.5,0.6,1,1.1,1.5l0.4,0.4l0.1-0.5c0.4-1.6,0.8-2.8,2.5-3.3c1.5-0.4,3-0.5,4.5-0.6
					c2-0.1,4-0.3,6-1.1c3.5-1.4,6.6-4.4,9.5-9.2c1.2-2,1.9-4,2.2-6.3c0-0.1,0.5-5.9-0.3-6.7c-0.1-0.1-0.3-0.2-0.4-0.2h-0.1
					c-0.1,0-0.2-0.1-0.2-0.2c0-0.1,0-0.1,0.1-0.1s0.2,0,0.3,0c0.3,0,0.5,0.1,0.7,0.2c0.5,0.5,0.5,1.8,0.5,2.8c0,0.2,0,0.4,0,0.6
					c0.1,4.4-1,8.2-3.5,11.8c-1.9,2.7-4.6,6.1-8.6,7.8c-1.1,0.5-2.7,0.7-4.5,0.9c-3.7,0.5-7.8,1-8.5,4.1c0,0.1-0.1,0.1-0.1,0.1h-0.2
					v0.2c0,0,0,0.1-0.1,0.1H143.3z"/>
			</g>
			<g>
				<path class="st3" d="M163.3,145c-0.2,0-0.2-0.1-0.2-0.2s0-0.2,0.2-0.2c0.1,0,0.2,0.1,0.2,0.2S163.5,145,163.3,145z"/>
			</g>
			<g>
				<path class="st3" d="M132.8,150.8c-0.3,0-0.4,0-0.5-0.3v-0.1l-0.1-0.1c-0.4-0.4-0.7-0.8-1.1-1.2c-2.3-2.4-4.7-4.9-7.6-6.7
					c0,0-0.1-0.1-0.1-0.2c0-0.1,0.1-0.2,0.2-0.2c3,1.8,5.4,4.4,7.7,6.9c0.5,0.5,1,1.1,1.5,1.6c0.1,0.1,0.1,0.2,0,0.2
					C132.9,150.8,132.8,150.8,132.8,150.8z"/>
			</g>
			<g>
				<path class="st3" d="M136.7,148.8c-0.1,0-0.1,0-0.2-0.1l-0.1-0.1c-0.1,0-0.1-0.2,0-0.2l0.2-0.4c0.2,0.2,0.3,0.3,0.3,0.4
					C136.9,148.6,136.9,148.7,136.7,148.8L136.7,148.8z M136.2,148c-0.7,0-2.3-1.5-3-2.1c-0.2-0.1-0.3-0.3-0.4-0.3
					c-1.3-1.1-2.6-2.3-3.8-3.5c-0.1-0.1-0.1-0.1,0-0.2c0-0.1,0.1-0.1,0.2-0.1c0,0,0.1,0,0.1,0.1l0.2,0.1c1.9,1.8,3.9,3.6,6,5.2
					c0.1,0.1,0.2,0.2,0.4,0.2c0.2,0.2,0.6,0.4,0.9,0.6H136.2z"/>
			</g>
			<g>
				<path class="st3" d="M140.8,146.8c0,0-0.1,0-0.1-0.1l-4.7-3.9c-0.1-0.1-0.1-0.1,0-0.1c0-0.1,0.1-0.2,0.2-0.2c0,0,0.1,0,0.1,0.1
					l4.7,3.9c0.1,0.1,0.1,0.1,0,0.1C141,146.7,140.8,146.8,140.8,146.8z"/>
			</g>
			<g>
				<path class="st3" d="M152.4,154.2c0,0-0.1,0-0.1-0.1s0-0.2,0-0.2l0.1-0.3l-0.3-0.1c-1.6-0.7-3.3-1.5-4.8-2.5
					c-0.2-0.1-0.6-0.4-1-0.8c-1.7-1.4-2.5-2-2.9-2l0,0h-0.1c-0.2,0-0.2,0.1-0.8,1.1c-0.2,0.3-0.4,0.6-0.4,0.7c-0.6,0.7-1.3,1.4-2,2
					c-1,0.7-2,1.3-3.5,1.8l0,0c-0.1,0-0.2-0.1-0.2-0.1c0-0.1,0-0.2,0.1-0.2c3.1-1.1,5.4-3.1,6.8-6.2c0,0,0.1-0.1,0.2-0.1
					c0.1,0,0.1,0,0.1,0c2.6,3,6,4.7,9.8,6.4c0,0,0.1,0,0.1,0.1s-0.1,0.2-0.1,0.2L152.4,154.2L152.4,154.2z"/>
			</g>
			<g>
				<path class="st3" d="M144.2,155c-1,0-2-0.2-2.8-0.5c-0.2-0.1-0.1-0.2-0.1-0.3c0,0,0-0.1,0.1-0.1c1,0.4,1.9,0.6,2.9,0.6
					c0.2,0,0.4,0,0.5,0s0.3,0,0.6-0.1c0.7-0.1,1.8-0.4,2.3-0.4c0.1,0,0.2,0,0.2,0l0.3,0.2c-0.6,0.3-1.5,0.4-2.2,0.5
					c-0.2,0-0.4,0-0.5,0.1C145.1,154.9,144.7,155,144.2,155z M148.3,153.7v-0.1c0,0,0,0,0.1-0.1c0.1,0,0.1,0,0.1,0
					c0.1,0,0.1,0.1,0.2,0.1c0.1,0.1,0.1,0.2,0,0.3s-0.1,0.2-0.2,0.3L148.3,153.7z"/>
			</g>
			<g>
				<path class="st3" d="M143.4,145.4c-0.2,0-0.2-0.1-0.2-0.2c0-0.1,0.1-0.2,0.2-0.2c0.2,0,0.2,0.1,0.2,0.2
					C143.6,145.3,143.5,145.4,143.4,145.4z"/>
			</g>
			<g>
				<path class="st3" d="M144.8,144.3c-2.2,0-4.8-1.6-6.3-3.1c-0.1-0.1-0.1-0.1,0-0.2c0-0.1,0.1-0.1,0.2-0.1c0,0,0.1,0,0.1,0.1
					c1.3,1.3,2.6,2.2,4.1,2.6c0.7,0.2,1.4,0.3,2.1,0.3h0.2h0.1c1.5-0.6,2.4-1.5,2.7-2.5s0.1-2.2-0.7-3.5l0,0l0,0c0,0-0.1-0.1,0-0.1
					c0-0.1,0.1-0.2,0.2-0.2c2.4-0.2,4.8-0.5,7.2-1l0,0c0.2,0,0.2,0.1,0.2,0.2c0,0.1,0,0.2-0.1,0.2l-0.6,0.2h-0.1h-0.2
					c-1.8,0.4-3.6,0.6-5.4,0.8H148l0.2,0.4c0.5,0.8,0.7,2,0.4,3.1c-0.2,1.1-0.8,2-1.6,2.4C146.3,144.1,145.6,144.3,144.8,144.3z"/>
			</g>
			<g>
				<path class="st3" d="M149.8,150.4c-0.1,0-0.1-0.1-0.2-0.2c0-0.1,0-0.2,0.1-0.2c1.6-0.4,2.5-1.4,2.7-2.9c0-0.1,0.1-0.1,0.2-0.1
					c0.9,0.5,1.8,0.8,2.7,0.8c1.3,0,2.6-0.6,3.4-1.5c0.8-1,1.2-2.3,1-3.7c0-0.1,0-0.2,0-0.2l0.1-0.1c0.4,0,0.7,0.1,1,0.1
					c1.4,0,2.3-0.3,2.9-1c0.5-0.6,0.6-1.4,0.4-2.5l-0.1-0.2h-0.2c-0.1,0-0.1,0-0.1-0.1l-0.1-0.2l-5.5,0.6c-0.3,0-0.7,0.1-1.1,0.1
					c-0.6,0-1.3,0.1-1.8,0.2c-1.5,0.3-2,1.1-2.6,2.1c-0.1,0.2-0.2,0.3-0.3,0.5c0,0.1-0.1,0.1-0.2,0.1c-0.1,0-0.2-0.1-0.2-0.1v-0.1
					c0.3-0.4,0.5-0.8,0.7-1.1c0.7-1.2,1.1-1.7,2.5-1.7c0,0,0.5,0,0.7,0c2.2,0,4.5-0.3,6.7-0.6c1-0.1,2-0.3,3-0.4l0,0
					c0.1,0,0.1,0.2,0.1,0.2s0,0.2-0.1,0.2l-0.4,0.1l-0.6-0.1l0.3,0.5c0.2,0.3,0.2,1-0.1,1.8c-0.7,1.7-1.7,2.4-3.4,2.4
					c-0.3,0-0.6,0-0.9-0.1h-0.3v0.3c0.1,2.2-1,4.7-3.7,5.2c-0.1,0-0.2,0-0.3,0c-0.4,0-1-0.1-1.6-0.2c-0.5-0.1-1-0.2-1.4-0.2
					c-0.2,0-0.3,0-0.5,0.1c-0.3,0.2-0.5,0.5-0.7,0.9c-0.2,0.3-0.4,0.7-0.7,0.9C150.8,150.1,150.5,150.2,149.8,150.4L149.8,150.4z"/>
			</g>
			<g>
				<path class="st3" d="M136.4,140c-0.2,0-0.2-0.1-0.2-0.2c0-0.1,0.1-0.2,0.2-0.2c0.2,0,0.2,0.1,0.2,0.2
					C136.6,139.9,136.5,140,136.4,140z"/>
			</g>
			<g>
				<path class="st3" d="M134.1,140.5c-0.2,0-0.2-0.1-0.2-0.2c0-0.1,0.1-0.2,0.2-0.2c0.2,0,0.2,0.1,0.2,0.2S134.2,140.5,134.1,140.5
					z"/>
			</g>
			<g>
				<path class="st3" d="M124.7,141.4c0,0-0.1,0-0.1-0.1c0,0,0-0.2,0.2-0.2l1.2-0.1c0.1,0,0.1,0,0.1,0.1c0,0,0,0.2-0.2,0.2
					L124.7,141.4z"/>
			</g>
			<g>
				<path class="st3" d="M121,134.6c0,0-0.1,0-0.1-0.1c0,0,0-0.2,0.2-0.2c5.8-0.5,11.7-0.7,17.6-0.7c1.4,0,2.7,0,4.1,0
					c0.1,0,0.2,0.1,0.2,0.2c0,0,0,0.2-0.2,0.2l-1.1,0.1l-0.1-0.1h-0.2c-0.9,0-1.8,0-2.7,0C132.6,133.9,126.7,134.1,121,134.6
					L121,134.6z"/>
			</g>
			<g>
				<path class="st3" d="M141.4,129.9c-0.2,0-0.5,0-0.7,0c-2.7-0.1-5.7-0.4-6.8-2.5c-0.2-0.4-0.3-0.7-0.4-0.9
					c-0.1-0.5-0.2-0.7-1.1-1c-0.2-0.1-0.4-0.1-0.8-0.1c-0.8,0-1.8,0.3-2.7,0.5c-0.4,0.1-0.7,0.2-0.9,0.2c-1.5,0.3-3,0.6-4.3,0.8l0,0
					c-0.2,0-0.2-0.1-0.2-0.2s0.1-0.2,0.1-0.2c3.4-0.7,6.7-1.3,10.1-1.6c0.1,0.1,0.2,0.2,0.1,0.3c-0.2,1,0.1,1.8,0.6,2.5
					c1.3,1.6,4.4,1.9,6.7,1.9c0.2,0,0.4,0,0.6,0c3.2-0.1,5.7-1,7.4-2.8c1.9-1.9,3.3-4.4,4.7-6.9c0.4-0.7,0.8-1.4,1.2-2.1v-0.1v-0.1
					c0-0.1,0-0.3,0.3-0.4h0.1c0.1,0,0.2,0,0.2,0.1s0,0.1,0,0.2l-0.2,0.4l0.1,0.2c0.4,0.4,3.3,6.7,3.6,7.6c0,0.1,0,0.1,0,0.1
					s-0.1,0.1-0.2,0.1c-0.1,0-0.2-0.1-0.2-0.1c-0.4-1.2-1.1-2.3-1.8-3.4s-1.4-2.3-1.7-3.4l-0.2-0.6l-0.7,1.2
					C151.4,125,148.5,129.9,141.4,129.9z"/>
			</g>
			<g>
				<path class="st3" d="M164.8,134.8c-3.6-0.5-7.2-0.8-10.8-0.8c-3.3,0-6.6,0.2-9.9,0.7l0,0c-0.2,0-0.3-0.1-0.3-0.2
					c0-0.1,0-0.1,0.1-0.1c3.5-0.5,7-0.7,10.3-0.7c2.6,0,5.3,0.2,7.8,0.5c0.4,0,0.6,0.1,0.8,0.1s0.3,0.1,0.5,0.1c0.4,0,0.6-0.2,1-0.7
					l-0.4-0.4l0.2-0.1l0.2,0.2c-0.1-0.3,0.1-2.3,0.2-2.5l-0.2,0.2l-0.2-0.1l0.5-0.3c-0.5-1-2.1-1.4-4.9-1.4c-1.1,0-2.2,0.1-3.1,0.1
					c-0.6,0-1.2,0.1-1.6,0.1c-0.2,0-0.2-0.1-0.2-0.2c0-0.1,0-0.2,0.2-0.2c3.4,0,6.8,0.2,10.1,0.4c0.1,0,0.2,0,0.2,0.1v0.1
					c-0.7,1.6-0.8,3.2-0.3,5c0,0,0,0.1,0,0.2C165,134.8,164.9,134.8,164.8,134.8L164.8,134.8z"/>
			</g>
			<g>
				<path class="st3" d="M135,119.1C135,119.1,134.9,119.1,135,119.1c-0.1-0.1-0.1-0.2-0.1-0.3v-0.1l-0.1-0.1
					c-0.1-0.2-0.5-0.6-0.9-1c-0.1-0.1-0.2-0.2-0.3-0.2l-3.5-3.7c0,0-0.1-0.1,0-0.2c0-0.1,0.1-0.1,0.2-0.1c0,0,0.1,0,0.1,0.1l3.1,3.2
					c0.2,0.2,0.3,0.4,0.5,0.5c0.3,0.3,0.7,0.7,1,1.1c0.2,0.3,0.3,0.3,0.3,0.5c0,0.1-0.1,0.2-0.2,0.2L135,119.1z"/>
			</g>
			<g>
				<path class="st3" d="M122.1,114c-0.1,0-0.1-0.1-0.2-0.2c0-0.1,0-0.2,0.1-0.2c0.5-0.1,1-0.3,1.4-0.6l0.7-0.4l-0.8-0.1
					c-0.3-0.1-0.6-0.1-0.9-0.1c-0.1,0-0.3,0-0.3,0c-0.1,0-0.1-0.1-0.2-0.2c0,0,0-0.2,0.2-0.2c0.1,0,0.2,0,0.3,0c0.7,0,1.3,0.1,2,0.3
					c0.1,0,0.1,0.1,0.2,0.2v0.1C123.9,113.3,123,113.8,122.1,114L122.1,114z"/>
			</g>
			<g>
				<path class="st3" d="M122.7,116.9c-0.2,0-0.2-0.1-0.2-0.2s0.1-0.2,0.2-0.2c0.2,0,0.2,0.1,0.2,0.2
					C122.8,116.8,122.7,116.9,122.7,116.9z"/>
			</g>
			<g>
				<path class="st3" d="M124.9,119.7C124.9,119.7,124.8,119.7,124.9,119.7c-0.4-0.8-0.9-1.4-1.6-1.8c0,0-0.1-0.1-0.1-0.2
					s0.1-0.2,0.2-0.2c0.8,0.5,1.4,1.1,1.7,1.8c0,0.1,0,0.1,0,0.2C125.1,119.7,125,119.7,124.9,119.7z"/>
			</g>
			<g>
				<path class="st3" d="M126.4,122.2c-0.2,0-0.2-0.1-0.2-0.2s0-0.2,0.2-0.2c0.1,0,0.2,0.1,0.2,0.2S126.6,122.2,126.4,122.2z"/>
			</g>
			<g>
				<path class="st3" d="M125.7,124.6c-1.3,0-2.6-0.4-3.8-0.7c-0.1,0-0.1-0.1-0.1-0.2s0.1-0.2,0.2-0.2l0.2,0.1
					c1.1,0.3,2.3,0.6,3.4,0.6c0.5,0,1-0.1,1.4-0.2c0.3-0.1,1.4-0.4,1.7-1.3c0.1-0.3,0.2-0.7-0.2-1.3c-0.3-0.4-1.1-1.1-1.7-1.2
					c-0.1,0-0.1,0-0.2,0c-0.6,0-1.4,0.4-2.2,0.7c-0.4,0.2-0.8,0.4-1.1,0.5c-1,0.3-2,0.4-3.3,0.5l0,0c-0.1,0-0.1,0-0.1-0.1
					c0,0,0-0.2,0.2-0.2c2.4-0.2,4.5-0.8,6.7-1.9h0.1c0.1,0,0.1,0,0.1,0.1c0.2,0.2,0.4,0.4,0.7,0.5c0.8,0.7,1.7,1.4,1.7,2.1
					c0,0.4-0.2,0.8-0.7,1.2C128,124.2,127,124.6,125.7,124.6z"/>
			</g>
			<g>
				<path class="st3" d="M143,119.1c-0.3,0-0.8-1-0.9-1.3c0-0.1-0.1-0.2-0.1-0.2c-0.9-1.6-2.1-3.1-3.6-4.4c-0.1-0.1-0.1-0.1,0-0.1
					c0-0.1,0.1-0.2,0.2-0.2c0,0,0.1,0,0.1,0.1c0.9,0.8,1.7,1.6,2.4,2.5c0.4,0.5,0.7,1,1,1.6c0,0.1,0.1,0.2,0.1,0.3
					c0.1,0.3,0.3,0.7,0.4,1l0.1,0.2l0.2-0.1c0.2,0.1,0.3,0.2,0.3,0.4C143.2,118.9,143.2,119,143,119.1
					C143.1,119,143,119.1,143,119.1z"/>
			</g>
			<g>
				<path class="st3" d="M144.6,109.4c-0.2,0-0.2-0.1-0.2-0.2s0.1-0.2,0.2-0.2c0.2,0,0.2,0.1,0.2,0.2
					C144.7,109.3,144.6,109.4,144.6,109.4z"/>
			</g>
			<g>
				<path class="st3" d="M146.4,126.9h-0.1v-0.1c0.1-5.4,0.1-10.9-0.2-16.3c0-0.1,0-0.1,0-0.1h0.1c0,0,0.2,0,0.2,0.2
					c0.2,4.6,0.3,9.4,0.2,14.2v0.4l0.4-0.1h0.1c0.1,0,0.2,0,0.2,0.1c0,0,0,0,0,0.1l-0.7,1.7C146.6,126.9,146.5,126.9,146.4,126.9z"
					/>
			</g>
			<g>
				<path class="st3" d="M149.1,112.4c-0.2,0-0.2-0.1-0.2-0.2s0.1-0.2,0.2-0.2c0.2,0,0.2,0.1,0.2,0.2S149.2,112.4,149.1,112.4z"/>
			</g>
			<g>
				<path class="st3" d="M149.6,110.9c-0.1,0-0.2-0.1-0.2-0.2s0-0.2,0.2-0.2c0.1,0,0.2,0.1,0.2,0.2S149.7,110.9,149.6,110.9z"/>
			</g>
			<g>
				<path class="st3" d="M163.1,127.7c-0.1,0-0.2-0.1-0.2-0.2s0.1-0.2,0.1-0.2c0.7-0.4,1-0.8,1-1.1c0-0.5-0.6-0.8-1.4-1.1l-0.3-0.1
					l-0.1-0.1c0-0.1,0-0.1,0-0.1c0.2-0.2,0.5-0.4,0.8-0.6c1.4-1,2.4-1.7,2.2-2.5c-0.1-0.6-0.9-0.8-1.5-0.8h-0.3
					c-1-0.1-1.8-0.3-2.7-0.8c-0.1,0-0.1-0.1-0.1-0.2s0-0.1,0.1-0.1c1.3-0.5,2.4-1.2,3.6-1.9l0.6-0.4l-0.7-0.1
					c-0.5-0.1-1-0.2-1.5-0.2c-1.5-0.2-3-0.3-3.8-1.8c0-0.1,0-0.1,0-0.2s0.1-0.1,0.2-0.1c0.3,0.1,0.6,0.1,0.9,0.1
					c0.7,0,1.2-0.3,1.6-0.6c3.9-3.2,0.5-1.5,0.3-2.7l-0.1-0.3l-2,0.3c-0.9,0.2-1.8,0.6-2.7,0.9l-0.2,0.1l0,0c-0.1,0-0.1-0.1-0.1-0.1
					s0-0.2,0.1-0.3c1.7-0.7,3.2-1.2,4.6-1.2c1,0,1.9,0.2,2.8,0.7c0.1,0,0.1,0.2,0.1,0.2c-0.3,1.9-1.6,2.8-4.3,3.1l-0.7,0.1l0.5,0.4
					c0.9,0.7,2.1,0.9,3.3,1c0.8,0.1,1.5,0.2,2.1,0.4c0.1,0,0.2,0.1,0.2,0.2s0,0.1-0.1,0.2c-1.1,0.7-2.2,1.4-3.3,1.9l-0.8,0.4
					l0.9,0.2c0.3,0,0.6,0.1,0.9,0.1c1.4,0.2,3.2,0.5,3.5,1.5c0.2,0.7-0.7,1.5-1,1.7c-0.1,0.1-0.3,0.2-0.4,0.2
					c-0.1,0.1-0.3,0.1-0.4,0.2l-0.4,0.2c-0.6,0.4-0.9,0.5-0.9,0.8s0.3,0.4,0.8,0.7c0.2,0.1,0.4,0.2,0.7,0.4c0.1,0,0.1,0.1,0.1,0.2
					s0,0.1,0,0.1C164.5,126.8,163.9,127.3,163.1,127.7L163.1,127.7z"/>
			</g>
			<g>
				<path class="st3" d="M111.6,132.8c-0.3,0-0.4-0.3-0.4-0.4c0-0.2,0.2-0.4,0.4-0.4c0.3,0,0.4,0.3,0.4,0.4S111.8,132.8,111.6,132.8
					z"/>
			</g>
			<g>
				<path class="st3" d="M122.5,91.8c-1.7-1.5-4.1-2.3-6.9-2.3c-2.4,0-4.7,0.6-6.5,1.7c-2.1,1.3-3.4,3-3.7,4.7
					c-0.2,1.2,0.2,2.4,1.2,3.5c1.3,1.4,3.4,2.4,5.2,2.4c1,0,1.8-0.3,2.4-0.8l0.1-0.1l0,0l0.1-0.1c0.2-0.2,0.3-0.4,0.5-0.6
					c0-0.1,0-0.1,0-0.2s-0.1-0.1-0.2-0.1s-0.1,0-0.1,0.1c-0.5,0.8-1.4,1.3-2.5,1.3c-0.9-0.1-1.7-0.2-2.4-0.4h-0.1
					c-0.1,0-0.2-0.1-0.2-0.1c-1.2-0.6-2-1.2-2.4-2c-0.3-0.6-0.5-1.2-0.5-1.9c0-1,0.1-1.9,0.5-2.8c0.9-1.8,2.9-3.2,5.5-3.8
					c1.1-0.3,2.3-0.4,3.4-0.4c0.6,0,1.2,0,1.9,0.1c0.4,0.1,0.8,0.3,1.2,0.5c0.5,0.2,1,0.5,1.4,0.8l0.2-0.4c3.3,1.8,4.6,5.2,3.2,8.2
					l-0.3-0.1c-0.3,0.8-0.8,1.5-1.3,2.3l-0.1,0.1c-0.1,0.1-0.2,0.2-0.2,0.2c-0.1,0-0.1,0.1-0.1,0.1l0,0l0,0c0,0.1,0.1,0.1,0.2,0.1
					h0.1c1-0.8,1.8-1.9,2.3-3.1l0.1-0.2v-0.2C125.1,95.9,124.4,93.4,122.5,91.8z"/>
			</g>
			<g>
				<path class="st3" d="M168.3,105.9L168.3,105.9c-1-0.9-2.3-1.7-2.7-1.7l-0.3-0.5c0.1,0,0.1-0.1,0.1-0.2s-0.1-0.2-0.2-0.2h-0.1
					c-2.4,1.4-5.6,2.2-8.7,2.2c-1.3,0-2.6-0.1-3.8-0.4v-0.6c0.1,0,0.1,0,0.2,0c-0.3-0.2-0.3-0.6-0.3-0.9s-0.1-0.5-0.1-0.6v-0.1
					c-0.2,0-0.4,0-0.5-0.1c-0.2,0.1-0.4,0.1-0.6,0.1c-0.2,0-0.3,0-0.5,0c-0.8,0.2-1,0.3-1.3,0.6l-0.2,0.1l-0.2-0.1
					c-1-0.7-1.9-1.5-2.6-2.4c0-0.1-0.1-0.1-0.2-0.1c-0.1,0-0.2,0.1-0.2,0.1v0.1c2,2.9,5.7,4.5,10.2,4.5c2.9,0,5.8-0.7,8.2-1.9
					l0.2-0.1l0.1,0.2c0.3,0.4,1.1,1.2,3.2,2.4C168.2,106.2,168.2,106.1,168.3,105.9z"/>
			</g>
			<g>
				<path class="st3" d="M147.9,89.4l0.2-0.1l3.5,3.2l0,0l2.8,2.9h0.2l0.7,3.5v0.2c0.4,0.2,0.6,0.5,0.6,0.8c0,0.5-0.4,0.9-1.4,1.4
					c-0.3,0.7-0.6,1.2-1.1,1.4c0.1,0,0.2-0.1,0.4-0.1c0.3-0.2,0.7-0.2,1-0.3c0.6-0.1,1.2-0.2,1.5-0.8c0.3-0.6,0.1-0.9-0.1-1.4
					c-0.2-0.4-0.4-0.8-0.4-1.4c0.1-0.4,0.3-0.8,0.5-1c0.3-0.4,0.5-0.7,0.1-1.4c-0.2-0.2-0.5-0.3-0.7-0.4c-0.3-0.1-0.6-0.2-0.8-0.5
					c-0.2-0.4-0.3-0.8-0.3-1.1c0-0.5,0-0.8-0.7-1.2c-0.1-0.1-0.4-0.1-0.7-0.2c-0.4-0.1-0.7-0.1-0.9-0.3c-0.4-0.4-0.6-0.7-0.3-1
					c0.1-0.1,0.1-0.1,0-0.6c-0.5-1.4-0.9-1.5-2.2-1.9h-0.2c-0.1,0-0.2,0.1-0.4,0.1c-0.2,0.1-0.3,0.1-0.5,0.1c-0.1,0-0.2,0-0.2,0
					c-0.3-0.1-0.5-0.5-0.8-0.8c-0.2-0.2-0.3-0.5-0.4-0.5c-0.3-0.2-0.6-0.3-0.9-0.3c-0.3,0-0.5,0.1-0.8,0.1c-0.3,0.1-0.6,0.2-1,0.2
					c-0.1,0-0.2,0-0.3,0c-0.7,0-1.3-0.1-1.9-0.3c-0.6-0.1-1.2-0.2-1.8-0.2c-0.5,0-1,0.1-1.5,0.2l-0.3,0.1c-0.5,0.2-0.7,0.2-0.9,0.2
					s-0.3-0.1-0.4-0.1c-0.1-0.1-0.4-0.2-1-0.4c-0.3-0.1-0.7-0.2-1-0.2c-0.4,0-0.8,0.1-1.2,0.4c-0.6,0.5-0.7,0.7-0.7,0.7l-0.1,0.2
					l-0.2-0.1c0,0-0.1,0-0.3,0h-0.3c-0.3,0-0.5-0.1-0.8-0.1c-0.2,0-0.3-0.1-0.5-0.1c-0.1,0-0.3,0-0.4,0.1c-0.7,0.2-1.1,0.7-1.4,1.3
					c0.4-0.4,1.1-0.6,2-0.6c0.5,0,1,0.1,1.7,0.2h0.1v0.1l0,0c0,0,0,0,0,0.1l0.1-0.2l3.9-0.8l0.1,0.1c0,0,0.1,0,0.1-0.1l0.1-0.1
					l5.5-0.2v0.1l0,0l0.1-0.1L147.9,89.4L147.9,89.4z"/>
			</g>
			<g>
				<path class="st3" d="M117.1,101.8C117,101.8,117,101.7,117.1,101.8c-0.1-0.2-0.1-0.3,0-0.3c1.3-0.5,2.1-1.9,1.9-3.3l-0.2-1
					l-0.1,0.3v-0.2l0,0c-0.5-0.8-1.3-1.5-2.2-1.8c-0.3-0.1-0.8-0.2-1.4-0.2s-1.3,0.1-1.7,0.6c-0.3,0.3-0.4,0.8-0.3,1.3
					c0,0.1,0,0.1,0,0.2s-0.1,0.1-0.2,0.1V98h-0.1l0.1-0.5c0,0-0.1,0-0.1-0.1c-0.1-0.7,0-1.3,0.3-1.6c0.4-0.5,1.1-0.7,2-0.7v-0.4
					c0.7,0.1,1.4,0.4,2.1,0.9c0.5,0.2,0.9,0.5,1.1,0.7c0.9,0.9,1.3,2.1,1.1,3.4C119,100.5,118.3,101.4,117.1,101.8L117.1,101.8z
					 M111.5,97.5c-0.4-0.2-0.8-0.4-0.9-0.8c-0.1-0.2-0.1-0.4,0-0.6s0.3-0.4,0.6-0.6c-0.3,0.5-0.4,1-0.3,1.4
					C111,97.1,111.2,97.3,111.5,97.5z"/>
			</g>
			<g>
				<path class="st3" d="M126.7,79.8c3.4-0.6,7-1.3,10.6-1.8c-7.4,0.9-15.1,2.3-22,4.6C119.1,81.4,123,80.5,126.7,79.8z"/>
			</g>
			<g>
				<path class="st3" d="M160.1,80.5c2.3,0.8,4.4,1.8,6.2,2.8c0.1,0,0.9,0.6,1.9,1.4c0-0.1,0-0.2,0-0.3
					C165.9,82.7,163.1,81.4,160.1,80.5z"/>
			</g>
			<g>
				<path class="st3" d="M167.2,80.3c0.5,0.3,0.9,0.6,1.4,0.9c0-0.1,0-0.2,0.1-0.3c-7.7-5.2-16.9-7.9-26.9-7.9c-0.8,0-1.5,0-2.3,0
					l-2.1,0.1c-11.7,0.4-26.2,0.9-31.5,12.5c0,0.1,0,0.1,0,0.2c0,0.2,0.1,0.2,0.1,0.2s0.1,0,0.1-0.1c5.4-11.8,20.9-12.2,32.3-12.5
					c0.8,0,1.6,0,2.3-0.1c0.6,0,1.2,0,1.8,0c5.9,0,11.1,0.9,16,2.7C161.6,77.1,164.5,78.6,167.2,80.3z"/>
			</g>
			<g>
				<path class="st3" d="M163.6,89.7c0.8-0.4,1.8-0.6,2.7-0.6c0.6,0,1.1,0.1,1.7,0.2c0-0.1,0-0.3,0-0.4c-0.6-0.1-1.2-0.2-1.7-0.2
					c-0.4,0-0.8,0-1.2,0.1H165l0,0c-0.3,0-0.6,0-0.9,0c-0.5,0-1,0-1.5,0.1c-2.4,0.4-3.7,1.7-4.4,3.5c0.7-1,2.2-1.8,3.2-2.3l0.3,0.5
					c-1.5,1.4-2.7,3.3-3.6,5l-0.4-0.1c0,0.1,0,0.2,0,0.4l0.4,0.3h0.1c0,0,0.1,0,0.1-0.1l0.1-0.2C159.6,93.5,161.1,90.9,163.6,89.7z"
					/>
			</g>
			<g>
				<path class="st3" d="M168.8,99.3c-1.1,0.3-2.2,0.6-3.3,0.7c-0.3,0-1,0.1-1.8,0.1h-0.3v-0.3c0-0.7,0.2-1.6,0.7-2.7
					c-0.6,0.1-0.9,0.4-1.1,0.8c-0.2,0.5-0.2,1.1,0.2,1.8l0.3,0.5l-0.5-0.1c-0.8-0.1-1.2-0.3-1.4-0.7v-0.1v-0.1
					c0.3-1.1,0.9-2.1,1.7-2.9c1.4-1.3,1.8-1.5,2.1-1.5c0.1,0,0.3,0.1,0.4,0.2c0.1,0.2,0.1,0.6-0.2,1.2l-0.1,0.2h-0.2
					c-0.2,0-0.2,0.2-0.2,0.2c0,0.1,0,0.2,0.2,0.2l0,0c0.8,0,2.2-0.6,2.4-1.3c0.1-0.3-0.1-0.6-0.6-1c-0.2-0.1-0.4-0.2-0.6-0.2
					c-0.9,0-2.2,0.7-2.8,1.1c-1.4,1-2.3,2.5-2.6,4.4c0,0.1,0,0.2,0.1,0.3c0.8,0.1,1.6,0.2,2.5,0.2h0.1l0,0h0.2
					c1.7,0,3.4-0.2,4.9-0.7C168.8,99.5,168.8,99.4,168.8,99.3z"/>
			</g>
			<g>
				<path class="st3" d="M83.3,131.9c-0.7,0-1.2-0.2-1.5-0.7c-1-1.7,1.8-4.2,3.5-5.6l-0.3-0.5c-2.5,0.7-5,1.1-7.6,1.1
					c-2.8,0-5.6-0.4-8.3-1.3c-0.1,0-0.1-0.1-0.1-0.2s0-0.1,0.1-0.1l10.3-4.6l-1.8,0.4c-2.4,0.4-4.9,0.6-7.3,0.6l0,0
					c-5.1,0-10.1-0.9-14.9-2.6c-0.1,0-0.1-0.2-0.1-0.2s0-0.1,0.1-0.2c3.3-1.1,6.7-2.1,10.2-2.8l1.6-0.3c-6.6,0.5-11.2-1.7-15.7-3.7
					l-0.1-0.1c0-0.1,0-0.2,0-0.2c1.8-1.9,4.1-2.3,6.6-2.8c0.8-0.2,3.3-0.7,4.1-0.9l-1.6-0.1c-4.9-0.4-9.7-1.8-14.2-4
					c0,0-0.1,0-0.1-0.1s0-0.2,0.1-0.2c1.3-1.5,3.2-1.6,5.2-1.8c0.4,0,0.8,0,1.2-0.1l3.2-0.4l-2-0.2c-3.4-0.4-6.4-1.3-9-2.7
					c-0.1,0-0.1-0.1-0.1-0.2s0-0.1,0.1-0.2c1.2-0.3,3.6-1,5.1-1.3l-1.2-0.2c-0.9-0.2-1.7-0.4-2.6-0.7c-2.8-1-6.1-2.8-7.1-4.8
					c-0.3-0.6-0.3-1-0.1-1.4c0.3-0.5,1.3-0.8,2.8-0.8h0.7l-0.6-0.5c-1.8-1.6-3.3-3.9-4.7-6c-0.5-0.8-1-1.6-1.6-2.4c0,0,0-0.1,0-0.2
					s0.1-0.1,0.1-0.1l9.6,0.7v-0.3c0-0.7,0.4-1.1,1.1-1.2l1-0.1l-1.1-0.5c-9.7-4.2-19.7-8.6-28.7-14.5c-0.5-0.3-1-0.7-1.5-1.1
					c-0.9-0.7-1.8-1.4-2.7-1.8c-0.4-0.6-0.9-0.9-1.4-0.9c-0.3,0-0.7,0.1-1,0.3l-0.2,0.1v0.2c0.3,1.1,0.7,2.2,1.3,3.1
					c1.7,2.9,4.5,5.2,7,7.2c3.5,2.9,7.3,4.6,11.3,6.4l1.4,0.7c0.1,0,0.1,0.1,0.1,0.1c0,0.1-0.1,0.2-0.2,0.2l-0.4-0.2
					c-8.2-3.8-19.4-9-21-18.6c0-0.1,0-0.2,0.1-0.3c0.2,0,0.4,0,0.5,0c1.9,0,3.9,1.7,5.7,3.1c0.7,0.6,1.4,1.2,2.1,1.6
					c3.1,2,6.3,3.9,9.6,5.6c4.2,2.2,8.4,4.1,12,5.6l2.3,0.7c-5.7-3.2-12.8-7.5-17.5-10.7c-1.1-0.7-2.2-1.4-3.4-2.2
					C16,58.4,8.9,53.9,7.2,47.4c0-0.1,0-0.1,0-0.2l0.1-0.1c2.1,0,4.2,0.6,6.7,1.9l0.3-0.5c-2.3-2-4-3.8-5.3-5.5
					c-1-1.4-3.5-4.9-1.9-6.5c0.4-0.4,1.3-0.6,2.4-0.6c0.2,0,0.4,0,0.6,0l0.7,0.1l-0.4-0.5c-2.2-2.9-3.2-5.5-2.7-7.3
					c0.3-1.2,1-1.7,2.1-1.7c2.9,0,7.9,4,10.3,6c0.6,0.5,1.1,0.9,1.4,1.1L33.6,42l0.4-0.4c-8.2-7.5-15.3-16-21-25.4
					c0-0.1,0-0.1,0-0.2s0.1-0.1,0.2-0.1c7.8,4.7,17.4,10.5,24.4,18.6l0.4,0.4l0.1-0.6c0.1-0.3,0.1-0.6,0.2-0.9
					c0-0.1,0.1-0.1,0.2-0.1h0.1c5.3,5.6,10.9,11.2,16.8,16.6l0.1,0.1h0.2h0.1c0.1,0,0.1,0,0.2,0c1.4,1.1,4.3,3.2,6.1,4.5L61,53.1
					c-2.7-3-5-6.3-6.7-10c0-0.1,0-0.2,0-0.2c0-0.1,0.1-0.1,0.2-0.1c0.3,0,0.5,0,0.8,0c4,0,6.6,2.7,9.3,5.5c2.2,2.3,4.6,4.7,7.8,5.5
					c0,0,0.1,0,0.1,0.2c0,0.1-0.1,0.2-0.2,0.2C72,54.1,71.7,54,71.5,54l-0.3,0.5l4,2.3l0.4-0.4c-1.7-1.9-3-4.1-4-6.6
					c0-0.1,0.1-0.2,0.2-0.2c2.6,1.4,5.2,2.9,8.4,4.9l0.2,0.1l0.2-0.1h0.1c8.5,2.6,16.5,5.5,20.9,12.7c0,0,0,0.1,0,0.2
					c-0.4,0.6-0.9,1.1-1.5,1.5c-0.4,0.3-0.8,0.6-1.1,1c-1.8,1.9-2.2,3.4-1.6,5.9c0.2,1,0.5,2,0.8,2.9c1.7,4.8,4.5,9.1,8.4,12.8
					c0.1,0.1,0.1,0.1,0,0.2c0,0.1-0.1,0.1-0.2,0.1c0,0-0.1,0-0.1-0.1c-3.4-3.2-6-6.8-7.7-10.8l-0.2-0.4c-1.1-2.6-3.1-7.1-1.4-9.6
					c0.3-0.5,0.9-0.9,1.5-1.3c1.1-0.8,2.3-1.6,2.1-3.2c-0.3-2.1-4.2-4.7-5.9-5.8l-0.1-0.1c-1.9-1.3-4.2-2.4-7.3-3.6
					c-0.9-0.4-1.9-0.7-3.1-1.1c-0.4-0.1-0.9-0.3-1.3-0.4l-0.2,0.5c0,0,0.6,0.4,0.7,0.4c0.1,0.1,0.1,0.1,0.1,0.2
					c0,0.1-0.1,0.2-0.2,0.2c-0.4-0.3-0.8-0.5-1.2-0.7c-0.3-0.2-0.5-0.3-0.8-0.5l-0.7-0.4l0.3,0.8c0.2,0.6,0.9,1.5,2.1,2.9
					c0.2,0.1,0.1,0.3,0.1,0.3s0,0.1-0.2,0.1c-0.8-0.2-1.6-0.4-2.4-0.5c-0.8-0.3-1.5-0.5-1.9-0.5h-0.8l0.6,0.5c0,0,0.1,0.1,0,0.1
					c0,0.1-0.1,0.1-0.2,0.2l-0.3,0.1l0.2,0.3c0.1,0.2,0.3,0.4,0.5,0.7c0.3,0.9,1.3,1.8,2.2,2.7c0.3,0.3,0.6,0.6,0.8,0.8
					c2.1,2.3,4.5,4.5,7.4,6.6c0,0,0,0.1,0,0.2l-0.1,0.1l1.4,3.4h0.2l0.1,0.1c0,0.1,0,0.1,0,0.2c-1.1,1.8-2.2,3.9-2.4,5.7v-0.1
					c-0.1-1.1,0.2-2.2,0.6-3.1c0.1-0.2,0.2-0.4,0.4-0.7c0.4-0.6,0.8-1.1,0.7-1.6c0-0.2-0.3-0.3-0.5-0.4c-0.1,0-0.3-0.1-0.3-0.2
					c-0.1-0.3-0.2-0.5-0.3-0.7c-0.2-0.5-0.4-0.9-0.6-1.5c0-0.1,0.1-0.2,0.1-0.3c0.1-0.2,0.2-0.4,0.1-0.6C88.3,70,87.6,69.4,87,69
					c-0.2-0.1-0.4-0.3-0.6-0.4C83,65.7,80,62.4,77,58.5v-0.2l-6.5-3.8l0.5,0.9c4.3,7.4,10,13.5,17,18.3c0.1,0.1,0.1,0.2,0.1,0.2
					C88,74,88,74,87.9,74c-2.1-1.4-3.8-2.3-5.7-2.9c-0.8-0.3-1.7-0.5-2.5-0.7c-0.5-0.1-0.8-0.2-1.1-0.2c-0.4,0-0.7,0.1-0.8,0.4
					c-0.2,0.4,0.1,0.9,0.4,1.2c0.9,1.5,1.7,2.5,2.6,4l0,0l0.4,0.1c0.1,0,0.1,0,0.1,0.1v0.1l0.1,0.1c1.9,1.4,4.1,2.3,5.5,2.7
					c0.1,0,0.1,0.2,0.1,0.2s0,0.2-0.2,0.2s-0.7-0.1-1.3-0.1c-1.4-0.1-3.6-0.4-5.2-0.4s-2,0.2-2.1,0.5c-0.6,1.1,3.7,3.7,3.7,3.7
					c1,0.6,2.1,0.9,3.3,1.1c1,0,1.8,0.1,2.6,0.2c0.2,0,0.2,0.2,0.2,0.2c0,0.1-0.1,0.1-0.2,0.2c-0.2,0-0.3,0-0.5,0
					c-0.9,0-1.8-0.1-2.6-0.3c-0.4,0-0.7,0-1,0c-1.3,0-1.9,0.2-2,0.5c-0.4,1,0.9,1.9,1.9,2.5c0.1,0.1,0.3,0.2,0.4,0.3
					c2.7,1.9,5.8,2.9,9.2,2.9c0.4,0,0.7,0,1.1,0l0,0c0.1,0,0.1,0,0.1,0.1l0.1,0.1l-0.1,0.1L94.3,91c-0.7,0-1.3,0-1.9,0
					c-1.3,0-2.6,0-3.7,0.4c-0.3-0.1-0.6-0.1-0.8-0.1c-0.3,0-0.6,0.1-0.7,0.3C87.1,91.7,87,92,87,92.4c-0.2,0.7-0.1,1.7,1.3,2.4
					c1.9,1.9,4.6,2.8,8.3,2.8c0.9,0,1.9-0.1,3-0.2l0,0c0.1,0,0.1,0.1,0.1,0.2c0,0,0,0.2-0.1,0.2c-2.4,0.3-8.1,1.3-8.9,2.5
					c-0.1,0.2-0.1,0.4-0.1,0.5c0.1,0.3,0.3,1.1,4.5,1.9c0.8,0.2,1.7,0.2,2.6,0.2c1,0,1.9-0.1,3-0.3c0.4-0.1,0.8-0.2,1.2-0.2l0,0
					c0.2,0,0.3,0.1,0.3,0.2s0,0.1-0.1,0.1c-0.5,0.1-1.1,0.2-1.7,0.3h-0.2c-0.1,0-0.2,0-0.3,0.1c-1.1,0.1-1.8,0.5-2.1,1.1
					c-0.3,0.6,0,1.5,0.8,2.6l0.1,0.1h0.1c0.1,0,0.1,0.1,0.1,0.2s-0.1,0.2-0.2,0.2c-1.4-0.4-2-0.9-2.7-2.1c0-0.1,0-0.2,0-0.2
					c0.6-0.5,1.2-0.9,1.8-1.3l0.9-0.5h-1c-2.8,0-5.6-0.8-8.1-2.3c-0.1,0-0.1-0.1-0.1-0.1c0-0.1,0-0.2,0.1-0.2c1.4-1,3-1.7,5-2.2
					v-0.6c-4.6-0.5-7.6-2.7-8.8-6.3v-0.1c0-0.1,0.1-0.1,0.2-0.1l2.8-0.2v-0.6c-3.3-0.9-6.2-2.7-8.4-5.4c-0.1-0.1-0.1-0.2,0-0.3
					c0,0,0-0.1,0.1-0.1c0.7-0.1,1.4-0.2,2.1-0.3l1.1-0.1l-1-0.4c-2.2-1-4.1-2.7-5.4-4.9c0-0.1,0-0.1,0-0.2l0.1-0.1l6.5,0.2l0.1-0.5
					c-1.1-0.5-2.1-1.2-3-2h-0.1h-0.1c-0.6-0.1-1.2-0.3-1.8-0.5l-6.8-1.7c-0.4-0.1-0.9-0.2-1.4-0.4c-1-0.3-2-0.6-3-0.7l-1.5-0.4h-0.1
					c-1.7-0.1-3.1-0.1-2.5,1.6l-0.1,0.3l0.3,0.1c1.5,0.6,3,1,4.4,1.4c0,0,0.1,0,0.1,0.2c0,0.1-0.1,0.2-0.2,0.2
					c-1.2-0.3-2.4-0.6-3.5-0.9l-0.6-0.2l0.3,0.6c0.7,1.4,2.7,2.5,4.6,3.6c3,1.4,5.7,2,7.6,2.8c0.7,0.3,1.3,0.5,1.6,0.6
					c0.1,0,0.1,0.1,0.1,0.2s-0.1,0.2-0.2,0.2c-2.6-0.6-4.7-1.2-6.7-2L70,80.6c-0.4-0.1-0.8-0.2-1.2-0.4c-0.8-0.3-1.7-0.5-2.6-0.7
					c-0.7-0.2-1.5-0.4-2.3-0.4h-0.1l-0.1,0.1c-1.5,0.4-3,0.3-1.9,2.6c0.2,0.4,0.4,0.8,1,1c3.3,1.5,5.5,2.7,8.1,3.3l0.7,0.2
					c0.4,0.1,0.7,0.2,1.1,0.2l0.3,0.1c2.5,0.2,5,0.4,7.3,0.6c0.2,0,0.2,0.2,0.2,0.2c0,0.1-0.1,0.1-0.2,0.1H80
					c-2.4,0-4.7-0.2-6.9-0.6c-1.5-0.1-3.1-0.2-4.8-0.2h-1l0.8,0.5c3.8,2.6,8.1,4.3,12.6,5.1c1.6,0.1,3.1,0.2,4.5,0.4h0.1
					c0,0,0.1,0,0.1,0.2c0,0.1,0,0.2-0.2,0.2c-1.5,0-3.1-0.2-4.6-0.5c-0.6,0-1.2,0-1.8,0c-1.2,0-2.3,0.1-3.5,0.2l-0.7,0.1l0.5,0.4
					c1.2,1.1,2.2,1.9,3.2,2.6l0,0l0.2,0.1c2.4,1.8,4.7,2.9,7,3.3c0.5,0,0.9-0.1,1.3-0.1c0.8,0,1.6,0.1,2.4,0.2
					c0.1,0,0.1,0.1,0.1,0.1c0,0.1-0.1,0.2-0.2,0.3c-0.4,0-0.9,0.1-1.3,0.1c-0.8,0-1.7-0.1-2.6-0.3c-1,0.1-1.5,0.4-1.5,0.8
					c-0.1,0.6,0.5,1.2,1.9,2c1.3,0.8,2.8,1.2,4.4,1.4c1.6-0.3,3.2-0.4,4.2-0.4h0.3c0.2,0,0.2,0.2,0.2,0.2c0,0.1,0,0.2-0.1,0.2
					c-1,0.3-2.1,0.4-3.2,0.4c-0.3,0-0.6,0-0.9,0c-0.4,0.1-0.7,0.1-1,0.2c-0.5,0.2-2.4,0.8-2.7,2c-0.2,0.5,0,1.1,0.5,1.6
					s1.4,0.8,2.8,0.8c2,0,4.4-0.6,5.2-0.8l0,0c0.1,0,0.2,0.1,0.2,0.2s0,0.1,0,0.1l-6.7,5.3h1c2.7,0,5.2-0.5,7.8-1.4l0,0
					c0.1,0,0.2,0.1,0.2,0.1s0,0.2-0.1,0.2c-2.6,1-5.1,1.4-7.8,1.4c-0.5,0-1,0-1.5,0c-0.1,0-0.2-0.1-0.2-0.2s0-0.1,0-0.1l0.2-0.1
					l-0.3-0.5c-0.2,0.1-0.5,0.2-0.8,0.2c-0.5,0.1-0.8,0.2-1.1,0.3c-0.1,0-0.2,0-0.3,0c-0.5,0-0.7,0.3-1,0.4c-1,0.6-2.3,1-2.2,1.9
					s0.8,1.5,1.8,1.9c0.2,0.1,1.4,0.3,1.8,0.3c0.3,0,0.6-0.1,0.9-0.2c0.2,0,0.5,0.1,0.7,0.1c1.9,0,4.3-1,6.1-1.7l0.6-0.2
					c0.2-0.1,0.3-0.1,0.5-0.2l0,0c0.1,0,0.2,0.1,0.2,0.1s0,0.2-0.1,0.3l-0.5,0.2c-1.4,0.6-4,2.8-4.8,3.8s-1.3,2,1.2,1.8
					c0.1,0.1,0.3,0.1,0.6,0.1c0.9,0,2.5-0.6,3.6-0.9c0.3-0.1,0.6-0.2,0.7-0.2l0,0c0.2,0,0.2,0.1,0.2,0.2s0,0.2-0.1,0.2
					c-0.2,0.1-0.5,0.1-0.8,0.3c-1.3,0.4-3.4,1.1-5,1.1c-1.1,0-1.7-0.3-2-1c-0.4-1.1,0.9-2.4,2-3.2l1.4-0.8c-1.6,0.4-4.5,1-5.7,1
					c-2,0-3.2-0.6-3.8-1.9c-0.6-1.4-0.1-2,0.3-2.3l0.6-0.5h-0.8c-0.3,0-0.6,0-0.8,0c-4,0-8-0.9-11.7-2.7c-0.1,0-0.1-0.2-0.1-0.2
					c0-0.1,0-0.1,0.1-0.2c1.8-0.4,3.6-0.7,5.7-1v-0.6c-2.7-0.3-4.9-1-6.8-2.1h-0.1h-0.1c-3.8,0.4-7.2,0.8-10.4,1.4l-0.6,0.1
					c-0.9,0.2-1.8,0.3-2.7,0.6c-1.2,0.4-1.7,0.8-1.7,1.3c0,0.7,0.8,1.1,2.1,1.8c2.9,1.5,6.7,2.2,11.3,2.2c1.3,0,2.7-0.1,4.2-0.2
					c1.4-0.2,2.6-0.3,3.7-0.5l0,0c0.1,0,0.1,0.1,0.1,0.2c0,0,0,0.2-0.1,0.2h-0.3c-1,0.1-1.9,0.3-2.8,0.3c-4.9,0.7-9.9,1.8-14.6,3.4
					l-0.8,0.3l0.8,0.3c4.4,1.4,9,2.1,13.5,2.1c4,0,8.1-0.6,12.1-1.7l0,0c0.1,0,0.2,0.1,0.2,0.2s0,0.1-0.1,0.1l-12.8,5.5l0.8,0.2
					c2.3,0.6,4.7,1,7,1c3.7,0,7.4-0.8,10.9-2.4h0.1c0.1,0,0.2,0.1,0.2,0.2c0,0,0,0.1-0.1,0.2c-1.6,1-2.8,1.9-3.8,2.9
					c-0.9,0.8-1.6,1.8-2.3,2.7l-0.1,0.2c0,0-1,2.1,1.7,1.7s0.1,0,0.1,0c0.1,0,0.2,0,0.4,0c1.8,0,4.8-2.3,6.6-3.6
					c0.3-0.2,0.5-0.4,0.7-0.5c0,0,0,0,0.1,0s0.1,0.1,0.2,0.1c0,0.1,0,0.2-0.1,0.2l-0.3,0.2C90.3,128.7,85.9,131.9,83.3,131.9z
					 M83.7,108.6C83.8,108.6,83.8,108.6,83.7,108.6c0.1,0.2,0.1,0.3-0.1,0.4c-4,0.4-8.1,1-12.2,1.8l-0.9,0.2l0.9,0.4
					c3.3,1.4,6.7,2.1,10.2,2.1c2.1,0,4.2-0.3,6.3-0.8H88c0,0,0.1,0,0.1,0.1s0,0.2,0,0.2l0.4,0.4l6.1-4.8l-1,0.2
					c-0.8,0.1-2.1,0.3-3.5,0.3l0,0c-2.2,0-3.7-0.4-4.4-1.1c-0.3-0.3-0.4-0.7-0.4-1.1c0-1,1-1.9,2.9-2.5l0.9-0.3l-0.9-0.3
					c-2.1-0.6-4-1.7-5.6-3.4c0,0-0.1-0.1-0.1-0.2s0.1-0.1,0.2-0.2c0.4-0.1,0.7-0.2,1-0.3l0.9-0.2l-0.8-0.3c-1.7-0.6-3.4-1.5-5.2-2.9
					l-0.1-0.1h-0.1c-1.8,0.1-3.3,0.1-4.6,0.1c-0.6,0-1.1,0-1.7,0h-0.5c-0.2,0-0.5,0-0.9,0c-1.6,0-2.9,0.1-3.3,0.5s-0.6,0.9-0.5,1.5
					c0.1,0.9,1,1.8,1.9,2.3c1.4,0.9,3.1,1.5,5,1.7c1.7-0.1,3.3-0.1,4.9-0.1c1.2,0,2.5,0,3.7-0.1l0,0c0.1,0,0.2,0,0.2,0.1
					s0,0.2-0.2,0.2c-1.9,0.2-3.7,0.4-5.5,0.4c-1,0-1.9,0-2.7-0.2h-0.7c-3.8,0.1-5.8,0.6-6.1,1.6c-0.2,0.6,0.3,1.3,1.4,2l0.1,0.1h0.4
					c0.1,0.1,0.1,0.1,0.1,0.2v0.2l0.2,0.1c2.4,1.3,5.3,2,9,2C79.8,109,81.5,108.9,83.7,108.6L83.7,108.6z M50.4,101.6
					c-1.6,0.3-2,0.4-2.8,0.8l-0.5,0.5l0.6,0.5c0.9,0.5,1.9,0.9,2.9,1.2c4.2,1.5,8.6,2.3,13.3,2.3c1.1,0,2.3,0,3.5-0.1l0.7-0.1
					l-0.6-0.4c-0.6-0.5-1.1-0.9-1.6-1.4c-0.1-0.1,0-0.2,0-0.3c1.1-1.4,2.6-1.7,4.4-1.9l0.1-0.5h-0.1c-1.9-0.7-4.9-2.5-4.9-4
					c0-0.6,0.4-1.1,1.2-1.5l0.9-0.4l-1-0.1c-6.1-0.7-10.6-2.4-14.4-5.4v-0.1v-0.3L51.7,90c-1.9-0.5-4-1.1-8.3-1.5h-0.1h-0.1
					c-0.2,0-0.4,0-0.6,0c-1,0-1.6,0.2-2,0.7c-0.3,0.4-0.4,1-0.3,1.7c0.1,0.5,1,1.2,2.3,2L43,93c2.7,1.7,5.8,2.6,9.1,2.6
					c0.2,0,0.3,0,0.5,0c1.6-0.2,2.9-0.4,4.1-0.5l0,0c0.1,0,0.1,0.1,0.1,0.1s0,0.2-0.1,0.2c-1.4,0.3-2.8,0.5-4.2,0.6
					c-2.1,0.3-4.2,0.8-6.2,1.3l-0.8,0.2l0.7,0.3c3.4,1.6,7.3,2.3,12.3,2.3c2.2,0,4.5-0.1,6.5-0.3l0,0c0.1,0,0.1,0,0.1,0.1
					c0,0,0,0.2-0.2,0.2l-9.6,0.8c-0.4,0-0.9,0.1-1.4,0.1c-0.9,0-1.9,0.1-2.8,0.3C51.2,101.4,50.5,101.6,50.4,101.6z M59.8,89.9
					c-0.7,0-1.4,0-2.1,0.1c-0.4,0-0.8,0-1.2,0c-1.4,0-3.4,0.4-3.4,0.7c-0.1,0.4,1,0.8,2,1.5c1.3,0.9,3,1.5,4.5,2
					c2.7,0.9,5.8,1.4,9.5,1.6c1.1-0.1,2.4-0.2,3.9-0.2s2.8,0.1,3.9,0.1l0.9,0.1L77,95.3c-0.9-0.7-1.8-1.5-3-2.5c0,0-0.1-0.1,0-0.1
					c0-0.1,0.1-0.2,0.2-0.2c0.7-0.1,1.5-0.1,2.4-0.2l0.1-0.6c-3.6-1.1-7-2.8-10-5.1c-0.1-0.1-0.1-0.2-0.1-0.3c0,0,0-0.1,0.1-0.1
					c0.4,0,0.9,0,1.3,0h0.5h1.3c-0.6-0.2-2.5-1-3.2-1.2c-0.2-0.1-0.5-0.2-0.8-0.3c-0.9-0.3-2.2-0.8-3.3-1.4L62.1,83v0.5
					c0,0,0,0.1-0.1,0.2c0,0-0.1,0.1-0.2,0.1c-2.5-1.1-4.6-2-6.5-2.7c-0.4-0.2-0.9-0.4-1.4-0.6c-1.3-0.6-2.8-1.3-4-1.3
					c-0.5-0.3-0.9-0.4-1.3-0.4c-0.3,0-0.4-0.4-1-0.5c-0.8,0-1.7,0.1-1.6,1.4l1.3,2.1l0.9,0.8c0.9,1.1,2.8,2.2,4.1,2.9l0.4,0.2
					c4.3,2.3,9,3.5,12.7,4.2c1.5,0.2,3.1,0.5,4.6,0.8c0.1,0,0.1,0,0.1,0.2c0,0.1-0.1,0.2-0.2,0.2c-1.9-0.3-3.4-0.6-4.7-0.9
					C63.4,90,61.6,89.9,59.8,89.9z M37,79.6c-0.1,0.2,0,0.3,0.1,0.4s0.3,0.4,0.6,1c0.3,0.5,0.7,1,1,1.5c0.2,0.2,0.3,0.5,0.5,0.7
					c1.3,1.9,2.5,3.6,4.3,4.8h0.1h0.1c3.6,0.3,7.8,1.4,8.7,1.7c0.1,0,0.1,0.1,0.1,0.2v0.3h0.3c2.4-0.4,4.8-0.6,7.2-0.6h0.2H62
					c-1.7-0.5-4.9-1.5-6.2-2.1c-4.9-2-8-4.2-9.5-6.5c-0.2-0.3-0.3-0.6-0.4-0.9l-0.1-0.2h-0.2c-0.5,0-1.1,0-1.8-0.1
					c-1.4-0.2-2.9-0.3-4.1-0.3c-0.7,0-1.2-0.3-1.6-0.1c-0.2,0.1-0.3,0.1-0.5,0.1c-0.1,0-0.1,0-0.2,0h-0.1L37,79.6L37,79.6z
					 M39.7,66.5c-0.1,0.3-0.4,0.3-0.5,0.7c-0.6,2.2,0.9,4,2.2,5c0.2,0.1,0.3,0.3,0.5,0.4c0.9,0.7,1.8,1.4,2.9,2.2
					c3.2,2.3,6.9,4.2,11,5.8c0.1,0,0.1,0.1,0.1,0.1v0.1H56c1.8,0.7,3.6,1.4,5.3,2.2l0.3-0.5c-0.7-0.6-1.1-1.2-1.1-1.8
					c0-1.4,1.1-2.1,3.2-2.1c0.8,0,1.9,0.1,3,0.3l1.2,0.5c-2.3-1.4-4-3.4-4.6-4.4l0.1,0h-0.1c-5.8-1.7-11.5-3.8-16.8-6.2
					c-1-0.5-2.1-1-3.1-1.5c-0.4-0.2-0.6-0.3-0.9-0.5C40.7,65.9,39.7,66.5,39.7,66.5z M59.6,62c5,5.3,10.7,10.5,17.9,12.9
					c0.7,0.2,1.4,0.4,2.1,0.6l0.9,0.3l-0.6-0.7c-1.3-1.5-2.2-3.2-2.8-5.1c0-0.1,0-0.1,0.1-0.2l0,0l0.5,0.1c1.9,0.2,3.7,0.7,5.4,1.3
					l0.3-0.5C77.8,65.9,73.2,60.4,69.8,54c-0.1-0.1,0-0.2,0.1-0.3l0.5-0.3l-0.5-0.2c-1.8-1-3.3-2.4-4.6-3.8c-0.3-0.3-0.7-0.7-1-1.1
					c-1.3-1.4-2.6-2.8-4.2-3.8c-0.6-0.3-2.9-1.5-4-1.5c-0.2,0-0.4,0-0.5,0.1c-0.7,0.5-0.1,1.4,0.2,2c0.1,0.1,0.1,0.2,0.2,0.3
					c2.6,4.8,6.2,8.9,10.7,12.2c2.5,1.6,4.6,2.8,6.6,4c0.1,0,0.1,0.1,0.1,0.2c0,0.1-0.1,0.2-0.2,0.2l0,0h-0.1
					c-2.4-1.1-4.7-2.5-6.8-4.1c-3.2-2.1-6.4-4.3-9.4-6.7l-0.2-0.1l-0.2,0.1c0,0,0,0-0.1,0l-0.2,0.1l0.1,0.2
					c1.3,6.1,6.5,9.7,10.3,11.9c3.8,1.5,7.4,3.4,10.9,5.5c0.1,0,0.1,0.1,0.1,0.1c0,0.1,0,0.1-0.1,0.2l-0.1,0.1l-0.3-0.2
					c-1.1-0.6-2.3-1.1-3.5-1.7c-2.3-1.1-4.6-2.2-6.9-3.5c-2.3-0.9-4.6-1.7-6.9-2.4L59,61.3L59.6,62z M41.7,60.6l0.5,0.3
					c0.4,0.2,0.8,0.4,1.2,0.6c0.1,0,0.1,0.1,0.1,0.1c0,0.1-0.1,0.2-0.2,0.2L42.6,62l0.5,0.4c0.3,0.2,0.7,0.4,1,0.6
					c0.3,0.2,0.6,0.4,0.8,0.5C50,67.2,56,71.3,62.7,74.1l0.4,0.2v-0.4c0-0.1,0-0.2,0-0.3c0.2-0.9,1-1.4,2.3-1.4c0.2,0,0.4,0,0.6,0
					c1.4,0.1,2.9,0.4,4.8,0.9l2.1,0.5c-5-2.8-11.2-7.7-14.6-12.5V61c0,0,0.1-0.1,0.2-0.1c1.4,0.4,2.7,0.8,4.2,1.3l1.7,0.6
					c-5.8-3.6-8-7.7-8.7-11.8v-0.1l-0.1-0.1c-3.5-3.2-6.6-6.1-9.5-9c-1.4-1.4-2.9-2.9-4.4-4.4c-0.1-0.1-0.3-0.3-0.5-0.5
					c-1.7-1.9-1.9-2.1-2.1-2.1c-0.3,0.1-0.6,0.2-0.8,0.7l-0.1,0.2l0.3,0.3c0.2,0.3,0.5,0.5,0.7,0.8c0.1,0.1,0.1,0.2,0,0.2
					c0,0.1-0.1,0.1-0.2,0.1l-0.2-0.2l-0.8-1l0.2,1c0.1,0.4,0.2,0.8,0.2,1c0.7,3.1,2.4,6,5,8.9l12.4,9.6c0,0,0.1,0.1,0,0.1
					c0,0.1-0.1,0.2-0.2,0.2c-3.9-2.4-8.3-5.3-11.8-9.2l-0.5-0.4l-4.8-3.7l0.2,0.8c0.1,0.5,0.3,0.9,0.4,1.4v0.1l0.1,0.1
					c1.7,1.4,3.5,2.7,5.3,4l3.6,2.5c0.1,0.1,0.1,0.2,0.1,0.2c0,0.1-0.1,0.1-0.1,0.1c-1.2-0.8-2.3-1.6-3.7-2.6l-4.8-3.4l0.4,0.9
					C42.2,53,45.9,57.6,50.7,61c3.3,1.6,6.6,3.1,9.8,4.4c0.2,0.1,0.1,0.2,0.1,0.2s0,0.1-0.1,0.1c-3.6-0.9-6.9-2.3-9.9-4.4L50.1,61
					c-0.3-0.2-0.6-0.3-0.9-0.5c-0.7-0.3-1.4-0.8-2.1-1.2c-1.3-0.8-2.7-1.6-4-2l-1.6-0.9L41.7,60.6z M9.4,48c-0.4,0-0.7,0.1-0.9,0.4
					c-0.2,0.4-0.1,1.1,0.4,2c0.8,1.5,2,2.8,3.8,4.4c9.4,8.1,20.5,14.6,29,19.3l1.8,0.7c-2.6-2-5.4-4.9-5.6-6.4
					c-0.1-0.8,0.2-1.4,0.8-2l0.2-0.3l-1.2-0.7c-4.1-2.6-8.2-5.2-12.2-8l-2.6-1.7c-0.9-0.6-1.8-1.2-2.7-1.8c-2.2-1.5-4.6-3-6.9-4.4
					C12.5,49,10.6,48,9.4,48z M40.8,65.6c0.6,0,1.6,0.7,2.5,1.2c0.4,0.3,0.8,0.5,1.1,0.6c2,1,4.1,1.9,6.1,2.7c2.5,1,5,2,7.9,2.9
					l2.4,0.6c-3.4-1.7-9.1-5-13.2-7.9c-0.4-0.3-0.9-0.6-1.4-0.9c-1.7-1.1-3.7-2.4-5-4l0,0h-0.1c-4.8-2.4-9.6-5.6-15-10.3
					c-1.7-1.4-3.5-2.9-5.2-4.5l-0.4-0.4c-2.7-2.5-5.5-5.1-8-7.8c-0.9-0.7-1.7-1-2.4-1c-1.2,0-1.9,0.4-2.2,1.1
					c-0.9,2.5,4.7,8.5,5.9,9.5c2.8,2.6,6,5.2,9.6,7.8c0.5,0.4,1.1,0.8,1.6,1.1l0.7,0.5c4.5,3,9.1,5.9,13.6,8.8l0.1,0.1l0.1-0.1
					c0.3-0.1,0.6-0.2,1-0.2C40.6,65.6,40.7,65.6,40.8,65.6z M11.4,27.9c-0.7,0-2.3,0.1-2.9,1s0.9,3.9,1,4.2c0.7,1.3,1.6,2.6,2.9,4.1
					c0.4,0.4,0.8,0.8,1.2,1.2s0.7,0.7,1,1c1.5,1.3,2.9,2.7,4.3,4l1,1c2.2,2,4.5,4.2,6.9,6.2C31,54,35.3,57,39.6,59.5l0.7,0.4
					L40,59.1c-0.4-1.2-0.2-2.3,0.7-3.4c0,0,0,0,0.1,0h0.1c1.7,1,3.6,2,5.7,3.2l0.3-0.5c-3.5-3.3-6.2-7.5-7.8-12v-0.1l-21-14.7
					c-0.5-0.3-0.9-0.7-1.4-1.1c-1.1-0.9-2.3-1.8-3.4-2.3C12.8,28,12.1,27.9,11.4,27.9z M72.6,51.1c1.3,2.7,3,5,5.2,7l0.1,0.1H78
					c1.2,0.1,2.4,0.3,3.5,0.5l0.8,0.2l-0.5-0.6c-0.7-0.8-1.1-1.7-1.2-2.9v-0.1l-0.1-0.1c-2.6-1.6-5-3-7.4-4.4l-0.8-0.4L72.6,51.1z
					 M14.6,17.9c6.4,10,14.3,19,23.5,26.7l0.7,0.6l-0.3-1.1c-0.1-0.4-0.2-0.8-0.3-1.2c0-0.1,0-0.1,0-0.2l0.1-0.1c0,0,0.1,0,0.2,0.1
					l2.5,2l0.4-0.4c-2.3-3.2-3.4-6-3.3-8.6v-0.1L38,35.5c-6.5-7.6-15-13.1-23.1-18.1L14.6,17.9z M98.6,94.3
					c-1.9-0.7-3.8-1.5-3.8-3.2v-0.2l0.1-0.3c0.1-0.3,0.2-0.6,0.3-0.8l0.3-0.4L95,89.3c-1.8-0.2-3-0.9-3.6-2.2
					c-0.6-1.2-0.5-2.4,0.3-3.4l0.3-0.4l-0.5-0.1c-0.3-0.1-0.7-0.1-1-0.3c0.2,0,0.5,0.1,0.7,0.1c0.4,0,0.8,0,1.3-0.1l0,0
					c0.2,0,0.2,0.1,0.3,0.2c0,0.1,0,0.1-0.1,0.2c-1.2,0.8-1.3,1.6-1.2,2.1c0.4,1.8,3.6,3.3,5.2,3.5c0.2,0,0.3,0,0.4,0h0.2
					c0.1,0,0.1,0,0.1,0.1s-0.1,0.2-0.2,0.2H97l-0.2,0.2c-0.7,1.4-0.8,2.4-0.4,3.2c0.4,0.7,1.1,1.1,2.3,1.2c0.1,0,0.1,0.2,0.1,0.2
					C98.7,94.2,98.7,94.3,98.6,94.3z"/>
			</g>
			<g>
				<path class="st3" d="M99.1,167.4c-0.1,0-0.2-0.1-0.2-0.2c0,0,0-0.2,0.2-0.2c1.5,0,2.8-0.2,4-0.6c0,0,3.8-1.3,4.2-2.6
					c0.1-0.3,0-0.6-0.2-0.8c0,0-0.1-0.1,0-0.2c0-0.1,0.1-0.1,0.2-0.1c0,0,0.1,0,0.1,0.1c0.5,0.5,0.6,1,0.4,1.5
					C106.9,166.1,100.7,167.4,99.1,167.4L99.1,167.4z"/>
			</g>
			<g>
				<path class="st3" d="M112.1,153.3c-0.1,0-0.2-0.1-0.2-0.1c0-0.1,0-0.1,0-0.2c1.2-1.2,1.6-2.4,1.3-3.5c-0.6-2.4-4.5-3.7-5.6-4
					c-0.1,0-0.1-0.1-0.1-0.1c0-0.1,0-0.2,0.1-0.2c2.2-1.7,3.5-3.9,3.9-6.8c0-0.1,0-0.1,0.1-0.1s0.2,0,0.2,0.1c0,0,0.1,0.1,0,0.2
					c-0.4,2.6-1.5,4.6-3.4,6.4l-0.4,0.3l0.5,0.2c2.7,0.9,4.5,2.1,5.2,3.5C114.6,150.7,113.3,152.1,112.1,153.3
					C112.2,153.3,112.1,153.3,112.1,153.3z"/>
			</g>
			<g>
				<path class="st3" d="M155.1,164.6l0.4,0.1h0.4c0.4,0,0.8,0.1,1.2,0.1l0,0c1.7,0,3.6-0.4,5.2-1c2.6-1.1,6.6-3.7,4.5-8.9
					c0-0.1-0.1-0.1-0.2-0.1c-0.1,0-0.2,0-0.2,0.1c0,0,0,0,0,0.1c0.7,1.7,0.7,3.3,0,4.7c-0.8,1.8-2.7,3.3-5.1,4.1
					c-1.2,0.4-2.4,0.6-3.6,0.7c-0.2,0-0.3,0-0.5,0c-2,0-3.5-0.7-5.1-1.5c-0.3-0.1-0.6-0.3-0.8-0.4
					C152.3,163.5,153.5,164.2,155.1,164.6z"/>
			</g>
			<g>
				<path class="st3" d="M151.2,162.1c-0.1-0.1-0.1-0.2-0.2-0.3c0-0.1,0-0.2,0-0.2l0.1-0.1h0.1h0.1l0.1,0.1c0.1,0,0.1,0.1,0.1,0.1
					c0,0.1-0.1,0.2-0.2,0.2L151.2,162.1z"/>
			</g>
			<g>
				<path class="st3" d="M129.6,166.9c-0.6,0-1.1-0.1-1.4-0.2c-1.6-0.7-1.8-1.8-2.1-3.1c-0.1-0.7-0.3-1.4-0.6-2.1
					c-0.8-1.8-2.4-2.4-3.9-2.9c-0.2-0.1-0.5-0.2-0.8-0.3c-0.7-0.3-1.6-0.6-2.2-0.6h-0.1c-1,0.1-2,0.8-3.1,1.6
					c-0.6,0.4-1.1,0.8-1.6,1c0,0,0,0-0.1,0c-0.2,0-0.2-0.1-0.3-0.2c0-0.1,0-0.1,0.1-0.1c0.6-0.3,1.2-0.8,1.8-1.3
					c0.8-0.7,1.7-1.5,2.5-1.5h0.1c1.3,0,3.9,1.1,5.1,1.6s1.9,1.1,2.4,1.9c0.3,0.5,0.4,0.9,0.4,1.4c0.1,0.3,0.1,0.7,0.2,1
					c0.1,1.8,1.4,3.1,3.9,3.7c0.2,0,0.3,0,0.4,0c1.2,0,2.2-0.6,3-1.8l0.2-0.2l-0.2-0.2c-0.1-0.1-0.1-0.2-0.1-0.2
					c0-0.1,0.1-0.1,0.1-0.1c0.5,0.4,1,0.8,0.9,1.2C134.1,166.3,131.6,166.9,129.6,166.9z"/>
			</g>
			<g>
				<path class="st3" d="M143.6,166.9c-0.2,0-0.4,0-0.5-0.1c-1-0.3-1.4-1.4-1-3.2c0-0.1,0-0.1,0.1-0.1s0.1,0,0.2,0.1
					c0,0,0,0.1,0,0.2c-0.2,1.1-0.1,1.8,0.2,2.3c0.2,0.3,0.5,0.4,0.9,0.4c0.2,0,0.3,0,0.5-0.1c1.2-0.3,1.8-0.9,2-1.8
					c0.1-0.6-0.1-1.2-0.4-1.6c-0.4-0.5-1-0.7-1.7-0.7c-0.6,0-1.2,0.2-1.6,0.5c0,0,0,0-0.1,0s-0.1-0.1-0.1-0.1c0-0.1,0-0.2,0.1-0.3
					c0.5-0.4,1.1-0.5,1.7-0.5c0.9,0,1.8,0.5,2.3,1.2c0.3,0.5,0.6,1.2,0.2,2.2C145.8,166.1,144.6,166.9,143.6,166.9z"/>
			</g>
			<g>
				<path class="st3" d="M96,154.9c0.1,0.9,0.3,1.6,0.5,2.3c0.4,1.3,0.8,2.4,0.1,4.3c-0.6,1.5-1.6,2.7-3.2,3.6h0.1l-0.9,0.5
					c-0.7,0.4-1.5,0.7-2.4,1c0.3,0,0.6,0,0.9,0c1,0,1.9,0.2,2.9,0.4c2.6-0.4,5.1-1.2,7.5-2.4c0.1,0,0.1-0.1,0.1-0.1
					c0-0.1-0.1-0.2-0.2-0.2c0,0,0,0-0.1,0c-1.2,0.6-2.4,1.1-3.7,1.5l-0.2-0.6c0.3-0.1,0.5-0.3,0.7-0.5c1.9-1.4,2.8-3.6,3.7-5.7
					c0.3-0.7,0.6-1.3,0.9-1.9c0-0.1,0-0.1,0-0.2c0-0.1-0.1-0.1-0.2-0.1c0,0-0.1,0-0.1,0.1c-0.3,0.6-0.6,1.2-0.8,1.9
					c-0.5,1.2-1,2.5-1.8,3.6l-0.1,0.1h-0.1l-3,1.5c-0.1,0-0.1,0.1-0.1,0.1c0,0.1,0.1,0.2,0.2,0.2c0,0,0,0,0.1,0l0.9-0.4l0.3,0.5
					c-1.2,0.9-2.8,1.6-4.9,2l-0.2-0.5c2.2-1.1,3.7-2.5,4.3-4c0.4-1.1,0.5-2.2,0.2-3.7c-0.1-0.6-0.2-1-0.3-1.3
					c-0.3-1.2-0.4-1.5,0.6-3.6s1.2-2.3,2.6-3.5l0.1-0.1c0.1-0.1,0.1-0.1,0-0.1c0-0.1-0.1-0.2-0.2-0.2h-0.1c-0.4,0.3-0.8,0.6-1.2,0.9
					C97.2,151.7,95.8,152.7,96,154.9z"/>
			</g>
			<g>
				<path class="st3" d="M92.4,165.1h0.2l-0.1-0.1c1.7-2.1,2.2-4.1,1.9-7.2c-0.1-0.7-0.2-1.4-0.3-2.1c-0.2-1-0.4-2.1-0.4-3.2
					c0-4,2.6-5.9,5.7-7.7c0,0,0.1-0.1,0.1-0.2c0-0.1-0.1-0.1-0.2-0.1c0,0,0,0-0.1,0c-2.7,1.6-5.2,3.3-5.8,6.3
					c-0.4,1.8,0,3.6,0.2,5.4c0.5,2.8,1,5.7-1.4,8.6c-0.1,0.1-0.1,0.1,0,0.2C92.3,165.1,92.4,165.1,92.4,165.1z"/>
			</g>
			<g>
				<path class="st3" d="M100.4,140.9c-0.3,1-0.2,1.9,0.4,2.7c0.3,0.5,3.1,1.5,3.4,1.5l-0.2,0.1v0.3l0.5-0.2c0.1,0.2,0,0.5-0.3,1.4
					c0.2-0.5,0.6-0.9,1.2-1.3c0,0,0-0.1,0-0.2c0-0.1-0.1-0.1-0.1-0.1c-0.5,0-1-0.1-1.5-0.3c-1.2-0.2-2-0.7-2.4-1.5
					c-0.5-1-0.5-2.3,0.2-4.1C101.1,139.6,100.6,140.2,100.4,140.9z"/>
			</g>
			<g>
				<path class="st3" d="M105.2,153c0.6,0.8,1.6,1.8,2.5,2.5h0.1l-0.2-0.3c-0.4-0.6-0.8-1.2-1.4-1.6c-0.8-0.5-1.3-1.1-1.5-1.8
					l-0.2-0.6l0.6,0.3c0.5,0.3,0.9,0.4,1.4,0.4c1.4,0,2.4-1.1,2.5-2.6c0-0.1-0.1-0.1-0.1-0.2c-0.7-0.2-1.4-0.2-2-0.2
					c-0.8,0-1.5,0.1-2,0.4l-0.2,0.1l-0.1-0.2c-0.7,0.3-0.7-1.3-0.6-1.9c0-0.1,0-0.2,0.1-0.3c-0.3,0.7-0.6,1.5-0.5,1.9
					c0.1,0.5,0.3,1,0.5,1.4v0.1v0.1C104.1,151.2,104.4,152.1,105.2,153z"/>
			</g>
			<g>
				<path class="st3" d="M111.7,160.6c0.2,0,0.3,0,0.4-0.1c0.2-0.2,0.2-0.5,0.2-1c0-0.1-0.1-0.2-0.1-0.2c-0.2,0-0.4,0-0.5,0
					c-0.6,0-1.1,0.1-1.5,0.4l-0.3,0.2l-0.2,0.2c-0.7,0.8-0.8,1.9-0.2,3c0.3,0.7,1.5,1.6,2.8,2.2l0.2,0.1l-0.1,0.2
					c-0.1,0.4-0.1,0.9,0,1.4l0.1,0.4c0,0-0.5,0-0.6,0l0.2,0.4c0,0-0.1,0.1-0.1,0.2c0,0.1,0.1,0.1,0.2,0.1c0,0,0,0,0.1,0l0.4-0.2
					l0.1,0.3c0.1,0.1,0.1,0.2,0.2,0.3c0.1,0,0.3-0.1,0.4-0.1c-0.4-0.6-0.5-1.4-0.4-2.3v-0.4l0.3,0.1c0.5,0.2,1,0.2,1.4,0.2
					c0.7,0,1.2-0.2,1.5-0.6c0.2-0.3,0.3-0.6,0.2-0.9c-0.2-0.4-0.9-0.6-1.6-0.6c-0.3,0-0.5,0-0.7,0.1c-0.3,0.1-0.7,0.3-0.9,0.5
					l-0.2,0.2l-0.2-0.3c-2.8,0.2-3.2-2.7-3.2-2.7l0.4-1.6l0.9,0.4C111.2,160.5,111.5,160.6,111.7,160.6z"/>
			</g>
			<g>
				<path class="st3" d="M104.8,140.6c0.6,0,1.3-0.2,2-0.5c0.1,0,0.1-0.1,0.1-0.1c0-0.1,0-0.1-0.1-0.2c-1-0.6-2.2-0.9-3.2-0.9
					c-0.4,0-0.8,0.1-1.2,0.2l-0.2,0.1l0.1,0.1C102.8,140.1,103.8,140.6,104.8,140.6z"/>
			</g>
			<g>
				<path class="st3" d="M109.7,159.6l0.2,0.2L109.7,159.6c-0.5-1.1-1-2-1.4-2.9c0-0.1,0-0.1-0.1-0.2l-0.1-0.2l-0.2-0.6v0.1
					c-0.2,0.6-0.2,1.2-0.1,1.6C108,157.9,108.8,158.9,109.7,159.6z"/>
			</g>
			<g>
				<path class="st3" d="M100.8,129.7l0.3,0.2l-0.2,0.3c-0.6,0.6-0.7,1.7-0.4,2.6c0.2,0.5,0.6,1.4,1.9,1.7l0.5,0.1l-0.4,0.4
					c-1.1,1.1-1.1,2.7-0.6,3.8v-0.1c-0.2-3.7,2.4-4.2,2.4-4.2l0.1-0.1h0.1l0.2-0.1l-0.2-0.2h-0.1l0,0l-0.2,0.1c0,0-3.5-0.1-3.4-2.6
					c0.3-1.5,2.1-1.2,2.1-1.2h0.4c0.1,0,0.1,0,0.2,0s0.1-0.1,0.1-0.1c0-0.1-0.1-0.2-0.2-0.3c-0.1,0-0.1,0-0.2-0.1c0,0,1,0.1-0.2-0.1
					c-3.3,0.5-3.9-4.7,0.3-2.5c0.4,0.1,0.4,0.5,0.4,0.5h0.1c0.1,0,0.2-0.1,0.2-0.2c0-0.4,0-0.8,0-1.2c0-0.4,0-0.7,0-1.1V125
					c0-0.3,0-0.7,0-1c0,0,0-0.7,0-1.3v-0.2h0.2c0.7-0.1,1.5-0.4,1.9-0.8c0,0,0.1-0.1,0-0.2c0-0.1,0-0.1-0.1-0.1
					c-0.4-0.2-0.7-0.3-1-0.3s-0.5,0.1-0.8,0.4l-0.3,0.3l-0.2-0.4l0.1,0.1h0.1l-0.4-0.3c0-0.1,0-0.1,0-0.1c0-0.1-0.1-0.1-0.2-0.1
					s-0.1,0-0.2,0.1c-0.4,0.6-0.6,1-0.5,1.3s0.5,0.3,0.7,0.4h0.3l-0.1,0.3c-0.2,1.3-0.2,2.9-0.1,3.8v0.5l-0.5-0.3
					c-0.5-0.4-1.1-0.6-1.7-0.6c-0.7,0-1.3,0.4-1.6,1.1C99.3,128.6,100.2,129.4,100.8,129.7z"/>
			</g>
			<g>
				<path class="st3" d="M102.7,119.4C102.7,119.4,102.8,119.4,102.7,119.4c0.6-0.5,1-0.8,1.4-1.1l0.2-0.2l0.1,0.2
					c0.2,0.3,0.4,0.6,0.6,0.9c0,0.1,0.1,0.1,0.2,0.1s0.2-0.1,0.2-0.1v-0.1c-0.2-0.3-0.4-0.6-0.6-0.9l-0.2-0.3l0.3-0.1
					c0.3-0.1,0.6-0.2,0.9-0.2c1,0,1.9,0.6,2.8,2c1,1.6,1.9,4.8,0.9,6.7c-0.2,0.4-0.7,0.8-1.1,1.1c-0.2,0.1-0.4,0.3-0.5,0.4
					c-1.9,1.8-2.9,3.7-3,5.8v0.2v0.5v0.2c0,0.1,0,0.1,0,0.2c0.2,2.1,1.3,3.3,3,3.3c1.4,0,3-0.8,4.2-2.1c0,0,0.1-0.1,0-0.2
					c0-0.1-0.1-0.1-0.2-0.1h-0.1c-0.4,0.7-1,1.1-1.6,1.1s-2.7,1-3.6,0.4s-0.9-1.9-1.3-2.6c-0.4-0.6-0.3-1.5,0.2-2.7
					c0.6-1.5,1.7-2.9,2.6-3.7c0.3-0.3,0.5-0.5,0.8-0.7c0.8-0.7,1.6-1.4,1.9-2.5c0.6-2.3-1.2-4.8-2.7-6.7c-0.3-0.5-0.7-0.9-1-1.3
					c0-0.1-0.1-0.1-0.2-0.1l0,0c-0.8,0.2-1.5,0.4-2.2,0.7l-0.3,0.1l-0.1-0.3c-0.3-0.8-0.3-1.5,0-2s0.8-0.9,1.6-1
					c0.3-0.1,0.7-0.1,1-0.2c0.2,0,0.5-0.1,0.7-0.1c0.3-0.1,0.6-0.1,1-0.3l0.3-0.1c0.2-0.1,0.4-0.2,0.6-0.2c0.3,0,0.6,0.1,0.8,0.8
					l0.1,0.2l-0.1,0.1c-0.1,0.1-0.1,0.1,0,0.1c0,0.1,0.1,0.2,0.2,0.2c0,0,0.1,0,0.1-0.1c0.3-0.3,0.3-0.6,0.3-0.8
					c-0.1-0.4-0.3-0.7-0.7-0.8c-0.1,0-0.3-0.1-0.4-0.1c-0.3,0-0.5,0.1-0.8,0.1c-0.8,0.2-1.5,0.4-2.4,0.5c-1,0.2-2.2,0.5-2.6,1.5
					c-0.3,0.7-0.2,1.4,0.2,2.3l0.1,0.2l-0.2,0.1c-0.6,0.3-1.1,0.7-1.5,1.1c-0.1,0.1-0.1,0.1,0,0.1
					C102.5,119.3,102.6,119.4,102.7,119.4z"/>
			</g>
			<g>
				<rect x="166.4" y="67.7" class="st0" width="3.2" height="101.9"/>
			</g>
			<g>
				<rect x="67.5" y="165.6" class="st0" width="101.9" height="3.2"/>
			</g>
			<g>
				<polygon class="st3" points="94.1,165.9 3.7,165.9 3.7,3.2 166.3,3.2 166.3,71.3 165.8,71.3 165.8,3.7 4.2,3.7 4.2,165.4 
					94.1,165.4 				"/>
			</g>
			<g>
				<path class="st0" d="M113,165.5c0,0,0.3-1.2,1.5-1.5c1.2-0.2,1.3,0.4,1.3,1c0,0.5-0.8,1.4-0.8,1.4L113,165.5z"/>
			</g>
			<g>
				<path class="st0" d="M104,148.8c0,0,0.2,1.4,1.1,1.8s1.2,0.9,2,0.4s1.4-1,1.4-1.5s-2.6-0.3-3.1,0S105,150,105,150l-0.5-1.2H104z
					"/>
			</g>
			<g>
				<path class="st0" d="M101.9,139.8c0,0,1-0.6,1.6-0.6s2.5,0.4,2.4,0.6s-1.1,0.4-2,0.3c-0.9-0.1-1.8,0.2-1.8,0.2L101.9,139.8z"/>
			</g>
		</g>
		<g>
			<path class="st4" d="M169.1,0.9v168.2H0.9V0.9H169.1 M170.1-0.1H-0.1v170.2h170.2L170.1-0.1L170.1-0.1z"/>
		</g>
	</g>
	<g>
		<g>
			<path class="st5" d="M35.5,148c0,2.8-1.7,5.9-7,5.9h-4.8v5.6c0,0.7-0.6,1.2-1.2,1.2c-0.7,0-1.2-0.5-1.2-1.2v-16.2
				c0-0.7,0.5-1.2,1.2-1.2h6C33.8,142.1,35.5,145.2,35.5,148z M33.1,148c0-1.7-1-3.6-4.9-3.6h-4.6v7.2h4.6
				C32.1,151.6,33.1,149.7,33.1,148z"/>
			<path class="st0" d="M22.4,164.7c-2.9,0-5.2-2.3-5.2-5.2v-16.2c0-2.9,2.3-5.2,5.2-5.2h6c7.6,0,11,5,11,9.9s-3.4,9.9-11,9.9h-0.8
				v1.6C27.6,162.4,25.3,164.7,22.4,164.7z M29.5,147.4L29.5,147.4z"/>
		</g>
		<g>
			<path class="st5" d="M52.9,159.5c0,0.7-0.4,1.2-1.2,1.2c-0.5,0-0.9-0.3-1.1-0.7l-1.7-4.1h-9l-1.7,4.1c-0.2,0.5-0.6,0.7-1.1,0.7
				c-0.7,0-1.2-0.5-1.2-1.2c0-0.2,0.1-0.3,0.1-0.5l6.7-15.9c0.2-0.6,0.7-1.1,1.5-1.1h0.3c0.8,0,1.3,0.5,1.5,1.1l6.7,15.9
				C52.9,159.2,52.9,159.3,52.9,159.5z M47.9,153.6l-3.6-8.6l-3.6,8.6H47.9z"/>
			<path class="st0" d="M51.7,164.7c-2.1,0-3.9-1.2-4.8-3.1l-0.7-1.7h-3.6l-0.7,1.7c-0.9,2-2.7,3.2-4.8,3.2c-2.9,0-5.2-2.3-5.2-5.2
				c0-0.7,0.2-1.4,0.5-2.1l6.7-15.9c0.7-1.7,2.2-3,3.9-3.4l1.5-3.5l1.5,3.5c1.7,0.4,3.1,1.6,3.9,3.3l6.7,15.9
				c0.3,0.7,0.4,1.4,0.4,2.1C56.9,162.4,54.6,164.7,51.7,164.7z M49.1,160.5L49.1,160.5L49.1,160.5z M39.7,160.5L39.7,160.5
				L39.7,160.5z"/>
		</g>
		<g>
			<path class="st5" d="M68.4,159.4c0,0.7-0.6,1.2-1.2,1.2h-9.4c-0.9,0-1.7-0.7-1.7-1.7v-15.7c0-0.7,0.5-1.2,1.2-1.2
				s1.2,0.6,1.2,1.2v14.9h8.6C67.8,158.1,68.4,158.7,68.4,159.4z"/>
			<path class="st0" d="M67.2,164.6h-9.4c-3.1,0-5.7-2.5-5.7-5.7v-15.7c0-2.9,2.3-5.2,5.2-5.2s5.2,2.3,5.2,5.2v10.9h4.6
				c2.9,0,5.2,2.3,5.2,5.2C72.4,162.2,70,164.6,67.2,164.6z"/>
		</g>
		<g>
			<path class="st5" d="M84.2,159.4c0,0.6-0.5,1.1-1.1,1.1H72.5c-0.7,0-1.2-0.5-1.2-1.2v-16c0-0.7,0.5-1.2,1.2-1.2h10.6
				c0.6,0,1.1,0.5,1.1,1.1s-0.5,1.1-1.1,1.1h-9.4v5.8h8.4c0.6,0,1.1,0.5,1.1,1.1s-0.5,1.1-1.1,1.1h-8.4v5.9h9.4
				C83.7,158.3,84.2,158.8,84.2,159.4z"/>
			<path class="st0" d="M83.1,164.6H72.5c-2.9,0-5.2-2.3-5.2-5.2v-16c0-2.9,2.3-5.2,5.2-5.2h10.6c2.8,0,5.1,2.3,5.1,5.1
				c0,1.9-1,3.5-2.5,4.4c1,0.9,1.6,2.2,1.6,3.7s-0.6,2.8-1.6,3.7c1.5,0.9,2.5,2.5,2.5,4.4C88.2,162.3,85.9,164.6,83.1,164.6z"/>
		</g>
		<g>
			<path class="st5" d="M102.5,159.5c0,0.7-0.5,1.2-1.2,1.2s-1.2-0.5-1.2-1.2v-0.8c0-1.7-0.1-5.3-4.1-5.3h-5.5v6.1
				c0,0.7-0.6,1.2-1.2,1.2c-0.7,0-1.2-0.5-1.2-1.2v-16.2c0-0.7,0.5-1.2,1.2-1.2h6.2c5,0,7.2,2.3,7.2,5.4c0,2-1.1,4-3.5,4.8
				c2.9,0.8,3.3,4.5,3.3,6C102.5,158.3,102.5,159.5,102.5,159.5z M100.3,147.7c0-2-1.2-3.3-5.1-3.3h-4.6v6.7h4.8
				C98.3,151.1,100.3,149.9,100.3,147.7z"/>
			<path class="st0" d="M101.4,164.7c-2.9,0-5.2-2.3-5.2-5.2v-0.8c0-0.7,0-1.1-0.1-1.3l0,0h-1.5v2.1c0,2.9-2.3,5.2-5.2,5.2
				c-2.9,0-5.2-2.3-5.2-5.2v-16.2c0-2.9,2.3-5.2,5.2-5.2h6.2c8.3,0,11.2,5,11.2,9.4c0,1.8-0.5,3.5-1.5,5c0.8,1.6,1.3,3.6,1.3,5.8
				v1.2C106.5,162.4,104.2,164.7,101.4,164.7z"/>
		</g>
		<g>
			<path class="st5" d="M127.4,143.7v15.8c0,0.7-0.5,1.2-1.2,1.2s-1.2-0.5-1.2-1.2v-15l-6.1,15.1c-0.3,0.7-0.9,1.1-1.7,1.1
				s-1.4-0.4-1.7-1.1l-6.1-15.1v15c0,0.7-0.6,1.2-1.2,1.2c-0.7,0-1.2-0.5-1.2-1.2v-15.8c0-1,0.8-1.7,1.7-1.7h0.9
				c0.7,0,1.3,0.5,1.6,1.1l6,14.9l6-14.9c0.3-0.6,0.9-1.1,1.6-1.1h0.9C126.6,142,127.4,142.8,127.4,143.7z"/>
			<path class="st0" d="M117.2,168.8l-1.8-4.4c-1.2-0.4-2.2-1.1-2.9-2c-0.9,1.4-2.5,2.3-4.3,2.3c-2.9,0-5.2-2.3-5.2-5.2v-15.8
				c0-1.9,0.9-3.6,2.4-4.7v-15.1l5.8,14.3c1.6,0.5,3,1.7,3.7,3.3l2.3,5.7l2.3-5.7c0.7-1.7,2.1-2.9,3.7-3.4L129,124v15.1
				c1.5,1,2.4,2.8,2.4,4.7v15.8c0,2.9-2.3,5.2-5.2,5.2c-1.8,0-3.4-0.9-4.3-2.3c-0.7,1-1.8,1.7-2.9,2L117.2,168.8z"/>
		</g>
		<g>
			<path class="st5" d="M149.9,151.3c-0.1,5.5-3.6,9.5-9.3,9.5c-5.6,0-9.2-4-9.3-9.5c0.1-5.5,3.6-9.5,9.3-9.5
				C146.3,141.9,149.8,145.8,149.9,151.3z M147.5,151.3c0-4.1-2.5-7.2-6.9-7.2s-6.9,3.2-6.9,7.2s2.5,7.2,6.9,7.2
				C145,158.6,147.5,155.4,147.5,151.3z"/>
			<path class="st0" d="M140.6,164.8c-7.7,0-13.1-5.5-13.3-13.4v-0.1v-0.1c0.2-7.9,5.6-13.4,13.3-13.4s13.1,5.5,13.3,13.4v0.1v0.1
				C153.8,159.3,148.3,164.8,140.6,164.8z M140.6,148.1c-1.9,0-2.9,1.1-2.9,3.2c0,2.1,1,3.2,2.9,3.2c2.4,0,2.9-1.8,2.9-3.2
				S143,148.1,140.6,148.1z"/>
		</g>
	</g>
	<g>
		<g>
			<path class="st5" d="M35.5,148c0,2.8-1.7,5.9-7,5.9h-4.8v5.6c0,0.7-0.6,1.2-1.2,1.2c-0.7,0-1.2-0.5-1.2-1.2v-16.2
				c0-0.7,0.5-1.2,1.2-1.2h6C33.8,142.1,35.5,145.2,35.5,148z M33.1,148c0-1.7-1-3.6-4.9-3.6h-4.6v7.2h4.6
				C32.1,151.6,33.1,149.7,33.1,148z"/>
		</g>
		<g>
			<path class="st5" d="M52.9,159.5c0,0.7-0.4,1.2-1.2,1.2c-0.5,0-0.9-0.3-1.1-0.7l-1.7-4.1h-9l-1.7,4.1c-0.2,0.5-0.6,0.7-1.1,0.7
				c-0.7,0-1.2-0.5-1.2-1.2c0-0.2,0.1-0.3,0.1-0.5l6.7-15.9c0.2-0.6,0.7-1.1,1.5-1.1h0.3c0.8,0,1.3,0.5,1.5,1.1l6.7,15.9
				C52.9,159.2,52.9,159.3,52.9,159.5z M47.9,153.6l-3.6-8.6l-3.6,8.6H47.9z"/>
		</g>
		<g>
			<path class="st5" d="M68.4,159.4c0,0.7-0.6,1.2-1.2,1.2h-9.4c-0.9,0-1.7-0.7-1.7-1.7v-15.7c0-0.7,0.5-1.2,1.2-1.2
				s1.2,0.6,1.2,1.2v14.9h8.6C67.8,158.1,68.4,158.7,68.4,159.4z"/>
		</g>
		<g>
			<path class="st5" d="M84.2,159.4c0,0.6-0.5,1.1-1.1,1.1H72.5c-0.7,0-1.2-0.5-1.2-1.2v-16c0-0.7,0.5-1.2,1.2-1.2h10.6
				c0.6,0,1.1,0.5,1.1,1.1s-0.5,1.1-1.1,1.1h-9.4v5.8h8.4c0.6,0,1.1,0.5,1.1,1.1s-0.5,1.1-1.1,1.1h-8.4v5.9h9.4
				C83.7,158.3,84.2,158.8,84.2,159.4z"/>
		</g>
		<g>
			<path class="st5" d="M102.5,159.5c0,0.7-0.5,1.2-1.2,1.2s-1.2-0.5-1.2-1.2v-0.8c0-1.7-0.1-5.3-4.1-5.3h-5.5v6.1
				c0,0.7-0.6,1.2-1.2,1.2c-0.7,0-1.2-0.5-1.2-1.2v-16.2c0-0.7,0.5-1.2,1.2-1.2h6.2c5,0,7.2,2.3,7.2,5.4c0,2-1.1,4-3.5,4.8
				c2.9,0.8,3.3,4.5,3.3,6C102.5,158.3,102.5,159.5,102.5,159.5z M100.3,147.7c0-2-1.2-3.3-5.1-3.3h-4.6v6.7h4.8
				C98.3,151.1,100.3,149.9,100.3,147.7z"/>
		</g>
		<g>
			<path class="st5" d="M127.4,143.7v15.8c0,0.7-0.5,1.2-1.2,1.2s-1.2-0.5-1.2-1.2v-15l-6.1,15.1c-0.3,0.7-0.9,1.1-1.7,1.1
				s-1.4-0.4-1.7-1.1l-6.1-15.1v15c0,0.7-0.6,1.2-1.2,1.2c-0.7,0-1.2-0.5-1.2-1.2v-15.8c0-1,0.8-1.7,1.7-1.7h0.9
				c0.7,0,1.3,0.5,1.6,1.1l6,14.9l6-14.9c0.3-0.6,0.9-1.1,1.6-1.1h0.9C126.6,142,127.4,142.8,127.4,143.7z"/>
		</g>
		<g>
			<path class="st5" d="M149.9,151.3c-0.1,5.5-3.6,9.5-9.3,9.5c-5.6,0-9.2-4-9.3-9.5c0.1-5.5,3.6-9.5,9.3-9.5
				C146.3,141.9,149.8,145.8,149.9,151.3z M147.5,151.3c0-4.1-2.5-7.2-6.9-7.2s-6.9,3.2-6.9,7.2s2.5,7.2,6.9,7.2
				C145,158.6,147.5,155.4,147.5,151.3z"/>
		</g>
	</g>
</g>
</svg>
