<?xml version="1.0" encoding="utf-8"?>
<!-- Generator: Adobe Illustrator 21.1.0, SVG Export Plug-In . SVG Version: 6.00 Build 0)  -->
<svg version="1.1" id="Livello_1" xmlns="http://www.w3.org/2000/svg" xmlns:xlink="http://www.w3.org/1999/xlink" x="0px" y="0px"
	 viewBox="0 0 170 170" style="enable-background:new 0 0 170 170;" xml:space="preserve">
<style type="text/css">
	.st0{fill:#FFFFFF;}
	.st1{opacity:0.4;}
	.st2{opacity:0.5;}
	.st3{fill:#1D1D1B;}
	.st4{fill:#E20613;}
	.st5{fill:#868686;}
	.st6{fill:#E01F21;}
</style>
<rect class="st0" width="170" height="170"/>
<g>
	<g>
		<g>
			<g class="st1">
				<g>
					<g>
						<g>
							<path d="M94.3,71.5l-0.5-0.1c0-0.1,3-10.2,0-14.9l0.4-0.3C97.4,61.1,94.5,71,94.3,71.5z"/>
						</g>
					</g>
					<g>
						<g>
							<path d="M84,59.9c-0.1,0-0.2,0-0.3-0.1c-0.1-0.1-0.1-0.3-0.1-0.6c0-0.2,0-0.6-0.2-0.9c-0.4-1.1,0.7-1.8,2.9-3.2h0.1
								c2.3-1.4,6.6-1.6,7.9,0.1c0.4,0.5,0.5,0.8,0.3,1.1c-0.5,0.8-2.7,0.3-3.1,0.2l0,0c0,0-0.9-0.2-3.2,0c-1.6,0.1-2.4,1.3-3,2.2
								c-0.3,0.4-0.5,0.8-0.8,1C84.4,59.8,84.2,59.9,84,59.9z M90.9,54.5c-1.5,0-3.1,0.4-4.2,1.1h-0.1c-2.2,1.4-3,1.9-2.7,2.6
								c0.1,0.4,0.2,0.8,0.2,1c0,0.1,0,0.2,0,0.2s0.1,0,0.2-0.1c0.2-0.1,0.4-0.5,0.7-0.8c0.6-1,1.5-2.3,3.3-2.4c2.4-0.2,3.3,0,3.4,0
								c1.3,0.3,2.4,0.3,2.6,0c0.1-0.1,0-0.3-0.2-0.6C93.4,54.8,92.2,54.5,90.9,54.5z"/>
						</g>
					</g>
					<g>
						<g>
							<path d="M89.2,85.3l-0.5-0.1c0.2-1-1.7-5.6-3.1-8c-1.3-2.3-0.5-7.8-0.2-9.7c0-0.2,0-0.3,0.1-0.4c0.4-2.9-0.1-3.4-0.4-3.5
								c-1.1-0.3-1.7-3-1.8-3.3l0.5-0.1c0.2,1,0.8,2.7,1.4,2.9c1.1,0.3,0.9,2.5,0.7,4c0,0.1,0,0.2-0.1,0.4c-0.7,4.8-0.7,7.9,0.2,9.3
								C87.4,79.3,89.4,84.1,89.2,85.3z"/>
						</g>
					</g>
					<g class="st2">
						<g>
							<path d="M88.8,66.3c-0.8,0-1.7-0.1-2.6-0.4l0.1-0.4c4.3,1.3,7.3-1.1,8.1-1.9l-0.1-0.1c-1.3-0.9-5.4-3.5-8.1,0.2l-0.4-0.3
								c2-2.7,4.8-3.6,8.8-0.3c0.1,0.1,0.3,0.2,0.3,0.2h0.5L95,63.7C95,63.7,92.6,66.3,88.8,66.3z"/>
						</g>
					</g>
					<g>
						<g>
							<path d="M89.3,66.3c-1.3,0-2.4-1.1-2.4-2.4c0-1.3,1.1-2.4,2.4-2.4s2.4,1.1,2.4,2.4C91.7,65.2,90.6,66.3,89.3,66.3z M89.3,62
								c-1.1,0-2,0.9-2,1.9c0,1.1,0.9,1.9,2,1.9s2-0.9,2-1.9C91.3,62.8,90.4,62,89.3,62z"/>
						</g>
					</g>
					<g>
						<g>
							<path d="M110,61.9c-1.3,0-2.4-1.1-2.4-2.4c0-1.3,1.1-2.4,2.4-2.4s2.4,1.1,2.4,2.4C112.5,60.8,111.4,61.9,110,61.9z M110,57.6
								c-1.1,0-2,0.9-2,1.9c0,1.1,0.9,1.9,2,1.9s2-0.9,2-1.9C112,58.4,111.1,57.6,110,57.6z"/>
						</g>
					</g>
					<g>
						<g>
							<path d="M101.7,55c-0.5,0-0.9-0.1-1.1-0.4c-0.1-0.1-0.3-0.5-0.1-1l0,0c1-2.1,4.6-2.6,6.8-2.9c2.1-0.3,7.8-0.1,11.3,2.1
								l1.2,0.8l-1.4-0.4c-7-1.8-10.1-0.5-12.6,0.6c-0.6,0.2-1.1,0.5-1.6,0.6C103.4,54.7,102.5,55,101.7,55z M101,53.8
								c-0.1,0.2-0.1,0.4,0,0.5c0.2,0.3,1.2,0.3,3.1-0.3c0.5-0.2,1-0.4,1.6-0.6c2.3-1,5.1-2.2,11-1c-3.2-1.3-7.4-1.5-9.3-1.2
								C105.5,51.4,101.9,51.9,101,53.8L101,53.8z"/>
						</g>
					</g>
					<g class="st2">
						<g>
							<path d="M111.4,62.3c-3.3,0-8.4-1-8.7-1.1l-0.3-0.1l0.1-0.3c0.1-0.2,1.8-4.6,8.1-4.7c6.3-0.1,8,4,8.1,4.2l0.2,0.3h-0.3
								c0,0-2.9,0.2-4.8,1.2C113.2,62.2,112.4,62.3,111.4,62.3z M103.1,60.8c1.6,0.3,8.6,1.6,10.4,0.7c1.6-0.8,3.8-1.2,4.6-1.2
								c-0.6-0.8-2.6-3.1-7.5-3.1C105.6,57.3,103.6,59.9,103.1,60.8z"/>
						</g>
					</g>
					<g>
						<g>
							<path d="M96.7,79.4c-1,0-1.6-0.5-1.9-0.7c-0.6,0.5-1.8,0.9-2.8-0.1c-1.4-1.4,0.2-3.5,0.3-3.6l0.4,0.3c0,0-1.4,1.9-0.3,3
								s2.3,0,2.3,0l0.2-0.2l0.2,0.2c0,0,1.1,1.1,2.8,0.5c0.5-0.2,1-0.5,1.4-0.7c1.2-0.7,2.4-1.4,4.8-0.5c0.6,0.2,1,0.2,1.3,0
								c0.4-0.4,0.5-1.4,0.2-2.6c-0.3-1-0.8-1.7-1.1-1.8l0.1-0.5c0.7,0.1,1.2,1.2,1.4,2.1c0.3,1.1,0.4,2.5-0.3,3.1
								c-0.4,0.4-1,0.4-1.7,0.1c-2.2-0.9-3.2-0.3-4.4,0.4c-0.6,0.3-1,0.6-1.6,0.8C97.5,79.3,97.1,79.4,96.7,79.4z"/>
						</g>
					</g>
					<g>
						<g>
							<path d="M113.7,99.4l-0.4-0.2c2.2-3.7,2.1-5,1.3-7.6c-0.6-1.9-0.1-2.6,0.3-3.4c0.2-0.3,0.4-0.6,0.5-1c0.4-1.4,1.2-4.1-2-6.7
								c-3.1-2.6-7.2-3.4-7.2-3.4l0.1-0.5c0.2,0,4.2,0.8,7.4,3.5c3.4,2.8,2.5,5.7,2.1,7.2c-0.1,0.5-0.3,0.8-0.5,1.1
								c-0.4,0.7-0.8,1.3-0.3,3.1C115.9,94.2,116,95.6,113.7,99.4z"/>
						</g>
					</g>
					<g class="st2">
						<g>
							<path d="M112.7,92.3c-0.8-1.2-0.6-2.9,0.3-5.9c0.8-2.8-0.8-4.1-0.8-4.1l0.3-0.4c0.1,0.1,1.9,1.5,1,4.6
								c-0.8,2.9-1.1,4.5-0.4,5.5L112.7,92.3z"/>
						</g>
					</g>
					<g>
						<g>
							<path d="M91.9,98.7h-0.5c0-1.1-0.1-1.4-0.5-2.5c-0.2-0.5-0.5-1.2-0.8-2.3c-1.3-4-2.1-9.9,0-13.5c1.3-1.6,4.9-1.9,5.1-2v0.5
								c0,0-3.6,0.3-4.7,1.8c-2.1,3.4-1.3,9.2,0,13.1c0.3,1,0.6,1.7,0.8,2.2C91.8,97.1,91.9,97.5,91.9,98.7z"/>
						</g>
					</g>
					<g>
						<g>
							<path d="M91.9,87.3c-0.9-1-0.2-4.4-0.1-4.8l0.5,0.1c-0.2,1-0.7,3.7-0.1,4.3L91.9,87.3z"/>
						</g>
					</g>
					<g class="st2">
						<g>
							<path d="M93.5,85.5l-0.4-0.3c0.6-0.7,0.5-3,0.4-3.8l0.5-0.1C94,81.4,94.3,84.4,93.5,85.5z"/>
						</g>
					</g>
					<g class="st2">
						<g>
							<path d="M93.2,98.7l-0.5-0.1c0.7-3.6-1.9-8.9-1.9-8.9l0.4-0.2C91.4,89.7,94,95,93.2,98.7z"/>
						</g>
					</g>
					<g>
						<g>
							<path d="M93.4,92.5h-0.5c0-1.4-0.3-3.8-0.3-3.8l0.5-0.1C93.1,88.8,93.4,91.1,93.4,92.5z"/>
						</g>
					</g>
					<g>
						<g>
							<path d="M94.7,96.6l-0.5-0.1c0.5-2.5,0-5.4-0.4-7.5c-0.1-0.7-0.2-1.3-0.3-1.8c0-0.4,0-0.8,0.3-1c0.4-0.4,1-0.5,1.6-0.5
								c0.4,0,0.9,0,1.2-0.2c0.5-0.3,1.1-1.4,1.2-2.6c0-0.7-0.2-1.6-1.2-2.3l0.3-0.4c1.2,0.8,1.4,1.9,1.4,2.7c0,1.3-0.7,2.6-1.4,3
								c-0.4,0.2-0.9,0.3-1.4,0.3s-1.1,0.1-1.3,0.3c-0.1,0.1-0.2,0.4-0.1,0.6c0,0.4,0.1,1.1,0.3,1.8C94.7,91,95.2,94,94.7,96.6z"/>
						</g>
					</g>
					<g>
						<g>
							<path d="M110.7,97.1h-0.5c0.2-1.9-0.6-4.6-2-8.5c-1.4-3.8-1.6-4.5-6.2-4.2c-1.3,0.1-2.2-0.3-2.8-1c-1.1-1.5-0.2-4.2-0.1-4.3
								l0.4,0.2c0,0-0.9,2.5,0.1,3.8c0.4,0.6,1.3,0.9,2.4,0.8c4.7-0.3,5.2,0.5,6.6,4.5C110.1,92.5,110.9,95.1,110.7,97.1z"/>
						</g>
					</g>
					<g>
						<g>
							<path d="M111.9,94.3c-0.1-0.1-1.8-2.1-1.6-7.2c0.2-4.8-1.2-6-1.2-6l0.3-0.4c0.1,0.1,1.6,1.3,1.4,6.4
								c-0.2,4.9,1.5,6.8,1.5,6.8L111.9,94.3z"/>
						</g>
					</g>
					<g>
						<g>
							<path d="M102.9,82.3c-0.8-0.8-0.1-2.9-0.1-3.2l0.4,0.1c-0.3,0.8-0.5,2.3-0.1,2.7L102.9,82.3z"/>
						</g>
					</g>
					<g class="st2">
						<g>
							<path d="M106.1,82.8c-2.3-1.7-1.1-4.1-1.1-4.2l0.4,0.2c0,0.1-1.1,2.1,0.9,3.6L106.1,82.8z"/>
						</g>
					</g>
					<g class="st2">
						<g>
							<path d="M97,87c-0.4,0-0.8-0.1-1-0.2c-0.6-0.3-0.7-0.8-0.7-0.8l0.5-0.1c0,0,0.1,0.3,0.4,0.5c0.4,0.2,1.1,0.3,2.6-0.2
								c0.3-0.1,0.7-0.3,1-0.4c2.5-1,4.1-1.6,5.3-0.6l-0.3,0.4c-1.1-0.8-2.4-0.3-4.9,0.7c-0.3,0.1-0.6,0.2-1,0.4
								C98.2,86.9,97.5,87,97,87z"/>
						</g>
					</g>
					<g class="st2">
						<g>
							<path d="M97.5,91.6c-2.6,0-3.6-2.5-3.6-2.5l0.4-0.2c0,0.1,1,2.6,3.7,2.2c1.4-0.2,2.1-0.7,2.7-1.1c0.7-0.5,1.3-0.8,2.4-0.6
								c1.8,0.3,4.5-2.4,4.6-2.4l0.3,0.3c-0.1,0.1-2.9,2.9-5,2.5c-0.9-0.2-1.4,0.1-2,0.6c-0.6,0.4-1.5,1-2.9,1.2
								C97.9,91.6,97.7,91.6,97.5,91.6z"/>
						</g>
					</g>
					<g>
						<g>
							<path d="M86.7,86.1c-0.2,0-0.4-0.1-0.5-0.2c-0.4-0.5-0.3-1.5-0.2-2.7c0.1-0.6,0.1-1.3,0.1-1.8c0-0.6-0.4-1-0.8-1.4
								c-0.5-0.6-1.2-1.4-1.5-3c-0.2-1.2-0.1-2.4,0-3.6c0.1-1.6,0.2-3.1-0.4-3.8c-1.3-1.4-1.9-3.4-1.4-4.8l0.4,0.1
								c-0.4,1.2,0.1,3,1.3,4.3c0.8,0.9,0.7,2.4,0.6,4.2c-0.1,1.2-0.2,2.4,0,3.5c0.2,1.5,0.8,2.2,1.3,2.8c0.4,0.5,0.8,0.9,0.9,1.7
								c0,0.6,0,1.2-0.1,1.9c-0.1,0.9-0.2,2,0.1,2.3c0,0,0.1,0.1,0.2,0.1c0.9,0,1.6-1.3,1.8-1.8L89,84C89,84.1,88.1,86,86.7,86.1
								L86.7,86.1z"/>
						</g>
					</g>
					<g>
						<g>
							<path d="M85.8,66.9c0,0-3.7-0.3-5.1-4.2c-1.3-3.6,0.1-5.3,0.4-5.6l0.7-2.5c0-0.5,0.1-4.5,3.2-6.2c3-1.7,3.8-2.8,3.8-2.8
								l0.4,0.3c0,0-0.9,1.2-4,2.9c-2.9,1.7-2.9,5.8-2.9,5.8l0,0l-0.8,2.7h-0.1c-0.1,0.1-1.7,1.6-0.4,5.1c1.3,3.6,4.7,3.8,4.7,3.9
								L85.8,66.9z"/>
						</g>
					</g>
					<g>
						<g>
							<path d="M87.9,49.6c-0.2,0-0.3-0.1-0.4-0.2c-0.1-0.2,0-0.4,0.3-0.8c0.4-0.6,1.1-1.6,1.3-3.3h0.5c-0.1,1.8-0.9,2.9-1.4,3.5
								c0,0.1-0.1,0.1-0.1,0.2c0.3,0,0.8-0.1,1.2-0.2c3.2-0.6,3.2-4.9,3.2-4.9H93c0,0,0,4.8-3.6,5.4C88.6,49.5,88.2,49.6,87.9,49.6z
								"/>
						</g>
					</g>
					<g>
						<g>
							<path d="M84,57.4l-0.4-0.2c0,0,0.9-1.7,0.9-5.6c0-1.4,3.6-2.4,4.3-2.6l0.1,0.5C87.3,50,85,51,85,51.7
								C84.9,55.6,84,57.4,84,57.4z"/>
						</g>
					</g>
					<g>
						<g>
							<path d="M100.8,46.3c-0.7,0-1.4-0.2-2-0.6c-2-1.2-2.5-4-2.5-4.1v-0.3H99v0.5h-2.3c0.2,0.7,0.8,2.6,2.2,3.5
								c0.9,0.5,2,0.6,3.2,0.3c2.9-0.9,3.8-1.8,4-2.3c0.2-0.3,0.1-0.5,0.1-0.5l0.4-0.2c0,0,0.1,0.4-0.1,0.9
								c-0.3,0.7-1.4,1.6-4.3,2.5C101.8,46.2,101.3,46.3,100.8,46.3z"/>
						</g>
					</g>
					<g>
						<g>
							<path d="M110.1,46.5c-0.7,0-1.5-0.1-2.4-0.5c-3-1.3-3-1.3-2.9-1.6c0.1-0.2,0.4-0.2,0.5-0.1v0.1c0.2,0.1,0.7,0.4,2.7,1.2
								c3.7,1.5,6.6-1.4,6.6-1.4l0.3,0.3C114.9,44.6,112.9,46.5,110.1,46.5z M105.2,44.6L105.2,44.6L105.2,44.6L105.2,44.6z"/>
						</g>
					</g>
					<g>
						<g>
							<path d="M127.6,61.5c-0.6,0-1.8-0.5-3.6-1.5c-2.5-1.4-1.7-3.6-1.1-5.5c0.3-0.9,0.6-1.8,0.6-2.6c-0.1-2.5-1.7-3.6-5.3-3.6
								c-3.8,0-5.4-1.9-5.5-1.9l0.4-0.3c0,0,1.5,1.8,5.1,1.8c3.8,0,5.6,1.3,5.7,4c0,0.9-0.3,1.9-0.6,2.8c-0.7,1.9-1.3,3.8,0.9,5
								c2.9,1.6,3.4,1.5,3.4,1.5s-0.1,0-0.1,0.1l0.4,0.2c0,0-0.1,0.1-0.2,0.2C127.7,61.4,127.6,61.5,127.6,61.5z"/>
						</g>
					</g>
					<g class="st2">
						<g>
							<path d="M126.3,58.8l-0.2-0.4c0.5-0.3,0.8-0.6,0.9-0.9c0.1-0.3-0.2-0.6-0.5-1c-0.6-0.8-1.5-1.9-0.8-3.8
								c1.2-3.4-0.9-4.7-1-4.8l0.2-0.4c0,0,2.5,1.6,1.2,5.3c-0.6,1.7,0.2,2.6,0.7,3.4c0.4,0.5,0.7,0.9,0.6,1.4
								C127.3,58.1,126.9,58.4,126.3,58.8z"/>
						</g>
					</g>
					<g>
						<g>
							<path d="M130.7,68.8c-1,0-2-0.5-2.7-1.2c-1.3-1.3-2.1-3.5-1.1-4.9c1.5-2.2,2.7-4.3,1.4-8.5c-0.5-1.6-0.5-2.9,0.1-3.9
								c0.6-1.1,1.7-1.5,1.7-1.5l0.1,0.5c0,0-0.9,0.3-1.4,1.2s-0.5,2.1,0,3.5c1.4,4.4,0.2,6.6-1.4,8.9c-0.8,1.2-0.1,3.1,1.1,4.3
								c1.3,1.2,2.7,1.4,4,0.5c1.4-1,2-2,1.8-2.9c-0.2-0.6-0.8-1.1-1.7-1.3c-1.1-0.2-2.1,0.1-2.4,0.6c-0.2,0.3-0.1,0.6,0.1,0.9
								c0.6,0.8,1,0.8,1.1,0.7l0.3,0.4c0,0-0.2,0.2-0.6,0.1c-0.4-0.1-0.8-0.4-1.3-1c-0.4-0.5-0.4-1-0.2-1.4c0.4-0.7,1.6-1,2.8-0.8
								c1.1,0.2,1.9,0.8,2.1,1.6c0.2,0.7,0,1.9-2,3.4C132,68.6,131.3,68.8,130.7,68.8z"/>
						</g>
					</g>
					<g>
						<g>
							<path d="M131.5,60.4l-0.3-0.4c1.4-1.2,1.1-2.7,0.5-4.9c-0.1-0.6-0.3-1.1-0.4-1.8c-0.3-1.2-0.1-2.1,0.4-2.5
								c0.6-0.6,1.6-0.2,1.6-0.2l-0.2,0.4c0,0-0.7-0.3-1.2,0.1c-0.4,0.3-0.4,1-0.2,2c0.1,0.6,0.3,1.2,0.4,1.8
								C132.7,57.3,133.1,59,131.5,60.4z"/>
						</g>
					</g>
					<g>
						<g>
							<path d="M133.3,63.8l-0.2-0.4c2.8-1.4,1.3-6.4,0.7-8.6c-0.2-0.9-0.2-1.5,0.2-2c0.7-0.8,2-0.7,2.1-0.7v0.5
								c0,0-1.2-0.1-1.7,0.5c-0.3,0.3-0.3,0.9-0.1,1.6C134.9,56.9,136.4,62.2,133.3,63.8z"/>
						</g>
					</g>
					<g class="st2">
						<g>
							<path d="M134.3,63.3l-0.2-0.4c2.8-1.4,1.3-6.4,0.7-8.6c-0.2-0.9-0.2-1.5,0.2-2c0.7-0.8,2-0.7,2.1-0.7v0.5
								c0,0-1.2-0.1-1.7,0.5c-0.3,0.3-0.3,0.9-0.1,1.6C136,56.4,137.5,61.7,134.3,63.3z"/>
						</g>
					</g>
					<g class="st2">
						<g>
							<path d="M136.6,74.6c-0.1,0-1.9-0.7-2.5-2.4c-0.4-1-0.3-2,0.3-3.2c1.9-3.8,2.4-5.4,1.9-7.3c-0.6-2.1,0.4-5.4,0.4-5.5l0.5,0.1
								c0,0-1,3.3-0.4,5.2c0.6,2.2-0.1,4-2,7.6c-0.5,1-0.6,2-0.3,2.8c0.6,1.5,2.2,2.1,2.2,2.1L136.6,74.6z"/>
						</g>
					</g>
					<g>
						<g>
							<path d="M129.5,73c-0.7-2.1,0.5-4.4,0.6-4.5l0.4,0.2c0,0-0.3,2.7,0.3,4.5L129.5,73z"/>
						</g>
					</g>
					<g>
						<g>
							<path d="M136.2,81.6c-0.1,0-0.1,0-0.2,0c-2.3-0.1-3.9-0.7-4.6-1.8c-0.6-1-0.6-2.2,0-3.8c0.4-0.9,0.9-1.5,1.5-1.5
								c1.4-0.1,2.7,1.9,2.7,2l-0.4,0.3c-0.3-0.5-1.4-1.9-2.3-1.8c-0.4,0-0.8,0.5-1.1,1.2c-0.6,1.4-0.6,2.6-0.1,3.4
								c0.6,1,2.1,1.5,4.2,1.6c1.9,0.1,2.9-0.8,3.4-1.6c0.8-1.2,0.8-3,0.1-4.3c-0.3-0.5-0.7-1-1-1.5c-1.2-1.7-2.6-3.6-0.8-6.3
								c1.5-2.2,1.2-3.8,0.8-5.7c-0.2-0.8-0.3-1.7-0.4-2.7c-0.1-3.3,2.6-4.4,2.6-4.4l0.2,0.4c-0.1,0-2.4,1-2.3,3.9
								c0,0.9,0.2,1.8,0.4,2.6c0.4,1.9,0.7,3.7-0.9,6.1c-1.6,2.4-0.5,4,0.8,5.7c0.4,0.5,0.8,1,1.1,1.6c0.8,1.5,0.8,3.4-0.1,4.8
								C139.1,80.9,137.8,81.6,136.2,81.6z"/>
						</g>
					</g>
					<g>
						<g>
							<path d="M135.7,78.3c-0.3,0-0.6,0-0.6,0l0.1-0.5c0,0,1.5,0.2,2.3-0.5c0.3-0.3,0.5-0.7,0.5-1.3h0.5c0,0.7-0.2,1.3-0.6,1.7
								C137.2,78.2,136.3,78.3,135.7,78.3z"/>
						</g>
					</g>
					<g>
						<g>
							<path d="M95.7,124.8c-0.2,0-0.4,0-0.6-0.1c-0.5-0.2-0.7-0.5-1.1-0.9c-0.3-0.3-0.6-0.7-1.2-1.2c-1.2-0.9-2.3-2.1-2.4-3.5
								c-2.2-1.1-2.3-5.3-2.3-6.3c0,0-0.1,0-0.1-0.1c-0.5-0.2-0.9-1-1.3-2.3c-0.6-2.1,0.5-3.8,0.9-4.3c-0.2-0.3-0.5-1-0.9-2.8
								c-0.2-1.1-0.8-1.8-1.4-2.5s-1.2-1.4-0.8-2.4c0.4-1,0.3-1.2,0.1-1.4c-0.1-0.1-0.3-0.3-0.3-0.6c-0.1-0.4,0.1-0.7,0.2-1.1
								c0.2-0.4,0.3-0.8,0.1-1.2l0,0c-0.5-0.8-0.6-1.1,0-2.9c0.3-1,0.3-1.2,0.1-1.5c-0.1-0.3-0.3-0.6-0.5-1.3
								c-0.1-0.5-0.2-1-0.2-1.4c-0.1-0.7-0.1-1.2-0.6-2.4c-0.2-0.5-0.2-1,0-1.4c0.6-1.2,2.8-1.7,2.9-1.7l0.1,0.5c0,0-2,0.5-2.6,1.5
								c-0.2,0.3-0.2,0.6,0,1c0.6,1.3,0.6,1.9,0.7,2.6c0,0.4,0.1,0.8,0.2,1.4s0.3,0.9,0.4,1.1c0.3,0.5,0.4,0.7,0,1.9
								c-0.5,1.6-0.4,1.8,0,2.5l0,0c0.3,0.6,0.1,1.1-0.1,1.6c-0.1,0.3-0.2,0.6-0.2,0.8c0,0.2,0.1,0.3,0.2,0.4c0.3,0.4,0.5,0.8,0,1.9
								c-0.3,0.7,0,1.2,0.7,2c0.6,0.6,1.2,1.5,1.5,2.7c0.4,2.3,0.8,2.7,0.9,2.7l0.2,0.2l-0.2,0.2c0,0-1.6,1.7-1,4c0.6,2,1.1,2,1.1,2
								l0,0l0.3-0.1v0.3c0,0.1-0.2,5.2,2.1,6.1l0.1,0.1v0.2c0,1,0.7,2,2.3,3.3c0.7,0.5,1,0.9,1.3,1.2c0.3,0.3,0.5,0.6,0.9,0.8
								c0.4,0.2,2.4-0.1,3.9-1.2c1.3-1,1.8-2.3,1.6-3.9l0.5-0.1c0.4,2.2-0.7,3.6-1.7,4.4C98.2,124.4,96.6,124.8,95.7,124.8z"/>
						</g>
					</g>
					<g>
						<g>
							<path d="M98.9,124.1v-0.5l2.6-0.2h0.1c0.1,0,1.6,0.8,3-0.9c0.3-0.4,0.4-0.7,0.3-1.1c-0.2-1.2-2-2.1-2-2.1l0.2-0.4
								c0.1,0,2,1,2.3,2.4c0.1,0.5,0,1-0.4,1.5c-1.5,1.8-3.1,1.2-3.5,1L98.9,124.1z"/>
						</g>
					</g>
					<g>
						<g>
							<path d="M92.3,119.5c-0.7,0-1.3-0.2-1.3-0.2l0.1-0.4c0,0,1.7,0.5,3-0.4c0.7-0.5,1.2-1.3,1.4-2.4c-2.2,1.6-4.6,0-4.7,0
								l0.3-0.4c0.1,0.1,2.6,1.6,4.6-0.4l0.5-0.5l-0.1,0.6c-0.2,1.6-0.7,2.7-1.7,3.4C93.8,119.4,93,119.5,92.3,119.5z"/>
						</g>
					</g>
					<g class="st2">
						<g>
							<path d="M90.5,113.9l-0.3-0.4c0,0,1.2-0.9,1.3-2.2c0-0.5-0.3-1.1-0.6-1.7c-0.5-0.9-1.2-2.1-0.8-3.6l0.5,0.1
								c-0.4,1.4,0.2,2.4,0.7,3.3c0.4,0.7,0.7,1.3,0.7,2C91.9,112.9,90.5,113.9,90.5,113.9z"/>
						</g>
					</g>
					<g>
						<g>
							<path d="M94,115c-0.5-0.4-0.9-1.5-0.9-2.5c0-0.9,0.3-1.6,0.9-2.2c1.3-1.2,1.7-2.2,0-4.1c-1.6-1.8-1.3-2.6,0.1-6.5
								c0.2-0.5,0.4-1.1,0.6-1.7l0.4,0.2c-0.2,0.6-0.4,1.2-0.6,1.7c-1.4,3.9-1.6,4.5-0.2,6.1c1.7,1.9,1.6,3.2,0,4.8
								c-0.6,0.6-0.8,1.4-0.8,1.9c0,0.9,0.4,1.8,0.8,2.2L94,115z"/>
						</g>
					</g>
					<g>
						<g>
							<path d="M88.1,106.4l-0.4-0.3c0.8-0.9,0.9-1.9,1.1-3.1c0.1-0.7,0.2-1.6,0.5-2.5c0.7-2.3-0.1-2.8-0.7-3.2l0.3-0.4l-0.1,0.2
								l0.1-0.2c0.6,0.5,1.6,1.2,0.8,3.7c-0.3,0.9-0.4,1.7-0.4,2.4C89.2,104.3,89,105.4,88.1,106.4z"/>
						</g>
					</g>
					<g>
						<g>
							<path d="M87.8,100.1c-0.2-0.3-0.5-0.6-0.7-0.8c-0.9-1-1.3-1.5,0.1-4.5c1.7-3.5,0.6-6.6,0.5-6.6l0.4-0.2
								c0.1,0.1,1.3,3.3-0.6,7c-1.4,2.8-1,3.1-0.2,3.9c0.2,0.2,0.5,0.5,0.7,0.8L87.8,100.1z"/>
						</g>
					</g>
					<g>
						<g>
							<path d="M98.7,104.7c0-0.1-0.6-3,0-4.8s0.8-2.5-1-3.1c-0.5-0.2-0.8-0.5-0.9-0.9c-0.3-1.2,1-2.9,1.1-2.9l0.4,0.3
								c-0.3,0.4-1.2,1.7-1,2.5c0.1,0.3,0.3,0.5,0.6,0.6c2.1,0.8,1.9,1.9,1.2,3.7c-0.6,1.7,0,4.5,0,4.6L98.7,104.7z"/>
						</g>
					</g>
					<g>
						<g>
							<path d="M100.3,109.7c-0.8,0-1.7-0.1-2.3-0.4c-0.9-0.4-1-1-1-1.4c0.1-1.1,1.6-2.3,2.8-2.5c0.3-0.1,0.6-0.1,0.7,0.1
								c0.2,0.2,0,0.5-0.2,0.8s-0.4,0.6-0.3,0.9c0,0.1,0.1,0.2,0.3,0.2c0.1,0,0.2,0,0.2,0c0.7-0.5,0.8-4,0.6-6.1h0.5
								c0,0.6,0.3,5.7-0.8,6.5c-0.2,0.1-0.4,0.2-0.7,0.1c-0.3-0.1-0.5-0.3-0.6-0.5c-0.2-0.4,0.1-0.9,0.4-1.3c0-0.1,0.1-0.2,0.2-0.3
								c0,0-0.1,0-0.2,0c-1,0.2-2.4,1.2-2.4,2.1c0,0.4,0.2,0.7,0.7,0.9c1.3,0.6,3.7,0.5,5-0.4c0.7-0.5,1-1.2,0.9-2
								c-0.4-3,1.7-6.4,4.5-7.3l0.1,0.4c-2.6,0.8-4.5,4-4.2,6.8c0.1,1-0.2,1.9-1,2.5C102.6,109.4,101.4,109.7,100.3,109.7z"/>
						</g>
					</g>
					<g>
						<g>
							<path d="M101.2,113l-0.4-0.2c0.9-1.9,0.1-3.2,0.1-3.2l0.4-0.2C101.3,109.4,102.2,110.9,101.2,113z"/>
						</g>
					</g>
					<g>
						<g>
							<path d="M101,117.6c-1.1,0-2-0.4-2.4-1.1s-0.4-1.6,0.1-2.4c0.6-0.9,1.4-1.5,2.1-1.5c0.4,0,0.9,0.2,1.4,0.9
								c0.2,0.4,0.3,0.7,0.1,1c-0.4,0.6-1.5,0.5-1.8,0.5v-0.5c0.5,0,1.2,0,1.3-0.3c0.1-0.1,0-0.3-0.1-0.5c-0.3-0.4-0.6-0.7-1-0.7
								c-0.5,0-1.2,0.5-1.7,1.2c-0.4,0.6-0.5,1.3-0.1,1.9c0.4,0.7,1.3,1,2.4,0.9c1.4-0.1,1.8-1.4,2.2-2.5c0.3-0.9,0.6-1.7,1.3-1.9
								c0.8-0.3,1.3,0.1,1.7,0.4c0.2,0.1,0.3,0.2,0.4,0.2c0,0,0.1-0.1,0.3-0.4c0.2-0.6,0.6-1.1,0.9-1.6c-0.1,0-0.3,0.1-0.4,0
								c-0.6,0-1.2-0.5-1.7-1.3l-1.5-2.7l0.4-0.2l1.5,2.7c0.4,0.7,0.8,1.1,1.3,1.1c0.4,0,0.8-0.3,1.1-0.6c0.3-0.3,0.4-0.5,0.4-0.5
								l0.4,0.3c0,0-0.2,0.3-0.5,0.6c-0.5,0.6-1.2,1.6-1.6,2.5c-0.2,0.4-0.4,0.6-0.6,0.7c-0.3,0.1-0.5-0.1-0.8-0.3
								c-0.3-0.2-0.7-0.5-1.2-0.3s-0.7,0.9-1,1.6c-0.4,1.2-0.9,2.7-2.6,2.9C101.3,117.6,101.1,117.6,101,117.6z"/>
						</g>
					</g>
					<g class="st2">
						<g>
							<path d="M93.8,122.6c-0.5,0-1-0.2-1.6-0.6l0.3-0.4c1.2,0.8,1.8,0.5,3.1,0c0.3-0.1,0.5-0.2,0.9-0.4c1.7-0.7,1.1-2.5,1.1-2.6
								l0.5-0.1c0.2,0.8,0.3,2.5-1.4,3.1c-0.3,0.1-0.6,0.2-0.8,0.3C94.9,122.4,94.4,122.6,93.8,122.6z"/>
						</g>
					</g>
					<g class="st2">
						<g>
							<path d="M108.1,121.8c-1,0-1.9-0.3-2.5-0.9c-1.5-1.3-1.5-3.5-1.5-3.6h0.5c0,0,0,2.1,1.3,3.2c0.8,0.7,1.9,0.9,3.3,0.6
								c2.4-0.4,4-1.4,4.3-2.6c0.2-0.8-0.4-1.7-1.5-2.3c-0.8-0.4-1.5-0.6-2.1-0.4c-1.1,0.3-1.7,1.5-1.7,1.5l-0.4-0.2
								c0-0.1,0.7-1.4,2-1.8c0.8-0.2,1.6-0.1,2.5,0.4c1.3,0.7,1.9,1.8,1.7,2.8c-0.3,1.4-2,2.5-4.6,3
								C108.8,121.8,108.5,121.8,108.1,121.8z"/>
						</g>
					</g>
					<g>
						<g>
							<path d="M107.9,124.6c-0.1,0-0.2-0.1-0.3-0.3c-0.1-0.2-0.1-0.4,0-0.7c-0.6-1-2.8-0.7-2.8-0.7l-0.1-0.5c0.1,0,2.2-0.3,3.1,0.7
								c0.4-0.6,1.1-1.3,2.6-1.9l0.2,0.4c-1.8,0.7-2.3,1.5-2.5,1.9c0,0.1,0,0.1,0.1,0.2C108.2,124,108.3,124.5,107.9,124.6
								L107.9,124.6z"/>
						</g>
					</g>
					<g>
						<g>
							<path d="M117.8,121.2c-1.5,0-4.5-1.3-4.7-1.4l0.2-0.4c1,0.4,3.7,1.5,4.7,1.3c0.7-0.1,1.5-0.8,1.8-1.7
								c0.2-0.7-0.1-1.4-0.9-2.1c-0.7-0.6-1.4-0.8-1.9-0.6c-0.7,0.2-1,1-1,1.1l-0.5-0.1c0.1-0.2,0.4-1.1,1.3-1.4
								c0.7-0.2,1.5,0,2.4,0.7s1.3,1.6,1.1,2.6c-0.3,1.1-1.3,1.9-2.1,2C118,121.1,117.9,121.2,117.8,121.2z"/>
						</g>
					</g>
					<g>
						<g>
							<path d="M113.4,116.8h-0.5c0-0.1,0.2-2.7,2.9-5.2c1.4-1.2,1.2-1.9,1-2.7c-0.2-0.7-0.4-1.5,0.5-2.6c0.8-1,0.7-1.1,0.5-1.4
								c-0.3-0.5-0.7-1.3-0.6-3.9c0-0.9,0.1-1.7,0.1-2.4c0.2-3.3,0.3-5-0.9-6.2l0.3-0.3c1.4,1.3,1.3,3.2,1.1,6.5
								c0,0.7-0.1,1.5-0.1,2.4c-0.1,2.4,0.3,3.2,0.5,3.6c0.3,0.6,0.3,0.8-0.6,1.9c-0.7,0.9-0.6,1.5-0.4,2.2c0.2,0.8,0.4,1.8-1.1,3.2
								C113.6,114.3,113.4,116.7,113.4,116.8z"/>
						</g>
					</g>
					<g>
						<g>
							<path d="M111.8,103.7c0,0-0.1-0.8,0-2.8c0.1-1.7-1.8-1.9-1.9-1.9v-0.5c0.8,0.1,2.4,0.7,2.3,2.4c-0.1,1.9,0,2.7,0,2.7
								L111.8,103.7z"/>
						</g>
					</g>
					<g>
						<g>
							<path d="M113.1,111.4c-1.3-0.3-0.9-2.3-0.5-3.9c0.1-0.6,0.3-1.1,0.3-1.6c0.1-0.8-0.1-1.3-0.4-1.7c-0.4-0.4-1.1-0.5-2.1-0.4
								c-1.9,0.3-2.6,1.6-2.4,4.6h-0.5c-0.2-2.3,0.1-4.7,2.8-5.1c1.1-0.2,2,0,2.5,0.5c0.5,0.4,0.6,1.1,0.5,2c0,0.5-0.2,1-0.3,1.6
								c-0.3,1.5-0.7,3.2,0.1,3.4V111.4z"/>
						</g>
					</g>
					<g>
						<g>
							<path d="M111,112.8c0,0-2.7-1.8-1.7-4.6c0.3-0.9,0.8-1.4,1.4-1.7c1.1-0.5,2.3,0,2.3,0l-0.2,0.4c0,0-1-0.4-1.9,0
								c-0.5,0.2-0.9,0.7-1.2,1.5c-0.8,2.5,1.5,4,1.6,4L111,112.8z"/>
						</g>
					</g>
					<g>
						<g>
							<path d="M101.4,100.1l-0.4-0.3c0,0,1.8-2.6,0.3-3.9c-0.6-0.5-0.9-1-0.8-1.6c0.1-1,1.4-1.9,2.5-2.4l0.2,0.4
								c-1.4,0.7-2.2,1.4-2.3,2c0,0.4,0.2,0.8,0.6,1.2C103.1,96.8,102.1,99.1,101.4,100.1z"/>
						</g>
					</g>
					<g>
						<g>
							<path d="M103.8,101.3c0-0.8,0.4-1.2,0.9-1.6c0.4-0.4,0.9-0.8,1-1.7c0.3-1.9,0.4-6.5,0.4-6.6h0.5c0,0.2-0.1,4.7-0.4,6.6
								c-0.2,1.1-0.7,1.6-1.2,2c-0.4,0.4-0.7,0.6-0.7,1.2L103.8,101.3z"/>
						</g>
					</g>
					<g>
						<g>
							<path d="M119,87.1c-0.4,0-0.8-0.1-1-0.4c-1-1-0.6-3.3-0.6-3.4l0.5,0.1c0,0-0.3,2.2,0.5,3c0.3,0.2,0.6,0.3,1.1,0.2
								c1.6-0.3,2.7-1.2,3-2c0.1-0.3,0.2-0.7-0.1-1.1c-0.4-0.6-1.1-0.4-1.3-0.3c-0.4,0.2-0.7,0.5-0.6,0.7l0.2,0.8l-0.6-0.6
								c0,0-2-2.1,0-4.2l0.3,0.3c-1.3,1.3-0.7,2.6-0.3,3.2c0.2-0.3,0.5-0.5,0.8-0.6c0.6-0.3,1.4-0.3,1.9,0.4c0.3,0.4,0.3,1,0.1,1.5
								c-0.5,1.1-1.8,2-3.3,2.3C119.3,87.1,119.2,87.1,119,87.1z"/>
						</g>
					</g>
					<g>
						<g>
							<path d="M127.7,103.2l-0.4-0.2c0.4-1,0.4-1.9,0-2.6c-0.9-1.7-3.6-2.5-5.1-2.8c-0.7-0.1-1.1-0.4-1.2-0.7
								c-0.2-0.6,0.3-1.2,0.8-1.8c0.2-0.2,0.6-0.7,0.6-0.8c0,0-0.1,0-0.2-0.1c-1.7-0.4-2.9-5-3-5.5l0.5-0.1c0.3,1.3,1.4,4.9,2.7,5.2
								c0.3,0.1,0.5,0.2,0.5,0.4c0.1,0.4-0.2,0.8-0.6,1.3c-0.4,0.4-0.8,1-0.7,1.3c0.1,0.2,0.4,0.3,0.9,0.4c1.6,0.3,4.4,1.1,5.4,3
								C128.2,101.1,128.2,102.1,127.7,103.2z"/>
						</g>
					</g>
					<g>
						<g>
							<path d="M125,109.4c-0.4,0-0.7-0.1-1-0.3c-0.5-0.5-0.3-1.4,0-2.7c0.1-0.6,0.3-1.2,0.4-2c0.5-3.1,0.3-3.4-2.4-3.8
								c-3-0.5-4.4-3.8-4.5-4l0.4-0.2c0,0,1.4,3.2,4.1,3.7c3.1,0.5,3.3,1.2,2.8,4.3c-0.1,0.7-0.3,1.4-0.4,2c-0.2,1.1-0.4,2-0.1,2.3
								c0.2,0.2,0.5,0.2,1.1,0.1c1.4-0.2,3.7-3,4.7-5.6c0.6-1.7,0.6-3-0.1-3.8c-2-2.3-5-1.8-5-1.8l-0.1-0.5c0.1,0,3.3-0.5,5.5,1.9
								c0.8,0.9,0.8,2.4,0.1,4.2c-0.9,2.6-3.3,5.7-5.1,5.9C125.3,109.4,125.2,109.4,125,109.4z"/>
						</g>
					</g>
					<g class="st2">
						<g>
							<path d="M118.8,116.9c0-0.1-0.4-1,1.6-2.6c0.4-0.3,0.7-0.8,0.7-1.3c0.2-1.4-0.8-3.4-1.9-4.7c-1-1.2,0.6-2.8,1.6-3.8
								c0.3-0.3,0.8-0.8,0.8-0.9s-0.1-0.2-0.6-0.4c-0.6-0.2-1.3-0.6-1.9-1.4l0.4-0.3c0.5,0.7,1.2,1,1.7,1.3c0.5,0.2,0.9,0.4,0.8,0.9
								c0,0.3-0.4,0.6-1,1.2c-1,0.9-2.3,2.2-1.6,3.1c1,1.3,2.2,3.4,2,5c-0.1,0.7-0.4,1.2-0.9,1.6c-1.7,1.3-1.5,2-1.5,2L118.8,116.9z
								"/>
						</g>
					</g>
					<g>
						<g>
							<path d="M126.4,116.8c-0.3,0-0.6-0.2-1-0.6c-1.5-1.6-4.8-1.5-4.8-1.5v-0.5c0.1,0,3.6-0.2,5.2,1.6c0.4,0.4,0.6,0.5,0.7,0.5
								c0.2,0,0.4-0.5,0.7-0.9c0.3-0.6,0.7-1.4,1.4-1.9c0.7-0.6,1.9-0.9,3.1-1.2c1.7-0.5,3.4-0.9,4.1-2.1c0.8-1.4,0.5-4.5-0.4-6.5
								c-0.5-1.1-1-1.7-1.6-1.8c-2-0.4-2.9-0.4-2.9-0.4V101c0,0,1,0,3,0.4c0.9,0.2,1.6,1.3,1.9,2.1c0.9,2.1,1.3,5.4,0.4,6.9
								c-0.8,1.3-2.6,1.8-4.4,2.3c-1.2,0.3-2.3,0.6-3,1.1c-0.6,0.5-1,1.2-1.3,1.8C127.2,116.3,126.9,116.8,126.4,116.8L126.4,116.8z
								"/>
						</g>
					</g>
					<g>
						<g>
							<path d="M134.3,109.2c-0.2,0-0.4,0-0.6-0.1c-0.6-0.2-1-0.5-1.2-0.9c-0.4-0.8,0.2-1.8,0.2-1.8l0.4,0.2c0,0-0.5,0.8-0.2,1.4
								c0.1,0.3,0.4,0.5,0.9,0.6c1.7,0.4,2.4-1.5,2.4-1.6l0.4,0.1C136.5,108,135.7,109.2,134.3,109.2z"/>
						</g>
					</g>
					<g>
						<g>
							<path d="M132.7,112.4c-0.4,0-0.8-0.1-1-0.3c-0.8-0.6-0.9-2-1-4.3c-0.1-1.6-0.5-2-0.7-2.2c-0.2-0.1-0.4,0-0.4,0l-0.2-0.4
								c0.2-0.1,0.5-0.2,0.9,0c0.5,0.3,0.9,1.2,0.9,2.6c0.1,2.1,0.2,3.5,0.8,4c0.3,0.2,0.6,0.3,1.1,0.2l0.1,0.5
								C133,112.4,132.8,112.4,132.7,112.4z"/>
						</g>
					</g>
					<g>
						<g>
							<path d="M125.7,116.2l-0.3-0.4c0.1-0.1,2-1.8,0.1-4.1c-1.4-1.7-1.5-2.3-1.5-2.8c0-0.2,0-0.3-0.2-0.5l0.4-0.3
								c0.2,0.3,0.2,0.5,0.2,0.7c0,0.4,0.1,0.9,1.4,2.5C128,114.1,125.7,116.2,125.7,116.2z"/>
						</g>
					</g>
					<g class="st2">
						<g>
							<path d="M123.8,98h-0.5c0-0.1,0.1-2.1,1.7-3.4c0.4-0.3,0.6-0.6,0.6-0.9c0-0.4-0.4-0.8-0.8-1.3c-0.2-0.3-0.5-0.5-0.7-0.8
								c-1.2-1.6-1.6-3.1-1.1-4.5l0.4,0.1c-0.5,1.6,0.4,3.2,1,4c0.2,0.3,0.5,0.6,0.7,0.8c0.5,0.5,1,1,0.9,1.6c0,0.4-0.3,0.8-0.7,1.2
								C124,96.1,123.8,98,123.8,98z"/>
						</g>
					</g>
					<g>
						<g>
							<path d="M127.4,94c-0.6,0-1.3-0.1-1.4-0.1v-0.5c0.5,0,1.8,0.1,2.2,0c0.1,0,0.4-0.3,0.4-0.7c0-0.4-0.3-0.7-0.8-0.9
								c-1.3-0.4-1.5-1.5-1.6-2.5c0-0.2-0.1-0.4-0.1-0.6l0.5-0.1c0,0.2,0.1,0.4,0.1,0.6c0.2,1.1,0.3,1.8,1.3,2.2
								c1,0.3,1.1,1.1,1.1,1.4c0,0.5-0.3,1-0.7,1.1C128.1,94,127.7,94,127.4,94z"/>
						</g>
					</g>
					<g>
						<g>
							<path d="M129.9,99c-0.1,0-0.1,0-0.1,0v-0.5c0,0,3.2,0.1,3.8-2.1c0.1-0.5,0.1-0.9-0.2-1.2c-0.7-0.9-2.5-0.9-2.6-0.9h-0.2v-0.2
								c0,0-0.1-4.3-1.4-5.5c-0.2-0.2-0.5-0.3-0.7-0.3c-1.1,0-2-0.3-2.6-1.1c-1-1.2-1.2-3-0.9-4.4c0.4-2-0.4-2.6-2.1-4l0.1-0.2
								l0.2-0.2l-0.2,0.2l0.2-0.2c1.6,1.3,2.7,2.2,2.2,4.5c-0.3,1.2-0.1,2.9,0.8,4c0.5,0.6,1.3,0.9,2.2,0.9c0.4,0,0.8,0.1,1.1,0.4
								c1.3,1.2,1.5,4.7,1.5,5.6c0.6,0,2,0.2,2.7,1c0.3,0.4,0.4,1,0.3,1.6C133.5,98.9,130.6,99,129.9,99z"/>
						</g>
					</g>
					<g class="st2">
						<g>
							<path d="M127.2,85.5c-0.7-0.5-1-1.2-1-2.1c0-0.8,0.3-1.6,0.5-2.5c0.5-1.6,1-3.3,0.1-4.8l0.4-0.3c1.1,1.6,0.5,3.5,0,5.2
								c-0.3,0.9-0.5,1.7-0.5,2.4c0,0.8,0.2,1.3,0.8,1.7L127.2,85.5z"/>
						</g>
					</g>
					<g>
						<g>
							<path d="M127.9,88.3l-0.2-0.4c0.3-0.1,0.6-0.2,0.9-0.3c1-0.3,1.5-0.4,1.8-2.7c0.1-0.9-0.1-1.5-0.6-1.8
								c-0.8-0.6-2.2-0.2-2.7,0.1l-0.2-0.4c0.6-0.3,2.2-0.7,3.2,0c0.6,0.4,0.9,1.2,0.7,2.2c-0.3,2.5-0.9,2.8-2.1,3.1
								C128.5,88.1,128.2,88.2,127.9,88.3z"/>
						</g>
					</g>
					<g>
						<g>
							<path d="M133.5,90.8c-0.9,0-1.9-0.5-2.4-1.4c-0.3-0.5-0.4-1.1-0.2-1.6c0.5-1.2,2.5-1.8,2.6-1.8l0.1,0.5c0,0-1.9,0.5-2.3,1.5
								c-0.1,0.4-0.1,0.7,0.2,1.1c0.5,0.9,1.6,1.4,2.6,1.1c1.2-0.4,1.8-1.8,1.7-3.9c-0.3-4.5-1.3-4.9-1.3-4.9l0.1-0.5
								c0.2,0,1.3,0.4,1.7,5.3c0.2,2.3-0.6,4-2,4.4C134,90.7,133.7,90.8,133.5,90.8z"/>
						</g>
					</g>
					<g class="st2">
						<g>
							<path d="M133.8,85.1c-6.6-4.3-4.2-9.9-4.2-9.9l0.4,0.2c-0.1,0.2-2.3,5.3,4,9.4L133.8,85.1z"/>
						</g>
					</g>
					<g>
						<g>
							<path d="M136.4,94.3c0,0-2.2-1.5-1.6-4.4l0.5,0.1c-0.5,2.6,1.3,3.9,1.4,3.9L136.4,94.3z"/>
						</g>
					</g>
					<g>
						<g>
							<path d="M136,103.1L136,103.1v-0.5c0.1,0,0.5,0,0.6-0.2c0.1-0.1,0.1-0.3,0.1-0.6c-0.1-0.3-0.3-0.7-0.6-1.1
								c-0.7-1.1-1.7-2.5-0.2-3.7l0.3,0.4c-1.1,0.9-0.6,1.8,0.3,3.1c0.3,0.5,0.6,0.9,0.7,1.3c0.1,0.4,0.1,0.8-0.1,1
								C136.7,103,136.1,103.1,136,103.1z"/>
						</g>
					</g>
					<g>
						<g>
							<path d="M142,100.9c-1.1,0-2.2-0.3-3.1-0.7c-2.1-0.8-3.6-3.1-3.3-5c0.1-0.8,0.7-2.3,3.4-2.5c2.5-0.2,4.3,0.5,4.8,2.1
								c0.4,1.1,0,2.4-1,3c-1.1,0.8-2,0.4-2.4,0.1c-0.8-0.5-1.2-1.4-1.1-2l0.5,0.1c-0.1,0.4,0.2,1.1,0.9,1.5
								c0.4,0.3,1.1,0.4,1.9-0.1c0.8-0.5,1.1-1.6,0.8-2.5c-0.5-1.3-2.1-2-4.3-1.7c-1.7,0.2-2.8,0.9-2.9,2.1c-0.2,1.6,1.2,3.7,3,4.5
								c1.5,0.6,3.5,1.1,4.8,0.1c1.1-0.7,1.5-2.3,1.4-4.6c-0.3-5.1-0.8-5.6-0.9-5.6c0,0,0,0,0.1,0l-0.1-0.5c0,0,0.1,0,0.3,0.1
								c0.6,0.5,0.9,3.5,1,5.9c0.1,2.5-0.4,4.2-1.6,5C143.5,100.7,142.8,100.9,142,100.9z"/>
						</g>
					</g>
					<g class="st2">
						<g>
							<path d="M138.9,93.1c-1-0.4-1.5-0.9-1.6-1.6c-0.2-1.4,1.4-2.9,1.5-2.9l0.3,0.4c0,0-1.5,1.3-1.3,2.5c0.1,0.5,0.5,0.9,1.3,1.3
								L138.9,93.1z"/>
						</g>
					</g>
					<g>
						<g>
							<path d="M136.6,86.7l-0.3-0.3c0.1-0.1,1.8-1.6,4.1-0.7l-0.2,0.4C138.3,85.2,136.7,86.6,136.6,86.7z"/>
						</g>
					</g>
					<g>
						<g>
							<path d="M143.3,89.8c-1.8,0-2.6-1-3.3-2.6c-0.5-1.2-0.2-2.6,0.7-3.4c0.8-0.8,2-1,3.2-0.6c1.6,0.6,1.9,1.7,1.7,2.5
								c-0.2,0.9-1,1.4-1.8,1.4c-0.7-0.1-1.2-0.3-1.4-0.6c-0.2-0.3-0.1-0.7,0-0.7l0.4,0.2l-0.2-0.1l0.2,0.1c0,0-0.1,0.1,0,0.3
								c0.1,0.1,0.3,0.3,1,0.4s1.2-0.5,1.3-1c0.1-0.6-0.2-1.5-1.4-2c-1-0.4-2-0.2-2.7,0.5s-1,1.9-0.6,2.9c0.8,2,1.7,2.8,4.9,2
								c1.9-0.5,3.5-1.9,4.3-3.6c0.4-0.9,0.7-2.4-0.1-4c-1.5-2.9-1.4-3.6-1.3-6.1c0-0.5,0.1-1,0.1-1.6c0.2-3.7-2.1-6.1-2.1-6.1
								l0.3-0.3c0.1,0.1,2.4,2.5,2.3,6.4c0,0.6-0.1,1.1-0.1,1.6c-0.1,2.4-0.2,3.1,1.2,5.9c0.7,1.4,0.7,2.9,0.1,4.4
								c-0.8,1.8-2.6,3.4-4.6,3.9C144.7,89.7,144,89.8,143.3,89.8z"/>
						</g>
					</g>
					<g>
						<g>
							<path d="M145,83.6l-0.3-0.4c0.1-0.1,3.3-2.4,1-6.1c-0.6-1-1.3-1.8-1.9-2.5c-1.8-2.1-2.9-3.5-0.4-6.8c3.9-5.1,4.9-8.2,3.2-9.8
								c-2-1.9-2.5-2.1-3.1-2.5l0.2-0.4c0,0,1.1,0.6,3.2,2.5c2.5,2.4-0.6,7.1-3.2,10.4c-2.3,3-1.4,4.2,0.3,6.2
								c0.6,0.7,1.3,1.5,1.9,2.5C148.7,81,145,83.6,145,83.6z"/>
						</g>
					</g>
					<g>
						<g>
							<path d="M142.4,83.6l-0.4-0.3c0,0,1.2-1.7,0.7-3.9c-0.2-1-0.8-1.8-1.5-2.7c-0.9-1.3-2-2.8-2.5-5.2c-0.5-2.3,0.8-3.9,2-5.4
								c1.1-1.3,2.1-2.5,1.9-4c-0.1-1-0.5-1.7-1.1-2.2c-1.1-0.8-2.5-0.7-2.6-0.7l-0.1-0.5c0.1,0,1.7-0.2,2.9,0.8
								c0.7,0.6,1.2,1.4,1.3,2.6c0.2,1.8-0.9,3.1-2,4.4c-1.2,1.5-2.4,2.9-1.9,5c0.5,2.3,1.5,3.7,2.4,5c0.7,1,1.3,1.8,1.5,2.9
								C143.7,81.7,142.4,83.5,142.4,83.6z"/>
						</g>
					</g>
					<g class="st2">
						<g>
							<path d="M145.7,76.1l-0.4-0.2c2.1-5-0.5-8.3-0.6-8.3l0.4-0.3C145.1,67.4,147.9,70.9,145.7,76.1z"/>
						</g>
					</g>
					<g>
						<g>
							<path d="M157.3,83.1c-1.1,0-2.6-0.4-4.5-1.2c-3.7-1.5-3.5-2.6-3.1-5c0.2-1.2,0.5-2.9,0.4-5.2c-0.3-6.6-3-8-3-8l0.2-0.4
								c0.1,0.1,3,1.5,3.3,8.4c0.1,2.4-0.2,4-0.5,5.3c-0.4,2.4-0.6,3.1,2.8,4.5c4,1.6,5.2,1.2,5.6,0.8c0.5-0.6,0.2-1.7-0.2-2.6
								c-0.2-0.5-0.5-0.9-0.6-1.3c-1.1-2.1-1.4-2.8-0.1-4.6c1.2-1.6,1.6-2.9,1.2-4.1c-0.3-1.1-1.5-2-3.3-2.7l0.2-0.4
								c2,0.7,3.2,1.7,3.6,3c0.4,1.3,0,2.7-1.3,4.5c-1.1,1.5-0.9,2,0.2,4.1c0.2,0.4,0.4,0.8,0.7,1.3c0.7,1.4,0.7,2.5,0.2,3.1
								C158.6,82.9,158,83.1,157.3,83.1z"/>
						</g>
					</g>
					<g class="st2">
						<g>
							<path d="M156.6,80.8c-3.3-2.4-3.3-3.5-1.7-8.8c1.5-4.9-2-6.2-2.1-6.3l0.2-0.4c0,0,4,1.5,2.4,6.9c-1.5,5.1-1.6,6,1.6,8.3
								L156.6,80.8z"/>
						</g>
					</g>
					<g>
						<g>
							<path d="M160.4,94.3L160,94c0,0,1.4-1.4,1.3-2.9c-0.1-0.8-0.6-1.5-1.5-2.1c-4-2.5-5.6-5.7-5.9-6.3l0.4-0.2
								c0.3,0.6,1.8,3.7,5.7,6.1c1.1,0.7,1.6,1.5,1.8,2.4C162,92.7,160.4,94.2,160.4,94.3z"/>
						</g>
					</g>
					<g class="st2">
						<g>
							<path d="M147.5,101.4c-0.5-0.7-0.2-1.2,0.2-1.9c0.4-0.6,0.9-1.5,1.2-3c0.7-3.2-0.7-8-0.7-8.1l0.5-0.1c0.1,0.2,1.4,5,0.7,8.3
								c-0.3,1.6-0.9,2.5-1.3,3.1c-0.4,0.7-0.6,0.9-0.2,1.4L147.5,101.4z"/>
						</g>
					</g>
					<g>
						<g>
							<path d="M148.7,105.4c-0.4,0-0.9-0.1-1.5-0.3c-3.4-1.2-3.1-4-2.5-5.9l0.5,0.1c-0.5,1.9-0.7,4.3,2.2,5.4
								c1.1,0.4,2,0.3,2.8-0.2c1-0.7,1.4-2.2,1.4-3.2c-0.1-1.8-1.3-2.2-2.2-2.2v-0.5c1.6,0.1,2.6,1,2.7,2.7c0.1,1.2-0.4,2.8-1.6,3.6
								C150.1,105.2,149.5,105.4,148.7,105.4z"/>
						</g>
					</g>
					<g>
						<g>
							<path d="M157.8,105.9L157.8,105.9c-2.1-1-2.6-6.2-2.9-9v-0.4c-0.1-0.9,0-1.8,0.2-2.6c0.2-1.4,0.4-2.6-0.4-3.6
								c-4.1-2.9-4.4-4.7-4.4-4.7l0.5-0.1c0,0,0.4,2,5.3,5.1c0.4,0.3,0.8,0.5,1.2,0.7c4,2.5,4.5,2.8,4.1,6.6
								c-0.2,2.4-0.9,3.6-1.4,4.5c-0.3,0.6-0.5,1-0.5,1.5C159.5,105.2,158.5,105.8,157.8,105.9L157.8,105.9z M155.5,90.9
								c0.3,0.9,0.2,2,0,3.1c-0.1,0.8-0.3,1.7-0.2,2.5v0.4c0.2,2.3,0.7,7.6,2.5,8.5c0.3-0.1,1.2-0.4,1.1-1.4
								c-0.1-0.6,0.2-1.1,0.5-1.8c0.5-0.9,1.1-2,1.3-4.3c0.3-3.5,0.1-3.7-3.9-6.2c-0.4-0.2-0.7-0.5-1.2-0.7
								C155.6,91,155.5,90.9,155.5,90.9z"/>
						</g>
					</g>
					<g>
						<g>
							<path d="M153.5,101.3c-0.7,0-1.4-0.4-1.4-0.5l0.3-0.4c0,0,0.9,0.6,1.7,0.3c0.6-0.3,0.9-1.2,1-2.7h0.5c0,1.7-0.4,2.7-1.2,3.1
								C154,101.2,153.8,101.3,153.5,101.3z"/>
						</g>
					</g>
					<g class="st2">
						<g>
							<path d="M149.9,108.5V108c0.1,0,2.6,0,3.6-2.5c0.9-2.2-1.3-3.3-1.4-3.3l0.2-0.4c0,0,2.7,1.3,1.6,3.9
								C152.8,108.5,150,108.5,149.9,108.5z"/>
						</g>
					</g>
					<g>
						<g>
							<path d="M152.1,112.5l-0.2-0.4l1.8-1.1c0.3-0.2,0.5-0.5,0.6-0.8c0.2-1.1-1.1-2.6-1.1-2.6l0.4-0.3c0.1,0.1,1.4,1.7,1.2,3
								c-0.1,0.5-0.3,0.8-0.8,1.1L152.1,112.5z"/>
						</g>
					</g>
					<g>
						<g>
							<path d="M154.9,111.2c-0.3,0-0.5,0-0.5,0l0.1-0.5c0,0,1.2,0.2,1.9-0.4c0.3-0.3,0.4-0.6,0.4-1.1c-0.1-2.2,1.2-3.7,1.3-3.8
								l0.4,0.3c0,0-1.2,1.4-1.2,3.5c0,0.6-0.2,1.1-0.6,1.5C156.1,111.1,155.4,111.2,154.9,111.2z"/>
						</g>
					</g>
					<g>
						<g>
							<path d="M156,67.9l-8.6-6.3l-0.3-9.5c-0.8,0.8-2.6,2.4-4.8,3.5l-0.1,0.1l-0.1-0.1C128,45,99.7,42.4,99.4,42.4H99l0.2-0.3
								c0.4-0.8,10.7-19.3,13.6-21c2.9-1.6,6.8-0.1,16.2,3.7l0.9,0.3c-0.9-2.7-5.1-8-11.5-9.9c-5.8-1.8-9.2,2.9-11.2,5.8
								c-0.2,0.3-0.4,0.5-0.5,0.7c-0.7,1-1.1,2.4-1.5,4c-0.6,2.3-1.2,4.6-3,5.6c-1.2,0.6-1.9,0.8-2.4,0.4c-0.2-0.1-0.3-0.3-0.4-0.5
								c-0.3,0.9-1.8,4.8-4,11.3v0.1h-0.1c-7.6,2.8-12.4,9-12.5,9.1L82,52.8l0.4-1.3c0-0.1,4.7-15,8.8-26.3S110.4,5.1,110.5,5h0.1
								h0.1c10.8,0,22.5,2.4,34.5,19.8C157,42.1,156,67.2,156,67.5V67.9z M147.9,61.4l7.7,5.6c0.1-3.4,0.1-26-10.8-42
								C133,7.8,121.5,5.4,110.8,5.4c-1,0.6-15.1,9.1-19,19.9c-3.4,9.4-7.2,21.4-8.4,25.1c1.7-1.9,5.9-6.1,11.8-8.3
								c2.4-7.4,4-11.4,4-11.4l0.2-0.5c-0.1-0.7,0-1.6,0.1-2.6c0.1-1.2,1.3-2.9,2.6-4.6l0.2-0.5c-1.7,1.1-6,3.7-7.3,3
								c-0.2-0.1-0.4-0.3-0.4-0.7c-0.1-1.6,2.9-5.1,5.6-7.1c1.5-1.1,3.5-2.2,5-1.6c0.4,0.2,0.7,0.5,0.8,0.9c0.3,1.3-1.3,3.4-3,5.6
								c-0.2,0.2-2.2,3.4-2.3,3.6l-0.9,4.1c0,0.4,0.1,0.7,0.4,0.9c0.3,0.2,1,0.1,1.9-0.5c1.6-0.9,2.2-3.1,2.7-5.3
								c0.4-1.6,0.8-3.1,1.6-4.2c0.2-0.2,0.3-0.4,0.5-0.7c1.9-2.7,5.6-7.8,11.7-5.9c6.4,2,11.3,7.7,11.9,10.7l0.1,0.4l-1.7-0.7
								c-9.3-3.7-12.8-4.9-15.5-3.4c-2.6,1.5-12.2,17.6-13.6,20.1c3.3,0.3,29.1,3.2,42.4,13.2c2.8-1.3,4.9-3.7,4.9-3.7l0.4-0.4
								L147.9,61.4z M104.2,16.6c-1,0-2.3,0.6-3.8,1.7c-2.8,2-5.1,5.1-4.9,6.4c0,0.2,0.1,0.3,0.2,0.3c1,0.5,4.6-1.5,6.9-3.1l0.6-0.4
								l0.3-0.3c1.4-1.8,2.2-2.9,1.9-3.9c-0.1-0.2-0.2-0.4-0.5-0.5C104.7,16.6,104.5,16.6,104.2,16.6z"/>
						</g>
					</g>
					<g>
						<g>
							<path d="M103.6,34.1c-2.5-1.4-3.2,0.2-5.4,0.7l0.7-1.1c0.1-0.1,2.2-1.6,5,0L103.6,34.1z"/>
						</g>
					</g>
					<g>
						<g>
							<path d="M158,27.3C153.3,14,146.1,7.4,139.1,4.2c-0.2,0.1-1.5-0.1-1.7,0c7,3.1,15.5,9.9,20.2,23.3c7.4,21-2.1,39.1-2.2,39.3
								l0.4,0.2C155.9,66.8,165.5,48.5,158,27.3z"/>
						</g>
						<g>
							<path d="M112.8,4.2L111.6,5l0.2,0.4l1.8-1.3C113.3,4.2,113.1,4.2,112.8,4.2z"/>
						</g>
					</g>
					<g>
						<g>
							<path d="M136,165.4c0.1,0,0.1,0,0.2,0c-16.5-21.4-34.3-41.6-34.5-41.9l-0.4,0.3c0.3,0.3,17.9,20.3,34.3,41.6
								C135.7,165.4,135.8,165.4,136,165.4z"/>
						</g>
					</g>
					<g>
						<g>
							<path d="M95,124c-1-0.3-3.5,0.3-10.1,5c-3.1,2.2-7.4,3-12.5,3.9c-10.3,1.9-23.2,4.3-32.3,20c-3,5.2-5,9.3-6.4,12.6
								c0.2,0,0.3,0,0.5,0c1.3-3.3,3.3-7.2,6.3-12.3c9-15.5,21.7-17.8,31.9-19.7c5.1-0.9,9.5-1.8,12.7-4c6.8-4.8,9-5,9.6-4.9
								c0.2,0,0.2,0.1,0.2,0.1l0.4-0.2C95.4,124.4,95.3,124.2,95,124z"/>
						</g>
					</g>
					<g>
						<g>
							<path d="M62.7,165.5c1.6-8.3,6.3-15.5,6.3-15.6l-0.4-0.3c-0.1,0.1-4.8,7.4-6.4,15.9C62.3,165.6,62.5,165.6,62.7,165.5z"/>
						</g>
					</g>
					<g>
						<g>
							<path d="M118.6,165.4c0.2,0,0.4,0,0.6,0c-7.6-9.9-14.5-18.5-19-24.2c-1.8-2.2-3.1-3.9-4.1-5.1c-4.7-6-7.3-7.2-8.5-7.1
								c-0.7,0-1,0.5-1,0.5l0.4,0.3c0,0,0.2-0.3,0.7-0.3c1,0,3.3,0.8,8.1,7c0.9,1.2,2.3,2.9,4.1,5.1
								C104.4,147.2,111.2,155.7,118.6,165.4z"/>
						</g>
					</g>
					<g>
						<g>
							<path d="M120.2,134.3c-0.1-6.1-2.6-8.1-2.6-8.1l0.3-0.4c0.1,0.1,2.6,2.1,2.8,8.5H120.2z"/>
						</g>
					</g>
					<g>
						<g>
							<path d="M125,131.6c-0.5-2.4,1.7-5.6,1.8-5.7l0.4,0.3c0,0-2.2,3.1-1.7,5.4H125z"/>
						</g>
					</g>
					<g>
						<g>
							<path d="M163,129.4c-4.3-2.8-17.4-1.8-17.5-1.8v-0.5c0.5,0,13.4-1,17.8,1.9L163,129.4z"/>
						</g>
					</g>
					<g>
						<g>
							<path d="M166,122.6c-6-3.3-11.4-6.9-12.1-7.6c-0.8-0.9-2.2-2.8-3.3-5.2c-1.1-2.4-2.1-3.9-2.1-3.9l-0.4,0.3c0,0,1,1.5,2,3.9
								c1.1,2.4,2.5,4.4,3.4,5.3c0.7,0.7,6.2,4.5,12.4,7.8C166,122.9,166,122.8,166,122.6z"/>
						</g>
					</g>
					<g class="st2">
						<g>
							<path d="M136,164.4c0.1,0,0.1,0,0.2,0c-16.5-21.4-34.3-41.6-34.5-41.9l-0.4,0.3c0.3,0.3,17.9,20.3,34.3,41.6
								C135.7,164.4,135.8,164.4,136,164.4z"/>
						</g>
					</g>
					<g class="st2">
						<g>
							<path d="M118.6,164.4c0.2,0,0.4,0,0.6,0c-7.6-9.9-14.5-18.5-19-24.2c-1.8-2.2-3.1-3.9-4.1-5.1c-4.7-6-7.3-7.2-8.5-7.1
								c-0.7,0-1,0.5-1,0.5l0.4,0.3c0,0,0.2-0.3,0.7-0.3c1,0,3.3,0.8,8.1,7c0.9,1.2,2.3,2.9,4.1,5.1
								C104.4,146.2,111.2,154.7,118.6,164.4z"/>
						</g>
					</g>
				</g>
				<g>
					<polygon class="st3" points="166.3,123.5 165.8,123.5 165.8,4.6 139,4.6 139,4.1 166.3,4.1 					"/>
				</g>
			</g>
			<g>
				<path class="st4" d="M169,1v168H1V1H169 M170,0H0v170h170V0L170,0z"/>
			</g>
		</g>
		<g>
			<polygon class="st5" points="34.1,165.8 3.7,165.8 3.7,3.9 112.8,3.9 112.8,4.4 4.2,4.4 4.2,165.3 34.1,165.3 			"/>
		</g>
	</g>
	<g>
		<g>
			<path class="st6" d="M31.1,136.5c0,0.5-0.4,0.9-0.9,0.9c-0.6,0-0.9-0.4-0.9-0.9v-0.6c0-1.3-0.1-4-3.1-4h-4.1v4.6
				c0,0.5-0.4,0.9-0.9,0.9s-0.9-0.4-0.9-0.9v-12.2c0-0.5,0.4-0.9,0.9-0.9h4.7c3.8,0,5.4,1.8,5.4,4.1c0,1.5-0.9,3-2.6,3.6
				c2.2,0.6,2.5,3.4,2.5,4.6v0.8H31.1z M29.4,127.5c0-1.5-0.9-2.5-3.8-2.5h-3.5v5.1h3.6C27.9,130.1,29.4,129.2,29.4,127.5z"/>
			<path class="st0" d="M30.2,139.9c-1.9,0-3.4-1.5-3.4-3.4v-0.6c0-1.1-0.1-1.4-0.2-1.5c0,0-0.1,0-0.4,0h-1.6v2.1
				c0,1.9-1.5,3.4-3.4,3.4s-3.4-1.5-3.4-3.4v-12.2c0-1.9,1.5-3.4,3.4-3.4h4.7c5.9,0,7.9,3.5,7.9,6.6c0,1.4-0.4,2.7-1.2,3.7
				c0.8,1.3,1.1,3,1.1,4.4v0.9C33.6,138.3,32.1,139.9,30.2,139.9z M24.6,127.6h1.1c0.3,0,0.5,0,0.7,0c-0.2,0-0.5,0-0.8,0H24.6
				L24.6,127.6z"/>
		</g>
		<g>
			<path class="st6" d="M44.3,136.4c0,0.5-0.4,0.8-0.9,0.8h-8c-0.5,0-0.9-0.4-0.9-0.9v-12.1c0-0.5,0.4-0.9,0.9-0.9h8
				c0.5,0,0.9,0.4,0.9,0.9s-0.4,0.8-0.9,0.8h-7.1v4.4h6.4c0.5,0,0.9,0.4,0.9,0.9s-0.4,0.8-0.9,0.8h-6.4v4.4h7.1
				C43.9,135.6,44.3,135.9,44.3,136.4z"/>
			<path class="st0" d="M43.4,139.8h-8c-1.9,0-3.4-1.5-3.4-3.4v-12.1c0-1.9,1.5-3.4,3.4-3.4h8c1.9,0,3.4,1.5,3.4,3.4
				c0,1.5-1,2.8-2.4,3.2c1,0.6,1.7,1.7,1.7,2.9s-0.7,2.3-1.7,2.9c1.4,0.4,2.4,1.7,2.4,3.2C46.8,138.3,45.3,139.8,43.4,139.8z"/>
		</g>
		<g>
			<path class="st6" d="M58.6,130.6v4.5c0,0.6-0.3,1-0.8,1.2c-1.3,0.7-2.8,1.1-4.6,1.1c-4.2,0-7-3-7-7.2c0-4.3,3.1-7.2,7-7.2
				c2.3,0,3.7,0.6,5,1.4c0.2,0.1,0.4,0.4,0.4,0.7c0,0.4-0.3,0.8-0.8,0.8c-0.2,0-0.3,0-0.4-0.1c-1.2-0.7-2.4-1.1-3.9-1.1
				c-3,0-5.3,1.9-5.3,5.4c0,3.1,2,5.4,5.4,5.4c1.4,0,2.6-0.4,3.5-0.9V131h-3.3c-0.5,0-0.8-0.4-0.8-0.8c0-0.5,0.4-0.8,0.8-0.8h3.9
				C58.2,129.6,58.6,130,58.6,130.6z"/>
			<path class="st0" d="M53.3,140c-5.5,0-9.5-4.1-9.5-9.7c0-5.5,4.1-9.7,9.5-9.7c3,0,4.9,1,6.3,1.8c1,0.6,1.6,1.7,1.6,2.9
				c0,1.1-0.5,2-1.3,2.6c0.8,0.6,1.3,1.6,1.3,2.7v4.5c0,1.5-0.8,2.9-2.2,3.5C57.1,139.5,55.2,140,53.3,140z M51.7,127.8
				c-0.3,0.2-0.5,0.4-0.7,0.8C51.2,128.3,51.4,128,51.7,127.8z"/>
		</g>
		<g>
			<path class="st6" d="M73.5,130.6v4.5c0,0.6-0.3,1-0.8,1.2c-1.3,0.7-2.8,1.1-4.6,1.1c-4.2,0-7-3-7-7.2c0-4.3,3.1-7.2,7-7.2
				c2.3,0,3.7,0.6,5,1.4c0.2,0.1,0.4,0.4,0.4,0.7c0,0.4-0.3,0.8-0.8,0.8c-0.2,0-0.3,0-0.4-0.1c-1.2-0.7-2.4-1.1-3.9-1.1
				c-3,0-5.3,1.9-5.3,5.4c0,3.1,2,5.4,5.4,5.4c1.4,0,2.6-0.4,3.5-0.9V131h-3.3c-0.5,0-0.8-0.4-0.8-0.8c0-0.5,0.4-0.8,0.8-0.8h3.9
				C73.1,129.6,73.5,130,73.5,130.6z"/>
			<path class="st0" d="M68.1,140c-5.5,0-9.5-4.1-9.5-9.7c0-5.5,4.1-9.7,9.5-9.7c3,0,4.9,1,6.3,1.8c1,0.6,1.6,1.7,1.6,2.9
				c0,1.1-0.5,2-1.3,2.6c0.8,0.6,1.3,1.6,1.3,2.7v4.5c0,1.5-0.8,2.9-2.2,3.5C72,139.5,70.1,140,68.1,140z M66.5,127.8
				c-0.3,0.2-0.5,0.4-0.7,0.8C66,128.3,66.3,128,66.5,127.8z"/>
		</g>
		<g>
			<path class="st6" d="M78.7,124.1v12.3c0,0.5-0.4,0.9-0.9,0.9s-0.9-0.4-0.9-0.9v-12.3c0-0.5,0.4-0.9,0.9-0.9
				C78.2,123.2,78.7,123.6,78.7,124.1z"/>
			<path class="st0" d="M77.7,139.9c-1.9,0-3.4-1.5-3.4-3.4v-12.3c0-1.9,1.5-3.4,3.4-3.4s3.4,1.5,3.4,3.4v12.3
				C81.2,138.3,79.6,139.9,77.7,139.9z"/>
		</g>
		<g>
			<path class="st6" d="M95.7,130.3c-0.1,4.2-2.8,7.2-7,7.2c-4.3,0-6.9-3-7-7.2c0.1-4.2,2.7-7.2,7-7.2
				C93,123.1,95.6,126.1,95.7,130.3z M93.9,130.3c0-3.1-1.9-5.5-5.2-5.5c-3.3,0-5.2,2.4-5.2,5.5c0,3.1,1.9,5.5,5.2,5.5
				S93.9,133.4,93.9,130.3z"/>
			<path class="st0" d="M88.7,140c-5.5,0-9.4-4-9.5-9.6c0.1-5.8,4-9.7,9.5-9.7s9.4,4,9.5,9.6v0.1C98.1,136,94.2,140,88.7,140z
				 M88.7,127.3c-2.3,0-2.7,1.9-2.7,3s0.4,3,2.7,3c2.4,0,2.7-2.1,2.7-3C91.4,129.4,91.1,127.3,88.7,127.3z"/>
		</g>
		<g>
			<path class="st6" d="M35.6,159.2c0,0.5-0.2,0.8-0.6,0.9c-1.6,0.9-3.4,1.6-6,1.6c-5.3,0-9.2-3.6-9.2-9.5s4-9.5,9.2-9.5
				c2.6,0,4.4,0.7,6,1.6c0.3,0.2,0.6,0.4,0.6,0.9c0,0.6-0.4,1.1-1.1,1.1c-0.1,0-0.3,0-0.5-0.1c-1.4-0.7-2.8-1.2-4.8-1.2
				c-4.7,0-7.1,3.1-7.1,7.2c0,4.1,2.4,7.2,7.1,7.2c2.1,0,3.4-0.5,4.8-1.2c0.2-0.1,0.3-0.1,0.5-0.1C35.2,158.1,35.7,158.6,35.6,159.2
				z"/>
			<path class="st0" d="M29,164.3c-6.9,0-11.7-4.9-11.7-12c0-7,4.8-12,11.7-12c3.3,0,5.6,1,7.2,2c1.1,0.6,1.8,1.7,1.8,3
				c0,1-0.3,1.9-1,2.6c-0.7,0.7-1.6,1.1-2.6,1.1c-0.4,0-1-0.1-1.6-0.4c-1.2-0.6-2.2-1-3.7-1c-4,0-4.6,2.9-4.6,4.7
				c0,1.7,0.6,4.7,4.6,4.7c1.6,0,2.5-0.3,3.7-1c0.7-0.3,1.3-0.4,1.6-0.4c1,0,1.9,0.4,2.6,1.1c0.7,0.7,1,1.6,1,2.6l0,0
				c-0.1,1.3-0.7,2.4-1.9,3C34.7,163.2,32.4,164.3,29,164.3z M33.8,158L33.8,158L33.8,158z M33.8,146.7
				C33.8,146.7,33.9,146.7,33.8,146.7C33.9,146.7,33.8,146.7,33.8,146.7z"/>
		</g>
		<g>
			<path class="st6" d="M54.5,160.5c0,0.7-0.4,1.2-1.2,1.2c-0.5,0-0.9-0.3-1.1-0.7l-1.7-4.1h-9l-1.7,4.1c-0.2,0.5-0.6,0.7-1.1,0.7
				c-0.7,0-1.2-0.5-1.2-1.2c0-0.2,0.1-0.3,0.1-0.5l6.7-15.9c0.2-0.6,0.7-1.1,1.5-1.1h0.3c0.8,0,1.3,0.5,1.5,1.1l6.7,15.9
				C54.4,160.1,54.5,160.3,54.5,160.5z M49.5,154.6l-3.6-8.6l-3.6,8.6H49.5z"/>
			<path class="st0" d="M53.3,164.2c-1.5,0-2.8-0.9-3.4-2.2l-1.1-2.6h-5.6l-1.1,2.6c-0.6,1.4-1.9,2.3-3.4,2.3
				c-2.1,0-3.7-1.6-3.7-3.7c0-0.5,0.1-1,0.3-1.5l6.7-15.9c0.7-1.5,2-2.5,3.6-2.6l0.4-1l0.4,1c1.6,0.1,2.9,1.1,3.6,2.6l6.7,15.9
				c0.2,0.5,0.3,1,0.3,1.5C57,162.5,55.4,164.2,53.3,164.2z M52,160.9L52,160.9L52,160.9z"/>
		</g>
		<g>
			<path class="st6" d="M69.9,160.3c0,0.7-0.6,1.2-1.2,1.2h-9.4c-0.9,0-1.7-0.7-1.7-1.7v-15.7c0-0.7,0.5-1.2,1.2-1.2
				s1.2,0.6,1.2,1.2V159h8.6C69.4,159.1,69.9,159.7,69.9,160.3z"/>
			<path class="st0" d="M68.7,164h-9.4c-2.3,0-4.2-1.9-4.2-4.2v-15.7c0-2,1.7-3.7,3.7-3.7s3.7,1.7,3.7,3.7v12.4h6.1
				c2,0,3.7,1.7,3.7,3.7C72.4,162.4,70.8,164,68.7,164z"/>
		</g>
		<g>
			<path class="st6" d="M88,160.5c0,0.7-0.4,1.2-1.2,1.2c-0.5,0-0.9-0.3-1.1-0.7l-1.7-4.1h-9l-1.7,4.1c-0.2,0.5-0.6,0.7-1.1,0.7
				c-0.7,0-1.2-0.5-1.2-1.2c0-0.2,0.1-0.3,0.1-0.5l6.7-15.9c0.2-0.6,0.7-1.1,1.5-1.1h0.3c0.8,0,1.3,0.5,1.5,1.1l6.7,15.9
				C88,160.1,88,160.3,88,160.5z M83.1,154.6l-3.6-8.6l-3.6,8.6H83.1z"/>
			<path class="st0" d="M86.9,164.2c-1.5,0-2.8-0.9-3.4-2.2l-1.1-2.6h-5.6l-1.1,2.6c-0.6,1.4-1.9,2.3-3.4,2.3
				c-2.1,0-3.7-1.6-3.7-3.7c0-0.5,0.1-1,0.3-1.5l6.7-15.9c0.7-1.5,2-2.5,3.6-2.6l0.4-1l0.4,1c1.6,0.1,2.9,1.1,3.6,2.6l6.7,15.9
				c0.2,0.5,0.3,1,0.3,1.5C90.5,162.5,88.9,164.2,86.9,164.2z M85.6,160.9L85.6,160.9L85.6,160.9z"/>
		</g>
		<g>
			<path class="st6" d="M105.6,156.4c0,3.1-1.9,5.2-6.8,5.2h-6.4c-0.7,0-1.2-0.5-1.2-1.2v-16c0-0.7,0.5-1.2,1.2-1.2h6.2
				c3.9,0,5.9,1.9,5.9,4.8c0,2.2-1.2,3.5-2.6,4.1C103.9,152.6,105.6,153.9,105.6,156.4z M98.5,145.4h-4.8v5.7H98
				c3.3,0,4.2-1.3,4.2-3C102.3,146.4,100.9,145.4,98.5,145.4z M103.3,156.2c0-2.1-1.6-3-4.7-3h-5v6h4.9
				C102.2,159.3,103.3,158,103.3,156.2z"/>
			<path class="st0" d="M98.8,164h-6.4c-2,0-3.7-1.7-3.7-3.7v-16c0-2,1.7-3.7,3.7-3.7h6.2c5.1,0,8.4,2.9,8.4,7.3
				c0,1.4-0.3,2.6-1,3.6c1.3,1.3,2,2.9,2,4.8C108.1,158.7,107.2,164,98.8,164z M96.2,156.8h2.4c1.5,0,2.1-0.3,2.2-0.3
				c0,0,0-0.1,0-0.2c0-0.1,0-0.2,0-0.2s-0.5-0.3-2.2-0.3h-2.5L96.2,156.8L96.2,156.8z M96.2,148.6H98c1.2,0,1.6-0.2,1.7-0.3
				c0,0,0-0.1,0-0.2c0,0-0.4-0.2-1.3-0.2h-2.3v0.7H96.2z"/>
		</g>
		<g>
			<path class="st6" d="M123.9,160.5c0,0.7-0.5,1.2-1.2,1.2s-1.2-0.5-1.2-1.2v-0.8c0-1.7-0.1-5.3-4.1-5.3h-5.5v6.1
				c0,0.7-0.6,1.2-1.2,1.2c-0.7,0-1.2-0.5-1.2-1.2v-16.1c0-0.7,0.5-1.2,1.2-1.2h6.1c5,0,7.2,2.3,7.2,5.4c0,2-1.1,4-3.5,4.8
				c2.9,0.8,3.3,4.5,3.3,6L123.9,160.5L123.9,160.5z M121.7,148.7c0-2-1.2-3.3-5.1-3.3H112v6.7h4.8
				C119.7,152.1,121.7,150.9,121.7,148.7z"/>
			<path class="st0" d="M122.7,164.2c-2.1,0-3.7-1.6-3.7-3.7v-0.8c0-2.8-0.7-2.8-1.6-2.8h-3v3.6c0,2-1.7,3.7-3.7,3.7
				s-3.7-1.7-3.7-3.7v-16.1c0-2,1.7-3.7,3.7-3.7h6.1c7.1,0,9.7,4.1,9.7,7.9c0,1.9-0.6,3.6-1.8,4.9c1.1,1.7,1.6,3.9,1.6,5.9v1.2
				C126.4,162.5,124.7,164.2,122.7,164.2z M114.4,149.6h2.3c0.2,0,2.4,0,2.4-0.9c0-0.2,0-0.3,0-0.4l0,0c0,0-0.5-0.4-2.5-0.4h-2.1
				v1.7H114.4z"/>
		</g>
		<g>
			<path class="st6" d="M130.7,144.2v16.3c0,0.7-0.6,1.2-1.2,1.2c-0.7,0-1.2-0.5-1.2-1.2v-16.3c0-0.7,0.5-1.2,1.2-1.2
				S130.7,143.5,130.7,144.2z"/>
			<path class="st0" d="M129.5,164.2c-2,0-3.7-1.7-3.7-3.7v-16.3c0-2,1.7-3.7,3.7-3.7s3.7,1.7,3.7,3.7v16.3
				C133.2,162.5,131.6,164.2,129.5,164.2z"/>
		</g>
		<g>
			<path class="st6" d="M151,160.5c0,0.7-0.4,1.2-1.2,1.2c-0.5,0-0.9-0.3-1.1-0.7l-1.7-4.1h-9l-1.7,4.1c-0.2,0.5-0.6,0.7-1.1,0.7
				c-0.7,0-1.2-0.5-1.2-1.2c0-0.2,0.1-0.3,0.1-0.5l6.7-15.9c0.2-0.6,0.7-1.1,1.5-1.1h0.3c0.8,0,1.3,0.5,1.5,1.1l6.7,15.9
				C151,160.1,151,160.3,151,160.5z M146.1,154.6l-3.6-8.6l-3.6,8.6H146.1z"/>
			<path class="st0" d="M149.8,164.2c-1.5,0-2.8-0.9-3.4-2.2l-1.1-2.6h-5.6l-1.1,2.6c-0.6,1.4-1.9,2.3-3.4,2.3
				c-2.1,0-3.7-1.6-3.7-3.7c0-0.5,0.1-1,0.3-1.5l6.7-15.9c0.7-1.5,2-2.5,3.6-2.6l0.4-1l0.4,1c1.6,0.1,2.9,1.1,3.6,2.6l6.7,15.9
				c0.2,0.5,0.3,1,0.3,1.5C153.5,162.5,151.9,164.2,149.8,164.2z M148.6,160.9L148.6,160.9L148.6,160.9z"/>
		</g>
	</g>
	<g>
		<g>
			<path class="st6" d="M31.1,136.5c0,0.5-0.4,0.9-0.9,0.9c-0.6,0-0.9-0.4-0.9-0.9v-0.6c0-1.3-0.1-4-3.1-4h-4.1v4.6
				c0,0.5-0.4,0.9-0.9,0.9s-0.9-0.4-0.9-0.9v-12.2c0-0.5,0.4-0.9,0.9-0.9h4.7c3.8,0,5.4,1.8,5.4,4.1c0,1.5-0.9,3-2.6,3.6
				c2.2,0.6,2.5,3.4,2.5,4.6v0.8H31.1z M29.4,127.5c0-1.5-0.9-2.5-3.8-2.5h-3.5v5.1h3.6C27.9,130.1,29.4,129.2,29.4,127.5z"/>
		</g>
		<g>
			<path class="st6" d="M44.3,136.4c0,0.5-0.4,0.8-0.9,0.8h-8c-0.5,0-0.9-0.4-0.9-0.9v-12.1c0-0.5,0.4-0.9,0.9-0.9h8
				c0.5,0,0.9,0.4,0.9,0.9s-0.4,0.8-0.9,0.8h-7.1v4.4h6.4c0.5,0,0.9,0.4,0.9,0.9s-0.4,0.8-0.9,0.8h-6.4v4.4h7.1
				C43.9,135.6,44.3,135.9,44.3,136.4z"/>
		</g>
		<g>
			<path class="st6" d="M58.6,130.6v4.5c0,0.6-0.3,1-0.8,1.2c-1.3,0.7-2.8,1.1-4.6,1.1c-4.2,0-7-3-7-7.2c0-4.3,3.1-7.2,7-7.2
				c2.3,0,3.7,0.6,5,1.4c0.2,0.1,0.4,0.4,0.4,0.7c0,0.4-0.3,0.8-0.8,0.8c-0.2,0-0.3,0-0.4-0.1c-1.2-0.7-2.4-1.1-3.9-1.1
				c-3,0-5.3,1.9-5.3,5.4c0,3.1,2,5.4,5.4,5.4c1.4,0,2.6-0.4,3.5-0.9V131h-3.3c-0.5,0-0.8-0.4-0.8-0.8c0-0.5,0.4-0.8,0.8-0.8h3.9
				C58.2,129.6,58.6,130,58.6,130.6z"/>
		</g>
		<g>
			<path class="st6" d="M73.5,130.6v4.5c0,0.6-0.3,1-0.8,1.2c-1.3,0.7-2.8,1.1-4.6,1.1c-4.2,0-7-3-7-7.2c0-4.3,3.1-7.2,7-7.2
				c2.3,0,3.7,0.6,5,1.4c0.2,0.1,0.4,0.4,0.4,0.7c0,0.4-0.3,0.8-0.8,0.8c-0.2,0-0.3,0-0.4-0.1c-1.2-0.7-2.4-1.1-3.9-1.1
				c-3,0-5.3,1.9-5.3,5.4c0,3.1,2,5.4,5.4,5.4c1.4,0,2.6-0.4,3.5-0.9V131h-3.3c-0.5,0-0.8-0.4-0.8-0.8c0-0.5,0.4-0.8,0.8-0.8h3.9
				C73.1,129.6,73.5,130,73.5,130.6z"/>
		</g>
		<g>
			<path class="st6" d="M78.7,124.1v12.3c0,0.5-0.4,0.9-0.9,0.9s-0.9-0.4-0.9-0.9v-12.3c0-0.5,0.4-0.9,0.9-0.9
				C78.2,123.2,78.7,123.6,78.7,124.1z"/>
		</g>
		<g>
			<path class="st6" d="M95.7,130.3c-0.1,4.2-2.8,7.2-7,7.2c-4.3,0-6.9-3-7-7.2c0.1-4.2,2.7-7.2,7-7.2
				C93,123.1,95.6,126.1,95.7,130.3z M93.9,130.3c0-3.1-1.9-5.5-5.2-5.5c-3.3,0-5.2,2.4-5.2,5.5c0,3.1,1.9,5.5,5.2,5.5
				S93.9,133.4,93.9,130.3z"/>
		</g>
		<g>
			<path class="st6" d="M35.6,159.2c0,0.5-0.2,0.8-0.6,0.9c-1.6,0.9-3.4,1.6-6,1.6c-5.3,0-9.2-3.6-9.2-9.5s4-9.5,9.2-9.5
				c2.6,0,4.4,0.7,6,1.6c0.3,0.2,0.6,0.4,0.6,0.9c0,0.6-0.4,1.1-1.1,1.1c-0.1,0-0.3,0-0.5-0.1c-1.4-0.7-2.8-1.2-4.8-1.2
				c-4.7,0-7.1,3.1-7.1,7.2c0,4.1,2.4,7.2,7.1,7.2c2.1,0,3.4-0.5,4.8-1.2c0.2-0.1,0.3-0.1,0.5-0.1C35.2,158.1,35.7,158.6,35.6,159.2
				z"/>
		</g>
		<g>
			<path class="st6" d="M54.5,160.5c0,0.7-0.4,1.2-1.2,1.2c-0.5,0-0.9-0.3-1.1-0.7l-1.7-4.1h-9l-1.7,4.1c-0.2,0.5-0.6,0.7-1.1,0.7
				c-0.7,0-1.2-0.5-1.2-1.2c0-0.2,0.1-0.3,0.1-0.5l6.7-15.9c0.2-0.6,0.7-1.1,1.5-1.1h0.3c0.8,0,1.3,0.5,1.5,1.1l6.7,15.9
				C54.4,160.1,54.5,160.3,54.5,160.5z M49.5,154.6l-3.6-8.6l-3.6,8.6H49.5z"/>
		</g>
		<g>
			<path class="st6" d="M69.9,160.3c0,0.7-0.6,1.2-1.2,1.2h-9.4c-0.9,0-1.7-0.7-1.7-1.7v-15.7c0-0.7,0.5-1.2,1.2-1.2
				s1.2,0.6,1.2,1.2V159h8.6C69.4,159.1,69.9,159.7,69.9,160.3z"/>
		</g>
		<g>
			<path class="st6" d="M88,160.5c0,0.7-0.4,1.2-1.2,1.2c-0.5,0-0.9-0.3-1.1-0.7l-1.7-4.1h-9l-1.7,4.1c-0.2,0.5-0.6,0.7-1.1,0.7
				c-0.7,0-1.2-0.5-1.2-1.2c0-0.2,0.1-0.3,0.1-0.5l6.7-15.9c0.2-0.6,0.7-1.1,1.5-1.1h0.3c0.8,0,1.3,0.5,1.5,1.1l6.7,15.9
				C88,160.1,88,160.3,88,160.5z M83.1,154.6l-3.6-8.6l-3.6,8.6H83.1z"/>
		</g>
		<g>
			<path class="st6" d="M105.6,156.4c0,3.1-1.9,5.2-6.8,5.2h-6.4c-0.7,0-1.2-0.5-1.2-1.2v-16c0-0.7,0.5-1.2,1.2-1.2h6.2
				c3.9,0,5.9,1.9,5.9,4.8c0,2.2-1.2,3.5-2.6,4.1C103.9,152.6,105.6,153.9,105.6,156.4z M98.5,145.4h-4.8v5.7H98
				c3.3,0,4.2-1.3,4.2-3C102.3,146.4,100.9,145.4,98.5,145.4z M103.3,156.2c0-2.1-1.6-3-4.7-3h-5v6h4.9
				C102.2,159.3,103.3,158,103.3,156.2z"/>
		</g>
		<g>
			<path class="st6" d="M123.9,160.5c0,0.7-0.5,1.2-1.2,1.2s-1.2-0.5-1.2-1.2v-0.8c0-1.7-0.1-5.3-4.1-5.3h-5.5v6.1
				c0,0.7-0.6,1.2-1.2,1.2c-0.7,0-1.2-0.5-1.2-1.2v-16.1c0-0.7,0.5-1.2,1.2-1.2h6.1c5,0,7.2,2.3,7.2,5.4c0,2-1.1,4-3.5,4.8
				c2.9,0.8,3.3,4.5,3.3,6L123.9,160.5L123.9,160.5z M121.7,148.7c0-2-1.2-3.3-5.1-3.3H112v6.7h4.8
				C119.7,152.1,121.7,150.9,121.7,148.7z"/>
		</g>
		<g>
			<path class="st6" d="M130.7,144.2v16.3c0,0.7-0.6,1.2-1.2,1.2c-0.7,0-1.2-0.5-1.2-1.2v-16.3c0-0.7,0.5-1.2,1.2-1.2
				S130.7,143.5,130.7,144.2z"/>
		</g>
		<g>
			<path class="st6" d="M151,160.5c0,0.7-0.4,1.2-1.2,1.2c-0.5,0-0.9-0.3-1.1-0.7l-1.7-4.1h-9l-1.7,4.1c-0.2,0.5-0.6,0.7-1.1,0.7
				c-0.7,0-1.2-0.5-1.2-1.2c0-0.2,0.1-0.3,0.1-0.5l6.7-15.9c0.2-0.6,0.7-1.1,1.5-1.1h0.3c0.8,0,1.3,0.5,1.5,1.1l6.7,15.9
				C151,160.1,151,160.3,151,160.5z M146.1,154.6l-3.6-8.6l-3.6,8.6H146.1z"/>
		</g>
	</g>
</g>
</svg>
