<svg xmlns="http://www.w3.org/2000/svg" xmlns:xlink="http://www.w3.org/1999/xlink" viewBox="0 0 165.61 26.02"><defs><style>.cls-1{fill:none;}.cls-2{fill:#fff;}.cls-3{fill:#e01f29;}.cls-4{clip-path:url(#clip-path);}.cls-5{fill:url(#Sfumatura_senza_nome_5);}.cls-6{clip-path:url(#clip-path-2);}.cls-7{fill:url(#Sfumatura_senza_nome_2);}.cls-8{clip-path:url(#clip-path-3);}.cls-9{fill:url(#Sfumatura_senza_nome_3);}.cls-10{clip-path:url(#clip-path-4);}.cls-11{fill:url(#Sfumatura_senza_nome_4);}</style><clipPath id="clip-path"><path class="cls-1" d="M5.25,10.71l6.1,6.1,1.91-1.91L5.81,10.8a.84.84,0,0,0-.4-.12l-.16,0"/></clipPath><linearGradient id="Sfumatura_senza_nome_5" x1="5383.34" y1="-2586.7" x2="5384.06" y2="-2586.7" gradientTransform="matrix(0, -13.24, -13.24, 0, -34228.6, 71270.89)" gradientUnits="userSpaceOnUse"><stop offset="0" stop-color="#e8eec3"/><stop offset="0.78" stop-color="#91c3cd"/><stop offset="1" stop-color="#77b6d0"/></linearGradient><clipPath id="clip-path-2"><path class="cls-1" d="M11.35,16.81l1.92,1.92,2.54-1.4c.52-.29.52-.75,0-1l-2.55-1.4Z"/></clipPath><linearGradient id="Sfumatura_senza_nome_2" x1="5502.49" y1="-3481.69" x2="5503.21" y2="-3481.69" gradientTransform="matrix(0, 15.04, 15.04, 0, 52364.31, -82726.39)" gradientUnits="userSpaceOnUse"><stop offset="0" stop-color="#df3a87"/><stop offset="0.62" stop-color="#f0aa8c"/><stop offset="1" stop-color="#faeb8f"/></linearGradient><clipPath id="clip-path-3"><path class="cls-1" d="M4.88,11.36V22.28a.62.62,0,0,0,.36.64l6.11-6.11-6.1-6.1a.61.61,0,0,0-.37.65"/></clipPath><linearGradient id="Sfumatura_senza_nome_3" x1="5429.11" y1="-2713.75" x2="5429.83" y2="-2713.75" gradientTransform="matrix(0, -18.3, -18.3, 0, -49659.38, 99384.22)" gradientUnits="userSpaceOnUse"><stop offset="0" stop-color="#cfe7dd"/><stop offset="0.39" stop-color="#8fabc5"/><stop offset="0.8" stop-color="#5271ae"/><stop offset="1" stop-color="#3a5aa5"/></linearGradient><clipPath id="clip-path-4"><path class="cls-1" d="M5.24,22.92a.71.71,0,0,0,.57-.09l7.46-4.1-1.92-1.92Z"/></clipPath><linearGradient id="Sfumatura_senza_nome_4" x1="5888.87" y1="-2911.76" x2="5889.59" y2="-2911.76" gradientTransform="matrix(-16.06, 0, 0, 16.06, 94618.27, 46796.6)" gradientUnits="userSpaceOnUse"><stop offset="0" stop-color="#e35822"/><stop offset="0.13" stop-color="#d25b36"/><stop offset="0.73" stop-color="#8a668d"/><stop offset="1" stop-color="#6d6baf"/></linearGradient></defs><title>APP+ GOOGLE PLAY FOOTER</title><g id="Livello_2" data-name="Livello 2"><g id="Livello_1-2" data-name="Livello 1"><path class="cls-2" d="M165.61,3.52v19A3.51,3.51,0,0,1,162.11,26H89.77a3.51,3.51,0,0,1-3.51-3.52v-19A3.51,3.51,0,0,1,89.77,0h72.34a3.51,3.51,0,0,1,3.51,3.52"/><rect class="cls-3" x="116.59" y="4.63" width="0.47" height="3.82"/><path class="cls-3" d="M117.62,7.76a.74.74,0,0,0,.8.75,1,1,0,0,0,.8-.39h0l0,.33h.43a4.36,4.36,0,0,1,0-.62v-1c0-.52-.19-1.06-1-1.06a1.69,1.69,0,0,0-.86.23l.11.32a1.26,1.26,0,0,1,.68-.19.53.53,0,0,1,.59.6v.05c-1,0-1.57.34-1.57,1m1.58-.64v.45a.47.47,0,0,1,0,.15.66.66,0,0,1-.64.44.41.41,0,0,1-.44-.45c0-.51.59-.6,1.1-.59"/><rect class="cls-3" x="123.42" y="4.63" width="0.47" height="3.82"/><path class="cls-3" d="M107.84,7.31h1.29l.39,1.14h.5l-1.24-3.63h-.57L107,8.45h.48Zm.45-1.41c.07-.22.13-.45.18-.66h0c.05.21.11.42.18.66l.36,1h-1.09Z"/><path class="cls-3" d="M112.59,7.76a.74.74,0,0,0,.8.75,1,1,0,0,0,.8-.39h0l0,.33h.42a4.36,4.36,0,0,1,0-.62v-1c0-.52-.19-1.06-1-1.06a1.69,1.69,0,0,0-.86.23l.11.32a1.26,1.26,0,0,1,.68-.19.53.53,0,0,1,.59.6v.05c-1,0-1.56.34-1.56,1m1.58-.64v.45a.49.49,0,0,1,0,.15.66.66,0,0,1-.64.44.41.41,0,0,1-.44-.45c0-.51.59-.6,1.1-.59"/><path class="cls-3" d="M125.74,8.5a2.12,2.12,0,0,0,.87-.17L126.53,8a1.79,1.79,0,0,1-.72.13.83.83,0,0,1-.89-.9h1.82a1.19,1.19,0,0,0,0-.23,1.1,1.1,0,0,0-1.07-1.23,1.27,1.27,0,0,0-1.23,1.41,1.21,1.21,0,0,0,1.28,1.31m-.09-2.38a.68.68,0,0,1,.65.77h-1.38a.78.78,0,0,1,.73-.77"/><path class="cls-3" d="M111.43,8.45l1-2.6H112l-.51,1.46c-.09.24-.16.46-.22.67h0c-.05-.21-.12-.43-.21-.67l-.51-1.46H110l1,2.6Z"/><path class="cls-3" d="M153.84,8.45h.47V6.88a.72.72,0,0,1,0-.22.68.68,0,0,1,.63-.48c.45,0,.6.36.6.77v1.5h.47V6.9c0-.89-.56-1.11-.92-1.11a1,1,0,0,0-.86.48h0l0-.42h-.42c0,.22,0,.43,0,.7Z"/><path class="cls-3" d="M157.89,8.5a2.12,2.12,0,0,0,.87-.17L158.68,8a1.79,1.79,0,0,1-.72.13.83.83,0,0,1-.89-.9h1.82a1.21,1.21,0,0,0,0-.23,1.1,1.1,0,0,0-1.07-1.23,1.27,1.27,0,0,0-1.23,1.41,1.21,1.21,0,0,0,1.28,1.31m-.09-2.38a.67.67,0,0,1,.65.77h-1.38a.78.78,0,0,1,.73-.77"/><path class="cls-3" d="M152,8.51h0a1.28,1.28,0,0,0,1.29-1.39A1.23,1.23,0,0,0,152,5.79a1.27,1.27,0,0,0-1.29,1.38A1.24,1.24,0,0,0,152,8.51m0-2.37c.56,0,.78.55.78,1,0,.59-.34,1-.79,1h0c-.46,0-.78-.43-.78-1s.24-1,.8-1"/><path class="cls-3" d="M144.15,5.37h0a.3.3,0,0,0,.31-.31.29.29,0,0,0-.3-.3.3.3,0,0,0,0,.61"/><path class="cls-3" d="M135.54,7.63a1,1,0,0,0,.18.68.68.68,0,0,0,.51.2,1.29,1.29,0,0,0,.42-.06l0-.36a.88.88,0,0,1-.27,0c-.26,0-.35-.18-.35-.51V6.21h.68V5.85H136V5.22l-.46.15v.48h-.4v.36h.4Z"/><rect class="cls-3" x="143.92" y="5.85" width="0.47" height="2.6"/><path class="cls-3" d="M145.64,7A1.65,1.65,0,0,0,146,7a1.5,1.5,0,0,0,1.11-.4,1,1,0,0,0,.29-.77,1,1,0,0,0-.32-.76,1.49,1.49,0,0,0-1-.3,4.89,4.89,0,0,0-.9.08V8.45h.47Zm0-1.79a2.3,2.3,0,0,1,.44,0c.52,0,.85.23.85.72s-.34.77-.91.77a1.59,1.59,0,0,1-.39,0Z"/><path class="cls-3" d="M100.5,4.42H94a1.41,1.41,0,0,0-1.41,1.41v14.4A1.41,1.41,0,0,0,94,21.64h6.5a1.41,1.41,0,0,0,1.41-1.41V5.83a1.41,1.41,0,0,0-1.41-1.41M97.25,20.61a.94.94,0,1,1,.94-.94.94.94,0,0,1-.94.94m3.55-2.34H93.7V7.65h7.11Z"/><path class="cls-3" d="M141.18,5.78A1.27,1.27,0,0,0,140,7.19a1.21,1.21,0,0,0,1.28,1.31,2.12,2.12,0,0,0,.87-.17L142,8a1.8,1.8,0,0,1-.72.13.83.83,0,0,1-.89-.9h1.82a1.27,1.27,0,0,0,0-.23,1.1,1.1,0,0,0-1.07-1.23m-.76,1.11a.78.78,0,0,1,.73-.77.68.68,0,0,1,.65.77Z"/><path class="cls-3" d="M132.5,6.18c.45,0,.6.36.6.77v1.5h.47V6.9c0-.89-.56-1.11-.92-1.11a1,1,0,0,0-.86.48h0l0-.42h-.42c0,.22,0,.43,0,.71v1.9h.47V6.88a.72.72,0,0,1,0-.22.68.68,0,0,1,.63-.48"/><path class="cls-3" d="M138.92,7v1.5h.47V6.9c0-.9-.56-1.11-.91-1.11a.92.92,0,0,0-.48.13.85.85,0,0,0-.34.33h0V4.63h-.47V8.45h.47V6.88a.57.57,0,0,1,0-.23.69.69,0,0,1,.63-.47c.45,0,.6.35.6.77"/><path class="cls-3" d="M135.46,14.88c-1.33-.51-1.75-.92-1.75-1.66s.5-1.26,1.61-1.26a3.22,3.22,0,0,1,1.67.42l.12.07.4-1.19-.08,0a4.11,4.11,0,0,0-2.07-.46c-1.81,0-3.08,1.07-3.08,2.6,0,1.23.79,2.1,2.49,2.72,1.2.45,1.65.91,1.65,1.7s-.69,1.45-1.81,1.45a3.89,3.89,0,0,1-2-.58l-.12-.08-.38,1.21.07,0a4.86,4.86,0,0,0,2.4.62c2.44,0,3.31-1.49,3.31-2.76s-.69-2.12-2.4-2.8"/><path class="cls-3" d="M140.41,11.87l-1.39.44v1.18h-1v1.13h1V18.1a2.66,2.66,0,0,0,.49,1.8,1.82,1.82,0,0,0,1.37.54,3.35,3.35,0,0,0,1.1-.17l.08,0L142,19.11l-.14,0a2.15,2.15,0,0,1-.66.08c-.55,0-.79-.35-.79-1.17V14.62h1.71V13.49h-1.71Z"/><path class="cls-3" d="M156.46,13.33c-1.89,0-3.21,1.51-3.21,3.67a3.18,3.18,0,0,0,3.35,3.43,5.44,5.44,0,0,0,2.25-.43l.09,0-.27-1.06-.12,0a4.4,4.4,0,0,1-1.78.32,2,2,0,0,1-2.13-2.06h4.58l0-.09a3.13,3.13,0,0,0,0-.59c0-1.48-.74-3.21-2.82-3.21m-1.8,2.8a1.81,1.81,0,0,1,1.71-1.72,1.4,1.4,0,0,1,1,.4,2,2,0,0,1,.49,1.32Z"/><path class="cls-3" d="M145.64,13.34a3.34,3.34,0,0,0-3.37,3.61,3.24,3.24,0,0,0,3.27,3.5h0a3.35,3.35,0,0,0,3.37-3.62,3.59,3.59,0,0,0-.91-2.51,3.16,3.16,0,0,0-2.37-1m-.07,6h0c-1.08,0-1.86-1-1.86-2.42,0-1.22.59-2.44,1.9-2.44s1.86,1.25,1.86,2.4c0,1.42-.79,2.46-1.89,2.46"/><path class="cls-3" d="M150.17,8.45V6.9c0-.9-.56-1.11-.91-1.11a.92.92,0,0,0-.48.13.84.84,0,0,0-.34.33h0V4.63H148V8.45h.47V6.88a.57.57,0,0,1,0-.23.69.69,0,0,1,.63-.47c.45,0,.6.35.6.77v1.5Z"/><path class="cls-3" d="M153.27,13.4l-.09,0a1.38,1.38,0,0,0-.35,0,2,2,0,0,0-1.78,1.14l0-1h-1.27v.12c0,.56.05,1.19.05,2v4.64h1.42V16.67a3.78,3.78,0,0,1,0-.55,1.57,1.57,0,0,1,1.49-1.43l.38,0,.15,0Z"/><rect class="cls-3" x="115.36" y="5.85" width="0.47" height="2.6"/><path class="cls-3" d="M110.06,10.91l-3.19,9.39h1.46l1-2.88h3.09l1,2.88h1.5l-3.2-9.39Zm-.46,5.36.85-2.5c.13-.41.25-.85.37-1.31.11.42.22.85.37,1.32l.86,2.49Z"/><path class="cls-3" d="M115.58,5.37h0a.3.3,0,0,0,.31-.31.29.29,0,0,0-.3-.3.3.3,0,0,0,0,.61"/><path class="cls-3" d="M119,13.34a2.66,2.66,0,0,0-2.26,1.08l-.06-.93h-1.3v.12c0,.58.05,1.22.05,2.14V23h1.42V19.61a2.49,2.49,0,0,0,1.94.83,2.93,2.93,0,0,0,2.15-.91,3.88,3.88,0,0,0,1-2.73,3.77,3.77,0,0,0-.83-2.49,2.7,2.7,0,0,0-2.09-1m-.41,5.94A1.72,1.72,0,0,1,116.9,18a1.82,1.82,0,0,1-.05-.46V16.36a2.13,2.13,0,0,1,0-.35l0-.12a1.8,1.8,0,0,1,1.71-1.38c1.27,0,1.83,1.17,1.83,2.33,0,1.5-.72,2.43-1.89,2.43"/><path class="cls-3" d="M129.53,5.79a1.27,1.27,0,0,0-1.29,1.38,1.24,1.24,0,0,0,1.25,1.34h0a1.28,1.28,0,0,0,1.29-1.39,1.23,1.23,0,0,0-1.25-1.33m0,2.37h0c-.46,0-.78-.43-.78-1s.24-1,.8-1,.78.55.78,1c0,.59-.34,1-.79,1"/><path class="cls-3" d="M126.29,13.34A2.66,2.66,0,0,0,124,14.42l-.06-.93h-1.3v.12c0,.58.05,1.22.05,2.14V23h1.42V19.61a2.49,2.49,0,0,0,1.94.83,2.93,2.93,0,0,0,2.15-.91,3.88,3.88,0,0,0,.95-2.73,3.77,3.77,0,0,0-.83-2.49,2.7,2.7,0,0,0-2.09-1m-.41,5.94A1.72,1.72,0,0,1,124.21,18a1.82,1.82,0,0,1-.05-.46V16.36a2.09,2.09,0,0,1,0-.35l0-.11a1.8,1.8,0,0,1,1.71-1.38c1.27,0,1.83,1.17,1.83,2.33,0,1.5-.72,2.43-1.89,2.43"/><path class="cls-3" d="M121.76,5.79a1,1,0,0,0-.89.47h0V4.63h-.47V7.78c0,.23,0,.49,0,.67h.41l0-.43h0a.93.93,0,0,0,.87.49,1.24,1.24,0,0,0,1.17-1.4c0-.79-.45-1.32-1.1-1.32m-.17,2.34a.74.74,0,0,1-.71-.55.88.88,0,0,1,0-.17V6.94a.79.79,0,0,1,.74-.78c.51,0,.77.45.77,1s-.29,1-.79,1"/><path class="cls-2" d="M78.07,4.18v18.1a3.68,3.68,0,0,1-4,3.74H4.18A4.18,4.18,0,0,1,0,21.84V4.18A4.18,4.18,0,0,1,4.18,0H74.07a4,4,0,0,1,4,4.18"/><path class="cls-3" d="M23.87,17.34l1.69-.09v1.8a3.34,3.34,0,0,1-1.42.28,4,4,0,0,1-4-4.08,3.09,3.09,0,0,1,3.1-3.3A3.19,3.19,0,0,1,25.67,13l-.28.45.39-.09.93-.88a4.31,4.31,0,0,0-1.48-.7,6.55,6.55,0,0,0-1.71-.23A4.23,4.23,0,0,0,19,15.73a4,4,0,0,0,4.26,4,11.65,11.65,0,0,0,1.85-.19l1.6-.37V17.85c0-.11,0-.44,0-.54a.26.26,0,0,1,.11-.18l.29-.28H24.77Z"/><polygon class="cls-3" points="25.97 6.86 24.05 6.86 24.05 5.8 25.93 5.8 25.93 5.22 24.05 5.22 24.05 4.25 25.97 4.25 25.97 3.67 23.38 3.67 23.38 7.44 25.97 7.44 25.97 6.86"/><path class="cls-3" d="M30.56,13.92a3,3,0,0,0-3.09,2.9,2.81,2.81,0,0,0,2.91,2.81,2.91,2.91,0,0,0,3-2.9,2.79,2.79,0,0,0-2.85-2.81m1.31,4.75a1.53,1.53,0,0,1-1.22.61c-1.44,0-2-1.94-2-3.12a1.8,1.8,0,0,1,.55-1.46,1.65,1.65,0,0,1,1.07-.41c1.48,0,2,2,2,3.05a2.15,2.15,0,0,1-.36,1.32"/><path class="cls-3" d="M21,7.51a2,2,0,0,0,1.55-.69V5.41H20.78V6h1.13v.58a1.36,1.36,0,0,1-.89.34,1.3,1.3,0,0,1-1.3-1.36A1.29,1.29,0,0,1,21,4.19a1.22,1.22,0,0,1,1,.5l.54-.31A1.77,1.77,0,0,0,21,3.6a1.9,1.9,0,0,0-2,2,1.91,1.91,0,0,0,2,2"/><polygon class="cls-3" points="43.65 4.74 45.62 7.44 46.26 7.44 46.26 3.67 45.6 3.67 45.6 6.28 43.67 3.67 42.99 3.67 42.99 7.44 43.65 7.44 43.65 4.74"/><path class="cls-3" d="M40.29,7.51a1.88,1.88,0,0,0,1.93-2,1.93,1.93,0,1,0-3.86,0,1.87,1.87,0,0,0,1.93,2m0-3.32a1.25,1.25,0,0,1,1.25,1.36,1.26,1.26,0,1,1-2.5,0,1.25,1.25,0,0,1,1.25-1.36"/><polygon class="cls-3" points="27.8 7.44 28.46 7.44 28.46 4.25 29.61 4.25 29.61 3.67 26.66 3.67 26.66 4.25 27.8 4.25 27.8 7.44"/><rect class="cls-3" x="31.91" y="3.67" width="0.66" height="3.77"/><polygon class="cls-3" points="34.41 7.44 35.08 7.44 35.08 4.25 36.22 4.25 36.22 3.67 33.27 3.67 33.27 4.25 34.41 4.25 34.41 7.44"/><path class="cls-3" d="M58.64,13.89a2.4,2.4,0,0,0-1.95,1V14h-.6v7.73h.6v-3a2.39,2.39,0,0,0,1.95,1c1.5,0,2.5-1.16,2.5-2.94s-1-2.93-2.5-2.93m-.1,5.33a2.42,2.42,0,0,1-1.84-1.17V15.58a2.4,2.4,0,0,1,1.84-1.14c1.25,0,2,1,2,2.39s-.71,2.4-2,2.4"/><path class="cls-3" d="M36.91,13.92a3,3,0,0,0-3.09,2.9,2.81,2.81,0,0,0,2.91,2.81,2.91,2.91,0,0,0,3-2.9,2.79,2.79,0,0,0-2.85-2.81m1.31,4.75a1.53,1.53,0,0,1-1.22.61c-1.45,0-2-1.94-2-3.12a1.8,1.8,0,0,1,.55-1.46,1.66,1.66,0,0,1,1.08-.41c1.48,0,2,2,2,3.05a2.14,2.14,0,0,1-.36,1.32"/><path class="cls-3" d="M68.12,18.48V15.72a1.62,1.62,0,0,0-.6-1.36,2.51,2.51,0,0,0-1.59-.47,2.54,2.54,0,0,0-1.61.48,1.3,1.3,0,0,0-.58,1.11v0h.62a1,1,0,0,1,.42-.78,1.83,1.83,0,0,1,1.11-.31,1.75,1.75,0,0,1,1.16.34,1.17,1.17,0,0,1,.41.94v.7H66.05a3.26,3.26,0,0,0-1.84.47,1.41,1.41,0,0,0-.71,1.22A1.53,1.53,0,0,0,64,19.29a2,2,0,0,0,1.37.44,2.57,2.57,0,0,0,2.09-1.05,3.31,3.31,0,0,0,0,.44c0,.14.05.31.09.51h.7a3.6,3.6,0,0,1-.12-.55,4.27,4.27,0,0,1,0-.58M67.46,18a1.73,1.73,0,0,1-.76.87,2.27,2.27,0,0,1-1.26.34,1.36,1.36,0,0,1-.93-.29,1,1,0,0,1-.34-.77,1,1,0,0,1,.53-.87A2.32,2.32,0,0,1,66,16.88h1.41Z"/><rect class="cls-3" x="61.97" y="11.9" width="0.6" height="7.73"/><path class="cls-3" d="M73.48,14l-2,4.89-2-4.89h-.67l2.38,5.64-.44,1c-.23.53-.49.68-.86.68a1.45,1.45,0,0,1-.49-.09l-.1.56a2.41,2.41,0,0,0,.6.08,1.48,1.48,0,0,0,1.42-1L74.17,14Z"/><path class="cls-3" d="M53.23,18.66a3,3,0,0,1-1.37.38,2.65,2.65,0,0,1-2.46-2.4l.92-.07,2.81-1.13a2,2,0,0,0-.84-1.18,2.33,2.33,0,0,0-1.23-.33,2.71,2.71,0,0,0-2.73,2.76,3.08,3.08,0,0,0,1.22,2.52,2.55,2.55,0,0,0,1.59.47,2.77,2.77,0,0,0,1.16-.22c.13-.06.26-.14.39-.22l.57-.54c.06-.06,0,0,0,0M49.35,16a1.47,1.47,0,0,1,1.37-1.66,1.19,1.19,0,0,1,1.18,1c0,.17-.12.24-.35.32l-2.17.94c0-.21,0-.43,0-.63"/><path class="cls-3" d="M45.63,14.07H43.18a3.26,3.26,0,0,0-2.14.66,2.14,2.14,0,0,0-.76,1.6,1.89,1.89,0,0,0,2,1.87l.38,0a1.08,1.08,0,0,0-.12.46,1.26,1.26,0,0,0,.36.81A5.14,5.14,0,0,0,40.6,20a1.71,1.71,0,0,0-.92,1.46c0,.88.84,1.71,2.56,1.71,2.05,0,3.14-1.13,3.14-2.25a2.08,2.08,0,0,0-1-1.67l-.43-.33a.66.66,0,0,1-.31-.51.85.85,0,0,1,.33-.58,1.94,1.94,0,0,0,.15-3.3h.74Zm-1.05,7.3c0,.74-.61,1.29-1.75,1.29s-2.1-.61-2.1-1.46a1.34,1.34,0,0,1,1-1.23A4.72,4.72,0,0,1,43,19.79h.27c.91.65,1.3,1,1.3,1.58m-1-3.84a1.22,1.22,0,0,1-.81.33c-1,0-1.49-1.33-1.49-2.12a1.38,1.38,0,0,1,.26-.88,1.11,1.11,0,0,1,.83-.39c1,0,1.5,1.34,1.5,2.19a1.2,1.2,0,0,1-.3.87"/><path class="cls-3" d="M47.39,18.58V11.82a.82.82,0,0,1,.53-.76H46.21l-.89.43h.93v7.36c0,.24,0,.27-.32.63H48l.44-.26-.61-.06c-.39,0-.47-.11-.47-.57"/><g class="cls-4"><rect class="cls-5" x="4.66" y="9.87" width="9.18" height="7.76" transform="translate(-2.85 2.43) rotate(-12.96)"/></g><g class="cls-6"><rect class="cls-7" x="10.72" y="13.9" width="6.23" height="5.82" transform="matrix(0.86, -0.51, 0.51, 0.86, -6.6, 9.3)"/></g><g class="cls-8"><rect class="cls-9" x="3.45" y="10.09" width="9.33" height="13.44" transform="translate(-3.96 2.57) rotate(-14.53)"/></g><g class="cls-10"><rect class="cls-11" x="4.86" y="16.29" width="8.79" height="7.2" transform="translate(-2.61 1.44) rotate(-7.8)"/></g></g></g></svg>