<svg xmlns="http://www.w3.org/2000/svg" viewBox="0 0 10.05 18.59"><defs><style>.cls-1{fill:#fff;}</style></defs><title>FACEBOOK</title><g id="Livello_2" data-name="Livello 2"><g id="Livello_1-2" data-name="Livello 1"><path class="cls-1" d="M9.67,0H7.26A4.23,4.23,0,0,0,2.8,4.58V6.69H.38A.38.38,0,0,0,0,7.06v3.06a.38.38,0,0,0,.38.38H2.8v7.71a.38.38,0,0,0,.38.38H6.34a.38.38,0,0,0,.38-.38V10.5H9.56a.38.38,0,0,0,.38-.38V7.06a.38.38,0,0,0-.11-.27.38.38,0,0,0-.27-.11H6.72V4.9C6.72,4,6.93,3.6,8,3.6H9.67a.38.38,0,0,0,.38-.38V.38A.38.38,0,0,0,9.67,0Zm0,0"/></g></g></svg>