<svg xmlns="http://www.w3.org/2000/svg" viewBox="0 0 22.33 22.33"><defs><style>.cls-1{fill:#e11f21;}</style></defs><title>INSTAGRAM_SOCIAL</title><g id="Livello_2" data-name="Livello 2"><g id="Livello_1-2" data-name="Livello 1"><path class="cls-1" d="M16.17,0h-10A6.17,6.17,0,0,0,0,6.16v10a6.17,6.17,0,0,0,6.16,6.16h10a6.17,6.17,0,0,0,6.16-6.16v-10A6.17,6.17,0,0,0,16.17,0Zm4.18,16.17a4.19,4.19,0,0,1-4.18,4.18h-10A4.19,4.19,0,0,1,2,16.17v-10A4.19,4.19,0,0,1,6.16,2h10a4.19,4.19,0,0,1,4.18,4.18Zm0,0"/><path class="cls-1" d="M11.17,5.41a5.75,5.75,0,1,0,5.76,5.75,5.76,5.76,0,0,0-5.76-5.75Zm0,9.53a3.77,3.77,0,1,1,3.77-3.77,3.78,3.78,0,0,1-3.77,3.77Zm0,0"/><path class="cls-1" d="M17.16,3.73a1.45,1.45,0,1,0,1,.43,1.46,1.46,0,0,0-1-.43Zm0,0"/></g></g></svg>