<svg xmlns="http://www.w3.org/2000/svg" viewBox="0 0 20.5 19.59"><defs><style>.cls-1{fill:#fff;}</style></defs><title>LINKEDIN </title><g id="Livello_2" data-name="Livello 2"><g id="Livello_1-2" data-name="Livello 1"><rect class="cls-1" x="0.25" y="6.37" width="4.4" height="13.23"/><path class="cls-1" d="M15.57,10.32a3.87,3.87,0,0,1,.54,2.2v7.07H20.5V12a6.35,6.35,0,0,0-1.39-4.44h0a4.74,4.74,0,0,0-3.67-1.52,5.3,5.3,0,0,0-1.53.21,3.49,3.49,0,0,0-1.16.58,5.74,5.74,0,0,0-.75.69,5.61,5.61,0,0,0-.52.71V6.37H7.09V7q0,.64,0,4t0,8.63h4.39V12.21a3.23,3.23,0,0,1,.15-1.08A2.84,2.84,0,0,1,12.47,10a2.16,2.16,0,0,1,1.41-.46,1.9,1.9,0,0,1,1.69.79m3.54-2.75"/><path class="cls-1" d="M2.48,0A2.51,2.51,0,0,0,.69.65,2.15,2.15,0,0,0,0,2.28,2.19,2.19,0,0,0,.67,3.91a2.41,2.41,0,0,0,1.76.65h0a2.51,2.51,0,0,0,1.81-.65,2.11,2.11,0,0,0,.67-1.63A2.23,2.23,0,0,0,4.26.65,2.44,2.44,0,0,0,2.48,0Zm0,0"/></g></g></svg>