<svg xmlns="http://www.w3.org/2000/svg" viewBox="0 0 16.39 16.39"><defs><style>.cls-1{fill:#e11f21;}</style></defs><title>LOGIN NON LOGGATO</title><g id="Livello_2" data-name="Livello 2"><g id="Livello_1-2" data-name="Livello 1"><path class="cls-1" d="M8.19,0a8.19,8.19,0,1,0,8.19,8.19A8.22,8.22,0,0,0,8.19,0Zm0,2.46a2.42,2.42,0,0,1,2.46,2.46A2.41,2.41,0,0,1,8.19,7.37,2.41,2.41,0,0,1,5.74,4.92,2.42,2.42,0,0,1,8.19,2.46Zm0,11.64a6,6,0,0,1-4.92-2.63c0-1.64,3.28-2.54,4.92-2.54s4.92.9,4.92,2.54A6,6,0,0,1,8.19,14.1Zm0,0"/></g></g></svg>