<svg id="Layer_1" data-name="Layer 1" xmlns="http://www.w3.org/2000/svg" viewBox="0 0 500 500"><defs><style>.cls-1{fill:#e11f21;}.cls-2{fill:#fff;}</style></defs><title>Untitled-1</title><rect class="cls-1" width="500" height="500" rx="21.51" ry="21.51"/><path class="cls-1" d="M72.61,427.54q0-177.47,0-354.93H427.54q0,177.47,0,354.93Zm124-206.11H201c4,0,8.05-.13,12.07.06,7,.33,11.08,5.92,9.44,12.78a16.75,16.75,0,0,1-16.15,13c-3.67.05-7.35.23-11-.05-3.26-.25-4.46.94-5.12,4.12-6,29.3-12.23,58.56-18.37,87.83-2.45,11.68-5.08,23.34-7.26,35.07a16.25,16.25,0,0,0,14.29,19.29c13.41,1.3,26.15-7.58,29.08-20.77,3.82-17.19,7.27-34.47,10.9-51.71,1.48-7,3-14,4.57-21.12,3,1.69,5.46,3.28,8.09,4.57,11.63,5.73,24,6.09,36.42,4.13,14.88-2.34,28.62-7.82,40-17.74,10.94-9.51,11.31-24.37-5.17-31.75-7.16-3.21-14.33-1.18-21.07,2.53C272.12,267,261.9,268.4,251.3,265c-6.37-2.05-11-6.22-12.37-13-.9-4.58-1.77-9.53-1-14,3.31-19.08,6.93-38.12,11.15-57a39.18,39.18,0,0,1,7.54-15.83c10-12.19,23.68-14.77,38.56-11.94,8.8,1.68,14,7.29,15.86,16.11.43,2.06.15,3.43-1.7,4.81-6.71,5-13.25,10.31-19.88,15.46a20.15,20.15,0,0,0-7.78,11.89c-2.67,12.12-5.48,24.21-8.23,36.32-1.72,7.58-1.63,7.74,5.89,10.25,1.22.41,2.45.77,2.92.92,2.48-1.56,4.26-3.25,6.35-3.89,4.91-1.48,9.21.28,12.21,4.88,2.21,3.38,5.16,4.84,9,4.37a28.34,28.34,0,0,0,7.55-1.74,91.12,91.12,0,0,0,30.22-20.71,15.42,15.42,0,0,1,3.73-3.2c1-.5,2.42-.11,3.66-.13,0,1.1.36,2.4-.1,3.25-1.83,3.43-3.93,6.73-5.92,10.08-1,1.6-1.89,3.22-2.83,4.83l.72.57c4-4.36,7.87-8.88,14-10.3,5.57-1.29,11.07-3.51,17.2-.82l-35.6,22,.8,1.47c8.07-3.56,16.16-7.06,24.19-10.71a7.89,7.89,0,0,0,3.59-2.81c2.66-4.74,7.24-5.57,11.89-6.46.81-.15,1.6-.41,2.4-.61,3.49-.89,5.35-3.26,6.06-6.67,3-14.23,6-28.46,8.89-42.71a6.69,6.69,0,0,0-.63-4.33c-4.41-7.56-9-15-13.57-22.46-2.48-4-6.22-4.41-9.34-1a55.79,55.79,0,0,0-5.85,8c-1.62,2.61-.93,5,1.64,6.75,1.07.73,2.24,1.32,3.36,2l14.21,8.2c-6.49-1.29-12.62-3.42-18.9-5a8.87,8.87,0,0,0-6.58.93,11.58,11.58,0,0,0-4,6.28c-2.28,9.54-4.17,19.17-6.11,28.78-.76,3.79-2.84,6.13-6.61,7q-4.67,1-9.34,2.11-27.31,6.27-54.62,12.54c-4.08.93-5,0-4.13-4.11,2.35-10.86,4.67-21.73,7.13-32.57a13.44,13.44,0,0,1,10.35-10.57c18.55-4.75,37.15-9.31,55.72-14,2.62-.66,6.14-.89,7.55-2.67,6.28-7.91,12.73-15.88,17.53-24.69,2.93-5.38,3-12.31,4.29-18.57,1.07-5.34-1.34-7.4-6.54-5.8-8.36,2.57-16.75,5.07-25.08,7.72-2.12.68-3.31.37-4.62-1.61a47.5,47.5,0,0,0-18.79-16.34c-16.2-8-33.23-8.62-50.55-5-6.2,1.28-12.22,3.42-18.47,5.21a16.89,16.89,0,0,0-13.17-9c-12.79-1.61-26.46,8.36-29.06,20.94Q210,157.71,203.84,187C201.5,198.24,199.12,209.43,196.59,221.43Zm-40.27,18.9h48.2a41.08,41.08,0,0,0,5-.09c3.2-.39,6.23-4.17,6-7.31-.18-2.82-2.13-4.11-6.27-4.16H110a22.83,22.83,0,0,0-3.19.08c-3.64.52-7,4.37-6.54,7.66.55,4.16,3.79,3.82,6.78,3.82Zm21.55,41c-1.3-.12-2-.25-2.69-.25H112a9.61,9.61,0,0,0-2.12.17c-3.15.72-5.8,4.33-5.42,7.41.37,2.91,2.36,4,5,4,21.18,0,42.35,0,63.53-.07a3.56,3.56,0,0,0,2.69-1.91C176.62,287.74,177.12,284.71,177.87,281.32Zm21.73-104.18a11.25,11.25,0,0,0-2-.39c-13.8,0-27.61-.12-41.41.1a7.74,7.74,0,0,0-5.38,2.71,8.58,8.58,0,0,0-1.24,6.1c.2,1.08,2.63,2.48,4.08,2.5,13.8.19,27.61.16,41.41,0a3.54,3.54,0,0,0,2.61-2C198.56,183.27,199,180.25,199.59,177.14Z" transform="translate(0)"/><path class="cls-2" d="M196.59,221.43c2.53-12,4.91-23.2,7.25-34.4q6.14-29.33,12.25-58.67c2.6-12.59,16.26-22.55,29.06-20.94a16.89,16.89,0,0,1,13.17,9c6.26-1.79,12.28-3.93,18.47-5.21,17.32-3.59,34.35-3,50.55,5a47.5,47.5,0,0,1,18.79,16.34c1.32,2,2.5,2.29,4.62,1.61,8.33-2.65,16.72-5.15,25.08-7.72,5.2-1.6,7.6.46,6.54,5.8-1.25,6.26-1.36,13.19-4.29,18.57-4.8,8.81-11.26,16.78-17.53,24.69-1.41,1.77-4.93,2-7.55,2.67-18.57,4.7-37.17,9.26-55.72,14a13.44,13.44,0,0,0-10.35,10.57c-2.45,10.84-4.78,21.7-7.13,32.57-.89,4.1.05,5,4.13,4.11q27.31-6.24,54.62-12.54,4.67-1.07,9.34-2.11c3.77-.84,5.85-3.18,6.61-7,1.94-9.62,3.83-19.25,6.11-28.78a11.58,11.58,0,0,1,4-6.28,8.87,8.87,0,0,1,6.58-.93c6.28,1.56,12.41,3.68,18.9,5l-14.21-8.2c-1.13-.65-2.29-1.25-3.36-2-2.56-1.74-3.25-4.14-1.64-6.75a55.79,55.79,0,0,1,5.85-8c3.12-3.46,6.86-3,9.34,1,4.62,7.43,9.16,14.91,13.57,22.46a6.69,6.69,0,0,1,.63,4.33c-2.88,14.25-5.91,28.48-8.89,42.71-.72,3.42-2.57,5.79-6.06,6.67-.8.2-1.59.46-2.4.61-4.65.88-9.23,1.72-11.89,6.46a7.89,7.89,0,0,1-3.59,2.81c-8,3.65-16.12,7.16-24.19,10.71l-.8-1.47,35.6-22c-6.13-2.69-11.63-.47-17.2.82-6.13,1.42-10,5.94-14,10.3l-.72-.57c.94-1.61,1.88-3.22,2.83-4.83,2-3.35,4.09-6.64,5.92-10.08.46-.86.09-2.16.1-3.25-1.24,0-2.67-.38-3.66.13a15.42,15.42,0,0,0-3.73,3.2,91.12,91.12,0,0,1-30.22,20.71,28.34,28.34,0,0,1-7.55,1.74c-3.84.47-6.79-1-9-4.37-3-4.6-7.3-6.36-12.21-4.88-2.09.63-3.87,2.32-6.35,3.89-.47-.15-1.7-.52-2.92-.92-7.52-2.51-7.62-2.66-5.89-10.25,2.75-12.1,5.57-24.19,8.23-36.32a20.15,20.15,0,0,1,7.78-11.89c6.63-5.15,13.17-10.42,19.88-15.46,1.85-1.38,2.12-2.75,1.7-4.81-1.82-8.82-7.06-14.44-15.86-16.11-14.88-2.83-28.55-.25-38.56,11.94A39.18,39.18,0,0,0,249.09,181c-4.22,18.9-7.84,37.94-11.15,57-.78,4.5.09,9.44,1,14,1.32,6.73,6,10.9,12.37,13,10.61,3.42,20.82,2,30.48-3.34,6.74-3.71,13.91-5.73,21.07-2.53,16.48,7.38,16.12,22.24,5.17,31.75-11.42,9.92-25.15,15.4-40,17.74-12.47,2-24.79,1.6-36.42-4.13-2.63-1.29-5.11-2.88-8.09-4.57C221.93,307,220.38,314,218.9,321c-3.63,17.24-7.08,34.51-10.9,51.71-2.93,13.18-15.67,22.07-29.08,20.77a16.25,16.25,0,0,1-14.29-19.29c2.19-11.73,4.81-23.39,7.26-35.07,6.14-29.27,12.34-58.53,18.37-87.83.65-3.18,1.86-4.37,5.12-4.12,3.65.28,7.33.11,11,.05a16.75,16.75,0,0,0,16.15-13c1.64-6.86-2.41-12.46-9.44-12.78-4-.19-8-.05-12.07-.06ZM364.94,146c0-2.9-2-4.42-5.09-3.55-7.73,2.17-15.45,4.41-23.12,6.78a11.4,11.4,0,0,0-7.57,7.87c-1.3,4,.84,6.42,4.91,5.35,7.43-1.94,14.83-4,22.18-6.19C360.91,154.89,364.92,149.89,364.94,146Z" transform="translate(0)"/><path class="cls-2" d="M156.32,240.33H107c-3,0-6.22.34-6.78-3.82-.44-3.3,2.9-7.15,6.54-7.66a22.83,22.83,0,0,1,3.19-.08h99.24c4.15,0,6.1,1.34,6.27,4.16.2,3.14-2.84,6.91-6,7.31a41.08,41.08,0,0,1-5,.09Z" transform="translate(0)"/><path class="cls-2" d="M177.87,281.32c-.75,3.39-1.25,6.43-2.18,9.32a3.56,3.56,0,0,1-2.69,1.91c-21.18.11-42.35.09-63.53.07-2.64,0-4.64-1.05-5-4-.39-3.08,2.27-6.69,5.42-7.41a9.61,9.61,0,0,1,2.12-.17h63.18C175.87,281.07,176.57,281.19,177.87,281.32Z" transform="translate(0)"/><path class="cls-2" d="M199.59,177.14c-.61,3.11-1,6.13-1.89,9a3.54,3.54,0,0,1-2.61,2c-13.8.12-27.61.16-41.41,0-1.44,0-3.88-1.42-4.08-2.5a8.58,8.58,0,0,1,1.24-6.1,7.74,7.74,0,0,1,5.38-2.71c13.8-.22,27.61-.12,41.41-.1A11.25,11.25,0,0,1,199.59,177.14Z" transform="translate(0)"/><path class="cls-1" d="M364.94,146c0,3.86-4,8.86-8.69,10.26-7.35,2.22-14.76,4.25-22.18,6.19-4.07,1.07-6.21-1.34-4.91-5.35a11.4,11.4,0,0,1,7.57-7.87c7.67-2.38,15.39-4.61,23.12-6.78C362.95,141.62,365,143.13,364.94,146Z" transform="translate(0)"/></svg>