<?xml version="1.0" encoding="utf-8"?>
<!-- Generator: Adobe Illustrator 21.1.0, SVG Export Plug-In . SVG Version: 6.00 Build 0)  -->
<svg version="1.1" id="Livello_1" xmlns="http://www.w3.org/2000/svg" xmlns:xlink="http://www.w3.org/1999/xlink" x="0px" y="0px"
	 viewBox="0 0 77.2 50.5" style="enable-background:new 0 0 77.2 50.5;" xml:space="preserve">
<style type="text/css">
	.st0{fill:#E11F21;}
	.st1{fill:#E01F21;}
	.st2{fill:#FFFFFF;}
</style>
<g>
	<g>
		<g>
			<polygon class="st0" points="73.2,50.5 4,50.5 4,28.5 4.7,28.5 4.7,49.8 72.5,49.8 72.5,28.5 73.2,28.5 			"/>
		</g>
	</g>
	<path class="st1" d="M52.2,0H25H0v23.5c0,1.7,1.4,3.1,3.1,3.1c0.8,0,1.5-0.3,2.1-0.8c0.6,0.5,1.3,0.8,2.1,0.8
		c0.8,0,1.5-0.3,2.1-0.8c0.6,0.5,1.3,0.8,2.1,0.8c0.8,0,1.5-0.3,2.1-0.8c0.6,0.5,1.3,0.8,2.1,0.8c0.8,0,1.5-0.3,2.1-0.8
		c0.6,0.5,1.3,0.8,2.1,0.8c0.8,0,1.5-0.3,2.1-0.8c0.6,0.5,1.3,0.8,2.1,0.8c0.8,0,1.5-0.3,2.1-0.8c0,0,0,0,0.1,0c0,0,0.1,0.1,0.1,0.1
		c0,0,0.1,0.1,0.1,0.1c0,0,0.1,0.1,0.1,0.1c0,0,0.1,0.1,0.1,0.1c0,0,0.1,0,0.1,0.1c0,0,0.1,0,0.1,0.1c0,0,0.1,0,0.1,0.1
		c0.1,0,0.1,0,0.2,0.1c0,0,0.1,0,0.1,0c0.1,0,0.1,0,0.2,0c0,0,0.1,0,0.1,0c0.1,0,0.1,0,0.2,0c0,0,0.1,0,0.1,0c0.1,0,0.2,0,0.3,0
		c0.8,0,1.5-0.3,2.1-0.8c0.6,0.5,1.3,0.8,2.1,0.8c0.8,0,1.5-0.3,2.1-0.8c0.6,0.5,1.3,0.8,2.1,0.8c0.8,0,1.5-0.3,2.1-0.8
		c0.6,0.5,1.3,0.8,2.1,0.8c0.8,0,1.5-0.3,2.1-0.8c0.6,0.5,1.3,0.8,2.1,0.8c0.8,0,1.5-0.3,2.1-0.8c0.6,0.5,1.3,0.8,2.1,0.8
		c0.1,0,0.2,0,0.3,0c0,0,0.1,0,0.1,0c0.1,0,0.1,0,0.2,0c0,0,0.1,0,0.1,0c0.1,0,0.1,0,0.2,0c0,0,0.1,0,0.1,0c0.1,0,0.1,0,0.2-0.1
		c0,0,0.1,0,0.1-0.1c0,0,0.1,0,0.1-0.1c0,0,0.1,0,0.1-0.1c0,0,0.1-0.1,0.1-0.1c0,0,0.1,0,0.1-0.1c0,0,0.1-0.1,0.1-0.1
		c0,0,0.1-0.1,0.1-0.1c0,0,0,0,0.1,0c0.6,0.5,1.3,0.8,2.1,0.8c0.8,0,1.5-0.3,2.1-0.8c0.6,0.5,1.3,0.8,2.1,0.8c0.8,0,1.5-0.3,2.1-0.8
		c0.6,0.5,1.3,0.8,2.1,0.8c0.8,0,1.5-0.3,2.1-0.8c0.6,0.5,1.3,0.8,2.1,0.8c0.8,0,1.5-0.3,2.1-0.8c0.6,0.5,1.3,0.8,2.1,0.8
		s1.5-0.3,2.1-0.8c0.6,0.5,1.3,0.8,2.1,0.8c1.7,0,3.1-1.4,3.1-3.1V0H52.2z M3.1,24.5c-0.6,0-1-0.5-1-1V2.1h2.1v21.4
		C4.2,24.1,3.7,24.5,3.1,24.5z M7.3,24.5c-0.6,0-1-0.5-1-1V2.1h2.1v21.4C8.3,24.1,7.9,24.5,7.3,24.5z M11.5,24.5c-0.6,0-1-0.5-1-1
		V2.1h2.1v21.4C12.5,24.1,12.1,24.5,11.5,24.5z M15.7,24.5c-0.6,0-1-0.5-1-1V2.1h2.1v21.4C16.7,24.1,16.2,24.5,15.7,24.5z
		 M19.8,24.5c-0.6,0-1-0.5-1-1V2.1h2.1v21.4C20.9,24.1,20.4,24.5,19.8,24.5z M24,24.5c-0.6,0-1-0.5-1-1V2.1H25v21.4
		C25,24.1,24.6,24.5,24,24.5z M28.2,24.5c-0.6,0-1-0.5-1-1V2.1h2.1v21.4C29.2,24.1,28.8,24.5,28.2,24.5z M32.4,24.5
		c-0.6,0-1-0.5-1-1V2.1h2.1v21.4C33.4,24.1,32.9,24.5,32.4,24.5z M36.5,24.5c-0.6,0-1-0.5-1-1V2.1h2.1v21.4
		C37.6,24.1,37.1,24.5,36.5,24.5z M40.7,24.5c-0.6,0-1-0.5-1-1V2.1h2.1v21.4C41.7,24.1,41.3,24.5,40.7,24.5z M44.9,24.5
		c-0.6,0-1-0.5-1-1V2.1h2.1v21.4C45.9,24.1,45.5,24.5,44.9,24.5z M48,23.5V2.1h2.1v21.4c0,0.6-0.5,1-1,1S48,24.1,48,23.5z
		 M53.2,24.5c-0.6,0-1-0.5-1-1V2.1h2.1v21.4C54.3,24.1,53.8,24.5,53.2,24.5z M57.4,24.5c-0.6,0-1-0.5-1-1V2.1h2.1v21.4
		C58.4,24.1,58,24.5,57.4,24.5z M61.6,24.5c-0.6,0-1-0.5-1-1V2.1h2.1v21.4C62.6,24.1,62.2,24.5,61.6,24.5z M65.8,24.5
		c-0.6,0-1-0.5-1-1V2.1h2.1v21.4C66.8,24.1,66.3,24.5,65.8,24.5z M69.9,24.5c-0.6,0-1-0.5-1-1V2.1H71v21.4
		C71,24.1,70.5,24.5,69.9,24.5z M75.1,23.5c0,0.6-0.5,1-1,1c-0.6,0-1-0.5-1-1V2.1h2.1V23.5z"/>
	<g>
		<g>
			<g>
				<polygon class="st0" points="27,50.1 26.3,50.1 26.3,31.1 15.2,31.1 15.2,50.1 14.6,50.1 14.6,30.5 27,30.5 				"/>
			</g>
		</g>
		<g>
			<g>
				<path class="st0" d="M62.7,43.7h-29V32.5h29V43.7z M34.4,43H62v-9.8H34.4V43z"/>
			</g>
		</g>
	</g>
	<g>
		<g>
			<rect x="2.1" y="7.9" class="st2" width="73.1" height="9.9"/>
		</g>
		<g>
			<path class="st1" d="M7.1,13.3v1.7H6.3v-4.4h1.4c0.3,0,0.6,0,0.8,0.1s0.4,0.2,0.5,0.3c0.1,0.1,0.2,0.2,0.3,0.4
				c0.1,0.2,0.1,0.3,0.1,0.5c0,0.1,0,0.3-0.1,0.4c0,0.1-0.1,0.3-0.2,0.4C9,12.8,8.9,12.9,8.8,13c-0.1,0.1-0.3,0.1-0.4,0.2
				c0.1,0.1,0.2,0.1,0.3,0.3l1.1,1.6H9c-0.1,0-0.1,0-0.2,0c-0.1,0-0.1-0.1-0.1-0.1l-0.9-1.4c0-0.1-0.1-0.1-0.1-0.1s-0.1,0-0.2,0H7.1
				z M7.1,12.7h0.5c0.2,0,0.3,0,0.4-0.1c0.1,0,0.2-0.1,0.3-0.2c0.1-0.1,0.1-0.2,0.2-0.2c0-0.1,0.1-0.2,0.1-0.3
				c0-0.2-0.1-0.4-0.2-0.5c-0.1-0.1-0.4-0.2-0.7-0.2H7.1V12.7z"/>
			<path class="st1" d="M14.3,15.1h-0.8v-4.4h0.8V15.1z"/>
			<path class="st1" d="M20.7,11.4C20.7,11.5,20.7,11.5,20.7,11.4c-0.1,0.1-0.1,0.1-0.2,0.1c0,0-0.1,0-0.1,0c-0.1,0-0.1-0.1-0.2-0.1
				c-0.1,0-0.2-0.1-0.2-0.1c-0.1,0-0.2,0-0.3,0c-0.1,0-0.2,0-0.3,0s-0.2,0.1-0.2,0.1c-0.1,0-0.1,0.1-0.1,0.2c0,0.1,0,0.1,0,0.2
				c0,0.1,0,0.2,0.1,0.3c0.1,0.1,0.1,0.1,0.2,0.2c0.1,0,0.2,0.1,0.3,0.1s0.2,0.1,0.4,0.1c0.1,0,0.3,0.1,0.4,0.2
				c0.1,0.1,0.2,0.1,0.3,0.2c0.1,0.1,0.2,0.2,0.2,0.3c0.1,0.1,0.1,0.3,0.1,0.5c0,0.2,0,0.4-0.1,0.6s-0.2,0.3-0.3,0.5
				c-0.1,0.1-0.3,0.2-0.5,0.3c-0.2,0.1-0.4,0.1-0.7,0.1c-0.1,0-0.3,0-0.4,0c-0.1,0-0.3-0.1-0.4-0.1c-0.1-0.1-0.2-0.1-0.4-0.2
				c-0.1-0.1-0.2-0.2-0.3-0.2l0.2-0.4c0,0,0.1-0.1,0.1-0.1c0,0,0.1,0,0.1,0c0.1,0,0.1,0,0.2,0.1c0.1,0,0.1,0.1,0.2,0.1
				c0.1,0.1,0.2,0.1,0.3,0.1s0.2,0.1,0.4,0.1c0.2,0,0.4-0.1,0.5-0.2s0.2-0.3,0.2-0.5c0-0.1,0-0.2-0.1-0.3c-0.1-0.1-0.1-0.1-0.2-0.2
				c-0.1-0.1-0.2-0.1-0.3-0.1c-0.1,0-0.2-0.1-0.4-0.1s-0.3-0.1-0.4-0.1c-0.1-0.1-0.2-0.1-0.3-0.2c-0.1-0.1-0.2-0.2-0.2-0.3
				c-0.1-0.1-0.1-0.3-0.1-0.5c0-0.2,0-0.3,0.1-0.5s0.2-0.3,0.3-0.4c0.1-0.1,0.3-0.2,0.5-0.3c0.2-0.1,0.4-0.1,0.6-0.1
				c0.3,0,0.5,0,0.7,0.1c0.2,0.1,0.4,0.2,0.6,0.3L20.7,11.4z"/>
			<path class="st1" d="M27.8,10.6v0.7h-1.3v3.8h-0.8v-3.8h-1.3v-0.7H27.8z"/>
			<path class="st1" d="M35.5,12.8c0,0.3-0.1,0.6-0.2,0.9s-0.3,0.5-0.5,0.7c-0.2,0.2-0.4,0.4-0.7,0.5c-0.3,0.1-0.6,0.2-0.9,0.2
				c-0.3,0-0.6-0.1-0.9-0.2c-0.3-0.1-0.5-0.3-0.7-0.5c-0.2-0.2-0.4-0.4-0.5-0.7C31,13.5,31,13.2,31,12.8s0.1-0.6,0.2-0.9
				c0.1-0.3,0.3-0.5,0.5-0.7c0.2-0.2,0.4-0.4,0.7-0.5c0.3-0.1,0.6-0.2,0.9-0.2c0.3,0,0.6,0.1,0.9,0.2c0.3,0.1,0.5,0.3,0.7,0.5
				c0.2,0.2,0.3,0.4,0.5,0.7C35.4,12.2,35.5,12.5,35.5,12.8z M34.6,12.8c0-0.2,0-0.5-0.1-0.7c-0.1-0.2-0.2-0.4-0.3-0.5
				c-0.1-0.1-0.3-0.2-0.4-0.3c-0.2-0.1-0.4-0.1-0.6-0.1s-0.4,0-0.6,0.1c-0.2,0.1-0.3,0.2-0.4,0.3c-0.1,0.1-0.2,0.3-0.3,0.5
				c-0.1,0.2-0.1,0.4-0.1,0.7c0,0.2,0,0.5,0.1,0.7c0.1,0.2,0.2,0.4,0.3,0.5c0.1,0.1,0.3,0.2,0.4,0.3c0.2,0.1,0.4,0.1,0.6,0.1
				s0.4,0,0.6-0.1c0.2-0.1,0.3-0.2,0.4-0.3c0.1-0.1,0.2-0.3,0.3-0.5C34.6,13.3,34.6,13.1,34.6,12.8z"/>
			<path class="st1" d="M40,13.3v1.7h-0.8v-4.4h1.4c0.3,0,0.6,0,0.8,0.1s0.4,0.2,0.5,0.3c0.1,0.1,0.2,0.2,0.3,0.4
				c0.1,0.2,0.1,0.3,0.1,0.5c0,0.1,0,0.3-0.1,0.4c0,0.1-0.1,0.3-0.2,0.4c-0.1,0.1-0.2,0.2-0.3,0.3c-0.1,0.1-0.3,0.1-0.4,0.2
				c0.1,0.1,0.2,0.1,0.3,0.3l1.1,1.6h-0.7c-0.1,0-0.1,0-0.2,0c-0.1,0-0.1-0.1-0.1-0.1l-0.9-1.4c0-0.1-0.1-0.1-0.1-0.1s-0.1,0-0.2,0
				H40z M40,12.7h0.5c0.2,0,0.3,0,0.4-0.1c0.1,0,0.2-0.1,0.3-0.2c0.1-0.1,0.1-0.2,0.2-0.2c0-0.1,0.1-0.2,0.1-0.3
				c0-0.2-0.1-0.4-0.2-0.5c-0.1-0.1-0.4-0.2-0.7-0.2H40V12.7z"/>
			<path class="st1" d="M50.2,15.1h-0.6c-0.1,0-0.1,0-0.2-0.1c0,0-0.1-0.1-0.1-0.1L48.9,14h-1.8l-0.3,0.9c0,0,0,0.1-0.1,0.1
				c0,0-0.1,0.1-0.2,0.1h-0.6l1.7-4.4h0.8L50.2,15.1z M47.3,13.4h1.4l-0.5-1.5c0-0.1-0.1-0.1-0.1-0.2c0-0.1-0.1-0.2-0.1-0.3
				c0,0.1-0.1,0.2-0.1,0.3c0,0.1-0.1,0.2-0.1,0.2L47.3,13.4z"/>
			<path class="st1" d="M54.2,10.6C54.3,10.6,54.3,10.6,54.2,10.6c0.1,0,0.1,0,0.1,0.1c0,0,0,0,0.1,0.1l2.3,3c0-0.1,0-0.1,0-0.2
				c0-0.1,0-0.1,0-0.2v-2.7h0.7v4.4H57c-0.1,0-0.1,0-0.2,0s-0.1-0.1-0.1-0.1l-2.3-3c0,0.1,0,0.1,0,0.2s0,0.1,0,0.2v2.7h-0.7v-4.4
				L54.2,10.6C54.2,10.6,54.2,10.6,54.2,10.6z"/>
			<path class="st1" d="M64.6,10.6v0.7h-1.3v3.8h-0.8v-3.8h-1.3v-0.7H64.6z"/>
			<path class="st1" d="M71,10.6v0.7h-2v1.2h1.6v0.6H69v1.3h2v0.7h-2.8v-4.4H71z"/>
		</g>
	</g>
</g>
</svg>
