<svg xmlns="http://www.w3.org/2000/svg" viewBox="0 0 23.11 18.77"><defs><style>.cls-1{fill:#fff;}</style></defs><title>TWITTER</title><g id="Livello_2" data-name="Livello 2"><g id="Livello_1-2" data-name="Livello 1"><path class="cls-1" d="M23.11,2.22A9.47,9.47,0,0,1,20.38,3,4.77,4.77,0,0,0,22.47.34a9.45,9.45,0,0,1-3,1.15,4.74,4.74,0,0,0-8.19,3.24,4.92,4.92,0,0,0,.12,1.08,13.46,13.46,0,0,1-9.77-5A4.74,4.74,0,0,0,3.07,7.19,4.67,4.67,0,0,1,.93,6.6v.06a4.75,4.75,0,0,0,3.8,4.65,4.89,4.89,0,0,1-1.25.16,4.79,4.79,0,0,1-.9-.08A4.76,4.76,0,0,0,7,14.68a9.53,9.53,0,0,1-5.89,2A10.17,10.17,0,0,1,0,16.64a13.41,13.41,0,0,0,7.27,2.13A13.39,13.39,0,0,0,20.75,5.29V4.68a9.55,9.55,0,0,0,2.37-2.45Zm0,0"/></g></g></svg>